<svg width="596" height="285" viewBox="0 0 596 285" fill="none" xmlns="http://www.w3.org/2000/svg">
<path fill-rule="evenodd" clip-rule="evenodd" d="M314.5 0.500013C316.451 0.227013 317.951 0.893013 319 2.50001C320.276 5.36601 320.443 8.20001 319.5 11C316.783 12.033 314.949 11.2 314 8.50001C313.278 5.73901 313.445 3.07301 314.5 0.500013Z" fill="#B6070D"/>
<path fill-rule="evenodd" clip-rule="evenodd" d="M331.5 2.49998C333.948 2.08498 335.281 3.08498 335.5 5.49998C334.527 9.14798 332.193 10.814 328.5 10.5C328.722 7.49598 329.722 4.82898 331.5 2.49998Z" fill="#BD0512"/>
<path fill-rule="evenodd" clip-rule="evenodd" d="M302.5 11.5C300.078 8.554 298.411 8.887 297.5 12.5C293.839 10.251 293.673 7.917 297 5.5C299.73 6.728 301.564 8.728 302.5 11.5Z" fill="#AA0714"/>
<path fill-rule="evenodd" clip-rule="evenodd" d="M350.5 10.5C351.884 9.19904 353.384 9.19904 355 10.5C355.773 12.352 355.273 13.686 353.5 14.5C353.5 13.167 353.5 11.833 353.5 10.5C352.5 10.5 351.5 10.5 350.5 10.5Z" fill="#6B080F"/>
<path fill-rule="evenodd" clip-rule="evenodd" d="M581.5 10.5C585.607 9.85003 589.107 10.85 592 13.5C595.188 27.003 596.188 40.67 595 54.5C594.167 55.333 593.333 56.167 592.5 57C578.828 58.198 565.161 59.364 551.5 60.5C550.869 117.831 550.369 175.164 550 232.5C549.626 233.416 549.126 234.25 548.5 235C534.141 235.139 519.808 234.472 505.5 233C505 232.5 504.5 232 504 231.5C503.805 214.164 504.138 196.831 505 179.5C507.299 141.518 509.132 103.518 510.5 65.5C495.129 66.002 479.796 67.002 464.5 68.5C461.144 54.699 459.644 40.699 460 26.5C460.75 25.874 461.584 25.374 462.5 25C502.342 20.394 542.009 15.561 581.5 10.5Z" fill="#F9F9F9"/>
<path fill-rule="evenodd" clip-rule="evenodd" d="M350.5 10.5C351.5 10.5 352.5 10.5 353.5 10.5C353.5 11.833 353.5 13.167 353.5 14.5C350.278 18.801 345.945 20.801 340.5 20.5C342.415 15.918 345.749 12.584 350.5 10.5Z" fill="#B80711"/>
<path fill-rule="evenodd" clip-rule="evenodd" d="M302.5 11.5C305.978 13.453 307.645 16.453 307.5 20.5C305.801 20.66 304.134 20.494 302.5 20C300.585 17.6 298.919 15.1 297.5 12.5C298.411 8.88704 300.078 8.55404 302.5 11.5Z" fill="#BF060E"/>
<path fill-rule="evenodd" clip-rule="evenodd" d="M9.5 29.5C14.414 29.638 19.081 28.972 23.5 27.5C32.154 26.63 40.82 26.464 49.5 27C51.061 27.318 52.228 28.151 53 29.5C56.037 64.433 57.203 99.433 56.5 134.5C72.167 134.5 87.833 134.5 103.5 134.5C103.186 97.82 103.686 61.154 105 24.5C105.511 22.122 106.178 19.788 107 17.5C108.569 16.878 110.236 16.544 112 16.5C123.82 17.236 135.653 17.736 147.5 18C150.914 18.297 154.247 18.964 157.5 20C158.667 20.5 159.5 21.333 160 22.5C158.445 81.824 156.778 141.157 155 200.5C154.491 225.58 153.157 250.58 151 275.5C146.55 278.008 141.717 279.008 136.5 278.5C126.832 278.017 117.166 277.517 107.5 277C105.579 276.64 103.912 275.806 102.5 274.5C102.083 244.508 101.916 214.508 102 184.5C87.211 183.632 72.378 183.965 57.5 185.5C59.49 217.175 61.323 248.842 63 280.5C62.5 281.667 61.667 282.5 60.5 283C46.537 284.532 32.537 284.866 18.5 284C17.874 283.25 17.374 282.416 17 281.5C11.705 198.443 6.0383 115.443 0 32.5C2.5463 29.814 5.713 28.814 9.5 29.5Z" fill="#F9F9F9"/>
<path fill-rule="evenodd" clip-rule="evenodd" d="M23.5 27.4999C19.081 28.9719 14.414 29.6379 9.5 29.4999C13.9192 28.0279 18.586 27.3619 23.5 27.4999Z" fill="#B0B0B0"/>
<path fill-rule="evenodd" clip-rule="evenodd" d="M290.5 27.5C293.084 28.048 294.084 29.715 293.5 32.5C291.5 32.5 289.5 32.5 287.5 32.5C286.448 30.744 284.781 30.077 282.5 30.5C281.566 29.432 281.232 28.099 281.5 26.5C284.713 26.19 287.713 26.523 290.5 27.5Z" fill="#A30C0B"/>
<path fill-rule="evenodd" clip-rule="evenodd" d="M290.5 27.5C291.626 28.858 291.626 30.192 290.5 31.5C288.042 30.081 285.375 29.081 282.5 28.5C285.086 27.52 287.753 27.187 290.5 27.5Z" fill="#DB0003"/>
<path fill-rule="evenodd" clip-rule="evenodd" d="M282.5 30.5C284.781 30.077 286.448 30.744 287.5 32.5C285.447 32.598 283.78 31.931 282.5 30.5Z" fill="#5C0C0F"/>
<path fill-rule="evenodd" clip-rule="evenodd" d="M360.5 32.5C360.833 32.5 361.167 32.5 361.5 32.5C362.234 33.708 362.567 35.041 362.5 36.5C359.833 36.5 357.167 36.5 354.5 36.5C353.058 35.18 352.392 33.514 352.5 31.5C355.237 31.401 357.904 31.735 360.5 32.5Z" fill="#D8020B"/>
<path fill-rule="evenodd" clip-rule="evenodd" d="M361.5 32.5C364.084 33.048 365.084 34.715 364.5 37.5C360.958 37.813 357.625 37.479 354.5 36.5C357.167 36.5 359.833 36.5 362.5 36.5C362.567 35.041 362.234 33.708 361.5 32.5Z" fill="#A60B1B"/>
<path fill-rule="evenodd" clip-rule="evenodd" d="M395.5 38.4999C413.039 36.3479 429.039 40.1819 443.5 49.9999C455.236 63.3009 459.403 78.8009 456 96.4999C453.393 100.886 449.56 103.386 444.5 104C434.5 104.667 424.5 104.667 414.5 104C413.878 102.431 413.544 100.764 413.5 98.9999C415.092 92.9129 415.592 86.7469 415 80.4999C407.359 74.2599 401.359 75.5929 397 84.4999C395.448 96.8949 399.948 106.395 410.5 113C422.257 118.586 434.257 123.586 446.5 128C478.732 144.33 489.899 170.163 480 205.5C473.66 236.175 455.16 254.341 424.5 260C401.006 264.665 379.84 259.832 361 245.5C349.715 229.646 344.049 211.979 344 192.5C355.217 187.609 366.883 183.942 379 181.5C380.436 181.559 381.769 181.892 383 182.5C383.941 188.993 385.607 195.326 388 201.5C395.699 212.769 405.865 215.602 418.5 210C423.285 205.931 426.119 200.764 427 194.5C428.715 185.79 427.049 177.79 422 170.5C417.801 165.966 413.301 161.799 408.5 158C392.023 149.862 377.523 139.028 365 125.5C355.616 111.799 352.95 96.7989 357 80.4999C362.109 59.2309 374.943 45.2309 395.5 38.4999Z" fill="#FAFAFA"/>
<path fill-rule="evenodd" clip-rule="evenodd" d="M176.5 51.5C209.488 52.845 242.488 54.011 275.5 55C276.416 55.374 277.25 55.874 278 56.5C278.692 70.233 278.192 83.9 276.5 97.5C275.624 98.251 274.624 98.751 273.5 99C253.503 99.5 233.503 99.667 213.5 99.5C213.346 107.005 213.012 114.505 212.5 122C212.407 125.95 212.907 129.784 214 133.5C215.319 135.487 217.152 136.654 219.5 137C232.167 137.333 244.833 137.667 257.5 138C258.653 149.09 258.82 160.257 258 171.5C257.626 172.416 257.126 173.25 256.5 174C241.496 174.389 226.496 174.222 211.5 173.5C211.529 191.507 211.862 209.507 212.5 227.5C230.836 227.333 249.17 227.5 267.5 228C269.766 229.514 270.932 231.681 271 234.5C271.667 244.833 271.667 255.167 271 265.5C270.691 266.766 270.191 267.933 269.5 269C236.92 269.671 204.42 269.171 172 267.5C170.849 252.756 170.349 237.923 170.5 223C171.964 166.176 172.964 109.342 173.5 52.5C174.791 52.737 175.791 52.404 176.5 51.5Z" fill="#F9F9F9"/>
<path fill-rule="evenodd" clip-rule="evenodd" d="M337.5 64.5C336.77 62.955 335.437 62.122 333.5 62C328.332 62.295 323.332 62.128 318.5 61.5C316.08 61.292 313.747 61.626 311.5 62.5C310.304 62.154 310.304 61.654 311.5 61C310.207 60.51 308.873 60.343 307.5 60.5C307.55 58.41 306.55 57.077 304.5 56.5C302.889 57.32 302.222 58.654 302.5 60.5C300.496 59.327 298.996 57.66 298 55.5C294.103 39.479 299.269 27.646 313.5 20C329.407 15.455 340.741 20.622 347.5 35.5C350.045 47.369 346.712 57.036 337.5 64.5Z" fill="#C50916"/>
<path fill-rule="evenodd" clip-rule="evenodd" d="M318.5 61.5001C306.481 59.1511 300.981 51.8171 302 39.5001C309.966 25.0631 321.133 21.5631 335.5 29.0001C345.929 39.2481 345.595 49.2481 334.5 59.0001C329.286 60.5911 323.952 61.4251 318.5 61.5001Z" fill="#260A04"/>
<path fill-rule="evenodd" clip-rule="evenodd" d="M336.5 32.5C340.38 37.305 341.38 42.638 339.5 48.5C339.665 45.482 339.498 42.482 339 39.5C337.587 37.348 336.754 35.014 336.5 32.5Z" fill="#AA1625"/>
<path fill-rule="evenodd" clip-rule="evenodd" d="M334.5 31.5C335.167 31.833 335.833 32.167 336.5 32.5C336.754 35.014 337.587 37.348 339 39.5C339.498 42.482 339.665 45.482 339.5 48.5C338.053 53.614 334.72 56.614 329.5 57.5C323.828 57.24 318.161 56.907 312.5 56.5C304.496 52.389 302.33 46.056 306 37.5C308.028 34.308 310.528 31.641 313.5 29.5C317.163 30.112 320.83 30.279 324.5 30C322.744 29.798 321.078 29.298 319.5 28.5C320.667 28.167 321.833 27.833 323 27.5C326.522 29.47 330.355 30.803 334.5 31.5Z" fill="#E50914"/>
<path fill-rule="evenodd" clip-rule="evenodd" d="M334.5 31.5001C330.355 30.8031 326.522 29.4701 323 27.5001C321.833 27.8331 320.667 28.1671 319.5 28.5001C321.078 29.2981 322.744 29.7981 324.5 30.0001C320.83 30.2791 317.163 30.1121 313.5 29.5001C320.928 25.0281 327.928 25.6951 334.5 31.5001Z" fill="#B61020"/>
<path fill-rule="evenodd" clip-rule="evenodd" d="M312.5 56.5C318.161 56.907 323.828 57.24 329.5 57.5C327.527 58.163 325.361 58.496 323 58.5C319.218 58.621 315.718 57.954 312.5 56.5Z" fill="#B3131D"/>
<path fill-rule="evenodd" clip-rule="evenodd" d="M318.5 61.5C323.332 62.128 328.332 62.295 333.5 62C335.437 62.122 336.77 62.955 337.5 64.5C337.389 65.117 337.056 65.617 336.5 66C333.211 66.882 329.877 67.548 326.5 68C325.62 69.356 325.286 70.856 325.5 72.5C321.382 75.195 316.716 76.195 311.5 75.5C311.81 72.287 311.477 69.287 310.5 66.5C307.109 65.471 304.443 63.471 302.5 60.5C302.222 58.654 302.889 57.32 304.5 56.5C306.55 57.077 307.55 58.41 307.5 60.5C308.873 60.343 310.207 60.51 311.5 61C310.304 61.654 310.304 62.154 311.5 62.5C313.747 61.626 316.08 61.292 318.5 61.5Z" fill="#DE0212"/>
<path fill-rule="evenodd" clip-rule="evenodd" d="M310.5 66.5C311.477 69.287 311.81 72.287 311.5 75.5C316.716 76.195 321.382 75.195 325.5 72.5C325.714 74.144 325.38 75.644 324.5 77C319.853 77.005 315.186 76.838 310.5 76.5C310.5 73.167 310.5 69.833 310.5 66.5Z" fill="#990E18"/>
<path fill-rule="evenodd" clip-rule="evenodd" d="M289.5 84.5C306.15 85.808 322.817 86.975 339.5 88C340.684 89.18 341.351 90.68 341.5 92.5C335.5 152.499 329.5 212.499 323.5 272.5C311.11 272.098 298.943 270.431 287 267.5C287.512 206.504 288.345 145.504 289.5 84.5Z" fill="#FAFAFA"/>
</svg>
