<svg width="438" height="439" viewBox="0 0 438 439" fill="none" xmlns="http://www.w3.org/2000/svg">
<path fill-rule="evenodd" clip-rule="evenodd" d="M267.5 6.5C256.51 5.001 245.51 3.501 234.5 2C222.659 1.174 210.993 1.341 199.5 2.5C197.167 2.5 194.833 2.5 192.5 2.5C193.263 1.732 194.263 1.232 195.5 0.999999C218.946 -0.270001 242.28 0.729999 265.5 4C266.381 4.708 267.047 5.542 267.5 6.5Z" fill="#C2C2C2"/>
<path fill-rule="evenodd" clip-rule="evenodd" d="M267.5 6.50001C270.679 7.79301 274.012 8.46001 277.5 8.50001C277.611 9.11701 277.944 9.61701 278.5 10C281.478 10.696 284.478 11.196 287.5 11.5C289.05 12.441 290.716 13.107 292.5 13.5C294.936 14.871 297.603 15.871 300.5 16.5C304.691 17.784 308.691 19.45 312.5 21.5C314.456 22.492 316.456 23.492 318.5 24.5C365.504 48.674 399.671 85.007 421 133.5C422.901 139.713 425.068 145.713 427.5 151.5C427.565 154.428 428.232 157.095 429.5 159.5C431.548 166.409 433.215 173.409 434.5 180.5C435.571 186.957 436.571 193.29 437.5 199.5C438.124 220.926 437.124 242.26 434.5 263.5C433.132 267.298 432.132 271.298 431.5 275.5C430.508 278.823 429.508 282.156 428.5 285.5C426.59 288.452 425.59 291.786 425.5 295.5C423.415 297.684 422.415 300.351 422.5 303.5C421.117 305.978 420.117 308.645 419.5 311.5C415.406 317.351 412.073 323.685 409.5 330.5C408.094 330.973 407.427 331.973 407.5 333.5C405.336 335.822 403.669 338.489 402.5 341.5C399.421 344.257 397.088 347.59 395.5 351.5C390.439 356.229 386.106 361.562 382.5 367.5C380.167 369.167 378.167 371.167 376.5 373.5C371.268 377.944 366.268 382.61 361.5 387.5C345.802 399.842 328.802 410.175 310.5 418.5C306.873 419.321 303.54 420.654 300.5 422.5C299.22 423.931 297.553 424.598 295.5 424.5C292.654 424.552 290.32 425.552 288.5 427.5C274.9 431.32 261.233 434.32 247.5 436.5C243.833 436.5 240.167 436.5 236.5 436.5C231.637 436.382 226.803 436.715 222 437.5C214.096 434.241 205.93 433.241 197.5 434.5C188.509 433.069 179.509 431.569 170.5 430C168.114 429.716 167.448 428.716 168.5 427C164.523 426.469 160.69 426.969 157 428.5C152.032 426.768 146.866 425.435 141.5 424.5C137.026 422.376 132.359 420.709 127.5 419.5C125.967 417.755 123.967 416.755 121.5 416.5C100.29 406.285 81.2899 392.952 64.4999 376.5C60.8329 372.167 56.8329 368.167 52.4999 364.5C51.8329 363.167 50.8329 362.167 49.4999 361.5C48.9199 359.251 47.5869 357.585 45.4999 356.5C43.6339 352.742 41.3009 349.408 38.4999 346.5C37.5809 343.911 35.9139 341.911 33.4999 340.5C28.8949 333.184 24.7289 325.517 20.9999 317.5C18.8489 312.839 17.0159 308.172 15.4999 303.5C14.2039 298.607 12.5379 293.94 10.4999 289.5C10.6339 287.708 10.3009 286.042 9.49992 284.5C9.11792 279.908 8.11792 275.575 6.49992 271.5C4.88092 263.996 3.38092 256.33 1.99992 248.5C1.49992 229.503 1.33292 210.503 1.49992 191.5C1.26292 190.209 1.59592 189.209 2.49992 188.5C4.54992 182.474 5.54992 176.141 5.49992 169.5C8.24592 162.808 10.2459 155.808 11.4999 148.5C11.4999 148.167 11.4999 147.833 11.4999 147.5C13.0739 145.898 13.7409 143.898 13.4999 141.5C16.7989 134.32 19.7989 126.987 22.4999 119.5C24.5389 118.089 25.5389 116.089 25.4999 113.5C29.1889 109.461 31.8549 104.794 33.4999 99.5C37.5959 94.966 40.9289 89.966 43.4999 84.5C46.1899 82.807 48.1899 80.473 49.4999 77.5C52.8329 73.833 56.1669 70.167 59.4999 66.5C59.8099 64.856 60.8099 63.856 62.4999 63.5C68.1099 59.228 73.4429 54.562 78.4999 49.5C82.0819 47.88 85.0819 45.547 87.4999 42.5C88.5449 41.122 89.8779 40.122 91.4999 39.5C94.7039 38.617 97.3709 36.95 99.4999 34.5C103.303 32.429 106.97 30.096 110.5 27.5C113.241 27.293 115.574 26.293 117.5 24.5C117.842 23.662 118.508 23.328 119.5 23.5C123.593 22.618 127.26 20.951 130.5 18.5C133.73 17.192 137.064 16.192 140.5 15.5C159.776 8.85001 179.443 4.51701 199.5 2.50001C210.993 1.34101 222.659 1.17401 234.5 2.00001C245.51 3.50101 256.51 5.00101 267.5 6.50001Z" fill="#0C0C0C"/>
<path fill-rule="evenodd" clip-rule="evenodd" d="M192.5 2.5C194.833 2.5 197.167 2.5 199.5 2.5C179.443 4.517 159.776 8.85 140.5 15.5C140.611 14.883 140.944 14.383 141.5 14C157.909 7.598 174.909 3.765 192.5 2.5Z" fill="#7D7D7D"/>
<path fill-rule="evenodd" clip-rule="evenodd" d="M277.5 8.5C281.162 8.723 284.495 9.723 287.5 11.5C284.478 11.196 281.478 10.696 278.5 10C277.944 9.617 277.611 9.117 277.5 8.5Z" fill="#9E9E9E"/>
<path fill-rule="evenodd" clip-rule="evenodd" d="M292.5 13.5C295.716 13.345 298.383 14.345 300.5 16.5C297.603 15.871 294.936 14.871 292.5 13.5Z" fill="#A3A3A3"/>
<path fill-rule="evenodd" clip-rule="evenodd" d="M130.5 18.5C127.26 20.951 123.593 22.618 119.5 23.5C122.72 21.06 126.387 19.393 130.5 18.5Z" fill="#949494"/>
<path fill-rule="evenodd" clip-rule="evenodd" d="M312.5 21.5C315.313 21.025 317.313 22.025 318.5 24.5C316.456 23.492 314.456 22.492 312.5 21.5Z" fill="#9A9A9A"/>
<path fill-rule="evenodd" clip-rule="evenodd" d="M117.5 24.5C115.574 26.293 113.241 27.293 110.5 27.5C112.426 25.707 114.759 24.707 117.5 24.5Z" fill="#959595"/>
<path fill-rule="evenodd" clip-rule="evenodd" d="M99.5 34.5C97.371 36.95 94.704 38.617 91.5 39.5C93.582 37.12 96.249 35.454 99.5 34.5Z" fill="#646464"/>
<path fill-rule="evenodd" clip-rule="evenodd" d="M87.5 42.5C85.082 45.547 82.082 47.88 78.5 49.5C80.879 46.465 83.879 44.131 87.5 42.5Z" fill="#646464"/>
<path fill-rule="evenodd" clip-rule="evenodd" d="M296.5 53.5C296.5 53.833 296.5 54.167 296.5 54.5C294.419 53.377 292.253 52.377 290 51.5C288.699 53.155 287.199 54.489 285.5 55.5C287.93 48.31 291.597 47.644 296.5 53.5Z" fill="#9D9D9D"/>
<path fill-rule="evenodd" clip-rule="evenodd" d="M296.5 54.5C296.5 54.167 296.5 53.833 296.5 53.5C301.043 55.372 304.71 58.372 307.5 62.5C303.852 59.858 300.185 57.191 296.5 54.5Z" fill="#515151"/>
<path fill-rule="evenodd" clip-rule="evenodd" d="M78.5 49.5C73.443 54.562 68.11 59.228 62.5 63.5C66.914 57.751 72.247 53.084 78.5 49.5Z" fill="#646464"/>
<path fill-rule="evenodd" clip-rule="evenodd" d="M278.5 80.5C278.167 79.833 277.833 79.167 277.5 78.5C277.594 75.932 278.928 74.432 281.5 74C280.709 71.25 280.709 68.417 281.5 65.5C282.479 64.235 283.479 62.901 284.5 61.5C285.365 60.417 286.365 60.251 287.5 61C285.539 67.214 283.373 73.381 281 79.5C280.329 80.252 279.496 80.586 278.5 80.5Z" fill="#F2F2F2"/>
<path fill-rule="evenodd" clip-rule="evenodd" d="M296.5 54.5C300.185 57.191 303.852 59.858 307.5 62.5C312.909 69.608 318.409 76.608 324 83.5C325.791 87.411 327.291 91.411 328.5 95.5C326.265 94.772 324.432 93.439 323 91.5C322.51 92.793 322.343 94.127 322.5 95.5C316.269 82.919 307.935 71.752 297.5 62C295.449 59.98 293.116 58.48 290.5 57.5C289.504 57.586 288.671 57.252 288 56.5C287.751 57.624 287.251 58.624 286.5 59.5C285.702 59.043 285.369 58.376 285.5 57.5C285.5 56.833 285.5 56.167 285.5 55.5C287.199 54.489 288.699 53.155 290 51.5C292.253 52.377 294.419 53.377 296.5 54.5Z" fill="#D2D2D2"/>
<path fill-rule="evenodd" clip-rule="evenodd" d="M231.5 64.5C220.148 64.373 208.815 64.706 197.5 65.5C204.103 64.006 210.936 63.339 218 63.5C222.68 63.501 227.18 63.834 231.5 64.5Z" fill="#909090"/>
<path fill-rule="evenodd" clip-rule="evenodd" d="M290.5 57.5C287.857 65.054 285.357 72.72 283 80.5C281.384 81.801 279.884 81.801 278.5 80.5C279.496 80.586 280.329 80.252 281 79.5C283.373 73.381 285.539 67.214 287.5 61C286.365 60.251 285.365 60.417 284.5 61.5C283.479 62.901 282.479 64.235 281.5 65.5C281.54 62.119 282.873 59.452 285.5 57.5C285.369 58.376 285.702 59.043 286.5 59.5C287.251 58.624 287.751 57.624 288 56.5C288.671 57.252 289.504 57.586 290.5 57.5Z" fill="#B5B5B5"/>
<path fill-rule="evenodd" clip-rule="evenodd" d="M59.5 66.5C56.167 70.167 52.833 73.833 49.5 77.5C51.442 72.559 54.775 68.892 59.5 66.5Z" fill="#989898"/>
<path fill-rule="evenodd" clip-rule="evenodd" d="M125.5 67.5C121.216 73.105 117.216 78.772 113.5 84.5C115.72 79.728 118.22 75.062 121 70.5C122.129 68.859 123.629 67.859 125.5 67.5Z" fill="#636363"/>
<path fill-rule="evenodd" clip-rule="evenodd" d="M166.5 72.5C176.353 69.525 186.353 67.191 196.5 65.5C196.833 65.5 197.167 65.5 197.5 65.5C208.815 64.706 220.148 64.373 231.5 64.5C247.778 64.488 263.445 67.488 278.5 73.5C279.257 70.63 280.257 67.964 281.5 65.5C280.709 68.417 280.709 71.25 281.5 74C278.928 74.432 277.594 75.932 277.5 78.5C273.619 77.097 269.619 76.097 265.5 75.5C257.372 71.691 248.705 69.691 239.5 69.5C233.559 68.089 227.392 67.423 221 67.5C211.471 67.779 201.971 68.446 192.5 69.5C184.626 71.846 176.626 73.679 168.5 75C165.931 75.898 163.598 77.065 161.5 78.5C160.833 79.167 160.167 79.833 159.5 80.5C158.167 80.5 156.833 80.5 155.5 80.5C153.703 73.774 151.703 67.108 149.5 60.5C149.905 59.45 150.571 59.45 151.5 60.5C152.451 62.901 153.784 65.068 155.5 67C156.738 69.715 156.738 72.382 155.5 75C156.667 75.5 157.5 76.333 158 77.5C160.878 75.906 163.712 74.239 166.5 72.5Z" fill="#E6E6E6"/>
<path fill-rule="evenodd" clip-rule="evenodd" d="M230.5 69.5C233.5 69.5 236.5 69.5 239.5 69.5C248.705 69.691 257.372 71.691 265.5 75.5C253.788 73.16 242.121 71.16 230.5 69.5Z" fill="#818181"/>
<path fill-rule="evenodd" clip-rule="evenodd" d="M212.5 69.5C206.712 70.81 200.712 71.477 194.5 71.5C200.274 70.054 206.274 69.388 212.5 69.5Z" fill="#4E4E4E"/>
<path fill-rule="evenodd" clip-rule="evenodd" d="M196.5 65.5C186.353 67.191 176.353 69.525 166.5 72.5C165.833 72.5 165.167 72.5 164.5 72.5C164.611 71.883 164.944 71.383 165.5 71C175.603 67.872 185.936 66.038 196.5 65.5Z" fill="#8C8C8C"/>
<path fill-rule="evenodd" clip-rule="evenodd" d="M239.5 69.5C236.5 69.5 233.5 69.5 230.5 69.5C224.5 69.5 218.5 69.5 212.5 69.5C206.274 69.388 200.274 70.054 194.5 71.5C183.38 73.364 172.38 75.698 161.5 78.5C163.598 77.065 165.931 75.898 168.5 75C176.626 73.679 184.626 71.846 192.5 69.5C201.971 68.446 211.471 67.779 221 67.5C227.392 67.423 233.559 68.089 239.5 69.5Z" fill="#B9B9B9"/>
<path fill-rule="evenodd" clip-rule="evenodd" d="M147.5 60.5C148.167 60.5 148.833 60.5 149.5 60.5C151.703 67.108 153.703 73.774 155.5 80.5C156.833 80.5 158.167 80.5 159.5 80.5C157.965 81.788 156.299 81.788 154.5 80.5C152.543 73.625 150.21 66.959 147.5 60.5Z" fill="#868686"/>
<path fill-rule="evenodd" clip-rule="evenodd" d="M265.5 75.5C269.619 76.097 273.619 77.097 277.5 78.5C277.833 79.167 278.167 79.833 278.5 80.5C274.071 78.981 269.738 77.314 265.5 75.5Z" fill="#7D7D7D"/>
<path fill-rule="evenodd" clip-rule="evenodd" d="M317.5 78.5C321.34 82.069 322.673 86.069 321.5 90.5C317.797 87.135 316.464 83.135 317.5 78.5Z" fill="#EFEFEF"/>
<path fill-rule="evenodd" clip-rule="evenodd" d="M49.5 77.5C48.19 80.473 46.19 82.807 43.5 84.5C44.092 80.911 46.092 78.578 49.5 77.5Z" fill="#B4B4B4"/>
<path fill-rule="evenodd" clip-rule="evenodd" d="M128.5 73.5C124.736 80.038 120.736 86.372 116.5 92.5C117.516 88.135 119.349 84.135 122 80.5C123.716 77.622 125.883 75.288 128.5 73.5Z" fill="#828282"/>
<path fill-rule="evenodd" clip-rule="evenodd" d="M111.5 88.5C109.705 94.591 107.372 100.258 104.5 105.5C105.505 99.174 107.838 93.507 111.5 88.5Z" fill="#7D7D7D"/>
<path fill-rule="evenodd" clip-rule="evenodd" d="M164.5 72.5C165.167 72.5 165.833 72.5 166.5 72.5C163.712 74.239 160.878 75.906 158 77.5C157.5 76.333 156.667 75.5 155.5 75C156.738 72.382 156.738 69.715 155.5 67C153.784 65.068 152.451 62.901 151.5 60.5C150.571 59.45 149.905 59.45 149.5 60.5C148.833 60.5 148.167 60.5 147.5 60.5C147.478 58.2 146.478 57.033 144.5 57C138.815 62.244 133.482 67.744 128.5 73.5C125.883 75.288 123.716 77.622 122 80.5C119.349 84.135 117.516 88.135 116.5 92.5C108.447 110.657 104.114 129.657 103.5 149.5C103.828 138.986 103.494 128.653 102.5 118.5C102.5 117.167 102.5 115.833 102.5 114.5C103.01 111.461 103.677 108.461 104.5 105.5C107.372 100.258 109.705 94.591 111.5 88.5C111.989 87.005 112.655 85.671 113.5 84.5C117.216 78.772 121.216 73.105 125.5 67.5C130.269 62.229 135.269 57.062 140.5 52C145.456 49.393 149.289 50.56 152 55.5C154.519 61.006 156.519 66.673 158 72.5C160.12 73.605 162.287 73.605 164.5 72.5Z" fill="#DADADA"/>
<path fill-rule="evenodd" clip-rule="evenodd" d="M33.5 99.5C31.855 104.794 29.189 109.461 25.5 113.5C26.967 107.983 29.634 103.316 33.5 99.5Z" fill="#A4A4A4"/>
<path fill-rule="evenodd" clip-rule="evenodd" d="M324.5 101.5C328.015 106.854 330.015 112.854 330.5 119.5C327.921 113.919 325.921 107.919 324.5 101.5Z" fill="#9F9F9F"/>
<path fill-rule="evenodd" clip-rule="evenodd" d="M25.5 113.5C25.539 116.089 24.539 118.089 22.5 119.5C22.992 117.181 23.992 115.181 25.5 113.5Z" fill="#848484"/>
<path fill-rule="evenodd" clip-rule="evenodd" d="M186.5 115.5C181.384 116.806 176.051 117.473 170.5 117.5C175.583 115.922 180.916 115.255 186.5 115.5Z" fill="#656565"/>
<path fill-rule="evenodd" clip-rule="evenodd" d="M250.5 115.5C255.616 116.806 260.949 117.473 266.5 117.5C271.833 117.833 277.167 118.167 282.5 118.5C282.918 119.222 283.584 119.722 284.5 120C287.146 120.497 289.813 120.664 292.5 120.5C294.265 121.461 296.265 121.795 298.5 121.5C299.712 128.89 301.045 136.223 302.5 143.5C295.833 143.5 289.167 143.5 282.5 143.5C281.833 143.5 281.167 143.5 280.5 143.5C279.391 142.71 278.058 142.21 276.5 142C269.508 141.5 262.508 141.334 255.5 141.5C252.833 141.5 250.167 141.5 247.5 141.5C229.341 140.503 211.008 140.17 192.5 140.5C183.944 140.22 175.61 140.886 167.5 142.5C162.156 142.334 156.823 142.501 151.5 143C150.584 143.278 149.918 143.778 149.5 144.5C147.167 144.5 144.833 144.5 142.5 144.5C140.167 144.5 137.833 144.5 135.5 144.5C136.08 140.19 136.414 135.857 136.5 131.5C137.117 131.389 137.617 131.056 138 130.5C138.567 127.832 139.067 125.166 139.5 122.5C147.182 121.887 154.849 121.053 162.5 120C165.457 119.721 168.123 118.887 170.5 117.5C176.051 117.473 181.384 116.806 186.5 115.5C207.822 114.299 229.155 114.299 250.5 115.5Z" fill="#FBFBFB"/>
<path fill-rule="evenodd" clip-rule="evenodd" d="M250.5 115.5C256.069 115.376 261.402 116.043 266.5 117.5C260.949 117.473 255.616 116.806 250.5 115.5Z" fill="#757575"/>
<path fill-rule="evenodd" clip-rule="evenodd" d="M170.5 117.5C168.123 118.887 165.457 119.721 162.5 120C154.849 121.053 147.182 121.887 139.5 122.5C139.067 125.166 138.567 127.832 138 130.5C137.617 131.056 137.117 131.389 136.5 131.5C136.723 128.216 137.39 125.049 138.5 122C149.088 119.908 159.755 118.408 170.5 117.5Z" fill="#BABABA"/>
<path fill-rule="evenodd" clip-rule="evenodd" d="M282.5 118.5C286.04 118.753 289.373 119.419 292.5 120.5C289.813 120.664 287.146 120.497 284.5 120C283.584 119.722 282.918 119.222 282.5 118.5Z" fill="#727272"/>
<path fill-rule="evenodd" clip-rule="evenodd" d="M102.5 114.5C102.5 115.833 102.5 117.167 102.5 118.5C102.79 122.324 101.79 125.658 99.5 128.5C99.77 123.55 100.77 118.883 102.5 114.5Z" fill="#9D9D9D"/>
<path fill-rule="evenodd" clip-rule="evenodd" d="M292.5 120.5C294.924 120.192 297.257 120.526 299.5 121.5C301.807 128.672 303.474 136.005 304.5 143.5C303.306 144.777 301.64 145.444 299.5 145.5C293.653 145.101 287.986 144.434 282.5 143.5C289.167 143.5 295.833 143.5 302.5 143.5C301.045 136.223 299.712 128.89 298.5 121.5C296.265 121.795 294.265 121.461 292.5 120.5Z" fill="#AEAEAE"/>
<path fill-rule="evenodd" clip-rule="evenodd" d="M99.5 128.5C99.72 133.1 99.054 137.433 97.5 141.5C97.28 136.9 97.946 132.567 99.5 128.5Z" fill="#838383"/>
<path fill-rule="evenodd" clip-rule="evenodd" d="M331.5 128.5C332.913 131.219 333.58 134.219 333.5 137.5C333.5 141.833 333.5 146.167 333.5 150.5C332.384 143.354 331.717 136.02 331.5 128.5Z" fill="#3D3D3D"/>
<path fill-rule="evenodd" clip-rule="evenodd" d="M13.5001 141.5C13.7411 143.898 13.0741 145.898 11.5001 147.5C11.2591 145.102 11.9261 143.102 13.5001 141.5Z" fill="#999999"/>
<path fill-rule="evenodd" clip-rule="evenodd" d="M255.5 141.5C262.508 141.334 269.508 141.5 276.5 142C278.058 142.21 279.391 142.71 280.5 143.5C277.833 143.5 275.167 143.5 272.5 143.5C266.57 143.872 260.903 143.205 255.5 141.5Z" fill="#909090"/>
<path fill-rule="evenodd" clip-rule="evenodd" d="M134.5 140.5C134.5 142.167 134.5 143.833 134.5 145.5C137.385 145.806 140.052 145.473 142.5 144.5C144.833 144.5 147.167 144.5 149.5 144.5C155.66 144.018 161.66 143.351 167.5 142.5C176.022 142.345 184.356 141.678 192.5 140.5C211.008 140.17 229.341 140.503 247.5 141.5C230.83 141.333 214.163 141.5 197.5 142C176.164 143.611 154.831 145.111 133.5 146.5C133.205 144.265 133.539 142.265 134.5 140.5Z" fill="#5C5C5C"/>
<path fill-rule="evenodd" clip-rule="evenodd" d="M167.5 142.5C161.66 143.351 155.66 144.018 149.5 144.5C149.918 143.778 150.584 143.278 151.5 143C156.823 142.501 162.156 142.334 167.5 142.5Z" fill="#B2B2B2"/>
<path fill-rule="evenodd" clip-rule="evenodd" d="M192.5 140.5C184.356 141.678 176.022 142.345 167.5 142.5C175.61 140.886 183.944 140.22 192.5 140.5Z" fill="#BDBDBD"/>
<path fill-rule="evenodd" clip-rule="evenodd" d="M333.5 137.5C334.483 141.298 334.817 145.298 334.5 149.5C336.099 149.232 337.432 149.566 338.5 150.5C336.833 150.5 335.167 150.5 333.5 150.5C333.5 146.167 333.5 141.833 333.5 137.5Z" fill="#929292"/>
<path fill-rule="evenodd" clip-rule="evenodd" d="M136.5 131.5C136.414 135.857 136.08 140.19 135.5 144.5C137.833 144.5 140.167 144.5 142.5 144.5C140.052 145.473 137.385 145.806 134.5 145.5C134.5 143.833 134.5 142.167 134.5 140.5C134.42 137.219 135.087 134.219 136.5 131.5Z" fill="#BBBBBB"/>
<path fill-rule="evenodd" clip-rule="evenodd" d="M272.5 143.5C275.167 143.5 277.833 143.5 280.5 143.5C281.167 143.5 281.833 143.5 282.5 143.5C287.986 144.434 293.653 145.101 299.5 145.5C301.64 145.444 303.306 144.777 304.5 143.5C305.434 144.568 305.768 145.901 305.5 147.5C294.325 146.429 283.325 145.096 272.5 143.5Z" fill="#3E3E3E"/>
<path fill-rule="evenodd" clip-rule="evenodd" d="M334.5 114.5C337.943 124.448 339.943 134.782 340.5 145.5C345.181 145.669 349.848 146.002 354.5 146.5C355.833 147.167 357.167 147.833 358.5 148.5C351.917 148.188 345.417 147.522 339 146.5C337.408 135.874 335.908 125.207 334.5 114.5Z" fill="#B8B8B8"/>
<path fill-rule="evenodd" clip-rule="evenodd" d="M102.5 118.5C103.494 128.653 103.828 138.986 103.5 149.5C102.5 149.5 101.5 149.5 100.5 149.5C90.251 150.421 80.251 152.087 70.5 154.5C63.927 154.846 57.593 155.846 51.5 157.5C49.5 157.5 47.5 157.5 45.5 157.5C45.519 159.06 45.852 160.56 46.5 162C48.276 165.443 50.61 168.277 53.5 170.5C53.5 174.175 55.167 176.841 58.5 178.5C59.683 182.55 61.349 186.383 63.5 190C63.167 190.5 62.833 191 62.5 191.5C61.431 190.09 60.097 189.09 58.5 188.5C53.283 180.086 48.449 171.419 44 162.5C43.184 161.177 42.017 160.511 40.5 160.5C40.5 160.167 40.5 159.833 40.5 159.5C40.5 158.167 40.5 156.833 40.5 155.5C45.447 155.283 50.114 154.283 54.5 152.5C56.265 151.539 58.265 151.205 60.5 151.5C72.372 149.989 84.038 147.989 95.5 145.5C97.104 144.713 97.771 143.38 97.5 141.5C99.054 137.433 99.72 133.1 99.5 128.5C101.79 125.658 102.79 122.324 102.5 118.5Z" fill="#EAEAEA"/>
<path fill-rule="evenodd" clip-rule="evenodd" d="M328.5 95.5C331.676 101.365 333.676 107.699 334.5 114.5C335.908 125.207 337.408 135.874 339 146.5C345.417 147.522 351.917 148.188 358.5 148.5C363.716 149.969 369.05 150.635 374.5 150.5C379.585 152.143 384.918 153.143 390.5 153.5C389.852 155.586 388.352 156.586 386 156.5C382.208 155.69 378.375 155.356 374.5 155.5C373.833 155.5 373.167 155.5 372.5 155.5C361.447 152.83 350.114 151.163 338.5 150.5C337.432 149.566 336.099 149.232 334.5 149.5C334.817 145.298 334.483 141.298 333.5 137.5C333.58 134.219 332.913 131.219 331.5 128.5C331.037 125.518 330.704 122.518 330.5 119.5C330.015 112.854 328.015 106.854 324.5 101.5C323.27 99.703 322.604 97.703 322.5 95.5C322.343 94.127 322.51 92.793 323 91.5C324.432 93.439 326.265 94.772 328.5 95.5Z" fill="#E8E8E8"/>
<path fill-rule="evenodd" clip-rule="evenodd" d="M354.5 146.5C361.32 147.633 367.987 148.966 374.5 150.5C369.05 150.635 363.716 149.969 358.5 148.5C357.167 147.833 355.833 147.167 354.5 146.5Z" fill="#666666"/>
<path fill-rule="evenodd" clip-rule="evenodd" d="M95.5 145.5C84.038 147.989 72.372 149.989 60.5 151.5C68.245 149.146 76.245 147.312 84.5 146C88.152 145.501 91.818 145.335 95.5 145.5Z" fill="#969696"/>
<path fill-rule="evenodd" clip-rule="evenodd" d="M100.5 149.5C90.808 152.226 80.808 153.893 70.5 154.5C80.251 152.087 90.251 150.421 100.5 149.5Z" fill="#959595"/>
<path fill-rule="evenodd" clip-rule="evenodd" d="M338.5 150.5C350.114 151.163 361.447 152.83 372.5 155.5C364.475 154.995 356.475 154.162 348.5 153C344.91 152.689 341.577 151.856 338.5 150.5Z" fill="#7C7C7C"/>
<path fill-rule="evenodd" clip-rule="evenodd" d="M54.5 152.5C50.114 154.283 45.447 155.283 40.5 155.5C40.5 156.833 40.5 158.167 40.5 159.5C39.522 159.189 38.855 158.522 38.5 157.5C39.246 156.264 39.579 154.93 39.5 153.5C44.482 152.947 49.482 152.613 54.5 152.5Z" fill="#B4B4B4"/>
<path fill-rule="evenodd" clip-rule="evenodd" d="M427.5 151.5C429.04 153.838 429.706 156.505 429.5 159.5C428.232 157.095 427.565 154.428 427.5 151.5Z" fill="#727272"/>
<path fill-rule="evenodd" clip-rule="evenodd" d="M11.5 148.5C10.246 155.808 8.246 162.808 5.5 169.5C5.804 166.478 6.304 163.478 7 160.5C7.946 156.192 9.446 152.192 11.5 148.5Z" fill="#919191"/>
<path fill-rule="evenodd" clip-rule="evenodd" d="M70.5 154.5C69.737 155.268 68.737 155.768 67.5 156C62.178 156.684 56.844 157.184 51.5 157.5C57.593 155.846 63.927 154.846 70.5 154.5Z" fill="#9D9D9D"/>
<path fill-rule="evenodd" clip-rule="evenodd" d="M51.5 157.5C49.958 158.141 48.624 159.141 47.5 160.5C50.026 163.557 52.026 166.891 53.5 170.5C50.61 168.277 48.276 165.443 46.5 162C45.852 160.56 45.519 159.06 45.5 157.5C47.5 157.5 49.5 157.5 51.5 157.5Z" fill="#AAAAAA"/>
<path fill-rule="evenodd" clip-rule="evenodd" d="M40.5 160.5C42.017 160.511 43.184 161.177 44 162.5C48.449 171.419 53.283 180.086 58.5 188.5C55.203 185.264 52.37 181.597 50 177.5C46.835 171.838 43.669 166.171 40.5 160.5Z" fill="#959595"/>
<path fill-rule="evenodd" clip-rule="evenodd" d="M53.5 170.5C55.95 172.629 57.617 175.296 58.5 178.5C55.167 176.841 53.5 174.175 53.5 170.5Z" fill="#9F9F9F"/>
<path fill-rule="evenodd" clip-rule="evenodd" d="M390.5 153.5C393.855 153.368 396.189 154.701 397.5 157.5C393.108 166.18 388.608 174.846 384 183.5C375.997 193.51 367.997 203.51 360 213.5C356.667 216.167 353.333 218.833 350 221.5C349.832 242.671 349.332 263.671 348.5 284.5C348.827 263.258 348.494 242.091 347.5 221C351.088 218.623 354.588 216.123 358 213.5C358.456 212.256 357.956 211.423 356.5 211C357.5 210 358.5 209 359.5 208C357.565 208.058 355.898 208.891 354.5 210.5C354.5 210.167 354.5 209.833 354.5 209.5C368.082 194.577 379.748 178.244 389.5 160.5C389.291 159.914 388.957 159.414 388.5 159C383.418 158.963 378.751 157.797 374.5 155.5C378.375 155.356 382.208 155.69 386 156.5C388.352 156.586 389.852 155.586 390.5 153.5Z" fill="#D6D6D6"/>
<path fill-rule="evenodd" clip-rule="evenodd" d="M434.5 180.5C435.748 181.334 436.415 182.667 436.5 184.5C437.255 189.474 437.589 194.474 437.5 199.5C436.571 193.29 435.571 186.957 434.5 180.5Z" fill="#ABABAB"/>
<path fill-rule="evenodd" clip-rule="evenodd" d="M5.5 169.5C5.55 176.141 4.55 182.474 2.5 188.5C2.625 181.902 3.625 175.569 5.5 169.5Z" fill="#4B4B4B"/>
<path fill-rule="evenodd" clip-rule="evenodd" d="M169.5 193.5C172.609 197.397 175.943 201.064 179.5 204.5C182.389 208.967 183.223 213.967 182 219.5C181.8 221.32 180.966 222.653 179.5 223.5C175.602 227.881 170.935 231.381 165.5 234C159.5 234.667 153.5 234.667 147.5 234C143.737 232.136 139.737 230.969 135.5 230.5C134.135 228.14 132.135 226.473 129.5 225.5C128.167 224.067 126.667 222.733 125 221.5C119.918 204.891 125.751 194.058 142.5 189C152.171 187.32 161.171 188.82 169.5 193.5Z" fill="#F6F6F6"/>
<path fill-rule="evenodd" clip-rule="evenodd" d="M311.5 205.5C311.608 210.87 311.275 216.203 310.5 221.5C307.036 224.462 303.703 227.629 300.5 231C296.353 233.74 292.02 235.907 287.5 237.5C286.791 238.404 285.791 238.737 284.5 238.5C280.818 238.665 277.152 238.499 273.5 238C270.382 236.186 267.049 235.019 263.5 234.5C262.415 232.413 260.749 231.08 258.5 230.5C254.93 228.142 252.93 224.809 252.5 220.5C251.577 216.936 251.244 213.269 251.5 209.5C251.5 208.833 251.833 208.5 252.5 208.5C255.345 203.306 259.012 198.639 263.5 194.5C264.873 194.657 266.207 194.49 267.5 194C269.724 192.219 272.058 190.719 274.5 189.5C290.997 185.929 303.33 191.262 311.5 205.5Z" fill="#F8F8F8"/>
<path fill-rule="evenodd" clip-rule="evenodd" d="M58.5 178.5C62.733 183.954 66.733 189.62 70.5 195.5C68.983 195.489 67.816 194.823 67 193.5C66.5 194.667 65.667 195.5 64.5 196C66.056 196.72 67.056 197.887 67.5 199.5C63.337 196.872 60.337 193.205 58.5 188.5C60.097 189.09 61.431 190.09 62.5 191.5C62.833 191 63.167 190.5 63.5 190C61.349 186.383 59.683 182.55 58.5 178.5Z" fill="#C5C5C5"/>
<path fill-rule="evenodd" clip-rule="evenodd" d="M274.5 189.5C272.058 190.719 269.724 192.219 267.5 194C266.207 194.49 264.873 194.657 263.5 194.5C266.476 191.574 270.142 189.908 274.5 189.5Z" fill="#999999"/>
<path fill-rule="evenodd" clip-rule="evenodd" d="M70.5 195.5C73.317 200.142 75.817 204.809 78 209.5C75.376 207.378 72.876 205.045 70.5 202.5C69.675 201.614 68.675 201.281 67.5 201.5C67.5 200.833 67.5 200.167 67.5 199.5C67.056 197.887 66.056 196.72 64.5 196C65.667 195.5 66.5 194.667 67 193.5C67.816 194.823 68.983 195.489 70.5 195.5Z" fill="#ECECEC"/>
<path fill-rule="evenodd" clip-rule="evenodd" d="M263.5 194.5C259.012 198.639 255.345 203.306 252.5 208.5C253.889 202.104 257.556 197.437 263.5 194.5Z" fill="#848484"/>
<path fill-rule="evenodd" clip-rule="evenodd" d="M169.5 193.5C171.764 194.581 173.931 195.915 176 197.5C176.989 199.97 178.155 202.303 179.5 204.5C175.943 201.064 172.609 197.397 169.5 193.5Z" fill="#A6A6A6"/>
<path fill-rule="evenodd" clip-rule="evenodd" d="M289.5 201.5C284.901 201.138 280.901 202.471 277.5 205.5C277.561 202.95 278.894 201.45 281.5 201C284.367 200.199 287.034 200.366 289.5 201.5Z" fill="#B2B2B2"/>
<path fill-rule="evenodd" clip-rule="evenodd" d="M152.5 226.5C167.672 229.495 173.505 223.495 170 208.5C165.477 202.992 159.644 200.992 152.5 202.5C164.365 198.197 171.365 202.364 173.5 215C173.708 220.771 171.375 225.104 166.5 228C162.625 229.52 158.625 229.854 154.5 229C153.619 228.292 152.953 227.458 152.5 226.5Z" fill="#9F9F9F"/>
<path fill-rule="evenodd" clip-rule="evenodd" d="M289.5 201.5C290.391 202.11 291.391 202.443 292.5 202.5C295.19 204.193 297.19 206.527 298.5 209.5C298.665 212.518 298.498 215.518 298 218.5C296.807 220.886 295.64 223.22 294.5 225.5C288.158 227.617 282.491 226.617 277.5 222.5C276.599 221.71 275.932 220.71 275.5 219.5C275.526 214.733 276.193 210.066 277.5 205.5C280.901 202.471 284.901 201.138 289.5 201.5Z" fill="#101010"/>
<path fill-rule="evenodd" clip-rule="evenodd" d="M152.5 202.5C159.644 200.992 165.477 202.992 170 208.5C173.505 223.495 167.672 229.495 152.5 226.5C150.833 224.167 148.833 222.167 146.5 220.5C146.5 216.833 146.5 213.167 146.5 209.5C148.413 207.88 149.747 205.88 150.5 203.5C151.167 203.167 151.833 202.833 152.5 202.5Z" fill="#0F0F0F"/>
<path fill-rule="evenodd" clip-rule="evenodd" d="M299.5 209.5C299.167 209.5 298.833 209.5 298.5 209.5C297.19 206.527 295.19 204.193 292.5 202.5C293.423 201.697 294.423 201.53 295.5 202C297.495 204.157 298.828 206.657 299.5 209.5Z" fill="#A8A8A8"/>
<path fill-rule="evenodd" clip-rule="evenodd" d="M150.5 203.5C149.747 205.88 148.413 207.88 146.5 209.5C146.71 206.735 148.043 204.735 150.5 203.5Z" fill="#969696"/>
<path fill-rule="evenodd" clip-rule="evenodd" d="M70.5 195.5C77.269 202.936 84.269 209.936 91.5 216.5C89.5 217.167 88.167 218.5 87.5 220.5C79.676 215.551 73.01 209.218 67.5 201.5C68.675 201.281 69.675 201.614 70.5 202.5C72.876 205.045 75.376 207.378 78 209.5C75.817 204.809 73.317 200.142 70.5 195.5Z" fill="#C6C6C6"/>
<path fill-rule="evenodd" clip-rule="evenodd" d="M152.5 208.5C154.722 208.178 156.556 208.845 158 210.5C160.183 217.651 157.85 219.984 151 217.5C150.068 214.177 150.568 211.177 152.5 208.5Z" fill="#CECECE"/>
<path fill-rule="evenodd" clip-rule="evenodd" d="M277.5 205.5C276.193 210.066 275.526 214.733 275.5 219.5C274.883 219.389 274.383 219.056 274 218.5C272.539 213.284 273.705 208.95 277.5 205.5Z" fill="#A4A4A4"/>
<path fill-rule="evenodd" clip-rule="evenodd" d="M311.5 205.5C312.648 209.981 312.815 214.648 312 219.5C311.722 220.416 311.222 221.082 310.5 221.5C311.275 216.203 311.608 210.87 311.5 205.5Z" fill="#606060"/>
<path fill-rule="evenodd" clip-rule="evenodd" d="M354.5 209.5C354.5 209.833 354.5 210.167 354.5 210.5C351.003 213.083 347.336 215.416 343.5 217.5C343.937 215.926 344.937 214.759 346.5 214C349.059 212.223 351.726 210.723 354.5 209.5Z" fill="#707070"/>
<path fill-rule="evenodd" clip-rule="evenodd" d="M287.5 209.5C289.619 214.724 287.952 217.724 282.5 218.5C278.599 215.374 278.599 212.208 282.5 209C284.387 208.22 286.054 208.387 287.5 209.5Z" fill="#D5D5D5"/>
<path fill-rule="evenodd" clip-rule="evenodd" d="M287.5 209.5C290.502 211.468 291.168 214.135 289.5 217.5C287.271 219.553 284.938 219.886 282.5 218.5C287.952 217.724 289.619 214.724 287.5 209.5Z" fill="#959595"/>
<path fill-rule="evenodd" clip-rule="evenodd" d="M251.5 209.5C251.244 213.269 251.577 216.936 252.5 220.5C251.213 219.129 250.547 217.295 250.5 215C250.506 212.967 250.839 211.134 251.5 209.5Z" fill="#7F7F7F"/>
<path fill-rule="evenodd" clip-rule="evenodd" d="M211.5 219.5C218.223 217.593 224.557 218.593 230.5 222.5C230.5 223.5 230.5 224.5 230.5 225.5C228.479 222.3 225.479 220.466 221.5 220C218.183 219.502 214.85 219.335 211.5 219.5Z" fill="#8E8E8E"/>
<path fill-rule="evenodd" clip-rule="evenodd" d="M211.5 219.5C214.85 219.335 218.183 219.502 221.5 220C225.479 220.466 228.479 222.3 230.5 225.5C229.74 230.869 231.074 235.535 234.5 239.5C235.434 240.568 235.768 241.901 235.5 243.5C236.688 248.223 238.188 252.889 240 257.5C240.383 258.056 240.883 258.389 241.5 258.5C241.5 259.167 241.5 259.833 241.5 260.5C236.284 263.916 230.617 266.583 224.5 268.5C219.821 268.666 215.155 268.499 210.5 268C207.28 266.648 203.947 265.814 200.5 265.5C197.75 264.809 195.083 263.809 192.5 262.5C191.374 261.192 191.374 259.858 192.5 258.5C194.31 255.855 195.31 252.855 195.5 249.5C196.117 249.389 196.617 249.056 197 248.5C198.15 244.888 198.983 241.222 199.5 237.5C199.5 236.833 199.5 236.167 199.5 235.5C200.497 235.53 201.164 235.03 201.5 234C202.536 231.226 203.369 228.393 204 225.5C206.158 224.511 207.325 222.844 207.5 220.5C208.568 219.566 209.901 219.232 211.5 219.5Z" fill="#FBFBFB"/>
<path fill-rule="evenodd" clip-rule="evenodd" d="M298.5 209.5C298.833 209.5 299.167 209.5 299.5 209.5C301.482 215.892 299.815 221.225 294.5 225.5C295.64 223.22 296.807 220.886 298 218.5C298.498 215.518 298.665 212.518 298.5 209.5Z" fill="#484848"/>
<path fill-rule="evenodd" clip-rule="evenodd" d="M146.5 220.5C148.833 222.167 150.833 224.167 152.5 226.5C149.5 225.5 147.5 223.5 146.5 220.5Z" fill="#818181"/>
<path fill-rule="evenodd" clip-rule="evenodd" d="M207.5 220.5C207.325 222.844 206.158 224.511 204 225.5C203.369 228.393 202.536 231.226 201.5 234C201.164 235.03 200.497 235.53 199.5 235.5C200.906 230.491 202.906 225.825 205.5 221.5C205.842 220.662 206.508 220.328 207.5 220.5Z" fill="#B6B6B6"/>
<path fill-rule="evenodd" clip-rule="evenodd" d="M310.5 221.5C305.609 230.71 297.943 236.043 287.5 237.5C292.02 235.907 296.353 233.74 300.5 231C303.703 227.629 307.036 224.462 310.5 221.5Z" fill="#969696"/>
<path fill-rule="evenodd" clip-rule="evenodd" d="M129.5 225.5C132.135 226.473 134.135 228.14 135.5 230.5C132.911 229.581 130.911 227.914 129.5 225.5Z" fill="#8B8B8B"/>
<path fill-rule="evenodd" clip-rule="evenodd" d="M277.5 222.5C282.491 226.617 288.158 227.617 294.5 225.5C289.849 229.109 284.849 229.442 279.5 226.5C278.295 225.423 277.628 224.09 277.5 222.5Z" fill="#9C9C9C"/>
<path fill-rule="evenodd" clip-rule="evenodd" d="M91.5 216.5C90.502 218.45 90.668 220.45 92 222.5C92.922 241.871 92.589 261.205 91 280.5C90.667 276.833 90.333 273.167 90 269.5C89.722 270.416 89.222 271.082 88.5 271.5C88.83 254.325 88.497 237.325 87.5 220.5C88.167 218.5 89.5 217.167 91.5 216.5Z" fill="#EFEFEF"/>
<path fill-rule="evenodd" clip-rule="evenodd" d="M179.5 223.5C177.244 229.584 172.911 233.417 166.5 235C159.167 235.667 151.833 235.667 144.5 235C141.408 233.454 138.408 231.954 135.5 230.5C139.737 230.969 143.737 232.136 147.5 234C153.5 234.667 159.5 234.667 165.5 234C170.935 231.381 175.602 227.881 179.5 223.5Z" fill="#909090"/>
<path fill-rule="evenodd" clip-rule="evenodd" d="M258.5 230.5C260.749 231.08 262.415 232.413 263.5 234.5C261.251 233.92 259.585 232.587 258.5 230.5Z" fill="#939393"/>
<path fill-rule="evenodd" clip-rule="evenodd" d="M106.5 234.5C114.832 245.832 125.832 253.165 139.5 256.5C144.088 257.928 148.921 258.595 154 258.5C157.021 258.498 159.854 258.164 162.5 257.5C172.93 257.689 182.263 254.689 190.5 248.5C191.043 248.56 191.376 248.893 191.5 249.5C190.487 251.527 189.487 253.527 188.5 255.5C184.737 258.888 183.737 262.888 185.5 267.5C187.853 270.468 190.853 272.635 194.5 274C206.415 279.743 218.748 280.909 231.5 277.5C235.419 276.613 239.085 275.279 242.5 273.5C244.508 271.732 246.674 270.066 249 268.5C248.731 262.107 246.898 256.107 243.5 250.5C245.61 250.294 247.61 251.127 249.5 253C251.518 253.505 253.518 254.005 255.5 254.5C267.233 258.458 279.233 259.458 291.5 257.5C294.829 257.785 297.829 257.118 300.5 255.5C306.35 253.491 312.017 250.991 317.5 248C322.089 243.242 326.755 238.742 331.5 234.5C332.662 250.661 332.828 266.995 332 283.5C330.478 291.585 328.645 299.585 326.5 307.5C325.239 309.29 323.739 310.957 322 312.5C320.664 317.157 318.831 321.49 316.5 325.5C313.901 330.428 310.568 334.761 306.5 338.5C303.865 339.473 301.865 341.14 300.5 343.5C295.722 347.94 290.388 351.607 284.5 354.5C281.669 355.079 279.336 356.412 277.5 358.5C274.455 359.279 271.789 360.613 269.5 362.5C266.921 364.025 264.254 365.359 261.5 366.5C252.373 368.404 243.373 370.404 234.5 372.5C233.167 372.5 231.833 372.5 230.5 372.5C220.15 372.56 209.817 372.226 199.5 371.5C197.5 371.5 195.5 371.5 193.5 371.5C191.585 371.784 189.919 371.451 188.5 370.5C186.095 369.232 183.428 368.565 180.5 368.5C173.504 364.673 166.171 361.34 158.5 358.5C156.819 356.992 154.819 355.992 152.5 355.5C152.5 355.167 152.5 354.833 152.5 354.5C151.71 353.599 150.71 352.932 149.5 352.5C148.833 352.167 148.167 351.833 147.5 351.5C143.878 347.692 139.878 344.359 135.5 341.5C132.167 338.833 129.167 335.833 126.5 332.5C125.241 328.975 123.241 325.975 120.5 323.5C120.13 320.733 118.796 318.733 116.5 317.5C114.603 313.845 112.936 310.179 111.5 306.5C110.611 300.181 108.944 294.181 106.5 288.5C106.5 287.167 106.5 285.833 106.5 284.5C105.189 267.706 105.189 251.039 106.5 234.5Z" fill="#FBFBFB"/>
<path fill-rule="evenodd" clip-rule="evenodd" d="M263.5 234.5C267.049 235.019 270.382 236.186 273.5 238C277.152 238.499 280.818 238.665 284.5 238.5C280.019 239.648 275.352 239.815 270.5 239C267.813 237.951 265.48 236.451 263.5 234.5Z" fill="#A7A7A7"/>
<path fill-rule="evenodd" clip-rule="evenodd" d="M326.5 307.5C328.645 299.585 330.478 291.585 332 283.5C332.828 266.995 332.662 250.661 331.5 234.5C331.369 233.624 331.702 232.957 332.5 232.5C333.666 249.824 333.833 267.157 333 284.5C332.209 292.681 330.042 300.347 326.5 307.5Z" fill="#7E7E7E"/>
<path fill-rule="evenodd" clip-rule="evenodd" d="M348.5 284.5C348.5 284.833 348.5 285.167 348.5 285.5C347.883 285.611 347.383 285.944 347 286.5C345.258 294.962 343.091 303.296 340.5 311.5C339.167 313.167 337.833 314.833 336.5 316.5C336.258 313.681 336.258 310.681 336.5 307.5C336.5 307.167 336.5 306.833 336.5 306.5C338.529 304.961 340.029 302.961 341 300.5C342.79 293.959 343.623 287.292 343.5 280.5C343.5 259.5 343.5 238.5 343.5 217.5C347.336 215.416 351.003 213.083 354.5 210.5C355.898 208.891 357.565 208.058 359.5 208C358.5 209 357.5 210 356.5 211C357.956 211.423 358.456 212.256 358 213.5C354.588 216.123 351.088 218.623 347.5 221C348.494 242.091 348.827 263.258 348.5 284.5Z" fill="#ECECEC"/>
<path fill-rule="evenodd" clip-rule="evenodd" d="M1.49999 191.5C1.33299 210.503 1.49999 229.503 1.99999 248.5C3.38099 256.33 4.88099 263.996 6.49999 271.5C6.49999 272.833 6.49999 274.167 6.49999 275.5C5.19599 271.933 4.02899 268.266 2.99999 264.5C2.33299 259.833 1.66699 255.167 0.999995 250.5C0.170995 230.662 0.337995 210.996 1.49999 191.5Z" fill="#9F9F9F"/>
<path fill-rule="evenodd" clip-rule="evenodd" d="M93.5001 219.5C94.2651 240.008 94.9311 260.675 95.5001 281.5C94.6861 279.369 94.1861 277.036 94.0001 274.5C93.5001 256.17 93.3331 237.836 93.5001 219.5Z" fill="#949494"/>
<path fill-rule="evenodd" clip-rule="evenodd" d="M300.5 255.5C297.829 257.118 294.829 257.785 291.5 257.5C294.273 256.343 297.273 255.676 300.5 255.5Z" fill="#747474"/>
<path fill-rule="evenodd" clip-rule="evenodd" d="M139.5 256.5C147.154 257.07 154.821 257.404 162.5 257.5C159.854 258.164 157.021 258.498 154 258.5C148.921 258.595 144.088 257.928 139.5 256.5Z" fill="#464646"/>
<path fill-rule="evenodd" clip-rule="evenodd" d="M188.5 255.5C186.702 259.24 185.702 263.24 185.5 267.5C183.737 262.888 184.737 258.888 188.5 255.5Z" fill="#BDBDBD"/>
<path fill-rule="evenodd" clip-rule="evenodd" d="M205.5 221.5C202.906 225.825 200.906 230.491 199.5 235.5C199.5 236.167 199.5 236.833 199.5 237.5C197.595 241.215 196.262 245.215 195.5 249.5C193.528 252.084 192.528 255.084 192.5 258.5C191.374 259.858 191.374 261.192 192.5 262.5C195.083 263.809 197.75 264.809 200.5 265.5C208.164 269.409 216.164 270.409 224.5 268.5C230.67 267.218 236.67 265.551 242.5 263.5C242.737 262.209 242.404 261.209 241.5 260.5C241.5 259.833 241.5 259.167 241.5 258.5C240.262 253.105 238.262 248.105 235.5 243.5C235.768 241.901 235.434 240.568 234.5 239.5C233.107 234.753 231.774 230.086 230.5 225.5C230.5 224.5 230.5 223.5 230.5 222.5C231.117 222.389 231.617 222.056 232 221.5C233.422 228.343 235.422 235.009 238 241.5C240.44 242.274 241.773 243.94 242 246.5C242.333 246.167 242.667 245.833 243 245.5C246.933 245.724 249.266 247.724 250 251.5C252.209 251.989 254.042 252.989 255.5 254.5C253.518 254.005 251.518 253.505 249.5 253C247.61 251.127 245.61 250.294 243.5 250.5C246.898 256.107 248.731 262.107 249 268.5C246.674 270.066 244.508 271.732 242.5 273.5C238.292 273.677 234.626 275.01 231.5 277.5C218.748 280.909 206.415 279.743 194.5 274C190.853 272.635 187.853 270.468 185.5 267.5C185.702 263.24 186.702 259.24 188.5 255.5C189.487 253.527 190.487 251.527 191.5 249.5C191.376 248.893 191.043 248.56 190.5 248.5C191.848 247.814 193.015 246.814 194 245.5C196.522 237.062 199.189 228.729 202 220.5C203.84 219.167 204.34 219.334 203.5 221C204.094 221.464 204.761 221.631 205.5 221.5Z" fill="#141414"/>
<path fill-rule="evenodd" clip-rule="evenodd" d="M200.5 265.5C203.947 265.814 207.28 266.648 210.5 268C215.155 268.499 219.821 268.666 224.5 268.5C216.164 270.409 208.164 269.409 200.5 265.5Z" fill="#626262"/>
<path fill-rule="evenodd" clip-rule="evenodd" d="M241.5 260.5C242.404 261.209 242.737 262.209 242.5 263.5C236.67 265.551 230.67 267.218 224.5 268.5C230.617 266.583 236.284 263.916 241.5 260.5Z" fill="#6F6F6F"/>
<path fill-rule="evenodd" clip-rule="evenodd" d="M195.5 249.5C195.31 252.855 194.31 255.855 192.5 258.5C192.528 255.084 193.528 252.084 195.5 249.5Z" fill="#858585"/>
<path fill-rule="evenodd" clip-rule="evenodd" d="M235.5 243.5C238.262 248.105 240.262 253.105 241.5 258.5C240.883 258.389 240.383 258.056 240 257.5C238.188 252.889 236.688 248.223 235.5 243.5Z" fill="#8C8C8C"/>
<path fill-rule="evenodd" clip-rule="evenodd" d="M199.5 237.5C198.983 241.222 198.15 244.888 197 248.5C196.617 249.056 196.117 249.389 195.5 249.5C196.262 245.215 197.595 241.215 199.5 237.5Z" fill="#9C9C9C"/>
<path fill-rule="evenodd" clip-rule="evenodd" d="M230.5 225.5C231.774 230.086 233.107 234.753 234.5 239.5C231.074 235.535 229.74 230.869 230.5 225.5Z" fill="#9B9B9B"/>
<path fill-rule="evenodd" clip-rule="evenodd" d="M242.5 273.5C239.085 275.279 235.419 276.613 231.5 277.5C234.626 275.01 238.292 273.677 242.5 273.5Z" fill="#969696"/>
<path fill-rule="evenodd" clip-rule="evenodd" d="M434.5 263.5C435.114 268.069 434.114 272.069 431.5 275.5C432.132 271.298 433.132 267.298 434.5 263.5Z" fill="#BEBEBE"/>
<path fill-rule="evenodd" clip-rule="evenodd" d="M91.5 216.5C92.906 216.973 93.573 217.973 93.5 219.5C93.333 237.836 93.5 256.17 94 274.5C94.186 277.036 94.686 279.369 95.5 281.5C96.482 285.316 97.149 289.316 97.5 293.5C98.376 297.462 99.042 301.462 99.5 305.5C96.535 297.766 94.035 289.766 92 281.5C91.502 284.817 91.335 288.15 91.5 291.5C88.966 285.197 87.966 278.53 88.5 271.5C89.222 271.082 89.722 270.416 90 269.5C90.333 273.167 90.667 276.833 91 280.5C92.589 261.205 92.922 241.871 92 222.5C90.668 220.45 90.502 218.45 91.5 216.5Z" fill="#D3D3D3"/>
<path fill-rule="evenodd" clip-rule="evenodd" d="M106.5 234.5C105.189 251.039 105.189 267.706 106.5 284.5C105.883 284.389 105.383 284.056 105 283.5C104.167 266.823 104.334 250.157 105.5 233.5C106.107 233.624 106.44 233.957 106.5 234.5Z" fill="#6E6E6E"/>
<path fill-rule="evenodd" clip-rule="evenodd" d="M6.5 271.5C8.118 275.575 9.118 279.908 9.5 284.5C7.528 281.916 6.528 278.916 6.5 275.5C6.5 274.167 6.5 272.833 6.5 271.5Z" fill="#646464"/>
<path fill-rule="evenodd" clip-rule="evenodd" d="M428.5 285.5C428.41 289.214 427.41 292.548 425.5 295.5C425.59 291.786 426.59 288.452 428.5 285.5Z" fill="#797979"/>
<path fill-rule="evenodd" clip-rule="evenodd" d="M99.5 305.5C100.444 309.335 101.778 313.002 103.5 316.5C103.167 317.167 102.833 317.833 102.5 318.5C101.583 317.873 100.583 317.539 99.5 317.5C97.723 315.176 96.723 312.509 96.5 309.5C95.571 305.873 94.737 302.207 94 298.5C93.8 296.68 92.966 295.347 91.5 294.5C91.5 293.5 91.5 292.5 91.5 291.5C91.335 288.15 91.502 284.817 92 281.5C94.035 289.766 96.535 297.766 99.5 305.5Z" fill="#ECECEC"/>
<path fill-rule="evenodd" clip-rule="evenodd" d="M199.5 292.5C210.988 291.505 222.655 291.172 234.5 291.5C239.887 291.405 245.22 291.905 250.5 293C252.974 293.037 254.974 293.87 256.5 295.5C237.599 292.921 218.599 291.921 199.5 292.5Z" fill="#8E8E8E"/>
<path fill-rule="evenodd" clip-rule="evenodd" d="M10.5 289.5C12.538 293.94 14.204 298.607 15.5 303.5C12.321 299.498 10.655 294.831 10.5 289.5Z" fill="#989898"/>
<path fill-rule="evenodd" clip-rule="evenodd" d="M234.5 291.5C222.655 291.172 210.988 291.505 199.5 292.5C187.545 293.49 176.212 296.49 165.5 301.5C166.823 299.314 168.823 297.814 171.5 297C185.849 291.775 200.682 289.608 216 290.5C222.343 290.5 228.509 290.834 234.5 291.5Z" fill="#B8B8B8"/>
<path fill-rule="evenodd" clip-rule="evenodd" d="M199.5 292.5C218.599 291.921 237.599 292.921 256.5 295.5C259.53 297.403 262.863 298.737 266.5 299.5C269.088 301.592 272.088 302.925 275.5 303.5C276.864 305.191 278.197 306.858 279.5 308.5C279.845 311.198 281.178 313.198 283.5 314.5C284.552 317.193 285.552 319.86 286.5 322.5C284.372 323.629 282.039 323.796 279.5 323C277.091 318.325 274.091 314.158 270.5 310.5C267.844 307.711 264.511 306.044 260.5 305.5C258.833 304.833 257.167 304.167 255.5 303.5C254.602 302.842 253.602 302.176 252.5 301.5C245.466 300.282 238.466 298.948 231.5 297.5C223.669 298.03 216.002 298.696 208.5 299.5C199.744 299.016 191.411 300.349 183.5 303.5C174.766 304.028 167.599 307.694 162 314.5C160.669 317.834 158.835 320.834 156.5 323.5C154.468 324.819 152.468 324.819 150.5 323.5C153.205 315.757 157.205 308.757 162.5 302.5C163.391 301.89 164.391 301.557 165.5 301.5C176.212 296.49 187.545 293.49 199.5 292.5Z" fill="#0D0D0D"/>
<path fill-rule="evenodd" clip-rule="evenodd" d="M348.5 285.5C346.858 301.11 341.858 315.444 333.5 328.5C334.16 326.184 334.827 323.851 335.5 321.5C335.547 320 334.881 319 333.5 318.5C331.85 322.455 329.517 325.788 326.5 328.5C329.877 321.476 333.21 314.476 336.5 307.5C336.258 310.681 336.258 313.681 336.5 316.5C337.833 314.833 339.167 313.167 340.5 311.5C343.091 303.296 345.258 294.962 347 286.5C347.383 285.944 347.883 285.611 348.5 285.5Z" fill="#B9B9B9"/>
<path fill-rule="evenodd" clip-rule="evenodd" d="M106.5 288.5C108.944 294.181 110.611 300.181 111.5 306.5C108.781 300.956 107.115 294.956 106.5 288.5Z" fill="#838383"/>
<path fill-rule="evenodd" clip-rule="evenodd" d="M256.5 295.5C260.358 295.77 263.691 297.103 266.5 299.5C262.863 298.737 259.53 297.403 256.5 295.5Z" fill="#B6B6B6"/>
<path fill-rule="evenodd" clip-rule="evenodd" d="M255.5 303.5C249.207 302.255 242.874 301.255 236.5 300.5C227.348 299.506 218.015 299.173 208.5 299.5C216.002 298.696 223.669 298.03 231.5 297.5C238.466 298.948 245.466 300.282 252.5 301.5C253.602 302.176 254.602 302.842 255.5 303.5Z" fill="#2D2D2D"/>
<path fill-rule="evenodd" clip-rule="evenodd" d="M208.5 299.5C218.015 299.173 227.348 299.506 236.5 300.5C218.698 299.766 201.032 300.766 183.5 303.5C191.411 300.349 199.744 299.016 208.5 299.5Z" fill="#A7A7A7"/>
<path fill-rule="evenodd" clip-rule="evenodd" d="M266.5 299.5C270.38 299.198 273.38 300.531 275.5 303.5C272.088 302.925 269.088 301.592 266.5 299.5Z" fill="#BEBEBE"/>
<path fill-rule="evenodd" clip-rule="evenodd" d="M343.5 280.5C343.623 287.292 342.79 293.959 341 300.5C340.029 302.961 338.529 304.961 336.5 306.5C339.265 297.852 341.599 289.185 343.5 280.5Z" fill="#B1B1B1"/>
<path fill-rule="evenodd" clip-rule="evenodd" d="M425.5 295.5C425.585 298.649 424.585 301.316 422.5 303.5C422.415 300.351 423.415 297.684 425.5 295.5Z" fill="#888888"/>
<path fill-rule="evenodd" clip-rule="evenodd" d="M91.5 294.5C92.966 295.347 93.8 296.68 94 298.5C94.737 302.207 95.571 305.873 96.5 309.5C93.863 304.921 92.196 299.921 91.5 294.5Z" fill="#868686"/>
<path fill-rule="evenodd" clip-rule="evenodd" d="M260.5 305.5C264.511 306.044 267.844 307.711 270.5 310.5C266.749 309.588 263.416 307.922 260.5 305.5Z" fill="#B3B3B3"/>
<path fill-rule="evenodd" clip-rule="evenodd" d="M97.5 293.5C100.506 302.532 103.839 311.532 107.5 320.5C105.883 319.962 104.216 319.629 102.5 319.5C102.343 320.873 102.51 322.207 103 323.5C105.335 326.166 107.169 329.166 108.5 332.5C112.888 337.066 114.555 336.399 113.5 330.5C115.547 332.55 117.214 334.883 118.5 337.5C117.735 337.077 116.902 336.743 116 336.5C115.651 337.473 114.818 338.306 113.5 339C114.758 340.741 115.758 342.574 116.5 344.5C109.074 336.656 103.407 327.656 99.5 317.5C100.583 317.539 101.583 317.873 102.5 318.5C102.833 317.833 103.167 317.167 103.5 316.5C101.778 313.002 100.444 309.335 99.5 305.5C99.042 301.462 98.376 297.462 97.5 293.5Z" fill="#B7B7B7"/>
<path fill-rule="evenodd" clip-rule="evenodd" d="M226.5 307.5C229.86 307.616 233.193 307.949 236.5 308.5C238.838 310.04 241.505 310.706 244.5 310.5C247.243 310.077 248.576 311.244 248.5 314C248.568 316.034 247.734 317.534 246 318.5C239.654 316.456 233.154 315.122 226.5 314.5C221.35 313.349 216.016 313.183 210.5 314C206.233 314.189 202.233 315.023 198.5 316.5C195.5 317.167 192.5 317.833 189.5 318.5C186.872 311.785 189.206 308.785 196.5 309.5C206.441 308.087 216.441 307.42 226.5 307.5Z" fill="#121212"/>
<path fill-rule="evenodd" clip-rule="evenodd" d="M226.5 307.5C216.441 307.42 206.441 308.087 196.5 309.5C206.378 306.618 216.378 305.952 226.5 307.5Z" fill="#535353"/>
<path fill-rule="evenodd" clip-rule="evenodd" d="M236.5 308.5C239.428 308.565 242.095 309.232 244.5 310.5C241.505 310.706 238.838 310.04 236.5 308.5Z" fill="#686868"/>
<path fill-rule="evenodd" clip-rule="evenodd" d="M162.5 302.5C157.205 308.757 153.205 315.757 150.5 323.5C149.441 321.274 149.608 318.941 151 316.5C153.084 312.664 155.417 308.997 158 305.5C159.129 303.859 160.629 302.859 162.5 302.5Z" fill="#939393"/>
<path fill-rule="evenodd" clip-rule="evenodd" d="M279.5 308.5C281.822 309.802 283.155 311.802 283.5 314.5C281.178 313.198 279.845 311.198 279.5 308.5Z" fill="#7E7E7E"/>
<path fill-rule="evenodd" clip-rule="evenodd" d="M226.5 314.5C217.101 314.415 207.767 315.082 198.5 316.5C202.233 315.023 206.233 314.189 210.5 314C216.016 313.183 221.35 313.349 226.5 314.5Z" fill="#B1B1B1"/>
<path fill-rule="evenodd" clip-rule="evenodd" d="M283.5 314.5C286.669 316.574 287.669 319.241 286.5 322.5C285.552 319.86 284.552 317.193 283.5 314.5Z" fill="#7D7D7D"/>
<path fill-rule="evenodd" clip-rule="evenodd" d="M326.5 307.5C326.076 310.354 325.076 313.021 323.5 315.5C321.64 319.24 319.307 322.574 316.5 325.5C318.831 321.49 320.664 317.157 322 312.5C323.739 310.957 325.239 309.29 326.5 307.5Z" fill="#ABABAB"/>
<path fill-rule="evenodd" clip-rule="evenodd" d="M116.5 317.5C118.796 318.733 120.13 320.733 120.5 323.5C118.684 321.882 117.351 319.882 116.5 317.5Z" fill="#A5A5A5"/>
<path fill-rule="evenodd" clip-rule="evenodd" d="M210.5 321.5C213.314 320.835 216.314 320.502 219.5 320.5C223.797 320.278 227.797 320.945 231.5 322.5C224.535 321.659 217.535 321.326 210.5 321.5Z" fill="#949494"/>
<path fill-rule="evenodd" clip-rule="evenodd" d="M210.5 321.5C217.535 321.326 224.535 321.659 231.5 322.5C233.935 324.891 236.935 326.558 240.5 327.5C241.479 329.145 242.812 330.479 244.5 331.5C245.309 333.071 245.643 334.738 245.5 336.5C241.714 336.607 238.714 335.107 236.5 332C233.395 330.132 230.062 328.965 226.5 328.5C221.35 327.349 216.016 327.183 210.5 328C209.584 328.278 208.918 328.778 208.5 329.5C204.274 330.215 200.94 332.381 198.5 336C196.527 336.495 194.527 336.662 192.5 336.5C192.149 333.188 193.482 330.855 196.5 329.5C199.109 328.557 201.109 326.89 202.5 324.5C204.617 322.345 207.284 321.345 210.5 321.5Z" fill="#161616"/>
<path fill-rule="evenodd" clip-rule="evenodd" d="M107.5 320.5C109.497 323.825 111.497 327.159 113.5 330.5C114.555 336.399 112.888 337.066 108.5 332.5C107.169 329.166 105.335 326.166 103 323.5C102.51 322.207 102.343 320.873 102.5 319.5C104.216 319.629 105.883 319.962 107.5 320.5Z" fill="#E4E4E4"/>
<path fill-rule="evenodd" clip-rule="evenodd" d="M231.5 322.5C234.126 323.422 236.793 324.422 239.5 325.5C240.298 325.957 240.631 326.624 240.5 327.5C236.935 326.558 233.935 324.891 231.5 322.5Z" fill="#515151"/>
<path fill-rule="evenodd" clip-rule="evenodd" d="M202.5 324.5C201.109 326.89 199.109 328.557 196.5 329.5C197.865 327.14 199.865 325.473 202.5 324.5Z" fill="#666666"/>
<path fill-rule="evenodd" clip-rule="evenodd" d="M120.5 323.5C123.241 325.975 125.241 328.975 126.5 332.5C123.263 330.37 121.263 327.37 120.5 323.5Z" fill="#868686"/>
<path fill-rule="evenodd" clip-rule="evenodd" d="M226.5 328.5C220.464 328.36 214.464 328.693 208.5 329.5C208.918 328.778 209.584 328.278 210.5 328C216.016 327.183 221.35 327.349 226.5 328.5Z" fill="#B7B7B7"/>
<path fill-rule="evenodd" clip-rule="evenodd" d="M419.5 311.5C417.302 317.701 414.635 323.701 411.5 329.5C411.043 330.298 410.376 330.631 409.5 330.5C412.073 323.685 415.406 317.351 419.5 311.5Z" fill="#B3B3B3"/>
<path fill-rule="evenodd" clip-rule="evenodd" d="M407.5 333.5C407.5 337.175 405.833 339.841 402.5 341.5C403.669 338.489 405.336 335.822 407.5 333.5Z" fill="#B7B7B7"/>
<path fill-rule="evenodd" clip-rule="evenodd" d="M306.5 338.5C305.109 340.89 303.109 342.557 300.5 343.5C301.865 341.14 303.865 339.473 306.5 338.5Z" fill="#6B6B6B"/>
<path fill-rule="evenodd" clip-rule="evenodd" d="M333.5 328.5C332.167 330.833 330.833 333.167 329.5 335.5C325.249 339.247 321.083 343.247 317 347.5C316.517 348.448 316.351 349.448 316.5 350.5C313.017 353.739 309.35 356.739 305.5 359.5C300.694 360.644 297.027 363.311 294.5 367.5C293.508 367.328 292.842 367.662 292.5 368.5C289.966 368.259 288.3 369.259 287.5 371.5C284.607 371.031 282.607 372.031 281.5 374.5C273.791 378.851 265.458 381.851 256.5 383.5C256.5 382.167 256.5 380.833 256.5 379.5C280.514 372.251 301.014 359.584 318 341.5C319.421 339.595 320.588 337.595 321.5 335.5C322.433 332.63 324.1 330.296 326.5 328.5C329.517 325.788 331.85 322.455 333.5 318.5C334.881 319 335.547 320 335.5 321.5C334.827 323.851 334.16 326.184 333.5 328.5Z" fill="#E2E2E2"/>
<path fill-rule="evenodd" clip-rule="evenodd" d="M329.5 335.5C326.229 341.437 321.895 346.437 316.5 350.5C316.351 349.448 316.517 348.448 317 347.5C321.083 343.247 325.249 339.247 329.5 335.5Z" fill="#9C9C9C"/>
<path fill-rule="evenodd" clip-rule="evenodd" d="M33.5 340.5C35.914 341.911 37.581 343.911 38.5 346.5C36.086 345.089 34.419 343.089 33.5 340.5Z" fill="#828282"/>
<path fill-rule="evenodd" clip-rule="evenodd" d="M135.5 341.5C139.878 344.359 143.878 347.692 147.5 351.5C142.619 349.291 138.619 345.957 135.5 341.5Z" fill="#8B8B8B"/>
<path fill-rule="evenodd" clip-rule="evenodd" d="M118.5 337.5C123.51 343.51 129.177 348.843 135.5 353.5C137.336 356.168 139.669 358.334 142.5 360C149.383 364.609 156.716 368.442 164.5 371.5C165.749 373.136 167.416 374.303 169.5 375C172.777 376.143 176.11 376.977 179.5 377.5C182.722 383.021 181.055 384.688 174.5 382.5C163.305 376.537 151.971 370.87 140.5 365.5C137.399 362.067 133.732 359.4 129.5 357.5C124.243 354.243 119.909 349.909 116.5 344.5C115.758 342.574 114.758 340.741 113.5 339C114.818 338.306 115.651 337.473 116 336.5C116.902 336.743 117.735 337.077 118.5 337.5Z" fill="#D8D8D8"/>
<path fill-rule="evenodd" clip-rule="evenodd" d="M149.5 352.5C150.71 352.932 151.71 353.599 152.5 354.5C150.821 354.715 149.821 354.048 149.5 352.5Z" fill="#838383"/>
<path fill-rule="evenodd" clip-rule="evenodd" d="M284.5 354.5C282.664 356.588 280.331 357.921 277.5 358.5C279.336 356.412 281.669 355.079 284.5 354.5Z" fill="#9E9E9E"/>
<path fill-rule="evenodd" clip-rule="evenodd" d="M45.5 356.5C47.587 357.585 48.92 359.251 49.5 361.5C47.413 360.415 46.08 358.749 45.5 356.5Z" fill="#989898"/>
<path fill-rule="evenodd" clip-rule="evenodd" d="M129.5 357.5C133.732 359.4 137.399 362.067 140.5 365.5C136.268 363.6 132.601 360.933 129.5 357.5Z" fill="#959595"/>
<path fill-rule="evenodd" clip-rule="evenodd" d="M158.5 358.5C166.171 361.34 173.504 364.673 180.5 368.5C174.56 367.298 168.893 365.298 163.5 362.5C161.651 361.407 159.984 360.074 158.5 358.5Z" fill="#787878"/>
<path fill-rule="evenodd" clip-rule="evenodd" d="M277.5 358.5C275.388 360.771 272.721 362.104 269.5 362.5C271.789 360.613 274.455 359.279 277.5 358.5Z" fill="#A1A1A1"/>
<path fill-rule="evenodd" clip-rule="evenodd" d="M152.5 355.5C154.819 355.992 156.819 356.992 158.5 358.5C159.984 360.074 161.651 361.407 163.5 362.5C162.957 362.56 162.624 362.893 162.5 363.5C165.312 365.477 167.978 367.644 170.5 370C169.101 370.595 167.768 370.428 166.5 369.5C165.702 369.957 165.369 370.624 165.5 371.5C165.167 371.5 164.833 371.5 164.5 371.5C156.716 368.442 149.383 364.609 142.5 360C139.669 358.334 137.336 356.168 135.5 353.5C136.158 352.602 136.824 351.602 137.5 350.5C140.329 351.747 142.995 353.247 145.5 355C147.81 355.497 150.143 355.663 152.5 355.5Z" fill="#191919"/>
<path fill-rule="evenodd" clip-rule="evenodd" d="M395.5 351.5C394.36 353.78 393.193 356.114 392 358.5C388.97 361.698 385.803 364.698 382.5 367.5C386.106 361.562 390.439 356.229 395.5 351.5Z" fill="#9D9D9D"/>
<path fill-rule="evenodd" clip-rule="evenodd" d="M305.5 359.5C302.403 362.888 298.736 365.555 294.5 367.5C297.027 363.311 300.694 360.644 305.5 359.5Z" fill="#959595"/>
<path fill-rule="evenodd" clip-rule="evenodd" d="M52.5 364.5C56.833 368.167 60.833 372.167 64.5 376.5C59.5 373.5 55.5 369.5 52.5 364.5Z" fill="#888888"/>
<path fill-rule="evenodd" clip-rule="evenodd" d="M321.5 335.5C320.588 337.595 319.421 339.595 318 341.5C301.014 359.584 280.514 372.251 256.5 379.5C266.618 374.441 276.952 369.274 287.5 364C292.167 361 296.833 358 301.5 355C308.698 348.968 315.364 342.468 321.5 335.5Z" fill="#A3A3A3"/>
<path fill-rule="evenodd" clip-rule="evenodd" d="M261.5 366.5C253.298 370.049 244.632 372.049 235.5 372.5C235.167 372.5 234.833 372.5 234.5 372.5C243.373 370.404 252.373 368.404 261.5 366.5Z" fill="#7C7C7C"/>
<path fill-rule="evenodd" clip-rule="evenodd" d="M292.5 368.5C291.101 369.89 289.434 370.89 287.5 371.5C288.3 369.259 289.966 368.259 292.5 368.5Z" fill="#888888"/>
<path fill-rule="evenodd" clip-rule="evenodd" d="M180.5 368.5C183.428 368.565 186.095 369.232 188.5 370.5C185.505 370.706 182.838 370.04 180.5 368.5Z" fill="#606060"/>
<path fill-rule="evenodd" clip-rule="evenodd" d="M199.5 371.5C209.817 372.226 220.15 372.56 230.5 372.5C226.514 373.166 222.347 373.499 218 373.5C211.594 373.674 205.427 373.007 199.5 371.5Z" fill="#A7A7A7"/>
<path fill-rule="evenodd" clip-rule="evenodd" d="M287.5 371.5C285.819 373.008 283.819 374.008 281.5 374.5C282.607 372.031 284.607 371.031 287.5 371.5Z" fill="#7E7E7E"/>
<path fill-rule="evenodd" clip-rule="evenodd" d="M193.5 371.5C195.5 371.5 197.5 371.5 199.5 371.5C205.427 373.007 211.594 373.674 218 373.5C222.347 373.499 226.514 373.166 230.5 372.5C231.833 372.5 233.167 372.5 234.5 372.5C234.833 372.5 235.167 372.5 235.5 372.5C234.391 373.29 233.058 373.79 231.5 374C221.833 374.667 212.167 374.667 202.5 374C199.203 373.796 196.203 372.963 193.5 371.5Z" fill="#454545"/>
<path fill-rule="evenodd" clip-rule="evenodd" d="M140.5 365.5C151.971 370.87 163.305 376.537 174.5 382.5C161.949 378.891 150.616 373.225 140.5 365.5Z" fill="#8A8A8A"/>
<path fill-rule="evenodd" clip-rule="evenodd" d="M164.5 371.5C164.833 371.5 165.167 371.5 165.5 371.5C170.242 373.507 174.909 375.507 179.5 377.5C176.11 376.977 172.777 376.143 169.5 375C167.416 374.303 165.749 373.136 164.5 371.5Z" fill="#6F6F6F"/>
<path fill-rule="evenodd" clip-rule="evenodd" d="M376.5 373.5C375.118 376.394 373.118 378.894 370.5 381C367.603 383.41 364.603 385.577 361.5 387.5C366.268 382.61 371.268 377.944 376.5 373.5Z" fill="#A3A3A3"/>
<path fill-rule="evenodd" clip-rule="evenodd" d="M121.5 416.5C123.967 416.755 125.967 417.755 127.5 419.5C124.911 419.539 122.911 418.539 121.5 416.5Z" fill="#A6A6A6"/>
<path fill-rule="evenodd" clip-rule="evenodd" d="M310.5 418.5C307.808 421.181 304.475 422.514 300.5 422.5C303.54 420.654 306.873 419.321 310.5 418.5Z" fill="#939393"/>
<path fill-rule="evenodd" clip-rule="evenodd" d="M295.5 424.5C293.491 426.065 291.157 427.065 288.5 427.5C290.32 425.552 292.654 424.552 295.5 424.5Z" fill="#878787"/>
<path fill-rule="evenodd" clip-rule="evenodd" d="M141.5 424.5C146.866 425.435 152.032 426.768 157 428.5C160.69 426.969 164.523 426.469 168.5 427C167.448 428.716 168.114 429.716 170.5 430C179.509 431.569 188.509 433.069 197.5 434.5C205.93 433.241 214.096 434.241 222 437.5C226.803 436.715 231.637 436.382 236.5 436.5C234.833 437.167 233.167 437.833 231.5 438.5C220.486 438.543 209.486 438.209 198.5 437.5C194.057 436.199 189.391 435.532 184.5 435.5C182.435 435.483 180.435 435.15 178.5 434.5C176.095 433.232 173.428 432.565 170.5 432.5C160.453 430.831 150.786 428.165 141.5 424.5Z" fill="#1A1A1A"/>
<path fill-rule="evenodd" clip-rule="evenodd" d="M170.5 432.5C173.428 432.565 176.095 433.232 178.5 434.5C175.447 434.889 172.78 434.223 170.5 432.5Z" fill="#7D7D7D"/>
<path fill-rule="evenodd" clip-rule="evenodd" d="M184.5 435.5C189.391 435.532 194.057 436.199 198.5 437.5C193.547 437.877 188.881 437.211 184.5 435.5Z" fill="#A6A6A6"/>
<path fill-rule="evenodd" clip-rule="evenodd" d="M236.5 436.5C240.167 436.5 243.833 436.5 247.5 436.5C242.402 437.957 237.069 438.624 231.5 438.5C233.167 437.833 234.833 437.167 236.5 436.5Z" fill="#AFAFAF"/>
</svg>
