<svg width="441" height="442" viewBox="0 0 441 442" fill="none" xmlns="http://www.w3.org/2000/svg">
<path fill-rule="evenodd" clip-rule="evenodd" d="M229.5 1.50001C218.815 1.38971 208.148 1.72301 197.5 2.50001C203.595 0.986509 209.928 0.319809 216.5 0.500009C221.013 0.500909 225.347 0.834309 229.5 1.50001Z" fill="#8F8F8F"/>
<path fill-rule="evenodd" clip-rule="evenodd" d="M229.5 1.5C232.167 1.5 234.833 1.5 237.5 1.5C237.5 1.8333 237.5 2.1667 237.5 2.5C220.13 2.3234 202.796 2.9901 185.5 4.5C185.5 4.1667 185.5 3.8333 185.5 3.5C189.466 2.8379 193.466 2.5045 197.5 2.5C208.148 1.723 218.815 1.3897 229.5 1.5Z" fill="#303030"/>
<path fill-rule="evenodd" clip-rule="evenodd" d="M237.5 2.50003C245.22 2.60313 252.887 3.26983 260.5 4.50003C265.205 6.32223 270.205 7.32223 275.5 7.50003C283.362 10.2308 291.362 12.5641 299.5 14.5C302.354 16.7288 305.687 18.0621 309.5 18.5C312.433 19.9833 315.433 21.3166 318.5 22.5C320.509 24.0652 322.843 25.0652 325.5 25.5C332.467 28.5947 339.134 32.428 345.5 37C351.943 40.9473 357.943 45.4473 363.5 50.5C364.911 52.914 366.911 54.581 369.5 55.5C371.833 58.5 374.5 61.167 377.5 63.5C398.811 85.478 414.811 110.811 425.5 139.5C426.736 144.207 428.402 148.541 430.5 152.5C430.5 153.167 430.5 153.833 430.5 154.5C430.41 157.152 431.076 159.485 432.5 161.5C433.819 165.74 434.819 170.073 435.5 174.5C435.198 178.79 435.864 182.79 437.5 186.5C437.5 187.167 437.5 187.833 437.5 188.5C438.186 195.347 439.186 202.014 440.5 208.5C440.828 220.678 440.495 232.678 439.5 244.5C437.733 254.018 436.066 263.685 434.5 273.5C434.5 273.833 434.5 274.167 434.5 274.5C432.62 276.755 431.62 279.422 431.5 282.5C428.153 294.542 423.82 306.208 418.5 317.5C417.559 319.05 416.893 320.716 416.5 322.5C413.073 327.016 410.407 332.016 408.5 337.5C405.479 341.202 402.812 345.202 400.5 349.5C392.768 360.288 384.101 370.288 374.5 379.5C370.474 383.195 366.474 386.862 362.5 390.5C356.525 394.481 350.858 398.814 345.5 403.5C342.296 404.383 339.629 406.05 337.5 408.5C335.326 408.75 333.659 409.75 332.5 411.5C329.008 412.41 326.008 414.076 323.5 416.5C321.938 416.733 320.605 417.4 319.5 418.5C308.712 422.865 298.046 427.199 287.5 431.5C285.901 431.232 284.568 431.566 283.5 432.5C281.102 432.259 279.102 432.926 277.5 434.5C273.96 434.753 270.627 435.419 267.5 436.5C247.321 439.967 226.988 441.3 206.5 440.5C202.833 440.5 199.167 440.5 195.5 440.5C191.409 439.105 187.076 438.438 182.5 438.5C182.167 438.5 181.833 438.5 181.5 438.5C181.082 437.778 180.416 437.278 179.5 437C174.41 436.573 169.41 435.74 164.5 434.5C164.167 434.5 163.833 434.5 163.5 434.5C159.406 432.721 155.073 431.388 150.5 430.5C148.847 430.34 147.514 429.674 146.5 428.5C142.345 426.598 138.011 424.931 133.5 423.5C127.006 421.828 121.006 419.161 115.5 415.5C113.151 413.659 110.485 412.326 107.5 411.5C107.027 410.094 106.027 409.427 104.5 409.5C83.126 396.471 64.1259 380.471 47.5 361.5C46.92 359.251 45.587 357.585 43.5 356.5C36.076 345.991 29.41 334.991 23.5 323.5C22.917 320.053 21.584 317.053 19.5 314.5C18.499 311.828 17.499 309.162 16.5 306.5C15.733 302.851 14.4 299.518 12.5 296.5C12.5 296.167 12.5 295.833 12.5 295.5C12.323 291.292 10.99 287.626 8.49995 284.5C8.22995 279.972 7.56295 275.639 6.49995 271.5C6.19195 267.64 5.52495 263.974 4.49995 260.5C4.08195 254.331 3.41495 248.331 2.49995 242.5C1.65595 230.187 1.32295 217.854 1.49995 205.5C1.27895 202.721 1.61195 200.054 2.49995 197.5C3.73695 192.04 4.40395 186.373 4.49995 180.5C4.49995 179.833 4.49995 179.167 4.49995 178.5C6.03995 176.162 6.70595 173.495 6.49995 170.5C7.46095 168.735 7.79495 166.735 7.49995 164.5C8.43395 163.432 8.76795 162.099 8.49995 160.5C10.744 155.578 12.41 150.245 13.5 144.5C14.167 141.833 14.833 139.167 15.5 136.5C18.721 131.544 21.388 126.211 23.5 120.5C23.5 119.833 23.5 119.167 23.5 118.5C28.014 111.474 32.014 104.141 35.5 96.5C36.974 95.564 37.974 94.23 38.5 92.5C42.521 87.804 46.188 82.804 49.5 77.5C51.914 76.089 53.581 74.089 54.5 71.5C56.452 70.215 58.118 68.549 59.5 66.5C60.5 66.167 61.167 65.5 61.5 64.5C63.914 63.089 65.581 61.089 66.5 58.5C67.167 58.5 67.833 58.5 68.5 58.5C70.5 57.167 72.167 55.5 73.5 53.5C94.891 34.9148 119.225 21.5814 146.5 13.5C149.811 13.117 152.811 12.117 155.5 10.5C159.57 9.15463 163.57 7.82133 167.5 6.50003C168.167 6.50003 168.833 6.50003 169.5 6.50003C174.743 5.19033 180.077 4.52373 185.5 4.50003C202.796 2.99013 220.13 2.32343 237.5 2.50003Z" fill="#0C0C0C"/>
<path fill-rule="evenodd" clip-rule="evenodd" d="M237.5 2.49999C237.5 2.16669 237.5 1.83329 237.5 1.49999C246.502 0.92959 255.169 1.92959 263.5 4.49999C262.5 4.49999 261.5 4.49999 260.5 4.49999C252.887 3.26979 245.22 2.60309 237.5 2.49999Z" fill="#BABABA"/>
<path fill-rule="evenodd" clip-rule="evenodd" d="M185.5 3.50001C185.5 3.83331 185.5 4.16671 185.5 4.50001C180.077 4.52371 174.743 5.19031 169.5 6.50001C174.438 4.05341 179.772 3.05341 185.5 3.50001Z" fill="#999999"/>
<path fill-rule="evenodd" clip-rule="evenodd" d="M260.5 4.5C261.5 4.5 262.5 4.5 263.5 4.5C267.675 5.1356 271.675 6.1356 275.5 7.5C270.205 7.3222 265.205 6.3222 260.5 4.5Z" fill="#6C6C6C"/>
<path fill-rule="evenodd" clip-rule="evenodd" d="M167.5 6.50002C163.57 7.82132 159.57 9.15462 155.5 10.5C158.793 7.40202 162.793 6.06872 167.5 6.50002Z" fill="#929292"/>
<path fill-rule="evenodd" clip-rule="evenodd" d="M155.5 10.5C152.811 12.117 149.811 13.117 146.5 13.5C149.008 11.446 152.008 10.446 155.5 10.5Z" fill="#555555"/>
<path fill-rule="evenodd" clip-rule="evenodd" d="M299.5 14.5C301.801 15.0604 304.134 15.5604 306.5 16C307.942 16.3768 308.942 17.2101 309.5 18.5C305.687 18.0621 302.354 16.7288 299.5 14.5Z" fill="#A9A9A9"/>
<path fill-rule="evenodd" clip-rule="evenodd" d="M318.5 22.5C321.491 22.1663 323.824 23.1663 325.5 25.5C322.843 25.0652 320.509 24.0652 318.5 22.5Z" fill="#A1A1A1"/>
<path fill-rule="evenodd" clip-rule="evenodd" d="M363.5 50.5C366.089 51.419 368.089 53.086 369.5 55.5C366.911 54.581 364.911 52.914 363.5 50.5Z" fill="#868686"/>
<path fill-rule="evenodd" clip-rule="evenodd" d="M235.5 51.5C235.5 51.833 235.5 52.167 235.5 52.5C219.784 52.287 204.117 52.954 188.5 54.5C188.918 53.778 189.584 53.278 190.5 53C205.475 51.772 220.475 51.272 235.5 51.5Z" fill="#686868"/>
<path fill-rule="evenodd" clip-rule="evenodd" d="M235.5 52.5C235.5 52.167 235.5 51.833 235.5 51.5C242.204 51.01 248.537 52.01 254.5 54.5C248.123 54.208 241.79 53.541 235.5 52.5Z" fill="#424242"/>
<path fill-rule="evenodd" clip-rule="evenodd" d="M235.5 52.5C241.79 53.541 248.123 54.208 254.5 54.5C255.5 54.5 256.5 54.5 257.5 54.5C257.918 55.222 258.584 55.722 259.5 56C264.951 56.363 270.284 57.196 275.5 58.5C277.435 59.15 279.435 59.483 281.5 59.5C283.698 61.397 286.364 62.397 289.5 62.5C294.076 64.129 298.409 66.129 302.5 68.5C302.918 69.222 303.584 69.722 304.5 70C303.5 70.333 302.5 70.667 301.5 71C302.654 71.914 302.487 72.747 301 73.5C281.554 64.906 261.054 60.073 239.5 59C213.841 57.776 188.507 59.609 163.5 64.5C161.5 64.333 159.5 64.167 157.5 64C161.5 63.333 161.5 62.667 157.5 62C158.942 61.623 159.942 60.79 160.5 59.5C161.919 58.549 163.585 58.216 165.5 58.5C168.082 58.975 170.082 58.308 171.5 56.5C176.414 56.638 181.081 55.972 185.5 54.5C186.5 54.5 187.5 54.5 188.5 54.5C204.117 52.954 219.784 52.287 235.5 52.5Z" fill="#F3F3F3"/>
<path fill-rule="evenodd" clip-rule="evenodd" d="M73.5 53.5C72.167 55.5 70.5 57.167 68.5 58.5C69.167 55.833 70.833 54.167 73.5 53.5Z" fill="#6C6C6C"/>
<path fill-rule="evenodd" clip-rule="evenodd" d="M185.5 54.5C181.081 55.972 176.414 56.638 171.5 56.5C175.919 55.028 180.586 54.362 185.5 54.5Z" fill="#858585"/>
<path fill-rule="evenodd" clip-rule="evenodd" d="M369.5 55.5C373.167 57.167 375.833 59.833 377.5 63.5C374.5 61.167 371.833 58.5 369.5 55.5Z" fill="#A9A9A9"/>
<path fill-rule="evenodd" clip-rule="evenodd" d="M257.5 54.5C264.164 55.285 270.83 56.118 277.5 57C276.584 57.278 275.918 57.778 275.5 58.5C270.284 57.196 264.951 56.363 259.5 56C258.584 55.722 257.918 55.222 257.5 54.5Z" fill="#515151"/>
<path fill-rule="evenodd" clip-rule="evenodd" d="M171.5 56.5C170.082 58.308 168.082 58.975 165.5 58.5C167.102 56.926 169.102 56.259 171.5 56.5Z" fill="#8C8C8C"/>
<path fill-rule="evenodd" clip-rule="evenodd" d="M302.5 68.5C305.516 68.841 308.182 70.007 310.5 72C313.345 75.344 316.345 78.511 319.5 81.5C321.525 85.847 323.525 90.18 325.5 94.5C327.284 101.2 329.617 107.533 332.5 113.5C332.5 113.833 332.5 114.167 332.5 114.5C332.286 116.144 332.62 117.644 333.5 119C338.739 121.787 344.072 124.287 349.5 126.5C349.577 127.75 350.244 128.583 351.5 129C349.19 129.497 346.857 129.663 344.5 129.5C341.904 128.945 339.571 127.945 337.5 126.5C336.652 124.907 335.319 123.74 333.5 123C325.993 119.908 318.327 117.408 310.5 115.5C308.485 114.076 306.152 113.41 303.5 113.5C300.99 113.073 298.657 112.407 296.5 111.5C294.485 110.076 292.152 109.41 289.5 109.5C289.167 109.5 288.833 109.5 288.5 109.5C288.389 108.883 288.056 108.383 287.5 108C281.868 106.843 276.202 106.009 270.5 105.5C268.833 105.5 267.167 105.5 265.5 105.5C264.737 104.732 263.737 104.232 262.5 104C255.201 102.964 247.868 102.464 240.5 102.5C216.609 100.904 192.609 101.404 168.5 104C165.543 104.279 162.877 105.113 160.5 106.5C160.167 106.5 159.833 106.5 159.5 106.5C151.015 106.86 143.349 109.194 136.5 113.5C134.585 113.216 132.919 113.549 131.5 114.5C126.658 114.655 122.658 116.322 119.5 119.5C117.901 119.232 116.568 119.566 115.5 120.5C111.064 121.414 107.064 123.081 103.5 125.5C95.333 129.323 87.333 133.323 79.5 137.5C71.851 139.493 64.184 141.493 56.5 143.5C54.473 143.662 52.473 143.495 50.5 143C52.027 141.968 53.36 140.801 54.5 139.5C54.833 139.5 55.167 139.5 55.5 139.5C60.653 138.595 65.653 137.095 70.5 135C71.056 134.617 71.389 134.117 71.5 133.5C77.765 131.184 83.765 128.517 89.5 125.5C93.613 124.607 97.28 122.94 100.5 120.5C102.148 119.073 104.148 118.24 106.5 118C107.337 116.989 107.67 115.822 107.5 114.5C110.048 111.004 111.381 107.004 111.5 102.5C111.5 102.167 111.5 101.833 111.5 101.5C115.003 98.819 116.67 95.152 116.5 90.5C120.137 80.729 126.47 73.229 135.5 68C138.096 66.864 140.763 66.031 143.5 65.5C147.734 64.205 151.734 62.539 155.5 60.5C157.042 59.699 158.708 59.366 160.5 59.5C159.942 60.79 158.942 61.623 157.5 62C161.5 62.667 161.5 63.333 157.5 64C159.5 64.167 161.5 64.333 163.5 64.5C188.507 59.609 213.841 57.776 239.5 59C261.054 60.073 281.554 64.906 301 73.5C302.487 72.747 302.654 71.914 301.5 71C302.5 70.667 303.5 70.333 304.5 70C303.584 69.722 302.918 69.222 302.5 68.5Z" fill="#EAEAEA"/>
<path fill-rule="evenodd" clip-rule="evenodd" d="M281.5 59.5C284.486 59.903 287.152 60.903 289.5 62.5C286.364 62.397 283.698 61.397 281.5 59.5Z" fill="#6C6C6C"/>
<path fill-rule="evenodd" clip-rule="evenodd" d="M155.5 60.5C151.734 62.539 147.734 64.205 143.5 65.5C146.835 62.708 150.835 61.041 155.5 60.5Z" fill="#696969"/>
<path fill-rule="evenodd" clip-rule="evenodd" d="M66.5 58.5C65.581 61.089 63.914 63.089 61.5 64.5C62.226 61.712 63.893 59.712 66.5 58.5Z" fill="#9A9A9A"/>
<path fill-rule="evenodd" clip-rule="evenodd" d="M59.5 66.5C58.118 68.549 56.452 70.215 54.5 71.5C55.167 68.833 56.833 67.167 59.5 66.5Z" fill="#969696"/>
<path fill-rule="evenodd" clip-rule="evenodd" d="M54.5 71.5C53.581 74.089 51.914 76.089 49.5 77.5C50.419 74.911 52.086 72.911 54.5 71.5Z" fill="#878787"/>
<path fill-rule="evenodd" clip-rule="evenodd" d="M49.5 77.5C46.188 82.804 42.521 87.804 38.5 92.5C38.857 90.411 39.523 88.411 40.5 86.5C43.294 83.197 46.294 80.197 49.5 77.5Z" fill="#B6B6B6"/>
<path fill-rule="evenodd" clip-rule="evenodd" d="M116.5 90.5C116.67 95.152 115.003 98.819 111.5 101.5C112.382 97.407 114.049 93.74 116.5 90.5Z" fill="#AFAFAF"/>
<path fill-rule="evenodd" clip-rule="evenodd" d="M240.5 102.5C222.813 102.252 205.146 102.586 187.5 103.5C179.548 103.33 171.882 104.33 164.5 106.5C163.167 106.5 161.833 106.5 160.5 106.5C162.877 105.113 165.543 104.279 168.5 104C192.609 101.404 216.609 100.904 240.5 102.5Z" fill="#848484"/>
<path fill-rule="evenodd" clip-rule="evenodd" d="M240.5 102.5C247.868 102.464 255.201 102.964 262.5 104C263.737 104.232 264.737 104.732 265.5 105.5C256.953 105.133 248.62 104.133 240.5 102.5Z" fill="#535353"/>
<path fill-rule="evenodd" clip-rule="evenodd" d="M187.5 103.5C180.081 105.375 172.414 106.375 164.5 106.5C171.882 104.33 179.548 103.33 187.5 103.5Z" fill="#323232"/>
<path fill-rule="evenodd" clip-rule="evenodd" d="M325.5 94.5C326.79 95.058 327.623 96.058 328 97.5C330.017 102.713 331.517 108.046 332.5 113.5C329.617 107.533 327.284 101.2 325.5 94.5Z" fill="#9E9E9E"/>
<path fill-rule="evenodd" clip-rule="evenodd" d="M270.5 105.5C276.202 106.009 281.868 106.843 287.5 108C288.056 108.383 288.389 108.883 288.5 109.5C282.235 108.796 276.235 107.462 270.5 105.5Z" fill="#737373"/>
<path fill-rule="evenodd" clip-rule="evenodd" d="M159.5 106.5C151.953 108.566 144.286 110.899 136.5 113.5C143.349 109.194 151.015 106.86 159.5 106.5Z" fill="#8F8F8F"/>
<path fill-rule="evenodd" clip-rule="evenodd" d="M289.5 109.5C292.152 109.41 294.485 110.076 296.5 111.5C293.848 111.59 291.515 110.924 289.5 109.5Z" fill="#757575"/>
<path fill-rule="evenodd" clip-rule="evenodd" d="M35.5 96.5C32.014 104.141 28.014 111.474 23.5 118.5C26.201 110.342 30.201 103.009 35.5 96.5Z" fill="#9A9A9A"/>
<path fill-rule="evenodd" clip-rule="evenodd" d="M111.5 102.5C111.381 107.004 110.048 111.004 107.5 114.5C107.861 110.085 109.194 106.085 111.5 102.5Z" fill="#959595"/>
<path fill-rule="evenodd" clip-rule="evenodd" d="M303.5 113.5C306.152 113.41 308.485 114.076 310.5 115.5C307.848 115.59 305.515 114.924 303.5 113.5Z" fill="#7F7F7F"/>
<path fill-rule="evenodd" clip-rule="evenodd" d="M131.5 114.5C127.542 116.156 123.542 117.823 119.5 119.5C122.658 116.322 126.658 114.655 131.5 114.5Z" fill="#7D7D7D"/>
<path fill-rule="evenodd" clip-rule="evenodd" d="M310.5 115.5C318.327 117.408 325.993 119.908 333.5 123C335.319 123.74 336.652 124.907 337.5 126.5C328.344 123.009 319.344 119.342 310.5 115.5Z" fill="#838383"/>
<path fill-rule="evenodd" clip-rule="evenodd" d="M100.5 120.5C97.28 122.94 93.613 124.607 89.5 125.5C92.751 123.043 96.418 121.376 100.5 120.5Z" fill="#7F7F7F"/>
<path fill-rule="evenodd" clip-rule="evenodd" d="M115.5 120.5C111.936 122.919 107.936 124.586 103.5 125.5C107.064 123.081 111.064 121.414 115.5 120.5Z" fill="#979797"/>
<path fill-rule="evenodd" clip-rule="evenodd" d="M23.5 120.5C21.388 126.211 18.721 131.544 15.5 136.5C16.707 132.045 18.207 127.712 20 123.5C21.039 122.29 22.206 121.29 23.5 120.5Z" fill="#A7A7A7"/>
<path fill-rule="evenodd" clip-rule="evenodd" d="M332.5 114.5C333.762 116.993 335.762 118.826 338.5 120C343.871 122.019 348.871 124.519 353.5 127.5C352.041 127.567 350.708 127.234 349.5 126.5C344.072 124.287 338.739 121.787 333.5 119C332.62 117.644 332.286 116.144 332.5 114.5Z" fill="#8F8F8F"/>
<path fill-rule="evenodd" clip-rule="evenodd" d="M71.5 133.5C71.389 134.117 71.056 134.617 70.5 135C65.653 137.095 60.653 138.595 55.5 139.5C60.525 136.932 65.859 134.932 71.5 133.5Z" fill="#949494"/>
<path fill-rule="evenodd" clip-rule="evenodd" d="M362.5 137.5C365.479 138.317 368.479 139.151 371.5 140C372.056 140.383 372.389 140.883 372.5 141.5C368.673 141.248 365.34 139.915 362.5 137.5Z" fill="#6A6A6A"/>
<path fill-rule="evenodd" clip-rule="evenodd" d="M369.5 134.5C375.648 135.767 381.315 137.767 386.5 140.5C381.097 139.315 375.763 137.815 370.5 136C369.944 135.617 369.611 135.117 369.5 134.5Z" fill="#616161"/>
<path fill-rule="evenodd" clip-rule="evenodd" d="M79.5 137.5C71.227 141.144 62.56 143.811 53.5 145.5C54.5 144.833 55.5 144.167 56.5 143.5C64.184 141.493 71.851 139.493 79.5 137.5Z" fill="#747474"/>
<path fill-rule="evenodd" clip-rule="evenodd" d="M50.5 139.5C48.162 141.04 45.495 141.706 42.5 141.5C44.838 139.96 47.505 139.294 50.5 139.5Z" fill="#636363"/>
<path fill-rule="evenodd" clip-rule="evenodd" d="M50.4999 139.5C51.8329 139.5 53.1669 139.5 54.4999 139.5C53.3599 140.801 52.0269 141.968 50.4999 143C52.4729 143.495 54.4729 143.662 56.4999 143.5C55.4999 144.167 54.4999 144.833 53.4999 145.5C51.8329 145.5 50.1669 145.5 48.4999 145.5C48.3509 146.552 48.5169 147.552 48.9999 148.5C54.0159 155.207 58.5159 162.207 62.4999 169.5C61.2109 167.752 59.7109 167.419 57.9999 168.5C56.4169 165.669 54.5839 163.003 52.4999 160.5C51.7989 162.192 52.1329 163.858 53.4999 165.5C51.8559 165.19 50.8559 164.19 50.4999 162.5C50.4999 161.5 50.4999 160.5 50.4999 159.5C50.3299 158.224 50.6629 156.724 51.4999 155C47.9069 151.654 46.5739 147.654 47.4999 143C45.5269 142.505 43.5269 142.338 41.4999 142.5C41.2869 145.451 41.9539 148.118 43.4999 150.5C41.1239 149.488 40.1239 147.655 40.4999 145C40.6079 143.319 41.2749 142.152 42.4999 141.5C45.4949 141.706 48.1619 141.04 50.4999 139.5Z" fill="#C7C7C7"/>
<path fill-rule="evenodd" clip-rule="evenodd" d="M50.5001 159.5C48.2631 157.353 46.2631 155.02 44.5001 152.5C44.1671 151.833 43.8331 151.167 43.5001 150.5C41.9541 148.118 41.2871 145.451 41.5001 142.5C43.5271 142.338 45.5271 142.505 47.5001 143C46.5741 147.654 47.9071 151.654 51.5001 155C50.6631 156.724 50.3301 158.224 50.5001 159.5Z" fill="#EEEEEE"/>
<path fill-rule="evenodd" clip-rule="evenodd" d="M349.5 126.5C350.708 127.234 352.041 127.567 353.5 127.5C358.73 130.237 364.063 132.57 369.5 134.5C369.611 135.117 369.944 135.617 370.5 136C375.763 137.815 381.097 139.315 386.5 140.5C388.565 140.517 390.565 140.85 392.5 141.5C393.997 142.306 395.664 142.972 397.5 143.5C398.429 144.689 398.762 146.022 398.5 147.5C396.61 152.949 393.943 157.949 390.5 162.5C387.529 164.443 385.529 167.109 384.5 170.5C382.804 172.525 381.137 174.525 379.5 176.5C376.167 179.167 373.167 182.167 370.5 185.5C365.796 190.53 360.463 194.864 354.5 198.5C353.833 198.5 353.167 198.5 352.5 198.5C351.365 196.787 349.698 196.12 347.5 196.5C356.126 189.876 364.459 182.876 372.5 175.5C374.89 174.109 376.557 172.109 377.5 169.5C379.587 168.415 380.92 166.749 381.5 164.5C383.763 159.635 386.763 155.302 390.5 151.5C392.011 150.042 393.011 148.209 393.5 146C386.722 143.388 379.722 141.888 372.5 141.5C372.389 140.883 372.056 140.383 371.5 140C368.479 139.151 365.479 138.317 362.5 137.5C357.641 135.443 352.641 133.609 347.5 132C346.429 131.148 345.429 130.315 344.5 129.5C346.857 129.663 349.19 129.497 351.5 129C350.244 128.583 349.577 127.75 349.5 126.5Z" fill="#DFDFDF"/>
<path fill-rule="evenodd" clip-rule="evenodd" d="M372.5 141.5C379.722 141.888 386.722 143.388 393.5 146C393.011 148.209 392.011 150.042 390.5 151.5C391.038 149.883 391.371 148.216 391.5 146.5C384.815 145.821 378.482 144.155 372.5 141.5Z" fill="#ACACAC"/>
<path fill-rule="evenodd" clip-rule="evenodd" d="M392.5 141.5C395.249 141.274 397.916 141.607 400.5 142.5C401.452 144.045 401.785 145.712 401.5 147.5C400.5 147.5 399.5 147.5 398.5 147.5C398.762 146.022 398.429 144.689 397.5 143.5C395.664 142.972 393.997 142.306 392.5 141.5Z" fill="#A7A7A7"/>
<path fill-rule="evenodd" clip-rule="evenodd" d="M425.5 139.5C426.497 139.47 427.164 139.97 427.5 141C428.582 144.83 429.582 148.663 430.5 152.5C428.402 148.541 426.736 144.207 425.5 139.5Z" fill="#999999"/>
<path fill-rule="evenodd" clip-rule="evenodd" d="M13.5 144.5C12.41 150.245 10.744 155.578 8.5 160.5C9.007 154.655 10.673 149.321 13.5 144.5Z" fill="#858585"/>
<path fill-rule="evenodd" clip-rule="evenodd" d="M44.5 152.5C46.263 155.02 48.263 157.353 50.5 159.5C50.5 160.5 50.5 161.5 50.5 162.5C47.498 159.839 45.498 156.505 44.5 152.5Z" fill="#878787"/>
<path fill-rule="evenodd" clip-rule="evenodd" d="M430.5 154.5C431.924 156.515 432.59 158.848 432.5 161.5C431.076 159.485 430.41 157.152 430.5 154.5Z" fill="#646464"/>
<path fill-rule="evenodd" clip-rule="evenodd" d="M390.5 162.5C388.984 165.533 386.984 168.2 384.5 170.5C385.529 167.109 387.529 164.443 390.5 162.5Z" fill="#5C5C5C"/>
<path fill-rule="evenodd" clip-rule="evenodd" d="M7.49998 164.5C7.79498 166.735 7.46098 168.735 6.49998 170.5C5.83298 171.833 5.16698 173.167 4.49998 174.5C4.28798 170.655 5.28798 167.321 7.49998 164.5Z" fill="#BABABA"/>
<path fill-rule="evenodd" clip-rule="evenodd" d="M53.5 166.5C56.917 168.592 59.25 171.592 60.5 175.5C57.815 172.81 55.482 169.81 53.5 166.5Z" fill="#959595"/>
<path fill-rule="evenodd" clip-rule="evenodd" d="M381.5 164.5C380.92 166.749 379.587 168.415 377.5 169.5C378.08 167.251 379.413 165.585 381.5 164.5Z" fill="#8F8F8F"/>
<path fill-rule="evenodd" clip-rule="evenodd" d="M235.5 168.5C224.986 168.172 214.653 168.506 204.5 169.5C199.833 169.5 195.167 169.5 190.5 169.5C199.625 168.049 208.958 167.382 218.5 167.5C224.343 167.501 230.01 167.834 235.5 168.5Z" fill="#363636"/>
<path fill-rule="evenodd" clip-rule="evenodd" d="M189.5 169.5C182.691 170.652 175.691 171.319 168.5 171.5C169.263 170.732 170.263 170.232 171.5 170C177.491 169.501 183.491 169.334 189.5 169.5Z" fill="#606060"/>
<path fill-rule="evenodd" clip-rule="evenodd" d="M204.5 169.5C214.653 168.506 224.986 168.172 235.5 168.5C246.172 168.815 256.839 169.315 267.5 170C269.708 170.191 271.708 170.691 273.5 171.5C271.5 171.5 269.5 171.5 267.5 171.5C246.539 169.834 225.539 169.168 204.5 169.5Z" fill="#7E7E7E"/>
<path fill-rule="evenodd" clip-rule="evenodd" d="M189.5 169.5C189.833 169.5 190.167 169.5 190.5 169.5C195.167 169.5 199.833 169.5 204.5 169.5C225.539 169.168 246.539 169.834 267.5 171.5C269.684 172.266 272.018 172.933 274.5 173.5C275.429 174.689 275.762 176.022 275.5 177.5C273.833 179.5 272.167 181.5 270.5 183.5C267.883 184.786 265.55 186.453 263.5 188.5C263.047 189.458 262.381 190.292 261.5 191C257.921 192.262 254.588 193.929 251.5 196C247.973 196.808 244.64 196.641 241.5 195.5C239.571 191.037 236.237 189.537 231.5 191C230.189 193.274 230.189 195.44 231.5 197.5C233.266 199.771 235.266 201.937 237.5 204C256.563 204.469 271.563 196.969 282.5 181.5C283.468 179.393 283.802 177.059 283.5 174.5C286.167 174.5 288.833 174.5 291.5 174.5C295.215 174.423 298.881 174.756 302.5 175.5C312.019 177.942 321.686 180.275 331.5 182.5C331.647 187.275 332.647 191.608 334.5 195.5C335.675 216.478 335.675 237.478 334.5 258.5C333.698 259.952 333.198 261.618 333 263.5C332.5 274.161 332.333 284.828 332.5 295.5C331.539 297.265 331.205 299.265 331.5 301.5C330.343 304.273 329.676 307.273 329.5 310.5C329.5 310.833 329.5 311.167 329.5 311.5C327.796 314.939 326.462 318.605 325.5 322.5C320.087 331.661 314.42 340.661 308.5 349.5C305.167 352.167 302.167 355.167 299.5 358.5C296.638 359.247 294.638 360.914 293.5 363.5C289.43 366.192 285.43 368.858 281.5 371.5C278.148 371.53 275.482 372.863 273.5 375.5C268.323 376.551 263.657 378.551 259.5 381.5C258.833 381.5 258.167 381.5 257.5 381.5C250.625 382.885 243.959 384.552 237.5 386.5C224.835 387.802 212.168 387.802 199.5 386.5C187.55 383.85 175.883 380.184 164.5 375.5C161.06 373.397 157.393 371.563 153.5 370C146.936 363.929 140.27 358.096 133.5 352.5C132.864 350.205 131.531 348.539 129.5 347.5C126.433 342.378 123.099 337.378 119.5 332.5C116.766 329.211 114.766 325.545 113.5 321.5C113.5 321.167 113.5 320.833 113.5 320.5C112.738 316.215 111.405 312.215 109.5 308.5C109.5 307.167 109.5 305.833 109.5 304.5C109.118 293.33 108.452 282.33 107.5 271.5C107.5 271.167 107.5 270.833 107.5 270.5C107.18 262.656 106.513 254.989 105.5 247.5C105.259 228.149 105.592 208.815 106.5 189.5C106.5 188.833 106.5 188.167 106.5 187.5C107.15 184.201 108.816 181.535 111.5 179.5C120.781 177.802 130.114 176.469 139.5 175.5C143.697 175.571 147.863 175.237 152 174.5C154.376 174.685 156.209 175.685 157.5 177.5C158.167 178.5 158.833 179.5 159.5 180.5C159.751 182.17 160.418 183.67 161.5 185C163.818 186.993 166.484 188.159 169.5 188.5C175.931 191.376 182.597 193.709 189.5 195.5C196.358 196.145 199.192 193.145 198 186.5C196.883 184.876 195.383 183.876 193.5 183.5C187.802 186.037 182.135 185.87 176.5 183C171.007 181.009 166.34 177.842 162.5 173.5C162.5 173.167 162.5 172.833 162.5 172.5C163.167 172.5 163.5 172.167 163.5 171.5C165.167 171.5 166.833 171.5 168.5 171.5C175.691 171.319 182.691 170.652 189.5 169.5Z" fill="#FBFBFB"/>
<path fill-rule="evenodd" clip-rule="evenodd" d="M62.5 169.5C66.876 172.874 70.542 176.874 73.5 181.5C75.313 184.647 77.98 186.647 81.5 187.5C84.892 191.213 88.892 194.213 93.5 196.5C94.499 208.148 94.832 219.814 94.5 231.5C93.833 220.326 93.167 208.993 92.5 197.5C89.833 198.5 89.833 199.5 92.5 200.5C91.412 201.934 90.078 202.934 88.5 203.5C89.303 202.577 89.47 201.577 89 200.5C83.982 196.97 79.149 193.303 74.5 189.5C70.119 184.452 65.452 179.785 60.5 175.5C59.25 171.592 56.917 168.592 53.5 166.5C53.5 166.167 53.5 165.833 53.5 165.5C52.133 163.858 51.799 162.192 52.5 160.5C54.584 163.003 56.417 165.669 58 168.5C59.711 167.419 61.211 167.752 62.5 169.5Z" fill="#DEDEDE"/>
<path fill-rule="evenodd" clip-rule="evenodd" d="M163.5 171.5C163.5 172.167 163.167 172.5 162.5 172.5C159.167 172.833 155.833 173.167 152.5 173.5C155.876 171.918 159.542 171.251 163.5 171.5Z" fill="#5D5D5D"/>
<path fill-rule="evenodd" clip-rule="evenodd" d="M162.5 172.5C162.5 172.833 162.5 173.167 162.5 173.5C159.454 173.183 157.787 174.516 157.5 177.5C156.209 175.685 154.376 174.685 152 174.5C147.863 175.237 143.697 175.571 139.5 175.5C143.639 174.437 147.972 173.77 152.5 173.5C155.833 173.167 159.167 172.833 162.5 172.5Z" fill="#C7C7C7"/>
<path fill-rule="evenodd" clip-rule="evenodd" d="M267.5 171.5C269.5 171.5 271.5 171.5 273.5 171.5C279.732 171.872 285.732 172.872 291.5 174.5C288.833 174.5 286.167 174.5 283.5 174.5C283.802 177.059 283.468 179.393 282.5 181.5C282.5 179.167 282.5 176.833 282.5 174.5C279.325 173.909 276.991 174.909 275.5 177.5C275.762 176.022 275.429 174.689 274.5 173.5C272.018 172.933 269.684 172.266 267.5 171.5Z" fill="#C6C6C6"/>
<path fill-rule="evenodd" clip-rule="evenodd" d="M377.5 169.5C376.557 172.109 374.89 174.109 372.5 175.5C373.473 172.865 375.14 170.865 377.5 169.5Z" fill="#7A7A7A"/>
<path fill-rule="evenodd" clip-rule="evenodd" d="M162.5 173.5C166.34 177.842 171.007 181.009 176.5 183C182.135 185.87 187.802 186.037 193.5 183.5C195.383 183.876 196.883 184.876 198 186.5C199.192 193.145 196.358 196.145 189.5 195.5C182.597 193.709 175.931 191.376 169.5 188.5C165.903 186.244 162.569 183.577 159.5 180.5C158.833 179.5 158.167 178.5 157.5 177.5C157.787 174.516 159.454 173.183 162.5 173.5Z" fill="#141414"/>
<path fill-rule="evenodd" clip-rule="evenodd" d="M302.5 175.5C312.089 177.351 321.756 178.684 331.5 179.5C331.5 180.5 331.5 181.5 331.5 182.5C321.686 180.275 312.019 177.942 302.5 175.5Z" fill="#C7C7C7"/>
<path fill-rule="evenodd" clip-rule="evenodd" d="M6.5 170.5C6.706 173.495 6.04 176.162 4.5 178.5C4.5 177.167 4.5 175.833 4.5 174.5C5.167 173.167 5.833 171.833 6.5 170.5Z" fill="#696969"/>
<path fill-rule="evenodd" clip-rule="evenodd" d="M60.5 175.5C65.452 179.785 70.119 184.452 74.5 189.5C68.855 185.855 64.188 181.188 60.5 175.5Z" fill="#777777"/>
<path fill-rule="evenodd" clip-rule="evenodd" d="M73.5 181.5C76.455 183.122 79.122 185.122 81.5 187.5C77.98 186.647 75.313 184.647 73.5 181.5Z" fill="#747474"/>
<path fill-rule="evenodd" clip-rule="evenodd" d="M111.5 179.5C108.816 181.535 107.15 184.201 106.5 187.5C106.292 185.08 106.626 182.747 107.5 180.5C108.689 179.571 110.022 179.238 111.5 179.5Z" fill="#8B8B8B"/>
<path fill-rule="evenodd" clip-rule="evenodd" d="M379.5 176.5C377.5 180.5 374.5 183.5 370.5 185.5C373.167 182.167 376.167 179.167 379.5 176.5Z" fill="#696969"/>
<path fill-rule="evenodd" clip-rule="evenodd" d="M159.5 180.5C162.569 183.577 165.903 186.244 169.5 188.5C166.484 188.159 163.818 186.993 161.5 185C160.418 183.67 159.751 182.17 159.5 180.5Z" fill="#ADADAD"/>
<path fill-rule="evenodd" clip-rule="evenodd" d="M270.5 183.5C268.977 186.364 266.643 188.031 263.5 188.5C265.55 186.453 267.883 184.786 270.5 183.5Z" fill="#A3A3A3"/>
<path fill-rule="evenodd" clip-rule="evenodd" d="M435.5 174.5C437.136 178.21 437.802 182.21 437.5 186.5C435.864 182.79 435.198 178.79 435.5 174.5Z" fill="#464646"/>
<path fill-rule="evenodd" clip-rule="evenodd" d="M282.5 181.5C271.563 196.969 256.563 204.469 237.5 204C235.266 201.937 233.266 199.771 231.5 197.5C230.189 195.44 230.189 193.274 231.5 191C236.237 189.537 239.571 191.037 241.5 195.5C244.64 196.641 247.973 196.808 251.5 196C254.588 193.929 257.921 192.262 261.5 191C262.381 190.292 263.047 189.458 263.5 188.5C266.643 188.031 268.977 186.364 270.5 183.5C272.167 181.5 273.833 179.5 275.5 177.5C276.991 174.909 279.325 173.909 282.5 174.5C282.5 176.833 282.5 179.167 282.5 181.5Z" fill="#101010"/>
<path fill-rule="evenodd" clip-rule="evenodd" d="M331.5 179.5C333.306 184.547 334.306 189.88 334.5 195.5C332.647 191.608 331.647 187.275 331.5 182.5C331.5 181.5 331.5 180.5 331.5 179.5Z" fill="#848484"/>
<path fill-rule="evenodd" clip-rule="evenodd" d="M4.50014 180.5C4.40414 186.373 3.73714 192.04 2.50014 197.5C2.21614 191.583 2.88314 185.916 4.50014 180.5Z" fill="#595959"/>
<path fill-rule="evenodd" clip-rule="evenodd" d="M352.5 198.5C353.167 198.5 353.833 198.5 354.5 198.5C350.313 200.933 350.646 202.599 355.5 203.5C353.5 203.5 351.5 203.5 349.5 203.5C349.273 201.067 350.273 199.401 352.5 198.5Z" fill="#7B7B7B"/>
<path fill-rule="evenodd" clip-rule="evenodd" d="M145.5 201.5C148.984 200.835 152.651 200.501 156.5 200.5C161.767 200.287 166.767 200.954 171.5 202.5C162.842 201.989 154.175 201.656 145.5 201.5Z" fill="#7B7B7B"/>
<path fill-rule="evenodd" clip-rule="evenodd" d="M347.5 196.5C349.698 196.12 351.365 196.787 352.5 198.5C350.273 199.401 349.273 201.067 349.5 203.5C351.5 203.5 353.5 203.5 355.5 203.5C357.118 205.316 359.118 206.649 361.5 207.5C362.833 209.5 364.5 211.167 366.5 212.5C370.545 224.386 370.378 236.386 366 248.5C364.974 251.239 363.474 253.572 361.5 255.5C359.413 256.585 358.08 258.251 357.5 260.5C354.948 262.943 351.948 264.61 348.5 265.5C348.5 267.167 348.5 268.833 348.5 270.5C347.67 280.659 347.17 290.992 347 301.5C345.333 310.659 343.166 319.659 340.5 328.5C340.5 328.833 340.5 329.167 340.5 329.5C337.214 331.978 335.214 335.311 334.5 339.5C334.672 340.492 334.338 341.158 333.5 341.5C332.279 342.028 331.113 342.695 330 343.5C329.308 342.975 328.808 342.308 328.5 341.5C332.745 335.097 335.412 328.097 336.5 320.5C336.833 320.5 337.167 320.5 337.5 320.5C340.588 315.74 342.421 310.407 343 304.5C343.439 283.83 343.939 263.163 344.5 242.5C344.333 227.83 344.5 213.163 345 198.5C345.708 197.619 346.542 196.953 347.5 196.5Z" fill="#F5F5F5"/>
<path fill-rule="evenodd" clip-rule="evenodd" d="M94.4999 231.5C94.4999 232.833 94.4999 234.167 94.4999 235.5C94.8139 243.087 94.4809 250.587 93.4999 258C94.9849 271.067 95.8179 284.234 95.9999 297.5C96.7249 300.79 97.8919 303.79 99.4999 306.5C99.3359 309.187 99.5029 311.854 99.9999 314.5C101.565 318.402 103.398 322.069 105.5 325.5C105.387 328.049 106.054 330.382 107.5 332.5C106.833 332.833 106.167 333.167 105.5 333.5C106 334.5 106.5 335.5 107 336.5C108.518 336.057 109.685 336.724 110.5 338.5C109.289 339.72 109.289 340.887 110.5 342C109.906 342.464 109.239 342.631 108.5 342.5C106.179 337.899 103.846 333.232 101.5 328.5C101.043 327.702 100.376 327.369 99.4999 327.5C99.2179 323.32 97.8849 319.653 95.4999 316.5C94.8639 310.318 93.8639 304.318 92.4999 298.5C91.5449 287.551 91.2109 276.551 91.4999 265.5C86.9009 261.919 82.2339 258.252 77.4999 254.5C76.6619 254.158 76.3279 253.492 76.4999 252.5C75.0699 248.646 73.4029 244.979 71.4999 241.5C70.5489 240.081 70.2159 238.415 70.4999 236.5C69.3099 227.49 70.9769 219.157 75.4999 211.5C76.0369 208.964 77.3699 206.964 79.4999 205.5C81.0269 205.573 82.0269 204.906 82.4999 203.5C84.4999 203.5 86.4999 203.5 88.4999 203.5C90.0779 202.934 91.4119 201.934 92.4999 200.5C89.8329 199.5 89.8329 198.5 92.4999 197.5C93.1669 208.993 93.8329 220.326 94.4999 231.5Z" fill="#F8F8F8"/>
<path fill-rule="evenodd" clip-rule="evenodd" d="M291.5 204.5C280.482 204.381 269.482 204.714 258.5 205.5C264.762 203.981 271.262 203.314 278 203.5C282.68 203.501 287.18 203.834 291.5 204.5Z" fill="#414141"/>
<path fill-rule="evenodd" clip-rule="evenodd" d="M82.5 203.5C82.027 204.906 81.027 205.573 79.5 205.5C79.973 204.094 80.973 203.427 82.5 203.5Z" fill="#797979"/>
<path fill-rule="evenodd" clip-rule="evenodd" d="M143.5 201.5C138.375 204.232 133.375 207.232 128.5 210.5C132.224 205.456 137.224 202.456 143.5 201.5Z" fill="#A1A1A1"/>
<path fill-rule="evenodd" clip-rule="evenodd" d="M172.5 202.5C175.346 202.552 177.68 203.552 179.5 205.5C176.615 205.357 174.282 204.357 172.5 202.5Z" fill="#898989"/>
<path fill-rule="evenodd" clip-rule="evenodd" d="M355.5 203.5C358.608 203.375 360.608 204.708 361.5 207.5C359.118 206.649 357.118 205.316 355.5 203.5Z" fill="#868686"/>
<path fill-rule="evenodd" clip-rule="evenodd" d="M296.5 205.5C299.921 205.518 302.588 206.851 304.5 209.5C301.702 208.35 299.035 207.017 296.5 205.5Z" fill="#848484"/>
<path fill-rule="evenodd" clip-rule="evenodd" d="M361.5 207.5C364.167 208.167 365.833 209.833 366.5 212.5C364.5 211.167 362.833 209.5 361.5 207.5Z" fill="#646464"/>
<path fill-rule="evenodd" clip-rule="evenodd" d="M437.5 188.5C439.631 194.854 440.631 201.521 440.5 208.5C439.186 202.014 438.186 195.347 437.5 188.5Z" fill="#606060"/>
<path fill-rule="evenodd" clip-rule="evenodd" d="M106.5 189.5C105.592 208.815 105.259 228.149 105.5 247.5C104.338 230.338 104.171 213.005 105 195.5C105.191 193.292 105.691 191.292 106.5 189.5Z" fill="#B9B9B9"/>
<path fill-rule="evenodd" clip-rule="evenodd" d="M128.5 210.5C127.308 212.878 125.641 214.878 123.5 216.5C124.226 213.712 125.893 211.712 128.5 210.5Z" fill="#7F7F7F"/>
<path fill-rule="evenodd" clip-rule="evenodd" d="M314.5 218.5C316.008 220.181 317.008 222.181 317.5 224.5C315.461 223.089 314.461 221.089 314.5 218.5Z" fill="#868686"/>
<path fill-rule="evenodd" clip-rule="evenodd" d="M75.5001 211.5C70.9771 219.157 69.3101 227.49 70.5001 236.5C69.3481 231.015 69.1821 225.349 70.0001 219.5C71.0321 216.142 72.8651 213.475 75.5001 211.5Z" fill="#878787"/>
<path fill-rule="evenodd" clip-rule="evenodd" d="M1.5 205.5C1.323 217.854 1.656 230.187 2.5 242.5C2.5 244.5 2.5 246.5 2.5 248.5C1.71 247.391 1.21 246.058 1 244.5C0.173002 231.327 0.340002 218.327 1.5 205.5Z" fill="#BCBCBC"/>
<path fill-rule="evenodd" clip-rule="evenodd" d="M317.5 225.5C319.067 226.681 319.901 228.347 320 230.5C320.667 235.5 320.667 240.5 320 245.5C319.901 247.653 319.067 249.319 317.5 250.5C320.167 242.167 320.167 233.833 317.5 225.5Z" fill="#ABABAB"/>
<path fill-rule="evenodd" clip-rule="evenodd" d="M120.5 223.5C119.614 230.457 119.28 237.457 119.5 244.5C118.2 242.777 117.533 240.61 117.5 238C117.644 233.79 118.144 229.624 119 225.5C119.278 224.584 119.778 223.918 120.5 223.5Z" fill="#A9A9A9"/>
<path fill-rule="evenodd" clip-rule="evenodd" d="M143.5 201.5C144.167 201.5 144.833 201.5 145.5 201.5C154.175 201.656 162.842 201.989 171.5 202.5C171.833 202.5 172.167 202.5 172.5 202.5C174.282 204.357 176.615 205.357 179.5 205.5C179.973 206.906 180.973 207.573 182.5 207.5C186.31 211.131 189.643 215.131 192.5 219.5C192.552 222.346 193.552 224.68 195.5 226.5C195.5 226.833 195.5 227.167 195.5 227.5C195.41 230.152 196.076 232.485 197.5 234.5C197.328 235.492 197.662 236.158 198.5 236.5C198.827 244.612 198.16 252.612 196.5 260.5C195.985 262.894 195.319 265.228 194.5 267.5C192.528 270.084 191.528 273.084 191.5 276.5C191.5 276.833 191.5 277.167 191.5 277.5C190.549 278.919 190.216 280.585 190.5 282.5C191.833 282.5 193.167 282.5 194.5 282.5C196.042 283.301 197.708 283.634 199.5 283.5C203.047 285.808 207.047 286.975 211.5 287C216.833 287.667 222.167 287.667 227.5 287C233.28 284.931 239.114 283.098 245 281.5C244.728 277.852 243.562 274.518 241.5 271.5C241.277 267.838 240.277 264.505 238.5 261.5C238.01 258.345 237.344 255.345 236.5 252.5C236.374 242.165 238.04 232.165 241.5 222.5C242.167 220.833 242.833 219.167 243.5 217.5C245.89 216.109 247.557 214.109 248.5 211.5C251.242 208.579 254.575 206.579 258.5 205.5C269.482 204.714 280.482 204.381 291.5 204.5C292.919 205.451 294.585 205.784 296.5 205.5C299.035 207.017 301.702 208.35 304.5 209.5C308.482 211.817 311.815 214.817 314.5 218.5C314.461 221.089 315.461 223.089 317.5 224.5C317.5 224.833 317.5 225.167 317.5 225.5C320.167 233.833 320.167 242.167 317.5 250.5C315.24 255.356 312.24 259.689 308.5 263.5C306.147 264.34 304.147 265.674 302.5 267.5C299.455 268.279 296.789 269.613 294.5 271.5C290.998 272.917 287.331 273.584 283.5 273.5C276.151 273.451 268.817 273.118 261.5 272.5C257.292 271.064 252.959 269.731 248.5 268.5C247.542 268.047 246.708 267.381 246 266.5C246.322 270.459 247.655 274.126 250 277.5C250.825 281.211 250.659 284.878 249.5 288.5C236.31 295.633 222.31 298.3 207.5 296.5C203.313 295.031 198.98 293.698 194.5 292.5C191.018 291.256 188.018 289.256 185.5 286.5C186.041 279.739 188.041 273.406 191.5 267.5C191.167 267.167 190.833 266.833 190.5 266.5C187.638 269.437 184.305 271.437 180.5 272.5C180.167 272.5 179.833 272.5 179.5 272.5C176.833 272.5 174.167 272.5 171.5 272.5C163.466 272.698 155.466 272.365 147.5 271.5C145.599 271.567 143.766 271.233 142 270.5C138.938 268.462 135.771 266.796 132.5 265.5C131.421 263.457 129.754 262.124 127.5 261.5C124.512 258.199 122.012 254.533 120 250.5C119.505 248.527 119.338 246.527 119.5 244.5C119.28 237.457 119.614 230.457 120.5 223.5C122.293 221.574 123.293 219.241 123.5 216.5C125.641 214.878 127.308 212.878 128.5 210.5C133.375 207.232 138.375 204.232 143.5 201.5Z" fill="#0D0D0D"/>
<path fill-rule="evenodd" clip-rule="evenodd" d="M198.5 236.5C199.653 242.319 199.819 248.319 199 254.5C198.155 256.611 197.322 258.611 196.5 260.5C198.16 252.612 198.827 244.612 198.5 236.5Z" fill="#A2A2A2"/>
<path fill-rule="evenodd" clip-rule="evenodd" d="M247.5 232.5C247.714 234.144 247.38 235.644 246.5 237C247.71 238.039 248.71 239.206 249.5 240.5C245.074 238.795 244.407 236.129 247.5 232.5Z" fill="#7F7F7F"/>
<path fill-rule="evenodd" clip-rule="evenodd" d="M195.5 227.5C196.924 229.515 197.59 231.848 197.5 234.5C196.076 232.485 195.41 230.152 195.5 227.5Z" fill="#535353"/>
<path fill-rule="evenodd" clip-rule="evenodd" d="M136.5 226.5C136.167 229.167 135.833 231.833 135.5 234.5C134.083 231.66 134.416 228.993 136.5 226.5Z" fill="#888888"/>
<path fill-rule="evenodd" clip-rule="evenodd" d="M296.5 225.5C303.033 230.794 303.033 236.294 296.5 242C292.741 243.985 288.741 245.152 284.5 245.5C284.918 244.778 285.584 244.278 286.5 244C283.305 243.819 280.305 243.319 277.5 242.5C280.902 242.658 284.236 242.324 287.5 241.5C288.167 241.5 288.833 241.5 289.5 241.5C293.001 242.344 295.834 241.011 298 237.5C297.314 233.376 296.814 229.376 296.5 225.5Z" fill="#BDBDBD"/>
<path fill-rule="evenodd" clip-rule="evenodd" d="M241.5 222.5C238.04 232.165 236.374 242.165 236.5 252.5C235.174 243.087 236.174 233.753 239.5 224.5C239.747 223.287 240.414 222.62 241.5 222.5Z" fill="#A0A0A0"/>
<path fill-rule="evenodd" clip-rule="evenodd" d="M192.5 219.5C194.065 221.509 195.065 223.843 195.5 226.5C193.552 224.68 192.552 222.346 192.5 219.5Z" fill="#737373"/>
<path fill-rule="evenodd" clip-rule="evenodd" d="M259.5 219.5C256.5 223.167 253.167 226.5 249.5 229.5C251.5 224.833 254.833 221.5 259.5 219.5Z" fill="#9B9B9B"/>
<path fill-rule="evenodd" clip-rule="evenodd" d="M292.5 220.5C285.386 216.473 277.72 214.806 269.5 215.5C269.611 214.883 269.944 214.383 270.5 214C278.173 213.39 285.507 214.724 292.5 218C293.598 218.77 293.598 219.603 292.5 220.5Z" fill="#303030"/>
<path fill-rule="evenodd" clip-rule="evenodd" d="M265.5 216.5C266.568 215.566 267.901 215.232 269.5 215.5C277.72 214.806 285.386 216.473 292.5 220.5C293.833 222.167 295.167 223.833 296.5 225.5C292.815 223.905 289.315 221.905 286 219.5C285.228 219.645 284.561 219.978 284 220.5C278.383 216.995 272.217 215.662 265.5 216.5Z" fill="#D9D9D9"/>
<path fill-rule="evenodd" clip-rule="evenodd" d="M265.5 216.5C272.217 215.662 278.383 216.995 284 220.5C284.561 219.978 285.228 219.645 286 219.5C289.315 221.905 292.815 223.905 296.5 225.5C296.814 229.376 297.314 233.376 298 237.5C295.834 241.011 293.001 242.344 289.5 241.5C290.7 238.031 290.7 234.698 289.5 231.5C288.415 229.413 286.749 228.08 284.5 227.5C274.657 225.014 271.324 228.68 274.5 238.5C274.738 240.404 275.738 241.738 277.5 242.5C280.305 243.319 283.305 243.819 286.5 244C285.584 244.278 284.918 244.778 284.5 245.5C284.158 246.338 283.492 246.672 282.5 246.5C273.001 246.912 263.667 245.912 254.5 243.5C252.632 242.737 250.965 241.737 249.5 240.5C248.71 239.206 247.71 238.039 246.5 237C247.38 235.644 247.714 234.144 247.5 232.5C247.932 231.29 248.599 230.29 249.5 229.5C253.167 226.5 256.5 223.167 259.5 219.5C261.181 217.992 263.181 216.992 265.5 216.5Z" fill="#F6F6F6"/>
<path fill-rule="evenodd" clip-rule="evenodd" d="M289.5 231.5C290.7 234.698 290.7 238.031 289.5 241.5C288.833 241.5 288.167 241.5 287.5 241.5C289.181 238.418 289.848 235.085 289.5 231.5Z" fill="#828282"/>
<path fill-rule="evenodd" clip-rule="evenodd" d="M284.5 227.5C276.336 226.667 273.002 230.334 274.5 238.5C271.324 228.68 274.657 225.014 284.5 227.5Z" fill="#9E9E9E"/>
<path fill-rule="evenodd" clip-rule="evenodd" d="M284.5 227.5C286.749 228.08 288.415 229.413 289.5 231.5C289.848 235.085 289.181 238.418 287.5 241.5C284.236 242.324 280.902 242.658 277.5 242.5C275.738 241.738 274.738 240.404 274.5 238.5C273.002 230.334 276.336 226.667 284.5 227.5Z" fill="#0E0E0E"/>
<path fill-rule="evenodd" clip-rule="evenodd" d="M168.5 216.5C162.862 215.541 157.195 215.374 151.5 216C147.642 217.557 143.975 219.39 140.5 221.5C143.063 216.782 147.063 214.282 152.5 214C156.167 213.333 159.833 213.333 163.5 214C165.491 214.374 167.158 215.207 168.5 216.5Z" fill="#CBCBCB"/>
<path fill-rule="evenodd" clip-rule="evenodd" d="M168.5 216.5C180.269 220.767 188.102 228.767 192 240.5C189.966 241.862 187.799 242.862 185.5 243.5C181.681 243.605 178.014 244.438 174.5 246C166.811 246.647 159.144 246.48 151.5 245.5C143.951 244.936 138.618 241.27 135.5 234.5C135.833 231.833 136.167 229.167 136.5 226.5C137.08 224.251 138.413 222.585 140.5 221.5C143.975 219.39 147.642 217.557 151.5 216C157.195 215.374 162.862 215.541 168.5 216.5Z" fill="#F3F3F3"/>
<path fill-rule="evenodd" clip-rule="evenodd" d="M164.5 228.5C175.583 227.891 178.25 232.391 172.5 242C162.493 245.378 158.659 241.878 161 231.5C162.145 230.364 163.312 229.364 164.5 228.5Z" fill="#141414"/>
<path fill-rule="evenodd" clip-rule="evenodd" d="M248.5 211.5C247.557 214.109 245.89 216.109 243.5 217.5C244.473 214.865 246.14 212.865 248.5 211.5Z" fill="#787878"/>
<path fill-rule="evenodd" clip-rule="evenodd" d="M182.5 207.5C187.696 209.86 191.029 213.86 192.5 219.5C189.643 215.131 186.31 211.131 182.5 207.5Z" fill="#9D9D9D"/>
<path fill-rule="evenodd" clip-rule="evenodd" d="M185.5 243.5C182.386 244.956 179.052 246.122 175.5 247C168.833 247.667 162.167 247.667 155.5 247C153.942 246.79 152.609 246.29 151.5 245.5C159.144 246.48 166.811 246.647 174.5 246C178.014 244.438 181.681 243.605 185.5 243.5Z" fill="#5F5F5F"/>
<path fill-rule="evenodd" clip-rule="evenodd" d="M254.5 243.5C263.667 245.912 273.001 246.912 282.5 246.5C276.681 247.653 270.681 247.819 264.5 247C260.782 246.627 257.449 245.461 254.5 243.5Z" fill="#797979"/>
<path fill-rule="evenodd" clip-rule="evenodd" d="M71.5 241.5C73.403 244.979 75.07 248.646 76.5 252.5C73.512 249.519 71.846 245.852 71.5 241.5Z" fill="#9A9A9A"/>
<path fill-rule="evenodd" clip-rule="evenodd" d="M94.5 235.5C95.598 241.979 96.265 248.646 96.5 255.5C96.51 268.355 97.177 281.022 98.5 293.5C99.08 297.81 99.414 302.143 99.5 306.5C97.892 303.79 96.725 300.79 96 297.5C95.818 284.234 94.985 271.067 93.5 258C94.481 250.587 94.814 243.087 94.5 235.5Z" fill="#D2D2D2"/>
<path fill-rule="evenodd" clip-rule="evenodd" d="M105.5 247.5C106.513 254.989 107.18 262.656 107.5 270.5C106.833 268.833 106.167 267.167 105.5 265.5C105.5 259.5 105.5 253.5 105.5 247.5Z" fill="#929292"/>
<path fill-rule="evenodd" clip-rule="evenodd" d="M77.5 254.5C82.234 258.252 86.901 261.919 91.5 265.5C89.518 265.005 87.518 264.505 85.5 264C82.064 261.53 79.397 258.364 77.5 254.5Z" fill="#B6B6B6"/>
<path fill-rule="evenodd" clip-rule="evenodd" d="M361.5 255.5C360.92 257.749 359.587 259.415 357.5 260.5C358.08 258.251 359.413 256.585 361.5 255.5Z" fill="#949494"/>
<path fill-rule="evenodd" clip-rule="evenodd" d="M2.49986 242.5C3.41486 248.331 4.08186 254.331 4.49986 260.5C2.86386 256.79 2.19786 252.79 2.49986 248.5C2.49986 246.5 2.49986 244.5 2.49986 242.5Z" fill="#686868"/>
<path fill-rule="evenodd" clip-rule="evenodd" d="M127.5 261.5C129.754 262.124 131.421 263.457 132.5 265.5C130.205 264.864 128.539 263.531 127.5 261.5Z" fill="#919191"/>
<path fill-rule="evenodd" clip-rule="evenodd" d="M238.5 261.5C240.277 264.505 241.277 267.838 241.5 271.5C239.723 268.495 238.723 265.162 238.5 261.5Z" fill="#949494"/>
<path fill-rule="evenodd" clip-rule="evenodd" d="M439.5 244.5C439.199 250.511 438.699 256.511 438 262.5C437.386 266.475 436.219 270.141 434.5 273.5C436.066 263.685 437.733 254.018 439.5 244.5Z" fill="#8D8D8D"/>
<path fill-rule="evenodd" clip-rule="evenodd" d="M308.5 263.5C307.198 265.822 305.198 267.155 302.5 267.5C304.147 265.674 306.147 264.34 308.5 263.5Z" fill="#949494"/>
<path fill-rule="evenodd" clip-rule="evenodd" d="M4.50001 260.5C5.52501 263.974 6.19201 267.64 6.50001 271.5C4.78301 268.155 4.11601 264.489 4.50001 260.5Z" fill="#767676"/>
<path fill-rule="evenodd" clip-rule="evenodd" d="M302.5 267.5C300.469 269.755 297.802 271.088 294.5 271.5C296.789 269.613 299.455 268.279 302.5 267.5Z" fill="#989898"/>
<path fill-rule="evenodd" clip-rule="evenodd" d="M185.5 286.5C184.848 285.551 184.514 284.385 184.5 283C185.276 279.511 185.942 276.011 186.5 272.5C184.5 272.5 182.5 272.5 180.5 272.5C184.305 271.437 187.638 269.437 190.5 266.5C190.833 266.833 191.167 267.167 191.5 267.5C188.041 273.406 186.041 279.739 185.5 286.5Z" fill="#C8C8C8"/>
<path fill-rule="evenodd" clip-rule="evenodd" d="M248.5 268.5C252.959 269.731 257.292 271.064 261.5 272.5C260.833 272.5 260.167 272.5 259.5 272.5C256.873 271.895 254.207 271.395 251.5 271C250.058 270.623 249.058 269.79 248.5 268.5Z" fill="#444444"/>
<path fill-rule="evenodd" clip-rule="evenodd" d="M334.5 258.5C334.015 270.996 333.348 283.33 332.5 295.5C332.333 284.828 332.5 274.161 333 263.5C333.198 261.618 333.698 259.952 334.5 258.5Z" fill="#7E7E7E"/>
<path fill-rule="evenodd" clip-rule="evenodd" d="M147.5 271.5C155.466 272.365 163.466 272.698 171.5 272.5C166.025 273.489 160.358 273.822 154.5 273.5C151.772 273.829 149.438 273.163 147.5 271.5Z" fill="#5A5A5A"/>
<path fill-rule="evenodd" clip-rule="evenodd" d="M194.5 267.5C194.31 270.855 193.31 273.855 191.5 276.5C191.528 273.084 192.528 270.084 194.5 267.5Z" fill="#7E7E7E"/>
<path fill-rule="evenodd" clip-rule="evenodd" d="M105.5 265.5C106.167 267.167 106.833 268.833 107.5 270.5C107.5 270.833 107.5 271.167 107.5 271.5C107.275 281.199 107.608 290.866 108.5 300.5C107.778 300.082 107.278 299.416 107 298.5C106.583 287.491 106.083 276.491 105.5 265.5Z" fill="#515151"/>
<path fill-rule="evenodd" clip-rule="evenodd" d="M171.5 272.5C174.167 272.5 176.833 272.5 179.5 272.5C174.401 273.904 169.068 274.571 163.5 274.5C160.314 274.498 157.314 274.165 154.5 273.5C160.358 273.822 166.025 273.489 171.5 272.5Z" fill="#A2A2A2"/>
<path fill-rule="evenodd" clip-rule="evenodd" d="M259.5 272.5C260.167 272.5 260.833 272.5 261.5 272.5C268.817 273.118 276.151 273.451 283.5 273.5C280.518 274.165 277.352 274.498 274 274.5C268.91 274.656 264.077 273.99 259.5 272.5Z" fill="#888888"/>
<path fill-rule="evenodd" clip-rule="evenodd" d="M434.5 274.5C434.634 276.292 434.301 277.958 433.5 279.5C432.833 280.5 432.167 281.5 431.5 282.5C431.62 279.422 432.62 276.755 434.5 274.5Z" fill="#515151"/>
<path fill-rule="evenodd" clip-rule="evenodd" d="M191.5 277.5C191.5 278.833 191.5 280.167 191.5 281.5C192.791 281.263 193.791 281.596 194.5 282.5C193.167 282.5 191.833 282.5 190.5 282.5C190.216 280.585 190.549 278.919 191.5 277.5Z" fill="#8F8F8F"/>
<path fill-rule="evenodd" clip-rule="evenodd" d="M241.5 271.5C243.562 274.518 244.728 277.852 245 281.5C239.114 283.098 233.28 284.931 227.5 287C222.167 287.667 216.833 287.667 211.5 287C207.047 286.975 203.047 285.808 199.5 283.5C214.294 286.865 228.794 285.865 243 280.5C242.554 277.562 242.054 274.562 241.5 271.5Z" fill="#AEAEAE"/>
<path fill-rule="evenodd" clip-rule="evenodd" d="M8.5 284.5C10.99 287.626 12.323 291.292 12.5 295.5C10.796 292.061 9.462 288.395 8.5 284.5Z" fill="#7E7E7E"/>
<path fill-rule="evenodd" clip-rule="evenodd" d="M96.5 255.5C98.058 267.966 98.725 280.633 98.5 293.5C97.177 281.022 96.51 268.355 96.5 255.5Z" fill="#6A6A6A"/>
<path fill-rule="evenodd" clip-rule="evenodd" d="M107.5 271.5C108.452 282.33 109.118 293.33 109.5 304.5C108.566 303.432 108.232 302.099 108.5 300.5C107.608 290.866 107.275 281.199 107.5 271.5Z" fill="#D0D0D0"/>
<path fill-rule="evenodd" clip-rule="evenodd" d="M194.5 292.5C198.98 293.698 203.313 295.031 207.5 296.5C202.605 296.534 198.272 295.2 194.5 292.5Z" fill="#BABABA"/>
<path fill-rule="evenodd" clip-rule="evenodd" d="M12.5001 296.5C14.4001 299.518 15.7331 302.851 16.5001 306.5C13.8191 303.808 12.4861 300.475 12.5001 296.5Z" fill="#989898"/>
<path fill-rule="evenodd" clip-rule="evenodd" d="M433.5 279.5C430.601 292.306 426.268 304.639 420.5 316.5C420.043 317.298 419.376 317.631 418.5 317.5C423.82 306.208 428.153 294.542 431.5 282.5C432.167 281.5 432.833 280.5 433.5 279.5Z" fill="#9B9B9B"/>
<path fill-rule="evenodd" clip-rule="evenodd" d="M92.5 298.5C93.864 304.318 94.864 310.318 95.5 316.5C93.062 310.871 92.062 304.871 92.5 298.5Z" fill="#8D8D8D"/>
<path fill-rule="evenodd" clip-rule="evenodd" d="M243.5 308.5C228.823 307.249 214.156 307.249 199.5 308.5C199.167 308.5 198.833 308.5 198.5 308.5C199.263 307.732 200.263 307.232 201.5 307C213.833 306.333 226.167 306.333 238.5 307C240.382 307.198 242.048 307.698 243.5 308.5Z" fill="#B3B3B3"/>
<path fill-rule="evenodd" clip-rule="evenodd" d="M243.5 308.5C245.905 309.768 248.572 310.435 251.5 310.5C255.522 312.734 259.856 314.401 264.5 315.5C266.826 317.33 269.493 318.663 272.5 319.5C273.425 320.357 274.092 321.357 274.5 322.5C276.167 324.833 278.167 326.833 280.5 328.5C281.774 332.428 284.107 335.428 287.5 337.5C287.917 342.068 285.917 343.568 281.5 342C280.627 340.955 279.627 340.122 278.5 339.5C277.243 336.573 275.243 334.239 272.5 332.5C270.833 330.167 268.833 328.167 266.5 326.5C262.989 322.866 258.656 320.533 253.5 319.5C253.167 319.5 252.833 319.5 252.5 319.5C246.229 316.779 239.562 315.446 232.5 315.5C219.958 314.095 207.291 314.261 194.5 316C195.737 316.232 196.737 316.732 197.5 317.5C195.883 318.038 194.216 318.371 192.5 318.5C189.848 318.41 187.515 319.076 185.5 320.5C178.703 323.615 173.036 328.282 168.5 334.5C167.504 334.414 166.671 334.748 166 335.5C164.579 337.405 163.412 339.405 162.5 341.5C161.5 342.5 160.5 343.5 159.5 344.5C156.873 344.707 155.207 343.54 154.5 341C157.046 336.737 159.713 332.57 162.5 328.5C166.5 325.167 170.167 321.5 173.5 317.5C174.71 317.068 175.71 316.401 176.5 315.5C184.301 313.304 191.968 310.971 199.5 308.5C214.156 307.249 228.823 307.249 243.5 308.5Z" fill="#0F0F0F"/>
<path fill-rule="evenodd" clip-rule="evenodd" d="M243.5 308.5C246.698 307.964 249.365 308.631 251.5 310.5C248.572 310.435 245.905 309.768 243.5 308.5Z" fill="#A1A1A1"/>
<path fill-rule="evenodd" clip-rule="evenodd" d="M331.5 301.5C331.664 304.187 331.497 306.854 331 309.5C330.617 310.056 330.117 310.389 329.5 310.5C329.676 307.273 330.343 304.273 331.5 301.5Z" fill="#5A5A5A"/>
<path fill-rule="evenodd" clip-rule="evenodd" d="M344.5 242.5C343.939 263.163 343.439 283.83 343 304.5C342.421 310.407 340.588 315.74 337.5 320.5C338.451 314.796 339.618 309.129 341 303.5C341.812 282.989 342.979 262.656 344.5 242.5Z" fill="#B6B6B6"/>
<path fill-rule="evenodd" clip-rule="evenodd" d="M198.5 308.5C198.833 308.5 199.167 308.5 199.5 308.5C191.968 310.971 184.301 313.304 176.5 315.5C182.999 311.225 190.332 308.892 198.5 308.5Z" fill="#7D7D7D"/>
<path fill-rule="evenodd" clip-rule="evenodd" d="M99.4999 306.5C101.465 312.733 103.465 319.066 105.5 325.5C103.398 322.069 101.565 318.402 99.9999 314.5C99.5029 311.854 99.3359 309.187 99.4999 306.5Z" fill="#929292"/>
<path fill-rule="evenodd" clip-rule="evenodd" d="M109.5 308.5C111.405 312.215 112.738 316.215 113.5 320.5C112.883 320.389 112.383 320.056 112 319.5C110.85 315.888 110.017 312.222 109.5 308.5Z" fill="#747474"/>
<path fill-rule="evenodd" clip-rule="evenodd" d="M251.5 310.5C256.461 310.824 260.794 312.491 264.5 315.5C259.856 314.401 255.522 312.734 251.5 310.5Z" fill="#858585"/>
<path fill-rule="evenodd" clip-rule="evenodd" d="M232.5 315.5C222.652 315.173 212.986 315.506 203.5 316.5C201.435 316.517 199.435 316.85 197.5 317.5C196.737 316.732 195.737 316.232 194.5 316C207.291 314.261 219.958 314.095 232.5 315.5Z" fill="#3A3A3A"/>
<path fill-rule="evenodd" clip-rule="evenodd" d="M203.5 316.5C212.986 315.506 222.652 315.173 232.5 315.5C239.562 315.446 246.229 316.779 252.5 319.5C236.249 317.318 219.916 316.318 203.5 316.5Z" fill="#D3D3D3"/>
<path fill-rule="evenodd" clip-rule="evenodd" d="M329.5 311.5C329.523 315.764 328.19 319.431 325.5 322.5C326.462 318.605 327.796 314.939 329.5 311.5Z" fill="#5E5E5E"/>
<path fill-rule="evenodd" clip-rule="evenodd" d="M95.5 316.5C97.885 319.653 99.218 323.32 99.5 327.5C96.932 324.419 95.598 320.752 95.5 316.5Z" fill="#9D9D9D"/>
<path fill-rule="evenodd" clip-rule="evenodd" d="M19.5 314.5C21.584 317.053 22.917 320.053 23.5 323.5C21.416 320.947 20.083 317.947 19.5 314.5Z" fill="#7C7C7C"/>
<path fill-rule="evenodd" clip-rule="evenodd" d="M192.5 318.5C190.485 319.924 188.152 320.59 185.5 320.5C187.515 319.076 189.848 318.41 192.5 318.5Z" fill="#9B9B9B"/>
<path fill-rule="evenodd" clip-rule="evenodd" d="M173.5 317.5C170.167 321.5 166.5 325.167 162.5 328.5C164.605 323.307 168.271 319.64 173.5 317.5Z" fill="#999999"/>
<path fill-rule="evenodd" clip-rule="evenodd" d="M238.5 324.5C237.5 324.5 236.5 324.5 235.5 324.5C225.519 323.501 215.519 323.334 205.5 324C200.616 325.574 195.616 326.407 190.5 326.5C190.119 324.058 190.786 323.391 192.5 324.5C194.776 323.787 197.109 323.287 199.5 323C210.167 322.333 220.833 322.333 231.5 323C234.036 323.186 236.369 323.686 238.5 324.5Z" fill="#D2D2D2"/>
<path fill-rule="evenodd" clip-rule="evenodd" d="M235.5 324.5C238.627 325.581 241.96 326.247 245.5 326.5C245.5 328.833 245.5 331.167 245.5 333.5C244.85 333.804 244.183 334.137 243.5 334.5C240.099 332.676 236.432 331.676 232.5 331.5C223.676 330.343 214.676 330.176 205.5 331C201.962 331.535 198.628 332.368 195.5 333.5C193.076 333.808 190.743 333.474 188.5 332.5C189.172 330.47 189.838 328.47 190.5 326.5C195.616 326.407 200.616 325.574 205.5 324C215.519 323.334 225.519 323.501 235.5 324.5Z" fill="#151515"/>
<path fill-rule="evenodd" clip-rule="evenodd" d="M253.5 319.5C258.656 320.533 262.989 322.866 266.5 326.5C261.93 324.333 257.597 322 253.5 319.5Z" fill="#A3A3A3"/>
<path fill-rule="evenodd" clip-rule="evenodd" d="M348.5 270.5C349.109 285.269 348.275 299.936 346 314.5C344.389 319.367 342.556 324.034 340.5 328.5C343.166 319.659 345.333 310.659 347 301.5C347.17 290.992 347.67 280.659 348.5 270.5Z" fill="#9D9D9D"/>
<path fill-rule="evenodd" clip-rule="evenodd" d="M235.5 324.5C236.5 324.5 237.5 324.5 238.5 324.5C241.206 324.575 243.873 324.908 246.5 325.5C246.806 328.385 246.473 331.052 245.5 333.5C245.5 331.167 245.5 328.833 245.5 326.5C241.96 326.247 238.627 325.581 235.5 324.5Z" fill="#898989"/>
<path fill-rule="evenodd" clip-rule="evenodd" d="M416.5 322.5C415.111 328.283 412.445 333.283 408.5 337.5C410.407 332.016 413.073 327.016 416.5 322.5Z" fill="#A3A3A3"/>
<path fill-rule="evenodd" clip-rule="evenodd" d="M274.5 322.5C277.5 323.5 279.5 325.5 280.5 328.5C278.167 326.833 276.167 324.833 274.5 322.5Z" fill="#898989"/>
<path fill-rule="evenodd" clip-rule="evenodd" d="M280.5 328.5C283.526 330.848 285.86 333.848 287.5 337.5C284.107 335.428 281.774 332.428 280.5 328.5Z" fill="#A3A3A3"/>
<path fill-rule="evenodd" clip-rule="evenodd" d="M232.5 331.5C224.493 331.334 216.493 331.5 208.5 332C206.22 332.233 204.22 333.066 202.5 334.5C200.253 333.626 197.92 333.292 195.5 333.5C198.628 332.368 201.962 331.535 205.5 331C214.676 330.176 223.676 330.343 232.5 331.5Z" fill="#C6C6C6"/>
<path fill-rule="evenodd" clip-rule="evenodd" d="M272.5 332.5C275.243 334.239 277.243 336.573 278.5 339.5C275.757 337.761 273.757 335.427 272.5 332.5Z" fill="#9C9C9C"/>
<path fill-rule="evenodd" clip-rule="evenodd" d="M340.5 329.5C339 333.173 337 336.506 334.5 339.5C335.214 335.311 337.214 331.978 340.5 329.5Z" fill="#A9A9A9"/>
<path fill-rule="evenodd" clip-rule="evenodd" d="M168.5 334.5C167.2 337.432 165.2 339.766 162.5 341.5C163.412 339.405 164.579 337.405 166 335.5C166.671 334.748 167.504 334.414 168.5 334.5Z" fill="#868686"/>
<path fill-rule="evenodd" clip-rule="evenodd" d="M325.5 322.5C321.833 332.818 316.167 341.818 308.5 349.5C314.42 340.661 320.087 331.661 325.5 322.5Z" fill="#919191"/>
<path fill-rule="evenodd" clip-rule="evenodd" d="M229.5 341.5C229.5 341.833 229.5 342.167 229.5 342.5C220.085 342.208 210.752 342.875 201.5 344.5C203.995 342.286 206.995 341.119 210.5 341C216.884 340.249 223.217 340.416 229.5 341.5Z" fill="#474747"/>
<path fill-rule="evenodd" clip-rule="evenodd" d="M119.5 332.5C123.099 337.378 126.433 342.378 129.5 347.5C124.926 343.36 121.593 338.36 119.5 332.5Z" fill="#A6A6A6"/>
<path fill-rule="evenodd" clip-rule="evenodd" d="M229.5 342.5C231.679 343.677 234.013 344.677 236.5 345.5C240.76 348.081 243.426 351.748 244.5 356.5C240.116 356.476 236.782 354.643 234.5 351C231.555 349.869 228.555 349.036 225.5 348.5C220.684 347.35 215.684 347.184 210.5 348C208.509 348.374 206.842 349.207 205.5 350.5C203.068 351.75 200.734 353.25 198.5 355C194.418 354.455 193.584 352.289 196 348.5C197.451 346.536 199.284 345.203 201.5 344.5C210.752 342.875 220.085 342.208 229.5 342.5Z" fill="#131313"/>
<path fill-rule="evenodd" clip-rule="evenodd" d="M229.5 341.5C233.002 341.076 235.335 342.41 236.5 345.5C234.013 344.677 231.679 343.677 229.5 342.5C229.5 342.167 229.5 341.833 229.5 341.5Z" fill="#707070"/>
<path fill-rule="evenodd" clip-rule="evenodd" d="M336.5 320.5C335.412 328.097 332.745 335.097 328.5 341.5C328.808 342.308 329.308 342.975 330 343.5C331.113 342.695 332.279 342.028 333.5 341.5C332.833 343.167 332.167 344.833 331.5 346.5C330.833 346.833 330.167 347.167 329.5 347.5C328.91 346.234 328.41 344.901 328 343.5C322.986 348.851 318.319 354.518 314 360.5C312.989 361.337 311.822 361.67 310.5 361.5C321.967 349.557 330.633 335.89 336.5 320.5Z" fill="#B8B8B8"/>
<path fill-rule="evenodd" clip-rule="evenodd" d="M162.5 328.5C159.713 332.57 157.046 336.737 154.5 341C155.207 343.54 156.873 344.707 159.5 344.5C158.223 346.914 156.557 347.081 154.5 345C153.217 342.205 153.217 339.372 154.5 336.5C156.192 334.641 157.692 332.641 159 330.5C159.816 329.177 160.983 328.511 162.5 328.5Z" fill="#B0B0B0"/>
<path fill-rule="evenodd" clip-rule="evenodd" d="M408.5 337.5C407.033 342.3 404.366 346.3 400.5 349.5C402.812 345.202 405.479 341.202 408.5 337.5Z" fill="#959595"/>
<path fill-rule="evenodd" clip-rule="evenodd" d="M225.5 348.5C218.681 348.129 212.014 348.795 205.5 350.5C206.842 349.207 208.509 348.374 210.5 348C215.684 347.184 220.684 347.35 225.5 348.5Z" fill="#B8B8B8"/>
<path fill-rule="evenodd" clip-rule="evenodd" d="M129.5 347.5C131.531 348.539 132.864 350.205 133.5 352.5C131.457 351.421 130.124 349.754 129.5 347.5Z" fill="#8E8E8E"/>
<path fill-rule="evenodd" clip-rule="evenodd" d="M331.5 346.5C328.926 351.409 325.592 355.742 321.5 359.5C324.156 355.529 326.823 351.529 329.5 347.5C330.167 347.167 330.833 346.833 331.5 346.5Z" fill="#666666"/>
<path fill-rule="evenodd" clip-rule="evenodd" d="M308.5 349.5C306.5 353.5 303.5 356.5 299.5 358.5C302.167 355.167 305.167 352.167 308.5 349.5Z" fill="#464646"/>
<path fill-rule="evenodd" clip-rule="evenodd" d="M99.5 327.5C100.376 327.369 101.043 327.702 101.5 328.5C103.846 333.232 106.179 337.899 108.5 342.5C113.471 350.132 118.805 357.465 124.5 364.5C113.404 354.064 105.07 341.731 99.5 327.5Z" fill="#9C9C9C"/>
<path fill-rule="evenodd" clip-rule="evenodd" d="M43.5 356.5C45.587 357.585 46.92 359.251 47.5 361.5C45.413 360.415 44.08 358.749 43.5 356.5Z" fill="#9A9A9A"/>
<path fill-rule="evenodd" clip-rule="evenodd" d="M299.5 358.5C297.909 360.633 295.909 362.299 293.5 363.5C294.638 360.914 296.638 359.247 299.5 358.5Z" fill="#939393"/>
<path fill-rule="evenodd" clip-rule="evenodd" d="M124.5 364.5C129.105 367.436 133.105 371.102 136.5 375.5C131.895 372.564 127.895 368.898 124.5 364.5Z" fill="#999999"/>
<path fill-rule="evenodd" clip-rule="evenodd" d="M310.5 361.5C310.489 363.017 309.823 364.184 308.5 365C305.536 367.81 302.202 369.976 298.5 371.5C302.183 367.82 306.183 364.486 310.5 361.5Z" fill="#A2A2A2"/>
<path fill-rule="evenodd" clip-rule="evenodd" d="M329.5 347.5C326.823 351.529 324.156 355.529 321.5 359.5C319.5 361.167 317.5 362.833 315.5 364.5C309.213 369.26 302.713 373.927 296 378.5C295.683 375.793 296.516 373.46 298.5 371.5C302.202 369.976 305.536 367.81 308.5 365C309.823 364.184 310.489 363.017 310.5 361.5C311.822 361.67 312.989 361.337 314 360.5C318.319 354.518 322.986 348.851 328 343.5C328.41 344.901 328.91 346.234 329.5 347.5Z" fill="#EDEDED"/>
<path fill-rule="evenodd" clip-rule="evenodd" d="M113.5 321.5C114.766 325.545 116.766 329.211 119.5 332.5C121.593 338.36 124.926 343.36 129.5 347.5C130.124 349.754 131.457 351.421 133.5 352.5C140.27 358.096 146.936 363.929 153.5 370C157.393 371.563 161.06 373.397 164.5 375.5C169.547 378.738 174.88 381.405 180.5 383.5C179.5 383.5 178.5 383.5 177.5 383.5C177.36 385.124 178.027 386.29 179.5 387C178.833 387.167 178.167 387.333 177.5 387.5C170.268 384.884 163.268 381.718 156.5 378C155.251 377.26 154.251 377.427 153.5 378.5C150.339 377.087 147.339 375.42 144.5 373.5C140.041 370.213 135.708 366.713 131.5 363C129.21 361.223 127.543 359.056 126.5 356.5C126.611 355.883 126.944 355.383 127.5 355C118.569 345.627 112.402 334.793 109 322.5C111.188 326.066 113.188 329.732 115 333.5C114.36 329.83 113.86 325.83 113.5 321.5Z" fill="#161616"/>
<path fill-rule="evenodd" clip-rule="evenodd" d="M281.5 371.5C279.151 373.341 276.485 374.674 273.5 375.5C275.482 372.863 278.148 371.53 281.5 371.5Z" fill="#8A8A8A"/>
<path fill-rule="evenodd" clip-rule="evenodd" d="M105.5 325.5C110.508 337.176 117.508 347.51 126.5 356.5C127.543 359.056 129.21 361.223 131.5 363C135.708 366.713 140.041 370.213 144.5 373.5C145.625 375.129 146.959 376.629 148.5 378C155.098 381.467 161.765 384.634 168.5 387.5C172.393 389.02 176.393 390.353 180.5 391.5C180.368 394.797 178.702 396.463 175.5 396.5C175.53 395.503 175.03 394.836 174 394.5C167.976 392.569 162.143 390.236 156.5 387.5C151.432 386.41 147.099 384.076 143.5 380.5C141.772 378.123 139.439 376.456 136.5 375.5C133.105 371.102 129.105 367.436 124.5 364.5C118.805 357.465 113.471 350.132 108.5 342.5C109.239 342.631 109.906 342.464 110.5 342C109.289 340.887 109.289 339.72 110.5 338.5C109.685 336.724 108.518 336.057 107 336.5C106.5 335.5 106 334.5 105.5 333.5C106.167 333.167 106.833 332.833 107.5 332.5C106.054 330.382 105.387 328.049 105.5 325.5Z" fill="#E1E1E1"/>
<path fill-rule="evenodd" clip-rule="evenodd" d="M315.5 364.5C309.141 372.178 301.475 378.178 292.5 382.5C293.893 380.716 294.393 378.716 294 376.5C289.584 378.801 285.084 380.801 280.5 382.5C286.459 378.85 292.459 375.183 298.5 371.5C296.516 373.46 295.683 375.793 296 378.5C302.713 373.927 309.213 369.26 315.5 364.5Z" fill="#AAAAAA"/>
<path fill-rule="evenodd" clip-rule="evenodd" d="M136.5 375.5C139.439 376.456 141.772 378.123 143.5 380.5C140.326 379.99 137.992 378.323 136.5 375.5Z" fill="#7B7B7B"/>
<path fill-rule="evenodd" clip-rule="evenodd" d="M164.5 375.5C175.883 380.184 187.55 383.85 199.5 386.5C197.5 386.5 195.5 386.5 193.5 386.5C189.207 385.343 184.873 384.343 180.5 383.5C174.88 381.405 169.547 378.738 164.5 375.5Z" fill="#9A9A9A"/>
<path fill-rule="evenodd" clip-rule="evenodd" d="M273.5 375.5C269.309 378.458 264.642 380.458 259.5 381.5C263.657 378.551 268.323 376.551 273.5 375.5Z" fill="#888888"/>
<path fill-rule="evenodd" clip-rule="evenodd" d="M144.5 373.5C147.339 375.42 150.339 377.087 153.5 378.5C158.443 381.692 163.443 384.692 168.5 387.5C161.765 384.634 155.098 381.467 148.5 378C146.959 376.629 145.625 375.129 144.5 373.5Z" fill="#7B7B7B"/>
<path fill-rule="evenodd" clip-rule="evenodd" d="M374.5 379.5C371.777 384.556 367.777 388.223 362.5 390.5C366.474 386.862 370.474 383.195 374.5 379.5Z" fill="#AEAEAE"/>
<path fill-rule="evenodd" clip-rule="evenodd" d="M280.5 382.5C279.341 384.25 277.674 385.25 275.5 385.5C276.486 383.592 278.152 382.592 280.5 382.5Z" fill="#8D8D8D"/>
<path fill-rule="evenodd" clip-rule="evenodd" d="M257.5 381.5C251.451 384.918 244.784 386.585 237.5 386.5C243.959 384.552 250.625 382.885 257.5 381.5Z" fill="#AFAFAF"/>
<path fill-rule="evenodd" clip-rule="evenodd" d="M193.5 386.5C195.5 386.5 197.5 386.5 199.5 386.5C212.168 387.802 224.835 387.802 237.5 386.5C231.916 388.034 226.083 388.701 220 388.5C210.971 388.415 202.137 387.749 193.5 386.5Z" fill="#686868"/>
<path fill-rule="evenodd" clip-rule="evenodd" d="M292.5 382.5C290.163 384.396 287.496 385.73 284.5 386.5C278.295 388.849 272.295 391.682 266.5 395C263.773 395.818 261.106 395.652 258.5 394.5C258.667 394.167 258.833 393.833 259 393.5C262.011 391.919 264.844 390.253 267.5 388.5C269.684 386.415 272.351 385.415 275.5 385.5C277.674 385.25 279.341 384.25 280.5 382.5C285.084 380.801 289.584 378.801 294 376.5C294.393 378.716 293.893 380.716 292.5 382.5Z" fill="#E4E4E4"/>
<path fill-rule="evenodd" clip-rule="evenodd" d="M156.5 387.5C162.143 390.236 167.976 392.569 174 394.5C175.03 394.836 175.53 395.503 175.5 396.5C171.82 395.44 168.154 394.274 164.5 393C161.244 391.884 158.578 390.051 156.5 387.5Z" fill="#898989"/>
<path fill-rule="evenodd" clip-rule="evenodd" d="M180.5 391.5C181.461 393.265 181.795 395.265 181.5 397.5C179.265 397.795 177.265 397.461 175.5 396.5C178.702 396.463 180.368 394.797 180.5 391.5Z" fill="#959595"/>
<path fill-rule="evenodd" clip-rule="evenodd" d="M284.5 386.5C284.631 387.376 284.298 388.043 283.5 388.5C275.018 393.241 266.018 396.575 256.5 398.5C256.5 396.167 256.5 393.833 256.5 391.5C260.223 390.703 263.89 389.703 267.5 388.5C264.844 390.253 262.011 391.919 259 393.5C258.833 393.833 258.667 394.167 258.5 394.5C261.106 395.652 263.773 395.818 266.5 395C272.295 391.682 278.295 388.849 284.5 386.5Z" fill="#9F9F9F"/>
<path fill-rule="evenodd" clip-rule="evenodd" d="M345.5 403.5C343.418 405.88 340.751 407.546 337.5 408.5C339.629 406.05 342.296 404.383 345.5 403.5Z" fill="#999999"/>
<path fill-rule="evenodd" clip-rule="evenodd" d="M104.5 409.5C106.027 409.427 107.027 410.094 107.5 411.5C105.973 411.573 104.973 410.906 104.5 409.5Z" fill="#797979"/>
<path fill-rule="evenodd" clip-rule="evenodd" d="M337.5 408.5C336.514 410.408 334.848 411.408 332.5 411.5C333.659 409.75 335.326 408.75 337.5 408.5Z" fill="#9F9F9F"/>
<path fill-rule="evenodd" clip-rule="evenodd" d="M332.5 411.5C330.349 414.415 327.349 416.082 323.5 416.5C326.008 414.076 329.008 412.41 332.5 411.5Z" fill="#A8A8A8"/>
<path fill-rule="evenodd" clip-rule="evenodd" d="M107.5 411.5C110.485 412.326 113.151 413.659 115.5 415.5C112.246 415.206 109.579 413.873 107.5 411.5Z" fill="#959595"/>
<path fill-rule="evenodd" clip-rule="evenodd" d="M133.5 423.5C138.011 424.931 142.345 426.598 146.5 428.5C141.536 428.184 137.203 426.517 133.5 423.5Z" fill="#636363"/>
<path fill-rule="evenodd" clip-rule="evenodd" d="M319.5 418.5C317.572 420.474 315.239 421.974 312.5 423C304.33 426.424 295.997 429.257 287.5 431.5C298.046 427.199 308.712 422.865 319.5 418.5Z" fill="#A2A2A2"/>
<path fill-rule="evenodd" clip-rule="evenodd" d="M150.5 430.5C155.073 431.388 159.406 432.721 163.5 434.5C159.447 433.987 155.447 433.154 151.5 432C150.944 431.617 150.611 431.117 150.5 430.5Z" fill="#B9B9B9"/>
<path fill-rule="evenodd" clip-rule="evenodd" d="M283.5 432.5C281.898 434.074 279.898 434.741 277.5 434.5C279.102 432.926 281.102 432.259 283.5 432.5Z" fill="#A4A4A4"/>
<path fill-rule="evenodd" clip-rule="evenodd" d="M164.5 434.5C169.41 435.74 174.41 436.573 179.5 437C180.416 437.278 181.082 437.778 181.5 438.5C176.125 437.993 170.792 437.16 165.5 436C164.944 435.617 164.611 435.117 164.5 434.5Z" fill="#B1B1B1"/>
<path fill-rule="evenodd" clip-rule="evenodd" d="M267.5 436.5C267.082 437.222 266.416 437.722 265.5 438C245.779 441.376 226.112 442.209 206.5 440.5C226.988 441.3 247.321 439.967 267.5 436.5Z" fill="#7B7B7B"/>
<path fill-rule="evenodd" clip-rule="evenodd" d="M182.5 438.5C187.076 438.438 191.409 439.105 195.5 440.5C190.9 440.72 186.567 440.054 182.5 438.5Z" fill="#B2B2B2"/>
</svg>
