<svg width="447" height="440" viewBox="0 0 447 440" fill="none" xmlns="http://www.w3.org/2000/svg">
<path fill-rule="evenodd" clip-rule="evenodd" d="M267.5 5.50001C246.926 2.92301 226.259 1.92301 205.5 2.50001C205.611 1.88301 205.944 1.38301 206.5 1.00001C218.833 0.333006 231.167 0.333006 243.5 1.00001C251.758 1.79001 259.758 3.29001 267.5 5.50001Z" fill="#BEBEBE"/>
<path fill-rule="evenodd" clip-rule="evenodd" d="M203.5 2.49999C198.384 3.80599 193.051 4.47299 187.5 4.49999C192.583 2.92199 197.916 2.25499 203.5 2.49999Z" fill="#A0A0A0"/>
<path fill-rule="evenodd" clip-rule="evenodd" d="M203.5 2.50001C204.167 2.50001 204.833 2.50001 205.5 2.50001C226.259 1.92301 246.926 2.92301 267.5 5.50001C268.167 5.50001 268.833 5.50001 269.5 5.50001C273.153 7.40301 277.153 8.40301 281.5 8.50001C286.133 9.80901 290.8 11.142 295.5 12.5C301.047 14.747 306.714 16.747 312.5 18.5C352.545 34.876 384.879 60.876 409.5 96.5C410.68 99.54 412.347 102.206 414.5 104.5C418.7 110.902 422.366 117.568 425.5 124.5C425.386 127.216 426.386 129.216 428.5 130.5C433.878 142.332 437.878 154.666 440.5 167.5C440.259 169.898 440.926 171.898 442.5 173.5C442.5 174.167 442.5 174.833 442.5 175.5C442.59 179.214 443.59 182.548 445.5 185.5C446.804 206.831 446.804 228.164 445.5 249.5C443.336 254.126 442.336 259.126 442.5 264.5C442.5 265.167 442.5 265.833 442.5 266.5C440.076 272.526 438.409 278.859 437.5 285.5C435.194 289.085 433.861 293.085 433.5 297.5C431.926 299.102 431.259 301.102 431.5 303.5C427.76 309.673 424.76 316.34 422.5 323.5C419.806 327.557 417.473 331.89 415.5 336.5C411.06 341.278 407.393 346.612 404.5 352.5C401.705 354.751 399.372 357.418 397.5 360.5C395.367 362.091 393.701 364.091 392.5 366.5C391.5 366.833 390.833 367.5 390.5 368.5C388.086 369.911 386.419 371.911 385.5 374.5C380.514 378.155 375.847 382.155 371.5 386.5C368.28 388.603 365.28 390.936 362.5 393.5C359.527 395.147 356.86 397.147 354.5 399.5C352.973 399.427 351.973 400.094 351.5 401.5C348.802 401.845 346.802 403.178 345.5 405.5C340.24 407.799 335.24 410.466 330.5 413.5C327.911 413.461 325.911 414.461 324.5 416.5C321.28 418.02 317.947 419.353 314.5 420.5C307.313 422.937 300.313 425.604 293.5 428.5C291.5 428.833 289.5 429.167 287.5 429.5C287.802 426.941 287.468 424.607 286.5 422.5C286.096 411.965 285.096 401.631 283.5 391.5C283.487 386.089 282.82 380.755 281.5 375.5C281.756 374.311 282.089 373.144 282.5 372C290.064 365.39 297.397 358.557 304.5 351.5C306.139 349.194 308.139 347.194 310.5 345.5C312.914 344.089 314.581 342.089 315.5 339.5C319.234 334.43 322.567 329.096 325.5 323.5C330.12 316.644 332.787 308.978 333.5 300.5C333.5 299.5 333.5 298.5 333.5 297.5C334.268 296.737 334.768 295.737 335 294.5C335.997 287.533 336.497 280.533 336.5 273.5C337.423 269.936 337.756 266.269 337.5 262.5C338.167 262.5 338.833 262.5 339.5 262.5C343.1 260.57 346.1 257.903 348.5 254.5C350.025 252.784 351.025 250.784 351.5 248.5C352.492 246.544 353.492 244.544 354.5 242.5C357.021 237.419 358.355 231.919 358.5 226C358.64 222.85 357.973 220.017 356.5 217.5C356.784 215.585 356.451 213.919 355.5 212.5C354.567 209.63 352.9 207.296 350.5 205.5C350.179 203.952 349.179 203.285 347.5 203.5C347.5 202.5 347.5 201.5 347.5 200.5C344.518 200.037 341.518 199.704 338.5 199.5C338.5 190.5 338.5 181.5 338.5 172.5C344.345 173.332 348.179 170.999 350 165.5C350.667 156.833 350.667 148.167 350 139.5C349.623 138.058 348.79 137.058 347.5 136.5C345.565 132.293 342.898 128.627 339.5 125.5C336.71 121.372 333.043 118.372 328.5 116.5C326.343 114.588 324.009 112.921 321.5 111.5C320.089 109.461 318.089 108.461 315.5 108.5C313.337 106.917 311.004 105.584 308.5 104.5C306.88 100.918 304.547 97.918 301.5 95.5C296.2 88.008 289.2 82.674 280.5 79.5C276.656 77.321 272.656 75.321 268.5 73.5C270.444 70.845 273.11 69.511 276.5 69.5C285.55 69.511 293.883 71.844 301.5 76.5C305.107 80.724 307.774 80.057 309.5 74.5C307.157 72.132 304.491 69.965 301.5 68C299.593 66.878 297.593 66.045 295.5 65.5C293.5 65.167 291.5 64.833 289.5 64.5C278.2 61.053 268.2 63.386 259.5 71.5C255.89 70.376 252.224 69.376 248.5 68.5C247.438 67.575 247.438 66.575 248.5 65.5C251.241 61.03 254.241 56.696 257.5 52.5C257.833 51.5 258.5 50.833 259.5 50.5C262.834 48.166 266.501 46.333 270.5 45C276.891 44.68 283.224 45.18 289.5 46.5C289.5 45.5 289.5 44.5 289.5 43.5C289.027 42.094 288.027 41.427 286.5 41.5C285.319 39.933 283.653 39.099 281.5 39C276.5 38.333 271.5 38.333 266.5 39C265.944 39.383 265.611 39.883 265.5 40.5C253.488 44.848 245.488 53.181 241.5 65.5C232.184 66.332 222.851 66.832 213.5 67C209.962 67.535 206.628 68.368 203.5 69.5C203.167 69.5 202.833 69.5 202.5 69.5C196.709 69.987 191.376 71.654 186.5 74.5C179.802 76.799 173.468 80.132 167.5 84.5C163.046 87.78 158.713 91.28 154.5 95C152.371 97.439 150.371 99.939 148.5 102.5C146.463 103.846 144.463 105.18 142.5 106.5C138.219 107.136 134.219 108.636 130.5 111C125.632 114.703 120.632 118.203 115.5 121.5C112.127 125.371 108.627 129.038 105 132.5C104.209 133.745 103.709 135.078 103.5 136.5C101.955 137.23 101.122 138.563 101 140.5C100.333 148.5 100.333 156.5 101 164.5C102.848 166.018 104.348 167.851 105.5 170C107.473 170.495 109.473 170.662 111.5 170.5C111.5 179.833 111.5 189.167 111.5 198.5C104.301 197.264 99.301 199.93 96.5 206.5C95.263 207.965 94.263 209.632 93.5 211.5C92.034 212.347 91.2 213.68 91 215.5C90.333 220.833 90.333 226.167 91 231.5C91.156 234.191 91.989 236.524 93.5 238.5C93.025 241.313 94.025 243.313 96.5 244.5C99.677 251.683 104.677 257.35 111.5 261.5C112.626 276.633 114.626 291.633 117.5 306.5C119.124 313.071 121.79 319.071 125.5 324.5C129.857 332.55 135.191 339.884 141.5 346.5C145.164 350.332 148.664 354.332 152 358.5C154.416 361.423 157.25 363.757 160.5 365.5C163.674 368.507 166.674 371.674 169.5 375C166.984 386.355 165.651 397.855 165.5 409.5C164.318 415.301 163.652 421.301 163.5 427.5C163.762 428.978 163.429 430.311 162.5 431.5C161.264 430.754 159.93 430.421 158.5 430.5C155.833 429.833 153.167 429.167 150.5 428.5C149.942 427.21 148.942 426.377 147.5 426C144.454 425.261 141.454 424.428 138.5 423.5C129.746 420.619 121.413 416.953 113.5 412.5C113.027 411.094 112.027 410.427 110.5 410.5C76.575 391.242 49.575 364.908 29.5 331.5C28.6743 328.515 27.341 325.849 25.5 323.5C25.0075 321.181 24.0075 319.181 22.5 317.5C20.9303 314.686 19.5969 311.686 18.5 308.5C17.917 305.053 16.5837 302.053 14.5 299.5C14.7678 297.901 14.4345 296.568 13.5 295.5C12.0744 287.907 10.0744 280.574 7.5 273.5C6.9131 267.963 5.9131 262.63 4.5 257.5C4.5 256.833 4.5 256.167 4.5 255.5C4.6576 252.098 4.3242 248.764 3.5 245.5C2.6784 232.851 2.3451 220.185 2.5 207.5C2.5 205.5 2.5 203.5 2.5 201.5C3.9715 197.081 4.6382 192.414 4.5 187.5C4.5 186.5 4.5 185.5 4.5 184.5C6.217 181.155 6.8836 177.489 6.5 173.5C8.6291 166.668 10.6291 159.668 12.5 152.5C12.366 150.708 12.6993 149.042 13.5 147.5C14.6737 146.486 15.3404 145.153 15.5 143.5C16.5456 139.076 17.879 134.743 19.5 130.5C23.4179 123.665 27.0846 116.665 30.5 109.5C32.008 107.819 33.008 105.819 33.5 103.5C39.188 96.47 44.522 89.137 49.5 81.5C58.527 71.806 67.86 62.473 77.5 53.5C81.758 51.207 85.424 48.207 88.5 44.5C89.262 42.738 90.596 41.738 92.5 41.5C96.976 40.343 100.642 38.01 103.5 34.5C107.089 33.034 110.422 31.034 113.5 28.5C115.38 28.771 116.713 28.104 117.5 26.5C118.167 26.167 118.833 25.833 119.5 25.5C122.545 24.721 125.211 23.387 127.5 21.5C131.682 19.581 136.015 17.914 140.5 16.5C146.77 14.515 153.103 12.682 159.5 11C160.056 10.617 160.389 10.117 160.5 9.50001C162.167 9.50001 163.833 9.50001 165.5 9.50001C169.084 9.02501 172.417 8.02501 175.5 6.50001C175.833 6.50001 176.167 6.50001 176.5 6.50001C177.833 6.50001 179.167 6.50001 180.5 6.50001C183.152 6.59001 185.485 5.92401 187.5 4.50001C193.051 4.47301 198.384 3.80601 203.5 2.50001Z" fill="#0B0B0B"/>
<path fill-rule="evenodd" clip-rule="evenodd" d="M183.5 4.49998C182.5 5.16698 181.5 5.83298 180.5 6.49998C179.167 6.49998 177.833 6.49998 176.5 6.49998C178.515 5.07598 180.848 4.40998 183.5 4.49998Z" fill="#A2A2A2"/>
<path fill-rule="evenodd" clip-rule="evenodd" d="M183.5 4.5C184.833 4.5 186.167 4.5 187.5 4.5C185.485 5.924 183.152 6.59 180.5 6.5C181.5 5.833 182.5 5.167 183.5 4.5Z" fill="#535353"/>
<path fill-rule="evenodd" clip-rule="evenodd" d="M175.5 6.50002C172.417 8.02502 169.084 9.02502 165.5 9.50002C168.381 7.32002 171.714 6.32002 175.5 6.50002Z" fill="#696969"/>
<path fill-rule="evenodd" clip-rule="evenodd" d="M269.5 5.49998C272.187 5.33598 274.854 5.50298 277.5 5.99998C279.32 6.19998 280.653 7.03398 281.5 8.49998C277.153 8.40298 273.153 7.40298 269.5 5.49998Z" fill="#BEBEBE"/>
<path fill-rule="evenodd" clip-rule="evenodd" d="M160.5 9.5C160.389 10.117 160.056 10.617 159.5 11C153.103 12.682 146.77 14.515 140.5 16.5C146.575 13.027 153.242 10.694 160.5 9.5Z" fill="#929292"/>
<path fill-rule="evenodd" clip-rule="evenodd" d="M295.5 12.5C301.709 13.261 307.376 15.261 312.5 18.5C306.714 16.747 301.047 14.747 295.5 12.5Z" fill="#A9A9A9"/>
<path fill-rule="evenodd" clip-rule="evenodd" d="M127.5 21.5C125.211 23.387 122.545 24.721 119.5 25.5C121.612 23.229 124.279 21.896 127.5 21.5Z" fill="#959595"/>
<path fill-rule="evenodd" clip-rule="evenodd" d="M117.5 26.5C116.713 28.104 115.38 28.771 113.5 28.5C114.514 27.326 115.847 26.66 117.5 26.5Z" fill="#7F7F7F"/>
<path fill-rule="evenodd" clip-rule="evenodd" d="M286.5 41.5C279.58 39.378 272.58 39.044 265.5 40.5C265.611 39.883 265.944 39.383 266.5 39C271.5 38.333 276.5 38.333 281.5 39C283.653 39.099 285.319 39.933 286.5 41.5Z" fill="#929292"/>
<path fill-rule="evenodd" clip-rule="evenodd" d="M103.5 34.5C100.642 38.01 96.976 40.343 92.5 41.5C92.953 40.542 93.619 39.708 94.5 39C97.522 37.489 100.522 35.989 103.5 34.5Z" fill="#717171"/>
<path fill-rule="evenodd" clip-rule="evenodd" d="M289.5 43.5C289.5 44.5 289.5 45.5 289.5 46.5C283.224 45.18 276.891 44.68 270.5 45C266.501 46.333 262.834 48.166 259.5 50.5C261.724 47.376 264.724 45.209 268.5 44C274.983 43.021 281.316 43.521 287.5 45.5C288.182 44.757 288.849 44.091 289.5 43.5Z" fill="#999999"/>
<path fill-rule="evenodd" clip-rule="evenodd" d="M88.5 44.5C85.424 48.207 81.758 51.207 77.5 53.5C80.536 49.804 84.203 46.804 88.5 44.5Z" fill="#626262"/>
<path fill-rule="evenodd" clip-rule="evenodd" d="M286.5 41.5C288.027 41.427 289.027 42.094 289.5 43.5C288.849 44.091 288.182 44.757 287.5 45.5C281.316 43.521 274.983 43.021 268.5 44C264.724 45.209 261.724 47.376 259.5 50.5C258.5 50.833 257.833 51.5 257.5 52.5C256.761 52.369 256.094 52.536 255.5 53C253.267 55.996 250.934 58.829 248.5 61.5C248.44 60.957 248.107 60.624 247.5 60.5C246.614 61.325 246.281 62.325 246.5 63.5C243.53 63.746 242.197 65.412 242.5 68.5C229.485 68.397 216.485 68.73 203.5 69.5C206.628 68.368 209.962 67.535 213.5 67C222.851 66.832 232.184 66.332 241.5 65.5C245.488 53.181 253.488 44.848 265.5 40.5C272.58 39.044 279.58 39.378 286.5 41.5Z" fill="#D8D8D8"/>
<path fill-rule="evenodd" clip-rule="evenodd" d="M257.5 52.5C254.241 56.696 251.241 61.03 248.5 65.5C248.5 64.167 248.5 62.833 248.5 61.5C250.934 58.829 253.267 55.996 255.5 53C256.094 52.536 256.761 52.369 257.5 52.5Z" fill="#959595"/>
<path fill-rule="evenodd" clip-rule="evenodd" d="M289.5 64.5C291.5 64.833 293.5 65.167 295.5 65.5C299.606 69.254 304.273 72.254 309.5 74.5C307.774 80.057 305.107 80.724 301.5 76.5C301.489 74.983 300.823 73.816 299.5 73C293.206 71.01 286.872 69.177 280.5 67.5C279.075 67.623 277.742 67.957 276.5 68.5C273.085 68.261 269.919 68.928 267 70.5C266.167 70.167 265.333 69.833 264.5 69.5C264.667 69.167 264.833 68.833 265 68.5C266 68.5 267 68.5 268 68.5C268.374 67.584 268.874 66.75 269.5 66C273.122 64.894 276.789 64.561 280.5 65C279.304 65.654 279.304 66.154 280.5 66.5C283.212 64.74 286.212 64.073 289.5 64.5Z" fill="#E2E2E2"/>
<path fill-rule="evenodd" clip-rule="evenodd" d="M295.5 65.5C297.593 66.045 299.593 66.878 301.5 68C304.491 69.965 307.157 72.132 309.5 74.5C304.273 72.254 299.606 69.254 295.5 65.5Z" fill="#808080"/>
<path fill-rule="evenodd" clip-rule="evenodd" d="M248.5 61.5C248.5 62.833 248.5 64.167 248.5 65.5C247.438 66.575 247.438 67.575 248.5 68.5C252.224 69.376 255.89 70.376 259.5 71.5C261.049 73.405 262.882 73.739 265 72.5C265.318 74.061 266.151 75.228 267.5 76C271.943 76.872 276.276 78.038 280.5 79.5C289.2 82.674 296.2 88.008 301.5 95.5C303.385 99.959 305.552 104.293 308 108.5C309.918 109.542 311.751 110.708 313.5 112C308.563 110.91 303.563 109.743 298.5 108.5C296.485 107.076 294.152 106.41 291.5 106.5C281.098 103.874 270.431 101.874 259.5 100.5C258.391 99.71 257.058 99.21 255.5 99C250.177 98.501 244.844 98.334 239.5 98.5C238.833 98.5 238.167 98.5 237.5 98.5C231.704 97.319 225.704 96.652 219.5 96.5C208.62 96.842 197.953 97.842 187.5 99.5C185.833 100.167 184.167 100.833 182.5 101.5C178.881 102.244 175.215 102.577 171.5 102.5C165.089 103.513 158.755 104.846 152.5 106.5C149.488 106.821 148.155 105.488 148.5 102.5C150.371 99.939 152.371 97.439 154.5 95C158.713 91.28 163.046 87.78 167.5 84.5C173.468 80.132 179.802 76.799 186.5 74.5C192.087 73.358 197.42 71.691 202.5 69.5C202.833 69.5 203.167 69.5 203.5 69.5C216.485 68.73 229.485 68.397 242.5 68.5C242.197 65.412 243.53 63.746 246.5 63.5C246.281 62.325 246.614 61.325 247.5 60.5C248.107 60.624 248.44 60.957 248.5 61.5Z" fill="#F9F9F9"/>
<path fill-rule="evenodd" clip-rule="evenodd" d="M77.5 53.5C67.86 62.473 58.527 71.806 49.5 81.5C57.194 70.473 66.527 61.139 77.5 53.5Z" fill="#747474"/>
<path fill-rule="evenodd" clip-rule="evenodd" d="M289.5 64.5C286.212 64.073 283.212 64.74 280.5 66.5C279.304 66.154 279.304 65.654 280.5 65C276.789 64.561 273.122 64.894 269.5 66C268.874 66.75 268.374 67.584 268 68.5C267 68.5 266 68.5 265 68.5C264.833 68.833 264.667 69.167 264.5 69.5C265.333 69.833 266.167 70.167 267 70.5C269.919 68.928 273.085 68.261 276.5 68.5C276.5 68.833 276.5 69.167 276.5 69.5C273.11 69.511 270.444 70.845 268.5 73.5C272.656 75.321 276.656 77.321 280.5 79.5C276.276 78.038 271.943 76.872 267.5 76C266.151 75.228 265.318 74.061 265 72.5C262.882 73.739 261.049 73.405 259.5 71.5C268.2 63.386 278.2 61.053 289.5 64.5Z" fill="#C6C6C6"/>
<path fill-rule="evenodd" clip-rule="evenodd" d="M301.5 76.5C293.883 71.844 285.55 69.511 276.5 69.5C276.5 69.167 276.5 68.833 276.5 68.5C277.742 67.957 279.075 67.623 280.5 67.5C286.872 69.177 293.206 71.01 299.5 73C300.823 73.816 301.489 74.983 301.5 76.5Z" fill="#868686"/>
<path fill-rule="evenodd" clip-rule="evenodd" d="M202.5 69.5C197.42 71.691 192.087 73.358 186.5 74.5C191.376 71.654 196.709 69.987 202.5 69.5Z" fill="#B0B0B0"/>
<path fill-rule="evenodd" clip-rule="evenodd" d="M49.5 81.5C44.522 89.137 39.188 96.47 33.5 103.5C37.375 95.075 42.708 87.741 49.5 81.5Z" fill="#909090"/>
<path fill-rule="evenodd" clip-rule="evenodd" d="M409.5 96.5C412.138 98.418 413.805 101.085 414.5 104.5C412.347 102.206 410.68 99.54 409.5 96.5Z" fill="#969696"/>
<path fill-rule="evenodd" clip-rule="evenodd" d="M237.5 98.5C227.5 98.5 217.5 98.5 207.5 98.5C200.847 99.054 194.18 99.388 187.5 99.5C197.953 97.842 208.62 96.842 219.5 96.5C225.704 96.652 231.704 97.319 237.5 98.5Z" fill="#D4D4D4"/>
<path fill-rule="evenodd" clip-rule="evenodd" d="M207.5 99.5C207.5 99.167 207.5 98.833 207.5 98.5C217.5 98.5 227.5 98.5 237.5 98.5C238.167 98.5 238.833 98.5 239.5 98.5C243.5 99.167 247.5 99.833 251.5 100.5C236.841 99.881 222.175 99.548 207.5 99.5Z" fill="#434343"/>
<path fill-rule="evenodd" clip-rule="evenodd" d="M239.5 98.5C244.844 98.334 250.177 98.501 255.5 99C257.058 99.21 258.391 99.71 259.5 100.5C256.833 100.5 254.167 100.5 251.5 100.5C247.5 99.833 243.5 99.167 239.5 98.5Z" fill="#B7B7B7"/>
<path fill-rule="evenodd" clip-rule="evenodd" d="M207.5 98.5C207.5 98.833 207.5 99.167 207.5 99.5C199.167 100.167 190.833 100.833 182.5 101.5C184.167 100.833 185.833 100.167 187.5 99.5C194.18 99.388 200.847 99.054 207.5 98.5Z" fill="#8C8C8C"/>
<path fill-rule="evenodd" clip-rule="evenodd" d="M207.5 99.5C222.175 99.548 236.841 99.881 251.5 100.5C254.167 100.5 256.833 100.5 259.5 100.5C270.431 101.874 281.098 103.874 291.5 106.5C293.515 107.924 295.848 108.59 298.5 108.5C306.969 111.066 314.969 114.733 322.5 119.5C325.126 121.823 327.793 124.157 330.5 126.5C335.865 129.533 339.865 133.866 342.5 139.5C343.371 147.8 343.705 156.133 343.5 164.5C340.57 165.299 337.57 165.632 334.5 165.5C334.5 164.833 334.167 164.5 333.5 164.5C336.045 163.549 336.045 162.549 333.5 161.5C332.522 161.977 331.689 162.643 331 163.5C330.5 196.498 330.333 229.498 330.5 262.5C330.398 272.211 329.731 281.877 328.5 291.5C326.408 306.68 320.741 320.347 311.5 332.5C310.844 331.722 310.011 331.056 309 330.5C306.659 333.147 304.492 335.98 302.5 339C300.741 339.798 299.074 339.631 297.5 338.5C299.049 334.845 301.715 332.679 305.5 332C304.692 331.692 304.025 331.192 303.5 330.5C304.5 329.667 305.5 328.833 306.5 328C305.429 327.148 304.429 326.315 303.5 325.5C305.528 321.816 307.528 318.15 309.5 314.5C310.892 312.727 312.059 310.727 313 308.5C314.568 301.493 316.068 294.493 317.5 287.5C318.495 279.196 319.161 270.863 319.5 262.5C320.485 258.366 320.818 254.032 320.5 249.5C319.167 249.5 317.833 249.5 316.5 249.5C312.827 251 309.494 253 306.5 255.5C305.833 255.5 305.167 255.5 304.5 255.5C304.265 254.903 303.765 254.57 303 254.5C297.244 255.826 291.411 256.659 285.5 257C287.833 257.333 290.167 257.667 292.5 258C291.892 258.87 291.059 259.37 290 259.5C277.096 257.486 264.263 255.152 251.5 252.5C251.281 251.325 251.614 250.325 252.5 249.5C255.474 251.566 258.474 251.732 261.5 250C262.337 248.989 262.67 247.822 262.5 246.5C263.552 246.649 264.552 246.483 265.5 246C261.494 246.35 258.494 244.85 256.5 241.5C257.325 240.614 258.325 240.281 259.5 240.5C268.393 242.214 277.393 242.881 286.5 242.5C294.12 242.213 300.787 239.546 306.5 234.5C307.429 233.311 307.762 231.978 307.5 230.5C310.607 228.848 312.273 226.181 312.5 222.5C313.794 220.952 314.461 218.952 314.5 216.5C314.495 214.304 314.162 212.304 313.5 210.5C312.079 206.961 309.745 204.294 306.5 202.5C305.942 201.21 304.942 200.377 303.5 200C294.657 199.176 285.99 199.343 277.5 200.5C272.637 200.181 267.97 200.514 263.5 201.5C260.098 201.342 256.764 201.676 253.5 202.5C250.813 202.336 248.146 202.503 245.5 203C244.748 203.671 244.414 204.504 244.5 205.5C243.778 205.918 243.278 206.584 243 207.5C242.501 211.821 242.334 216.154 242.5 220.5C243.629 230.289 242.795 230.622 240 221.5C239.71 223.044 239.044 224.377 238 225.5C238.572 221.805 237.572 218.472 235 215.5C232.904 216.715 233.071 217.549 235.5 218C232.945 219.747 230.945 219.081 229.5 216C226.27 214.163 223.27 214.329 220.5 216.5C219.914 216.291 219.414 215.957 219 215.5C216.753 217.489 215.253 219.489 214.5 221.5C213.182 219.448 211.515 217.115 209.5 214.5C210.167 212.833 210.833 211.167 211.5 209.5C209.507 207.984 207.507 205.818 205.5 203C206.833 202.333 206.833 201.667 205.5 201C200.068 199.301 194.568 197.801 189 196.5C187.441 197.029 185.941 197.696 184.5 198.5C176.791 196.553 169.125 196.553 161.5 198.5C157.187 196.877 153.187 197.211 149.5 199.5C145.573 200.804 141.906 202.47 138.5 204.5C137.508 204.328 136.842 204.662 136.5 205.5C135.417 205.539 134.417 205.873 133.5 206.5C132.507 211.12 132.173 215.786 132.5 220.5C130.883 219.411 130.05 217.744 130 215.5C129.316 212.62 129.483 209.787 130.5 207C129.99 205.174 129.156 205.007 128 206.5C125.515 203.993 126.015 202.493 129.5 202C128.552 201.517 127.552 201.351 126.5 201.5C126.782 197.704 126.782 194.037 126.5 190.5C125.8 194.041 125.133 197.541 124.5 201C125.476 203.147 125.309 205.314 124 207.5C123.333 204.833 122.667 204.833 122 207.5C121.463 215.385 120.963 223.051 120.5 230.5C121.601 236.012 122.934 241.512 124.5 247C123.692 247.308 123.025 247.808 122.5 248.5C123.167 258.5 123.833 268.5 124.5 278.5C124.291 279.086 123.957 279.586 123.5 280C124.374 283.366 125.374 286.7 126.5 290C125.685 295.26 126.685 300.26 129.5 305C129.167 305.333 128.833 305.667 128.5 306C129.46 307.419 130.293 308.919 131 310.5C131.92 310.93 132.753 311.264 133.5 311.5C132.675 312.386 131.675 312.719 130.5 312.5C131.587 316.507 133.587 320.007 136.5 323C135.934 323.995 135.267 324.828 134.5 325.5C131.917 322.003 129.584 318.336 127.5 314.5C123.008 301.23 120.508 287.563 120 273.5C118.948 237.013 118.115 200.679 117.5 164.5C114.5 164.5 111.5 164.5 108.5 164.5C108.013 163.527 107.513 162.527 107 161.5C106.5 154.842 106.334 148.175 106.5 141.5C109.038 139.46 110.871 136.794 112 133.5C116.751 129.235 121.584 125.235 126.5 121.5C131.037 119.07 135.37 116.403 139.5 113.5C142.689 111.74 146.022 110.24 149.5 109C157.019 107.125 164.352 104.958 171.5 102.5C175.215 102.577 178.881 102.244 182.5 101.5C190.833 100.833 199.167 100.167 207.5 99.5Z" fill="#0B0B0B"/>
<path fill-rule="evenodd" clip-rule="evenodd" d="M33.4999 103.5C33.0079 105.819 32.0079 107.819 30.4999 109.5C30.0245 106.687 31.0245 104.687 33.4999 103.5Z" fill="#A5A5A5"/>
<path fill-rule="evenodd" clip-rule="evenodd" d="M291.5 106.5C294.152 106.41 296.485 107.076 298.5 108.5C295.848 108.59 293.515 107.924 291.5 106.5Z" fill="#969696"/>
<path fill-rule="evenodd" clip-rule="evenodd" d="M308.5 104.5C311.004 105.584 313.337 106.917 315.5 108.5C312.386 108.445 310.052 107.112 308.5 104.5Z" fill="#727272"/>
<path fill-rule="evenodd" clip-rule="evenodd" d="M315.5 108.5C318.089 108.461 320.089 109.461 321.5 111.5C319.03 111.346 317.03 110.346 315.5 108.5Z" fill="#656565"/>
<path fill-rule="evenodd" clip-rule="evenodd" d="M148.5 102.5C148.155 105.488 149.488 106.821 152.5 106.5C158.755 104.846 165.089 103.513 171.5 102.5C164.352 104.958 157.019 107.125 149.5 109C146.022 110.24 142.689 111.74 139.5 113.5C138.833 113.5 138.167 113.5 137.5 113.5C141.136 111.346 144.802 109.179 148.5 107C147.975 106.308 147.308 105.808 146.5 105.5C145.264 106.246 143.93 106.579 142.5 106.5C144.463 105.18 146.463 103.846 148.5 102.5Z" fill="#ACACAC"/>
<path fill-rule="evenodd" clip-rule="evenodd" d="M30.5 109.5C27.0846 116.665 23.4179 123.665 19.5 130.5C21.9138 123.664 24.9138 116.998 28.5 110.5C28.9569 109.702 29.6236 109.369 30.5 109.5Z" fill="#AAAAAA"/>
<path fill-rule="evenodd" clip-rule="evenodd" d="M301.5 95.5C304.547 97.918 306.88 100.918 308.5 104.5C310.052 107.112 312.386 108.445 315.5 108.5C317.03 110.346 319.03 111.346 321.5 111.5C324.009 112.921 326.343 114.588 328.5 116.5C331.871 119.871 335.537 122.871 339.5 125.5C342.898 128.627 345.565 132.293 347.5 136.5C346.07 136.579 344.736 136.246 343.5 135.5C342.708 136.7 342.708 138.033 343.5 139.5C343.167 139.5 342.833 139.5 342.5 139.5C339.865 133.866 335.865 129.533 330.5 126.5C329.08 122.783 326.413 120.45 322.5 119.5C314.969 114.733 306.969 111.066 298.5 108.5C303.563 109.743 308.563 110.91 313.5 112C311.751 110.708 309.918 109.542 308 108.5C305.552 104.293 303.385 99.959 301.5 95.5Z" fill="#D9D9D9"/>
<path fill-rule="evenodd" clip-rule="evenodd" d="M137.5 113.5C138.167 113.5 138.833 113.5 139.5 113.5C135.37 116.403 131.037 119.07 126.5 121.5C129.54 118.149 133.207 115.482 137.5 113.5Z" fill="#797979"/>
<path fill-rule="evenodd" clip-rule="evenodd" d="M328.5 116.5C333.043 118.372 336.71 121.372 339.5 125.5C335.537 122.871 331.871 119.871 328.5 116.5Z" fill="#686868"/>
<path fill-rule="evenodd" clip-rule="evenodd" d="M322.5 119.5C326.413 120.45 329.08 122.783 330.5 126.5C327.793 124.157 325.126 121.823 322.5 119.5Z" fill="#7B7B7B"/>
<path fill-rule="evenodd" clip-rule="evenodd" d="M425.5 124.5C427.008 126.181 428.008 128.181 428.5 130.5C426.386 129.216 425.386 127.216 425.5 124.5Z" fill="#6B6B6B"/>
<path fill-rule="evenodd" clip-rule="evenodd" d="M137.5 113.5C133.207 115.482 129.54 118.149 126.5 121.5C121.584 125.235 116.751 129.235 112 133.5C110.871 136.794 109.038 139.46 106.5 141.5C105.672 147.987 105.172 154.654 105 161.5C104.667 162.833 104.333 164.167 104 165.5C103.581 164.328 102.915 163.328 102 162.5C101.333 156.5 101.333 150.5 102 144.5C102.863 141.898 103.363 139.231 103.5 136.5C103.709 135.078 104.209 133.745 105 132.5C108.627 129.038 112.127 125.371 115.5 121.5C120.632 118.203 125.632 114.703 130.5 111C134.219 108.636 138.219 107.136 142.5 106.5C143.93 106.579 145.264 106.246 146.5 105.5C147.308 105.808 147.975 106.308 148.5 107C144.802 109.179 141.136 111.346 137.5 113.5Z" fill="#DFDFDF"/>
<path fill-rule="evenodd" clip-rule="evenodd" d="M15.5001 143.5C15.3405 145.153 14.6738 146.486 13.5001 147.5C13.1569 145.517 13.8236 144.183 15.5001 143.5Z" fill="#808080"/>
<path fill-rule="evenodd" clip-rule="evenodd" d="M344.5 143.5C345.492 150.648 345.825 157.981 345.5 165.5C341.684 166.62 338.017 166.62 334.5 165.5C337.57 165.632 340.57 165.299 343.5 164.5C344.491 157.687 344.825 150.687 344.5 143.5Z" fill="#B8B8B8"/>
<path fill-rule="evenodd" clip-rule="evenodd" d="M347.5 136.5C348.79 137.058 349.623 138.058 350 139.5C350.667 148.167 350.667 156.833 350 165.5C348.179 170.999 344.345 173.332 338.5 172.5C342.193 172.068 345.36 170.401 348 167.5C348.979 162.889 349.479 158.223 349.5 153.5C348.873 147.5 348.206 141.833 347.5 136.5Z" fill="#9E9E9E"/>
<path fill-rule="evenodd" clip-rule="evenodd" d="M342.5 139.5C342.833 139.5 343.167 139.5 343.5 139.5C343.833 140.833 344.167 142.167 344.5 143.5C344.825 150.687 344.491 157.687 343.5 164.5C343.705 156.133 343.371 147.8 342.5 139.5Z" fill="#404040"/>
<path fill-rule="evenodd" clip-rule="evenodd" d="M12.5 152.5C10.6291 159.668 8.6291 166.668 6.5 173.5C7.0083 168.784 7.8416 164.118 9 159.5C9.5218 156.719 10.6885 154.385 12.5 152.5Z" fill="#808080"/>
<path fill-rule="evenodd" clip-rule="evenodd" d="M267.5 157.5C233.472 157.111 199.472 157.778 165.5 159.5C172.659 158.454 179.993 157.621 187.5 157C214.336 156.17 241.003 156.336 267.5 157.5Z" fill="#9D9D9D"/>
<path fill-rule="evenodd" clip-rule="evenodd" d="M283.5 159.5C292.267 159.345 300.934 160.178 309.5 162C308.756 163.039 307.756 163.539 306.5 163.5C303.111 164.088 300.111 165.421 297.5 167.5C292.923 167.925 288.59 168.925 284.5 170.5C277.539 171.995 270.539 173.495 263.5 175C261.934 175.608 260.6 176.442 259.5 177.5C253.884 177.656 248.551 178.656 243.5 180.5C240.167 180.5 236.833 180.5 233.5 180.5C219.792 180.589 206.126 179.922 192.5 178.5C192.167 178.5 191.833 178.5 191.5 178.5C187.742 176.476 183.742 174.976 179.5 174C177.19 173.503 174.857 173.337 172.5 173.5C171.833 173.5 171.167 173.5 170.5 173.5C164.209 170.401 157.543 168.068 150.5 166.5C149.209 166.737 148.209 166.404 147.5 165.5C145.958 164.859 144.624 163.859 143.5 162.5C150.364 160.716 157.364 160.049 164.5 160.5C204.149 158.329 243.816 157.996 283.5 159.5Z" fill="#FBFBFB"/>
<path fill-rule="evenodd" clip-rule="evenodd" d="M267.5 157.5C273.098 157.156 278.432 157.822 283.5 159.5C243.816 157.996 204.149 158.329 164.5 160.5C164.5 160.167 164.5 159.833 164.5 159.5C164.833 159.5 165.167 159.5 165.5 159.5C199.472 157.778 233.472 157.111 267.5 157.5Z" fill="#DBDBDB"/>
<path fill-rule="evenodd" clip-rule="evenodd" d="M164.5 159.5C164.5 159.833 164.5 160.167 164.5 160.5C157.364 160.049 150.364 160.716 143.5 162.5C144.624 163.859 145.958 164.859 147.5 165.5C143.215 165.462 139.548 163.962 136.5 161C145.804 159.933 155.138 159.433 164.5 159.5Z" fill="#9D9D9D"/>
<path fill-rule="evenodd" clip-rule="evenodd" d="M108.5 164.5C111.5 164.5 114.5 164.5 117.5 164.5C117.5 191.167 117.5 217.833 117.5 244.5C116.669 230.339 116.169 216.006 116 201.5C115.667 200.5 115.333 199.5 115 198.5C114.292 199.381 113.458 200.047 112.5 200.5C112.5 190.167 112.5 179.833 112.5 169.5C111.167 169.5 109.833 169.5 108.5 169.5C108.52 167.857 107.853 166.524 106.5 165.5C106.957 164.702 107.624 164.369 108.5 164.5Z" fill="#E5E5E5"/>
<path fill-rule="evenodd" clip-rule="evenodd" d="M306.5 163.5C305.263 165.097 303.596 166.263 301.5 167C300.207 167.49 298.873 167.657 297.5 167.5C300.111 165.421 303.111 164.088 306.5 163.5Z" fill="#797979"/>
<path fill-rule="evenodd" clip-rule="evenodd" d="M150.5 166.5C157.543 168.068 164.209 170.401 170.5 173.5C163.296 172.323 156.629 169.989 150.5 166.5Z" fill="#7D7D7D"/>
<path fill-rule="evenodd" clip-rule="evenodd" d="M297.5 167.5C293.607 169.876 289.273 170.876 284.5 170.5C288.59 168.925 292.923 167.925 297.5 167.5Z" fill="#8B8B8B"/>
<path fill-rule="evenodd" clip-rule="evenodd" d="M440.5 167.5C442.28 168.99 442.946 170.99 442.5 173.5C440.926 171.898 440.259 169.898 440.5 167.5Z" fill="#858585"/>
<path fill-rule="evenodd" clip-rule="evenodd" d="M172.5 173.5C174.857 173.337 177.19 173.503 179.5 174C183.742 174.976 187.742 176.476 191.5 178.5C184.742 177.778 178.408 176.112 172.5 173.5Z" fill="#9A9A9A"/>
<path fill-rule="evenodd" clip-rule="evenodd" d="M284.5 170.5C283.4 171.558 282.066 172.392 280.5 173C273.283 173.906 266.283 175.406 259.5 177.5C260.6 176.442 261.934 175.608 263.5 175C270.539 173.495 277.539 171.995 284.5 170.5Z" fill="#A7A7A7"/>
<path fill-rule="evenodd" clip-rule="evenodd" d="M142.5 177.5C146.708 177.677 150.374 179.01 153.5 181.5C149.463 180.935 145.797 179.601 142.5 177.5Z" fill="#595959"/>
<path fill-rule="evenodd" clip-rule="evenodd" d="M139.5 176.5C138.504 176.414 137.671 176.748 137 177.5C136.502 180.817 136.335 184.15 136.5 187.5C135.518 184.038 135.185 180.371 135.5 176.5C136.833 175.167 138.167 175.167 139.5 176.5Z" fill="#A5A5A5"/>
<path fill-rule="evenodd" clip-rule="evenodd" d="M139.5 176.5C140.609 176.557 141.609 176.89 142.5 177.5C145.797 179.601 149.463 180.935 153.5 181.5C154.919 182.451 156.585 182.784 158.5 182.5C157.77 184.045 156.437 184.878 154.5 185C148.442 185.51 142.442 186.343 136.5 187.5C136.335 184.15 136.502 180.817 137 177.5C137.671 176.748 138.504 176.414 139.5 176.5Z" fill="#E5E5E5"/>
<path fill-rule="evenodd" clip-rule="evenodd" d="M259.5 177.5C254.43 179.23 249.097 180.23 243.5 180.5C248.551 178.656 253.884 177.656 259.5 177.5Z" fill="#525252"/>
<path fill-rule="evenodd" clip-rule="evenodd" d="M6.5 173.5C6.8836 177.489 6.217 181.155 4.5 184.5C4.8084 180.64 5.4751 176.974 6.5 173.5Z" fill="#4F4F4F"/>
<path fill-rule="evenodd" clip-rule="evenodd" d="M192.5 178.5C206.126 179.922 219.792 180.589 233.5 180.5C233.082 181.222 232.416 181.722 231.5 182C218.239 182.32 205.239 181.153 192.5 178.5Z" fill="#C4C4C4"/>
<path fill-rule="evenodd" clip-rule="evenodd" d="M442.5 175.5C444.101 178.55 445.101 181.884 445.5 185.5C443.59 182.548 442.59 179.214 442.5 175.5Z" fill="#A7A7A7"/>
<path fill-rule="evenodd" clip-rule="evenodd" d="M135.5 176.5C135.185 180.371 135.518 184.038 136.5 187.5C142.442 186.343 148.442 185.51 154.5 185C156.437 184.878 157.77 184.045 158.5 182.5C159.828 183.91 159.495 185.076 157.5 186C149.86 187.162 142.194 187.995 134.5 188.5C134.183 184.298 134.517 180.298 135.5 176.5Z" fill="#393939"/>
<path fill-rule="evenodd" clip-rule="evenodd" d="M132.5 220.5C132.833 220.5 133.167 220.5 133.5 220.5C133.707 223.241 134.707 225.574 136.5 227.5C137.079 230.331 138.412 232.664 140.5 234.5C142.296 236.9 144.63 238.567 147.5 239.5C149.848 241.097 152.514 242.097 155.5 242.5C155.611 243.117 155.944 243.617 156.5 244C169.393 245.986 181.393 243.819 192.5 237.5C202.428 230.625 206.761 220.959 205.5 208.5C205.822 206.278 205.155 204.444 203.5 203C200.312 201.684 196.978 201.184 193.5 201.5C192.167 201.5 190.833 201.5 189.5 201.5C187.287 199.688 184.953 199.355 182.5 200.5C171.507 199.992 160.507 199.658 149.5 199.5C153.187 197.211 157.187 196.877 161.5 198.5C169.125 196.553 176.791 196.553 184.5 198.5C185.941 197.696 187.441 197.029 189 196.5C194.568 197.801 200.068 199.301 205.5 201C206.833 201.667 206.833 202.333 205.5 203C207.507 205.818 209.507 207.984 211.5 209.5C210.833 211.167 210.167 212.833 209.5 214.5C211.515 217.115 213.182 219.448 214.5 221.5C215.253 219.489 216.753 217.489 219 215.5C219.414 215.957 219.914 216.291 220.5 216.5C223.27 214.329 226.27 214.163 229.5 216C230.945 219.081 232.945 219.747 235.5 218C233.071 217.549 232.904 216.715 235 215.5C237.572 218.472 238.572 221.805 238 225.5C239.044 224.377 239.71 223.044 240 221.5C242.795 230.622 243.629 230.289 242.5 220.5C243.888 223.808 245.388 227.141 247 230.5C248.535 233.294 250.702 235.294 253.5 236.5C255.364 238.014 257.364 239.347 259.5 240.5C258.325 240.281 257.325 240.614 256.5 241.5C258.494 244.85 261.494 246.35 265.5 246C264.552 246.483 263.552 246.649 262.5 246.5C262.67 247.822 262.337 248.989 261.5 250C258.474 251.732 255.474 251.566 252.5 249.5C251.614 250.325 251.281 251.325 251.5 252.5C264.263 255.152 277.096 257.486 290 259.5C291.059 259.37 291.892 258.87 292.5 258C290.167 257.667 287.833 257.333 285.5 257C291.411 256.659 297.244 255.826 303 254.5C303.765 254.57 304.265 254.903 304.5 255.5C300.952 257.899 296.952 259.399 292.5 260C286.843 260.499 281.176 260.666 275.5 260.5C271.684 259.518 267.684 258.851 263.5 258.5C256.91 257.686 250.91 255.352 245.5 251.5C244.943 253.718 244.943 256.051 245.5 258.5C246.522 266.761 248.189 274.761 250.5 282.5C251.598 283.601 251.765 284.934 251 286.5C249.75 288.193 248.25 289.527 246.5 290.5C242.41 291.895 238.41 293.228 234.5 294.5C221.252 296.68 209.085 294.013 198 286.5C196.716 282.051 198.216 279.385 202.5 278.5C204.919 280.862 207.919 281.862 211.5 281.5C214.546 282.062 217.546 282.729 220.5 283.5C223.976 284.643 227.642 284.81 231.5 284C235.815 282.728 240.148 281.561 244.5 280.5C245.631 278.926 245.798 277.259 245 275.5C243.897 272.02 242.731 268.687 241.5 265.5C241.435 262.572 240.768 259.905 239.5 257.5C239.59 254.848 238.924 252.515 237.5 250.5C237.5 250.167 237.5 249.833 237.5 249.5C236.739 245.216 235.405 241.216 233.5 237.5C232.976 235.694 232.309 234.028 231.5 232.5C230.868 228.298 229.868 224.298 228.5 220.5C225.767 217.259 222.434 216.759 218.5 219C217.748 219.671 217.414 220.504 217.5 221.5C215.903 223.848 214.903 226.514 214.5 229.5C212.302 236.259 209.802 242.925 207 249.5C202.686 253.361 197.852 256.028 192.5 257.5C189.848 257.41 187.515 258.076 185.5 259.5C166.892 263.774 149.225 261.441 132.5 252.5C132.189 251.522 131.522 250.855 130.5 250.5C129.178 259.658 129.178 268.658 130.5 277.5C130.278 284.591 131.611 291.257 134.5 297.5C135.517 303.219 137.517 308.552 140.5 313.5C142.651 315.772 144.151 318.439 145 321.5C146.039 322.71 147.206 323.71 148.5 324.5C150.161 329.151 152.828 333.151 156.5 336.5C157.124 338.754 158.457 340.421 160.5 341.5C164.194 347.194 168.861 351.861 174.5 355.5C175.455 358.455 177.455 360.455 180.5 361.5C182.094 362.983 183.76 364.483 185.5 366C189.184 367.842 192.85 369.675 196.5 371.5C200.376 374.129 204.71 375.796 209.5 376.5C216.796 378.276 224.129 378.609 231.5 377.5C235.534 377.328 239.534 376.828 243.5 376C246.983 375.235 249.983 373.735 252.5 371.5C256.014 370.216 259.347 368.55 262.5 366.5C269.95 361.772 276.617 356.105 282.5 349.5C286.971 345.215 290.971 340.548 294.5 335.5C297.968 332.544 300.968 329.211 303.5 325.5C304.429 326.315 305.429 327.148 306.5 328C305.5 328.833 304.5 329.667 303.5 330.5C304.025 331.192 304.692 331.692 305.5 332C301.715 332.679 299.049 334.845 297.5 338.5C299.074 339.631 300.741 339.798 302.5 339C304.492 335.98 306.659 333.147 309 330.5C310.011 331.056 310.844 331.722 311.5 332.5C306.977 338.869 301.977 344.869 296.5 350.5C289.251 357.482 281.917 364.482 274.5 371.5C272.566 372.11 270.899 373.11 269.5 374.5C265.946 375.769 262.946 377.769 260.5 380.5C258.326 380.75 256.659 381.75 255.5 383.5C251.617 384.459 247.95 385.792 244.5 387.5C234.908 389.089 225.242 389.755 215.5 389.5C205.476 387.828 196.142 384.328 187.5 379C177.761 372.76 168.761 365.594 160.5 357.5C154.174 349.842 147.508 342.508 140.5 335.5C138.102 332.429 136.102 329.095 134.5 325.5C135.267 324.828 135.934 323.995 136.5 323C133.587 320.007 131.587 316.507 130.5 312.5C131.675 312.719 132.675 312.386 133.5 311.5C132.753 311.264 131.92 310.93 131 310.5C130.293 308.919 129.46 307.419 128.5 306C128.833 305.667 129.167 305.333 129.5 305C126.685 300.26 125.685 295.26 126.5 290C125.374 286.7 124.374 283.366 123.5 280C123.957 279.586 124.291 279.086 124.5 278.5C123.833 268.5 123.167 258.5 122.5 248.5C123.025 247.808 123.692 247.308 124.5 247C122.934 241.512 121.601 236.012 120.5 230.5C120.963 223.051 121.463 215.385 122 207.5C122.667 204.833 123.333 204.833 124 207.5C125.309 205.314 125.476 203.147 124.5 201C125.133 197.541 125.8 194.041 126.5 190.5C126.782 194.037 126.782 197.704 126.5 201.5C127.552 201.351 128.552 201.517 129.5 202C126.015 202.493 125.515 203.993 128 206.5C129.156 205.007 129.99 205.174 130.5 207C129.483 209.787 129.316 212.62 130 215.5C130.05 217.744 130.883 219.411 132.5 220.5Z" fill="#0F0F0F"/>
<path fill-rule="evenodd" clip-rule="evenodd" d="M4.5 187.5C4.6382 192.414 3.9715 197.081 2.5 201.5C2.5 199.5 2.5 197.5 2.5 195.5C2.9628 192.67 3.6295 190.003 4.5 187.5Z" fill="#555555"/>
<path fill-rule="evenodd" clip-rule="evenodd" d="M103.5 136.5C103.363 139.231 102.863 141.898 102 144.5C101.333 150.5 101.333 156.5 102 162.5C102.915 163.328 103.581 164.328 104 165.5C104.333 164.167 104.667 162.833 105 161.5C105.172 154.654 105.672 147.987 106.5 141.5C106.334 148.175 106.5 154.842 107 161.5C107.513 162.527 108.013 163.527 108.5 164.5C107.624 164.369 106.957 164.702 106.5 165.5C107.853 166.524 108.52 167.857 108.5 169.5C109.833 169.5 111.167 169.5 112.5 169.5C112.5 179.833 112.5 190.167 112.5 200.5C109.15 200.335 105.817 200.502 102.5 201C100.63 203.04 98.63 204.873 96.5 206.5C99.301 199.93 104.301 197.264 111.5 198.5C111.5 189.167 111.5 179.833 111.5 170.5C109.473 170.662 107.473 170.495 105.5 170C104.348 167.851 102.848 166.018 101 164.5C100.333 156.5 100.333 148.5 101 140.5C101.122 138.563 101.955 137.23 103.5 136.5Z" fill="#B6B6B6"/>
<path fill-rule="evenodd" clip-rule="evenodd" d="M277.5 200.5C285.99 199.343 294.657 199.176 303.5 200C304.942 200.377 305.942 201.21 306.5 202.5C300.622 200.935 294.622 200.268 288.5 200.5C284.833 200.5 281.167 200.5 277.5 200.5Z" fill="#878787"/>
<path fill-rule="evenodd" clip-rule="evenodd" d="M347.5 136.5C348.206 141.833 348.873 147.5 349.5 153.5C349.479 158.223 348.979 162.889 348 167.5C345.36 170.401 342.193 172.068 338.5 172.5C338.5 181.5 338.5 190.5 338.5 199.5C341.518 199.704 344.518 200.037 347.5 200.5C347.5 201.5 347.5 202.5 347.5 203.5C349.179 203.285 350.179 203.952 350.5 205.5C351.433 208.37 353.1 210.704 355.5 212.5C356.451 213.919 356.784 215.585 356.5 217.5C356.717 225.915 356.05 234.248 354.5 242.5C353.492 244.544 352.492 246.544 351.5 248.5C349.178 249.802 347.845 251.802 347.5 254.5C344.5 256.833 341.833 259.5 339.5 262.5C338.833 262.5 338.167 262.5 337.5 262.5C336.701 264.739 335.368 266.739 333.5 268.5C332.501 256.852 332.168 245.186 332.5 233.5C331.844 210.475 332.51 187.809 334.5 165.5C338.017 166.62 341.684 166.62 345.5 165.5C345.825 157.981 345.492 150.648 344.5 143.5C344.167 142.167 343.833 140.833 343.5 139.5C342.708 138.033 342.708 136.7 343.5 135.5C344.736 136.246 346.07 136.579 347.5 136.5Z" fill="#F6F6F6"/>
<path fill-rule="evenodd" clip-rule="evenodd" d="M117.5 244.5C117.718 265.653 119.551 286.653 123 307.5C124.419 309.993 125.919 312.326 127.5 314.5C127.433 316.401 127.767 318.234 128.5 320C128.293 321.95 127.293 323.116 125.5 323.5C122.912 318.405 120.912 313.072 119.5 307.5C118.817 307.137 118.15 306.804 117.5 306.5C114.626 291.633 112.626 276.633 111.5 261.5C104.677 257.35 99.677 251.683 96.5 244.5C96.008 242.181 95.008 240.181 93.5 238.5C90.888 229.497 90.888 220.497 93.5 211.5C94.263 209.632 95.263 207.965 96.5 206.5C98.63 204.873 100.63 203.04 102.5 201C105.817 200.502 109.15 200.335 112.5 200.5C113.458 200.047 114.292 199.381 115 198.5C115.333 199.5 115.667 200.5 116 201.5C116.169 216.006 116.669 230.339 117.5 244.5Z" fill="#F6F6F6"/>
<path fill-rule="evenodd" clip-rule="evenodd" d="M149.5 199.5C160.507 199.658 171.507 199.992 182.5 200.5C184.607 201.468 186.941 201.802 189.5 201.5C190.833 201.5 192.167 201.5 193.5 201.5C196.023 202.254 198.689 202.92 201.5 203.5C202.887 205.21 204.221 206.877 205.5 208.5C206.761 220.959 202.428 230.625 192.5 237.5C187.64 238.382 182.974 239.882 178.5 242C170.841 242.5 163.174 242.666 155.5 242.5C152.514 242.097 149.848 241.097 147.5 239.5C145.704 237.1 143.37 235.433 140.5 234.5C138.412 232.664 137.079 230.331 136.5 227.5C134.624 221.994 134.124 216.328 135 210.5C136.442 208.609 137.609 206.609 138.5 204.5C141.906 202.47 145.573 200.804 149.5 199.5Z" fill="#F7F7F7"/>
<path fill-rule="evenodd" clip-rule="evenodd" d="M189.5 201.5C186.941 201.802 184.607 201.468 182.5 200.5C184.953 199.355 187.287 199.688 189.5 201.5Z" fill="#646464"/>
<path fill-rule="evenodd" clip-rule="evenodd" d="M288.5 200.5C294.622 200.268 300.622 200.935 306.5 202.5C309.745 204.294 312.079 206.961 313.5 210.5C313.495 214.534 313.162 218.534 312.5 222.5C312.273 226.181 310.607 228.848 307.5 230.5C302.257 237.37 295.257 241.036 286.5 241.5C280.824 241.666 275.157 241.499 269.5 241C264.297 239.184 258.964 237.684 253.5 236.5C250.702 235.294 248.535 233.294 247 230.5C245.388 227.141 243.888 223.808 242.5 220.5C242.334 216.154 242.501 211.821 243 207.5C243.278 206.584 243.778 205.918 244.5 205.5C247.659 204.669 250.659 203.669 253.5 202.5C256.764 201.676 260.098 201.342 263.5 201.5C266.85 201.335 270.183 201.502 273.5 202C272.833 202.333 272.167 202.667 271.5 203C272.416 203.278 273.082 203.778 273.5 204.5C273.5 205.167 273.167 205.5 272.5 205.5C271.504 205.414 270.671 205.748 270 206.5C268.543 210.741 268.209 215.074 269 219.5C269.66 221.324 270.827 222.657 272.5 223.5C274.246 225.252 276.246 226.585 278.5 227.5C285.094 230.469 289.928 228.469 293 221.5C294.368 218.262 294.701 214.928 294 211.5C292.445 207.653 290.612 203.986 288.5 200.5Z" fill="#F9F9F9"/>
<path fill-rule="evenodd" clip-rule="evenodd" d="M193.5 201.5C196.978 201.184 200.312 201.684 203.5 203C205.155 204.444 205.822 206.278 205.5 208.5C204.221 206.877 202.887 205.21 201.5 203.5C198.689 202.92 196.023 202.254 193.5 201.5Z" fill="#525252"/>
<path fill-rule="evenodd" clip-rule="evenodd" d="M253.5 202.5C250.659 203.669 247.659 204.669 244.5 205.5C244.414 204.504 244.748 203.671 245.5 203C248.146 202.503 250.813 202.336 253.5 202.5Z" fill="#A8A8A8"/>
<path fill-rule="evenodd" clip-rule="evenodd" d="M278.5 227.5C276.246 226.585 274.246 225.252 272.5 223.5C269.88 217.468 269.88 211.468 272.5 205.5C273.167 205.5 273.5 205.167 273.5 204.5C280.838 200.813 286.671 202.479 291 209.5C293.876 220.749 289.709 226.749 278.5 227.5Z" fill="#121212"/>
<path fill-rule="evenodd" clip-rule="evenodd" d="M159.5 225.5C157.51 222.492 156.51 219.159 156.5 215.5C156.281 210.94 157.948 207.273 161.5 204.5C167.927 201.031 173.427 202.364 178 208.5C180.446 214.819 179.613 220.653 175.5 226C169.975 229.47 164.642 229.304 159.5 225.5Z" fill="#121212"/>
<path fill-rule="evenodd" clip-rule="evenodd" d="M277.5 207.5C282.058 206.38 284.891 208.047 286 212.5C286.497 214.81 286.663 217.143 286.5 219.5C285.833 219.5 285.5 219.833 285.5 220.5C276.661 221.991 273.328 218.325 275.5 209.5C275.833 208.5 276.5 207.833 277.5 207.5Z" fill="#F8F8F8"/>
<path fill-rule="evenodd" clip-rule="evenodd" d="M161.5 204.5C157.948 207.273 156.281 210.94 156.5 215.5C156.51 219.159 157.51 222.492 159.5 225.5C157.926 225.063 156.759 224.063 156 222.5C155.333 218.167 155.333 213.833 156 209.5C157.076 206.921 158.909 205.254 161.5 204.5Z" fill="#707070"/>
<path fill-rule="evenodd" clip-rule="evenodd" d="M163.5 220.5C161.643 215.662 162.31 211.329 165.5 207.5C169.377 205.69 172.543 206.69 175 210.5C177.338 219.825 173.838 223.659 164.5 222C163.944 221.617 163.611 221.117 163.5 220.5Z" fill="#EEEEEE"/>
<path fill-rule="evenodd" clip-rule="evenodd" d="M263.5 201.5C267.97 200.514 272.637 200.181 277.5 200.5C281.167 200.5 284.833 200.5 288.5 200.5C290.612 203.986 292.445 207.653 294 211.5C294.701 214.928 294.368 218.262 293 221.5C289.928 228.469 285.094 230.469 278.5 227.5C289.709 226.749 293.876 220.749 291 209.5C286.671 202.479 280.838 200.813 273.5 204.5C273.082 203.778 272.416 203.278 271.5 203C272.167 202.667 272.833 202.333 273.5 202C270.183 201.502 266.85 201.335 263.5 201.5Z" fill="#CCCCCC"/>
<path fill-rule="evenodd" clip-rule="evenodd" d="M350.5 205.5C352.9 207.296 354.567 209.63 355.5 212.5C353.1 210.704 351.433 208.37 350.5 205.5Z" fill="#929292"/>
<path fill-rule="evenodd" clip-rule="evenodd" d="M286.5 219.5C286.663 217.143 286.497 214.81 286 212.5C284.891 208.047 282.058 206.38 277.5 207.5C281.036 204.831 284.203 205.497 287 209.5C287.808 213.027 287.641 216.36 286.5 219.5Z" fill="#B1B1B1"/>
<path fill-rule="evenodd" clip-rule="evenodd" d="M333.5 164.5C331.51 187.142 330.844 210.142 331.5 233.5C331.5 243.167 331.5 252.833 331.5 262.5C331.167 262.5 330.833 262.5 330.5 262.5C330.333 229.498 330.5 196.498 331 163.5C331.689 162.643 332.522 161.977 333.5 161.5C336.045 162.549 336.045 163.549 333.5 164.5Z" fill="#393939"/>
<path fill-rule="evenodd" clip-rule="evenodd" d="M333.5 164.5C334.167 164.5 334.5 164.833 334.5 165.5C332.51 187.809 331.844 210.475 332.5 233.5C332.167 233.5 331.833 233.5 331.5 233.5C330.844 210.142 331.51 187.142 333.5 164.5Z" fill="#AEAEAE"/>
<path fill-rule="evenodd" clip-rule="evenodd" d="M272.5 205.5C269.88 211.468 269.88 217.468 272.5 223.5C270.827 222.657 269.66 221.324 269 219.5C268.209 215.074 268.543 210.741 270 206.5C270.671 205.748 271.504 205.414 272.5 205.5Z" fill="#9C9C9C"/>
<path fill-rule="evenodd" clip-rule="evenodd" d="M136.5 205.5C133.773 210.035 132.773 215.035 133.5 220.5C133.167 220.5 132.833 220.5 132.5 220.5C132.173 215.786 132.507 211.12 133.5 206.5C134.417 205.873 135.417 205.539 136.5 205.5Z" fill="#575757"/>
<path fill-rule="evenodd" clip-rule="evenodd" d="M313.5 210.5C314.162 212.304 314.495 214.304 314.5 216.5C314.461 218.952 313.794 220.952 312.5 222.5C313.162 218.534 313.495 214.534 313.5 210.5Z" fill="#484848"/>
<path fill-rule="evenodd" clip-rule="evenodd" d="M165.5 207.5C162.31 211.329 161.643 215.662 163.5 220.5C160.697 217.796 159.863 214.463 161 210.5C162.129 208.859 163.629 207.859 165.5 207.5Z" fill="#919191"/>
<path fill-rule="evenodd" clip-rule="evenodd" d="M275.5 209.5C273.328 218.325 276.661 221.991 285.5 220.5C278.704 223.932 274.704 221.766 273.5 214C273.307 211.992 273.974 210.492 275.5 209.5Z" fill="#A1A1A1"/>
<path fill-rule="evenodd" clip-rule="evenodd" d="M138.5 204.5C137.609 206.609 136.442 208.609 135 210.5C134.124 216.328 134.624 221.994 136.5 227.5C134.707 225.574 133.707 223.241 133.5 220.5C132.773 215.035 133.773 210.035 136.5 205.5C136.842 204.662 137.508 204.328 138.5 204.5Z" fill="#C6C6C6"/>
<path fill-rule="evenodd" clip-rule="evenodd" d="M228.5 220.5C224.61 218.946 220.943 219.279 217.5 221.5C217.414 220.504 217.748 219.671 218.5 219C222.434 216.759 225.767 217.259 228.5 220.5Z" fill="#A3A3A3"/>
<path fill-rule="evenodd" clip-rule="evenodd" d="M228.5 220.5C227.886 225.069 228.886 229.069 231.5 232.5C232.309 234.028 232.976 235.694 233.5 237.5C234.017 241.222 234.85 244.888 236 248.5C236.383 249.056 236.883 249.389 237.5 249.5C237.5 249.833 237.5 250.167 237.5 250.5C237.41 253.152 238.076 255.485 239.5 257.5C240.768 259.905 241.435 262.572 241.5 265.5C241.366 269.302 242.033 272.968 243.5 276.5C243.43 277.772 243.097 278.938 242.5 280C235.306 282.133 227.973 283.3 220.5 283.5C217.546 282.729 214.546 282.062 211.5 281.5C208.811 279.883 205.811 278.883 202.5 278.5C198.216 279.385 196.716 282.051 198 286.5C209.085 294.013 221.252 296.68 234.5 294.5C239.207 294.931 243.207 293.598 246.5 290.5C248.25 289.527 249.75 288.193 251 286.5C251.765 284.934 251.598 283.601 250.5 282.5C250.382 274.046 248.715 266.046 245.5 258.5C244.943 256.051 244.943 253.718 245.5 251.5C250.91 255.352 256.91 257.686 263.5 258.5C267.183 260.25 271.183 260.917 275.5 260.5C281.176 260.666 286.843 260.499 292.5 260C296.952 259.399 300.952 257.899 304.5 255.5C305.167 255.5 305.833 255.5 306.5 255.5C310.117 254.358 313.45 252.692 316.5 250.5C317.5 250.5 318.5 250.5 319.5 250.5C319.5 254.5 319.5 258.5 319.5 262.5C319.161 270.863 318.495 279.196 317.5 287.5C316.849 288.091 316.182 288.757 315.5 289.5C314.289 288.726 314.289 287.893 315.5 287C311.5 286.333 311.5 285.667 315.5 285C313.04 284.019 310.54 283.185 308 282.5C306.93 282.528 306.097 282.861 305.5 283.5C304.699 285.042 304.366 286.708 304.5 288.5C304.414 289.496 304.748 290.329 305.5 291C307.441 291.743 309.274 291.576 311 290.5C311.75 291.126 312.584 291.626 313.5 292C312.763 294.225 312.763 296.559 313.5 299C312.026 304.223 310.692 309.389 309.5 314.5C307.771 315.117 306.271 316.117 305 317.5C301.216 323.412 297.716 329.412 294.5 335.5C289.488 339.513 285.155 344.179 281.5 349.5C275.312 355.081 268.979 360.415 262.5 365.5C259.514 366.808 256.514 368.141 253.5 369.5C252.702 369.957 252.369 370.624 252.5 371.5C242.411 374.713 232.077 376.38 221.5 376.5C217.5 376.5 213.5 376.5 209.5 376.5C209.389 375.883 209.056 375.383 208.5 375C204.562 373.526 200.562 372.359 196.5 371.5C192.85 369.675 189.184 367.842 185.5 366C183.76 364.483 182.094 362.983 180.5 361.5C178.833 359.167 176.833 357.167 174.5 355.5C168.861 351.861 164.194 347.194 160.5 341.5C159.864 339.205 158.531 337.539 156.5 336.5C154.822 331.803 152.156 327.803 148.5 324.5C147.206 323.71 146.039 322.71 145 321.5C144.151 318.439 142.651 315.772 140.5 313.5C137.517 308.552 135.517 303.219 134.5 297.5C134.665 294.482 134.498 291.482 134 288.5C132.242 284.935 131.076 281.268 130.5 277.5C129.865 268.766 130.532 260.433 132.5 252.5C149.225 261.441 166.892 263.774 185.5 259.5C188.152 259.59 190.485 258.924 192.5 257.5C197.852 256.028 202.686 253.361 207 249.5C209.802 242.925 212.302 236.259 214.5 229.5C216.655 227.383 217.655 224.716 217.5 221.5C220.943 219.279 224.61 218.946 228.5 220.5Z" fill="#FAFAFA"/>
<path fill-rule="evenodd" clip-rule="evenodd" d="M356.5 217.5C357.973 220.017 358.64 222.85 358.5 226C358.355 231.919 357.021 237.419 354.5 242.5C356.05 234.248 356.717 225.915 356.5 217.5Z" fill="#CBCBCB"/>
<path fill-rule="evenodd" clip-rule="evenodd" d="M93.5 211.5C90.888 220.497 90.888 229.497 93.5 238.5C91.989 236.524 91.156 234.191 91 231.5C90.333 226.167 90.333 220.833 91 215.5C91.2 213.68 92.034 212.347 93.5 211.5Z" fill="#A4A4A4"/>
<path fill-rule="evenodd" clip-rule="evenodd" d="M217.5 221.5C217.655 224.716 216.655 227.383 214.5 229.5C214.903 226.514 215.903 223.848 217.5 221.5Z" fill="#787878"/>
<path fill-rule="evenodd" clip-rule="evenodd" d="M2.50007 207.5C2.34517 220.185 2.67847 232.851 3.50007 245.5C1.98267 238.228 1.31607 230.728 1.50007 223C1.50067 217.656 1.83407 212.489 2.50007 207.5Z" fill="#717171"/>
<path fill-rule="evenodd" clip-rule="evenodd" d="M228.5 220.5C229.868 224.298 230.868 228.298 231.5 232.5C228.886 229.069 227.886 225.069 228.5 220.5Z" fill="#AFAFAF"/>
<path fill-rule="evenodd" clip-rule="evenodd" d="M2.50009 195.5C2.50009 197.5 2.50009 199.5 2.50009 201.5C2.50009 203.5 2.50009 205.5 2.50009 207.5C1.83409 212.489 1.50069 217.656 1.50009 223C1.31609 230.728 1.98269 238.228 3.50009 245.5C4.32429 248.764 4.65769 252.098 4.50009 255.5C3.77849 255.082 3.27849 254.416 3.00009 253.5C0.581093 236.25 -0.0856072 218.917 1.00009 201.5C1.19099 199.292 1.69099 197.292 2.50009 195.5Z" fill="#BEBEBE"/>
<path fill-rule="evenodd" clip-rule="evenodd" d="M140.5 234.5C143.37 235.433 145.704 237.1 147.5 239.5C144.63 238.567 142.296 236.9 140.5 234.5Z" fill="#8C8C8C"/>
<path fill-rule="evenodd" clip-rule="evenodd" d="M307.5 230.5C307.762 231.978 307.429 233.311 306.5 234.5C300.787 239.546 294.12 242.213 286.5 242.5C286.5 242.167 286.5 241.833 286.5 241.5C295.257 241.036 302.257 237.37 307.5 230.5Z" fill="#4E4E4E"/>
<path fill-rule="evenodd" clip-rule="evenodd" d="M233.5 237.5C235.405 241.216 236.739 245.216 237.5 249.5C236.883 249.389 236.383 249.056 236 248.5C234.85 244.888 234.017 241.222 233.5 237.5Z" fill="#777777"/>
<path fill-rule="evenodd" clip-rule="evenodd" d="M253.5 236.5C258.964 237.684 264.297 239.184 269.5 241C275.157 241.499 280.824 241.666 286.5 241.5C286.5 241.833 286.5 242.167 286.5 242.5C277.393 242.881 268.393 242.214 259.5 240.5C257.364 239.347 255.364 238.014 253.5 236.5Z" fill="#B0B0B0"/>
<path fill-rule="evenodd" clip-rule="evenodd" d="M192.5 237.5C181.393 243.819 169.393 245.986 156.5 244C155.944 243.617 155.611 243.117 155.5 242.5C163.174 242.666 170.841 242.5 178.5 242C182.974 239.882 187.64 238.382 192.5 237.5Z" fill="#9C9C9C"/>
<path fill-rule="evenodd" clip-rule="evenodd" d="M93.5 238.5C95.008 240.181 96.008 242.181 96.5 244.5C94.025 243.313 93.025 241.313 93.5 238.5Z" fill="#989898"/>
<path fill-rule="evenodd" clip-rule="evenodd" d="M316.5 250.5C316.5 250.167 316.5 249.833 316.5 249.5C317.833 249.5 319.167 249.5 320.5 249.5C320.818 254.032 320.485 258.366 319.5 262.5C319.5 258.5 319.5 254.5 319.5 250.5C318.5 250.5 317.5 250.5 316.5 250.5Z" fill="#8D8D8D"/>
<path fill-rule="evenodd" clip-rule="evenodd" d="M351.5 248.5C351.025 250.784 350.025 252.784 348.5 254.5C348.167 254.5 347.833 254.5 347.5 254.5C347.845 251.802 349.178 249.802 351.5 248.5Z" fill="#A4A4A4"/>
<path fill-rule="evenodd" clip-rule="evenodd" d="M316.5 249.5C316.5 249.833 316.5 250.167 316.5 250.5C313.45 252.692 310.117 254.358 306.5 255.5C309.494 253 312.827 251 316.5 249.5Z" fill="#474747"/>
<path fill-rule="evenodd" clip-rule="evenodd" d="M237.5 250.5C238.924 252.515 239.59 254.848 239.5 257.5C238.076 255.485 237.41 253.152 237.5 250.5Z" fill="#878787"/>
<path fill-rule="evenodd" clip-rule="evenodd" d="M445.5 249.5C445.022 254.727 444.022 259.727 442.5 264.5C442.336 259.126 443.336 254.126 445.5 249.5Z" fill="#6B6B6B"/>
<path fill-rule="evenodd" clip-rule="evenodd" d="M132.5 252.5C130.532 260.433 129.865 268.766 130.5 277.5C129.178 268.658 129.178 259.658 130.5 250.5C131.522 250.855 132.189 251.522 132.5 252.5Z" fill="#9F9F9F"/>
<path fill-rule="evenodd" clip-rule="evenodd" d="M192.5 257.5C190.485 258.924 188.152 259.59 185.5 259.5C187.515 258.076 189.848 257.41 192.5 257.5Z" fill="#929292"/>
<path fill-rule="evenodd" clip-rule="evenodd" d="M347.5 254.5C347.833 254.5 348.167 254.5 348.5 254.5C346.1 257.903 343.1 260.57 339.5 262.5C341.833 259.5 344.5 256.833 347.5 254.5Z" fill="#545454"/>
<path fill-rule="evenodd" clip-rule="evenodd" d="M263.5 258.5C267.684 258.851 271.684 259.518 275.5 260.5C271.183 260.917 267.183 260.25 263.5 258.5Z" fill="#A1A1A1"/>
<path fill-rule="evenodd" clip-rule="evenodd" d="M4.50009 257.5C5.91319 262.63 6.91319 267.963 7.50009 273.5C5.22749 268.549 4.22749 263.216 4.50009 257.5Z" fill="#9A9A9A"/>
<path fill-rule="evenodd" clip-rule="evenodd" d="M245.5 258.5C248.715 266.046 250.382 274.046 250.5 282.5C248.189 274.761 246.522 266.761 245.5 258.5Z" fill="#505050"/>
<path fill-rule="evenodd" clip-rule="evenodd" d="M241.5 265.5C242.731 268.687 243.897 272.02 245 275.5C245.798 277.259 245.631 278.926 244.5 280.5C240.148 281.561 235.815 282.728 231.5 284C227.642 284.81 223.976 284.643 220.5 283.5C227.973 283.3 235.306 282.133 242.5 280C243.097 278.938 243.43 277.772 243.5 276.5C242.033 272.968 241.366 269.302 241.5 265.5Z" fill="#A3A3A3"/>
<path fill-rule="evenodd" clip-rule="evenodd" d="M330.5 262.5C330.833 262.5 331.167 262.5 331.5 262.5C332.239 272.533 331.239 282.199 328.5 291.5C329.731 281.877 330.398 272.211 330.5 262.5Z" fill="#A9A9A9"/>
<path fill-rule="evenodd" clip-rule="evenodd" d="M202.5 278.5C205.811 278.883 208.811 279.883 211.5 281.5C207.919 281.862 204.919 280.862 202.5 278.5Z" fill="#818181"/>
<path fill-rule="evenodd" clip-rule="evenodd" d="M442.5 266.5C441.991 271.872 441.158 277.205 440 282.5C439.148 283.571 438.315 284.571 437.5 285.5C438.409 278.859 440.076 272.526 442.5 266.5Z" fill="#B8B8B8"/>
<path fill-rule="evenodd" clip-rule="evenodd" d="M331.5 233.5C331.833 233.5 332.167 233.5 332.5 233.5C332.168 245.186 332.501 256.852 333.5 268.5C335.368 266.739 336.701 264.739 337.5 262.5C337.756 266.269 337.423 269.936 336.5 273.5C334.72 281.264 333.72 289.264 333.5 297.5C333.5 298.5 333.5 299.5 333.5 300.5C330.397 307.856 327.73 315.522 325.5 323.5C322.567 329.096 319.234 334.43 315.5 339.5C313.086 340.911 311.419 342.911 310.5 345.5C308.139 347.194 306.139 349.194 304.5 351.5C303.448 351.351 302.448 351.517 301.5 352C300.205 354.665 298.205 355.998 295.5 356C297.428 354.319 297.761 352.486 296.5 350.5C301.977 344.869 306.977 338.869 311.5 332.5C320.741 320.347 326.408 306.68 328.5 291.5C331.239 282.199 332.239 272.533 331.5 262.5C331.5 252.833 331.5 243.167 331.5 233.5Z" fill="#E2E2E2"/>
<path fill-rule="evenodd" clip-rule="evenodd" d="M336.5 273.5C336.497 280.533 335.997 287.533 335 294.5C334.768 295.737 334.268 296.737 333.5 297.5C333.72 289.264 334.72 281.264 336.5 273.5Z" fill="#B4B4B4"/>
<path fill-rule="evenodd" clip-rule="evenodd" d="M305.5 283.5C306.097 282.861 306.93 282.528 308 282.5C310.54 283.185 313.04 284.019 315.5 285C311.5 285.667 311.5 286.333 315.5 287C314.289 287.893 314.289 288.726 315.5 289.5C316.182 288.757 316.849 288.091 317.5 287.5C316.068 294.493 314.568 301.493 313 308.5C312.059 310.727 310.892 312.727 309.5 314.5C310.692 309.389 312.026 304.223 313.5 299C312.763 296.559 312.763 294.225 313.5 292C312.584 291.626 311.75 291.126 311 290.5C309.274 291.576 307.441 291.743 305.5 291C304.748 290.329 304.414 289.496 304.5 288.5C307.969 289.113 309.969 287.779 310.5 284.5C308.784 284.371 307.117 284.038 305.5 283.5Z" fill="#DBDBDB"/>
<path fill-rule="evenodd" clip-rule="evenodd" d="M7.50002 273.5C10.0744 280.574 12.0744 287.907 13.5 295.5C11.2376 291.12 9.40432 286.453 8.00002 281.5C7.50262 278.854 7.33592 276.187 7.50002 273.5Z" fill="#989898"/>
<path fill-rule="evenodd" clip-rule="evenodd" d="M305.5 283.5C307.117 284.038 308.784 284.371 310.5 284.5C309.969 287.779 307.969 289.113 304.5 288.5C304.366 286.708 304.699 285.042 305.5 283.5Z" fill="#222222"/>
<path fill-rule="evenodd" clip-rule="evenodd" d="M138.5 283.5C139.833 283.5 141.167 283.5 142.5 283.5C143.244 286.95 141.91 288.616 138.5 288.5C138.5 286.833 138.5 285.167 138.5 283.5Z" fill="#1F1F1F"/>
<path fill-rule="evenodd" clip-rule="evenodd" d="M130.5 277.5C131.076 281.268 132.242 284.935 134 288.5C134.498 291.482 134.665 294.482 134.5 297.5C131.611 291.257 130.278 284.591 130.5 277.5Z" fill="#B2B2B2"/>
<path fill-rule="evenodd" clip-rule="evenodd" d="M437.5 285.5C436.744 289.767 435.411 293.767 433.5 297.5C433.861 293.085 435.194 289.085 437.5 285.5Z" fill="#7F7F7F"/>
<path fill-rule="evenodd" clip-rule="evenodd" d="M246.5 290.5C243.207 293.598 239.207 294.931 234.5 294.5C238.41 293.228 242.41 291.895 246.5 290.5Z" fill="#ABABAB"/>
<path fill-rule="evenodd" clip-rule="evenodd" d="M117.5 164.5C118.115 200.679 118.948 237.013 120 273.5C120.508 287.563 123.008 301.23 127.5 314.5C125.919 312.326 124.419 309.993 123 307.5C119.551 286.653 117.718 265.653 117.5 244.5C117.5 217.833 117.5 191.167 117.5 164.5Z" fill="#7F7F7F"/>
<path fill-rule="evenodd" clip-rule="evenodd" d="M147.5 300.5C152.161 301.324 152.661 303.324 149 306.5C146.327 305.142 145.827 303.142 147.5 300.5Z" fill="#363636"/>
<path fill-rule="evenodd" clip-rule="evenodd" d="M238.5 300.5C240.181 302.008 242.181 303.008 244.5 303.5C248.792 306.62 252.959 309.953 257 313.5C260.208 319.261 263.375 324.928 266.5 330.5C266.959 333.877 267.626 337.211 268.5 340.5C267.167 340.5 265.833 340.5 264.5 340.5C258.121 336.142 251.454 332.142 244.5 328.5C243.571 327.685 242.571 326.852 241.5 326C235.868 323.855 230.202 321.689 224.5 319.5C215.855 322.489 207.855 326.489 200.5 331.5C196.827 333 193.494 335 190.5 337.5C187.692 338.929 184.692 339.595 181.5 339.5C183.543 332.699 186.543 326.365 190.5 320.5C198.343 308.237 209.51 300.571 224 297.5C228.945 298.086 233.778 299.086 238.5 300.5Z" fill="#0D0D0D"/>
<path fill-rule="evenodd" clip-rule="evenodd" d="M238.5 300.5C241.313 300.025 243.313 301.025 244.5 303.5C242.181 303.008 240.181 302.008 238.5 300.5Z" fill="#8A8A8A"/>
<path fill-rule="evenodd" clip-rule="evenodd" d="M433.5 297.5C433.741 299.898 433.074 301.898 431.5 303.5C431.259 301.102 431.926 299.102 433.5 297.5Z" fill="#929292"/>
<path fill-rule="evenodd" clip-rule="evenodd" d="M299.5 302.5C302.685 302.722 303.685 304.222 302.5 307C298.707 307.487 297.707 305.987 299.5 302.5Z" fill="#1D1D1D"/>
<path fill-rule="evenodd" clip-rule="evenodd" d="M14.5 299.5C16.5837 302.053 17.917 305.053 18.5 308.5C15.2942 306.416 13.9609 303.416 14.5 299.5Z" fill="#BDBDBD"/>
<path fill-rule="evenodd" clip-rule="evenodd" d="M117.5 306.5C118.15 306.804 118.817 307.137 119.5 307.5C120.912 313.072 122.912 318.405 125.5 323.5C125.5 323.833 125.5 324.167 125.5 324.5C121.79 319.071 119.124 313.071 117.5 306.5Z" fill="#A2A2A2"/>
<path fill-rule="evenodd" clip-rule="evenodd" d="M431.5 303.5C431.162 305.854 430.662 308.187 430 310.5C427.768 315.08 425.268 319.414 422.5 323.5C424.76 316.34 427.76 309.673 431.5 303.5Z" fill="#909090"/>
<path fill-rule="evenodd" clip-rule="evenodd" d="M333.5 300.5C332.787 308.978 330.12 316.644 325.5 323.5C327.73 315.522 330.397 307.856 333.5 300.5Z" fill="#ADADAD"/>
<path fill-rule="evenodd" clip-rule="evenodd" d="M22.5 317.5C24.0075 319.181 25.0075 321.181 25.5 323.5C23.0311 322.393 22.0311 320.393 22.5 317.5Z" fill="#A0A0A0"/>
<path fill-rule="evenodd" clip-rule="evenodd" d="M244.5 328.5C242.517 328.157 241.183 328.824 240.5 330.5C237.321 329.207 233.988 328.54 230.5 328.5C223.08 326.722 215.914 327.722 209 331.5C208.421 332.928 208.588 334.262 209.5 335.5C208.167 335.5 206.833 335.5 205.5 335.5C205.36 333.876 206.027 332.71 207.5 332C205.26 330.193 202.927 330.026 200.5 331.5C207.855 326.489 215.855 322.489 224.5 319.5C230.202 321.689 235.868 323.855 241.5 326C242.571 326.852 243.571 327.685 244.5 328.5Z" fill="#DCDCDC"/>
<path fill-rule="evenodd" clip-rule="evenodd" d="M286.5 321.5C290.409 320.737 291.742 322.07 290.5 325.5C289.311 326.429 287.978 326.762 286.5 326.5C286.5 324.833 286.5 323.167 286.5 321.5Z" fill="#252525"/>
<path fill-rule="evenodd" clip-rule="evenodd" d="M127.5 314.5C129.584 318.336 131.917 322.003 134.5 325.5C136.102 329.095 138.102 332.429 140.5 335.5C138.101 332.942 135.268 330.942 132 329.5C131.833 329.833 131.667 330.167 131.5 330.5C135.022 336.221 139.022 341.554 143.5 346.5C142.833 346.5 142.167 346.5 141.5 346.5C135.191 339.884 129.857 332.55 125.5 324.5C125.5 324.167 125.5 323.833 125.5 323.5C127.293 323.116 128.293 321.95 128.5 320C127.767 318.234 127.433 316.401 127.5 314.5Z" fill="#CBCBCB"/>
<path fill-rule="evenodd" clip-rule="evenodd" d="M163.5 326.5C164.5 326.5 165.5 326.5 166.5 326.5C167.244 323.05 165.91 321.384 162.5 321.5C162.5 323.167 162.5 324.833 162.5 326.5C161.539 324.735 161.205 322.735 161.5 320.5C167.325 319.506 169.492 321.839 168 327.5C166.085 328.916 164.585 328.582 163.5 326.5Z" fill="#C8C8C8"/>
<path fill-rule="evenodd" clip-rule="evenodd" d="M163.5 326.5C163.167 326.5 162.833 326.5 162.5 326.5C162.5 324.833 162.5 323.167 162.5 321.5C165.91 321.384 167.244 323.05 166.5 326.5C165.5 326.5 164.5 326.5 163.5 326.5Z" fill="#1C1C1C"/>
<path fill-rule="evenodd" clip-rule="evenodd" d="M25.5 323.5C27.341 325.849 28.6743 328.515 29.5 331.5C27.127 329.421 25.7936 326.754 25.5 323.5Z" fill="#8D8D8D"/>
<path fill-rule="evenodd" clip-rule="evenodd" d="M309.5 314.5C307.528 318.15 305.528 321.816 303.5 325.5C300.968 329.211 297.968 332.544 294.5 335.5C297.716 329.412 301.216 323.412 305 317.5C306.271 316.117 307.771 315.117 309.5 314.5Z" fill="#C8C8C8"/>
<path fill-rule="evenodd" clip-rule="evenodd" d="M230.5 328.5C234.315 330.127 238.315 331.46 242.5 332.5C243.434 333.568 243.768 334.901 243.5 336.5C236.596 334.757 229.596 333.424 222.5 332.5C218.348 334.029 214.015 335.029 209.5 335.5C208.588 334.262 208.421 332.928 209 331.5C215.914 327.722 223.08 326.722 230.5 328.5Z" fill="#1A1A1A"/>
<path fill-rule="evenodd" clip-rule="evenodd" d="M230.5 328.5C233.988 328.54 237.321 329.207 240.5 330.5C241.5 330.833 242.167 331.5 242.5 332.5C238.315 331.46 234.315 330.127 230.5 328.5Z" fill="#616161"/>
<path fill-rule="evenodd" clip-rule="evenodd" d="M422.5 323.5C422.657 324.873 422.49 326.207 422 327.5C419.866 329.803 418.366 332.469 417.5 335.5C417.043 336.298 416.376 336.631 415.5 336.5C417.473 331.89 419.806 327.557 422.5 323.5Z" fill="#B2B2B2"/>
<path fill-rule="evenodd" clip-rule="evenodd" d="M148.5 324.5C152.156 327.803 154.822 331.803 156.5 336.5C152.828 333.151 150.161 329.151 148.5 324.5Z" fill="#B1B1B1"/>
<path fill-rule="evenodd" clip-rule="evenodd" d="M190.5 320.5C186.543 326.365 183.543 332.699 181.5 339.5C181.5 339.833 181.5 340.167 181.5 340.5C180.378 338.712 180.211 336.712 181 334.5C182.977 328.834 186.143 324.167 190.5 320.5Z" fill="#BABABA"/>
<path fill-rule="evenodd" clip-rule="evenodd" d="M140.5 335.5C142.234 338.495 144.067 341.495 146 344.5C149.086 347.216 151.92 350.216 154.5 353.5C156.264 355.278 158.264 356.611 160.5 357.5C159.962 359.117 159.629 360.784 159.5 362.5C153.887 357.554 148.554 352.221 143.5 346.5C139.022 341.554 135.022 336.221 131.5 330.5C131.667 330.167 131.833 329.833 132 329.5C135.268 330.942 138.101 332.942 140.5 335.5Z" fill="#F4F4F4"/>
<path fill-rule="evenodd" clip-rule="evenodd" d="M156.5 336.5C158.531 337.539 159.864 339.205 160.5 341.5C158.457 340.421 157.124 338.754 156.5 336.5Z" fill="#A4A4A4"/>
<path fill-rule="evenodd" clip-rule="evenodd" d="M190.5 337.5C188.155 340.075 185.155 341.075 181.5 340.5C181.5 340.167 181.5 339.833 181.5 339.5C184.692 339.595 187.692 338.929 190.5 337.5Z" fill="#606060"/>
<path fill-rule="evenodd" clip-rule="evenodd" d="M140.5 335.5C147.508 342.508 154.174 349.842 160.5 357.5C158.264 356.611 156.264 355.278 154.5 353.5C151.92 350.216 149.086 347.216 146 344.5C144.067 341.495 142.234 338.495 140.5 335.5Z" fill="#B8B8B8"/>
<path fill-rule="evenodd" clip-rule="evenodd" d="M266.5 330.5C268.692 334.098 269.692 338.098 269.5 342.5C267.302 342.88 265.635 342.213 264.5 340.5C265.833 340.5 267.167 340.5 268.5 340.5C267.626 337.211 266.959 333.877 266.5 330.5Z" fill="#B6B6B6"/>
<path fill-rule="evenodd" clip-rule="evenodd" d="M294.5 335.5C290.971 340.548 286.971 345.215 282.5 349.5C282.167 349.5 281.833 349.5 281.5 349.5C285.155 344.179 289.488 339.513 294.5 335.5Z" fill="#B9B9B9"/>
<path fill-rule="evenodd" clip-rule="evenodd" d="M315.5 339.5C314.581 342.089 312.914 344.089 310.5 345.5C311.419 342.911 313.086 340.911 315.5 339.5Z" fill="#5B5B5B"/>
<path fill-rule="evenodd" clip-rule="evenodd" d="M415.5 336.5C412.964 342.687 409.297 348.02 404.5 352.5C407.393 346.612 411.06 341.278 415.5 336.5Z" fill="#909090"/>
<path fill-rule="evenodd" clip-rule="evenodd" d="M217.5 350.5C221.646 349.353 225.98 349.186 230.5 350C231.056 350.383 231.389 350.883 231.5 351.5C226.848 351.002 222.181 350.669 217.5 350.5Z" fill="#7D7D7D"/>
<path fill-rule="evenodd" clip-rule="evenodd" d="M217.5 350.5C222.181 350.669 226.848 351.002 231.5 351.5C233.153 351.66 234.486 352.326 235.5 353.5C229.25 355.459 222.584 356.126 215.5 355.5C215.649 354.448 215.483 353.448 215 352.5C214.31 353.738 213.81 353.738 213.5 352.5C214.183 350.824 215.517 350.157 217.5 350.5Z" fill="#141414"/>
<path fill-rule="evenodd" clip-rule="evenodd" d="M281.5 349.5C281.833 349.5 282.167 349.5 282.5 349.5C276.617 356.105 269.95 361.772 262.5 366.5C262.5 366.167 262.5 365.833 262.5 365.5C268.979 360.415 275.312 355.081 281.5 349.5Z" fill="#7C7C7C"/>
<path fill-rule="evenodd" clip-rule="evenodd" d="M213.5 352.5C213.81 353.738 214.31 353.738 215 352.5C215.483 353.448 215.649 354.448 215.5 355.5C222.584 356.126 229.25 355.459 235.5 353.5C236.404 354.209 236.737 355.209 236.5 356.5C229.159 356.666 221.826 356.5 214.5 356C212.689 354.959 212.355 353.793 213.5 352.5Z" fill="#B2B2B2"/>
<path fill-rule="evenodd" clip-rule="evenodd" d="M404.5 352.5C403.588 354.595 402.421 356.595 401 358.5C400.184 359.823 399.017 360.489 397.5 360.5C399.372 357.418 401.705 354.751 404.5 352.5Z" fill="#9B9B9B"/>
<path fill-rule="evenodd" clip-rule="evenodd" d="M296.5 350.5C297.761 352.486 297.428 354.319 295.5 356C298.205 355.998 300.205 354.665 301.5 352C302.448 351.517 303.448 351.351 304.5 351.5C297.397 358.557 290.064 365.39 282.5 372C282.089 373.144 281.756 374.311 281.5 375.5C282.82 380.755 283.487 386.089 283.5 391.5C282.691 393.292 282.191 395.292 282 397.5C280.571 395.006 280.404 392.34 281.5 389.5C280.706 384.585 279.706 379.585 278.5 374.5C280.856 373.346 281.023 372.013 279 370.5C277.644 371.38 276.144 371.714 274.5 371.5C281.917 364.482 289.251 357.482 296.5 350.5Z" fill="#D3D3D3"/>
<path fill-rule="evenodd" clip-rule="evenodd" d="M174.5 355.5C176.833 357.167 178.833 359.167 180.5 361.5C177.455 360.455 175.455 358.455 174.5 355.5Z" fill="#808080"/>
<path fill-rule="evenodd" clip-rule="evenodd" d="M141.5 346.5C142.167 346.5 142.833 346.5 143.5 346.5C148.554 352.221 153.887 357.554 159.5 362.5C160.11 363.391 160.443 364.391 160.5 365.5C157.25 363.757 154.416 361.423 152 358.5C148.664 354.332 145.164 350.332 141.5 346.5Z" fill="#838383"/>
<path fill-rule="evenodd" clip-rule="evenodd" d="M397.5 360.5C396.753 363.362 395.086 365.362 392.5 366.5C393.701 364.091 395.367 362.091 397.5 360.5Z" fill="#A0A0A0"/>
<path fill-rule="evenodd" clip-rule="evenodd" d="M262.5 365.5C262.5 365.833 262.5 366.167 262.5 366.5C259.347 368.55 256.014 370.216 252.5 371.5C252.369 370.624 252.702 369.957 253.5 369.5C256.514 368.141 259.514 366.808 262.5 365.5Z" fill="#B5B5B5"/>
<path fill-rule="evenodd" clip-rule="evenodd" d="M390.5 368.5C389.581 371.089 387.914 373.089 385.5 374.5C386.419 371.911 388.086 369.911 390.5 368.5Z" fill="#929292"/>
<path fill-rule="evenodd" clip-rule="evenodd" d="M160.5 357.5C168.761 365.594 177.761 372.76 187.5 379C196.142 384.328 205.476 387.828 215.5 389.5C224.342 390.822 233.342 390.822 242.5 389.5C243.243 388.818 243.909 388.151 244.5 387.5C248.78 387.301 252.447 385.968 255.5 383.5C256.659 381.75 258.326 380.75 260.5 380.5C263.262 379.62 265.929 378.454 268.5 377C269.252 376.329 269.586 375.496 269.5 374.5C270.899 373.11 272.566 372.11 274.5 371.5C276.144 371.714 277.644 371.38 279 370.5C281.023 372.013 280.856 373.346 278.5 374.5C279.706 379.585 280.706 384.585 281.5 389.5C280.404 392.34 280.571 395.006 282 397.5C282.191 395.292 282.691 393.292 283.5 391.5C285.096 401.631 286.096 411.965 286.5 422.5C286.5 425.167 286.5 427.833 286.5 430.5C256.447 439.398 225.78 441.898 194.5 438C182.07 436.416 170.07 433.916 158.5 430.5C159.93 430.421 161.264 430.754 162.5 431.5C163.429 430.311 163.762 428.978 163.5 427.5C165.057 421.739 165.724 415.739 165.5 409.5C165.651 397.855 166.984 386.355 169.5 375C166.674 371.674 163.674 368.507 160.5 365.5C160.443 364.391 160.11 363.391 159.5 362.5C159.629 360.784 159.962 359.117 160.5 357.5Z" fill="#E7E7E7"/>
<path fill-rule="evenodd" clip-rule="evenodd" d="M196.5 371.5C200.562 372.359 204.562 373.526 208.5 375C209.056 375.383 209.389 375.883 209.5 376.5C204.71 375.796 200.376 374.129 196.5 371.5Z" fill="#888888"/>
<path fill-rule="evenodd" clip-rule="evenodd" d="M252.5 371.5C249.983 373.735 246.983 375.235 243.5 376C239.534 376.828 235.534 377.328 231.5 377.5C227.958 377.813 224.625 377.479 221.5 376.5C232.077 376.38 242.411 374.713 252.5 371.5Z" fill="#A0A0A0"/>
<path fill-rule="evenodd" clip-rule="evenodd" d="M209.5 376.5C213.5 376.5 217.5 376.5 221.5 376.5C224.625 377.479 227.958 377.813 231.5 377.5C224.129 378.609 216.796 378.276 209.5 376.5Z" fill="#4F4F4F"/>
<path fill-rule="evenodd" clip-rule="evenodd" d="M269.5 374.5C269.586 375.496 269.252 376.329 268.5 377C265.929 378.454 263.262 379.62 260.5 380.5C262.946 377.769 265.946 375.769 269.5 374.5Z" fill="#8D8D8D"/>
<path fill-rule="evenodd" clip-rule="evenodd" d="M255.5 383.5C252.447 385.968 248.78 387.301 244.5 387.5C247.95 385.792 251.617 384.459 255.5 383.5Z" fill="#A1A1A1"/>
<path fill-rule="evenodd" clip-rule="evenodd" d="M244.5 387.5C243.909 388.151 243.243 388.818 242.5 389.5C233.342 390.822 224.342 390.822 215.5 389.5C225.242 389.755 234.908 389.089 244.5 387.5Z" fill="#A9A9A9"/>
<path fill-rule="evenodd" clip-rule="evenodd" d="M371.5 386.5C371.489 388.017 370.823 389.184 369.5 390C367.473 391.879 365.14 393.046 362.5 393.5C365.28 390.936 368.28 388.603 371.5 386.5Z" fill="#9F9F9F"/>
<path fill-rule="evenodd" clip-rule="evenodd" d="M228.5 397.5C225.552 397.223 222.719 397.556 220 398.5C216.63 409.965 220.463 413.632 231.5 409.5C231.288 411.384 230.288 412.717 228.5 413.5C225.933 413.222 223.267 413.056 220.5 413C218.54 411.209 217.207 409.043 216.5 406.5C217.17 403.154 217.837 399.821 218.5 396.5C220.937 396.244 223.271 395.577 225.5 394.5C227.213 394.879 228.213 395.879 228.5 397.5Z" fill="#C2C2C2"/>
<path fill-rule="evenodd" clip-rule="evenodd" d="M362.5 393.5C360.757 396.558 358.09 398.558 354.5 399.5C356.86 397.147 359.527 395.147 362.5 393.5Z" fill="#9C9C9C"/>
<path fill-rule="evenodd" clip-rule="evenodd" d="M228.5 397.5C229.966 398.347 230.8 399.68 231 401.5C231.497 404.146 231.664 406.813 231.5 409.5C220.463 413.632 216.63 409.965 220 398.5C222.719 397.556 225.552 397.223 228.5 397.5Z" fill="#131313"/>
<path fill-rule="evenodd" clip-rule="evenodd" d="M351.5 401.5C349.966 403.369 347.966 404.702 345.5 405.5C346.802 403.178 348.802 401.845 351.5 401.5Z" fill="#9E9E9E"/>
<path fill-rule="evenodd" clip-rule="evenodd" d="M110.5 410.5C112.027 410.427 113.027 411.094 113.5 412.5C111.973 412.573 110.973 411.906 110.5 410.5Z" fill="#777777"/>
<path fill-rule="evenodd" clip-rule="evenodd" d="M330.5 413.5C328.819 415.008 326.819 416.008 324.5 416.5C325.911 414.461 327.911 413.461 330.5 413.5Z" fill="#868686"/>
<path fill-rule="evenodd" clip-rule="evenodd" d="M220.5 421.5C223.777 421.216 226.943 421.549 230 422.5C233.185 432.649 229.852 435.982 220 432.5C217.866 428.647 218.033 424.98 220.5 421.5Z" fill="#0E0E0E"/>
<path fill-rule="evenodd" clip-rule="evenodd" d="M165.5 409.5C165.724 415.739 165.057 421.739 163.5 427.5C163.652 421.301 164.318 415.301 165.5 409.5Z" fill="#7F7F7F"/>
<path fill-rule="evenodd" clip-rule="evenodd" d="M314.5 420.5C308.369 425.105 301.369 427.771 293.5 428.5C300.313 425.604 307.313 422.937 314.5 420.5Z" fill="#9C9C9C"/>
<path fill-rule="evenodd" clip-rule="evenodd" d="M138.5 423.5C141.454 424.428 144.454 425.261 147.5 426C148.942 426.377 149.942 427.21 150.5 428.5C146.064 427.586 142.064 425.919 138.5 423.5Z" fill="#848484"/>
<path fill-rule="evenodd" clip-rule="evenodd" d="M286.5 422.5C287.468 424.607 287.802 426.941 287.5 429.5C289.5 429.167 291.5 428.833 293.5 428.5C291.562 430.163 289.228 430.829 286.5 430.5C286.5 427.833 286.5 425.167 286.5 422.5Z" fill="#5C5C5C"/>
</svg>
