<svg width="448" height="441" viewBox="0 0 448 441" fill="none" xmlns="http://www.w3.org/2000/svg">
<path fill-rule="evenodd" clip-rule="evenodd" d="M238.5 0.499991C246.02 0.329991 253.52 0.66999 261 1.49999C262.99 1.56999 264.49 2.23999 265.5 3.49999C256.31 2.88999 247.31 1.88999 238.5 0.499991Z" fill="#A2A2A2"/>
<path fill-rule="evenodd" clip-rule="evenodd" d="M221.5 0.499948C227.17 0.499948 232.83 0.499948 238.5 0.499948C247.31 1.88995 256.31 2.88995 265.5 3.49995C271.37 4.91995 277.37 6.24995 283.5 7.49995C290.22 9.17995 296.89 11.1799 303.5 13.4999C305.51 14.9199 307.85 15.5899 310.5 15.4999C329.97 23.9099 348.3 34.5799 365.5 47.4999C367.81 49.4699 370.14 51.4699 372.5 53.4999C391.59 69.8999 407.26 88.8999 419.5 110.5C419.46 113.09 420.46 115.09 422.5 116.5C423.11 117.39 423.44 118.39 423.5 119.5C423.43 121.03 424.09 122.03 425.5 122.5C427.89 128.02 429.89 133.68 431.5 139.5C431.93 142.16 432.93 144.49 434.5 146.5C436.54 152.04 438.21 157.7 439.5 163.5C439.75 167.04 440.42 170.37 441.5 173.5C441.5 173.83 441.5 174.17 441.5 174.5C441.78 179.78 442.78 184.78 444.5 189.5C444.83 196.17 445.17 202.83 445.5 209.5C445.68 224.54 445.01 239.54 443.5 254.5C441.16 260.16 439.83 266.16 439.5 272.5C439.5 272.83 439.5 273.17 439.5 273.5C437.31 275.52 436.31 278.19 436.5 281.5C434.88 285.33 433.88 289.33 433.5 293.5C431.15 297.9 429.15 302.57 427.5 307.5C425.93 309.1 425.26 311.1 425.5 313.5C420.95 320.92 416.62 328.59 412.5 336.5C407.77 341.63 403.77 347.3 400.5 353.5C397.45 355.55 395.12 358.22 393.5 361.5C391.39 364.03 389.06 366.36 386.5 368.5C384.17 370.17 382.17 372.17 380.5 374.5C379.83 375.5 379.17 376.5 378.5 377.5C377.03 371.65 375.69 365.65 374.5 359.5C373.64 356.37 372.64 353.37 371.5 350.5C370.85 347.2 369.18 344.53 366.5 342.5C364.06 337.51 360.73 333.18 356.5 329.5C354.33 325.99 351.33 323.65 347.5 322.5C345.94 320.38 343.94 318.71 341.5 317.5C341.99 315.19 342.33 312.86 342.5 310.5C343.04 305.81 343.7 301.15 344.5 296.5C345.67 288 346.67 279.33 347.5 270.5C350.45 269.51 353.45 268.68 356.5 268C359.6 267.06 361.93 265.23 363.5 262.5C365.57 261.7 367.24 260.37 368.5 258.5C372.92 252.67 376.59 246.33 379.5 239.5C380.3 238.05 380.8 236.38 381 234.5C381.67 228.17 381.67 221.83 381 215.5C380.27 212.81 379.1 210.48 377.5 208.5C374.44 200.44 368.77 195.11 360.5 192.5C360.33 186.16 360.5 179.82 361 173.5C365.28 167.08 365.44 160.75 361.5 154.5C360.18 150.19 357.52 147.19 353.5 145.5C352.51 145.67 351.84 145.34 351.5 144.5C351.67 128.16 351.5 111.83 351 95.4999C349.3 93.6299 347.46 91.9599 345.5 90.4999C344.01 87.6799 341.67 86.0099 338.5 85.4999C335.5 83.8299 332.5 82.1699 329.5 80.4999C326.82 78.3999 323.99 76.3999 321 74.4999C320.82 70.6399 320.32 66.9799 319.5 63.4999C309.42 52.7799 297.42 44.7799 283.5 39.4999C271.41 32.8899 258.41 28.8899 244.5 27.4999C240.14 27.4099 235.81 27.0799 231.5 26.4999C223.12 25.1499 214.78 25.4799 206.5 27.4999C206.17 27.4999 205.83 27.4999 205.5 27.4999C202.81 27.3399 200.15 27.4999 197.5 27.9999C191.45 29.7499 185.45 31.2499 179.5 32.4999C175.47 33.0799 171.8 34.4199 168.5 36.4999C164.15 38.0099 160.15 40.0099 156.5 42.4999C151.46 43.5399 147.13 45.8699 143.5 49.4999C140.15 50.5199 137.49 52.5199 135.5 55.4999C127.38 59.5299 124.38 66.1999 126.5 75.4999C121.65 77.0899 117.32 79.4199 113.5 82.4999C109.98 83.7599 106.98 85.7599 104.5 88.4999C101.11 89.6199 98.2801 91.6199 96.0001 94.4999C95.5001 100.49 95.3301 106.49 95.5001 112.5C95.5001 123.17 95.5001 133.83 95.5001 144.5C84.8001 148.9 80.6301 156.9 83.0001 168.5C83.9401 170.73 85.1101 172.73 86.5001 174.5C86.4101 180.52 86.0701 186.52 85.5001 192.5C83.8201 192.89 82.1501 193.39 80.5001 194C78.3001 196.54 75.8001 198.71 73.0001 200.5C72.2101 201.74 71.7101 203.08 71.5001 204.5C69.8301 205.34 68.6601 206.68 68.0001 208.5C64.5201 219.38 64.6801 230.05 68.5001 240.5C69.9901 244.81 71.9901 248.81 74.5001 252.5C78.2101 258.54 83.2101 263.21 89.5001 266.5C91.7101 269.36 94.7101 270.69 98.5001 270.5C98.8401 271.34 99.5101 271.67 100.5 271.5C100.33 276.84 100.5 282.18 101 287.5C101.9 292.67 103.07 297.67 104.5 302.5C104.42 306.2 104.75 309.87 105.5 313.5C104.98 316.27 103.31 317.94 100.5 318.5C97.1101 319.35 94.7801 321.35 93.5001 324.5C90.8301 325.17 89.1701 326.83 88.5001 329.5C86.6601 330.4 85.3301 331.74 84.5001 333.5C81.4101 335.27 79.4101 337.93 78.5001 341.5C74.7701 347.73 71.9301 354.4 70.0001 361.5C69.6801 367.38 68.8501 373.05 67.5001 378.5C60.4801 371.48 53.8101 364.15 47.5001 356.5C46.5801 353.91 44.9101 351.91 42.5001 350.5C39.4101 344.66 35.5801 339.32 31.0001 334.5C30.3401 332.37 29.5101 330.37 28.5001 328.5C28.5701 326.97 27.9101 325.97 26.5001 325.5C25.3401 321.85 23.6701 318.52 21.5001 315.5C20.3501 311.2 18.6801 307.2 16.5001 303.5C16.0701 300.22 15.0701 297.22 13.5001 294.5C12.5001 291.83 11.5001 289.17 10.5001 286.5C10.5901 283.85 9.92007 281.51 8.50007 279.5C8.50007 279.17 8.50007 278.83 8.50007 278.5C8.74007 276.1 8.07007 274.1 6.50007 272.5C0.260072 243.96 -1.06993 215.29 2.50007 186.5C4.39007 179.06 5.73007 171.4 6.50007 163.5C7.92007 158.09 9.58007 152.76 11.5001 147.5C14.7601 138.06 18.4301 128.73 22.5001 119.5C22.3301 118.51 22.6601 117.84 23.5001 117.5C25.2901 115.57 26.2901 113.24 26.5001 110.5C32.4901 101.51 38.4901 92.5099 44.5001 83.4999C47.2201 81.7799 49.2201 79.4499 50.5001 76.4999C52.5301 75.1399 54.1901 73.4699 55.5001 71.4999C58.2101 69.7299 60.2101 67.3999 61.5001 64.4999C63.0301 64.5699 64.0301 63.9099 64.5001 62.4999C67.8901 58.0999 71.8901 54.4399 76.5001 51.4999C78.1901 50.1399 79.8601 48.7999 81.5001 47.4999C84.5301 45.9799 87.2001 43.9799 89.5001 41.4999C91.4001 41.2599 92.7401 40.2599 93.5001 38.4999C94.2201 37.4499 95.2201 36.7799 96.5001 36.4999C101.87 33.4799 107.2 30.4799 112.5 27.4999C113.9 26.1099 115.57 25.1099 117.5 24.4999C123.33 22.0899 128.99 19.4199 134.5 16.4999C138.88 15.3199 143.21 13.9899 147.5 12.4999C150.27 12.2399 152.61 11.2399 154.5 9.49995C156.12 8.95995 157.78 8.62995 159.5 8.49995C179.71 2.65995 200.38 -0.0100519 221.5 0.499948Z" fill="#0C0C0C"/>
<path fill-rule="evenodd" clip-rule="evenodd" d="M221.5 0.50001C200.38 -0.00998995 179.71 2.66001 159.5 8.50001C160.06 7.21001 161.06 6.38001 162.5 6.00001C182.03 0.90001 201.7 -0.92999 221.5 0.50001Z" fill="#AEAEAE"/>
<path fill-rule="evenodd" clip-rule="evenodd" d="M283.5 7.5C288.55 8.01 293.55 8.84 298.5 10C300.88 10.22 302.55 11.39 303.5 13.5C296.89 11.18 290.22 9.18 283.5 7.5Z" fill="#B5B5B5"/>
<path fill-rule="evenodd" clip-rule="evenodd" d="M154.5 9.5C152.61 11.24 150.27 12.24 147.5 12.5C149.39 10.76 151.73 9.76 154.5 9.5Z" fill="#555555"/>
<path fill-rule="evenodd" clip-rule="evenodd" d="M303.5 13.5001C306.15 13.4101 308.49 14.0801 310.5 15.5001C307.85 15.5901 305.51 14.9201 303.5 13.5001Z" fill="#A2A2A2"/>
<path fill-rule="evenodd" clip-rule="evenodd" d="M134.5 16.5C128.99 19.42 123.33 22.09 117.5 24.5C122.14 20.02 127.8 17.35 134.5 16.5Z" fill="#B1B1B1"/>
<path fill-rule="evenodd" clip-rule="evenodd" d="M231.5 26.5C223.16 26.61 214.82 26.95 206.5 27.5C214.78 25.48 223.12 25.15 231.5 26.5Z" fill="#7E7E7E"/>
<path fill-rule="evenodd" clip-rule="evenodd" d="M231.5 26.5C235.81 27.08 240.14 27.41 244.5 27.5C253.26 30.44 262.26 32.94 271.5 35C273.49 35.57 274.99 36.74 276 38.5C276.89 37.29 277.73 37.29 278.5 38.5C276.83 41.17 275.17 41.17 273.5 38.5C271.26 37.53 268.92 37.19 266.5 37.5C258.46 34.58 250.13 32.74 241.5 32C227.17 31.33 212.83 31.33 198.5 32C194.28 33.47 189.94 34.47 185.5 35C181.83 36.38 178.5 38.21 175.5 40.5C171.11 41.85 166.78 43.52 162.5 45.5C157.74 45.57 154.07 47.57 151.5 51.5C145.65 55.35 139.81 59.35 134 63.5C133.5 68.82 133.33 74.16 133.5 79.5C131.9 79.23 130.57 79.57 129.5 80.5C123.37 81.1 122.37 79.43 126.5 75.5C127.32 71.69 127.82 67.69 128 63.5C130.7 60.96 133.2 58.3 135.5 55.5C137.49 52.52 140.15 50.52 143.5 49.5C148.09 47.56 152.42 45.23 156.5 42.5C160.15 40.01 164.15 38.01 168.5 36.5C172.79 36.52 176.45 35.19 179.5 32.5C188.6 32.35 197.26 30.68 205.5 27.5C205.83 27.5 206.17 27.5 206.5 27.5C214.82 26.95 223.16 26.61 231.5 26.5Z" fill="#DEDEDE"/>
<path fill-rule="evenodd" clip-rule="evenodd" d="M205.5 27.5C197.26 30.68 188.6 32.35 179.5 32.5C185.45 31.25 191.45 29.75 197.5 28C200.15 27.5 202.81 27.34 205.5 27.5Z" fill="#A5A5A5"/>
<path fill-rule="evenodd" clip-rule="evenodd" d="M112.5 27.5C107.2 30.48 101.87 33.48 96.5 36.5C100.83 31.99 106.17 28.99 112.5 27.5Z" fill="#A8A8A8"/>
<path fill-rule="evenodd" clip-rule="evenodd" d="M266.5 37.5001C267.5 38.1701 268.5 38.8301 269.5 39.5001C237.94 29.9701 206.61 30.3001 175.5 40.5001C178.5 38.2101 181.83 36.3801 185.5 35.0001C189.94 34.4701 194.28 33.4701 198.5 32.0001C212.83 31.3301 227.17 31.3301 241.5 32.0001C250.13 32.7401 258.46 34.5801 266.5 37.5001Z" fill="#979797"/>
<path fill-rule="evenodd" clip-rule="evenodd" d="M179.5 32.5C176.45 35.19 172.79 36.52 168.5 36.5C171.8 34.42 175.47 33.08 179.5 32.5Z" fill="#7A7A7A"/>
<path fill-rule="evenodd" clip-rule="evenodd" d="M244.5 27.5C258.41 28.89 271.41 32.89 283.5 39.5C282.13 39.34 280.79 39.51 279.5 40C280.17 40.33 280.83 40.67 281.5 41C280.58 41.28 279.92 41.78 279.5 42.5C278.83 42.5 278.17 42.5 277.5 42.5C274.86 41.55 272.19 40.55 269.5 39.5C268.5 38.83 267.5 38.17 266.5 37.5C268.92 37.19 271.26 37.53 273.5 38.5C275.17 41.17 276.83 41.17 278.5 38.5C277.73 37.29 276.89 37.29 276 38.5C274.99 36.74 273.49 35.57 271.5 35C262.26 32.94 253.26 30.44 244.5 27.5Z" fill="#B9B9B9"/>
<path fill-rule="evenodd" clip-rule="evenodd" d="M93.5 38.5C92.74 40.26 91.4 41.26 89.5 41.5C90.26 39.74 91.6 38.74 93.5 38.5Z" fill="#727272"/>
<path fill-rule="evenodd" clip-rule="evenodd" d="M156.5 42.5C152.42 45.23 148.09 47.56 143.5 49.5C147.13 45.87 151.46 43.54 156.5 42.5Z" fill="#6C6C6C"/>
<path fill-rule="evenodd" clip-rule="evenodd" d="M89.5 41.5C87.2 43.98 84.53 45.98 81.5 47.5C83.37 44.55 86.04 42.55 89.5 41.5Z" fill="#626262"/>
<path fill-rule="evenodd" clip-rule="evenodd" d="M277.5 42.5C278.17 42.5 278.83 42.5 279.5 42.5C284.02 44.04 288.02 46.38 291.5 49.5C286.52 47.67 281.85 45.34 277.5 42.5Z" fill="#7A7A7A"/>
<path fill-rule="evenodd" clip-rule="evenodd" d="M162.5 45.5C159 47.75 155.33 49.75 151.5 51.5C154.07 47.57 157.74 45.57 162.5 45.5Z" fill="#A0A0A0"/>
<path fill-rule="evenodd" clip-rule="evenodd" d="M81.5 47.5C79.86 48.8 78.19 50.14 76.5 51.5C76.97 48.7 78.63 47.37 81.5 47.5Z" fill="#949494"/>
<path fill-rule="evenodd" clip-rule="evenodd" d="M365.5 47.5C369.09 48.09 371.42 50.09 372.5 53.5C370.14 51.47 367.81 49.47 365.5 47.5Z" fill="#A4A4A4"/>
<path fill-rule="evenodd" clip-rule="evenodd" d="M135.5 55.5C133.2 58.3 130.7 60.96 128 63.5C127.82 67.69 127.32 71.69 126.5 75.5C124.38 66.2 127.38 59.53 135.5 55.5Z" fill="#979797"/>
<path fill-rule="evenodd" clip-rule="evenodd" d="M64.5 62.5C64.03 63.91 63.03 64.57 61.5 64.5C61.97 63.09 62.97 62.43 64.5 62.5Z" fill="#7F7F7F"/>
<path fill-rule="evenodd" clip-rule="evenodd" d="M61.5 64.5C60.21 67.4 58.21 69.73 55.5 71.5C56.41 69.4 57.58 67.4 59 65.5C59.67 64.75 60.5 64.41 61.5 64.5Z" fill="#8D8D8D"/>
<path fill-rule="evenodd" clip-rule="evenodd" d="M283.5 39.5C297.42 44.78 309.42 52.78 319.5 63.5C316.71 73.01 320.04 78.68 329.5 80.5C332.5 82.17 335.5 83.83 338.5 85.5C340.55 87.55 342.88 89.21 345.5 90.5C346.29 91.97 346.29 93.3 345.5 94.5C343.55 93.63 341.55 92.96 339.5 92.5C338.61 91.89 337.61 91.56 336.5 91.5C335.71 90.21 334.71 89.04 333.5 88C333.83 87.67 334.17 87.33 334.5 87C330.43 86.89 326.76 85.72 323.5 83.5C322.51 83.67 321.84 83.34 321.5 82.5C319.91 80.69 317.91 79.36 315.5 78.5C314.83 73.35 314.17 68.35 313.5 63.5C306.39 58.37 299.06 53.71 291.5 49.5C288.02 46.38 284.02 44.04 279.5 42.5C279.92 41.78 280.58 41.28 281.5 41C280.83 40.67 280.17 40.33 279.5 40C280.79 39.51 282.13 39.34 283.5 39.5Z" fill="#E0E0E0"/>
<path fill-rule="evenodd" clip-rule="evenodd" d="M319.5 63.5C320.32 66.98 320.82 70.64 321 74.5C323.99 76.4 326.82 78.4 329.5 80.5C320.04 78.68 316.71 73.01 319.5 63.5Z" fill="#949494"/>
<path fill-rule="evenodd" clip-rule="evenodd" d="M126.5 75.5C122.37 79.43 123.37 81.1 129.5 80.5C128.22 81.93 126.55 82.6 124.5 82.5C123.29 81.43 121.79 80.76 120 80.5C117.56 80.48 115.39 81.15 113.5 82.5C117.32 79.42 121.65 77.09 126.5 75.5Z" fill="#A8A8A8"/>
<path fill-rule="evenodd" clip-rule="evenodd" d="M313.5 63.5C314.17 68.35 314.83 73.35 315.5 78.5C317.91 79.36 319.91 80.69 321.5 82.5C318.95 81.64 316.45 80.64 314 79.5C313.5 74.18 313.33 68.84 313.5 63.5Z" fill="#939393"/>
<path fill-rule="evenodd" clip-rule="evenodd" d="M50.5 76.5C49.22 79.45 47.22 81.78 44.5 83.5C45.81 80.53 47.81 78.19 50.5 76.5Z" fill="#969696"/>
<path fill-rule="evenodd" clip-rule="evenodd" d="M113.5 82.5C111.05 85.28 108.05 87.28 104.5 88.5C106.98 85.76 109.98 83.76 113.5 82.5Z" fill="#737373"/>
<path fill-rule="evenodd" clip-rule="evenodd" d="M323.5 83.5C326.76 85.72 330.43 86.89 334.5 87C334.17 87.33 333.83 87.67 333.5 88C334.71 89.04 335.71 90.21 336.5 91.5C333.17 89.17 329.5 87.33 325.5 86C324.62 85.29 323.95 84.46 323.5 83.5Z" fill="#9B9B9B"/>
<path fill-rule="evenodd" clip-rule="evenodd" d="M338.5 85.5C341.67 86.01 344.01 87.68 345.5 90.5C342.88 89.21 340.55 87.55 338.5 85.5Z" fill="#636363"/>
<path fill-rule="evenodd" clip-rule="evenodd" d="M44.5 83.5C38.49 92.51 32.49 101.51 26.5 110.5C31 100.37 37 91.37 44.5 83.5Z" fill="#999999"/>
<path fill-rule="evenodd" clip-rule="evenodd" d="M104.5 88.5C101.98 90.7 99.4799 93.03 96.9999 95.5C96.8299 101.35 96.3299 107.01 95.4999 112.5C95.3299 106.49 95.4999 100.49 95.9999 94.5C98.2799 91.62 101.11 89.62 104.5 88.5Z" fill="#919191"/>
<path fill-rule="evenodd" clip-rule="evenodd" d="M419.5 110.5C421.01 112.18 422.01 114.18 422.5 116.5C420.46 115.09 419.46 113.09 419.5 110.5Z" fill="#8F8F8F"/>
<path fill-rule="evenodd" clip-rule="evenodd" d="M26.5 110.5C26.29 113.24 25.29 115.57 23.5 117.5C23.55 114.65 24.55 112.32 26.5 110.5Z" fill="#888888"/>
<path fill-rule="evenodd" clip-rule="evenodd" d="M345.5 90.5C347.46 91.96 349.3 93.63 351 95.5C351.5 111.83 351.67 128.16 351.5 144.5C350.83 128.66 350.17 112.66 349.5 96.5C349.17 96.67 348.83 96.83 348.5 97C347.51 114.09 347.17 131.26 347.5 148.5C346.51 148.67 345.84 148.34 345.5 147.5C345.83 130.49 345.5 113.49 344.5 96.5C342.58 95.39 340.91 94.05 339.5 92.5C341.55 92.96 343.55 93.63 345.5 94.5C346.29 93.3 346.29 91.97 345.5 90.5Z" fill="#C6C6C6"/>
<path fill-rule="evenodd" clip-rule="evenodd" d="M423.5 119.5C424.91 119.97 425.57 120.97 425.5 122.5C424.09 122.03 423.43 121.03 423.5 119.5Z" fill="#838383"/>
<path fill-rule="evenodd" clip-rule="evenodd" d="M336.5 91.5C337.61 91.56 338.61 91.89 339.5 92.5C340.91 94.05 342.58 95.39 344.5 96.5C345.5 113.49 345.83 130.49 345.5 147.5C344.83 131 344.17 114.33 343.5 97.5C340.54 96.19 338.2 94.19 336.5 91.5Z" fill="#4A4A4A"/>
<path fill-rule="evenodd" clip-rule="evenodd" d="M22.5 119.5C18.43 128.73 14.76 138.06 11.5 147.5C13.12 139.25 15.62 131.25 19 123.5C19.5 121.46 20.66 120.12 22.5 119.5Z" fill="#727272"/>
<path fill-rule="evenodd" clip-rule="evenodd" d="M431.5 139.5C433.45 141.32 434.45 143.65 434.5 146.5C432.93 144.49 431.93 142.16 431.5 139.5Z" fill="#787878"/>
<path fill-rule="evenodd" clip-rule="evenodd" d="M100.5 146.5C100.17 148.83 98.83 150.17 96.5 150.5C97.33 148.74 98.66 147.4 100.5 146.5Z" fill="#686868"/>
<path fill-rule="evenodd" clip-rule="evenodd" d="M347.5 149.5C352.07 149.28 355.07 151.28 356.5 155.5C356.17 155.5 355.83 155.5 355.5 155.5C353.46 152.61 350.79 150.61 347.5 149.5Z" fill="#999999"/>
<path fill-rule="evenodd" clip-rule="evenodd" d="M353.5 145.5C357.52 147.19 360.18 150.19 361.5 154.5C358.08 152.09 355.42 149.09 353.5 145.5Z" fill="#9F9F9F"/>
<path fill-rule="evenodd" clip-rule="evenodd" d="M355.5 155.5C355.83 155.5 356.17 155.5 356.5 155.5C359.33 162.05 358.33 168.05 353.5 173.5C356.33 167.72 356.99 161.72 355.5 155.5Z" fill="#4B4B4B"/>
<path fill-rule="evenodd" clip-rule="evenodd" d="M124.5 82.4999C117.38 86.2299 110.71 90.7299 104.5 95.9999C103.55 96.4799 102.55 96.6499 101.5 96.4999C101.83 113.34 101.5 130.01 100.5 146.5C98.6602 147.4 97.3302 148.74 96.5002 150.5C89.4302 153.9 86.9302 159.57 89.0002 167.5C89.6602 168.98 90.5002 170.32 91.5002 171.5C94.6802 173.41 98.3502 174.08 102.5 173.5C102.58 174.93 102.25 176.26 101.5 177.5C99.2602 178.47 96.9202 178.81 94.5002 178.5C96.2902 177.69 98.2902 177.19 100.5 177C100.04 176.59 99.7102 176.09 99.5002 175.5C95.6902 174.45 92.1902 174.45 89.0002 175.5C88.9302 181.1 88.1002 186.43 86.5002 191.5C87.5802 185.68 87.5802 180.01 86.5002 174.5C85.1102 172.73 83.9402 170.73 83.0002 168.5C80.6302 156.9 84.8002 148.9 95.5002 144.5C95.5002 133.83 95.5002 123.17 95.5002 112.5C96.3302 107.01 96.8302 101.35 97.0002 95.4999C99.4802 93.0299 101.98 90.6999 104.5 88.4999C108.05 87.2799 111.05 85.2799 113.5 82.4999C115.39 81.1499 117.56 80.4799 120 80.4999C121.79 80.7599 123.29 81.4299 124.5 82.4999Z" fill="#D5D5D5"/>
<path fill-rule="evenodd" clip-rule="evenodd" d="M439.5 163.5C440.22 163.92 440.72 164.58 441 165.5C441.5 168.15 441.66 170.81 441.5 173.5C440.42 170.37 439.75 167.04 439.5 163.5Z" fill="#A6A6A6"/>
<path fill-rule="evenodd" clip-rule="evenodd" d="M275.5 170.5C284.94 170.1 294.27 170.77 303.5 172.5C306.54 173.01 309.54 173.68 312.5 174.5C312.97 175.91 313.97 176.57 315.5 176.5C315.5 177.5 315.5 178.5 315.5 179.5C312.83 179.17 310.17 178.83 307.5 178.5C301.53 177.99 295.86 178.99 290.5 181.5C286.28 182.05 283.62 184.38 282.5 188.5C279.77 190.07 277.94 192.4 277 195.5C276.33 200.5 276.33 205.5 277 210.5C277.52 213.28 278.69 215.61 280.5 217.5C283.4 222.9 287.74 226.73 293.5 229C296.17 229.57 298.83 230.07 301.5 230.5C304.5 230.5 307.5 230.5 310.5 230.5C310.28 232.66 309.28 234.33 307.5 235.5C306.83 235.5 306.5 235.83 306.5 236.5C305.17 236.5 303.83 236.5 302.5 236.5C290.8 236.75 279.14 236.41 267.5 235.5C267.17 235.5 266.83 235.5 266.5 235.5C264.62 234.25 262.62 233.08 260.5 232C259.21 231.51 257.87 231.34 256.5 231.5C255.66 229.24 253.99 228.24 251.5 228.5C245.94 224.62 241.94 219.62 239.5 213.5C237.33 207.27 236.99 200.94 238.5 194.5C238.5 193.17 238.5 191.83 238.5 190.5C239.17 190.17 239.83 189.83 240.5 189.5C243.83 186.83 246.83 183.83 249.5 180.5C249.5 179.83 249.83 179.5 250.5 179.5C256.57 176.8 262.57 174.13 268.5 171.5C270.72 170.63 273.05 170.3 275.5 170.5Z" fill="#FAFAFA"/>
<path fill-rule="evenodd" clip-rule="evenodd" d="M6.50017 163.5C5.73017 171.4 4.39017 179.06 2.50017 186.5C2.43017 178.47 3.77017 170.8 6.50017 163.5Z" fill="#909090"/>
<path fill-rule="evenodd" clip-rule="evenodd" d="M86.5 174.5C87.58 180.01 87.58 185.68 86.5 191.5C86.5 192.17 86.17 192.5 85.5 192.5C86.07 186.52 86.41 180.52 86.5 174.5Z" fill="#878787"/>
<path fill-rule="evenodd" clip-rule="evenodd" d="M307.5 178.5C311.03 180.27 314.7 182.1 318.5 184C322.57 187.88 325.57 192.38 327.5 197.5C327.67 201.85 327.5 206.18 327 210.5C325.34 213.33 324.17 216.33 323.5 219.5C317.36 225.9 310.03 229.57 301.5 230.5C298.83 230.07 296.17 229.57 293.5 229C287.74 226.73 283.4 222.9 280.5 217.5C275.88 207.28 276.54 197.61 282.5 188.5C285.19 186.14 287.86 183.8 290.5 181.5C295.86 178.99 301.53 177.99 307.5 178.5Z" fill="#0D0D0D"/>
<path fill-rule="evenodd" clip-rule="evenodd" d="M441.5 174.5C443.37 177.81 444.37 181.48 444.5 185.5C444.5 186.83 444.5 188.17 444.5 189.5C442.78 184.78 441.78 179.78 441.5 174.5Z" fill="#767676"/>
<path fill-rule="evenodd" clip-rule="evenodd" d="M360.5 192.5C368.77 195.11 374.44 200.44 377.5 208.5C380.64 218.64 381.31 228.98 379.5 239.5C376.59 246.33 372.92 252.67 368.5 258.5C366.02 258.77 364.35 260.11 363.5 262.5C361.93 265.23 359.6 267.06 356.5 268C353.45 268.68 350.45 269.51 347.5 270.5C346.67 279.33 345.67 288 344.5 296.5C343.88 296.61 343.38 296.94 343 297.5C342.67 299.5 342.33 301.5 342 303.5C340.96 296.2 340.46 288.87 340.5 281.5C340.5 279.5 340.5 277.5 340.5 275.5C341.17 271.17 341.83 266.83 342.5 262.5C350.66 257.69 357.99 251.69 364.5 244.5C369.41 235.58 370.74 226.08 368.5 216C365.98 211.92 363.31 207.92 360.5 204C358.87 203.51 357.2 203.34 355.5 203.5C355.16 198.07 355.66 192.74 357 187.5C357.22 189.97 358.39 191.64 360.5 192.5Z" fill="#F6F6F6"/>
<path fill-rule="evenodd" clip-rule="evenodd" d="M94.5001 178.5C93.0901 178.97 92.4301 179.97 92.5001 181.5C91.8301 188.01 91.1701 194.68 90.5001 201.5C77.7701 212.23 74.2701 225.56 80.0001 241.5C85.1701 248.67 91.3301 254.83 98.5001 260C100.75 260.86 102.58 260.36 104 258.5C104.23 259.74 104.73 260.74 105.5 261.5C105.5 262.17 105.83 262.5 106.5 262.5C106.5 269.83 106.5 277.17 106.5 284.5C106.89 287.72 106.39 290.72 105 293.5C104.61 287.14 103.94 280.8 103 274.5C102.62 273.94 102.12 273.61 101.5 273.5C101.67 272.51 101.34 271.84 100.5 271.5C99.5101 271.67 98.8401 271.34 98.5001 270.5C95.9501 268.42 92.9501 267.08 89.5001 266.5C83.2101 263.21 78.2101 258.54 74.5001 252.5C74.0301 247.65 72.0301 243.65 68.5001 240.5C67.5901 232.18 67.4301 223.85 68.0001 215.5C68.7201 211.62 69.8801 207.95 71.5001 204.5C71.7101 203.08 72.2101 201.74 73.0001 200.5C75.8001 198.71 78.3001 196.54 80.5001 194C82.1501 193.39 83.8201 192.89 85.5001 192.5C86.1701 192.5 86.5001 192.17 86.5001 191.5C88.1001 186.43 88.9301 181.1 89.0001 175.5C92.1901 174.45 95.6901 174.45 99.5001 175.5C99.7101 176.09 100.04 176.59 100.5 177C98.2901 177.19 96.2901 177.69 94.5001 178.5Z" fill="#F7F7F7"/>
<path fill-rule="evenodd" clip-rule="evenodd" d="M331.5 193.5C333.06 201.6 332.73 209.6 330.5 217.5C329.56 219.05 328.89 220.72 328.5 222.5C325.81 224.86 323.14 227.2 320.5 229.5C317.65 229.92 314.98 230.92 312.5 232.5C312.17 232 311.83 231.5 311.5 231C314.88 228.78 318.22 226.28 321.5 223.5C322.71 222.42 323.37 221.09 323.5 219.5C324.17 216.33 325.34 213.33 327 210.5C327.5 206.18 327.67 201.85 327.5 197.5C326.68 194.45 326.68 191.45 327.5 188.5C328.89 190.21 330.22 191.88 331.5 193.5Z" fill="#E5E5E5"/>
<path fill-rule="evenodd" clip-rule="evenodd" d="M238.5 194.5C236.99 200.94 237.33 207.27 239.5 213.5C238.03 212.65 237.2 211.32 237 209.5C236.33 204.83 236.33 200.17 237 195.5C237.38 194.94 237.88 194.61 238.5 194.5Z" fill="#B4B4B4"/>
<path fill-rule="evenodd" clip-rule="evenodd" d="M444.5 185.5C447.28 199.42 447.95 213.42 446.5 227.5C446.82 221.31 446.49 215.31 445.5 209.5C445.17 202.83 444.83 196.17 444.5 189.5C444.5 188.17 444.5 186.83 444.5 185.5Z" fill="#C1C1C1"/>
<path fill-rule="evenodd" clip-rule="evenodd" d="M282.5 188.5C276.54 197.61 275.88 207.28 280.5 217.5C278.69 215.61 277.52 213.28 277 210.5C276.33 205.5 276.33 200.5 277 195.5C277.94 192.4 279.77 190.07 282.5 188.5Z" fill="#828282"/>
<path fill-rule="evenodd" clip-rule="evenodd" d="M351.5 144.5C351.84 145.34 352.51 145.67 353.5 145.5C355.42 149.09 358.08 152.09 361.5 154.5C365.44 160.75 365.28 167.08 361 173.5C360.5 179.82 360.33 186.16 360.5 192.5C358.39 191.64 357.22 189.97 357 187.5C355.66 192.74 355.16 198.07 355.5 203.5C357.2 203.34 358.87 203.51 360.5 204C363.31 207.92 365.98 211.92 368.5 216C370.74 226.08 369.41 235.58 364.5 244.5C357.99 251.69 350.66 257.69 342.5 262.5C343.12 250.15 343.79 237.81 344.5 225.5C347.09 221.58 349.59 217.58 352 213.5C352.49 211.87 352.66 210.2 352.5 208.5C353.12 208.39 353.62 208.06 354 207.5C354.82 200.32 354.65 193.32 353.5 186.5C353.5 184.17 353.5 181.83 353.5 179.5C350.51 179 347.51 178.5 344.5 178C343.24 176.19 343.24 174.35 344.5 172.5C347.42 173.41 350.42 173.74 353.5 173.5C358.33 168.05 359.33 162.05 356.5 155.5C355.07 151.28 352.07 149.28 347.5 149.5C347.5 149.17 347.5 148.83 347.5 148.5C347.17 131.26 347.51 114.09 348.5 97C348.83 96.83 349.17 96.67 349.5 96.5C350.17 112.66 350.83 128.66 351.5 144.5Z" fill="#DEDEDE"/>
<path fill-rule="evenodd" clip-rule="evenodd" d="M331.5 193.5C333.5 196.39 334.5 199.73 334.5 203.5C334.96 208.78 333.62 213.45 330.5 217.5C332.73 209.6 333.06 201.6 331.5 193.5Z" fill="#AEAEAE"/>
<path fill-rule="evenodd" clip-rule="evenodd" d="M353.5 186.5C354.65 193.32 354.82 200.32 354 207.5C353.62 208.06 353.12 208.39 352.5 208.5C353.39 201.21 353.73 193.88 353.5 186.5Z" fill="#828282"/>
<path fill-rule="evenodd" clip-rule="evenodd" d="M120.5 162.5C124.75 161.02 127.42 162.68 128.5 167.5C128.03 169.13 127.03 170.3 125.5 171C126.17 171.33 126.83 171.67 127.5 172C125.6 173.11 123.77 173.28 122 172.5C120.93 175.56 118.77 177.06 115.5 177C116.17 177.33 116.83 177.67 117.5 178C112.45 183.11 113.11 183.61 119.5 179.5C120.11 179.62 120.44 179.96 120.5 180.5C119.66 180.84 119.33 181.51 119.5 182.5C117.75 184.25 116.42 186.25 115.5 188.5C112.92 189.05 111.92 190.71 112.5 193.5C110.02 195.86 109.02 198.86 109.5 202.5C109.61 205.2 109.95 207.87 110.5 210.5C110.75 211.71 111.41 212.38 112.5 212.5C111.77 216.26 113.11 218.93 116.5 220.5C124.05 230.36 134.05 236.03 146.5 237.5C146.61 238.12 146.94 238.62 147.5 239C156.5 239.67 165.5 239.67 174.5 239C177.46 238.72 180.12 237.89 182.5 236.5C191.08 233.55 197.75 228.21 202.5 220.5C205.36 217.44 207.2 213.78 208 209.5C208.67 204.17 208.67 198.83 208 193.5C207.3 191.42 206.14 189.75 204.5 188.5C203.58 185.91 201.91 183.91 199.5 182.5C196.53 179.35 193.2 176.69 189.5 174.5C187.9 172.93 185.9 172.26 183.5 172.5C181.34 171.53 179 170.7 176.5 170C168.12 169.23 159.79 169.39 151.5 170.5C151.59 169.5 151.25 168.67 150.5 168C148.83 167.67 147.17 167.33 145.5 167C157.85 167 170.18 167.67 182.5 169C189.49 171.58 195.99 175.08 202 179.5C202.74 178.36 203.57 178.36 204.5 179.5C204.83 179.33 205.17 179.17 205.5 179C201.92 175.58 197.92 172.75 193.5 170.5C197.23 166.91 201.07 166.91 205 170.5C206.03 170.16 206.53 169.5 206.5 168.5C207.5 169.17 208.5 169.83 209.5 170.5C210.83 171.17 211.83 172.17 212.5 173.5C211.5 173.5 210.5 173.5 209.5 173.5C209.33 174.82 209.66 175.99 210.5 177C213.05 179.3 216.05 180.63 219.5 181C218.57 181.39 217.91 182.05 217.5 183C219.75 192.06 221.41 201.23 222.5 210.5C223.56 207.14 223.56 203.48 222.5 199.5C224.32 199.54 226.32 199.2 228.5 198.5C228.29 196.86 228.62 195.36 229.5 194C229.17 193.83 228.83 193.67 228.5 193.5C227.72 194.73 227.22 196.06 227 197.5C224.34 193.97 224.5 190.3 227.5 186.5C228.8 187.09 229.63 188.09 230 189.5C230.5 189 231 188.5 231.5 188C228.73 185.62 228.06 182.79 229.5 179.5C230.73 180.65 230.73 181.82 229.5 183C230 183.5 230.5 184 231 184.5C233.97 181.87 237.31 179.87 241 178.5C241.5 179 242 179.5 242.5 180C240.58 180.36 238.91 181.19 237.5 182.5C237.71 183.09 238.04 183.59 238.5 184C236.51 186.66 234.51 189.33 232.5 192C232.64 192.77 232.98 193.44 233.5 194C229.99 199.18 229.99 204.35 233.5 209.5C233.15 210.7 232.65 210.7 232 209.5C231.33 210.5 231.33 211.5 232 212.5C232.67 211.17 233.33 211.17 234 212.5C233.64 207.19 233.64 201.86 234 196.5C234.78 193.82 236.11 191.48 238 189.5C238.4 189.73 238.57 190.06 238.5 190.5C238.5 191.83 238.5 193.17 238.5 194.5C237.88 194.61 237.38 194.94 237 195.5C236.33 200.17 236.33 204.83 237 209.5C237.2 211.32 238.03 212.65 239.5 213.5C241.94 219.62 245.94 224.62 251.5 228.5C252.9 229.89 254.57 230.89 256.5 231.5C259.31 233.9 262.64 235.23 266.5 235.5C266.83 235.5 267.17 235.5 267.5 235.5C269.21 236.74 271.21 237.41 273.5 237.5C273.92 238.22 274.58 238.72 275.5 239C284.17 239.67 292.83 239.67 301.5 239C303.65 238.9 305.32 238.07 306.5 236.5C306.5 235.83 306.83 235.5 307.5 235.5C312.27 234.39 316.6 232.39 320.5 229.5C323.14 227.2 325.81 224.86 328.5 222.5C328.65 223.55 328.48 224.55 328 225.5C325.73 227.45 324.07 229.78 323 232.5C322.67 232.17 322.33 231.83 322 231.5C318.1 234.4 313.93 236.9 309.5 239C305.46 239.57 301.63 240.73 298 242.5C297.44 241.98 296.77 241.64 296 241.5C290.66 243.01 285.33 243.68 280 243.5C275.77 241.94 271.27 240.27 266.5 238.5C264.96 239.75 263.46 239.75 262 238.5C261.54 239.74 262.04 240.58 263.5 241C263.17 241.33 262.83 241.67 262.5 242C266.65 241.96 266.48 242.79 262 244.5C260.19 243.39 259.35 244.06 259.5 246.5C261.45 246.77 262.95 246.11 264 244.5C264.93 247.04 266.76 248.04 269.5 247.5C269.41 250.4 270.74 252.07 273.5 252.5C270.12 252.04 266.79 251.37 263.5 250.5C259.89 248.95 256.22 247.29 252.5 245.5C251.39 245.44 250.39 245.11 249.5 244.5C247.74 241.04 245.07 239.71 241.5 240.5C244.3 247.05 246.8 253.71 249 260.5C249.71 261.38 250.54 262.05 251.5 262.5C251.5 262.83 251.5 263.17 251.5 263.5C251.77 266.12 251.44 268.62 250.5 271C245.13 272.84 239.79 274.34 234.5 275.5C229.7 276.36 224.87 277.03 220 277.5C212.44 276.38 204.94 274.88 197.5 273C192.25 271.76 190.42 268.6 192 263.5C192.72 262.94 193.56 262.61 194.5 262.5C197.02 263.76 199.69 264.43 202.5 264.5C204.85 265.66 207.19 266.66 209.5 267.5C213.85 268.78 218.35 269.78 223 270.5C224.11 268.96 225.61 268.3 227.5 268.5C229.9 268.74 231.9 268.07 233.5 266.5C235.79 266.41 237.79 265.74 239.5 264.5C241.22 264.37 242.88 264.04 244.5 263.5C245.61 262.05 245.78 260.39 245 258.5C241.65 248.24 237.49 238.57 232.5 229.5C232.74 227.1 232.07 225.1 230.5 223.5C227.51 217.07 222.51 214.91 215.5 217C214.24 218.74 213.24 220.57 212.5 222.5C209.46 228.24 206.13 233.9 202.5 239.5C198.94 242.11 195.27 244.44 191.5 246.5C188.06 247.06 185.06 248.39 182.5 250.5C170.93 253.29 159.27 253.95 147.5 252.5C146.83 252.5 146.17 252.5 145.5 252.5C138.45 250.37 131.45 248.04 124.5 245.5C124.03 244.09 123.03 243.43 121.5 243.5C120.08 241.29 118.08 240.46 115.5 241C116.27 249.78 116.94 258.61 117.5 267.5C117.31 275.06 117.98 282.39 119.5 289.5C119.52 294.95 120.52 299.95 122.5 304.5C122.95 309.34 124.11 314 126 318.5C126.38 319.94 127.21 320.94 128.5 321.5C128.83 322.83 129.17 324.17 129.5 325.5C127.65 325.86 125.65 325.86 123.5 325.5C126.9 323.13 126.57 320.79 122.5 318.5C121.89 319.59 122.23 320.75 123.5 322C122.84 323.49 121.84 324.65 120.5 325.5C119.46 323.55 118.46 321.55 117.5 319.5C116.58 320.13 115.58 320.46 114.5 320.5C112.73 312.86 111.06 305.2 109.5 297.5C109.5 294.83 109.5 292.17 109.5 289.5C109.51 276.11 108.17 263.77 105.5 252.5C105.67 244.49 105.5 236.49 105 228.5C94.47 214.75 90.3 199.08 92.5 181.5C92.43 179.97 93.09 178.97 94.5 178.5C96.92 178.81 99.26 178.47 101.5 177.5C102.25 176.26 102.58 174.93 102.5 173.5C98.35 174.08 94.68 173.41 91.5 171.5C92.22 171.08 92.72 170.42 93 169.5C93.33 169.83 93.67 170.17 94 170.5C94.67 163.83 95.33 163.83 96 170.5C97.81 170.32 99.81 169.65 102 168.5C103.76 168.94 103.6 169.44 101.5 170C105.79 172.9 109.46 172.06 112.5 167.5C116.25 166.27 119.91 164.77 123.5 163C122.55 162.52 121.55 162.35 120.5 162.5Z" fill="#101010"/>
<path fill-rule="evenodd" clip-rule="evenodd" d="M230.5 223.5C224.65 217.51 218.65 217.18 212.5 222.5C213.24 220.57 214.24 218.74 215.5 217C222.51 214.91 227.51 217.07 230.5 223.5Z" fill="#B6B6B6"/>
<path fill-rule="evenodd" clip-rule="evenodd" d="M112.5 212.5C113.81 215.13 115.15 217.79 116.5 220.5C113.11 218.93 111.77 216.26 112.5 212.5Z" fill="#646464"/>
<path fill-rule="evenodd" clip-rule="evenodd" d="M155.5 187.5C148.83 196.9 147.83 206.9 152.5 217.5C150.06 215.93 148.89 213.59 149 210.5C148.21 204.76 148.54 199.1 150 193.5C151.38 190.96 153.22 188.96 155.5 187.5Z" fill="#969696"/>
<path fill-rule="evenodd" clip-rule="evenodd" d="M112.5 193.5C111.17 199.83 111.17 206.17 112.5 212.5C111.41 212.38 110.75 211.71 110.5 210.5C109.95 207.87 109.61 205.2 109.5 202.5C109.02 198.86 110.02 195.86 112.5 193.5Z" fill="#909090"/>
<path fill-rule="evenodd" clip-rule="evenodd" d="M115.5 188.5C114.74 190.37 113.74 192.04 112.5 193.5C111.92 190.71 112.92 189.05 115.5 188.5Z" fill="#898989"/>
<path fill-rule="evenodd" clip-rule="evenodd" d="M199.5 182.5C201.91 183.91 203.58 185.91 204.5 188.5C202.09 187.09 200.42 185.09 199.5 182.5Z" fill="#8A8A8A"/>
<path fill-rule="evenodd" clip-rule="evenodd" d="M163.5 180.5C162.11 182.89 160.11 184.56 157.5 185.5C158.87 183.14 160.87 181.47 163.5 180.5Z" fill="#828282"/>
<path fill-rule="evenodd" clip-rule="evenodd" d="M187.5 174.5C188.17 174.5 188.83 174.5 189.5 174.5C193.2 176.69 196.53 179.35 199.5 182.5C200.42 185.09 202.09 187.09 204.5 188.5C206.14 189.75 207.3 191.42 208 193.5C208.67 198.83 208.67 204.17 208 209.5C207.2 213.78 205.36 217.44 202.5 220.5C204.73 214.52 206.4 208.35 207.5 202C208.15 197.31 206.82 193.31 203.5 190C202.55 189.52 201.55 189.35 200.5 189.5C200.67 186.2 200 185.87 198.5 188.5C202.07 196.09 202.41 203.76 199.5 211.5C202.46 192.38 194.46 181.38 175.5 178.5C181.21 176.74 186.54 177.74 191.5 181.5C191.83 181.33 192.17 181.17 192.5 181C191.02 179.43 189.35 178.09 187.5 177C188.6 176.23 188.6 175.4 187.5 174.5Z" fill="#CDCDCD"/>
<path fill-rule="evenodd" clip-rule="evenodd" d="M175.5 178.5C194.46 181.38 202.46 192.38 199.5 211.5C197.64 217.23 194.3 221.89 189.5 225.5C186.9 226.47 184.57 227.8 182.5 229.5C181.83 229.5 181.17 229.5 180.5 229.5C175.14 229.53 169.8 229.19 164.5 228.5C159.87 225.54 155.87 221.88 152.5 217.5C147.83 206.9 148.83 196.9 155.5 187.5C155.5 186.17 156.17 185.5 157.5 185.5C160.11 184.56 162.11 182.89 163.5 180.5C167.38 179.21 171.38 178.54 175.5 178.5Z" fill="#0E0E0E"/>
<path fill-rule="evenodd" clip-rule="evenodd" d="M183.5 172.5C184.51 173.67 185.85 174.34 187.5 174.5C188.6 175.4 188.6 176.23 187.5 177C189.35 178.09 191.02 179.43 192.5 181C192.17 181.17 191.83 181.33 191.5 181.5C186.54 177.74 181.21 176.74 175.5 178.5C171.38 178.54 167.38 179.21 163.5 180.5C160.87 181.47 158.87 183.14 157.5 185.5C156.17 185.5 155.5 186.17 155.5 187.5C153.22 188.96 151.38 190.96 150 193.5C148.54 199.1 148.21 204.76 149 210.5C148.89 213.59 150.06 215.93 152.5 217.5C152.29 219.14 152.62 220.64 153.5 222C155.79 223.29 157.79 224.96 159.5 227C161.02 228.01 162.69 228.51 164.5 228.5C165.93 229.54 167.6 230.2 169.5 230.5C173.68 231.17 178.02 231.83 182.5 232.5C180.52 234.56 178.18 235.9 175.5 236.5C170.94 238.04 166.1 238.71 161 238.5C156.14 238.37 151.31 238.04 146.5 237.5C134.05 236.03 124.05 230.36 116.5 220.5C115.15 217.79 113.81 215.13 112.5 212.5C111.17 206.17 111.17 199.83 112.5 193.5C113.74 192.04 114.74 190.37 115.5 188.5C116.42 186.25 117.75 184.25 119.5 182.5C123.22 179.97 127.22 177.97 131.5 176.5C136.87 174.62 142.2 172.95 147.5 171.5C153.49 171.1 159.49 170.77 165.5 170.5C171.53 171.04 177.53 171.7 183.5 172.5Z" fill="#FBFBFB"/>
<path fill-rule="evenodd" clip-rule="evenodd" d="M152.5 217.5C155.87 221.88 159.87 225.54 164.5 228.5C162.69 228.51 161.02 228.01 159.5 227C157.79 224.96 155.79 223.29 153.5 222C152.62 220.64 152.29 219.14 152.5 217.5Z" fill="#A0A0A0"/>
<path fill-rule="evenodd" clip-rule="evenodd" d="M230.5 223.5C230.26 225.9 230.93 227.9 232.5 229.5C237.04 240.59 241.04 251.92 244.5 263.5C242.88 264.04 241.22 264.37 239.5 264.5C233.86 264.81 228.36 265.81 223 267.5C218.66 267.24 214.16 267.24 209.5 267.5C207.19 266.66 204.85 265.66 202.5 264.5C200.77 263.62 199.44 262.29 198.5 260.5C202.8 247.59 207.47 234.92 212.5 222.5C218.65 217.18 224.65 217.51 230.5 223.5Z" fill="#FBFBFB"/>
<path fill-rule="evenodd" clip-rule="evenodd" d="M202.5 220.5C197.75 228.21 191.08 233.55 182.5 236.5C181.83 236.5 181.17 236.5 180.5 236.5C188.56 232.06 195.89 226.72 202.5 220.5Z" fill="#A8A8A8"/>
<path fill-rule="evenodd" clip-rule="evenodd" d="M92.4999 181.5C90.2999 199.08 94.4699 214.75 105 228.5C105.5 236.49 105.67 244.49 105.5 252.5C105.5 255.5 105.5 258.5 105.5 261.5C104.73 260.74 104.23 259.74 104 258.5C102.58 260.36 100.75 260.86 98.4999 260C91.3299 254.83 85.1699 248.67 79.9999 241.5C74.2699 225.56 77.7699 212.23 90.4999 201.5C91.1699 194.68 91.8299 188.01 92.4999 181.5Z" fill="#DEDEDE"/>
<path fill-rule="evenodd" clip-rule="evenodd" d="M230.5 223.5C232.07 225.1 232.74 227.1 232.5 229.5C230.93 227.9 230.26 225.9 230.5 223.5Z" fill="#939393"/>
<path fill-rule="evenodd" clip-rule="evenodd" d="M189.5 225.5C187.88 227.94 185.55 229.28 182.5 229.5C184.57 227.8 186.9 226.47 189.5 225.5Z" fill="#808080"/>
<path fill-rule="evenodd" clip-rule="evenodd" d="M251.5 228.5C253.99 228.24 255.66 229.24 256.5 231.5C254.57 230.89 252.9 229.89 251.5 228.5Z" fill="#A5A5A5"/>
<path fill-rule="evenodd" clip-rule="evenodd" d="M164.5 228.5C169.8 229.19 175.14 229.53 180.5 229.5C177.04 230.48 173.37 230.81 169.5 230.5C167.6 230.2 165.93 229.54 164.5 228.5Z" fill="#656565"/>
<path fill-rule="evenodd" clip-rule="evenodd" d="M202.5 220.5C195.89 226.72 188.56 232.06 180.5 236.5C178.83 236.5 177.17 236.5 175.5 236.5C178.18 235.9 180.52 234.56 182.5 232.5C178.02 231.83 173.68 231.17 169.5 230.5C173.37 230.81 177.04 230.48 180.5 229.5C181.17 229.5 181.83 229.5 182.5 229.5C185.55 229.28 187.88 227.94 189.5 225.5C194.3 221.89 197.64 217.23 199.5 211.5C202.41 203.76 202.07 196.09 198.5 188.5C200 185.87 200.67 186.2 200.5 189.5C201.55 189.35 202.55 189.52 203.5 190C206.82 193.31 208.15 197.31 207.5 202C206.4 208.35 204.73 214.52 202.5 220.5Z" fill="#EBEBEB"/>
<path fill-rule="evenodd" clip-rule="evenodd" d="M71.4999 204.5C69.8799 207.95 68.7199 211.62 67.9999 215.5C67.4299 223.85 67.5899 232.18 68.4999 240.5C64.6799 230.05 64.5199 219.38 67.9999 208.5C68.6599 206.68 69.8299 205.34 71.4999 204.5Z" fill="#A7A7A7"/>
<path fill-rule="evenodd" clip-rule="evenodd" d="M323.5 219.5C323.37 221.09 322.71 222.42 321.5 223.5C318.22 226.28 314.88 228.78 311.5 231C311.83 231.5 312.17 232 312.5 232.5C314.98 230.92 317.65 229.92 320.5 229.5C316.6 232.39 312.27 234.39 307.5 235.5C309.28 234.33 310.28 232.66 310.5 230.5C307.5 230.5 304.5 230.5 301.5 230.5C310.03 229.57 317.36 225.9 323.5 219.5Z" fill="#B6B6B6"/>
<path fill-rule="evenodd" clip-rule="evenodd" d="M256.5 231.5C257.87 231.34 259.21 231.51 260.5 232C262.62 233.08 264.62 234.25 266.5 235.5C262.64 235.23 259.31 233.9 256.5 231.5Z" fill="#8A8A8A"/>
<path fill-rule="evenodd" clip-rule="evenodd" d="M377.5 208.5C379.1 210.48 380.27 212.81 381 215.5C381.67 221.83 381.67 228.17 381 234.5C380.8 236.38 380.3 238.05 379.5 239.5C381.31 228.98 380.64 218.64 377.5 208.5Z" fill="#B7B7B7"/>
<path fill-rule="evenodd" clip-rule="evenodd" d="M267.5 235.5C279.14 236.41 290.8 236.75 302.5 236.5C297.92 237.99 293.09 238.66 288 238.5C283.15 238.32 278.31 237.99 273.5 237.5C271.21 237.41 269.21 236.74 267.5 235.5Z" fill="#CECECE"/>
<path fill-rule="evenodd" clip-rule="evenodd" d="M175.5 236.5C177.17 236.5 178.83 236.5 180.5 236.5C181.17 236.5 181.83 236.5 182.5 236.5C180.12 237.89 177.46 238.72 174.5 239C165.5 239.67 156.5 239.67 147.5 239C146.94 238.62 146.61 238.12 146.5 237.5C151.31 238.04 156.14 238.37 161 238.5C166.1 238.71 170.94 238.04 175.5 236.5Z" fill="#7E7E7E"/>
<path fill-rule="evenodd" clip-rule="evenodd" d="M302.5 236.5C303.83 236.5 305.17 236.5 306.5 236.5C305.32 238.07 303.65 238.9 301.5 239C292.83 239.67 284.17 239.67 275.5 239C274.58 238.72 273.92 238.22 273.5 237.5C278.31 237.99 283.15 238.32 288 238.5C293.09 238.66 297.92 237.99 302.5 236.5Z" fill="#3D3D3D"/>
<path fill-rule="evenodd" clip-rule="evenodd" d="M445.5 209.5C446.49 215.31 446.82 221.31 446.5 227.5C446.55 236.75 445.55 245.75 443.5 254.5C445.01 239.54 445.68 224.54 445.5 209.5Z" fill="#959595"/>
<path fill-rule="evenodd" clip-rule="evenodd" d="M249.5 244.5C247.11 244.68 246.11 246.02 246.5 248.5C248.17 253.17 249.83 257.83 251.5 262.5C250.54 262.05 249.71 261.38 249 260.5C246.8 253.71 244.3 247.05 241.5 240.5C245.07 239.71 247.74 241.04 249.5 244.5Z" fill="#ADADAD"/>
<path fill-rule="evenodd" clip-rule="evenodd" d="M121.5 243.5C123.03 243.43 124.03 244.09 124.5 245.5C130.71 249.81 137.71 252.14 145.5 252.5C146.17 252.5 146.83 252.5 147.5 252.5C147.92 253.22 148.58 253.72 149.5 254C156.83 254.67 164.17 254.67 171.5 254C175.61 253.88 179.28 252.72 182.5 250.5C183.87 250.66 185.21 250.49 186.5 250C188.43 249.1 190.1 247.93 191.5 246.5C194.68 246.5 197.51 245.5 200 243.5C197.65 250.82 194.32 257.82 190 264.5C189.41 267.74 190.25 270.57 192.5 273C198.14 275 203.81 276.67 209.5 278C216.17 278.67 222.83 278.67 229.5 278C231.65 277.9 233.32 277.07 234.5 275.5C240.7 275.53 246.7 274.53 252.5 272.5C252.81 269.29 252.48 266.29 251.5 263.5C251.5 263.17 251.5 262.83 251.5 262.5C249.83 257.83 248.17 253.17 246.5 248.5C246.11 246.02 247.11 244.68 249.5 244.5C250.39 245.11 251.39 245.44 252.5 245.5C252.39 246.12 252.06 246.62 251.5 247C255.33 248.79 259.33 249.96 263.5 250.5C264.09 251.15 264.76 251.82 265.5 252.5C279.86 256.43 294.19 256.26 308.5 252C313 249.91 317.33 247.74 321.5 245.5C323.5 244.83 325.5 244.17 327.5 243.5C328.59 243.62 329.25 244.29 329.5 245.5C327.5 259.43 326.17 273.43 325.5 287.5C325.5 292.17 325.5 296.83 325.5 301.5C324.35 301.79 323.68 302.62 323.5 304C321.76 313.55 318.26 322.38 313 330.5C308.93 335.06 305.1 339.73 301.5 344.5C299.21 345.14 297.54 346.47 296.5 348.5C295.17 349.5 293.83 350.5 292.5 351.5C291.45 351.35 290.45 351.52 289.5 352C285.18 354.63 281.18 357.47 277.5 360.5C275.46 361.03 273.79 362.2 272.5 364C271.21 364.49 269.87 364.66 268.5 364.5C261.94 366.05 255.6 368.05 249.5 370.5C249.17 370.5 248.83 370.5 248.5 370.5C246.71 370.37 245.04 370.7 243.5 371.5C231.27 373.28 218.93 373.95 206.5 373.5C206.17 373.5 205.83 373.5 205.5 373.5C203 372.63 200.33 371.96 197.5 371.5C195.26 371.79 193.26 371.46 191.5 370.5C191.39 369.88 191.06 369.38 190.5 369C185.9 367.53 181.24 366.37 176.5 365.5C172.3 362.42 167.63 360.09 162.5 358.5C159.79 357.37 157.45 355.71 155.5 353.5C154.42 351.41 152.75 350.08 150.5 349.5C148.19 347.36 145.69 345.36 143 343.5C138.25 337.6 133.75 331.6 129.5 325.5C129.17 324.17 128.83 322.83 128.5 321.5C126.87 315.61 124.87 309.94 122.5 304.5C120.52 299.95 119.52 294.95 119.5 289.5C119.5 285.83 119.5 282.17 119.5 278.5C119.61 269.26 118.94 260.1 117.5 251C117.67 248.17 117.83 245.33 118 242.5C119.01 243.34 120.18 243.67 121.5 243.5Z" fill="#FBFBFB"/>
<path fill-rule="evenodd" clip-rule="evenodd" d="M68.5 240.5C72.03 243.65 74.03 247.65 74.5 252.5C71.99 248.81 69.99 244.81 68.5 240.5Z" fill="#A7A7A7"/>
<path fill-rule="evenodd" clip-rule="evenodd" d="M232.5 229.5C237.49 238.57 241.65 248.24 245 258.5C245.78 260.39 245.61 262.05 244.5 263.5C241.04 251.92 237.04 240.59 232.5 229.5Z" fill="#838383"/>
<path fill-rule="evenodd" clip-rule="evenodd" d="M252.5 245.5C256.22 247.29 259.89 248.95 263.5 250.5C259.33 249.96 255.33 248.79 251.5 247C252.06 246.62 252.39 246.12 252.5 245.5Z" fill="#BEBEBE"/>
<path fill-rule="evenodd" clip-rule="evenodd" d="M191.5 246.5C190.1 247.93 188.43 249.1 186.5 250C185.21 250.49 183.87 250.66 182.5 250.5C185.06 248.39 188.06 247.06 191.5 246.5Z" fill="#9F9F9F"/>
<path fill-rule="evenodd" clip-rule="evenodd" d="M124.5 245.5C131.45 248.04 138.45 250.37 145.5 252.5C137.71 252.14 130.71 249.81 124.5 245.5Z" fill="#ACACAC"/>
<path fill-rule="evenodd" clip-rule="evenodd" d="M321.5 245.5C317.33 247.74 313 249.91 308.5 252C294.19 256.26 279.86 256.43 265.5 252.5C264.76 251.82 264.09 251.15 263.5 250.5C266.79 251.37 270.12 252.04 273.5 252.5C282.52 253.87 291.52 253.71 300.5 252C307.53 249.93 314.53 247.77 321.5 245.5Z" fill="#B2B2B2"/>
<path fill-rule="evenodd" clip-rule="evenodd" d="M121.5 243.5C120.18 243.67 119.01 243.34 118 242.5C117.83 245.33 117.67 248.17 117.5 251C118.94 260.1 119.61 269.26 119.5 278.5C118.83 274.83 118.17 271.17 117.5 267.5C116.94 258.61 116.27 249.78 115.5 241C118.08 240.46 120.08 241.29 121.5 243.5Z" fill="#A4A4A4"/>
<path fill-rule="evenodd" clip-rule="evenodd" d="M182.5 250.5C179.28 252.72 175.61 253.88 171.5 254C164.17 254.67 156.83 254.67 149.5 254C148.58 253.72 147.92 253.22 147.5 252.5C159.27 253.95 170.93 253.29 182.5 250.5Z" fill="#AFAFAF"/>
<path fill-rule="evenodd" clip-rule="evenodd" d="M212.5 222.5C207.47 234.92 202.8 247.59 198.5 260.5C199.44 262.29 200.77 263.62 202.5 264.5C199.69 264.43 197.02 263.76 194.5 262.5C193.56 262.61 192.72 262.94 192 263.5C190.42 268.6 192.25 271.76 197.5 273C204.94 274.88 212.44 276.38 220 277.5C224.87 277.03 229.7 276.36 234.5 275.5C233.32 277.07 231.65 277.9 229.5 278C222.83 278.67 216.17 278.67 209.5 278C203.81 276.67 198.14 275 192.5 273C190.25 270.57 189.41 267.74 190 264.5C194.32 257.82 197.65 250.82 200 243.5C197.51 245.5 194.68 246.5 191.5 246.5C195.27 244.44 198.94 242.11 202.5 239.5C206.13 233.9 209.46 228.24 212.5 222.5Z" fill="#BBBBBB"/>
<path fill-rule="evenodd" clip-rule="evenodd" d="M344.5 225.5C343.79 237.81 343.12 250.15 342.5 262.5C341.83 266.83 341.17 271.17 340.5 275.5C340.55 268.15 340.88 260.82 341.5 253.5C341.17 244.48 341.5 235.48 342.5 226.5C343.18 226.14 343.85 225.8 344.5 225.5Z" fill="#A6A6A6"/>
<path fill-rule="evenodd" clip-rule="evenodd" d="M330.5 252.5C328.61 264.15 326.95 275.81 325.5 287.5C326.17 273.43 327.5 259.43 329.5 245.5C329.25 244.29 328.59 243.62 327.5 243.5C327.81 242.52 328.48 241.86 329.5 241.5C330.49 245.11 330.82 248.77 330.5 252.5Z" fill="#D5D5D5"/>
<path fill-rule="evenodd" clip-rule="evenodd" d="M368.5 258.5C367.24 260.37 365.57 261.7 363.5 262.5C364.35 260.11 366.02 258.77 368.5 258.5Z" fill="#A3A3A3"/>
<path fill-rule="evenodd" clip-rule="evenodd" d="M330.5 252.5C329.24 264.8 328.4 277.13 328 289.5C327.47 293.7 326.64 297.7 325.5 301.5C325.5 296.83 325.5 292.17 325.5 287.5C326.95 275.81 328.61 264.15 330.5 252.5Z" fill="#949494"/>
<path fill-rule="evenodd" clip-rule="evenodd" d="M239.5 264.5C237.79 265.74 235.79 266.41 233.5 266.5C231.1 266.26 229.1 266.93 227.5 268.5C225.61 268.3 224.11 268.96 223 270.5C218.35 269.78 213.85 268.78 209.5 267.5C214.16 267.24 218.66 267.24 223 267.5C228.36 265.81 233.86 264.81 239.5 264.5Z" fill="#C6C6C6"/>
<path fill-rule="evenodd" clip-rule="evenodd" d="M233.5 266.5C231.9 268.07 229.9 268.74 227.5 268.5C229.1 266.93 231.1 266.26 233.5 266.5Z" fill="#5D5D5D"/>
<path fill-rule="evenodd" clip-rule="evenodd" d="M89.5 266.5C92.95 267.08 95.95 268.42 98.5 270.5C94.71 270.69 91.71 269.36 89.5 266.5Z" fill="#A0A0A0"/>
<path fill-rule="evenodd" clip-rule="evenodd" d="M443.5 254.5C442.62 260.72 441.29 266.72 439.5 272.5C439.83 266.16 441.16 260.16 443.5 254.5Z" fill="#808080"/>
<path fill-rule="evenodd" clip-rule="evenodd" d="M251.5 263.5C252.48 266.29 252.81 269.29 252.5 272.5C246.7 274.53 240.7 275.53 234.5 275.5C239.79 274.34 245.13 272.84 250.5 271C251.44 268.62 251.77 266.12 251.5 263.5Z" fill="#A3A3A3"/>
<path fill-rule="evenodd" clip-rule="evenodd" d="M439.5 273.5C438.83 276.17 438.17 278.83 437.5 281.5C437.17 281.5 436.83 281.5 436.5 281.5C436.31 278.19 437.31 275.52 439.5 273.5Z" fill="#565656"/>
<path fill-rule="evenodd" clip-rule="evenodd" d="M6.50013 272.5C8.07013 274.1 8.74013 276.1 8.50013 278.5C6.93013 276.9 6.26013 274.9 6.50013 272.5Z" fill="#868686"/>
<path fill-rule="evenodd" clip-rule="evenodd" d="M309.5 295.5C309.5 289.65 308.16 284.15 305.5 279C304.21 278.51 302.87 278.34 301.5 278.5C302.69 284.47 303.69 290.47 304.5 296.5C305.83 296.5 307.17 296.5 308.5 296.5C306.78 297.81 304.94 297.81 303 296.5C302.32 290.13 301.49 283.8 300.5 277.5C303.36 277.05 305.86 277.72 308 279.5C310.18 284.86 310.68 290.19 309.5 295.5Z" fill="#818181"/>
<path fill-rule="evenodd" clip-rule="evenodd" d="M309.5 295.5C309.5 296.17 309.17 296.5 308.5 296.5C307.17 296.5 305.83 296.5 304.5 296.5C303.69 290.47 302.69 284.47 301.5 278.5C302.87 278.34 304.21 278.51 305.5 279C308.16 284.15 309.5 289.65 309.5 295.5Z" fill="#0D0D0D"/>
<path fill-rule="evenodd" clip-rule="evenodd" d="M8.50018 279.5C9.92018 281.51 10.5902 283.85 10.5002 286.5C9.08018 284.49 8.41018 282.15 8.50018 279.5Z" fill="#A1A1A1"/>
<path fill-rule="evenodd" clip-rule="evenodd" d="M106.5 262.5C107.03 271.55 108.03 280.55 109.5 289.5C109.5 292.17 109.5 294.83 109.5 297.5C108.26 293.21 107.26 288.88 106.5 284.5C106.5 277.17 106.5 269.83 106.5 262.5Z" fill="#ADADAD"/>
<path fill-rule="evenodd" clip-rule="evenodd" d="M117.5 267.5C118.17 271.17 118.83 274.83 119.5 278.5C119.5 282.17 119.5 285.83 119.5 289.5C117.98 282.39 117.31 275.06 117.5 267.5Z" fill="#5D5D5D"/>
<path fill-rule="evenodd" clip-rule="evenodd" d="M105.5 252.5C108.17 263.77 109.51 276.11 109.5 289.5C108.03 280.55 107.03 271.55 106.5 262.5C105.83 262.5 105.5 262.17 105.5 261.5C105.5 258.5 105.5 255.5 105.5 252.5Z" fill="#474747"/>
<path fill-rule="evenodd" clip-rule="evenodd" d="M142.5 283.5C140.24 289.28 139.24 295.28 139.5 301.5C138.33 300.5 137.67 299.17 137.5 297.5C138.22 293.05 139.39 288.71 141 284.5C141.38 283.94 141.88 283.61 142.5 283.5Z" fill="#838383"/>
<path fill-rule="evenodd" clip-rule="evenodd" d="M149.5 283.5C148.57 290.07 147.23 296.57 145.5 303C143.4 305.82 141.4 305.65 139.5 302.5C141.04 303.3 142.71 303.63 144.5 303.5C144.66 296.34 146.33 289.67 149.5 283.5Z" fill="#ACACAC"/>
<path fill-rule="evenodd" clip-rule="evenodd" d="M341.5 253.5C340.88 260.82 340.55 268.15 340.5 275.5C340.5 277.5 340.5 279.5 340.5 281.5C339.21 289.37 337.88 297.37 336.5 305.5C336.17 305.5 335.83 305.5 335.5 305.5C337.44 288.06 339.44 270.73 341.5 253.5Z" fill="#484848"/>
<path fill-rule="evenodd" clip-rule="evenodd" d="M149.5 283.5C146.33 289.67 144.66 296.34 144.5 303.5C142.71 303.63 141.04 303.3 139.5 302.5C139.5 302.17 139.5 301.83 139.5 301.5C139.24 295.28 140.24 289.28 142.5 283.5C143.71 280.86 145.71 280.03 148.5 281C149.25 281.67 149.59 282.5 149.5 283.5Z" fill="#121212"/>
<path fill-rule="evenodd" clip-rule="evenodd" d="M100.5 271.5C101.34 271.84 101.67 272.51 101.5 273.5C102.83 283.13 103.83 292.8 104.5 302.5C103.07 297.67 101.9 292.67 101 287.5C100.5 282.18 100.33 276.84 100.5 271.5Z" fill="#9B9B9B"/>
<path fill-rule="evenodd" clip-rule="evenodd" d="M230.5 288.5C238.1 288.53 245.43 289.53 252.5 291.5C248.83 291.5 245.17 291.5 241.5 291.5C237.93 290.1 234.27 289.1 230.5 288.5Z" fill="#979797"/>
<path fill-rule="evenodd" clip-rule="evenodd" d="M230.5 288.5C234.27 289.1 237.93 290.1 241.5 291.5C231.52 290.67 221.52 290.33 211.5 290.5C217.58 288.82 223.92 288.16 230.5 288.5Z" fill="#4C4C4C"/>
<path fill-rule="evenodd" clip-rule="evenodd" d="M211.5 290.5C221.52 290.33 231.52 290.67 241.5 291.5C245.17 291.5 248.83 291.5 252.5 291.5C254.17 291.5 255.83 291.5 257.5 291.5C258.43 292.31 259.43 293.15 260.5 294C263.82 294.5 267.15 294.67 270.5 294.5C270.83 294.5 271.17 294.5 271.5 294.5C275.99 295.42 280.66 296.09 285.5 296.5C285.63 298.29 285.3 299.96 284.5 301.5C275.45 300.89 266.45 299.89 257.5 298.5C253.08 297.03 248.41 296.36 243.5 296.5C240.5 296.5 237.5 296.5 234.5 296.5C227.68 295.35 220.68 295.18 213.5 296C195.41 299.19 177.41 302.69 159.5 306.5C158.86 305.9 158.53 305.07 158.5 304C158.68 302.62 159.35 301.79 160.5 301.5C164.65 301.87 168.31 300.87 171.5 298.5C172.17 298.5 172.83 298.5 173.5 298.5C177.89 298.61 181.89 297.61 185.5 295.5C186.17 295.5 186.83 295.5 187.5 295.5C193.8 295.01 199.8 293.68 205.5 291.5C207.38 290.66 209.38 290.33 211.5 290.5Z" fill="#111111"/>
<path fill-rule="evenodd" clip-rule="evenodd" d="M257.5 291.5C260.52 291.34 263.52 291.5 266.5 292C268.32 292.2 269.65 293.03 270.5 294.5C267.15 294.67 263.82 294.5 260.5 294C259.43 293.15 258.43 292.31 257.5 291.5Z" fill="#8C8C8C"/>
<path fill-rule="evenodd" clip-rule="evenodd" d="M436.5 281.5C436.83 281.5 437.17 281.5 437.5 281.5C436.77 285.79 435.43 289.79 433.5 293.5C433.88 289.33 434.88 285.33 436.5 281.5Z" fill="#919191"/>
<path fill-rule="evenodd" clip-rule="evenodd" d="M205.5 291.5C199.8 293.68 193.8 295.01 187.5 295.5C193.13 293.11 199.13 291.78 205.5 291.5Z" fill="#4F4F4F"/>
<path fill-rule="evenodd" clip-rule="evenodd" d="M271.5 294.5C276.54 294.41 281.54 294.75 286.5 295.5C286.97 298.08 286.31 300.08 284.5 301.5C285.3 299.96 285.63 298.29 285.5 296.5C280.66 296.09 275.99 295.42 271.5 294.5Z" fill="#828282"/>
<path fill-rule="evenodd" clip-rule="evenodd" d="M185.5 295.5C181.89 297.61 177.89 298.61 173.5 298.5C177.2 296.72 181.2 295.72 185.5 295.5Z" fill="#545454"/>
<path fill-rule="evenodd" clip-rule="evenodd" d="M243.5 296.5C248.41 296.36 253.08 297.03 257.5 298.5C252.59 298.64 247.92 297.97 243.5 296.5Z" fill="#595959"/>
<path fill-rule="evenodd" clip-rule="evenodd" d="M171.5 298.5C168.31 300.87 164.65 301.87 160.5 301.5C163.8 299.52 167.47 298.52 171.5 298.5Z" fill="#676767"/>
<path fill-rule="evenodd" clip-rule="evenodd" d="M234.5 296.5C227.83 296.33 221.16 296.5 214.5 297C199.34 299.6 184.34 302.94 169.5 307C165.97 307.81 162.64 307.64 159.5 306.5C177.41 302.69 195.41 299.19 213.5 296C220.68 295.18 227.68 295.35 234.5 296.5Z" fill="#A6A6A6"/>
<path fill-rule="evenodd" clip-rule="evenodd" d="M13.5 294.5C15.07 297.22 16.07 300.22 16.5 303.5C14.53 300.92 13.53 297.92 13.5 294.5Z" fill="#7D7D7D"/>
<path fill-rule="evenodd" clip-rule="evenodd" d="M257.5 298.5C266.45 299.89 275.45 300.89 284.5 301.5C275.94 302.36 267.28 301.86 258.5 300C257.94 299.62 257.61 299.12 257.5 298.5Z" fill="#999999"/>
<path fill-rule="evenodd" clip-rule="evenodd" d="M16.5 303.5C18.68 307.2 20.35 311.2 21.5 315.5C18.29 312.23 16.63 308.23 16.5 303.5Z" fill="#999999"/>
<path fill-rule="evenodd" clip-rule="evenodd" d="M213.5 308.5C226.27 306.89 238.94 307.56 251.5 310.5C248.5 310.5 245.5 310.5 242.5 310.5C240.37 309.69 238.04 309.19 235.5 309C228.17 308.5 220.84 308.33 213.5 308.5Z" fill="#D0D0D0"/>
<path fill-rule="evenodd" clip-rule="evenodd" d="M213.5 308.5C220.84 308.33 228.17 308.5 235.5 309C238.04 309.19 240.37 309.69 242.5 310.5C231.5 309.17 220.5 309.17 209.5 310.5C210.83 309.83 212.17 309.17 213.5 308.5Z" fill="#8A8A8A"/>
<path fill-rule="evenodd" clip-rule="evenodd" d="M335.5 305.5C335.83 305.5 336.17 305.5 336.5 305.5C336.26 308.65 335.43 311.65 334 314.5C333.33 316.83 333.33 319.17 334 321.5C341.51 323.16 347.35 327.16 351.5 333.5C348.21 331.84 345.21 329.68 342.5 327C338.91 325.04 335.24 323.37 331.5 322C332.15 316.34 333.48 310.84 335.5 305.5Z" fill="#969696"/>
<path fill-rule="evenodd" clip-rule="evenodd" d="M122.5 304.5C124.87 309.94 126.87 315.61 128.5 321.5C127.21 320.94 126.38 319.94 126 318.5C124.11 314 122.95 309.34 122.5 304.5Z" fill="#A2A2A2"/>
<path fill-rule="evenodd" clip-rule="evenodd" d="M242.5 310.5C245.5 310.5 248.5 310.5 251.5 310.5C260.62 312.74 269.95 314.57 279.5 316C280.97 316.71 281.64 317.88 281.5 319.5C280.29 320.23 278.96 320.57 277.5 320.5C272.68 318.85 267.68 318.18 262.5 318.5C254.15 317.98 245.82 317.31 237.5 316.5C228.03 314.05 218.37 313.89 208.5 316C207.26 316.23 206.26 316.73 205.5 317.5C198.85 317.92 192.52 319.25 186.5 321.5C186.17 321.5 185.83 321.5 185.5 321.5C178.79 322.32 172.12 323.32 165.5 324.5C164.27 322.99 164.27 321.49 165.5 320C169.3 318.22 173.3 317.38 177.5 317.5C181.53 317.48 185.2 316.48 188.5 314.5C191.5 314.71 194.16 314.04 196.5 312.5C200.83 311.83 205.17 311.17 209.5 310.5C220.5 309.17 231.5 309.17 242.5 310.5Z" fill="#101010"/>
<path fill-rule="evenodd" clip-rule="evenodd" d="M427.5 307.5C427.74 309.9 427.07 311.9 425.5 313.5C425.26 311.1 425.93 309.1 427.5 307.5Z" fill="#969696"/>
<path fill-rule="evenodd" clip-rule="evenodd" d="M269.5 39.5001C272.19 40.5501 274.86 41.5501 277.5 42.5001C281.85 45.3401 286.52 47.6701 291.5 49.5001C299.06 53.7101 306.39 58.3701 313.5 63.5001C313.33 68.8401 313.5 74.18 314 79.5C316.45 80.64 318.95 81.64 321.5 82.5C321.84 83.34 322.51 83.67 323.5 83.5C323.95 84.46 324.62 85.29 325.5 86C329.5 87.33 333.17 89.17 336.5 91.5C338.2 94.19 340.54 96.1901 343.5 97.5001C344.17 114.33 344.83 131 345.5 147.5C345.84 148.34 346.51 148.67 347.5 148.5C347.5 148.83 347.5 149.17 347.5 149.5C350.79 150.61 353.46 152.61 355.5 155.5C356.99 161.72 356.33 167.72 353.5 173.5C350.42 173.74 347.42 173.41 344.5 172.5C343.24 174.35 343.24 176.19 344.5 178C347.51 178.5 350.51 179 353.5 179.5C353.5 181.83 353.5 184.17 353.5 186.5C353.73 193.88 353.39 201.21 352.5 208.5C352.66 210.2 352.49 211.87 352 213.5C349.59 217.58 347.09 221.58 344.5 225.5C343.85 225.8 343.18 226.14 342.5 226.5C341.5 235.48 341.17 244.48 341.5 253.5C339.44 270.73 337.44 288.06 335.5 305.5C333.48 310.84 332.15 316.34 331.5 322C335.24 323.37 338.91 325.04 342.5 327C345.21 329.68 348.21 331.84 351.5 333.5C353.15 336.81 355.48 339.48 358.5 341.5C360.74 346.26 363.24 350.93 366 355.5C367.6 361.96 369.1 368.3 370.5 374.5C370.67 377.85 370.5 381.18 370 384.5C365.67 387.73 361.51 391.07 357.5 394.5C355.61 395.6 353.94 396.94 352.5 398.5C346.95 401.1 341.95 404.44 337.5 408.5C335.85 408.66 334.51 409.33 333.5 410.5C327.46 413.52 321.46 416.52 315.5 419.5C312.84 419.93 310.51 420.93 308.5 422.5C302.62 424.13 296.95 426.13 291.5 428.5C286.49 429.56 281.49 430.72 276.5 432C275.94 432.38 275.61 432.88 275.5 433.5C274.17 433.5 272.83 433.5 271.5 433.5C254.32 436.63 236.98 438.3 219.5 438.5C216.17 438.5 212.83 438.5 209.5 438.5C198.62 438.14 187.95 436.81 177.5 434.5C173.99 433.34 170.32 432.34 166.5 431.5C166.17 431.5 165.83 431.5 165.5 431.5C162.86 429.69 159.86 428.69 156.5 428.5C141.35 424.57 127.02 418.9 113.5 411.5C112.09 409.46 110.09 408.46 107.5 408.5C95.74 401.57 84.74 393.57 74.5 384.5C75.08 380.19 75.41 375.86 75.5 371.5C75.5 370.83 75.5 370.17 75.5 369.5C76.61 367.4 77.28 365.07 77.5 362.5C77.5 362.17 77.5 361.83 77.5 361.5C80.54 354.42 83.87 347.42 87.5 340.5C88.83 339.83 89.83 338.83 90.5 337.5C92.54 336.42 93.88 334.75 94.5 332.5C96.96 329.88 99.63 327.54 102.5 325.5C106.83 324.43 110.83 322.76 114.5 320.5C115.58 320.46 116.58 320.13 117.5 319.5C118.46 321.55 119.46 323.55 120.5 325.5C121.84 324.65 122.84 323.49 123.5 322C122.23 320.75 121.89 319.59 122.5 318.5C126.57 320.79 126.9 323.13 123.5 325.5C125.65 325.86 127.65 325.86 129.5 325.5C133.75 331.6 138.25 337.6 143 343.5C145.69 345.36 148.19 347.36 150.5 349.5C151.58 351.59 153.25 352.92 155.5 353.5C157.45 355.71 159.79 357.37 162.5 358.5C166.7 361.58 171.37 363.91 176.5 365.5C181.01 368.22 186.01 369.89 191.5 370.5C193.26 371.46 195.26 371.79 197.5 371.5C197.61 372.12 197.94 372.62 198.5 373C200.81 373.5 203.14 373.66 205.5 373.5C205.83 373.5 206.17 373.5 206.5 373.5C208.61 374.47 210.94 374.8 213.5 374.5C224.15 376.11 234.82 375.61 245.5 373C246.94 372.62 247.94 371.79 248.5 370.5C248.83 370.5 249.17 370.5 249.5 370.5C256.47 370.18 262.81 368.18 268.5 364.5C269.87 364.66 271.21 364.49 272.5 364C273.79 362.2 275.46 361.03 277.5 360.5C282.96 358.27 287.96 355.27 292.5 351.5C293.83 350.5 295.17 349.5 296.5 348.5C298.75 347.92 300.42 346.59 301.5 344.5C314.94 333.31 322.94 318.97 325.5 301.5C326.64 297.7 327.47 293.7 328 289.5C328.4 277.13 329.24 264.8 330.5 252.5C330.82 248.77 330.49 245.11 329.5 241.5C328.48 241.86 327.81 242.52 327.5 243.5C325.5 244.17 323.5 244.83 321.5 245.5C314.53 247.77 307.53 249.93 300.5 252C291.52 253.71 282.52 253.87 273.5 252.5C270.74 252.07 269.41 250.4 269.5 247.5C266.76 248.04 264.93 247.04 264 244.5C262.95 246.11 261.45 246.77 259.5 246.5C259.35 244.06 260.19 243.39 262 244.5C266.48 242.79 266.65 241.96 262.5 242C262.83 241.67 263.17 241.33 263.5 241C262.04 240.58 261.54 239.74 262 238.5C263.46 239.75 264.96 239.75 266.5 238.5C271.27 240.27 275.77 241.94 280 243.5C285.33 243.68 290.66 243.01 296 241.5C296.77 241.64 297.44 241.98 298 242.5C301.63 240.73 305.46 239.57 309.5 239C313.93 236.9 318.1 234.4 322 231.5C322.33 231.83 322.67 232.17 323 232.5C324.07 229.78 325.73 227.45 328 225.5C328.48 224.55 328.65 223.55 328.5 222.5C328.89 220.72 329.56 219.05 330.5 217.5C333.62 213.45 334.96 208.78 334.5 203.5C334.5 199.73 333.5 196.39 331.5 193.5C331.63 191.35 331.13 189.35 330 187.5C327.97 184.31 325.47 181.64 322.5 179.5C319.76 176.8 316.43 175.13 312.5 174.5C309.54 173.68 306.54 173.01 303.5 172.5C301.69 170.8 299.36 169.97 296.5 170C289.32 169.18 282.32 169.35 275.5 170.5C273.05 170.3 270.72 170.63 268.5 171.5C264.31 171.95 260.31 173.12 256.5 175C253.89 175.79 251.89 177.29 250.5 179.5C249.83 179.5 249.5 179.83 249.5 180.5C245.5 182.5 242.5 185.5 240.5 189.5C239.83 189.83 239.17 190.17 238.5 190.5C238.57 190.06 238.4 189.73 238 189.5C236.11 191.48 234.78 193.82 234 196.5C233.64 201.86 233.64 207.19 234 212.5C233.33 211.17 232.67 211.17 232 212.5C231.33 211.5 231.33 210.5 232 209.5C232.65 210.7 233.15 210.7 233.5 209.5C229.99 204.35 229.99 199.18 233.5 194C232.98 193.44 232.64 192.77 232.5 192C234.51 189.33 236.51 186.66 238.5 184C238.04 183.59 237.71 183.09 237.5 182.5C238.91 181.19 240.58 180.36 242.5 180C242 179.5 241.5 179 241 178.5C237.31 179.87 233.97 181.87 231 184.5C230.5 184 230 183.5 229.5 183C230.73 181.82 230.73 180.65 229.5 179.5C228.06 182.79 228.73 185.62 231.5 188C231 188.5 230.5 189 230 189.5C229.63 188.09 228.8 187.09 227.5 186.5C224.5 190.3 224.34 193.97 227 197.5C227.22 196.06 227.72 194.73 228.5 193.5C228.83 193.67 229.17 193.83 229.5 194C228.62 195.36 228.29 196.86 228.5 198.5C226.32 199.2 224.32 199.54 222.5 199.5C223.56 203.48 223.56 207.14 222.5 210.5C221.41 201.23 219.75 192.06 217.5 183C217.91 182.05 218.57 181.39 219.5 181C216.05 180.63 213.05 179.3 210.5 177C209.66 175.99 209.33 174.82 209.5 173.5C210.5 173.5 211.5 173.5 212.5 173.5C221.16 177.82 229.49 177.49 237.5 172.5C240.12 171.21 242.45 169.55 244.5 167.5C248.15 166.34 251.48 164.67 254.5 162.5C261.67 160.38 269.01 159.05 276.5 158.5C278.57 158.18 278.9 157.34 277.5 156C265.5 155.5 253.5 155.33 241.5 155.5C220.14 154.84 199.14 155.51 178.5 157.5C186.19 159.83 193.85 162.5 201.5 165.5C202.66 167.25 204.33 168.25 206.5 168.5C206.53 169.5 206.03 170.16 205 170.5C201.07 166.91 197.23 166.91 193.5 170.5C197.92 172.75 201.92 175.58 205.5 179C205.17 179.17 204.83 179.33 204.5 179.5C203.57 178.36 202.74 178.36 202 179.5C195.99 175.08 189.49 171.58 182.5 169C170.18 167.67 157.85 167 145.5 167C147.17 167.33 148.83 167.67 150.5 168C151.25 168.67 151.59 169.5 151.5 170.5C149.9 170.23 148.57 170.57 147.5 171.5C141.86 171.77 136.53 173.1 131.5 175.5C127.44 176.36 123.77 178.03 120.5 180.5C120.44 179.96 120.11 179.62 119.5 179.5C113.11 183.61 112.45 183.11 117.5 178C116.83 177.67 116.17 177.33 115.5 177C118.77 177.06 120.93 175.56 122 172.5C123.77 173.28 125.6 173.11 127.5 172C126.83 171.67 126.17 171.33 125.5 171C127.03 170.3 128.03 169.13 128.5 167.5C127.42 162.68 124.75 161.02 120.5 162.5C115.83 161.34 113.16 163.01 112.5 167.5C109.46 172.06 105.79 172.9 101.5 170C103.6 169.44 103.76 168.94 102 168.5C99.81 169.65 97.81 170.32 96 170.5C95.33 163.83 94.67 163.83 94 170.5C93.67 170.17 93.33 169.83 93 169.5C92.72 170.42 92.22 171.08 91.5 171.5C90.5 170.32 89.66 168.98 89 167.5C86.93 159.57 89.43 153.9 96.5 150.5C98.83 150.17 100.17 148.83 100.5 146.5C101.5 130.01 101.83 113.34 101.5 96.5C102.55 96.65 103.55 96.48 104.5 96C110.71 90.73 117.38 86.23 124.5 82.5C126.55 82.6 128.22 81.93 129.5 80.5C130.57 79.57 131.9 79.23 133.5 79.5C133.33 74.16 133.5 68.8201 134 63.5001C139.81 59.3501 145.65 55.3501 151.5 51.5001C155.33 49.7501 159 47.7501 162.5 45.5001C166.78 43.5201 171.11 41.8501 175.5 40.5001C206.61 30.3001 237.94 29.9701 269.5 39.5001Z" fill="#0C0C0C"/>
<path fill-rule="evenodd" clip-rule="evenodd" d="M315.5 176.5C317.71 177.77 320.05 178.77 322.5 179.5C325.47 181.64 327.97 184.31 330 187.5C331.13 189.35 331.63 191.35 331.5 193.5C330.22 191.88 328.89 190.21 327.5 188.5C326.68 191.45 326.68 194.45 327.5 197.5C325.57 192.38 322.57 187.88 318.5 184C314.7 182.1 311.03 180.27 307.5 178.5C310.17 178.83 312.83 179.17 315.5 179.5C315.5 178.5 315.5 177.5 315.5 176.5Z" fill="#CBCBCB"/>
<path fill-rule="evenodd" clip-rule="evenodd" d="M249.5 180.5C246.83 183.83 243.83 186.83 240.5 189.5C242.5 185.5 245.5 182.5 249.5 180.5Z" fill="#979797"/>
<path fill-rule="evenodd" clip-rule="evenodd" d="M290.5 181.5C287.86 183.8 285.19 186.14 282.5 188.5C283.62 184.38 286.28 182.05 290.5 181.5Z" fill="#A3A3A3"/>
<path fill-rule="evenodd" clip-rule="evenodd" d="M131.5 175.5C131.5 175.83 131.5 176.17 131.5 176.5C127.22 177.97 123.22 179.97 119.5 182.5C119.33 181.51 119.66 180.84 120.5 180.5C123.77 178.03 127.44 176.36 131.5 175.5Z" fill="#505050"/>
<path fill-rule="evenodd" clip-rule="evenodd" d="M312.5 174.5C316.43 175.13 319.76 176.8 322.5 179.5C320.05 178.77 317.71 177.77 315.5 176.5C313.97 176.57 312.97 175.91 312.5 174.5Z" fill="#595959"/>
<path fill-rule="evenodd" clip-rule="evenodd" d="M268.5 171.5C262.57 174.13 256.57 176.8 250.5 179.5C251.89 177.29 253.89 175.79 256.5 175C260.31 173.12 264.31 171.95 268.5 171.5Z" fill="#929292"/>
<path fill-rule="evenodd" clip-rule="evenodd" d="M183.5 172.5C185.9 172.26 187.9 172.93 189.5 174.5C188.83 174.5 188.17 174.5 187.5 174.5C185.85 174.34 184.51 173.67 183.5 172.5Z" fill="#545454"/>
<path fill-rule="evenodd" clip-rule="evenodd" d="M147.5 171.5C142.2 172.95 136.87 174.62 131.5 176.5C131.5 176.17 131.5 175.83 131.5 175.5C136.53 173.1 141.86 171.77 147.5 171.5Z" fill="#9F9F9F"/>
<path fill-rule="evenodd" clip-rule="evenodd" d="M244.5 167.5C242.45 169.55 240.12 171.21 237.5 172.5C238.99 169.68 241.33 168.01 244.5 167.5Z" fill="#686868"/>
<path fill-rule="evenodd" clip-rule="evenodd" d="M275.5 170.5C282.32 169.35 289.32 169.18 296.5 170C299.36 169.97 301.69 170.8 303.5 172.5C294.27 170.77 284.94 170.1 275.5 170.5Z" fill="#454545"/>
<path fill-rule="evenodd" clip-rule="evenodd" d="M183.5 172.5C177.53 171.7 171.53 171.04 165.5 170.5C159.49 170.77 153.49 171.1 147.5 171.5C148.57 170.57 149.9 170.23 151.5 170.5C159.79 169.39 168.12 169.23 176.5 170C179 170.7 181.34 171.53 183.5 172.5Z" fill="#6C6C6C"/>
<path fill-rule="evenodd" clip-rule="evenodd" d="M201.5 165.5C202.87 165.34 204.21 165.51 205.5 166C207.64 166.88 208.97 168.38 209.5 170.5C208.5 169.83 207.5 169.17 206.5 168.5C204.33 168.25 202.66 167.25 201.5 165.5Z" fill="#A7A7A7"/>
<path fill-rule="evenodd" clip-rule="evenodd" d="M327.5 161.5C332.53 161.52 334.53 163.85 333.5 168.5C329.79 166.76 326.12 164.93 322.5 163C324.38 162.8 326.05 162.3 327.5 161.5Z" fill="#C3C3C3"/>
<path fill-rule="evenodd" clip-rule="evenodd" d="M254.5 162.5C251.48 164.67 248.15 166.34 244.5 167.5C247.25 164.79 250.58 163.13 254.5 162.5Z" fill="#989898"/>
<path fill-rule="evenodd" clip-rule="evenodd" d="M120.5 162.5C121.55 162.35 122.55 162.52 123.5 163C119.91 164.77 116.25 166.27 112.5 167.5C113.16 163.01 115.83 161.34 120.5 162.5Z" fill="#BEBEBE"/>
<path fill-rule="evenodd" clip-rule="evenodd" d="M178.5 157.5C187.07 157.93 194.73 160.6 201.5 165.5C193.85 162.5 186.19 159.83 178.5 157.5Z" fill="#808080"/>
<path fill-rule="evenodd" clip-rule="evenodd" d="M241.5 155.5C253.5 155.33 265.5 155.5 277.5 156C278.9 157.34 278.57 158.18 276.5 158.5C269.01 159.05 261.67 160.38 254.5 162.5C259.01 159.72 264.01 158.22 269.5 158C259.97 157.66 250.64 156.83 241.5 155.5Z" fill="#A3A3A3"/>
<path fill-rule="evenodd" clip-rule="evenodd" d="M241.5 155.5C250.64 156.83 259.97 157.66 269.5 158C264.01 158.22 259.01 159.72 254.5 162.5C250.58 163.13 247.25 164.79 244.5 167.5C241.33 168.01 238.99 169.68 237.5 172.5C229.49 177.49 221.16 177.82 212.5 173.5C211.83 172.17 210.83 171.17 209.5 170.5C208.97 168.38 207.64 166.88 205.5 166C204.21 165.51 202.87 165.34 201.5 165.5C194.73 160.6 187.07 157.93 178.5 157.5C199.14 155.51 220.14 154.84 241.5 155.5Z" fill="#ECECEC"/>
<path fill-rule="evenodd" clip-rule="evenodd" d="M332.5 103.5C333.5 115.32 333.83 127.32 333.5 139.5C331.26 139.79 329.26 139.46 327.5 138.5C329.17 138.5 330.83 138.5 332.5 138.5C332.5 126.83 332.5 115.17 332.5 103.5Z" fill="#5E5E5E"/>
<path fill-rule="evenodd" clip-rule="evenodd" d="M135.5 92.5C128.79 95.58 121.96 98.58 115 101.5C114.83 107.67 114.67 113.83 114.5 120C114.5 126.54 115.17 132.7 116.5 138.5C115.82 140.18 114.48 140.84 112.5 140.5C112.33 127.5 112.5 114.5 113 101.5C119.86 97.04 127.36 94.04 135.5 92.5Z" fill="#9A9A9A"/>
<path fill-rule="evenodd" clip-rule="evenodd" d="M151.5 87.5C148.92 89.47 145.92 90.47 142.5 90.5C145.14 88.69 148.14 87.69 151.5 87.5Z" fill="#A0A0A0"/>
<path fill-rule="evenodd" clip-rule="evenodd" d="M172.5 83.5001C167.95 84.4901 163.28 85.4901 158.5 86.5001C162.74 84.0401 167.4 83.0401 172.5 83.5001Z" fill="#878787"/>
<path fill-rule="evenodd" clip-rule="evenodd" d="M275.5 83.5C281.18 83.26 286.52 84.26 291.5 86.5C285.9 86.23 280.57 85.23 275.5 83.5Z" fill="#626262"/>
<path fill-rule="evenodd" clip-rule="evenodd" d="M191.5 80.5C189.5 81.17 187.5 81.83 185.5 82.5C181.19 83.08 176.86 83.41 172.5 83.5C178.56 81.55 184.89 80.55 191.5 80.5Z" fill="#797979"/>
<path fill-rule="evenodd" clip-rule="evenodd" d="M212.5 80.5C233.57 80.22 254.57 81.22 275.5 83.5C280.57 85.23 285.9 86.23 291.5 86.5C297.11 88.09 302.77 89.59 308.5 91C316.3 94.78 324.3 97.94 332.5 100.5C332.5 101.5 332.5 102.5 332.5 103.5C332.5 115.17 332.5 126.83 332.5 138.5C330.83 138.5 329.17 138.5 327.5 138.5C325.49 137.08 323.15 136.41 320.5 136.5C318.71 136.63 317.04 136.3 315.5 135.5C312.62 133.32 309.29 132.32 305.5 132.5C299.73 130.71 293.73 129.38 287.5 128.5C281.5 127.83 275.5 127.17 269.5 126.5C266.47 124.98 263.13 124.15 259.5 124C250.84 123.5 242.17 123.33 233.5 123.5C232.17 123.5 230.83 123.5 229.5 123.5C216.67 122.34 203.67 122.17 190.5 123C181.88 123.61 173.55 125.11 165.5 127.5C162.32 128.32 158.98 128.99 155.5 129.5C147.71 129.68 140.38 131.35 133.5 134.5C133.17 134.5 132.83 134.5 132.5 134.5C129.85 134.41 127.51 135.08 125.5 136.5C122.43 136.87 119.43 137.54 116.5 138.5C115.17 132.7 114.5 126.54 114.5 120C114.67 113.83 114.83 107.67 115 101.5C121.96 98.58 128.79 95.58 135.5 92.5C137.51 91.08 139.85 90.41 142.5 90.5C145.92 90.47 148.92 89.47 151.5 87.5C153.81 87.01 156.14 86.67 158.5 86.5C163.28 85.49 167.95 84.49 172.5 83.5C176.86 83.41 181.19 83.08 185.5 82.5C194.67 82.11 203.67 81.44 212.5 80.5Z" fill="#FDFDFD"/>
<path fill-rule="evenodd" clip-rule="evenodd" d="M320.5 136.5C323.15 136.41 325.49 137.08 327.5 138.5C324.85 138.59 322.51 137.92 320.5 136.5Z" fill="#A6A6A6"/>
<path fill-rule="evenodd" clip-rule="evenodd" d="M132.5 134.5C130.49 135.92 128.15 136.59 125.5 136.5C127.51 135.08 129.85 134.41 132.5 134.5Z" fill="#737373"/>
<path fill-rule="evenodd" clip-rule="evenodd" d="M305.5 132.5C309.29 132.32 312.62 133.32 315.5 135.5C311.92 135.02 308.58 134.02 305.5 132.5Z" fill="#A1A1A1"/>
<path fill-rule="evenodd" clip-rule="evenodd" d="M155.5 129.5C148.46 131.91 141.12 133.58 133.5 134.5C140.38 131.35 147.71 129.68 155.5 129.5Z" fill="#7D7D7D"/>
<path fill-rule="evenodd" clip-rule="evenodd" d="M287.5 128.5C293.73 129.38 299.73 130.71 305.5 132.5C300.39 132.57 295.39 131.9 290.5 130.5C289.5 129.83 288.5 129.17 287.5 128.5Z" fill="#868686"/>
<path fill-rule="evenodd" clip-rule="evenodd" d="M265.5 126.5C266.83 126.5 268.17 126.5 269.5 126.5C275.5 127.17 281.5 127.83 287.5 128.5C288.5 129.17 289.5 129.83 290.5 130.5C282.02 129.33 273.69 128 265.5 126.5Z" fill="#4C4C4C"/>
<path fill-rule="evenodd" clip-rule="evenodd" d="M233.5 124.5C233.5 124.17 233.5 123.83 233.5 123.5C242.17 123.33 250.84 123.5 259.5 124C263.13 124.15 266.47 124.98 269.5 126.5C268.17 126.5 266.83 126.5 265.5 126.5C254.87 125.36 244.2 124.69 233.5 124.5Z" fill="#ACACAC"/>
<path fill-rule="evenodd" clip-rule="evenodd" d="M229.5 123.5C230.83 123.5 232.17 123.5 233.5 123.5C233.5 123.83 233.5 124.17 233.5 124.5C215.45 124.12 197.45 124.78 179.5 126.5C179.61 125.88 179.94 125.38 180.5 125C196.81 123.74 213.14 123.24 229.5 123.5Z" fill="#676767"/>
<path fill-rule="evenodd" clip-rule="evenodd" d="M229.5 123.5C213.14 123.24 196.81 123.74 180.5 125C179.94 125.38 179.61 125.88 179.5 126.5C174.85 127 170.18 127.33 165.5 127.5C173.55 125.11 181.88 123.61 190.5 123C203.67 122.17 216.67 122.34 229.5 123.5Z" fill="#C2C2C2"/>
<path fill-rule="evenodd" clip-rule="evenodd" d="M191.5 80.5C192.17 80.5 192.83 80.5 193.5 80.5C199.83 80.5 206.17 80.5 212.5 80.5C203.67 81.44 194.67 82.11 185.5 82.5C187.5 81.83 189.5 81.17 191.5 80.5Z" fill="#D0D0D0"/>
<path fill-rule="evenodd" clip-rule="evenodd" d="M275.5 83.5C254.57 81.22 233.57 80.22 212.5 80.5C206.17 80.5 199.83 80.5 193.5 80.5C220.96 77.59 248.29 78.59 275.5 83.5Z" fill="#9B9B9B"/>
<path fill-rule="evenodd" clip-rule="evenodd" d="M196.5 312.5C194.16 314.04 191.5 314.71 188.5 314.5C190.84 312.96 193.5 312.29 196.5 312.5Z" fill="#575757"/>
<path fill-rule="evenodd" clip-rule="evenodd" d="M237.5 316.5C226.8 316.26 216.14 316.6 205.5 317.5C206.26 316.73 207.26 316.23 208.5 316C218.37 313.89 228.03 314.05 237.5 316.5Z" fill="#474747"/>
<path fill-rule="evenodd" clip-rule="evenodd" d="M251.5 310.5C261.23 311.25 270.9 312.41 280.5 314C282.55 315.68 282.89 317.51 281.5 319.5C281.64 317.88 280.97 316.71 279.5 316C269.95 314.57 260.62 312.74 251.5 310.5Z" fill="#979797"/>
<path fill-rule="evenodd" clip-rule="evenodd" d="M188.5 314.5C185.2 316.48 181.53 317.48 177.5 317.5C180.8 315.52 184.47 314.52 188.5 314.5Z" fill="#4D4D4D"/>
<path fill-rule="evenodd" clip-rule="evenodd" d="M342.5 310.5C342.33 312.86 341.99 315.19 341.5 317.5C340.35 315.05 340.69 312.71 342.5 310.5Z" fill="#5F5F5F"/>
<path fill-rule="evenodd" clip-rule="evenodd" d="M205.5 317.5C199.49 319.78 193.16 321.12 186.5 321.5C192.52 319.25 198.85 317.92 205.5 317.5Z" fill="#8D8D8D"/>
<path fill-rule="evenodd" clip-rule="evenodd" d="M262.5 318.5C267.68 318.18 272.68 318.85 277.5 320.5C277.08 321.12 276.42 321.46 275.5 321.5C271.01 320.61 266.67 319.61 262.5 318.5Z" fill="#5A5A5A"/>
<path fill-rule="evenodd" clip-rule="evenodd" d="M100.5 318.5C98.39 320.73 96.06 322.73 93.5 324.5C94.78 321.35 97.11 319.35 100.5 318.5Z" fill="#797979"/>
<path fill-rule="evenodd" clip-rule="evenodd" d="M114.5 320.5C110.83 322.76 106.83 324.43 102.5 325.5C105.69 322.31 109.69 320.65 114.5 320.5Z" fill="#707070"/>
<path fill-rule="evenodd" clip-rule="evenodd" d="M185.5 321.5C181.67 322.89 177.67 324.06 173.5 325C170.63 325.8 167.97 325.63 165.5 324.5C172.12 323.32 178.79 322.32 185.5 321.5Z" fill="#7D7D7D"/>
<path fill-rule="evenodd" clip-rule="evenodd" d="M211.5 324.5C215.15 323.83 218.98 323.5 223 323.5C229.07 323.34 234.91 324.01 240.5 325.5C239.17 325.5 237.83 325.5 236.5 325.5C234.5 325.5 232.5 325.5 230.5 325.5C224.36 324.51 218.02 324.18 211.5 324.5Z" fill="#BFBFBF"/>
<path fill-rule="evenodd" clip-rule="evenodd" d="M211.5 324.5C218.02 324.18 224.36 324.51 230.5 325.5C223.46 325.33 216.46 325.66 209.5 326.5C210.17 325.83 210.83 325.17 211.5 324.5Z" fill="#686868"/>
<path fill-rule="evenodd" clip-rule="evenodd" d="M347.5 322.5C351.33 323.65 354.33 325.99 356.5 329.5C353.21 327.54 350.21 325.21 347.5 322.5Z" fill="#6F6F6F"/>
<path fill-rule="evenodd" clip-rule="evenodd" d="M93.5 324.5C92.17 326.5 90.5 328.17 88.5 329.5C89.17 326.83 90.83 325.17 93.5 324.5Z" fill="#7C7C7C"/>
<path fill-rule="evenodd" clip-rule="evenodd" d="M211.5 324.5C210.83 325.17 210.17 325.83 209.5 326.5C208.83 326.5 208.17 326.5 207.5 326.5C205.1 326.26 203.1 326.93 201.5 328.5C197.95 329.88 194.29 330.88 190.5 331.5C194.08 329.79 197.75 327.95 201.5 326C204.83 325.39 208.16 324.89 211.5 324.5Z" fill="#AEAEAE"/>
<path fill-rule="evenodd" clip-rule="evenodd" d="M230.5 325.5C232.5 325.5 234.5 325.5 236.5 325.5C238.99 327.39 241.99 328.05 245.5 327.5C247.86 327.67 250.19 328.01 252.5 328.5C253.32 332.22 251.99 334.56 248.5 335.5C246.98 334.59 245.31 333.76 243.5 333C230.82 331.08 218.15 331.08 205.5 333C201.52 334.69 197.52 336.19 193.5 337.5C191.93 337.25 190.59 336.58 189.5 335.5C189.23 333.9 189.57 332.57 190.5 331.5C194.29 330.88 197.95 329.88 201.5 328.5C203.9 328.74 205.9 328.07 207.5 326.5C208.17 326.5 208.83 326.5 209.5 326.5C216.46 325.66 223.46 325.33 230.5 325.5Z" fill="#121212"/>
<path fill-rule="evenodd" clip-rule="evenodd" d="M236.5 325.5C237.83 325.5 239.17 325.5 240.5 325.5C242.17 326.17 243.83 326.83 245.5 327.5C241.99 328.05 238.99 327.39 236.5 325.5Z" fill="#535353"/>
<path fill-rule="evenodd" clip-rule="evenodd" d="M340.5 281.5C340.46 288.87 340.96 296.2 342 303.5C342.33 301.5 342.67 299.5 343 297.5C343.38 296.94 343.88 296.61 344.5 296.5C343.7 301.15 343.04 305.81 342.5 310.5C340.69 312.71 340.35 315.05 341.5 317.5C343.94 318.71 345.94 320.38 347.5 322.5C350.21 325.21 353.21 327.54 356.5 329.5C360.73 333.18 364.06 337.51 366.5 342.5C367.67 345.51 369.34 348.18 371.5 350.5C372.64 353.37 373.64 356.37 374.5 359.5C375.32 365.8 375.65 372.13 375.5 378.5C376.5 378.5 377.5 378.5 378.5 378.5C377.12 379.23 375.62 379.9 374 380.5C373.67 374.83 373.33 369.17 373 363.5C372.28 367.15 371.78 370.81 371.5 374.5C371.17 374.5 370.83 374.5 370.5 374.5C370.49 363.81 367.83 353.81 362.5 344.5C361.15 343.48 359.81 342.48 358.5 341.5C357.22 339.2 355.89 336.87 354.5 334.5C353.68 333.61 352.68 333.28 351.5 333.5C347.35 327.16 341.51 323.16 334 321.5C333.33 319.17 333.33 316.83 334 314.5C335.43 311.65 336.26 308.65 336.5 305.5C337.88 297.37 339.21 289.37 340.5 281.5Z" fill="#E9E9E9"/>
<path fill-rule="evenodd" clip-rule="evenodd" d="M26.5001 325.5C27.9101 325.97 28.5701 326.97 28.5001 328.5C27.0901 328.03 26.4301 327.03 26.5001 325.5Z" fill="#7D7D7D"/>
<path fill-rule="evenodd" clip-rule="evenodd" d="M207.5 326.5C205.9 328.07 203.9 328.74 201.5 328.5C203.1 326.93 205.1 326.26 207.5 326.5Z" fill="#525252"/>
<path fill-rule="evenodd" clip-rule="evenodd" d="M94.5 332.5C93.88 334.75 92.54 336.42 90.5 337.5C91.14 335.21 92.47 333.54 94.5 332.5Z" fill="#5C5C5C"/>
<path fill-rule="evenodd" clip-rule="evenodd" d="M248.5 335.5C237.01 332.84 225.34 332.01 213.5 333C207.03 334.55 200.7 336.38 194.5 338.5C193.17 338.33 191.83 338.17 190.5 338C189.75 337.33 189.41 336.5 189.5 335.5C190.59 336.58 191.93 337.25 193.5 337.5C197.52 336.19 201.52 334.69 205.5 333C218.15 331.08 230.82 331.08 243.5 333C245.31 333.76 246.98 334.59 248.5 335.5Z" fill="#B7B7B7"/>
<path fill-rule="evenodd" clip-rule="evenodd" d="M84.5 333.5C83.24 336.76 81.24 339.42 78.5 341.5C79.41 337.93 81.41 335.27 84.5 333.5Z" fill="#626262"/>
<path fill-rule="evenodd" clip-rule="evenodd" d="M325.5 301.5C322.94 318.97 314.94 333.31 301.5 344.5C305.1 339.73 308.93 335.06 313 330.5C318.26 322.38 321.76 313.55 323.5 304C323.68 302.62 324.35 301.79 325.5 301.5Z" fill="#8A8A8A"/>
<path fill-rule="evenodd" clip-rule="evenodd" d="M244.5 347.5C235.24 340.66 224.91 338.66 213.5 341.5C223.9 336.96 233.9 337.96 243.5 344.5C244.39 345.32 244.72 346.32 244.5 347.5Z" fill="#A8A8A8"/>
<path fill-rule="evenodd" clip-rule="evenodd" d="M351.5 333.5C352.68 333.28 353.68 333.61 354.5 334.5C355.89 336.87 357.22 339.2 358.5 341.5C355.48 339.48 353.15 336.81 351.5 333.5Z" fill="#999999"/>
<path fill-rule="evenodd" clip-rule="evenodd" d="M244.5 347.5C244.43 349.31 243.59 350.64 242 351.5C240.2 350.68 238.37 350.01 236.5 349.5C236.03 348.09 235.03 347.43 233.5 347.5C232.83 347.5 232.17 347.5 231.5 347.5C226.02 346.35 220.35 346.18 214.5 347C211.1 348.36 208.1 350.19 205.5 352.5C200.97 352.99 199.64 351.33 201.5 347.5C204.2 347.16 206.2 345.82 207.5 343.5C209.5 342.83 211.5 342.17 213.5 341.5C224.91 338.66 235.24 340.66 244.5 347.5Z" fill="#161616"/>
<path fill-rule="evenodd" clip-rule="evenodd" d="M412.5 336.5C409.59 341.93 406.42 347.26 403 352.5C402.33 353.25 401.5 353.59 400.5 353.5C403.77 347.3 407.77 341.63 412.5 336.5Z" fill="#A0A0A0"/>
<path fill-rule="evenodd" clip-rule="evenodd" d="M366.5 342.5C369.18 344.53 370.85 347.2 371.5 350.5C369.34 348.18 367.67 345.51 366.5 342.5Z" fill="#727272"/>
<path fill-rule="evenodd" clip-rule="evenodd" d="M207.5 343.5C206.2 345.82 204.2 347.16 201.5 347.5C202.8 345.18 204.8 343.84 207.5 343.5Z" fill="#919191"/>
<path fill-rule="evenodd" clip-rule="evenodd" d="M301.5 344.5C300.42 346.59 298.75 347.92 296.5 348.5C297.54 346.47 299.21 345.14 301.5 344.5Z" fill="#6A6A6A"/>
<path fill-rule="evenodd" clip-rule="evenodd" d="M231.5 347.5C226.49 347.33 221.49 347.5 216.5 348C213.04 350.07 209.37 351.57 205.5 352.5C208.1 350.19 211.1 348.36 214.5 347C220.35 346.18 226.02 346.35 231.5 347.5Z" fill="#929292"/>
<path fill-rule="evenodd" clip-rule="evenodd" d="M233.5 347.5C235.03 347.43 236.03 348.09 236.5 349.5C234.97 349.57 233.97 348.91 233.5 347.5Z" fill="#7A7A7A"/>
<path fill-rule="evenodd" clip-rule="evenodd" d="M87.5 340.5C83.87 347.42 80.54 354.42 77.5 361.5C78.46 353.25 81.8 346.25 87.5 340.5Z" fill="#858585"/>
<path fill-rule="evenodd" clip-rule="evenodd" d="M150.5 349.5C152.75 350.08 154.42 351.41 155.5 353.5C153.25 352.92 151.58 351.59 150.5 349.5Z" fill="#8F8F8F"/>
<path fill-rule="evenodd" clip-rule="evenodd" d="M358.5 341.5C359.81 342.48 361.15 343.48 362.5 344.5C367.83 353.81 370.49 363.81 370.5 374.5C369.1 368.3 367.6 361.96 366 355.5C363.24 350.93 360.74 346.26 358.5 341.5Z" fill="#9C9C9C"/>
<path fill-rule="evenodd" clip-rule="evenodd" d="M101.5 273.5C102.12 273.61 102.62 273.94 103 274.5C103.94 280.8 104.61 287.14 105 293.5C106.39 290.72 106.89 287.72 106.5 284.5C107.26 288.88 108.26 293.21 109.5 297.5C111.06 305.2 112.73 312.86 114.5 320.5C109.69 320.65 105.69 322.31 102.5 325.5C99.63 327.54 96.96 329.88 94.5 332.5C92.47 333.54 91.14 335.21 90.5 337.5C89.83 338.83 88.83 339.83 87.5 340.5C81.8 346.25 78.46 353.25 77.5 361.5C77.5 361.83 77.5 362.17 77.5 362.5C75.84 364.44 75.17 366.77 75.5 369.5C75.5 370.17 75.5 370.83 75.5 371.5C73.86 375.21 73.2 379.21 73.5 383.5C70.87 382.53 68.87 380.86 67.5 378.5C68.85 373.05 69.68 367.38 70 361.5C71.93 354.4 74.77 347.73 78.5 341.5C81.24 339.42 83.24 336.76 84.5 333.5C85.33 331.74 86.66 330.4 88.5 329.5C90.5 328.17 92.17 326.5 93.5 324.5C96.06 322.73 98.39 320.73 100.5 318.5C103.31 317.94 104.98 316.27 105.5 313.5C104.75 309.87 104.42 306.2 104.5 302.5C103.83 292.8 102.83 283.13 101.5 273.5Z" fill="#DDDDDD"/>
<path fill-rule="evenodd" clip-rule="evenodd" d="M42.5 350.5C44.91 351.91 46.58 353.91 47.5 356.5C45.09 355.09 43.42 353.09 42.5 350.5Z" fill="#848484"/>
<path fill-rule="evenodd" clip-rule="evenodd" d="M292.5 351.5C287.96 355.27 282.96 358.27 277.5 360.5C281.18 357.47 285.18 354.63 289.5 352C290.45 351.52 291.45 351.35 292.5 351.5Z" fill="#A0A0A0"/>
<path fill-rule="evenodd" clip-rule="evenodd" d="M400.5 353.5C399.25 355.93 397.75 358.27 396 360.5C395.33 361.25 394.5 361.59 393.5 361.5C395.12 358.22 397.45 355.55 400.5 353.5Z" fill="#B1B1B1"/>
<path fill-rule="evenodd" clip-rule="evenodd" d="M162.5 358.5C167.63 360.09 172.3 362.42 176.5 365.5C171.37 363.91 166.7 361.58 162.5 358.5Z" fill="#999999"/>
<path fill-rule="evenodd" clip-rule="evenodd" d="M77.5002 362.5C77.2802 365.07 76.6102 367.4 75.5002 369.5C75.1702 366.77 75.8402 364.44 77.5002 362.5Z" fill="#6B6B6B"/>
<path fill-rule="evenodd" clip-rule="evenodd" d="M268.5 364.5C262.81 368.18 256.47 370.18 249.5 370.5C255.6 368.05 261.94 366.05 268.5 364.5Z" fill="#878787"/>
<path fill-rule="evenodd" clip-rule="evenodd" d="M176.5 365.5C181.24 366.37 185.9 367.53 190.5 369C191.06 369.38 191.39 369.88 191.5 370.5C186.01 369.89 181.01 368.22 176.5 365.5Z" fill="#9D9D9D"/>
<path fill-rule="evenodd" clip-rule="evenodd" d="M386.5 368.5C386.17 372.17 384.17 374.17 380.5 374.5C382.17 372.17 384.17 370.17 386.5 368.5Z" fill="#B0B0B0"/>
<path fill-rule="evenodd" clip-rule="evenodd" d="M374.5 359.5C375.69 365.65 377.03 371.65 378.5 377.5C378.5 377.83 378.5 378.17 378.5 378.5C377.5 378.5 376.5 378.5 375.5 378.5C375.65 372.13 375.32 365.8 374.5 359.5Z" fill="#8E8E8E"/>
<path fill-rule="evenodd" clip-rule="evenodd" d="M197.5 371.5C200.33 371.96 203 372.63 205.5 373.5C203.14 373.66 200.81 373.5 198.5 373C197.94 372.62 197.61 372.12 197.5 371.5Z" fill="#848484"/>
<path fill-rule="evenodd" clip-rule="evenodd" d="M243.5 371.5C240.98 372.38 238.31 373.22 235.5 374C228.17 374.5 220.84 374.67 213.5 374.5C210.94 374.8 208.61 374.47 206.5 373.5C218.93 373.95 231.27 373.28 243.5 371.5Z" fill="#ABABAB"/>
<path fill-rule="evenodd" clip-rule="evenodd" d="M248.5 370.5C247.94 371.79 246.94 372.62 245.5 373C234.82 375.61 224.15 376.11 213.5 374.5C220.84 374.67 228.17 374.5 235.5 374C238.31 373.22 240.98 372.38 243.5 371.5C245.04 370.7 246.71 370.37 248.5 370.5Z" fill="#333333"/>
<path fill-rule="evenodd" clip-rule="evenodd" d="M75.4999 371.5C75.4099 375.86 75.0799 380.19 74.4999 384.5C73.8299 384.5 73.4999 384.17 73.4999 383.5C73.1999 379.21 73.8599 375.21 75.4999 371.5Z" fill="#4E4E4E"/>
<path fill-rule="evenodd" clip-rule="evenodd" d="M370.5 374.5C370.83 374.5 371.17 374.5 371.5 374.5C372.76 378.27 372.6 381.94 371 385.5C366.83 389.16 362.33 392.16 357.5 394.5C361.51 391.07 365.67 387.73 370 384.5C370.5 381.18 370.67 377.85 370.5 374.5Z" fill="#9D9D9D"/>
<path fill-rule="evenodd" clip-rule="evenodd" d="M352.5 398.5C352.49 400.02 351.82 401.18 350.5 402C346.68 402.83 343.68 404.83 341.5 408C340.21 408.49 338.87 408.66 337.5 408.5C341.95 404.44 346.95 401.1 352.5 398.5Z" fill="#B4B4B4"/>
<path fill-rule="evenodd" clip-rule="evenodd" d="M107.5 408.5C110.09 408.46 112.09 409.46 113.5 411.5C111.18 411.01 109.18 410.01 107.5 408.5Z" fill="#A0A0A0"/>
<path fill-rule="evenodd" clip-rule="evenodd" d="M333.5 410.5C333.59 411.5 333.25 412.33 332.5 413C327.05 415.87 321.39 418.04 315.5 419.5C321.46 416.52 327.46 413.52 333.5 410.5Z" fill="#B9B9B9"/>
<path fill-rule="evenodd" clip-rule="evenodd" d="M308.5 422.5C303.5 425.99 297.83 427.99 291.5 428.5C296.95 426.13 302.62 424.13 308.5 422.5Z" fill="#A0A0A0"/>
<path fill-rule="evenodd" clip-rule="evenodd" d="M156.5 428.5C159.86 428.69 162.86 429.69 165.5 431.5C162.08 431.47 159.08 430.47 156.5 428.5Z" fill="#5E5E5E"/>
<path fill-rule="evenodd" clip-rule="evenodd" d="M291.5 428.5C289.42 429.97 287.08 431.14 284.5 432C281.46 432.36 278.46 432.86 275.5 433.5C275.61 432.88 275.94 432.38 276.5 432C281.49 430.72 286.49 429.56 291.5 428.5Z" fill="#A2A2A2"/>
<path fill-rule="evenodd" clip-rule="evenodd" d="M166.5 431.5C170.32 432.34 173.99 433.34 177.5 434.5C175.14 434.66 172.81 434.5 170.5 434C168.68 433.8 167.35 432.97 166.5 431.5Z" fill="#9D9D9D"/>
<path fill-rule="evenodd" clip-rule="evenodd" d="M271.5 433.5C264.36 436.12 257.03 437.78 249.5 438.5C239.32 438.85 229.32 438.85 219.5 438.5C236.98 438.3 254.32 436.63 271.5 433.5Z" fill="#696969"/>
<path fill-rule="evenodd" clip-rule="evenodd" d="M209.5 438.5C212.83 438.5 216.17 438.5 219.5 438.5C229.32 438.85 239.32 438.85 249.5 438.5C241.69 439.63 233.69 440.3 225.5 440.5C219.92 440.63 214.59 439.97 209.5 438.5Z" fill="#C8C8C8"/>
</svg>
