<svg width="444" height="442" viewBox="0 0 444 442" fill="none" xmlns="http://www.w3.org/2000/svg">
<path fill-rule="evenodd" clip-rule="evenodd" d="M231.5 0.499954C239.214 0.289954 246.881 0.789954 254.5 1.99995C255.056 2.37995 255.389 2.87995 255.5 3.49995C247.371 2.48995 239.371 1.48995 231.5 0.499954Z" fill="#A1A1A1"/>
<path fill-rule="evenodd" clip-rule="evenodd" d="M213.5 0.50006C199.412 1.51006 185.412 3.51006 171.5 6.50006C184.985 2.06006 198.985 0.06006 213.5 0.50006Z" fill="#949494"/>
<path fill-rule="evenodd" clip-rule="evenodd" d="M213.5 0.5C219.5 0.5 225.5 0.5 231.5 0.5C239.371 1.49 247.371 2.49 255.5 3.5C255.833 3.5 256.167 3.5 256.5 3.5C265.777 5.33 275.11 7.33 284.5 9.5C293.598 11.31 302.265 14.31 310.5 18.5C313.74 20.95 317.407 22.62 321.5 23.5C329.072 26.95 336.405 30.95 343.5 35.5C344.802 37.82 346.802 39.16 349.5 39.5C353.104 42.97 357.104 45.97 361.5 48.5C361.81 50.14 362.81 51.14 364.5 51.5C395.932 77.29 417.932 109.62 430.5 148.5C430.723 152.16 431.723 155.5 433.5 158.5C433.5 158.83 433.5 159.17 433.5 159.5C433.12 161.7 433.787 163.36 435.5 164.5C435.5 165.17 435.5 165.83 435.5 166.5C435.961 172.16 437.294 177.5 439.5 182.5C440.023 190.6 441.023 198.6 442.5 206.5C442.674 224.24 441.674 241.91 439.5 259.5C437.522 271.43 434.522 283.1 430.5 294.5C428.266 298.52 426.599 302.86 425.5 307.5C422.716 311.4 420.716 315.74 419.5 320.5C417.613 322.79 416.279 325.46 415.5 328.5C413.659 330.85 412.326 333.52 411.5 336.5C408.893 337.71 407.226 339.71 406.5 342.5C404.511 345.81 402.511 349.14 400.5 352.5C397.444 354.95 395.111 357.95 393.5 361.5C388.861 366.47 384.195 371.47 379.5 376.5C376.5 378.83 373.833 381.5 371.5 384.5C369.205 385.14 367.539 386.47 366.5 388.5C364.973 388.43 363.973 389.09 363.5 390.5C361.81 390.86 360.81 391.86 360.5 393.5C356.268 395.4 352.601 398.07 349.5 401.5C347.847 401.66 346.514 402.33 345.5 403.5C342.63 404.43 340.296 406.1 338.5 408.5C336.847 408.66 335.514 409.33 334.5 410.5C332.326 410.75 330.659 411.75 329.5 413.5C323.883 415.64 318.55 418.31 313.5 421.5C312.504 421.41 311.671 421.75 311 422.5C310.5 393.5 310.333 364.5 310.5 335.5C313.379 328.62 316.712 321.95 320.5 315.5C322.723 312.2 324.39 308.53 325.5 304.5C327.165 298.52 328.831 292.52 330.5 286.5C331.913 283.78 332.58 280.78 332.5 277.5C332.5 276.17 332.5 274.83 332.5 273.5C346.143 268.99 356.477 260.33 363.5 247.5C365.873 245.42 367.206 242.75 367.5 239.5C367.5 238.83 367.5 238.17 367.5 237.5C369.58 238.04 371.58 238.88 373.5 240C376.333 240.17 379.167 240.33 382 240.5C386.442 240.67 390.609 240.01 394.5 238.5C397.016 238.24 399.35 237.41 401.5 236C403.686 232.82 406.186 229.99 409 227.5C409.667 222.17 409.667 216.83 409 211.5C407.588 209.94 406.421 208.27 405.5 206.5C403.404 203.74 400.738 201.74 397.5 200.5C394.809 197.82 391.475 196.49 387.5 196.5C383.1 194.9 378.434 194.23 373.5 194.5C372.494 194.06 372.494 193.4 373.5 192.5C375.328 191.21 377.328 190.21 379.5 189.5C379.608 187.22 380.441 185.22 382 183.5C382.667 178.83 382.667 174.17 382 169.5C380.52 166.18 378.02 164.18 374.5 163.5C367.984 158.74 360.984 154.74 353.5 151.5C352.089 149.46 350.089 148.46 347.5 148.5C343.257 145.98 338.924 143.64 334.5 141.5C332.855 118.89 331.855 96.22 331.5 73.5C331.256 70.74 329.923 68.57 327.5 67C319.846 61.74 312.179 56.57 304.5 51.5C299.95 48.39 294.95 46.06 289.5 44.5C287.497 42.02 284.831 41.02 281.5 41.5C278.912 39.41 275.912 38.07 272.5 37.5C271.105 35.62 269.105 34.62 266.5 34.5C260.99 34 255.656 33 250.5 31.5C248.162 29.96 245.495 29.29 242.5 29.5C239.167 29.5 235.833 29.5 232.5 29.5C218.932 28.18 205.265 28.68 191.5 31C190.944 31.38 190.611 31.88 190.5 32.5C188.097 32.45 185.764 32.78 183.5 33.5C173.161 35.83 163.494 39.5 154.5 44.5C139.237 49.89 125.737 58.22 114 69.5C113.5 93.5 113.333 117.5 113.5 141.5C110.088 142.04 107.088 143.38 104.5 145.5C98.598 148.07 92.931 151.07 87.5 154.5C82.173 156.16 77.507 158.83 73.5 162.5C70.393 163.89 67.393 165.56 64.5 167.5C63.575 168.36 62.908 169.36 62.5 170.5C61.527 172.95 61.194 175.61 61.5 178.5C61.502 182.16 62.835 185.16 65.5 187.5C66.701 189.91 68.367 191.91 70.5 193.5C64.689 195.09 58.689 196.43 52.5 197.5C47.407 198.88 43.074 201.55 39.5 205.5C37.413 206.58 36.08 208.25 35.5 210.5C34.21 211.06 33.377 212.06 33 213.5C32.833 215.5 32.667 217.5 32.5 219.5C32.539 221.95 33.206 223.95 34.5 225.5C36.071 231.4 39.737 235.4 45.5 237.5C46.78 238.93 48.447 239.6 50.5 239.5C54.794 240.6 59.294 241.27 64 241.5C67.451 241.58 70.618 240.91 73.5 239.5C75.117 238.96 76.784 238.63 78.5 238.5C78.707 241.24 79.707 243.57 81.5 245.5C86.179 256.35 93.846 264.52 104.5 270C106.813 270.66 109.146 271.16 111.5 271.5C111.655 280.6 113.322 289.27 116.5 297.5C118.368 303.58 120.534 309.58 123 315.5C123.377 316.94 124.21 317.94 125.5 318.5C125.5 319.17 125.5 319.83 125.5 320.5C126.34 322.85 127.674 324.85 129.5 326.5C131.181 329.2 132.847 331.87 134.5 334.5C134.667 363.84 134.5 393.17 134 422.5C132.989 421.66 131.822 421.33 130.5 421.5C106.993 410.87 85.66 396.7 66.5 379C63.331 374.66 59.664 370.83 55.5 367.5C54.243 364.57 52.243 362.24 49.5 360.5C45.736 353.98 41.236 347.98 36 342.5C30.2 331.9 24.7 321.23 19.5 310.5C18.679 306.87 17.346 303.54 15.5 300.5C14.739 296.22 13.405 292.22 11.5 288.5C11.59 285.85 10.924 283.51 9.49997 281.5C7.82997 274.06 6.16397 266.72 4.49997 259.5C4.67697 255.77 4.34397 252.1 3.49997 248.5C3.60497 244.45 3.27197 240.45 2.49997 236.5C1.30397 213.58 2.97097 190.91 7.49997 168.5C7.72097 165.93 8.38797 163.6 9.49997 161.5C12.853 150.77 16.52 140.1 20.5 129.5C21.338 129.16 21.672 128.49 21.5 127.5C25.671 119.7 29.671 111.7 33.5 103.5C35.954 101.71 37.621 99.38 38.5 96.5C40.156 94.54 41.823 92.54 43.5 90.5C43.328 89.51 43.662 88.84 44.5 88.5C48.064 84.39 51.397 80.05 54.5 75.5C55.167 75.5 55.5 75.17 55.5 74.5C60.151 70.18 64.484 65.51 68.5 60.5C71.109 59.56 73.109 57.89 74.5 55.5C76.191 54.14 77.858 52.8 79.5 51.5C81.549 50.12 83.215 48.45 84.5 46.5C88.272 43.38 92.272 40.71 96.5 38.5C102.339 35.42 108.006 32.08 113.5 28.5C113.5 27.83 113.833 27.5 114.5 27.5C118.151 26.34 121.485 24.67 124.5 22.5C125.209 21.6 126.209 21.26 127.5 21.5C131.917 20.59 135.917 18.92 139.5 16.5C143.105 14.19 147.105 12.85 151.5 12.5C158.444 11.35 165.111 9.35 171.5 6.5C185.412 3.51 199.412 1.51 213.5 0.5Z" fill="#0C0C0C"/>
<path fill-rule="evenodd" clip-rule="evenodd" d="M256.5 3.49997C266.484 3.37997 275.817 5.37997 284.5 9.49997C275.11 7.32997 265.777 5.32997 256.5 3.49997Z" fill="#A1A1A1"/>
<path fill-rule="evenodd" clip-rule="evenodd" d="M171.5 6.5C165.111 9.35 158.444 11.35 151.5 12.5C152.6 11.44 153.934 10.61 155.5 10C160.872 8.93 166.205 7.76 171.5 6.5Z" fill="#434343"/>
<path fill-rule="evenodd" clip-rule="evenodd" d="M310.5 18.5C314.836 18.84 318.503 20.5 321.5 23.5C317.407 22.62 313.74 20.95 310.5 18.5Z" fill="#A6A6A6"/>
<path fill-rule="evenodd" clip-rule="evenodd" d="M139.5 16.5C135.917 18.92 131.917 20.59 127.5 21.5C129.48 19.55 131.813 18.05 134.5 17C136.134 16.51 137.801 16.34 139.5 16.5Z" fill="#707070"/>
<path fill-rule="evenodd" clip-rule="evenodd" d="M124.5 22.5C121.485 24.67 118.151 26.34 114.5 27.5C117.247 24.79 120.58 23.13 124.5 22.5Z" fill="#9B9B9B"/>
<path fill-rule="evenodd" clip-rule="evenodd" d="M232.5 29.5C223.787 29.25 215.12 29.75 206.5 31C216.791 32.17 227.124 32.84 237.5 33C238.942 33.38 239.942 34.21 240.5 35.5C226.803 34.1 213.137 34.27 199.5 36C190.128 38.4 180.794 40.9 171.5 43.5C160.779 48.2 150.113 52.86 139.5 57.5C158.91 44.98 180.244 37.15 203.5 34C202.833 33.67 202.167 33.33 201.5 33C202.833 32.67 204.167 32.33 205.5 32C200.489 31.61 195.489 31.78 190.5 32.5C190.611 31.88 190.944 31.38 191.5 31C205.265 28.68 218.932 28.18 232.5 29.5Z" fill="#B6B6B6"/>
<path fill-rule="evenodd" clip-rule="evenodd" d="M242.5 29.5C245.495 29.29 248.162 29.96 250.5 31.5C247.572 31.43 244.905 30.77 242.5 29.5Z" fill="#626262"/>
<path fill-rule="evenodd" clip-rule="evenodd" d="M113.5 28.5C108.006 32.08 102.339 35.42 96.5 38.5C101.379 33.89 107.046 30.56 113.5 28.5Z" fill="#797979"/>
<path fill-rule="evenodd" clip-rule="evenodd" d="M232.5 29.5C235.833 29.5 239.167 29.5 242.5 29.5C244.905 30.77 247.572 31.43 250.5 31.5C255.656 33 260.99 34 266.5 34.5C267.911 36.54 269.911 37.54 272.5 37.5C275.912 38.07 278.912 39.41 281.5 41.5C280.761 41.37 280.094 41.54 279.5 42C280.711 42.89 280.711 43.73 279.5 44.5C277.929 43.69 276.262 43.36 274.5 43.5C273.833 43.5 273.167 43.5 272.5 43.5C269.341 42.67 266.341 41.67 263.5 40.5C256.693 36.97 249.36 35.3 241.5 35.5C241.167 35.5 240.833 35.5 240.5 35.5C239.942 34.21 238.942 33.38 237.5 33C227.124 32.84 216.791 32.17 206.5 31C215.12 29.75 223.787 29.25 232.5 29.5Z" fill="#E1E1E1"/>
<path fill-rule="evenodd" clip-rule="evenodd" d="M266.5 34.5C269.105 34.62 271.105 35.62 272.5 37.5C269.911 37.54 267.911 36.54 266.5 34.5Z" fill="#666666"/>
<path fill-rule="evenodd" clip-rule="evenodd" d="M240.5 35.5001C240.833 35.5001 241.167 35.5001 241.5 35.5001C241.918 36.2201 242.584 36.7201 243.5 37.0001C250.355 37.2301 257.022 38.4001 263.5 40.5001C266.341 41.6701 269.341 42.6701 272.5 43.5001C275.053 45.5801 278.053 46.9201 281.5 47.5001C287.282 50.6001 293.282 53.2701 299.5 55.5001C308.53 60.0101 317.197 65.0101 325.5 70.5001C325.5 92.5001 325.5 114.5 325.5 136.5C322.62 136.06 319.954 135.06 317.5 133.5C316.128 132.49 314.795 131.49 313.5 130.5C311.68 128.55 309.346 127.55 306.5 127.5C306.158 126.66 305.492 126.33 304.5 126.5C302.388 124.23 299.721 122.9 296.5 122.5C284.105 116.82 271.105 113.15 257.5 111.5C231.621 107.41 205.621 107.57 179.5 112C178.584 112.28 177.918 112.78 177.5 113.5C174.37 113.7 171.37 114.37 168.5 115.5C165.848 115.41 163.515 116.08 161.5 117.5C158.235 119.03 154.902 120.37 151.5 121.5C147.592 122.77 143.925 124.44 140.5 126.5C136.342 127.67 132.675 129.67 129.5 132.5C126.523 133.32 123.856 134.66 121.5 136.5C120.503 114.67 120.169 92.6701 120.5 70.5001C120.5 70.1701 120.5 69.8301 120.5 69.5001C127.077 65.6501 133.41 61.6501 139.5 57.5001C150.113 52.8601 160.779 48.2001 171.5 43.5001C180.794 40.9001 190.128 38.4001 199.5 36.0001C213.137 34.2701 226.803 34.1001 240.5 35.5001Z" fill="#0C0C0C"/>
<path fill-rule="evenodd" clip-rule="evenodd" d="M241.5 35.5001C249.36 35.3001 256.693 36.9701 263.5 40.5001C257.022 38.4001 250.355 37.2301 243.5 37.0001C242.584 36.7201 241.918 36.2201 241.5 35.5001Z" fill="#8B8B8B"/>
<path fill-rule="evenodd" clip-rule="evenodd" d="M343.5 35.5C346.198 35.84 348.198 37.18 349.5 39.5C346.802 39.16 344.802 37.82 343.5 35.5Z" fill="#A2A2A2"/>
<path fill-rule="evenodd" clip-rule="evenodd" d="M183.5 33.5C181.534 34.83 179.534 36.17 177.5 37.5C169.69 39.58 162.023 41.92 154.5 44.5C163.494 39.5 173.161 35.83 183.5 33.5Z" fill="#B5B5B5"/>
<path fill-rule="evenodd" clip-rule="evenodd" d="M281.5 41.5001C284.831 41.0201 287.497 42.0201 289.5 44.5001C286.84 43.6501 284.174 43.1501 281.5 43.0001C283.032 43.7001 284.032 44.8701 284.5 46.5001C285.274 47.7101 286.107 47.7101 287 46.5001C289.457 50.2801 292.957 52.4501 297.5 53.0001C298.381 53.7101 299.047 54.5401 299.5 55.5001C293.282 53.2701 287.282 50.6001 281.5 47.5001C279.388 45.7901 277.055 44.4601 274.5 43.5001C276.262 43.3601 277.929 43.6901 279.5 44.5001C280.711 43.7301 280.711 42.8901 279.5 42.0001C280.094 41.5401 280.761 41.3701 281.5 41.5001Z" fill="#BCBCBC"/>
<path fill-rule="evenodd" clip-rule="evenodd" d="M139.5 57.5C133.41 61.65 127.077 65.65 120.5 69.5C119.168 80.65 118.501 92.15 118.5 104C118.501 115.85 119.168 127.35 120.5 138.5C118.429 139.95 116.096 140.95 113.5 141.5C113.333 117.5 113.5 93.5 114 69.5C125.737 58.22 139.237 49.89 154.5 44.5C162.023 41.92 169.69 39.58 177.5 37.5C179.534 36.17 181.534 34.83 183.5 33.5C185.764 32.78 188.097 32.45 190.5 32.5C195.489 31.78 200.489 31.61 205.5 32C204.167 32.33 202.833 32.67 201.5 33C202.167 33.33 202.833 33.67 203.5 34C180.244 37.15 158.91 44.98 139.5 57.5Z" fill="#E7E7E7"/>
<path fill-rule="evenodd" clip-rule="evenodd" d="M272.5 43.5C273.167 43.5 273.833 43.5 274.5 43.5C277.055 44.46 279.388 45.79 281.5 47.5C278.053 46.92 275.053 45.58 272.5 43.5Z" fill="#626262"/>
<path fill-rule="evenodd" clip-rule="evenodd" d="M84.5 46.5C83.215 48.45 81.549 50.12 79.5 51.5C80.144 48.86 81.811 47.19 84.5 46.5Z" fill="#8E8E8E"/>
<path fill-rule="evenodd" clip-rule="evenodd" d="M289.5 44.5C294.95 46.06 299.95 48.39 304.5 51.5C299.081 49.96 294.081 47.62 289.5 44.5Z" fill="#858585"/>
<path fill-rule="evenodd" clip-rule="evenodd" d="M361.5 48.5C363.19 48.86 364.19 49.86 364.5 51.5C362.81 51.14 361.81 50.14 361.5 48.5Z" fill="#787878"/>
<path fill-rule="evenodd" clip-rule="evenodd" d="M74.5 55.5C73.109 57.89 71.109 59.56 68.5 60.5C69.865 58.14 71.865 56.47 74.5 55.5Z" fill="#939393"/>
<path fill-rule="evenodd" clip-rule="evenodd" d="M68.5 60.5C64.484 65.51 60.151 70.18 55.5 74.5C58.499 68.5 62.832 63.84 68.5 60.5Z" fill="#9E9E9E"/>
<path fill-rule="evenodd" clip-rule="evenodd" d="M289.5 44.5C294.081 47.62 299.081 49.96 304.5 51.5C312.179 56.57 319.846 61.74 327.5 67C329.923 68.57 331.256 70.74 331.5 73.5C331.5 96.17 331.5 118.83 331.5 141.5C332.5 141.5 333.5 141.5 334.5 141.5C338.924 143.64 343.257 145.98 347.5 148.5C349.181 150.01 351.181 151.01 353.5 151.5C360.984 154.74 367.984 158.74 374.5 163.5C378.683 166.34 381.016 170.34 381.5 175.5C380.022 175.76 378.689 175.43 377.5 174.5C376.899 172.28 376.566 170.11 376.5 168C375.256 167.54 374.423 168.04 374 169.5C373.329 168.75 372.496 168.41 371.5 168.5C366.645 166.55 361.979 164.21 357.5 161.5C356.064 159.92 354.398 158.42 352.5 157C345.95 154.23 339.283 151.73 332.5 149.5C329.351 149.58 326.684 148.58 324.5 146.5C324.5 146.17 324.5 145.83 324.5 145.5C326.827 145.25 328.827 145.91 330.5 147.5C331.374 145.29 330.708 143.46 328.5 142C330.992 140.75 330.825 139.58 328 138.5C327.667 139.17 327.333 139.83 327 140.5C325.855 139.36 324.688 138.36 323.5 137.5C324.5 137.5 325.5 137.5 326.5 137.5C326.831 114.99 326.497 92.66 325.5 70.5C317.197 65.01 308.53 60.01 299.5 55.5C299.047 54.54 298.381 53.71 297.5 53C292.957 52.45 289.457 50.28 287 46.5C286.107 47.71 285.274 47.71 284.5 46.5C284.032 44.87 283.032 43.7 281.5 43C284.174 43.15 286.84 43.65 289.5 44.5Z" fill="#E6E6E6"/>
<path fill-rule="evenodd" clip-rule="evenodd" d="M120.5 69.5C120.5 69.83 120.5 70.17 120.5 70.5C119.167 92.83 119.167 115.17 120.5 137.5C120.5 137.83 120.5 138.17 120.5 138.5C119.168 127.35 118.501 115.85 118.5 104C118.501 92.15 119.168 80.65 120.5 69.5Z" fill="#9B9B9B"/>
<path fill-rule="evenodd" clip-rule="evenodd" d="M54.5 75.5C51.397 80.05 48.064 84.39 44.5 88.5C46.031 85.1 47.865 81.77 50 78.5C51.129 76.86 52.629 75.86 54.5 75.5Z" fill="#B1B1B1"/>
<path fill-rule="evenodd" clip-rule="evenodd" d="M120.5 70.5C120.169 92.67 120.503 114.67 121.5 136.5C121.5 137.17 121.167 137.5 120.5 137.5C119.167 115.17 119.167 92.83 120.5 70.5Z" fill="#2A2A2A"/>
<path fill-rule="evenodd" clip-rule="evenodd" d="M43.5 90.5C41.823 92.54 40.156 94.54 38.5 96.5C38.772 93.27 40.438 91.27 43.5 90.5Z" fill="#9A9A9A"/>
<path fill-rule="evenodd" clip-rule="evenodd" d="M331.5 73.5C331.855 96.22 332.855 118.89 334.5 141.5C333.5 141.5 332.5 141.5 331.5 141.5C331.5 118.83 331.5 96.17 331.5 73.5Z" fill="#3A3A3A"/>
<path fill-rule="evenodd" clip-rule="evenodd" d="M257.5 111.5C230.724 108.3 204.057 108.97 177.5 113.5C177.918 112.78 178.584 112.28 179.5 112C205.621 107.57 231.621 107.41 257.5 111.5Z" fill="#A1A1A1"/>
<path fill-rule="evenodd" clip-rule="evenodd" d="M325.5 70.5C326.497 92.66 326.831 114.99 326.5 137.5C325.5 137.5 324.5 137.5 323.5 137.5C320.733 137.13 318.733 135.8 317.5 133.5C319.954 135.06 322.62 136.06 325.5 136.5C325.5 114.5 325.5 92.5 325.5 70.5Z" fill="#B6B6B6"/>
<path fill-rule="evenodd" clip-rule="evenodd" d="M257.5 111.5C271.105 113.15 284.105 116.82 296.5 122.5C298.579 124.87 301.246 126.21 304.5 126.5C305.492 126.33 306.158 126.66 306.5 127.5C308.509 129.07 310.843 130.07 313.5 130.5C314.795 131.49 316.128 132.49 317.5 133.5C318.733 135.8 320.733 137.13 323.5 137.5C324.688 138.36 325.855 139.36 327 140.5C327.333 139.83 327.667 139.17 328 138.5C330.825 139.58 330.992 140.75 328.5 142C330.708 143.46 331.374 145.29 330.5 147.5C328.827 145.91 326.827 145.25 324.5 145.5C319.71 143.24 314.71 141.57 309.5 140.5C305.653 140.11 301.986 139.11 298.5 137.5C295.325 135.12 291.658 134.12 287.5 134.5C282.167 133.17 276.833 131.83 271.5 130.5C260.454 127.92 249.12 126.58 237.5 126.5C224.163 126.33 210.829 126.5 197.5 127C194.305 127.18 191.305 127.68 188.5 128.5C179.001 128.3 169.668 129.47 160.5 132C158.509 132.37 156.842 133.21 155.5 134.5C149.712 134.45 144.379 135.95 139.5 139C137.167 139.33 134.833 139.67 132.5 140C131.058 140.38 130.058 141.21 129.5 142.5C123.623 143.78 118.29 146.11 113.5 149.5C108.818 150.85 104.152 151.52 99.5001 151.5C98.4941 151.06 98.4941 150.4 99.5001 149.5C101.586 148.51 103.253 147.18 104.5 145.5C107.088 143.38 110.088 142.04 113.5 141.5C116.096 140.95 118.429 139.95 120.5 138.5C120.5 138.17 120.5 137.83 120.5 137.5C121.167 137.5 121.5 137.17 121.5 136.5C123.856 134.66 126.523 133.32 129.5 132.5C133.687 131.24 137.354 129.24 140.5 126.5C144.847 126.11 148.514 124.44 151.5 121.5C154.902 120.37 158.235 119.03 161.5 117.5C164.152 117.59 166.485 116.92 168.5 115.5C171.37 114.37 174.37 113.7 177.5 113.5C204.057 108.97 230.724 108.3 257.5 111.5Z" fill="#F9F9F9"/>
<path fill-rule="evenodd" clip-rule="evenodd" d="M33.5 103.5C29.671 111.7 25.671 119.7 21.5 127.5C23.933 118.63 27.933 110.63 33.5 103.5Z" fill="#8F8F8F"/>
<path fill-rule="evenodd" clip-rule="evenodd" d="M168.5 115.5C166.485 116.92 164.152 117.59 161.5 117.5C163.515 116.08 165.848 115.41 168.5 115.5Z" fill="#7B7B7B"/>
<path fill-rule="evenodd" clip-rule="evenodd" d="M296.5 122.5C299.721 122.9 302.388 124.23 304.5 126.5C301.246 126.21 298.579 124.87 296.5 122.5Z" fill="#989898"/>
<path fill-rule="evenodd" clip-rule="evenodd" d="M151.5 121.5C148.514 124.44 144.847 126.11 140.5 126.5C143.925 124.44 147.592 122.77 151.5 121.5Z" fill="#B1B1B1"/>
<path fill-rule="evenodd" clip-rule="evenodd" d="M237.5 126.5C237.5 126.83 237.5 127.17 237.5 127.5C221.152 127.34 204.819 127.67 188.5 128.5C191.305 127.68 194.305 127.18 197.5 127C210.829 126.5 224.163 126.33 237.5 126.5Z" fill="#4F4F4F"/>
<path fill-rule="evenodd" clip-rule="evenodd" d="M140.5 126.5C137.354 129.24 133.687 131.24 129.5 132.5C132.675 129.67 136.342 127.67 140.5 126.5Z" fill="#989898"/>
<path fill-rule="evenodd" clip-rule="evenodd" d="M237.5 127.5C248.878 128.1 260.211 129.1 271.5 130.5C276.833 131.83 282.167 133.17 287.5 134.5C290.907 136.07 294.573 137.07 298.5 137.5C301.986 139.11 305.653 140.11 309.5 140.5C313.864 143.84 318.864 145.84 324.5 146.5C326.684 148.58 329.351 149.58 332.5 149.5C340.653 153.88 348.986 157.88 357.5 161.5C361.979 164.21 366.645 166.55 371.5 168.5C372.145 169.81 373.145 170.81 374.5 171.5C375.887 175.39 375.554 179.05 373.5 182.5C370.933 185.36 367.933 187.69 364.5 189.5C357.884 192.15 351.218 194.48 344.5 196.5C343.414 196.62 342.747 197.29 342.5 198.5C343.21 202.8 343.71 207.14 344 211.5C345.441 212.26 346.941 212.93 348.5 213.5C349.492 217.78 349.826 222.12 349.5 226.5C349.414 227.5 349.748 228.33 350.5 229C349.207 229.49 347.873 229.66 346.5 229.5C345.833 229.5 345.167 229.5 344.5 229.5C344.484 225.7 344.318 221.7 344 217.5C343.667 216.83 343.333 216.17 343 215.5C342.667 217.83 342.333 220.17 342 222.5C341.667 221.17 341.333 219.83 341 218.5C340.257 220.64 339.424 220.81 338.5 219C339.217 217.47 340.217 216.14 341.5 215C341.389 213.28 340.889 213.11 340 214.5C339.027 212.61 338.36 210.61 338 208.5C337.667 211.17 337.333 213.83 337 216.5C336.586 216.04 336.086 215.71 335.5 215.5C334.832 212.69 334.166 210.03 333.5 207.5C333.902 198.6 331.569 190.6 326.5 183.5C326.489 181.98 325.823 180.82 324.5 180C314.161 173.54 302.828 170.04 290.5 169.5C285.439 169.9 280.105 170.4 274.5 171C273.944 171.38 273.611 171.88 273.5 172.5C271.883 173.04 270.216 173.37 268.5 173.5C259.109 174.51 250.776 177.85 243.5 183.5C243.5 184.5 243.5 185.5 243.5 186.5C238.895 189.44 234.895 193.1 231.5 197.5C224.858 198.66 218.192 198.83 211.5 198C209.963 196.29 208.296 194.79 206.5 193.5C199.453 185.97 191.12 180.14 181.5 176C178.568 175.05 175.568 174.55 172.5 174.5C171.737 173.73 170.737 173.23 169.5 173C158.87 171.93 148.537 172.77 138.5 175.5C135.903 175.28 135.903 174.78 138.5 174C131.639 173.9 125.639 176.06 120.5 180.5C117.909 181.25 116.076 182.92 115 185.5C108.017 202.64 107.684 219.98 114 237.5C114.383 238.06 114.883 238.39 115.5 238.5C116.803 240.14 118.136 241.81 119.5 243.5C120.476 244.81 121.476 246.15 122.5 247.5C129.044 250.27 135.71 252.77 142.5 255C146.152 255.5 149.818 255.67 153.5 255.5C155.857 255.66 158.19 255.5 160.5 255C156.343 253.34 152.01 252.17 147.5 251.5C142.292 247.73 136.625 244.73 130.5 242.5C129 238.83 127 235.49 124.5 232.5C122.327 225.65 120.994 218.65 120.5 211.5C120.5 210.5 120.5 209.5 120.5 208.5C123.68 199.34 129.013 191.51 136.5 185C138.078 183.91 139.745 183.07 141.5 182.5C143.588 181.06 145.921 180.39 148.5 180.5C159.996 178.75 171.33 179.42 182.5 182.5C184.75 183.13 186.75 184.13 188.5 185.5C188.343 186.87 188.51 188.21 189 189.5C189.333 189.17 189.667 188.83 190 188.5C193 190.08 195.5 192.25 197.5 195C197.101 196.98 196.101 198.48 194.5 199.5C189.425 193.91 183.092 190.58 175.5 189.5C164.162 186.2 153.162 187.04 142.5 192C140.907 192.95 139.574 194.12 138.5 195.5C137.5 195.83 136.833 196.5 136.5 197.5C131.782 200.93 129.115 205.6 128.5 211.5C127.352 215.98 127.185 220.65 128 225.5C128.728 228.19 129.895 230.52 131.5 232.5C135.59 238.61 141.256 242.61 148.5 244.5C149.842 245.79 151.509 246.63 153.5 247C159.349 247.82 165.015 247.65 170.5 246.5C178.9 245.41 186.234 242.08 192.5 236.5C195.97 235.71 198.637 233.71 200.5 230.5C201.057 232.72 201.057 235.05 200.5 237.5C199.559 239.77 198.226 241.77 196.5 243.5C189.913 247.71 182.913 251.38 175.5 254.5C174.575 255.36 173.908 256.36 173.5 257.5C168.108 258.35 162.775 259.52 157.5 261C150.654 261.82 143.987 261.65 137.5 260.5C132.464 257.93 127.13 255.93 121.5 254.5C112.92 251.25 106.586 245.58 102.5 237.5C103.152 231.6 100.485 229.27 94.5 230.5C95.177 225.2 95.677 219.87 96 214.5C96.605 212.52 97.605 212.19 99 213.5C99.464 212.91 99.631 212.24 99.5 211.5C101.077 207.08 102.077 202.41 102.5 197.5C100.22 195.78 97.553 195.11 94.5 195.5C91.829 193.88 88.829 193.22 85.5 193.5C83.421 191.13 80.754 189.79 77.5 189.5C76.167 188.5 74.833 187.5 73.5 186.5C72.952 184.61 71.952 182.94 70.5 181.5C69.516 178.57 69.183 175.57 69.5 172.5C72.841 170.5 76.175 168.5 79.5 166.5C90.847 160.83 102.181 155.16 113.5 149.5C120.391 147.54 127.058 145.2 133.5 142.5C140.882 139.8 148.215 137.14 155.5 134.5C166.567 132.16 177.567 130.16 188.5 128.5C204.819 127.67 221.152 127.34 237.5 127.5Z" fill="#0C0C0C"/>
<path fill-rule="evenodd" clip-rule="evenodd" d="M237.5 127.5C237.5 127.17 237.5 126.83 237.5 126.5C249.12 126.58 260.454 127.92 271.5 130.5C260.211 129.1 248.878 128.1 237.5 127.5Z" fill="#A0A0A0"/>
<path fill-rule="evenodd" clip-rule="evenodd" d="M306.5 127.5C309.346 127.55 311.68 128.55 313.5 130.5C310.843 130.07 308.509 129.07 306.5 127.5Z" fill="#616161"/>
<path fill-rule="evenodd" clip-rule="evenodd" d="M188.5 128.5C177.567 130.16 166.567 132.16 155.5 134.5C156.842 133.21 158.509 132.37 160.5 132C169.668 129.47 179.001 128.3 188.5 128.5Z" fill="#BCBCBC"/>
<path fill-rule="evenodd" clip-rule="evenodd" d="M287.5 134.5C291.658 134.12 295.325 135.12 298.5 137.5C294.573 137.07 290.907 136.07 287.5 134.5Z" fill="#808080"/>
<path fill-rule="evenodd" clip-rule="evenodd" d="M20.5 129.5C16.52 140.1 12.853 150.77 9.5 161.5C11.33 151.02 14.33 140.85 18.5 131C18.836 129.97 19.503 129.47 20.5 129.5Z" fill="#848484"/>
<path fill-rule="evenodd" clip-rule="evenodd" d="M155.5 134.5C148.215 137.14 140.882 139.8 133.5 142.5C132.167 142.5 130.833 142.5 129.5 142.5C130.058 141.21 131.058 140.38 132.5 140C134.833 139.67 137.167 139.33 139.5 139C144.379 135.95 149.712 134.45 155.5 134.5Z" fill="#BBBBBB"/>
<path fill-rule="evenodd" clip-rule="evenodd" d="M309.5 140.5C314.71 141.57 319.71 143.24 324.5 145.5C324.5 145.83 324.5 146.17 324.5 146.5C318.864 145.84 313.864 143.84 309.5 140.5Z" fill="#787878"/>
<path fill-rule="evenodd" clip-rule="evenodd" d="M129.5 142.5C130.833 142.5 132.167 142.5 133.5 142.5C127.058 145.2 120.391 147.54 113.5 149.5C118.29 146.11 123.623 143.78 129.5 142.5Z" fill="#8F8F8F"/>
<path fill-rule="evenodd" clip-rule="evenodd" d="M332.5 149.5C339.283 151.73 345.95 154.23 352.5 157C354.398 158.42 356.064 159.92 357.5 161.5C348.986 157.88 340.653 153.88 332.5 149.5Z" fill="#9F9F9F"/>
<path fill-rule="evenodd" clip-rule="evenodd" d="M347.5 148.5C350.089 148.46 352.089 149.46 353.5 151.5C351.181 151.01 349.181 150.01 347.5 148.5Z" fill="#737373"/>
<path fill-rule="evenodd" clip-rule="evenodd" d="M430.5 148.5C432.41 151.45 433.41 154.79 433.5 158.5C431.723 155.5 430.723 152.16 430.5 148.5Z" fill="#7E7E7E"/>
<path fill-rule="evenodd" clip-rule="evenodd" d="M87.5 154.5C84.716 157.01 81.716 159.34 78.5 161.5C76.955 162.45 75.288 162.79 73.5 162.5C77.507 158.83 82.173 156.16 87.5 154.5Z" fill="#A8A8A8"/>
<path fill-rule="evenodd" clip-rule="evenodd" d="M104.5 145.5C103.253 147.18 101.586 148.51 99.5 149.5C98.494 150.4 98.494 151.06 99.5 151.5C104.152 151.52 108.818 150.85 113.5 149.5C102.181 155.16 90.847 160.83 79.5 166.5C78.833 166.5 78.167 166.5 77.5 166.5C80.678 164.7 83.178 162.03 85 158.5C86.882 157.6 89.049 157.6 91.5 158.5C95.896 157.72 96.896 155.72 94.5 152.5C92.382 153.95 90.049 154.61 87.5 154.5C92.931 151.07 98.598 148.07 104.5 145.5Z" fill="#D1D1D1"/>
<path fill-rule="evenodd" clip-rule="evenodd" d="M265.5 161.5C257.178 160.95 248.844 160.61 240.5 160.5C237.5 160.5 234.5 160.5 231.5 160.5C218.143 159.33 204.81 159.66 191.5 161.5C190.167 161.5 188.833 161.5 187.5 161.5C187.167 161.5 186.833 161.5 186.5 161.5C189.258 160.18 192.424 159.52 196 159.5C217.177 158.14 238.344 158.3 259.5 160C261.708 160.19 263.708 160.69 265.5 161.5Z" fill="#555555"/>
<path fill-rule="evenodd" clip-rule="evenodd" d="M231.5 160.5C218.169 160.9 204.835 161.23 191.5 161.5C204.81 159.66 218.143 159.33 231.5 160.5Z" fill="#CECECE"/>
<path fill-rule="evenodd" clip-rule="evenodd" d="M231.5 160.5C234.5 160.5 237.5 160.5 240.5 160.5C244.647 161.32 248.981 161.82 253.5 162C255.55 162.42 256.884 163.58 257.5 165.5C252.294 167.71 247.627 170.71 243.5 174.5C238.574 176.76 234.574 180.1 231.5 184.5C229.325 188.25 225.991 189.92 221.5 189.5C216.581 189.27 212.915 186.93 210.5 182.5C201.707 172.6 190.707 166.6 177.5 164.5C180.548 162.88 183.881 161.88 187.5 161.5C188.833 161.5 190.167 161.5 191.5 161.5C204.835 161.23 218.169 160.9 231.5 160.5Z" fill="#F8F8F8"/>
<path fill-rule="evenodd" clip-rule="evenodd" d="M186.5 161.5C186.833 161.5 187.167 161.5 187.5 161.5C183.881 161.88 180.548 162.88 177.5 164.5C175.712 164.79 174.045 164.45 172.5 163.5C176.991 161.78 181.657 161.12 186.5 161.5Z" fill="#A3A3A3"/>
<path fill-rule="evenodd" clip-rule="evenodd" d="M240.5 160.5C248.844 160.61 257.178 160.95 265.5 161.5C267.527 161.34 269.527 161.5 271.5 162C267.275 163.38 262.942 164.54 258.5 165.5C258.167 165.5 257.833 165.5 257.5 165.5C256.884 163.58 255.55 162.42 253.5 162C248.981 161.82 244.647 161.32 240.5 160.5Z" fill="#C7C7C7"/>
<path fill-rule="evenodd" clip-rule="evenodd" d="M433.5 159.5C435.213 160.64 435.88 162.3 435.5 164.5C433.787 163.36 433.12 161.7 433.5 159.5Z" fill="#8D8D8D"/>
<path fill-rule="evenodd" clip-rule="evenodd" d="M73.5 162.5C70.441 165.88 66.775 168.54 62.5 170.5C62.908 169.36 63.575 168.36 64.5 167.5C67.393 165.56 70.393 163.89 73.5 162.5Z" fill="#9A9A9A"/>
<path fill-rule="evenodd" clip-rule="evenodd" d="M77.5 166.5C78.167 166.5 78.833 166.5 79.5 166.5C76.175 168.5 72.841 170.5 69.5 172.5C71.344 169.31 74.011 167.31 77.5 166.5Z" fill="#959595"/>
<path fill-rule="evenodd" clip-rule="evenodd" d="M435.5 166.5C438.312 171.29 439.645 176.62 439.5 182.5C437.294 177.5 435.961 172.16 435.5 166.5Z" fill="#B1B1B1"/>
<path fill-rule="evenodd" clip-rule="evenodd" d="M257.5 165.5C257.833 165.5 258.167 165.5 258.5 165.5C255.471 167.91 252.471 170.41 249.5 173C247.189 173.24 245.189 174.07 243.5 175.5C243.5 175.17 243.5 174.83 243.5 174.5C247.627 170.71 252.294 167.71 257.5 165.5Z" fill="#3E3E3E"/>
<path fill-rule="evenodd" clip-rule="evenodd" d="M304.5 175.5C296.93 175.29 289.43 174.62 282 173.5C277.474 173.64 272.974 173.97 268.5 174.5C268.5 174.17 268.5 173.83 268.5 173.5C270.216 173.37 271.883 173.04 273.5 172.5C284.183 170.81 294.516 171.81 304.5 175.5Z" fill="#A9A9A9"/>
<path fill-rule="evenodd" clip-rule="evenodd" d="M326.5 183.5C319.79 179.32 312.456 176.65 304.5 175.5C294.516 171.81 284.183 170.81 273.5 172.5C273.611 171.88 273.944 171.38 274.5 171C280.105 170.4 285.439 169.9 290.5 169.5C302.828 170.04 314.161 173.54 324.5 180C325.823 180.82 326.489 181.98 326.5 183.5Z" fill="#363636"/>
<path fill-rule="evenodd" clip-rule="evenodd" d="M177.5 164.5C190.707 166.6 201.707 172.6 210.5 182.5C200.539 174.68 189.539 168.68 177.5 164.5Z" fill="#A1A1A1"/>
<path fill-rule="evenodd" clip-rule="evenodd" d="M374.5 163.5C378.02 164.18 380.52 166.18 382 169.5C382.667 174.17 382.667 178.83 382 183.5C380.441 185.22 379.608 187.22 379.5 189.5C377.328 190.21 375.328 191.21 373.5 192.5C374.037 190.29 375.037 188.29 376.5 186.5C376.439 184.35 375.439 183.01 373.5 182.5C375.554 179.05 375.887 175.39 374.5 171.5C373.145 170.81 372.145 169.81 371.5 168.5C372.496 168.41 373.329 168.75 374 169.5C374.423 168.04 375.256 167.54 376.5 168C376.566 170.11 376.899 172.28 377.5 174.5C378.689 175.43 380.022 175.76 381.5 175.5C381.016 170.34 378.683 166.34 374.5 163.5Z" fill="#C9C9C9"/>
<path fill-rule="evenodd" clip-rule="evenodd" d="M138.5 175.5C135.058 176.75 131.392 177.58 127.5 178C126.944 178.38 126.611 178.88 126.5 179.5C125.041 179.43 123.708 179.77 122.5 180.5C121.833 180.5 121.167 180.5 120.5 180.5C125.639 176.06 131.639 173.9 138.5 174C135.903 174.78 135.903 175.28 138.5 175.5Z" fill="#393939"/>
<path fill-rule="evenodd" clip-rule="evenodd" d="M172.5 174.5C165.825 174.33 159.158 174.5 152.5 175C143.932 177.21 135.265 178.71 126.5 179.5C126.611 178.88 126.944 178.38 127.5 178C131.392 177.58 135.058 176.75 138.5 175.5C148.537 172.77 158.87 171.93 169.5 173C170.737 173.23 171.737 173.73 172.5 174.5Z" fill="#A9A9A9"/>
<path fill-rule="evenodd" clip-rule="evenodd" d="M304.5 175.5C312.456 176.65 319.79 179.32 326.5 183.5C331.569 190.6 333.902 198.6 333.5 207.5C335.096 220.8 331.763 232.64 323.5 243C321.423 244.7 319.09 245.87 316.5 246.5C315.448 246.65 314.448 246.48 313.5 246C314.833 245.33 314.833 244.67 313.5 244C315.589 242.83 317.589 241.5 319.5 240C318.483 238.95 318.316 237.78 319 236.5C323.033 231.96 324.533 226.63 323.5 220.5C324.776 203.04 317.776 190.37 302.5 182.5C299.509 179.61 295.842 178.28 291.5 178.5C290.609 177.89 289.609 177.56 288.5 177.5C287.895 175.97 286.729 174.97 285 174.5C279.393 175.26 273.727 175.93 268 176.5C266.93 176.47 266.097 176.14 265.5 175.5C266.209 174.6 267.209 174.26 268.5 174.5C272.974 173.97 277.474 173.64 282 173.5C289.43 174.62 296.93 175.29 304.5 175.5Z" fill="#E1E1E1"/>
<path fill-rule="evenodd" clip-rule="evenodd" d="M268.5 173.5C268.5 173.83 268.5 174.17 268.5 174.5C267.209 174.26 266.209 174.6 265.5 175.5C257.057 177.05 249.724 180.72 243.5 186.5C243.5 185.5 243.5 184.5 243.5 183.5C250.776 177.85 259.109 174.51 268.5 173.5Z" fill="#3B3B3B"/>
<path fill-rule="evenodd" clip-rule="evenodd" d="M288.5 177.5C289.609 177.56 290.609 177.89 291.5 178.5C294.939 180.2 298.605 181.54 302.5 182.5C317.776 190.37 324.776 203.04 323.5 220.5C320.126 239.54 308.793 250.54 289.5 253.5C286.432 253.55 283.432 254.05 280.5 255C285.352 255.82 290.019 255.65 294.5 254.5C302.355 253.22 309.688 250.55 316.5 246.5C319.09 245.87 321.423 244.7 323.5 243C331.763 232.64 335.096 220.8 333.5 207.5C334.166 210.03 334.832 212.69 335.5 215.5C336.086 215.71 336.586 216.04 337 216.5C337.333 213.83 337.667 211.17 338 208.5C338.36 210.61 339.027 212.61 340 214.5C340.889 213.11 341.389 213.28 341.5 215C340.217 216.14 339.217 217.47 338.5 219C339.424 220.81 340.257 220.64 341 218.5C341.333 219.83 341.667 221.17 342 222.5C342.333 220.17 342.667 217.83 343 215.5C343.333 216.17 343.667 216.83 344 217.5C344.318 221.7 344.484 225.7 344.5 229.5C343.504 229.41 342.671 229.75 342 230.5C341.059 233.15 340.226 235.82 339.5 238.5C339.5 238.83 339.5 239.17 339.5 239.5C331.164 246.84 321.831 252.51 311.5 256.5C308.888 257.37 306.221 258.04 303.5 258.5C295.504 259.78 287.504 259.78 279.5 258.5C276.215 258.79 273.215 258.12 270.5 256.5C264.961 252.64 258.961 249.64 252.5 247.5C242.931 240.34 236.931 231.01 234.5 219.5C234.389 218.88 234.056 218.38 233.5 218C225.5 217.33 217.5 217.33 209.5 218C208.944 218.38 208.611 218.88 208.5 219.5C207.576 226.27 204.909 232.27 200.5 237.5C201.057 235.05 201.057 232.72 200.5 230.5C198.637 233.71 195.97 235.71 192.5 236.5C192.5 236.17 192.5 235.83 192.5 235.5C199.93 228.55 202.264 220.22 199.5 210.5C199.975 207.69 198.975 205.69 196.5 204.5C195.833 202.83 195.167 201.17 194.5 199.5C196.101 198.48 197.101 196.98 197.5 195C195.5 192.25 193 190.08 190 188.5C189.667 188.83 189.333 189.17 189 189.5C188.51 188.21 188.343 186.87 188.5 185.5C192.148 188.14 195.815 190.81 199.5 193.5C202.659 197 204.992 201 206.5 205.5C206.506 207.84 207.673 209.18 210 209.5C218.525 206.89 227.025 206.89 235.5 209.5C238.084 199.52 243.75 191.69 252.5 186C263.408 178.77 275.408 175.94 288.5 177.5Z" fill="#131313"/>
<path fill-rule="evenodd" clip-rule="evenodd" d="M291.5 178.5C295.842 178.28 299.509 179.61 302.5 182.5C298.605 181.54 294.939 180.2 291.5 178.5Z" fill="#585858"/>
<path fill-rule="evenodd" clip-rule="evenodd" d="M61.5 178.5C63.584 181.05 64.917 184.05 65.5 187.5C62.835 185.16 61.502 182.16 61.5 178.5Z" fill="#9B9B9B"/>
<path fill-rule="evenodd" clip-rule="evenodd" d="M172.5 174.5C175.568 174.55 178.568 175.05 181.5 176C191.12 180.14 199.453 185.97 206.5 193.5C204.064 193.68 201.897 193.02 200 191.5C199.536 192.09 199.369 192.76 199.5 193.5C195.815 190.81 192.148 188.14 188.5 185.5C186.75 184.13 184.75 183.13 182.5 182.5C177.613 179.77 172.279 178.43 166.5 178.5C158.427 176.78 150.427 177.45 142.5 180.5C141.702 180.96 141.369 181.62 141.5 182.5C139.745 183.07 138.078 183.91 136.5 185C129.013 191.51 123.68 199.34 120.5 208.5C120.423 207.25 119.756 206.42 118.5 206C122.166 205.61 122.332 204.44 119 202.5C118.667 203.17 118.333 203.83 118 204.5C117.828 200.13 117.328 195.8 116.5 191.5C114.79 193.64 113.457 195.98 112.5 198.5C113.202 190.94 116.536 184.94 122.5 180.5C123.708 179.77 125.041 179.43 126.5 179.5C135.265 178.71 143.932 177.21 152.5 175C159.158 174.5 165.825 174.33 172.5 174.5Z" fill="#D9D9D9"/>
<path fill-rule="evenodd" clip-rule="evenodd" d="M166.5 178.5C161.489 178.33 156.489 178.5 151.5 179C150.263 179.23 149.263 179.73 148.5 180.5C145.921 180.39 143.588 181.06 141.5 182.5C141.369 181.62 141.702 180.96 142.5 180.5C150.427 177.45 158.427 176.78 166.5 178.5Z" fill="#959595"/>
<path fill-rule="evenodd" clip-rule="evenodd" d="M166.5 178.5C172.279 178.43 177.613 179.77 182.5 182.5C171.33 179.42 159.996 178.75 148.5 180.5C149.263 179.73 150.263 179.23 151.5 179C156.489 178.5 161.489 178.33 166.5 178.5Z" fill="#414141"/>
<path fill-rule="evenodd" clip-rule="evenodd" d="M243.5 174.5C243.5 174.83 243.5 175.17 243.5 175.5C239.5 178.5 235.5 181.5 231.5 184.5C234.574 180.1 238.574 176.76 243.5 174.5Z" fill="#797979"/>
<path fill-rule="evenodd" clip-rule="evenodd" d="M7.49991 168.5C2.97091 190.91 1.30391 213.58 2.49991 236.5C1.50591 227.35 1.17291 218.01 1.49991 208.5C1.64691 195.34 3.14691 182.34 5.99991 169.5C6.38291 168.94 6.88291 168.61 7.49991 168.5Z" fill="#919191"/>
<path fill-rule="evenodd" clip-rule="evenodd" d="M69.5001 172.5C69.1831 175.57 69.5161 178.57 70.5001 181.5C71.9521 182.94 72.9521 184.61 73.5001 186.5C69.3881 184.28 67.3881 180.78 67.5001 176C67.3871 174.3 68.0531 173.13 69.5001 172.5Z" fill="#494949"/>
<path fill-rule="evenodd" clip-rule="evenodd" d="M77.5001 166.5C74.0111 167.31 71.3441 169.31 69.5001 172.5C68.0531 173.13 67.3871 174.3 67.5001 176C67.3881 180.78 69.3881 184.28 73.5001 186.5C74.8331 187.5 76.1671 188.5 77.5001 189.5C79.6121 191.77 82.2791 193.1 85.5001 193.5C88.2191 194.91 91.2191 195.58 94.5001 195.5C96.2141 196.74 98.2141 197.41 100.5 197.5C100.663 199.86 100.497 202.19 100 204.5C99.5171 203.55 99.3511 202.55 99.5001 201.5C97.3231 201.59 95.3231 202.25 93.5001 203.5C92.5001 202.83 91.5001 202.17 90.5001 201.5C79.9061 202.93 69.2391 203.76 58.5001 204C52.5851 205.54 47.7521 208.71 44.0001 213.5C40.8921 220.4 42.7251 225.57 49.5001 229C53.1231 230.11 56.7901 231.11 60.5001 232C70.5031 232.08 80.5031 232.08 90.5001 232C90.9041 236.29 92.4041 240.12 95.0001 243.5C101.786 249.98 107.953 255.31 113.5 259.5C113.993 261.81 114.326 264.14 114.5 266.5C114.808 268.92 114.474 271.26 113.5 273.5C112.304 273.15 112.304 272.65 113.5 272C112.906 271.54 112.239 271.37 111.5 271.5C109.146 271.16 106.813 270.66 104.5 270C93.8461 264.52 86.1791 256.35 81.5001 245.5C80.8331 242.5 80.1671 239.5 79.5001 236.5C68.2731 238.77 56.9401 239.1 45.5001 237.5C39.7371 235.4 36.0711 231.4 34.5001 225.5C34.2741 220.44 34.6081 215.44 35.5001 210.5C37.9351 209.73 39.2691 208.06 39.5001 205.5C43.0741 201.55 47.4071 198.88 52.5001 197.5C58.8221 196.99 65.1551 196.65 71.5001 196.5C71.7371 195.21 71.4041 194.21 70.5001 193.5C68.3671 191.91 66.7011 189.91 65.5001 187.5C64.9171 184.05 63.5841 181.05 61.5001 178.5C61.1941 175.61 61.5271 172.95 62.5001 170.5C66.7751 168.54 70.4411 165.88 73.5001 162.5C75.2881 162.79 76.9551 162.45 78.5001 161.5C81.7161 159.34 84.7161 157.01 87.5001 154.5C90.0491 154.61 92.3821 153.95 94.5001 152.5C96.8961 155.72 95.8961 157.72 91.5001 158.5C89.0491 157.6 86.8821 157.6 85.0001 158.5C83.1781 162.03 80.6781 164.7 77.5001 166.5Z" fill="#F5F5F5"/>
<path fill-rule="evenodd" clip-rule="evenodd" d="M288.5 177.5C275.408 175.94 263.408 178.77 252.5 186C243.75 191.69 238.084 199.52 235.5 209.5C227.025 206.89 218.525 206.89 210 209.5C207.673 209.18 206.506 207.84 206.5 205.5C208.033 206.43 209.7 207.1 211.5 207.5C218.943 205.1 226.277 205.1 233.5 207.5C236.527 204.41 236.693 201.41 234 198.5C232.956 199.62 232.29 200.96 232 202.5C224.989 200.85 217.822 200.02 210.5 200C207.307 198.97 205.974 196.81 206.5 193.5C208.296 194.79 209.963 196.29 211.5 198C218.192 198.83 224.858 198.66 231.5 197.5C234.895 193.1 238.895 189.44 243.5 186.5C249.724 180.72 257.057 177.05 265.5 175.5C266.097 176.14 266.93 176.47 268 176.5C273.727 175.93 279.393 175.26 285 174.5C286.729 174.97 287.895 175.97 288.5 177.5Z" fill="#C9C9C9"/>
<path fill-rule="evenodd" clip-rule="evenodd" d="M292.5 187.5C293.959 187.43 295.292 187.77 296.5 188.5C296.833 189.17 297.167 189.83 297.5 190.5C296.402 191.4 296.402 192.23 297.5 193C296.692 193.31 296.025 193.81 295.5 194.5C297.078 195.3 298.744 195.8 300.5 196C297.627 197.43 294.794 197.93 292 197.5C288.961 196.99 286.961 195.33 286 192.5C285.667 193.83 285.333 195.17 285 196.5C283.933 195.81 282.766 195.31 281.5 195C282.696 194.35 282.696 193.85 281.5 193.5C279.018 194.9 276.352 195.73 273.5 196C274.167 196.33 274.833 196.67 275.5 197C271.797 199.25 268.63 202.08 266 205.5C265.727 207.33 264.893 208.83 263.5 210C265.669 213.85 266.002 217.85 264.5 222C267.256 222.15 269.59 223.65 271.5 226.5C272.325 227.39 273.325 227.72 274.5 227.5C277.5 227.5 280.5 227.5 283.5 227.5C285.679 227.16 287.512 226.16 289 224.5C290.546 221.41 292.046 218.41 293.5 215.5C294.381 212.65 294.547 209.65 294 206.5C295.044 208.71 295.71 211.05 296 213.5C296.333 212.5 296.667 211.5 297 210.5C298.44 211.93 298.774 213.6 298 215.5C297.346 214.3 296.846 214.3 296.5 215.5C298.027 217.19 299.36 219.03 300.5 221C299.692 221.31 299.025 221.81 298.5 222.5C303.348 226.75 306.681 225.75 308.5 219.5C308.5 219.17 308.5 218.83 308.5 218.5C309.783 215.63 309.783 212.63 308.5 209.5C309.522 208.65 310.355 207.65 311 206.5C313.977 212.07 314.811 217.91 313.5 224C312.728 225.22 311.728 226.22 310.5 227C311.022 227.56 311.355 228.23 311.5 229C310.115 230.6 309.449 232.43 309.5 234.5C306.637 239.03 302.637 242.03 297.5 243.5C290.159 243.67 282.826 243.5 275.5 243C270.197 242.18 265.197 240.51 260.5 238C258.19 237.5 255.857 237.34 253.5 237.5C249.925 233.35 246.591 229.01 243.5 224.5C243.5 223.17 243.5 221.83 243.5 220.5C243.652 216.08 244.319 211.74 245.5 207.5C248.195 203.29 251.528 199.46 255.5 196C260.869 193.33 266.202 190.66 271.5 188C278.492 187.5 285.492 187.33 292.5 187.5Z" fill="#F9F9F9"/>
<path fill-rule="evenodd" clip-rule="evenodd" d="M175.5 189.5C175.5 189.83 175.5 190.17 175.5 190.5C162.513 188 150.18 189.67 138.5 195.5C139.574 194.12 140.907 192.95 142.5 192C153.162 187.04 164.162 186.2 175.5 189.5Z" fill="#C8C8C8"/>
<path fill-rule="evenodd" clip-rule="evenodd" d="M175.5 190.5C179.593 192.05 183.593 193.88 187.5 196C190.369 199.04 193.369 201.87 196.5 204.5C196.025 207.31 197.025 209.31 199.5 210.5C202.264 220.22 199.93 228.55 192.5 235.5C180.894 242.7 168.227 246.03 154.5 245.5C152.565 244.85 150.565 244.52 148.5 244.5C141.256 242.61 135.59 238.61 131.5 232.5C129.059 226.77 128.059 220.77 128.5 214.5C129.727 210.82 131.727 207.49 134.5 204.5C134.167 203.83 133.833 203.17 133.5 202.5C134.952 201.06 135.952 199.39 136.5 197.5C136.833 196.5 137.5 195.83 138.5 195.5C150.18 189.67 162.513 188 175.5 190.5Z" fill="#F7F7F7"/>
<path fill-rule="evenodd" clip-rule="evenodd" d="M77.5 189.5C80.754 189.79 83.421 191.13 85.5 193.5C82.279 193.1 79.612 191.77 77.5 189.5Z" fill="#818181"/>
<path fill-rule="evenodd" clip-rule="evenodd" d="M296.5 188.5C298.853 189.34 300.853 190.67 302.5 192.5C300.716 192.11 299.05 191.44 297.5 190.5C297.167 189.83 296.833 189.17 296.5 188.5Z" fill="#757575"/>
<path fill-rule="evenodd" clip-rule="evenodd" d="M373.5 182.5C375.439 183.01 376.439 184.35 376.5 186.5C375.037 188.29 374.037 190.29 373.5 192.5C372.494 193.4 372.494 194.06 373.5 194.5C377.964 195.64 382.63 196.31 387.5 196.5C389.382 197.75 391.382 198.92 393.5 200C394.793 200.49 396.127 200.66 397.5 200.5C399.403 203.46 402.07 205.46 405.5 206.5C406.421 208.27 407.588 209.94 409 211.5C409.667 216.83 409.667 222.17 409 227.5C406.186 229.99 403.686 232.82 401.5 236C399.35 237.41 397.016 238.24 394.5 238.5C386.043 238.99 377.71 238.33 369.5 236.5C368.584 236.54 367.917 236.88 367.5 237.5C367.5 238.17 367.5 238.83 367.5 239.5C365.229 241.61 363.896 244.28 363.5 247.5C356.477 260.33 346.143 268.99 332.5 273.5C330.748 273.58 329.748 272.75 329.5 271C331.826 267.54 333.16 263.7 333.5 259.5C333.5 258.83 333.833 258.5 334.5 258.5C335.434 257.43 335.768 256.1 335.5 254.5C336.156 253.72 336.989 253.06 338 252.5C339.057 253.63 340.223 254.13 341.5 254C343.792 251.84 346.125 249.68 348.5 247.5C350.736 242.29 353.069 237.13 355.5 232C361.828 231.77 368.162 231.93 374.5 232.5C382.207 232.73 389.54 231.23 396.5 228C402.605 219.86 401.271 213.19 392.5 208C390.913 207.14 389.246 206.47 387.5 206C375.15 204.26 362.817 202.42 350.5 200.5C349.353 200.82 348.519 201.48 348 202.5C347.667 201.83 347.333 201.17 347 200.5C346.501 204.15 346.335 207.82 346.5 211.5C345.732 210.74 345.232 209.74 345 208.5C344.501 204.51 344.334 200.51 344.5 196.5C351.96 196.13 358.627 193.79 364.5 189.5C367.933 187.69 370.933 185.36 373.5 182.5Z" fill="#F5F5F5"/>
<path fill-rule="evenodd" clip-rule="evenodd" d="M297.5 190.5C299.05 191.44 300.716 192.11 302.5 192.5C304.167 193.83 305.833 195.17 307.5 196.5C312.763 204.3 315.43 212.96 315.5 222.5C314.814 227.26 312.814 231.26 309.5 234.5C309.449 232.43 310.115 230.6 311.5 229C311.355 228.23 311.022 227.56 310.5 227C311.728 226.22 312.728 225.22 313.5 224C314.811 217.91 313.977 212.07 311 206.5C310.355 207.65 309.522 208.65 308.5 209.5C309.783 212.63 309.783 215.63 308.5 218.5C308.923 213.92 307.923 209.75 305.5 206C304.216 205.32 303.049 205.48 302 206.5C301.333 211.17 301.333 215.83 302 220.5C302.5 221 303 221.5 303.5 222C305.435 221.94 307.102 221.11 308.5 219.5C306.681 225.75 303.348 226.75 298.5 222.5C299.025 221.81 299.692 221.31 300.5 221C299.36 219.03 298.027 217.19 296.5 215.5C296.846 214.3 297.346 214.3 298 215.5C298.774 213.6 298.44 211.93 297 210.5C296.667 211.5 296.333 212.5 296 213.5C295.71 211.05 295.044 208.71 294 206.5C294.547 209.65 294.381 212.65 293.5 215.5C293.393 203.6 287.393 198.43 275.5 200C274.944 200.38 274.611 200.88 274.5 201.5C272.596 201.74 271.262 202.74 270.5 204.5C267.396 206.63 266.063 209.63 266.5 213.5C266.073 216.83 267.073 219.49 269.5 221.5C271.177 223.54 272.844 225.54 274.5 227.5C273.325 227.72 272.325 227.39 271.5 226.5C269.59 223.65 267.256 222.15 264.5 222C266.002 217.85 265.669 213.85 263.5 210C264.893 208.83 265.727 207.33 266 205.5C268.63 202.08 271.797 199.25 275.5 197C274.833 196.67 274.167 196.33 273.5 196C276.352 195.73 279.018 194.9 281.5 193.5C282.696 193.85 282.696 194.35 281.5 195C282.766 195.31 283.933 195.81 285 196.5C285.333 195.17 285.667 193.83 286 192.5C286.961 195.33 288.961 196.99 292 197.5C294.794 197.93 297.627 197.43 300.5 196C298.744 195.8 297.078 195.3 295.5 194.5C296.025 193.81 296.692 193.31 297.5 193C296.402 192.23 296.402 191.4 297.5 190.5Z" fill="#EBEBEB"/>
<path fill-rule="evenodd" clip-rule="evenodd" d="M120.5 180.5C121.167 180.5 121.833 180.5 122.5 180.5C116.536 184.94 113.202 190.94 112.5 198.5C110.716 212.03 111.716 225.36 115.5 238.5C114.883 238.39 114.383 238.06 114 237.5C107.684 219.98 108.017 202.64 115 185.5C116.076 182.92 117.909 181.25 120.5 180.5Z" fill="#676767"/>
<path fill-rule="evenodd" clip-rule="evenodd" d="M85.5 193.5C88.829 193.22 91.829 193.88 94.5 195.5C91.219 195.58 88.219 194.91 85.5 193.5Z" fill="#6B6B6B"/>
<path fill-rule="evenodd" clip-rule="evenodd" d="M175.5 190.5C175.5 190.17 175.5 189.83 175.5 189.5C183.092 190.58 189.425 193.91 194.5 199.5C195.167 201.17 195.833 202.83 196.5 204.5C193.369 201.87 190.369 199.04 187.5 196C183.593 193.88 179.593 192.05 175.5 190.5Z" fill="#555555"/>
<path fill-rule="evenodd" clip-rule="evenodd" d="M364.5 189.5C358.627 193.79 351.96 196.13 344.5 196.5C351.218 194.48 357.884 192.15 364.5 189.5Z" fill="#7B7B7B"/>
<path fill-rule="evenodd" clip-rule="evenodd" d="M373.5 194.5C378.434 194.23 383.1 194.9 387.5 196.5C382.63 196.31 377.964 195.64 373.5 194.5Z" fill="#777777"/>
<path fill-rule="evenodd" clip-rule="evenodd" d="M70.5 193.5C71.404 194.21 71.737 195.21 71.5 196.5C65.155 196.65 58.822 196.99 52.5 197.5C58.689 196.43 64.689 195.09 70.5 193.5Z" fill="#939393"/>
<path fill-rule="evenodd" clip-rule="evenodd" d="M292.5 187.5C285.492 187.33 278.492 187.5 271.5 188C266.202 190.66 260.869 193.33 255.5 196C251.528 199.46 248.195 203.29 245.5 207.5C245.343 206.13 245.51 204.79 246 203.5C258.352 188.56 273.852 183.22 292.5 187.5Z" fill="#A1A1A1"/>
<path fill-rule="evenodd" clip-rule="evenodd" d="M94.5 195.5C97.553 195.11 100.22 195.78 102.5 197.5C101.833 197.5 101.167 197.5 100.5 197.5C98.214 197.41 96.214 196.74 94.5 195.5Z" fill="#5C5C5C"/>
<path fill-rule="evenodd" clip-rule="evenodd" d="M120.5 208.5C120.5 209.5 120.5 210.5 120.5 211.5C119.094 219.56 120.427 227.23 124.5 234.5C125.674 235.51 126.34 236.85 126.5 238.5C126.631 239.24 126.464 239.91 126 240.5C125.346 239.3 124.846 239.3 124.5 240.5C125.347 241.84 126.513 242.84 128 243.5C128.667 244.17 128.667 244.83 128 245.5C126.542 244.25 125.042 244.25 123.5 245.5C122.378 244.37 121.044 243.7 119.5 243.5C118.136 241.81 116.803 240.14 115.5 238.5C111.716 225.36 110.716 212.03 112.5 198.5C113.457 195.98 114.79 193.64 116.5 191.5C117.328 195.8 117.828 200.13 118 204.5C118.333 203.83 118.667 203.17 119 202.5C122.332 204.44 122.166 205.61 118.5 206C119.756 206.42 120.423 207.25 120.5 208.5Z" fill="#EAEAEA"/>
<path fill-rule="evenodd" clip-rule="evenodd" d="M387.5 196.5C391.475 196.49 394.809 197.82 397.5 200.5C396.127 200.66 394.793 200.49 393.5 200C391.382 198.92 389.382 197.75 387.5 196.5Z" fill="#939393"/>
<path fill-rule="evenodd" clip-rule="evenodd" d="M169.5 201.5C170.622 202.95 172.122 203.95 174 204.5C174.374 206.49 175.207 208.16 176.5 209.5C178.052 223.95 171.719 229.61 157.5 226.5C151.418 221.36 149.918 215.02 153 207.5C156.71 200.76 162.21 198.76 169.5 201.5Z" fill="#111111"/>
<path fill-rule="evenodd" clip-rule="evenodd" d="M206.5 193.5C205.974 196.81 207.307 198.97 210.5 200C217.822 200.02 224.989 200.85 232 202.5C232.29 200.96 232.956 199.62 234 198.5C236.693 201.41 236.527 204.41 233.5 207.5C226.277 205.1 218.943 205.1 211.5 207.5C209.7 207.1 208.033 206.43 206.5 205.5C204.992 201 202.659 197 199.5 193.5C199.369 192.76 199.536 192.09 200 191.5C201.897 193.02 204.064 193.68 206.5 193.5Z" fill="#ECECEC"/>
<path fill-rule="evenodd" clip-rule="evenodd" d="M397.5 200.5C400.738 201.74 403.404 203.74 405.5 206.5C402.07 205.46 399.403 203.46 397.5 200.5Z" fill="#AEAEAE"/>
<path fill-rule="evenodd" clip-rule="evenodd" d="M100.5 197.5C101.167 197.5 101.833 197.5 102.5 197.5C102.077 202.41 101.077 207.08 99.4999 211.5C96.3479 211.95 93.8479 210.95 91.9999 208.5C91.4999 213.5 90.9999 218.5 90.4999 223.5C90.5419 226.26 91.0419 228.93 91.9999 231.5C93.6989 232.41 95.5329 232.74 97.4999 232.5C97.6509 235.72 98.4839 236.05 99.9999 233.5C100.934 234.86 101.768 236.19 102.5 237.5C106.586 245.58 112.92 251.25 121.5 254.5C121.953 255.46 122.619 256.29 123.5 257C128.023 258.8 132.69 259.96 137.5 260.5C143.987 261.65 150.654 261.82 157.5 261C162.775 259.52 168.108 258.35 173.5 257.5C174.167 257.5 174.833 257.5 175.5 257.5C178.44 256.8 181.273 255.8 184 254.5C185.788 256.02 185.955 257.69 184.5 259.5C178.448 262.18 172.114 263.85 165.5 264.5C157.825 264.6 150.159 264.93 142.5 265.5C137.049 265.57 131.716 264.9 126.5 263.5C121.462 262.23 117.296 259.56 114 255.5C113.51 256.79 113.343 258.13 113.5 259.5C107.953 255.31 101.786 249.98 94.9999 243.5C92.4039 240.12 90.9039 236.29 90.4999 232C80.5029 232.08 70.5029 232.08 60.4999 232C56.7899 231.11 53.1229 230.11 49.4999 229C42.7249 225.57 40.8919 220.4 43.9999 213.5C47.7519 208.71 52.5849 205.54 58.4999 204C69.2389 203.76 79.9059 202.93 90.4999 201.5C91.4999 202.17 92.4999 202.83 93.4999 203.5C95.3229 202.25 97.3229 201.59 99.4999 201.5C99.3509 202.55 99.5169 203.55 99.9999 204.5C100.497 202.19 100.663 199.86 100.5 197.5Z" fill="#E4E4E4"/>
<path fill-rule="evenodd" clip-rule="evenodd" d="M307.5 196.5C309.129 197.63 310.629 198.96 312 200.5C313.53 204.09 314.864 207.76 316 211.5C316.81 215.36 316.643 219.02 315.5 222.5C315.43 212.96 312.763 204.3 307.5 196.5Z" fill="#898989"/>
<path fill-rule="evenodd" clip-rule="evenodd" d="M169.5 201.5C174.374 201.89 177.04 204.55 177.5 209.5C177.167 209.5 176.833 209.5 176.5 209.5C175.207 208.16 174.374 206.49 174 204.5C172.122 203.95 170.622 202.95 169.5 201.5Z" fill="#8F8F8F"/>
<path fill-rule="evenodd" clip-rule="evenodd" d="M308.5 218.5C308.5 218.83 308.5 219.17 308.5 219.5C307.102 221.11 305.435 221.94 303.5 222C303 221.5 302.5 221 302 220.5C301.333 215.83 301.333 211.17 302 206.5C303.049 205.48 304.216 205.32 305.5 206C307.923 209.75 308.923 213.92 308.5 218.5Z" fill="#1E1E1E"/>
<path fill-rule="evenodd" clip-rule="evenodd" d="M335.5 254.5C335.261 252.53 335.594 250.7 336.5 249C335.833 248 335.167 247 334.5 246C337.142 244.53 338.809 242.36 339.5 239.5C339.5 239.17 339.5 238.83 339.5 238.5C341.124 236.85 342.457 234.85 343.5 232.5C346.366 231.21 349.199 231.21 352 232.5C352.87 231.89 353.37 231.06 353.5 230C353.033 224.06 352.199 217.89 351 211.5C349.51 210.27 348.01 210.27 346.5 211.5C346.335 207.82 346.501 204.15 347 200.5C347.333 201.17 347.667 201.83 348 202.5C348.519 201.48 349.353 200.82 350.5 200.5C362.817 202.42 375.15 204.26 387.5 206C389.246 206.47 390.913 207.14 392.5 208C401.271 213.19 402.605 219.86 396.5 228C389.54 231.23 382.207 232.73 374.5 232.5C368.162 231.93 361.828 231.77 355.5 232C353.069 237.13 350.736 242.29 348.5 247.5C346.125 249.68 343.792 251.84 341.5 254C340.223 254.13 339.057 253.63 338 252.5C336.989 253.06 336.156 253.72 335.5 254.5Z" fill="#E1E1E1"/>
<path fill-rule="evenodd" clip-rule="evenodd" d="M136.5 197.5C135.952 199.39 134.952 201.06 133.5 202.5C133.833 203.17 134.167 203.83 134.5 204.5C131.727 207.49 129.727 210.82 128.5 214.5C128.5 213.5 128.5 212.5 128.5 211.5C129.115 205.6 131.782 200.93 136.5 197.5Z" fill="#BFBFBF"/>
<path fill-rule="evenodd" clip-rule="evenodd" d="M196.5 204.5C198.975 205.69 199.975 207.69 199.5 210.5C197.025 209.31 196.025 207.31 196.5 204.5Z" fill="#939393"/>
<path fill-rule="evenodd" clip-rule="evenodd" d="M293.5 215.5C292.046 218.41 290.546 221.41 289 224.5C287.512 226.16 285.679 227.16 283.5 227.5C286.662 224.49 289.329 220.99 291.5 217C290.133 213.43 289.133 209.76 288.5 206C288.833 205.67 289.167 205.33 289.5 205C284.825 201.97 279.825 200.8 274.5 201.5C274.611 200.88 274.944 200.38 275.5 200C287.393 198.43 293.393 203.6 293.5 215.5Z" fill="#272727"/>
<path fill-rule="evenodd" clip-rule="evenodd" d="M39.5 205.5C39.269 208.06 37.935 209.73 35.5 210.5C36.08 208.25 37.413 206.58 39.5 205.5Z" fill="#909090"/>
<path fill-rule="evenodd" clip-rule="evenodd" d="M138.5 206.5C139.496 206.41 140.329 206.75 141 207.5C141.81 212.26 141.476 216.92 140 221.5C136.407 223.97 134.573 222.8 134.5 218C134.532 213.6 135.866 209.77 138.5 206.5Z" fill="#1B1B1B"/>
<path fill-rule="evenodd" clip-rule="evenodd" d="M1.50007 208.5C1.17307 218.01 1.50607 227.35 2.50007 236.5C3.27207 240.45 3.60507 244.45 3.50007 248.5C2.11307 246.12 1.27907 243.46 1.00007 240.5C0.175068 229.66 0.341068 218.99 1.50007 208.5Z" fill="#BCBCBC"/>
<path fill-rule="evenodd" clip-rule="evenodd" d="M170.5 217.5C170.294 212.9 167.961 211.07 163.5 212C163.833 212.33 164.167 212.67 164.5 213C162.717 214.07 162.217 215.57 163 217.5C165.041 218.42 167.208 218.76 169.5 218.5C163.254 221.22 160.421 219.22 161 212.5C164.333 208.5 167.667 208.5 171 212.5C171.78 214.39 171.613 216.05 170.5 217.5Z" fill="#AEAEAE"/>
<path fill-rule="evenodd" clip-rule="evenodd" d="M170.5 217.5C170.5 218.17 170.167 218.5 169.5 218.5C167.208 218.76 165.041 218.42 163 217.5C162.217 215.57 162.717 214.07 164.5 213C164.167 212.67 163.833 212.33 163.5 212C167.961 211.07 170.294 212.9 170.5 217.5Z" fill="#E2E2E2"/>
<path fill-rule="evenodd" clip-rule="evenodd" d="M128.5 211.5C128.5 212.5 128.5 213.5 128.5 214.5C128.059 220.77 129.059 226.77 131.5 232.5C129.895 230.52 128.728 228.19 128 225.5C127.185 220.65 127.352 215.98 128.5 211.5Z" fill="#797979"/>
<path fill-rule="evenodd" clip-rule="evenodd" d="M234.5 219.5C234.167 219.5 233.833 219.5 233.5 219.5C225.197 218.19 216.864 218.19 208.5 219.5C208.611 218.88 208.944 218.38 209.5 218C217.5 217.33 225.5 217.33 233.5 218C234.056 218.38 234.389 218.88 234.5 219.5Z" fill="#A4A4A4"/>
<path fill-rule="evenodd" clip-rule="evenodd" d="M233.5 219.5C233.662 221.53 233.495 223.53 233 225.5C232.617 226.06 232.117 226.39 231.5 226.5C227.986 225.12 224.319 224.45 220.5 224.5C218.048 224.54 216.048 225.21 214.5 226.5C211.917 230 209.584 233.66 207.5 237.5C205.391 234.53 206.058 231.7 209.5 229C208.549 225.94 208.216 222.78 208.5 219.5C216.864 218.19 225.197 218.19 233.5 219.5Z" fill="#F0F0F0"/>
<path fill-rule="evenodd" clip-rule="evenodd" d="M245.5 207.5C244.319 211.74 243.652 216.08 243.5 220.5C242.362 217.7 242.195 214.7 243 211.5C243.2 209.68 244.034 208.35 245.5 207.5Z" fill="#9A9A9A"/>
<path fill-rule="evenodd" clip-rule="evenodd" d="M270.5 204.5C268.328 210.05 267.995 215.72 269.5 221.5C267.073 219.49 266.073 216.83 266.5 213.5C266.063 209.63 267.396 206.63 270.5 204.5Z" fill="#444444"/>
<path fill-rule="evenodd" clip-rule="evenodd" d="M283.5 227.5C280.5 227.5 277.5 227.5 274.5 227.5C272.844 225.54 271.177 223.54 269.5 221.5C267.995 215.72 268.328 210.05 270.5 204.5C271.262 202.74 272.596 201.74 274.5 201.5C279.825 200.8 284.825 201.97 289.5 205C289.167 205.33 288.833 205.67 288.5 206C289.133 209.76 290.133 213.43 291.5 217C289.329 220.99 286.662 224.49 283.5 227.5Z" fill="#0F0F0F"/>
<path fill-rule="evenodd" clip-rule="evenodd" d="M276.5 208.5C283.865 208.65 285.865 211.82 282.5 218C275.51 220.01 272.676 217.51 274 210.5C274.995 209.93 275.828 209.27 276.5 208.5Z" fill="#D3D3D3"/>
<path fill-rule="evenodd" clip-rule="evenodd" d="M35.5 210.5C34.608 215.44 34.274 220.44 34.5 225.5C33.206 223.95 32.539 221.95 32.5 219.5C32.667 217.5 32.833 215.5 33 213.5C33.377 212.06 34.21 211.06 35.5 210.5Z" fill="#B2B2B2"/>
<path fill-rule="evenodd" clip-rule="evenodd" d="M442.5 206.5C443.66 218.33 443.826 230.33 443 242.5C442.395 248.43 441.229 254.09 439.5 259.5C441.674 241.91 442.674 224.24 442.5 206.5Z" fill="#9F9F9F"/>
<path fill-rule="evenodd" clip-rule="evenodd" d="M176.5 209.5C176.833 209.5 177.167 209.5 177.5 209.5C179.635 216.28 177.969 222.11 172.5 227C170.13 228.04 167.63 228.54 165 228.5C162.134 228.7 159.634 228.03 157.5 226.5C171.719 229.61 178.052 223.95 176.5 209.5Z" fill="#4B4B4B"/>
<path fill-rule="evenodd" clip-rule="evenodd" d="M344.5 196.5C344.334 200.51 344.501 204.51 345 208.5C345.232 209.74 345.732 210.74 346.5 211.5C348.01 210.27 349.51 210.27 351 211.5C352.199 217.89 353.033 224.06 353.5 230C353.37 231.06 352.87 231.89 352 232.5C349.199 231.21 346.366 231.21 343.5 232.5C342.457 234.85 341.124 236.85 339.5 238.5C340.226 235.82 341.059 233.15 342 230.5C342.671 229.75 343.504 229.41 344.5 229.5C345.167 229.5 345.833 229.5 346.5 229.5C347.919 230.45 349.585 230.78 351.5 230.5C351.771 228.62 351.104 227.29 349.5 226.5C349.826 222.12 349.492 217.78 348.5 213.5C346.941 212.93 345.441 212.26 344 211.5C343.71 207.14 343.21 202.8 342.5 198.5C342.747 197.29 343.414 196.62 344.5 196.5Z" fill="#BFBFBF"/>
<path fill-rule="evenodd" clip-rule="evenodd" d="M215.5 226.5C219.514 226.33 223.514 226.5 227.5 227C230.099 229.74 232.432 232.57 234.5 235.5C238.313 240.43 242.146 245.43 246 250.5C248.956 253.72 252.456 256.06 256.5 257.5C263.653 261.04 271.319 263.21 279.5 264C287.012 264.82 294.345 264.66 301.5 263.5C306.661 263.95 311.327 262.95 315.5 260.5C322.696 259.24 328.696 255.9 333.5 250.5C334.48 253.09 334.813 255.75 334.5 258.5C333.833 258.5 333.5 258.83 333.5 259.5C331.774 261.94 330.274 264.61 329 267.5C325.255 283.62 320.421 299.28 314.5 314.5C314.167 314.5 313.833 314.5 313.5 314.5C313.657 313.13 313.49 311.79 313 310.5C309.893 314.65 307.06 318.98 304.5 323.5C302.898 322.45 302.065 323.12 302 325.5C301.292 324.62 300.458 323.95 299.5 323.5C302.369 318.43 304.702 313.09 306.5 307.5C308.685 303.79 310.352 299.79 311.5 295.5C314.609 288.5 316.943 281.17 318.5 273.5C318.357 271.74 318.691 270.07 319.5 268.5C318.833 268.17 318.167 267.83 317.5 267.5C313.888 268.81 310.221 269.81 306.5 270.5C289.803 269.93 273.137 268.93 256.5 267.5C254.621 266.66 252.621 266.33 250.5 266.5C250.802 269.06 250.468 271.39 249.5 273.5C247.102 273.26 245.102 273.93 243.5 275.5C242.791 276.4 241.791 276.74 240.5 276.5C237.654 276.55 235.32 277.55 233.5 279.5C226.615 281.16 219.615 281.83 212.5 281.5C210.5 280.5 208.5 279.5 206.5 278.5C201.923 276.85 197.257 275.18 192.5 273.5C192.5 272.83 192.5 272.17 192.5 271.5C192.5 269.83 192.5 268.17 192.5 266.5C190.901 266.23 189.568 266.57 188.5 267.5C182.828 269.49 177.161 271.16 171.5 272.5C162.574 274.04 153.574 274.7 144.5 274.5C138.222 273.01 131.889 271.35 125.5 269.5C125.263 270.79 125.596 271.79 126.5 272.5C126.5 273.17 126.5 273.83 126.5 274.5C126.575 277.21 126.908 279.87 127.5 282.5C126.039 284.35 125.039 286.52 124.5 289C128.259 300.56 132.259 311.56 136.5 322C135.748 322.67 135.414 323.5 135.5 324.5C130.396 315.28 126.063 305.62 122.5 295.5C122.277 291.84 121.277 288.5 119.5 285.5C118.449 278.87 116.783 272.54 114.5 266.5C114.326 264.14 113.993 261.81 113.5 259.5C113.343 258.13 113.51 256.79 114 255.5C117.296 259.56 121.462 262.23 126.5 263.5C128.277 264.6 130.277 265.43 132.5 266C136.833 266.17 141.167 266.33 145.5 266.5C152.398 266.65 159.064 265.99 165.5 264.5C172.114 263.85 178.448 262.18 184.5 259.5C188.933 256.92 193.266 254.08 197.5 251C200.698 246.97 204.032 243.14 207.5 239.5C209.481 238.11 211.148 236.27 212.5 234C213.214 231.35 214.214 228.85 215.5 226.5Z" fill="#111111"/>
<path fill-rule="evenodd" clip-rule="evenodd" d="M231.5 226.5C231.914 229.74 232.914 232.74 234.5 235.5C232.432 232.57 230.099 229.74 227.5 227C223.514 226.5 219.514 226.33 215.5 226.5C215.167 226.5 214.833 226.5 214.5 226.5C216.048 225.21 218.048 224.54 220.5 224.5C224.319 224.45 227.986 225.12 231.5 226.5Z" fill="#989898"/>
<path fill-rule="evenodd" clip-rule="evenodd" d="M120.5 211.5C120.994 218.65 122.327 225.65 124.5 232.5C124.5 233.17 124.5 233.83 124.5 234.5C120.427 227.23 119.094 219.56 120.5 211.5Z" fill="#8D8D8D"/>
<path fill-rule="evenodd" clip-rule="evenodd" d="M349.5 226.5C351.104 227.29 351.771 228.62 351.5 230.5C349.585 230.78 347.919 230.45 346.5 229.5C347.873 229.66 349.207 229.49 350.5 229C349.748 228.33 349.414 227.5 349.5 226.5Z" fill="#606060"/>
<path fill-rule="evenodd" clip-rule="evenodd" d="M243.5 224.5C246.591 229.01 249.925 233.35 253.5 237.5C248.012 234.87 244.679 230.54 243.5 224.5Z" fill="#717171"/>
<path fill-rule="evenodd" clip-rule="evenodd" d="M214.5 226.5C214.833 226.5 215.167 226.5 215.5 226.5C214.214 228.85 213.214 231.35 212.5 234C211.148 236.27 209.481 238.11 207.5 239.5C207.5 238.83 207.5 238.17 207.5 237.5C209.584 233.66 211.917 230 214.5 226.5Z" fill="#2F2F2F"/>
<path fill-rule="evenodd" clip-rule="evenodd" d="M99.5 211.5C99.631 212.24 99.464 212.91 99 213.5C97.605 212.19 96.605 212.52 96 214.5C95.677 219.87 95.177 225.2 94.5 230.5C100.485 229.27 103.152 231.6 102.5 237.5C101.768 236.19 100.934 234.86 100 233.5C98.484 236.05 97.651 235.72 97.5 232.5C95.533 232.74 93.699 232.41 92 231.5C91.042 228.93 90.542 226.26 90.5 223.5C91 218.5 91.5 213.5 92 208.5C93.848 210.95 96.348 211.95 99.5 211.5Z" fill="#C2C2C2"/>
<path fill-rule="evenodd" clip-rule="evenodd" d="M124.5 232.5C127 235.49 129 238.83 130.5 242.5C129.167 241.17 127.833 239.83 126.5 238.5C126.34 236.85 125.674 235.51 124.5 234.5C124.5 233.83 124.5 233.17 124.5 232.5Z" fill="#474747"/>
<path fill-rule="evenodd" clip-rule="evenodd" d="M233.5 219.5C233.833 219.5 234.167 219.5 234.5 219.5C236.931 231.01 242.931 240.34 252.5 247.5C257.677 252.09 263.677 255.09 270.5 256.5C273.215 258.12 276.215 258.79 279.5 258.5C278.003 259.31 276.336 259.97 274.5 260.5C272.84 259.93 271.006 259.93 269 260.5C264.781 259.59 260.615 258.59 256.5 257.5C252.456 256.06 248.956 253.72 246 250.5C242.146 245.43 238.313 240.43 234.5 235.5C232.914 232.74 231.914 229.74 231.5 226.5C232.117 226.39 232.617 226.06 233 225.5C233.495 223.53 233.662 221.53 233.5 219.5Z" fill="#DADADA"/>
<path fill-rule="evenodd" clip-rule="evenodd" d="M81.5 245.5C79.707 243.57 78.707 241.24 78.5 238.5C76.784 238.63 75.117 238.96 73.5 239.5C65.833 239.5 58.167 239.5 50.5 239.5C48.447 239.6 46.78 238.93 45.5 237.5C56.94 239.1 68.273 238.77 79.5 236.5C80.167 239.5 80.833 242.5 81.5 245.5Z" fill="#B7B7B7"/>
<path fill-rule="evenodd" clip-rule="evenodd" d="M50.5 239.5C58.167 239.5 65.833 239.5 73.5 239.5C70.618 240.91 67.451 241.58 64 241.5C59.294 241.27 54.794 240.6 50.5 239.5Z" fill="#595959"/>
<path fill-rule="evenodd" clip-rule="evenodd" d="M217.5 271.5C214.916 269.53 211.916 268.53 208.5 268.5C208.167 268.5 207.833 268.5 207.5 268.5C204.628 266.65 201.628 264.98 198.5 263.5C203.556 260.78 207.223 256.78 209.5 251.5C209.833 251.5 210.167 251.5 210.5 251.5C212.326 249.85 213.66 247.85 214.5 245.5C216.543 244.42 217.876 242.75 218.5 240.5C219.254 238.55 220.588 237.72 222.5 238C229.853 247.01 237.519 255.68 245.5 264C240.232 266 234.899 268 229.5 270C225.56 271.02 221.56 271.52 217.5 271.5Z" fill="#F7F7F7"/>
<path fill-rule="evenodd" clip-rule="evenodd" d="M367.5 237.5C367.917 236.88 368.584 236.54 369.5 236.5C377.71 238.33 386.043 238.99 394.5 238.5C390.609 240.01 386.442 240.67 382 240.5C379.167 240.33 376.333 240.17 373.5 240C371.58 238.88 369.58 238.04 367.5 237.5Z" fill="#7B7B7B"/>
<path fill-rule="evenodd" clip-rule="evenodd" d="M218.5 240.5C217.876 242.75 216.543 244.42 214.5 245.5C215.136 243.21 216.469 241.54 218.5 240.5Z" fill="#787878"/>
<path fill-rule="evenodd" clip-rule="evenodd" d="M253.5 237.5C255.857 237.34 258.19 237.5 260.5 238C265.197 240.51 270.197 242.18 275.5 243C282.826 243.5 290.159 243.67 297.5 243.5C295.852 244.93 293.852 245.76 291.5 246C277.426 248.79 264.759 245.96 253.5 237.5Z" fill="#C5C5C5"/>
<path fill-rule="evenodd" clip-rule="evenodd" d="M126.5 238.5C127.833 239.83 129.167 241.17 130.5 242.5C133.228 245.71 136.561 248.21 140.5 250C142.677 251.2 145.011 251.7 147.5 251.5C149.918 252.29 151.918 253.63 153.5 255.5C149.818 255.67 146.152 255.5 142.5 255C135.71 252.77 129.044 250.27 122.5 247.5C121.476 246.15 120.476 244.81 119.5 243.5C121.044 243.7 122.378 244.37 123.5 245.5C125.042 244.25 126.542 244.25 128 245.5C128.667 244.83 128.667 244.17 128 243.5C126.513 242.84 125.347 241.84 124.5 240.5C124.846 239.3 125.346 239.3 126 240.5C126.464 239.91 126.631 239.24 126.5 238.5Z" fill="#D2D2D2"/>
<path fill-rule="evenodd" clip-rule="evenodd" d="M192.5 235.5C192.5 235.83 192.5 236.17 192.5 236.5C186.234 242.08 178.9 245.41 170.5 246.5C164.974 246.82 159.64 246.49 154.5 245.5C168.227 246.03 180.894 242.7 192.5 235.5Z" fill="#D0D0D0"/>
<path fill-rule="evenodd" clip-rule="evenodd" d="M208.5 219.5C208.216 222.78 208.549 225.94 209.5 229C206.058 231.7 205.391 234.53 207.5 237.5C207.5 238.17 207.5 238.83 207.5 239.5C204.032 243.14 200.698 246.97 197.5 251C193.266 254.08 188.933 256.92 184.5 259.5C185.955 257.69 185.788 256.02 184 254.5C181.273 255.8 178.44 256.8 175.5 257.5C178.896 255.4 182.563 253.57 186.5 252C190.09 249.39 193.424 246.55 196.5 243.5C198.226 241.77 199.559 239.77 200.5 237.5C204.909 232.27 207.576 226.27 208.5 219.5Z" fill="#C9C9C9"/>
<path fill-rule="evenodd" clip-rule="evenodd" d="M323.5 220.5C324.533 226.63 323.033 231.96 319 236.5C318.316 237.78 318.483 238.95 319.5 240C317.589 241.5 315.589 242.83 313.5 244C314.833 244.67 314.833 245.33 313.5 246C314.448 246.48 315.448 246.65 316.5 246.5C309.688 250.55 302.355 253.22 294.5 254.5C292.585 254.78 290.919 254.45 289.5 253.5C308.793 250.54 320.126 239.54 323.5 220.5Z" fill="#BBBBBB"/>
<path fill-rule="evenodd" clip-rule="evenodd" d="M148.5 244.5C150.565 244.52 152.565 244.85 154.5 245.5C159.64 246.49 164.974 246.82 170.5 246.5C165.015 247.65 159.349 247.82 153.5 247C151.509 246.63 149.842 245.79 148.5 244.5Z" fill="#939393"/>
<path fill-rule="evenodd" clip-rule="evenodd" d="M214.5 245.5C213.66 247.85 212.326 249.85 210.5 251.5C210.845 248.8 212.178 246.8 214.5 245.5Z" fill="#949494"/>
<path fill-rule="evenodd" clip-rule="evenodd" d="M367.5 239.5C367.206 242.75 365.873 245.42 363.5 247.5C363.896 244.28 365.229 241.61 367.5 239.5Z" fill="#7A7A7A"/>
<path fill-rule="evenodd" clip-rule="evenodd" d="M130.5 242.5C136.625 244.73 142.292 247.73 147.5 251.5C145.011 251.7 142.677 251.2 140.5 250C136.561 248.21 133.228 245.71 130.5 242.5Z" fill="#343434"/>
<path fill-rule="evenodd" clip-rule="evenodd" d="M196.5 243.5C193.424 246.55 190.09 249.39 186.5 252C182.563 253.57 178.896 255.4 175.5 257.5C174.833 257.5 174.167 257.5 173.5 257.5C173.908 256.36 174.575 255.36 175.5 254.5C182.913 251.38 189.913 247.71 196.5 243.5Z" fill="#313131"/>
<path fill-rule="evenodd" clip-rule="evenodd" d="M252.5 247.5C258.961 249.64 264.961 252.64 270.5 256.5C263.677 255.09 257.677 252.09 252.5 247.5Z" fill="#3C3C3C"/>
<path fill-rule="evenodd" clip-rule="evenodd" d="M147.5 251.5C152.01 252.17 156.343 253.34 160.5 255C158.19 255.5 155.857 255.66 153.5 255.5C151.918 253.63 149.918 252.29 147.5 251.5Z" fill="#4D4D4D"/>
<path fill-rule="evenodd" clip-rule="evenodd" d="M289.5 253.5C290.919 254.45 292.585 254.78 294.5 254.5C290.019 255.65 285.352 255.82 280.5 255C283.432 254.05 286.432 253.55 289.5 253.5Z" fill="#6F6F6F"/>
<path fill-rule="evenodd" clip-rule="evenodd" d="M339.5 239.5C338.809 242.36 337.142 244.53 334.5 246C335.167 247 335.833 248 336.5 249C335.594 250.7 335.261 252.53 335.5 254.5C335.768 256.1 335.434 257.43 334.5 258.5C334.813 255.75 334.48 253.09 333.5 250.5C328.696 255.9 322.696 259.24 315.5 260.5C319.327 255.68 317.994 254.35 311.5 256.5C321.831 252.51 331.164 246.84 339.5 239.5Z" fill="#CACACA"/>
<path fill-rule="evenodd" clip-rule="evenodd" d="M121.5 254.5C127.13 255.93 132.464 257.93 137.5 260.5C132.69 259.96 128.023 258.8 123.5 257C122.619 256.29 121.953 255.46 121.5 254.5Z" fill="#7D7D7D"/>
<path fill-rule="evenodd" clip-rule="evenodd" d="M209.5 251.5C207.223 256.78 203.556 260.78 198.5 263.5C202.195 259.47 205.862 255.47 209.5 251.5Z" fill="#939393"/>
<path fill-rule="evenodd" clip-rule="evenodd" d="M315.5 260.5C311.327 262.95 306.661 263.95 301.5 263.5C296.489 263.67 291.489 263.5 286.5 263C292.173 261.12 297.839 259.62 303.5 258.5C306.221 258.04 308.888 257.37 311.5 256.5C317.994 254.35 319.327 255.68 315.5 260.5Z" fill="#E0E0E0"/>
<path fill-rule="evenodd" clip-rule="evenodd" d="M256.5 257.5C260.615 258.59 264.781 259.59 269 260.5C271.006 259.93 272.84 259.93 274.5 260.5C276.336 259.97 278.003 259.31 279.5 258.5C287.504 259.78 295.504 259.78 303.5 258.5C297.839 259.62 292.173 261.12 286.5 263C291.489 263.5 296.489 263.67 301.5 263.5C294.345 264.66 287.012 264.82 279.5 264C271.319 263.21 263.653 261.04 256.5 257.5Z" fill="#BFBFBF"/>
<path fill-rule="evenodd" clip-rule="evenodd" d="M198.5 263.5C201.628 264.98 204.628 266.65 207.5 268.5C204.45 267.71 201.45 266.71 198.5 265.5C197.227 264.74 197.227 264.08 198.5 263.5Z" fill="#A2A2A2"/>
<path fill-rule="evenodd" clip-rule="evenodd" d="M126.5 263.5C131.716 264.9 137.049 265.57 142.5 265.5C150.159 264.93 157.825 264.6 165.5 264.5C159.064 265.99 152.398 266.65 145.5 266.5C141.167 266.33 136.833 266.17 132.5 266C130.277 265.43 128.277 264.6 126.5 263.5Z" fill="#B0B0B0"/>
<path fill-rule="evenodd" clip-rule="evenodd" d="M256.5 267.5C258.562 268.78 260.896 269.61 263.5 270C267.863 270.37 272.196 270.87 276.5 271.5C284.833 274.17 293.167 274.17 301.5 271.5C303.415 271.78 305.081 271.45 306.5 270.5C310.221 269.81 313.888 268.81 317.5 267.5C318.167 267.83 318.833 268.17 319.5 268.5C318.691 270.07 318.357 271.74 318.5 273.5C315.388 280.51 313.054 287.84 311.5 295.5C307.665 298.51 305.999 302.51 306.5 307.5C304.702 313.09 302.369 318.43 299.5 323.5C298.17 325.49 296.836 327.49 295.5 329.5C293.018 330.66 291.684 332.66 291.5 335.5C290.222 335.78 289.222 336.45 288.5 337.5C285.097 339.9 282.43 342.9 280.5 346.5C278.246 347.12 276.579 348.46 275.5 350.5C270.159 353.5 264.825 356.5 259.5 359.5C243.079 367.48 225.746 370.14 207.5 367.5C203.23 365.16 198.563 363.83 193.5 363.5C192.508 363.67 191.842 363.34 191.5 362.5C187.089 360.14 182.423 358.14 177.5 356.5C176.508 356.67 175.842 356.34 175.5 355.5C174.415 353.41 172.749 352.08 170.5 351.5C164.244 346.91 158.578 341.58 153.5 335.5C150.68 332.04 148.347 328.37 146.5 324.5C143.158 314.5 138.825 305.16 133.5 296.5C131.747 293.85 130.747 290.85 130.5 287.5C129.92 282.82 128.587 278.49 126.5 274.5C126.5 273.83 126.5 273.17 126.5 272.5C126.369 271.76 126.536 271.09 127 270.5C130.456 272.93 134.29 274.26 138.5 274.5C146.323 275.66 154.323 275.82 162.5 275C165.797 274.8 168.797 273.96 171.5 272.5C175.56 272.52 179.56 272.02 183.5 271C185.584 270.3 187.251 269.14 188.5 267.5C189.239 267.37 189.906 267.54 190.5 268C191.085 269.3 191.751 270.47 192.5 271.5C192.5 272.17 192.5 272.83 192.5 273.5C193.574 274.88 194.907 276.05 196.5 277C199.827 277.61 203.161 278.11 206.5 278.5C208.5 279.5 210.5 280.5 212.5 281.5C217.985 282.65 223.651 282.82 229.5 282C231.744 281.95 233.411 281.12 234.5 279.5C236.75 278.87 238.75 277.87 240.5 276.5C241.791 276.74 242.791 276.4 243.5 275.5C245.898 275.74 247.898 275.07 249.5 273.5C250.468 271.39 250.802 269.06 250.5 266.5C252.621 266.33 254.621 266.66 256.5 267.5Z" fill="#FBFBFB"/>
<path fill-rule="evenodd" clip-rule="evenodd" d="M208.5 268.5C211.916 268.53 214.916 269.53 217.5 271.5C214.215 271.07 211.215 270.07 208.5 268.5Z" fill="#979797"/>
<path fill-rule="evenodd" clip-rule="evenodd" d="M188.5 267.5C189.568 266.57 190.901 266.23 192.5 266.5C192.5 268.17 192.5 269.83 192.5 271.5C191.751 270.47 191.085 269.3 190.5 268C189.906 267.54 189.239 267.37 188.5 267.5Z" fill="#9F9F9F"/>
<path fill-rule="evenodd" clip-rule="evenodd" d="M256.5 267.5C273.137 268.93 289.803 269.93 306.5 270.5C305.081 271.45 303.415 271.78 301.5 271.5C293.167 271.5 284.833 271.5 276.5 271.5C272.196 270.87 267.863 270.37 263.5 270C260.896 269.61 258.562 268.78 256.5 267.5Z" fill="#282828"/>
<path fill-rule="evenodd" clip-rule="evenodd" d="M144.5 274.5C142.5 274.5 140.5 274.5 138.5 274.5C134.29 274.26 130.456 272.93 127 270.5C126.536 271.09 126.369 271.76 126.5 272.5C125.596 271.79 125.263 270.79 125.5 269.5C131.889 271.35 138.222 273.01 144.5 274.5Z" fill="#737373"/>
<path fill-rule="evenodd" clip-rule="evenodd" d="M188.5 267.5C187.251 269.14 185.584 270.3 183.5 271C179.56 272.02 175.56 272.52 171.5 272.5C177.161 271.16 182.828 269.49 188.5 267.5Z" fill="#909090"/>
<path fill-rule="evenodd" clip-rule="evenodd" d="M4.5 259.5C6.164 266.72 7.83 274.06 9.5 281.5C8.027 279.42 6.86 277.08 6 274.5C5.589 269.48 5.089 264.48 4.5 259.5Z" fill="#A5A5A5"/>
<path fill-rule="evenodd" clip-rule="evenodd" d="M276.5 271.5C284.833 271.5 293.167 271.5 301.5 271.5C293.167 274.17 284.833 274.17 276.5 271.5Z" fill="#A4A4A4"/>
<path fill-rule="evenodd" clip-rule="evenodd" d="M171.5 272.5C168.797 273.96 165.797 274.8 162.5 275C154.323 275.82 146.323 275.66 138.5 274.5C140.5 274.5 142.5 274.5 144.5 274.5C153.574 274.7 162.574 274.04 171.5 272.5Z" fill="#C5C5C5"/>
<path fill-rule="evenodd" clip-rule="evenodd" d="M249.5 273.5C247.898 275.07 245.898 275.74 243.5 275.5C245.102 273.93 247.102 273.26 249.5 273.5Z" fill="#818181"/>
<path fill-rule="evenodd" clip-rule="evenodd" d="M192.5 273.5C197.257 275.18 201.923 276.85 206.5 278.5C203.161 278.11 199.827 277.61 196.5 277C194.907 276.05 193.574 274.88 192.5 273.5Z" fill="#A3A3A3"/>
<path fill-rule="evenodd" clip-rule="evenodd" d="M240.5 276.5C238.75 277.87 236.75 278.87 234.5 279.5C234.167 279.5 233.833 279.5 233.5 279.5C235.32 277.55 237.654 276.55 240.5 276.5Z" fill="#585858"/>
<path fill-rule="evenodd" clip-rule="evenodd" d="M126.5 274.5C128.587 278.49 129.92 282.82 130.5 287.5C129.313 285.93 128.313 284.26 127.5 282.5C126.908 279.87 126.575 277.21 126.5 274.5Z" fill="#696969"/>
<path fill-rule="evenodd" clip-rule="evenodd" d="M233.5 279.5C233.833 279.5 234.167 279.5 234.5 279.5C233.411 281.12 231.744 281.95 229.5 282C223.651 282.82 217.985 282.65 212.5 281.5C219.615 281.83 226.615 281.16 233.5 279.5Z" fill="#C7C7C7"/>
<path fill-rule="evenodd" clip-rule="evenodd" d="M9.49998 281.5C10.924 283.51 11.59 285.85 11.5 288.5C10.076 286.49 9.40998 284.15 9.49998 281.5Z" fill="#757575"/>
<path fill-rule="evenodd" clip-rule="evenodd" d="M331.5 277.5C331.833 277.5 332.167 277.5 332.5 277.5C332.58 280.78 331.913 283.78 330.5 286.5C330.704 283.48 331.037 280.48 331.5 277.5Z" fill="#777777"/>
<path fill-rule="evenodd" clip-rule="evenodd" d="M318.5 273.5C316.943 281.17 314.609 288.5 311.5 295.5C313.054 287.84 315.388 280.51 318.5 273.5Z" fill="#878787"/>
<path fill-rule="evenodd" clip-rule="evenodd" d="M119.5 285.5C121.277 288.5 122.277 291.84 122.5 295.5C120.723 292.5 119.723 289.16 119.5 285.5Z" fill="#777777"/>
<path fill-rule="evenodd" clip-rule="evenodd" d="M333.5 259.5C333.16 263.7 331.826 267.54 329.5 271C329.748 272.75 330.748 273.58 332.5 273.5C332.5 274.83 332.5 276.17 332.5 277.5C332.167 277.5 331.833 277.5 331.5 277.5C331.646 275.06 330.813 274.39 329 275.5C326.905 285.1 324.072 294.43 320.5 303.5C320.556 304.74 321.056 305.74 322 306.5C323.113 305.69 324.279 305.03 325.5 304.5C324.39 308.53 322.723 312.2 320.5 315.5C320.575 312.79 320.908 310.13 321.5 307.5C320.325 307.28 319.325 307.61 318.5 308.5C320.011 310.84 319.677 311.5 317.5 310.5C316.85 312.18 315.85 313.52 314.5 314.5C320.421 299.28 325.255 283.62 329 267.5C330.274 264.61 331.774 261.94 333.5 259.5Z" fill="#C2C2C2"/>
<path fill-rule="evenodd" clip-rule="evenodd" d="M11.5 288.5C13.405 292.22 14.739 296.22 15.5 300.5C13.065 296.94 11.732 292.94 11.5 288.5Z" fill="#8B8B8B"/>
<path fill-rule="evenodd" clip-rule="evenodd" d="M237.5 292.5C228.318 292.17 219.318 292.51 210.5 293.5C202.854 294.21 195.187 294.54 187.5 294.5C187.5 294.17 187.5 293.83 187.5 293.5C204.148 291.65 220.814 291.32 237.5 292.5Z" fill="#A2A2A2"/>
<path fill-rule="evenodd" clip-rule="evenodd" d="M210.5 293.5C219.318 292.51 228.318 292.17 237.5 292.5C240.167 292.5 242.833 292.5 245.5 292.5C251.518 293.37 257.518 294.37 263.5 295.5C245.852 294.4 228.185 293.73 210.5 293.5Z" fill="#616161"/>
<path fill-rule="evenodd" clip-rule="evenodd" d="M210.5 293.5C228.185 293.73 245.852 294.4 263.5 295.5C271.167 295.5 278.833 295.5 286.5 295.5C287.537 296.93 288.204 298.6 288.5 300.5C289.787 303.7 290.453 307.03 290.5 310.5C289.249 312.56 287.582 312.89 285.5 311.5C284.004 309.03 283.004 306.36 282.5 303.5C279.851 301.89 276.851 301.06 273.5 301C260.521 299.8 247.521 298.96 234.5 298.5C218.986 297.34 203.319 297.5 187.5 299C179.543 300.11 171.543 300.78 163.5 301C162.672 301.91 161.672 302.58 160.5 303C161.056 303.38 161.389 303.88 161.5 304.5C161.014 307.71 160.014 310.71 158.5 313.5C157.041 313.57 155.708 313.23 154.5 312.5C154.167 311.83 153.833 311.17 153.5 310.5C155.123 306.67 156.123 302.67 156.5 298.5C156.328 297.51 156.662 296.84 157.5 296.5C167.603 296.58 177.603 295.91 187.5 294.5C195.187 294.54 202.854 294.21 210.5 293.5Z" fill="#0D0D0D"/>
<path fill-rule="evenodd" clip-rule="evenodd" d="M245.5 292.5C258.841 292.73 272.175 293.23 285.5 294C286.056 294.38 286.389 294.88 286.5 295.5C278.833 295.5 271.167 295.5 263.5 295.5C257.518 294.37 251.518 293.37 245.5 292.5Z" fill="#BFBFBF"/>
<path fill-rule="evenodd" clip-rule="evenodd" d="M187.5 293.5C187.5 293.83 187.5 294.17 187.5 294.5C177.603 295.91 167.603 296.58 157.5 296.5C158.871 295.21 160.705 294.55 163 294.5C171.148 293.69 179.314 293.36 187.5 293.5Z" fill="#BFBFBF"/>
<path fill-rule="evenodd" clip-rule="evenodd" d="M331.5 277.5C331.037 280.48 330.704 283.48 330.5 286.5C328.831 292.52 327.165 298.52 325.5 304.5C324.279 305.03 323.113 305.69 322 306.5C321.056 305.74 320.556 304.74 320.5 303.5C324.072 294.43 326.905 285.1 329 275.5C330.813 274.39 331.646 275.06 331.5 277.5Z" fill="#E9E9E9"/>
<path fill-rule="evenodd" clip-rule="evenodd" d="M234.5 298.5C228.31 298.18 222.31 298.51 216.5 299.5C207.611 299.2 198.944 299.86 190.5 301.5C188.833 301.5 187.167 301.5 185.5 301.5C181.21 301.2 177.21 301.86 173.5 303.5C169.629 303.19 165.962 303.52 162.5 304.5C162.167 304.5 161.833 304.5 161.5 304.5C161.389 303.88 161.056 303.38 160.5 303C161.672 302.58 162.672 301.91 163.5 301C171.543 300.78 179.543 300.11 187.5 299C203.319 297.5 218.986 297.34 234.5 298.5Z" fill="#2F2F2F"/>
<path fill-rule="evenodd" clip-rule="evenodd" d="M216.5 299.5C224.684 299.17 232.684 299.51 240.5 300.5C223.824 300.48 207.158 300.81 190.5 301.5C198.944 299.86 207.611 299.2 216.5 299.5Z" fill="#BCBCBC"/>
<path fill-rule="evenodd" clip-rule="evenodd" d="M216.5 299.5C222.31 298.51 228.31 298.18 234.5 298.5C247.521 298.96 260.521 299.8 273.5 301C276.851 301.06 279.851 301.89 282.5 303.5C268.43 302.66 254.43 301.66 240.5 300.5C232.684 299.51 224.684 299.17 216.5 299.5Z" fill="#626262"/>
<path fill-rule="evenodd" clip-rule="evenodd" d="M311.5 295.5C310.352 299.79 308.685 303.79 306.5 307.5C305.999 302.51 307.665 298.51 311.5 295.5Z" fill="#B6B6B6"/>
<path fill-rule="evenodd" clip-rule="evenodd" d="M185.5 301.5C181.79 303.14 177.79 303.8 173.5 303.5C177.21 301.86 181.21 301.2 185.5 301.5Z" fill="#B5B5B5"/>
<path fill-rule="evenodd" clip-rule="evenodd" d="M288.5 300.5C289.966 301.35 290.8 302.68 291 304.5C291.789 306.71 291.622 308.71 290.5 310.5C290.453 307.03 289.787 303.7 288.5 300.5Z" fill="#848484"/>
<path fill-rule="evenodd" clip-rule="evenodd" d="M15.5001 300.5C17.3461 303.54 18.6791 306.87 19.5001 310.5C16.8191 307.81 15.4861 304.47 15.5001 300.5Z" fill="#9E9E9E"/>
<path fill-rule="evenodd" clip-rule="evenodd" d="M156.5 298.5C156.123 302.67 155.123 306.67 153.5 310.5C152.801 306.23 153.801 302.23 156.5 298.5Z" fill="#747474"/>
<path fill-rule="evenodd" clip-rule="evenodd" d="M430.5 294.5C429.812 298.22 428.812 301.89 427.5 305.5C427.253 306.71 426.586 307.38 425.5 307.5C426.599 302.86 428.266 298.52 430.5 294.5Z" fill="#989898"/>
<path fill-rule="evenodd" clip-rule="evenodd" d="M116.5 297.5C118.284 298.57 119.451 300.24 120 302.5C122.127 307.75 123.96 313.08 125.5 318.5C124.21 317.94 123.377 316.94 123 315.5C120.534 309.58 118.368 303.58 116.5 297.5Z" fill="#A8A8A8"/>
<path fill-rule="evenodd" clip-rule="evenodd" d="M161.5 304.5C161.833 304.5 162.167 304.5 162.5 304.5C162.941 309.3 161.108 312.63 157 314.5C155.624 314.32 154.791 313.65 154.5 312.5C155.708 313.23 157.041 313.57 158.5 313.5C160.014 310.71 161.014 307.71 161.5 304.5Z" fill="#BDBDBD"/>
<path fill-rule="evenodd" clip-rule="evenodd" d="M133.5 296.5C138.825 305.16 143.158 314.5 146.5 324.5C141.417 315.62 137.084 306.29 133.5 296.5Z" fill="#A5A5A5"/>
<path fill-rule="evenodd" clip-rule="evenodd" d="M425.5 307.5C424.829 312.51 422.829 316.84 419.5 320.5C420.716 315.74 422.716 311.4 425.5 307.5Z" fill="#979797"/>
<path fill-rule="evenodd" clip-rule="evenodd" d="M125.5 320.5C127.822 321.8 129.155 323.8 129.5 326.5C127.674 324.85 126.34 322.85 125.5 320.5Z" fill="#767676"/>
<path fill-rule="evenodd" clip-rule="evenodd" d="M419.5 320.5C419.088 323.8 417.755 326.47 415.5 328.5C416.279 325.46 417.613 322.79 419.5 320.5Z" fill="#8B8B8B"/>
<path fill-rule="evenodd" clip-rule="evenodd" d="M114.5 266.5C116.783 272.54 118.449 278.87 119.5 285.5C119.723 289.16 120.723 292.5 122.5 295.5C126.063 305.62 130.396 315.28 135.5 324.5C137.267 326.94 138.601 329.61 139.5 332.5C138.175 331.05 137.342 331.38 137 333.5C136.832 363.67 136.332 393.67 135.5 423.5C135.831 393.66 135.498 364 134.5 334.5C132.847 331.87 131.181 329.2 129.5 326.5C129.155 323.8 127.822 321.8 125.5 320.5C125.5 319.83 125.5 319.17 125.5 318.5C123.96 313.08 122.127 307.75 120 302.5C119.451 300.24 118.284 298.57 116.5 297.5C113.322 289.27 111.655 280.6 111.5 271.5C112.239 271.37 112.906 271.54 113.5 272C112.304 272.65 112.304 273.15 113.5 273.5C114.474 271.26 114.808 268.92 114.5 266.5Z" fill="#DADADA"/>
<path fill-rule="evenodd" clip-rule="evenodd" d="M127.5 282.5C128.313 284.26 129.313 285.93 130.5 287.5C130.747 290.85 131.747 293.85 133.5 296.5C137.084 306.29 141.417 315.62 146.5 324.5C148.347 328.37 150.68 332.04 153.5 335.5C158.578 341.58 164.244 346.91 170.5 351.5C171.585 353.59 173.251 354.92 175.5 355.5C175.842 356.34 176.508 356.67 177.5 356.5C181.522 359.82 186.189 361.82 191.5 362.5C191.842 363.34 192.508 363.67 193.5 363.5C193.611 364.12 193.944 364.62 194.5 365C198.816 366 203.149 366.83 207.5 367.5C212.233 369.05 217.233 369.71 222.5 369.5C233.744 369.65 244.744 368.15 255.5 365C257.342 362.93 259.342 361.09 261.5 359.5C266.949 357.46 271.615 354.46 275.5 350.5C277.795 349.86 279.461 348.53 280.5 346.5C282.017 346.49 283.184 345.82 284 344.5C286.11 342.56 287.61 340.22 288.5 337.5C289.222 336.45 290.222 335.78 291.5 335.5C293.192 333.8 294.525 331.8 295.5 329.5C296.836 327.49 298.17 325.49 299.5 323.5C300.458 323.95 301.292 324.62 302 325.5C302.065 323.12 302.898 322.45 304.5 323.5C307.06 318.98 309.893 314.65 313 310.5C313.49 311.79 313.657 313.13 313.5 314.5C310.787 320.93 307.787 327.26 304.5 333.5C303.883 333.61 303.383 333.94 303 334.5C302.5 364.83 302.333 395.16 302.5 425.5C301.005 425.99 299.671 426.66 298.5 427.5C289.026 430 279.693 432.66 270.5 435.5C265.304 436.14 260.304 437.14 255.5 438.5C249.949 438.53 244.616 439.19 239.5 440.5C237.5 440.5 235.5 440.5 233.5 440.5C217.795 440.63 202.129 439.96 186.5 438.5C186.167 438.5 185.833 438.5 185.5 438.5C185.389 437.88 185.056 437.38 184.5 437C179.882 436.01 175.215 435.51 170.5 435.5C168.958 434.7 167.292 434.37 165.5 434.5C165.389 433.88 165.056 433.38 164.5 433C158.387 431.79 152.387 430.29 146.5 428.5C145.152 427.4 143.652 426.4 142 425.5C141.667 394.83 141.333 364.17 141 333.5C140.617 332.94 140.117 332.61 139.5 332.5C138.601 329.61 137.267 326.94 135.5 324.5C135.414 323.5 135.748 322.67 136.5 322C132.259 311.56 128.259 300.56 124.5 289C125.039 286.52 126.039 284.35 127.5 282.5Z" fill="#0C0C0C"/>
<path fill-rule="evenodd" clip-rule="evenodd" d="M211.5 318.5C210.833 319.17 210.167 319.83 209.5 320.5C204.331 320.82 201.997 323.32 202.5 328C203.793 328.49 205.127 328.66 206.5 328.5C201.507 330.68 199.673 329.01 201 323.5C203.805 320.35 207.305 318.68 211.5 318.5Z" fill="#A4A4A4"/>
<path fill-rule="evenodd" clip-rule="evenodd" d="M239.5 321.5C242.258 321.76 243.925 323.26 244.5 326C243.644 327.59 242.311 328.43 240.5 328.5C237.916 326.53 234.916 325.53 231.5 325.5C231.167 325.5 230.833 325.5 230.5 325.5C229.737 324.73 228.737 324.23 227.5 324C219.676 322.38 212.676 323.88 206.5 328.5C205.127 328.66 203.793 328.49 202.5 328C201.997 323.32 204.331 320.82 209.5 320.5C219.57 318.99 229.57 319.32 239.5 321.5Z" fill="#0B0B0B"/>
<path fill-rule="evenodd" clip-rule="evenodd" d="M231.5 325.5C234.916 325.53 237.916 326.53 240.5 328.5C237.215 328.07 234.215 327.07 231.5 325.5Z" fill="#707070"/>
<path fill-rule="evenodd" clip-rule="evenodd" d="M230.5 325.5C222.249 324.85 214.249 325.85 206.5 328.5C212.676 323.88 219.676 322.38 227.5 324C228.737 324.23 229.737 324.73 230.5 325.5Z" fill="#6E6E6E"/>
<path fill-rule="evenodd" clip-rule="evenodd" d="M239.5 321.5C229.57 319.32 219.57 318.99 209.5 320.5C210.167 319.83 210.833 319.17 211.5 318.5C217.319 317.35 223.319 317.18 229.5 318C233.11 318.74 236.443 319.91 239.5 321.5Z" fill="#5D5D5D"/>
<path fill-rule="evenodd" clip-rule="evenodd" d="M295.5 329.5C294.525 331.8 293.192 333.8 291.5 335.5C291.684 332.66 293.018 330.66 295.5 329.5Z" fill="#777777"/>
<path fill-rule="evenodd" clip-rule="evenodd" d="M411.5 336.5C410.308 338.88 408.641 340.88 406.5 342.5C407.226 339.71 408.893 337.71 411.5 336.5Z" fill="#787878"/>
<path fill-rule="evenodd" clip-rule="evenodd" d="M288.5 337.5C287.61 340.22 286.11 342.56 284 344.5C283.184 345.82 282.017 346.49 280.5 346.5C282.43 342.9 285.097 339.9 288.5 337.5Z" fill="#868686"/>
<path fill-rule="evenodd" clip-rule="evenodd" d="M280.5 346.5C279.461 348.53 277.795 349.86 275.5 350.5C276.579 348.46 278.246 347.12 280.5 346.5Z" fill="#535353"/>
<path fill-rule="evenodd" clip-rule="evenodd" d="M170.5 351.5C172.749 352.08 174.415 353.41 175.5 355.5C173.251 354.92 171.585 353.59 170.5 351.5Z" fill="#7F7F7F"/>
<path fill-rule="evenodd" clip-rule="evenodd" d="M275.5 350.5C271.615 354.46 266.949 357.46 261.5 359.5C260.833 359.5 260.167 359.5 259.5 359.5C264.825 356.5 270.159 353.5 275.5 350.5Z" fill="#7F7F7F"/>
<path fill-rule="evenodd" clip-rule="evenodd" d="M400.5 352.5C398.889 356.05 396.556 359.05 393.5 361.5C395.111 357.95 397.444 354.95 400.5 352.5Z" fill="#8D8D8D"/>
<path fill-rule="evenodd" clip-rule="evenodd" d="M177.5 356.5C182.423 358.14 187.089 360.14 191.5 362.5C186.189 361.82 181.522 359.82 177.5 356.5Z" fill="#8A8A8A"/>
<path fill-rule="evenodd" clip-rule="evenodd" d="M49.5 360.5C52.243 362.24 54.243 364.57 55.5 367.5C52.757 365.76 50.757 363.43 49.5 360.5Z" fill="#9E9E9E"/>
<path fill-rule="evenodd" clip-rule="evenodd" d="M259.5 359.5C260.167 359.5 260.833 359.5 261.5 359.5C259.342 361.09 257.342 362.93 255.5 365C244.744 368.15 233.744 369.65 222.5 369.5C217.233 369.71 212.233 369.05 207.5 367.5C225.746 370.14 243.079 367.48 259.5 359.5Z" fill="#242424"/>
<path fill-rule="evenodd" clip-rule="evenodd" d="M320.5 315.5C316.712 321.95 313.379 328.62 310.5 335.5C309.502 364.33 309.169 393.33 309.5 422.5C308.984 393.58 308.15 364.58 307 335.5C305.848 365.75 305.015 396.09 304.5 426.5C302.591 427.35 300.591 427.68 298.5 427.5C299.671 426.66 301.005 425.99 302.5 425.5C303.181 394.96 303.848 364.29 304.5 333.5C307.787 327.26 310.787 320.93 313.5 314.5C313.833 314.5 314.167 314.5 314.5 314.5C315.85 313.52 316.85 312.18 317.5 310.5C319.677 311.5 320.011 310.84 318.5 308.5C319.325 307.61 320.325 307.28 321.5 307.5C320.908 310.13 320.575 312.79 320.5 315.5Z" fill="#DBDBDB"/>
<path fill-rule="evenodd" clip-rule="evenodd" d="M193.5 363.5C198.563 363.83 203.23 365.16 207.5 367.5C203.149 366.83 198.816 366 194.5 365C193.944 364.62 193.611 364.12 193.5 363.5Z" fill="#B1B1B1"/>
<path fill-rule="evenodd" clip-rule="evenodd" d="M393.5 361.5C390.217 367.78 385.55 372.78 379.5 376.5C384.195 371.47 388.861 366.47 393.5 361.5Z" fill="#A6A6A6"/>
<path fill-rule="evenodd" clip-rule="evenodd" d="M310.5 335.5C310.333 364.5 310.5 393.5 311 422.5C311.671 421.75 312.504 421.41 313.5 421.5C312.462 423.52 311.128 423.85 309.5 422.5C309.169 393.33 309.502 364.33 310.5 335.5Z" fill="#676767"/>
<path fill-rule="evenodd" clip-rule="evenodd" d="M371.5 384.5C370.421 386.54 368.754 387.88 366.5 388.5C367.539 386.47 369.205 385.14 371.5 384.5Z" fill="#878787"/>
<path fill-rule="evenodd" clip-rule="evenodd" d="M134.5 334.5C135.498 364 135.831 393.66 135.5 423.5C133.447 423.6 131.78 422.93 130.5 421.5C131.822 421.33 132.989 421.66 134 422.5C134.5 393.17 134.667 363.84 134.5 334.5Z" fill="#727272"/>
<path fill-rule="evenodd" clip-rule="evenodd" d="M139.5 332.5C140.117 332.61 140.617 332.94 141 333.5C141.333 364.17 141.667 394.83 142 425.5C143.652 426.4 145.152 427.4 146.5 428.5C144.418 428.53 142.584 427.86 141 426.5C140.819 395.12 140.319 363.79 139.5 332.5Z" fill="#C8C8C8"/>
<path fill-rule="evenodd" clip-rule="evenodd" d="M366.5 388.5C366.027 389.91 365.027 390.57 363.5 390.5C363.973 389.09 364.973 388.43 366.5 388.5Z" fill="#757575"/>
<path fill-rule="evenodd" clip-rule="evenodd" d="M360.5 393.5C357.399 396.93 353.732 399.6 349.5 401.5C352.601 398.07 356.268 395.4 360.5 393.5Z" fill="#A0A0A0"/>
<path fill-rule="evenodd" clip-rule="evenodd" d="M304.5 333.5C303.848 364.29 303.181 394.96 302.5 425.5C302.333 395.16 302.5 364.83 303 334.5C303.383 333.94 303.883 333.61 304.5 333.5Z" fill="#656565"/>
<path fill-rule="evenodd" clip-rule="evenodd" d="M345.5 403.5C343.704 405.9 341.37 407.57 338.5 408.5C340.296 406.1 342.63 404.43 345.5 403.5Z" fill="#858585"/>
<path fill-rule="evenodd" clip-rule="evenodd" d="M334.5 410.5C333.514 412.41 331.848 413.41 329.5 413.5C330.659 411.75 332.326 410.75 334.5 410.5Z" fill="#939393"/>
<path fill-rule="evenodd" clip-rule="evenodd" d="M146.5 428.5C152.387 430.29 158.387 431.79 164.5 433C165.056 433.38 165.389 433.88 165.5 434.5C158.699 433.68 152.365 431.68 146.5 428.5Z" fill="#BEBEBE"/>
<path fill-rule="evenodd" clip-rule="evenodd" d="M298.5 427.5C295.597 429.65 292.264 431.15 288.5 432C282.69 434.12 276.69 435.29 270.5 435.5C279.693 432.66 289.026 430 298.5 427.5Z" fill="#969696"/>
<path fill-rule="evenodd" clip-rule="evenodd" d="M170.5 435.5C175.215 435.51 179.882 436.01 184.5 437C185.056 437.38 185.389 437.88 185.5 438.5C180.256 438.12 175.256 437.12 170.5 435.5Z" fill="#676767"/>
<path fill-rule="evenodd" clip-rule="evenodd" d="M270.5 435.5C270.389 436.12 270.056 436.62 269.5 437C264.863 437.83 260.196 438.33 255.5 438.5C260.304 437.14 265.304 436.14 270.5 435.5Z" fill="#747474"/>
<path fill-rule="evenodd" clip-rule="evenodd" d="M255.5 438.5C250.402 439.96 245.069 440.62 239.5 440.5C244.616 439.19 249.949 438.53 255.5 438.5Z" fill="#757575"/>
<path fill-rule="evenodd" clip-rule="evenodd" d="M186.5 438.5C202.129 439.96 217.795 440.63 233.5 440.5C217.749 442.12 202.082 441.45 186.5 438.5Z" fill="#696969"/>
</svg>
