<svg width="451" height="443" viewBox="0 0 451 443" fill="none" xmlns="http://www.w3.org/2000/svg">
<path fill-rule="evenodd" clip-rule="evenodd" d="M247.5 1.5C260.29 1.69 272.63 3.69 284.5 7.5C276.81 6.58 269.15 5.58 261.5 4.5C256.89 3.21 252.22 2.21 247.5 1.5Z" fill="#A2A2A2"/>
<path fill-rule="evenodd" clip-rule="evenodd" d="M235.5 1.50006C224.49 1.33006 213.49 1.50006 202.5 2.00006C197.95 2.43006 193.62 3.26006 189.5 4.50006C188.83 4.50006 188.17 4.50006 187.5 4.50006C186.5 4.50006 185.5 4.50006 184.5 4.50006C189.22 2.71006 194.22 1.54006 199.5 1.00006C211.67 0.170058 223.67 0.340058 235.5 1.50006Z" fill="#B1B1B1"/>
<path fill-rule="evenodd" clip-rule="evenodd" d="M261.5 4.50004C269.15 5.58004 276.81 6.58004 284.5 7.50004C291.42 9.98004 298.42 11.98 305.5 13.5C309.2 15.68 313.2 17.35 317.5 18.5C323.5 21.16 329.5 23.83 335.5 26.5C335.97 27.91 336.97 28.57 338.5 28.5C340.85 30.34 343.52 31.67 346.5 32.5C346.97 33.91 347.97 34.57 349.5 34.5C354.7 37.6 359.7 40.93 364.5 44.5C365.91 46.91 367.91 48.58 370.5 49.5C373.48 52.81 376.82 55.81 380.5 58.5C381.83 60.5 383.5 62.17 385.5 63.5C409.12 86.7 426.12 114.03 436.5 145.5C436.66 147.15 437.33 148.49 438.5 149.5C439.19 153.6 440.19 157.6 441.5 161.5C441.26 163.9 441.93 165.9 443.5 167.5C443.5 168.17 443.5 168.83 443.5 169.5C443.57 172.43 444.23 175.09 445.5 177.5C446.47 179.95 446.81 182.61 446.5 185.5C446.36 190.41 447.03 195.08 448.5 199.5C448.5 200.83 448.5 202.17 448.5 203.5C448.95 220.24 448.29 236.91 446.5 253.5C445.44 257.64 444.77 261.97 444.5 266.5C442.75 270.2 441.75 274.2 441.5 278.5C441.5 278.83 441.5 279.17 441.5 279.5C439.93 281.1 439.26 283.1 439.5 285.5C438.57 286.57 438.23 287.9 438.5 289.5C436.93 291.1 436.26 293.1 436.5 295.5C434.6 298.52 433.27 301.85 432.5 305.5C429.17 312.83 425.83 320.17 422.5 327.5C420.41 329.34 419.08 331.67 418.5 334.5C417.66 334.84 417.33 335.51 417.5 336.5C415.18 337.8 413.84 339.8 413.5 342.5C410.68 345.48 408.34 348.81 406.5 352.5C403.8 354.23 401.8 356.57 400.5 359.5C397.79 362.21 395.46 365.21 393.5 368.5C392.83 368.83 392.17 369.17 391.5 369.5C388.83 372.83 385.83 375.83 382.5 378.5C378.14 382.53 373.81 386.53 369.5 390.5C367.25 391.12 365.58 392.46 364.5 394.5C359.47 397.35 354.81 400.68 350.5 404.5C347.8 404.84 345.8 406.18 344.5 408.5C342.85 408.66 341.51 409.33 340.5 410.5C338.18 410.99 336.18 411.99 334.5 413.5C332.33 413.75 330.66 414.75 329.5 416.5C325.28 418.35 320.95 420.02 316.5 421.5C315.5 396.34 315.17 371.01 315.5 345.5C315.5 345.17 315.5 344.83 315.5 344.5C317.91 343.09 319.58 341.09 320.5 338.5C326.11 330.41 330.78 321.74 334.5 312.5C336.83 308.58 338.16 304.25 338.5 299.5C339.8 295.62 340.47 291.62 340.5 287.5C342.01 284.46 342.68 281.12 342.5 277.5C345.83 277.78 348.83 277.12 351.5 275.5C358.08 272.72 363.75 268.72 368.5 263.5C370.86 262.13 372.53 260.13 373.5 257.5C376.5 254.84 378.5 251.51 379.5 247.5C381.26 244.5 382.43 241.16 383 237.5C383.82 230.32 383.65 223.32 382.5 216.5C381.22 209.28 377.89 203.28 372.5 198.5C370.71 195.38 368.04 193.38 364.5 192.5C363.37 184.91 363.2 177.25 364 169.5C368.91 161.3 368.57 153.3 363 145.5C361.74 143.39 359.9 142.39 357.5 142.5C356.31 141.73 355.31 140.73 354.5 139.5C355.15 123.46 354.48 107.8 352.5 92.5C352.17 92.5 351.83 92.5 351.5 92.5C348.98 90.74 346.65 88.74 344.5 86.5C343.42 84.41 341.75 83.08 339.5 82.5C334.94 79.63 330.44 76.63 326 73.5C325.67 69.5 325.33 65.5 325 61.5C324.29 60.62 323.46 59.95 322.5 59.5C320.81 56.81 318.47 54.81 315.5 53.5C314.1 51.62 312.44 49.95 310.5 48.5C304.74 45.42 299.07 42.25 293.5 39C289.19 37.18 284.86 35.68 280.5 34.5C280.5 34.17 280.5 33.83 280.5 33.5C277.2 31.4 273.54 30.07 269.5 29.5C260.94 27.35 252.27 25.52 243.5 24C234.51 23.5 225.51 23.33 216.5 23.5C208.86 23.22 201.53 24.22 194.5 26.5C190.2 26.75 186.2 27.75 182.5 29.5C182.5 30.17 182.17 30.5 181.5 30.5C178.77 30.17 176.44 30.84 174.5 32.5C170.15 32.85 166.48 34.51 163.5 37.5C159.2 39.22 154.86 41.05 150.5 43C149.62 43.71 148.95 44.54 148.5 45.5C146.69 46.63 144.69 47.3 142.5 47.5C142.19 50.35 140.52 51.85 137.5 52C135.29 54.04 133.29 56.2 131.5 58.5C130.17 59.17 129.17 60.17 128.5 61.5C127.83 65.35 127.17 69.35 126.5 73.5C125.48 73.86 124.81 74.52 124.5 75.5C121.3 76.38 118.63 78.05 116.5 80.5C110.46 83.18 105.13 86.85 100.5 91.5C99.5 91.41 98.67 91.75 98 92.5C97.5 108.83 97.33 125.16 97.5 141.5C96.22 142.93 94.55 143.6 92.5 143.5C89.17 144.83 86.83 147.17 85.5 150.5C84.35 155.98 84.18 161.65 85 167.5C87.14 169.6 88.64 172.1 89.5 175C88.57 180.78 88.23 186.62 88.5 192.5C85.8 192.84 83.8 194.18 82.5 196.5C75.76 200.96 71.76 207.29 70.5 215.5C68.96 218.86 68.29 222.53 68.5 226.5C68.54 230.89 69.04 235.22 70 239.5C70.38 240.06 70.88 240.39 71.5 240.5C71.5 241.17 71.5 241.83 71.5 242.5C71.87 246.35 73.54 249.35 76.5 251.5C77.13 254.09 78.3 256.42 80 258.5C83.5 261.33 86.67 264.5 89.5 268C91.08 269.09 92.74 269.93 94.5 270.5C98.65 274.4 103.65 276.4 109.5 276.5C109.92 283.81 111.25 290.81 113.5 297.5C114.21 305.98 116.88 313.65 121.5 320.5C124.33 328.16 128.66 334.83 134.5 340.5C135.76 354.57 136.43 368.74 136.5 383C136.5 396.18 135.83 409.02 134.5 421.5C134.17 421.5 133.83 421.5 133.5 421.5C103.03 408.22 76.53 389.22 54 364.5C48.94 357.62 43.77 350.96 38.5 344.5C38.57 342.97 37.91 341.97 36.5 341.5C35.64 338.46 33.8 336.13 31 334.5C30.76 332.15 29.93 330.15 28.5 328.5C28.57 326.97 27.91 325.97 26.5 325.5C25.39 321.47 23.72 317.8 21.5 314.5C21.07 311.84 20.07 309.51 18.5 307.5C18.77 305.62 18.1 304.29 16.5 303.5C16.44 302.39 16.11 301.39 15.5 300.5C14.99 295.84 13.66 291.51 11.5 287.5C11.63 285.71 11.3 284.04 10.5 282.5C10.59 279.85 9.92 277.51 8.5 275.5C7.78 270.65 6.78 265.98 5.5 261.5C5.23 253.93 4.23 246.6 2.5 239.5C2.5 226.17 2.5 212.83 2.5 199.5C2.5 198.83 2.5 198.17 2.5 197.5C4.61 186.28 6.61 174.95 8.5 163.5C9.83 158.5 11.17 153.5 12.5 148.5C14.07 146.9 14.74 144.9 14.5 142.5C14.5 141.83 14.83 141.5 15.5 141.5C17.8 135.64 20.13 129.64 22.5 123.5C23.17 121.83 23.83 120.17 24.5 118.5C26.39 116.21 27.72 113.54 28.5 110.5C28.83 110.5 29.17 110.5 29.5 110.5C33.9 102.7 38.57 95.04 43.5 87.5C53.74 75.92 64.41 64.58 75.5 53.5C76.17 53.17 76.83 52.83 77.5 52.5C79.82 51.18 81.82 49.51 83.5 47.5C87.71 45.56 91.37 42.9 94.5 39.5C97.03 36.77 100.03 34.77 103.5 33.5C106.09 33.54 108.09 32.54 109.5 30.5C111.57 29.49 113.57 28.49 115.5 27.5C116.55 27.65 117.55 27.48 118.5 27C120.32 26.26 121.65 25.09 122.5 23.5C128.66 20.93 135 18.59 141.5 16.5C143.82 16.01 145.82 15.01 147.5 13.5C150.01 13.95 152.01 13.28 153.5 11.5C158.81 10.92 163.81 9.59004 168.5 7.50004C170.17 7.50004 171.83 7.50004 173.5 7.50004C178.28 6.49004 182.95 5.49004 187.5 4.50004C188.17 4.50004 188.83 4.50004 189.5 4.50004C201.11 3.06004 212.77 2.39004 224.5 2.50004C236.91 2.42004 249.25 3.09004 261.5 4.50004Z" fill="#0C0C0C"/>
<path fill-rule="evenodd" clip-rule="evenodd" d="M235.5 1.49994C239.5 1.49994 243.5 1.49994 247.5 1.49994C252.22 2.20994 256.89 3.20994 261.5 4.49994C249.25 3.08994 236.91 2.41994 224.5 2.49994C212.77 2.38994 201.11 3.05994 189.5 4.49994C193.62 3.25994 197.95 2.42994 202.5 1.99994C213.49 1.49994 224.49 1.32994 235.5 1.49994Z" fill="#333333"/>
<path fill-rule="evenodd" clip-rule="evenodd" d="M184.5 4.5C185.5 4.5 186.5 4.5 187.5 4.5C182.95 5.49 178.28 6.49 173.5 7.5C176.8 5.52 180.47 4.52 184.5 4.5Z" fill="#5A5A5A"/>
<path fill-rule="evenodd" clip-rule="evenodd" d="M168.5 7.49999C163.81 9.58999 158.81 10.92 153.5 11.5C157.77 7.99999 162.77 6.66999 168.5 7.49999Z" fill="#B9B9B9"/>
<path fill-rule="evenodd" clip-rule="evenodd" d="M153.5 11.5C152.01 13.28 150.01 13.95 147.5 13.5C149.3 12.54 151.3 11.88 153.5 11.5Z" fill="#818181"/>
<path fill-rule="evenodd" clip-rule="evenodd" d="M147.5 13.5001C145.82 15.0101 143.82 16.0101 141.5 16.5001C142.68 14.0901 144.68 13.0901 147.5 13.5001Z" fill="#969696"/>
<path fill-rule="evenodd" clip-rule="evenodd" d="M305.5 13.5C310.23 13.63 314.23 15.29 317.5 18.5C313.2 17.35 309.2 15.68 305.5 13.5Z" fill="#9B9B9B"/>
<path fill-rule="evenodd" clip-rule="evenodd" d="M216.5 23.5C209.38 25.1 202.05 26.1 194.5 26.5C201.53 24.22 208.86 23.22 216.5 23.5Z" fill="#737373"/>
<path fill-rule="evenodd" clip-rule="evenodd" d="M122.5 23.5C121.65 25.09 120.32 26.26 118.5 27C117.55 27.48 116.55 27.65 115.5 27.5C117.34 25.41 119.67 24.08 122.5 23.5Z" fill="#6F6F6F"/>
<path fill-rule="evenodd" clip-rule="evenodd" d="M216.5 23.4999C225.51 23.3299 234.51 23.4999 243.5 23.9999C252.27 25.5199 260.94 27.3499 269.5 29.4999C269.61 30.1199 269.94 30.6199 270.5 30.9999C273.82 31.9399 277.16 32.7799 280.5 33.4999C280.5 33.8299 280.5 34.1699 280.5 34.4999C280.03 35.6899 279.03 36.3599 277.5 36.4999C274.86 35.8999 272.19 35.5699 269.5 35.4999C264.66 33.9299 259.66 32.5999 254.5 31.4999C250.41 30.0999 246.08 29.2699 241.5 28.9999C233.99 28.1799 226.65 28.3399 219.5 29.4999C219.17 29.4999 218.83 29.4999 218.5 29.4999C212.16 29.3299 205.82 29.4999 199.5 29.9999C197.39 30.8399 195.39 31.6799 193.5 32.4999C191.43 33.5099 189.43 34.5099 187.5 35.4999C180.13 36.8499 173.13 39.1799 166.5 42.4999C162.24 42.6699 158.91 44.3399 156.5 47.4999C155.39 47.5599 154.39 47.8899 153.5 48.4999C150.41 49.4799 147.41 50.3199 144.5 50.9999C145.13 50.2499 145.63 49.4199 146 48.4999C147.07 49.2799 148.24 49.1099 149.5 47.9999C148.75 47.3299 148.41 46.4999 148.5 45.4999C153.97 43.5999 158.97 40.9299 163.5 37.4999C167.45 36.4099 171.12 34.7399 174.5 32.4999C177.15 32.5899 179.49 31.9199 181.5 30.4999C182.17 30.4999 182.5 30.1699 182.5 29.4999C186.9 29.6899 190.9 28.6899 194.5 26.4999C202.05 26.0999 209.38 25.0999 216.5 23.4999Z" fill="#DFDFDF"/>
<path fill-rule="evenodd" clip-rule="evenodd" d="M335.5 26.5C337.03 26.43 338.03 27.09 338.5 28.5C336.97 28.57 335.97 27.91 335.5 26.5Z" fill="#737373"/>
<path fill-rule="evenodd" clip-rule="evenodd" d="M194.5 26.5C190.9 28.69 186.9 29.69 182.5 29.5C186.2 27.75 190.2 26.75 194.5 26.5Z" fill="#767676"/>
<path fill-rule="evenodd" clip-rule="evenodd" d="M219.5 29.5C226.65 28.34 233.99 28.18 241.5 29C246.08 29.27 250.41 30.1 254.5 31.5C249.85 31 245.18 30.67 240.5 30.5C233.54 29.66 226.54 29.33 219.5 29.5Z" fill="#ACACAC"/>
<path fill-rule="evenodd" clip-rule="evenodd" d="M218.5 29.4999C212.25 30.4299 205.92 31.4299 199.5 32.4999C197.5 32.4999 195.5 32.4999 193.5 32.4999C195.39 31.6799 197.39 30.8399 199.5 29.9999C205.82 29.4999 212.16 29.3299 218.5 29.4999Z" fill="#B4B4B4"/>
<path fill-rule="evenodd" clip-rule="evenodd" d="M269.5 29.5C273.54 30.07 277.2 31.4 280.5 33.5C277.16 32.78 273.82 31.94 270.5 31C269.94 30.62 269.61 30.12 269.5 29.5Z" fill="#8B8B8B"/>
<path fill-rule="evenodd" clip-rule="evenodd" d="M181.5 30.5001C179.49 31.9201 177.15 32.5901 174.5 32.5001C176.44 30.8401 178.77 30.1701 181.5 30.5001Z" fill="#898989"/>
<path fill-rule="evenodd" clip-rule="evenodd" d="M109.5 30.5C108.09 32.54 106.09 33.54 103.5 33.5C105.18 31.99 107.18 30.99 109.5 30.5Z" fill="#939393"/>
<path fill-rule="evenodd" clip-rule="evenodd" d="M193.5 32.5C195.5 32.5 197.5 32.5 199.5 32.5C195.7 33.87 191.7 34.87 187.5 35.5C189.43 34.51 191.43 33.51 193.5 32.5Z" fill="#4A4A4A"/>
<path fill-rule="evenodd" clip-rule="evenodd" d="M240.5 30.5C245.18 30.67 249.85 31 254.5 31.5C259.66 32.6 264.66 33.93 269.5 35.5C270.5 36.17 271.5 36.83 272.5 37.5C261.95 34.52 251.28 32.19 240.5 30.5Z" fill="#7E7E7E"/>
<path fill-rule="evenodd" clip-rule="evenodd" d="M346.5 32.5C348.03 32.43 349.03 33.09 349.5 34.5C347.97 34.57 346.97 33.91 346.5 32.5Z" fill="#838383"/>
<path fill-rule="evenodd" clip-rule="evenodd" d="M174.5 32.5C171.12 34.74 167.45 36.41 163.5 37.5C166.48 34.51 170.15 32.85 174.5 32.5Z" fill="#8A8A8A"/>
<path fill-rule="evenodd" clip-rule="evenodd" d="M94.5 39.5C91.37 42.9 87.71 45.56 83.5 47.5C86.6 44.07 90.27 41.4 94.5 39.5Z" fill="#797979"/>
<path fill-rule="evenodd" clip-rule="evenodd" d="M163.5 37.5C158.97 40.93 153.97 43.6 148.5 45.5C148.95 44.54 149.62 43.71 150.5 43C154.86 41.05 159.2 39.22 163.5 37.5Z" fill="#979797"/>
<path fill-rule="evenodd" clip-rule="evenodd" d="M166.5 42.5C163.48 44.67 160.15 46.34 156.5 47.5C158.91 44.34 162.24 42.67 166.5 42.5Z" fill="#8B8B8B"/>
<path fill-rule="evenodd" clip-rule="evenodd" d="M364.5 44.5C367.09 45.42 369.09 47.09 370.5 49.5C367.91 48.58 365.91 46.91 364.5 44.5Z" fill="#A5A5A5"/>
<path fill-rule="evenodd" clip-rule="evenodd" d="M293.5 45.5C297.29 46 300.29 47.67 302.5 50.5C299.22 49.19 296.22 47.53 293.5 45.5Z" fill="#898989"/>
<path fill-rule="evenodd" clip-rule="evenodd" d="M280.5 34.5C284.86 35.68 289.19 37.18 293.5 39C299.07 42.25 304.74 45.42 310.5 48.5C312.44 49.95 314.1 51.62 315.5 53.5C313.86 53.52 312.52 52.85 311.5 51.5C311.17 51.83 310.83 52.17 310.5 52.5C311.76 54.03 312.76 55.7 313.5 57.5C309.56 55.55 305.89 53.22 302.5 50.5C300.29 47.67 297.29 46 293.5 45.5C286.59 42.59 279.59 39.92 272.5 37.5C271.5 36.83 270.5 36.17 269.5 35.5C272.19 35.57 274.86 35.9 277.5 36.5C279.03 36.36 280.03 35.69 280.5 34.5Z" fill="#CECECE"/>
<path fill-rule="evenodd" clip-rule="evenodd" d="M148.5 45.5C148.41 46.5 148.75 47.33 149.5 48C148.24 49.11 147.07 49.28 146 48.5C145.63 49.42 145.13 50.25 144.5 51C147.41 50.32 150.41 49.48 153.5 48.5C148.05 52.73 142.38 56.73 136.5 60.5C137.82 57.68 139.99 55.68 143 54.5C143.75 53.36 143.58 52.36 142.5 51.5C138.55 53.46 134.88 55.79 131.5 58.5C133.29 56.2 135.29 54.04 137.5 52C140.52 51.85 142.19 50.35 142.5 47.5C144.69 47.3 146.69 46.63 148.5 45.5Z" fill="#BABABA"/>
<path fill-rule="evenodd" clip-rule="evenodd" d="M83.5 47.5C81.82 49.51 79.82 51.18 77.5 52.5C78.27 49.44 80.27 47.77 83.5 47.5Z" fill="#8D8D8D"/>
<path fill-rule="evenodd" clip-rule="evenodd" d="M380.5 58.5C383.17 59.17 384.83 60.83 385.5 63.5C383.5 62.17 381.83 60.5 380.5 58.5Z" fill="#9D9D9D"/>
<path fill-rule="evenodd" clip-rule="evenodd" d="M75.5001 53.5C64.4101 64.58 53.7401 75.92 43.5001 87.5C43.3501 86.45 43.5201 85.45 44.0001 84.5C53.7301 73.27 64.2301 62.94 75.5001 53.5Z" fill="#909090"/>
<path fill-rule="evenodd" clip-rule="evenodd" d="M315.5 53.5C318.47 54.81 320.81 56.81 322.5 59.5C323.68 65.79 323.68 71.79 322.5 77.5C321.2 76.91 320.37 75.91 320 74.5C319.1 69.71 318.26 65.04 317.5 60.5C316.13 59.49 314.8 58.49 313.5 57.5C312.76 55.7 311.76 54.03 310.5 52.5C310.83 52.17 311.17 51.83 311.5 51.5C312.52 52.85 313.86 53.52 315.5 53.5Z" fill="#E6E6E6"/>
<path fill-rule="evenodd" clip-rule="evenodd" d="M134.5 61.5C134.67 66.51 134.5 71.51 134 76.5C133.33 77.25 132.5 77.59 131.5 77.5C131.92 71.93 132.92 66.6 134.5 61.5Z" fill="#B7B7B7"/>
<path fill-rule="evenodd" clip-rule="evenodd" d="M128.5 61.5C128.83 65.88 128.49 70.22 127.5 74.5C126.58 75.13 125.58 75.46 124.5 75.5C124.81 74.52 125.48 73.86 126.5 73.5C127.17 69.35 127.83 65.35 128.5 61.5Z" fill="#9C9C9C"/>
<path fill-rule="evenodd" clip-rule="evenodd" d="M322.5 59.5C323.46 59.95 324.29 60.62 325 61.5C325.33 65.5 325.67 69.5 326 73.5C330.44 76.63 334.94 79.63 339.5 82.5C339.83 83.17 340.17 83.83 340.5 84.5C338.65 84.27 337.81 84.94 338 86.5C340.39 89.05 343.23 91.05 346.5 92.5C347.39 93.32 347.72 94.32 347.5 95.5C338.75 89.26 329.58 83.59 320 78.5C317.77 72.73 316.94 66.73 317.5 60.5C318.26 65.04 319.1 69.71 320 74.5C320.37 75.91 321.2 76.91 322.5 77.5C323.68 71.79 323.68 65.79 322.5 59.5Z" fill="#C4C4C4"/>
<path fill-rule="evenodd" clip-rule="evenodd" d="M339.5 82.5C341.75 83.08 343.42 84.41 344.5 86.5C342.94 86.27 341.6 85.6 340.5 84.5C340.17 83.83 339.83 83.17 339.5 82.5Z" fill="#575757"/>
<path fill-rule="evenodd" clip-rule="evenodd" d="M116.5 80.5C115.53 82.19 114.19 83.69 112.5 85C108 86.75 104 89.25 100.5 92.5C100.5 92.17 100.5 91.83 100.5 91.5C105.13 86.85 110.46 83.18 116.5 80.5Z" fill="#9F9F9F"/>
<path fill-rule="evenodd" clip-rule="evenodd" d="M43.5 87.5C38.57 95.04 33.9 102.7 29.5 110.5C32.28 102.7 36.11 95.36 41 88.5C41.67 87.75 42.5 87.41 43.5 87.5Z" fill="#9A9A9A"/>
<path fill-rule="evenodd" clip-rule="evenodd" d="M136.5 60.5C135.51 60.33 134.84 60.66 134.5 61.5C132.92 66.6 131.92 71.93 131.5 77.5C123.74 81.21 116.07 85.21 108.5 89.5C107.61 90.32 107.28 91.32 107.5 92.5C105.09 92.14 103.59 93.14 103 95.5C102.67 111.5 102.33 127.5 102 143.5C99.65 145.76 96.81 147.09 93.5 147.5C93.3 149.69 92.63 151.69 91.5 153.5C90.77 154.71 90.43 156.04 90.5 157.5C89.52 160.29 89.19 163.29 89.5 166.5C88.17 166.5 86.83 166.5 85.5 166.5C85.5 161.17 85.5 155.83 85.5 150.5C88.17 148.5 90.5 146.17 92.5 143.5C94.55 143.6 96.22 142.93 97.5 141.5C98.33 125.67 98.83 109.67 99 93.5C99.38 92.94 99.88 92.61 100.5 92.5C104 89.25 108 86.75 112.5 85C114.19 83.69 115.53 82.19 116.5 80.5C118.63 78.05 121.3 76.38 124.5 75.5C125.58 75.46 126.58 75.13 127.5 74.5C128.49 70.22 128.83 65.88 128.5 61.5C129.17 60.17 130.17 59.17 131.5 58.5C134.88 55.79 138.55 53.46 142.5 51.5C143.58 52.36 143.75 53.36 143 54.5C139.99 55.68 137.82 57.68 136.5 60.5Z" fill="#E8E8E8"/>
<path fill-rule="evenodd" clip-rule="evenodd" d="M340.5 84.5C341.6 85.6 342.94 86.27 344.5 86.5C346.65 88.74 348.98 90.74 351.5 92.5C352.15 109.03 352.81 125.53 353.5 142C352.23 142.31 351.07 142.81 350 143.5C349.83 127.66 349.33 111.99 348.5 96.5C348.5 95.83 348.17 95.5 347.5 95.5C347.72 94.32 347.39 93.32 346.5 92.5C343.23 91.05 340.39 89.05 338 86.5C337.81 84.94 338.65 84.27 340.5 84.5Z" fill="#F4F4F4"/>
<path fill-rule="evenodd" clip-rule="evenodd" d="M100.5 91.5C100.5 91.83 100.5 92.17 100.5 92.5C99.8799 92.61 99.3799 92.94 98.9999 93.5C98.8299 109.67 98.3299 125.67 97.4999 141.5C97.3299 125.16 97.4999 108.83 97.9999 92.5C98.6699 91.75 99.4999 91.41 100.5 91.5Z" fill="#777777"/>
<path fill-rule="evenodd" clip-rule="evenodd" d="M347.5 95.5C348.17 95.5 348.5 95.83 348.5 96.5C348.5 112.5 348.5 128.5 348.5 144.5C349.79 144.26 350.79 144.6 351.5 145.5C350.17 145.5 348.83 145.5 347.5 145.5C347.5 128.83 347.5 112.17 347.5 95.5Z" fill="#989898"/>
<path fill-rule="evenodd" clip-rule="evenodd" d="M352.5 92.5C354.48 107.8 355.15 123.46 354.5 139.5C353.82 123.93 353.15 108.26 352.5 92.5Z" fill="#4A4A4A"/>
<path fill-rule="evenodd" clip-rule="evenodd" d="M28.5 110.5C27.72 113.54 26.39 116.21 24.5 118.5C24.9 115.28 26.23 112.61 28.5 110.5Z" fill="#9B9B9B"/>
<path fill-rule="evenodd" clip-rule="evenodd" d="M131.5 77.5C122.57 83.25 113.74 89.25 105 95.5C104.67 112.17 104.33 128.83 104 145.5C101.04 146.29 98.21 147.45 95.5 149C94.67 150.99 93.34 152.49 91.5 153.5C92.63 151.69 93.3 149.69 93.5 147.5C96.81 147.09 99.65 145.76 102 143.5C102.33 127.5 102.67 111.5 103 95.5C103.59 93.14 105.09 92.14 107.5 92.5C107.28 91.32 107.61 90.32 108.5 89.5C116.07 85.21 123.74 81.21 131.5 77.5Z" fill="#B2B2B2"/>
<path fill-rule="evenodd" clip-rule="evenodd" d="M22.5 123.5C20.13 129.64 17.8 135.64 15.5 141.5C16.13 135.73 17.79 130.23 20.5 125C20.84 123.97 21.5 123.47 22.5 123.5Z" fill="#7B7B7B"/>
<path fill-rule="evenodd" clip-rule="evenodd" d="M351.5 92.5C351.83 92.5 352.17 92.5 352.5 92.5C353.15 108.26 353.82 123.93 354.5 139.5C355.31 140.73 356.31 141.73 357.5 142.5C356.61 143.26 355.94 144.26 355.5 145.5C357.28 146.73 358.28 148.39 358.5 150.5C356.31 148.58 353.98 146.91 351.5 145.5C350.79 144.6 349.79 144.26 348.5 144.5C348.5 128.5 348.5 112.5 348.5 96.5C349.33 111.99 349.83 127.66 350 143.5C351.07 142.81 352.23 142.31 353.5 142C352.81 125.53 352.15 109.03 351.5 92.5Z" fill="#D8D8D8"/>
<path fill-rule="evenodd" clip-rule="evenodd" d="M14.5 142.5C14.74 144.9 14.07 146.9 12.5 148.5C12.59 146.21 13.26 144.21 14.5 142.5Z" fill="#7C7C7C"/>
<path fill-rule="evenodd" clip-rule="evenodd" d="M92.5 143.5C90.5 146.17 88.17 148.5 85.5 150.5C86.83 147.17 89.17 144.83 92.5 143.5Z" fill="#7C7C7C"/>
<path fill-rule="evenodd" clip-rule="evenodd" d="M436.5 145.5C438.1 146.29 438.77 147.62 438.5 149.5C437.33 148.49 436.66 147.15 436.5 145.5Z" fill="#7D7D7D"/>
<path fill-rule="evenodd" clip-rule="evenodd" d="M357.5 142.5C359.9 142.39 361.74 143.39 363 145.5C368.57 153.3 368.91 161.3 364 169.5C363.2 177.25 363.37 184.91 364.5 192.5C363.18 188.72 362.51 184.56 362.5 180C362.89 171.36 363.72 162.86 365 154.5C363.1 150.1 360.6 146.1 357.5 142.5Z" fill="#9B9B9B"/>
<path fill-rule="evenodd" clip-rule="evenodd" d="M357.5 142.5C360.6 146.1 363.1 150.1 365 154.5C363.72 162.86 362.89 171.36 362.5 180C362.51 184.56 363.18 188.72 364.5 192.5C368.04 193.38 370.71 195.38 372.5 198.5C373.88 202.92 376.05 206.92 379 210.5C379.33 212.17 379.67 213.83 380 215.5C380.67 216.25 381.5 216.59 382.5 216.5C383.65 223.32 383.82 230.32 383 237.5C382.43 241.16 381.26 244.5 379.5 247.5C376.53 250.09 374.53 253.42 373.5 257.5C372.53 260.13 370.86 262.13 368.5 263.5C360.9 268.82 352.9 273.15 344.5 276.5C343.5 276.5 342.5 276.5 341.5 276.5C341.28 280.18 340.94 283.85 340.5 287.5C340.47 291.62 339.8 295.62 338.5 299.5C336.39 303.49 335.06 307.82 334.5 312.5C330.78 321.74 326.11 330.41 320.5 338.5C318.09 339.91 316.42 341.91 315.5 344.5C313.51 370.48 312.84 396.81 313.5 423.5C312.25 423.42 311.42 422.76 311 421.5C310.73 414.48 309.89 407.48 308.5 400.5C308.5 381.5 308.5 362.5 308.5 343.5C311.99 339.86 314.99 335.86 317.5 331.5C318.64 331.09 319.64 330.43 320.5 329.5C327.52 316.84 332.18 303.51 334.5 289.5C334.5 288.83 334.5 288.17 334.5 287.5C335.92 285.49 336.59 283.15 336.5 280.5C336.5 279.83 336.5 279.17 336.5 278.5C337.91 274.98 339.08 271.31 340 267.5C340.5 264.52 340.66 261.52 340.5 258.5C341.4 257.79 341.74 256.79 341.5 255.5C342.24 255.37 342.91 255.54 343.5 256C342.24 257.81 342.24 259.65 343.5 261.5C362.93 255.23 371.77 241.89 370 221.5C368.37 218.32 367.03 214.99 366 211.5C362.86 207.88 360.02 204.22 357.5 200.5C357.5 192.17 357.5 183.83 357.5 175.5C355.14 175.66 352.81 175.5 350.5 175C349.62 174.29 348.95 173.46 348.5 172.5C350.84 170.72 353.67 169.72 357 169.5C358.59 168.64 359.43 167.31 359.5 165.5C359.5 165.17 359.5 164.83 359.5 164.5C360.16 162.7 360.5 160.7 360.5 158.5C360.71 155.47 360.05 152.81 358.5 150.5C358.28 148.39 357.28 146.73 355.5 145.5C355.94 144.26 356.61 143.26 357.5 142.5Z" fill="#F3F3F3"/>
<path fill-rule="evenodd" clip-rule="evenodd" d="M358.5 150.5C360.05 152.81 360.71 155.47 360.5 158.5C360.5 160.7 360.16 162.7 359.5 164.5C359.46 159.81 359.13 155.14 358.5 150.5Z" fill="#575757"/>
<path fill-rule="evenodd" clip-rule="evenodd" d="M85.4999 150.5C85.4999 155.83 85.4999 161.17 85.4999 166.5C86.8299 166.5 88.1699 166.5 89.4999 166.5C89.1899 163.29 89.5199 160.29 90.4999 157.5C89.7699 164.31 92.5999 168.65 98.9999 170.5C100.81 170.51 102.31 169.84 103.5 168.5C104.91 170.95 104.58 173.12 102.5 175C100.41 175.32 98.4099 175.82 96.4999 176.5C96.9099 173.4 95.7399 171.07 92.9999 169.5C92.6699 170.5 92.3299 171.5 91.9999 172.5C91.6699 172.17 91.3299 171.83 90.9999 171.5C90.6699 178.17 90.3299 184.83 89.9999 191.5C89.6199 192.06 89.1199 192.39 88.4999 192.5C88.2299 186.62 88.5699 180.78 89.4999 175C88.6399 172.1 87.1399 169.6 84.9999 167.5C84.1799 161.65 84.3499 155.98 85.4999 150.5Z" fill="#B9B9B9"/>
<path fill-rule="evenodd" clip-rule="evenodd" d="M218.5 29.5C218.83 29.5 219.17 29.5 219.5 29.5C226.54 29.33 233.54 29.66 240.5 30.5C251.28 32.19 261.95 34.52 272.5 37.5C279.59 39.92 286.59 42.59 293.5 45.5C296.22 47.53 299.22 49.19 302.5 50.5C305.89 53.22 309.56 55.55 313.5 57.5C314.8 58.49 316.13 59.49 317.5 60.5C316.94 66.73 317.77 72.73 320 78.5C329.58 83.59 338.75 89.26 347.5 95.5C347.5 112.17 347.5 128.83 347.5 145.5C348.83 145.5 350.17 145.5 351.5 145.5C353.98 146.91 356.31 148.58 358.5 150.5C359.13 155.14 359.46 159.81 359.5 164.5C359.5 164.83 359.5 165.17 359.5 165.5C356.07 168.39 352.07 169.72 347.5 169.5C347.26 170.79 347.6 171.79 348.5 172.5C348.95 173.46 349.62 174.29 350.5 175C352.81 175.5 355.14 175.66 357.5 175.5C357.5 183.83 357.5 192.17 357.5 200.5C356.5 210.66 352.33 219.32 345 226.5C344.51 227.79 344.34 229.13 344.5 230.5C343.88 230.61 343.38 230.94 343 231.5C341.26 240.42 340.43 249.42 340.5 258.5C338.34 264.87 337.01 271.54 336.5 278.5C336.5 279.17 336.5 279.83 336.5 280.5C334.84 282.44 334.17 284.77 334.5 287.5C334.5 288.17 334.5 288.83 334.5 289.5C330.54 304.11 324.87 318.11 317.5 331.5C314.99 335.86 311.99 339.86 308.5 343.5C307.83 371.07 307.16 398.74 306.5 426.5C306.17 426.5 305.83 426.5 305.5 426.5C299.16 428.23 292.82 430.06 286.5 432C285.94 432.38 285.61 432.88 285.5 433.5C284.5 433.5 283.5 433.5 282.5 433.5C272.72 435.52 263.05 437.52 253.5 439.5C240.85 440.32 228.18 440.65 215.5 440.5C214.17 440.5 212.83 440.5 211.5 440.5C206.4 439.04 201.07 438.38 195.5 438.5C184.13 437.33 173.13 435 162.5 431.5C160.49 430.08 158.15 429.41 155.5 429.5C153.25 428.54 150.92 427.88 148.5 427.5C147.71 425.9 146.38 425.23 144.5 425.5C144.67 398.16 144.5 370.83 144 343.5C142.05 340.58 139.89 337.91 137.5 335.5C131.61 325.95 126.61 315.95 122.5 305.5C122.5 305.17 122.5 304.83 122.5 304.5C119.2 293.31 116.54 281.98 114.5 270.5C111.69 256.81 109.36 243.14 107.5 229.5C107.51 227.69 107.01 226.02 106 224.5C102.28 219.7 99.11 214.7 96.5 209.5C95.34 198.47 95.34 187.47 96.5 176.5C98.41 175.82 100.41 175.32 102.5 175C104.58 173.12 104.91 170.95 103.5 168.5C102.31 169.84 100.81 170.51 99 170.5C92.6 168.65 89.77 164.31 90.5 157.5C90.43 156.04 90.77 154.71 91.5 153.5C93.34 152.49 94.67 150.99 95.5 149C98.21 147.45 101.04 146.29 104 145.5C104.33 128.83 104.67 112.17 105 95.5C113.74 89.25 122.57 83.25 131.5 77.5C132.5 77.59 133.33 77.25 134 76.5C134.5 71.51 134.67 66.51 134.5 61.5C134.84 60.66 135.51 60.33 136.5 60.5C142.38 56.73 148.05 52.73 153.5 48.5C154.39 47.89 155.39 47.56 156.5 47.5C160.15 46.34 163.48 44.67 166.5 42.5C173.13 39.18 180.13 36.85 187.5 35.5C191.7 34.87 195.7 33.87 199.5 32.5C205.92 31.43 212.25 30.43 218.5 29.5Z" fill="#0D0D0D"/>
<path fill-rule="evenodd" clip-rule="evenodd" d="M313.5 160.5C320.53 161 327.53 161.84 334.5 163C335.82 163.82 336.49 164.98 336.5 166.5C333.41 167.78 330.08 168.45 326.5 168.5C329.06 167.51 331.72 166.51 334.5 165.5C334.17 165.17 333.83 164.83 333.5 164.5C327.6 163.1 321.6 162.27 315.5 162C314.58 161.72 313.92 161.22 313.5 160.5Z" fill="#CCCCCC"/>
<path fill-rule="evenodd" clip-rule="evenodd" d="M117.5 162.5C115.75 163.66 114.75 165.33 114.5 167.5C112.77 167.16 112.27 166.16 113 164.5C114.11 162.96 115.61 162.3 117.5 162.5Z" fill="#8A8A8A"/>
<path fill-rule="evenodd" clip-rule="evenodd" d="M184.5 155.5C163.61 157.58 142.61 159.91 121.5 162.5C126.99 161.14 132.66 159.97 138.5 159C153.83 157.67 169.16 156.5 184.5 155.5Z" fill="#B1B1B1"/>
<path fill-rule="evenodd" clip-rule="evenodd" d="M256.5 155.5C275.77 155.8 294.77 157.46 313.5 160.5C294.34 158.98 275.34 157.31 256.5 155.5Z" fill="#B0B0B0"/>
<path fill-rule="evenodd" clip-rule="evenodd" d="M256.5 154.5C256.5 154.83 256.5 155.17 256.5 155.5C275.34 157.31 294.34 158.98 313.5 160.5C313.92 161.22 314.58 161.72 315.5 162C321.6 162.27 327.6 163.1 333.5 164.5C333.83 164.83 334.17 165.17 334.5 165.5C331.72 166.51 329.06 167.51 326.5 168.5C324.05 169.07 321.71 169.73 319.5 170.5C317.83 170.5 316.17 170.5 314.5 170.5C309.99 170.88 305.66 171.55 301.5 172.5C297.21 172.2 293.21 172.86 289.5 174.5C288.17 174.5 286.83 174.5 285.5 174.5C277.93 174.79 270.59 175.79 263.5 177.5C262.83 177.5 262.17 177.5 261.5 177.5C255.51 177.97 249.51 178.3 243.5 178.5C232.19 179.29 220.85 179.63 209.5 179.5C206.5 179.5 203.5 179.5 200.5 179.5C200.17 179.5 199.83 179.5 199.5 179.5C195.68 178.52 191.68 177.85 187.5 177.5C183.4 177.76 179.4 177.43 175.5 176.5C175.08 175.78 174.42 175.28 173.5 175C170.18 174.5 166.85 174.33 163.5 174.5C160.1 174.66 156.76 174.32 153.5 173.5C149.12 171.79 144.45 171.12 139.5 171.5C138.5 171.5 137.5 171.5 136.5 171.5C132.82 169.75 128.82 169.08 124.5 169.5C121.01 169.46 117.68 168.79 114.5 167.5C114.75 165.33 115.75 163.66 117.5 162.5C118.83 162.5 120.17 162.5 121.5 162.5C142.61 159.91 163.61 157.58 184.5 155.5C208.49 154.74 232.49 154.41 256.5 154.5Z" fill="#FBFBFB"/>
<path fill-rule="evenodd" clip-rule="evenodd" d="M256.5 154.5C232.49 154.41 208.49 154.74 184.5 155.5C198.47 153.98 212.63 153.31 227 153.5C237.01 153.5 246.84 153.83 256.5 154.5Z" fill="#6E6E6E"/>
<path fill-rule="evenodd" clip-rule="evenodd" d="M129.5 133.5C129.03 134.69 128.03 135.36 126.5 135.5C123.86 136.1 121.19 136.43 118.5 136.5C121.91 134.93 125.57 133.93 129.5 133.5Z" fill="#5F5F5F"/>
<path fill-rule="evenodd" clip-rule="evenodd" d="M335.5 99.5C336.5 111.99 336.83 124.66 336.5 137.5C335.21 137.74 334.21 137.4 333.5 136.5C335.48 124.55 336.15 112.21 335.5 99.5Z" fill="#383838"/>
<path fill-rule="evenodd" clip-rule="evenodd" d="M333.5 98.5C334.49 98.33 335.16 98.66 335.5 99.5C336.15 112.21 335.48 124.55 333.5 136.5C326.94 133.87 320.27 131.87 313.5 130.5C317.49 131 321.49 131.5 325.5 132C328.31 133.74 331.31 134.91 334.5 135.5C334.81 123.09 334.48 110.75 333.5 98.5Z" fill="#ABABAB"/>
<path fill-rule="evenodd" clip-rule="evenodd" d="M125.5 95.5C125.63 96.38 125.3 97.04 124.5 97.5C121.81 98.56 119.31 99.89 117 101.5C116.5 113.5 116.33 125.5 116.5 137.5C115.34 125.34 115.17 113.01 116 100.5C118.83 98.17 121.99 96.5 125.5 95.5Z" fill="#979797"/>
<path fill-rule="evenodd" clip-rule="evenodd" d="M148.5 85.5C144.35 87.74 140.02 89.9 135.5 92C134.21 92.49 132.87 92.66 131.5 92.5C136.7 89.21 142.36 86.87 148.5 85.5Z" fill="#A2A2A2"/>
<path fill-rule="evenodd" clip-rule="evenodd" d="M158.5 82.5001C156.49 83.9201 154.15 84.5901 151.5 84.5001C153.44 82.8401 155.77 82.1701 158.5 82.5001Z" fill="#8E8E8E"/>
<path fill-rule="evenodd" clip-rule="evenodd" d="M164.5 80.5C162.9 82.07 160.9 82.74 158.5 82.5C160.1 80.93 162.1 80.26 164.5 80.5Z" fill="#9D9D9D"/>
<path fill-rule="evenodd" clip-rule="evenodd" d="M333.5 98.5C334.48 110.75 334.81 123.09 334.5 135.5C331.31 134.91 328.31 133.74 325.5 132C321.49 131.5 317.49 131 313.5 130.5C313.39 129.88 313.06 129.38 312.5 129C303.09 127.76 293.75 126.1 284.5 124C278.18 123.5 271.84 123.33 265.5 123.5C265.17 123.5 264.83 123.5 264.5 123.5C263.08 122.55 261.41 122.22 259.5 122.5C258.39 121.71 257.06 121.21 255.5 121C237.33 120.17 219.33 120.34 201.5 121.5C199.9 121.23 198.57 121.57 197.5 122.5C188.81 122.57 180.14 123.07 171.5 124C170.26 124.23 169.26 124.73 168.5 125.5C164.82 125.72 161.15 126.06 157.5 126.5C154.5 126.29 151.84 126.96 149.5 128.5C146.3 129.79 142.97 130.45 139.5 130.5C135.84 130.72 132.5 131.72 129.5 133.5C125.57 133.93 121.91 134.93 118.5 136.5C118.16 137.34 117.49 137.67 116.5 137.5C116.33 125.5 116.5 113.5 117 101.5C119.31 99.89 121.81 98.56 124.5 97.5C125.3 97.04 125.63 96.38 125.5 95.5C127.18 93.99 129.18 92.99 131.5 92.5C132.87 92.66 134.21 92.49 135.5 92C140.02 89.9 144.35 87.74 148.5 85.5C149.39 84.89 150.39 84.56 151.5 84.5C154.15 84.59 156.49 83.92 158.5 82.5C160.9 82.74 162.9 82.07 164.5 80.5C223.13 65.81 279.47 71.81 333.5 98.5Z" fill="#FCFCFC"/>
<path fill-rule="evenodd" clip-rule="evenodd" d="M139.5 130.5C136.5 132.28 133.16 133.28 129.5 133.5C132.5 131.72 135.84 130.72 139.5 130.5Z" fill="#787878"/>
<path fill-rule="evenodd" clip-rule="evenodd" d="M157.5 126.5C155.09 127.77 152.43 128.43 149.5 128.5C151.84 126.96 154.5 126.29 157.5 126.5Z" fill="#959595"/>
<path fill-rule="evenodd" clip-rule="evenodd" d="M265.5 123.5C271.84 123.33 278.18 123.5 284.5 124C293.75 126.1 303.09 127.76 312.5 129C313.06 129.38 313.39 129.88 313.5 130.5C297.46 127.48 281.46 125.14 265.5 123.5Z" fill="#949494"/>
<path fill-rule="evenodd" clip-rule="evenodd" d="M197.5 122.5C188.02 123.92 178.35 124.92 168.5 125.5C169.26 124.73 170.26 124.23 171.5 124C180.14 123.07 188.81 122.57 197.5 122.5Z" fill="#747474"/>
<path fill-rule="evenodd" clip-rule="evenodd" d="M197.5 122.5C198.57 121.57 199.9 121.23 201.5 121.5C220.85 121.27 240.18 121.61 259.5 122.5C261.41 122.22 263.08 122.55 264.5 123.5C242.17 122.76 219.84 122.43 197.5 122.5Z" fill="#505050"/>
<path fill-rule="evenodd" clip-rule="evenodd" d="M201.5 121.5C219.33 120.34 237.33 120.17 255.5 121C257.06 121.21 258.39 121.71 259.5 122.5C240.18 121.61 220.85 121.27 201.5 121.5Z" fill="#BCBCBC"/>
<path fill-rule="evenodd" clip-rule="evenodd" d="M441.5 161.5C443.07 163.1 443.74 165.1 443.5 167.5C441.93 165.9 441.26 163.9 441.5 161.5Z" fill="#808080"/>
<path fill-rule="evenodd" clip-rule="evenodd" d="M336.5 166.5C337.04 166.56 337.38 166.89 337.5 167.5C331.72 169.78 325.72 170.78 319.5 170.5C321.71 169.73 324.05 169.07 326.5 168.5C330.08 168.45 333.41 167.78 336.5 166.5Z" fill="#575757"/>
<path fill-rule="evenodd" clip-rule="evenodd" d="M359.5 165.5C359.43 167.31 358.59 168.64 357 169.5C353.67 169.72 350.84 170.72 348.5 172.5C347.6 171.79 347.26 170.79 347.5 169.5C352.07 169.72 356.07 168.39 359.5 165.5Z" fill="#737373"/>
<path fill-rule="evenodd" clip-rule="evenodd" d="M124.5 169.5C128.82 169.08 132.82 169.75 136.5 171.5C133.15 171.67 129.82 171.5 126.5 171C125.58 170.72 124.92 170.22 124.5 169.5Z" fill="#828282"/>
<path fill-rule="evenodd" clip-rule="evenodd" d="M139.5 171.5C144.45 171.12 149.12 171.79 153.5 173.5C148.57 173.77 143.9 173.1 139.5 171.5Z" fill="#989898"/>
<path fill-rule="evenodd" clip-rule="evenodd" d="M314.5 170.5C314.08 171.22 313.42 171.72 312.5 172C308.85 172.5 305.18 172.67 301.5 172.5C305.66 171.55 309.99 170.88 314.5 170.5Z" fill="#888888"/>
<path fill-rule="evenodd" clip-rule="evenodd" d="M301.5 172.5C297.79 174.14 293.79 174.8 289.5 174.5C293.21 172.86 297.21 172.2 301.5 172.5Z" fill="#878787"/>
<path fill-rule="evenodd" clip-rule="evenodd" d="M443.5 169.5C445.22 171.78 445.89 174.45 445.5 177.5C444.23 175.09 443.57 172.43 443.5 169.5Z" fill="#9F9F9F"/>
<path fill-rule="evenodd" clip-rule="evenodd" d="M163.5 174.5C166.85 174.33 170.18 174.5 173.5 175C174.42 175.28 175.08 175.78 175.5 176.5C171.21 176.8 167.21 176.14 163.5 174.5Z" fill="#919191"/>
<path fill-rule="evenodd" clip-rule="evenodd" d="M285.5 174.5C284.74 175.27 283.74 175.77 282.5 176C276.15 176.41 269.82 176.91 263.5 177.5C270.59 175.79 277.93 174.79 285.5 174.5Z" fill="#939393"/>
<path fill-rule="evenodd" clip-rule="evenodd" d="M187.5 177.5C191.68 177.85 195.68 178.52 199.5 179.5C195.18 179.92 191.18 179.25 187.5 177.5Z" fill="#565656"/>
<path fill-rule="evenodd" clip-rule="evenodd" d="M261.5 177.5C254.08 179.39 246.42 180.39 238.5 180.5C240.17 179.83 241.83 179.17 243.5 178.5C249.51 178.3 255.51 177.97 261.5 177.5Z" fill="#919191"/>
<path fill-rule="evenodd" clip-rule="evenodd" d="M243.5 178.5C241.83 179.17 240.17 179.83 238.5 180.5C238.17 180.5 237.83 180.5 237.5 180.5C227.99 180.83 218.65 180.49 209.5 179.5C220.85 179.63 232.19 179.29 243.5 178.5Z" fill="#CECECE"/>
<path fill-rule="evenodd" clip-rule="evenodd" d="M200.5 179.5C203.5 179.5 206.5 179.5 209.5 179.5C218.65 180.49 227.99 180.83 237.5 180.5C226.67 181.66 215.67 181.83 204.5 181C202.94 180.79 201.61 180.29 200.5 179.5Z" fill="#656565"/>
<path fill-rule="evenodd" clip-rule="evenodd" d="M96.5001 176.5C95.8801 176.61 95.3801 176.94 95.0001 177.5C94.5001 186.83 94.3301 196.16 94.5001 205.5C93.3401 205.58 92.0101 205.91 90.5001 206.5C84.7901 212.63 82.1301 219.96 82.5001 228.5C82.4401 245.38 90.4401 256.38 106.5 261.5C107.87 260.77 109.2 260.11 110.5 259.5C111.78 263.19 112.78 266.86 113.5 270.5C114.23 282.08 116.23 293.42 119.5 304.5C118.6 305.99 118.93 307.49 120.5 309C119.91 309.46 119.24 309.63 118.5 309.5C116.59 305.78 115.26 301.78 114.5 297.5C113.17 289.83 111.83 282.16 110.5 274.5C104.86 274.04 99.5301 272.71 94.5001 270.5C92.7401 269.93 91.0801 269.09 89.5001 268C86.6701 264.5 83.5001 261.33 80.0001 258.5C78.3001 256.42 77.1301 254.09 76.5001 251.5C75.1901 248.22 73.5301 245.22 71.5001 242.5C71.5001 241.83 71.5001 241.17 71.5001 240.5C69.4501 232.24 69.1201 223.9 70.5001 215.5C73.7401 208.7 77.7401 202.36 82.5001 196.5C83.8001 194.18 85.8001 192.84 88.5001 192.5C89.1201 192.39 89.6201 192.06 90.0001 191.5C90.3301 184.83 90.6701 178.17 91.0001 171.5C91.3301 171.83 91.6701 172.17 92.0001 172.5C92.3301 171.5 92.6701 170.5 93.0001 169.5C95.7401 171.07 96.9101 173.4 96.5001 176.5Z" fill="#F7F7F7"/>
<path fill-rule="evenodd" clip-rule="evenodd" d="M8.50015 163.5C6.61015 174.95 4.61015 186.28 2.50015 197.5C2.49015 191.13 2.99015 184.8 4.00015 178.5C4.66015 173.12 6.16015 168.12 8.50015 163.5Z" fill="#9F9F9F"/>
<path fill-rule="evenodd" clip-rule="evenodd" d="M96.4999 176.5C95.3399 187.47 95.3399 198.47 96.4999 209.5C95.8299 208.17 95.1699 206.83 94.4999 205.5C94.3299 196.16 94.4999 186.83 94.9999 177.5C95.3799 176.94 95.8799 176.61 96.4999 176.5Z" fill="#A6A6A6"/>
<path fill-rule="evenodd" clip-rule="evenodd" d="M446.5 185.5C448.21 189.88 448.88 194.55 448.5 199.5C447.03 195.08 446.36 190.41 446.5 185.5Z" fill="#878787"/>
<path fill-rule="evenodd" clip-rule="evenodd" d="M372.5 198.5C377.89 203.28 381.22 209.28 382.5 216.5C381.5 216.59 380.67 216.25 380 215.5C379.67 213.83 379.33 212.17 379 210.5C376.05 206.92 373.88 202.92 372.5 198.5Z" fill="#C5C5C5"/>
<path fill-rule="evenodd" clip-rule="evenodd" d="M326.5 210.5C325.83 210.5 325.17 210.5 324.5 210.5C324.5 209.5 324.5 208.5 324.5 207.5C323.17 207.5 321.83 207.5 320.5 207.5C322.69 206.73 324.85 205.73 327 204.5C327.5 204.83 328 205.17 328.5 205.5C327.54 207.08 326.88 208.74 326.5 210.5Z" fill="#AEAEAE"/>
<path fill-rule="evenodd" clip-rule="evenodd" d="M82.5 196.5C77.74 202.36 73.74 208.7 70.5 215.5C71.76 207.29 75.76 200.96 82.5 196.5Z" fill="#919191"/>
<path fill-rule="evenodd" clip-rule="evenodd" d="M148.5 211.5C150.17 212.17 151.83 212.83 153.5 213.5C146.8 213.2 140.3 211.87 134 209.5C130.5 209.82 129.67 211.49 131.5 214.5C127.13 212.07 125.29 208.74 126 204.5C133.36 207.38 140.86 209.71 148.5 211.5Z" fill="#C8C8C8"/>
<path fill-rule="evenodd" clip-rule="evenodd" d="M319.5 207.5C317.79 208.74 315.79 209.41 313.5 209.5C314.99 207.72 316.99 207.05 319.5 207.5Z" fill="#6F6F6F"/>
<path fill-rule="evenodd" clip-rule="evenodd" d="M319.5 207.5C319.83 207.5 320.17 207.5 320.5 207.5C321.83 207.5 323.17 207.5 324.5 207.5C324.5 208.5 324.5 209.5 324.5 210.5C321.49 215.18 317.82 219.18 313.5 222.5C313.16 223.34 312.49 223.67 311.5 223.5C308.13 225.19 304.79 226.85 301.5 228.5C300.83 228.5 300.17 228.5 299.5 228.5C295.67 228.78 291.83 229.11 288 229.5C280.77 228.4 273.6 227.06 266.5 225.5C265.34 223.75 263.67 222.75 261.5 222.5C261.5 221.5 261.5 220.5 261.5 219.5C269.7 218.97 277.7 217.97 285.5 216.5C285.5 216.17 285.5 215.83 285.5 215.5C286.83 215.5 288.17 215.5 289.5 215.5C294.87 215.17 299.87 213.83 304.5 211.5C307.83 211.78 310.83 211.12 313.5 209.5C315.79 209.41 317.79 208.74 319.5 207.5Z" fill="#F8F8F8"/>
<path fill-rule="evenodd" clip-rule="evenodd" d="M153.5 213.5C154.57 214.43 155.9 214.77 157.5 214.5C159.1 214.23 160.43 214.57 161.5 215.5C170.21 217.79 179.21 218.96 188.5 219C189.42 219.28 190.08 219.78 190.5 220.5C189.83 220.5 189.5 220.83 189.5 221.5C186.8 221.84 184.8 223.18 183.5 225.5C182.5 225.5 181.5 225.5 180.5 225.5C174.99 226.77 169.49 228.1 164 229.5C158.24 228.23 152.41 227.23 146.5 226.5C140.34 224.01 135.34 220.01 131.5 214.5C129.67 211.49 130.5 209.82 134 209.5C140.3 211.87 146.8 213.2 153.5 213.5Z" fill="#F8F8F8"/>
<path fill-rule="evenodd" clip-rule="evenodd" d="M94.4997 205.5C95.1697 206.83 95.8297 208.17 96.4997 209.5C99.1097 214.7 102.28 219.7 106 224.5C107.01 226.02 107.51 227.69 107.5 229.5C107.33 234.84 107.5 240.18 108 245.5C109.37 250.07 110.21 254.74 110.5 259.5C109.2 260.11 107.87 260.77 106.5 261.5C90.4397 256.38 82.4397 245.38 82.4997 228.5C82.1297 219.96 84.7897 212.63 90.4997 206.5C92.0097 205.91 93.3397 205.58 94.4997 205.5Z" fill="#D9D9D9"/>
<path fill-rule="evenodd" clip-rule="evenodd" d="M313.5 209.5C310.83 211.12 307.83 211.78 304.5 211.5C307.27 210.34 310.27 209.68 313.5 209.5Z" fill="#696969"/>
<path fill-rule="evenodd" clip-rule="evenodd" d="M357.5 200.5C360.02 204.22 362.86 207.88 366 211.5C367.03 214.99 368.37 218.32 370 221.5C371.77 241.89 362.93 255.23 343.5 261.5C342.24 259.65 342.24 257.81 343.5 256C342.91 255.54 342.24 255.37 341.5 255.5C341.99 247.09 342.99 238.76 344.5 230.5C344.34 229.13 344.51 227.79 345 226.5C352.33 219.32 356.5 210.66 357.5 200.5Z" fill="#D6D6D6"/>
<path fill-rule="evenodd" clip-rule="evenodd" d="M148.5 211.5C150.53 211.34 152.53 211.5 154.5 212C156.12 212.24 157.12 213.07 157.5 214.5C155.9 214.77 154.57 214.43 153.5 213.5C151.83 212.83 150.17 212.17 148.5 211.5Z" fill="#535353"/>
<path fill-rule="evenodd" clip-rule="evenodd" d="M304.5 211.5C299.87 213.83 294.87 215.17 289.5 215.5C294.26 213.67 299.26 212.34 304.5 211.5Z" fill="#818181"/>
<path fill-rule="evenodd" clip-rule="evenodd" d="M324.5 210.5C325.17 210.5 325.83 210.5 326.5 210.5C323.45 215.89 319.11 219.89 313.5 222.5C317.82 219.18 321.49 215.18 324.5 210.5Z" fill="#676767"/>
<path fill-rule="evenodd" clip-rule="evenodd" d="M285.5 215.5C285.5 215.83 285.5 216.17 285.5 216.5C280.16 216.69 274.82 217.02 269.5 217.5C274.57 215.82 279.9 215.16 285.5 215.5Z" fill="#575757"/>
<path fill-rule="evenodd" clip-rule="evenodd" d="M448.5 203.5C450.02 208.75 450.69 214.25 450.5 220C450.3 227.85 449.8 235.69 449 243.5C448.69 247.09 447.86 250.42 446.5 253.5C448.29 236.91 448.95 220.24 448.5 203.5Z" fill="#A6A6A6"/>
<path fill-rule="evenodd" clip-rule="evenodd" d="M285.5 216.5C277.7 217.97 269.7 218.97 261.5 219.5C261.5 220.5 261.5 221.5 261.5 222.5C259.87 221.79 258.53 220.63 257.5 219C261.47 218.17 265.47 217.67 269.5 217.5C274.82 217.02 280.16 216.69 285.5 216.5Z" fill="#BEBEBE"/>
<path fill-rule="evenodd" clip-rule="evenodd" d="M161.5 215.5C171.79 216.71 182.13 217.54 192.5 218C193.61 219.81 192.94 220.65 190.5 220.5C190.08 219.78 189.42 219.28 188.5 219C179.21 218.96 170.21 217.79 161.5 215.5Z" fill="#909090"/>
<path fill-rule="evenodd" clip-rule="evenodd" d="M70.5 215.5C69.12 223.9 69.45 232.24 71.5 240.5C70.88 240.39 70.38 240.06 70 239.5C69.04 235.22 68.54 230.89 68.5 226.5C68.29 222.53 68.96 218.86 70.5 215.5Z" fill="#6D6D6D"/>
<path fill-rule="evenodd" clip-rule="evenodd" d="M232.5 225.5C227.55 224.67 222.55 224.34 217.5 224.5C222.78 220.28 227.78 220.62 232.5 225.5Z" fill="#9A9A9A"/>
<path fill-rule="evenodd" clip-rule="evenodd" d="M189.5 221.5C187.85 223.33 185.85 224.66 183.5 225.5C184.8 223.18 186.8 221.84 189.5 221.5Z" fill="#626262"/>
<path fill-rule="evenodd" clip-rule="evenodd" d="M217.5 224.5C222.55 224.34 227.55 224.67 232.5 225.5C233.67 226.51 234.34 227.85 234.5 229.5C235.36 234.21 237.03 238.54 239.5 242.5C242.66 248.83 245.32 255.5 247.5 262.5C247.65 263.55 247.48 264.55 247 265.5C245.02 266.75 243.19 268.08 241.5 269.5C241.17 269.5 240.83 269.5 240.5 269.5C233.58 271.31 226.58 272.65 219.5 273.5C216.52 273.04 213.52 272.7 210.5 272.5C210.5 271.83 210.17 271.5 209.5 271.5C207.49 270.08 205.15 269.41 202.5 269.5C201.39 269.44 200.39 269.11 199.5 268.5C202.68 262.48 205.18 256.14 207 249.5C210.75 244.89 212.41 239.56 212 233.5C212.85 231.81 213.68 230.14 214.5 228.5C215.15 226.86 216.15 225.53 217.5 224.5Z" fill="#FAFAFA"/>
<path fill-rule="evenodd" clip-rule="evenodd" d="M180.5 225.5C179.94 226.79 178.94 227.62 177.5 228C170.74 230.32 163.74 230.98 156.5 230C152.94 229.15 149.61 227.98 146.5 226.5C152.41 227.23 158.24 228.23 164 229.5C169.49 228.1 174.99 226.77 180.5 225.5Z" fill="#AFAFAF"/>
<path fill-rule="evenodd" clip-rule="evenodd" d="M311.5 223.5C309.02 226.74 305.68 228.41 301.5 228.5C304.79 226.85 308.13 225.19 311.5 223.5Z" fill="#606060"/>
<path fill-rule="evenodd" clip-rule="evenodd" d="M266.5 225.5C273.6 227.06 280.77 228.4 288 229.5C291.83 229.11 295.67 228.78 299.5 228.5C298.74 229.27 297.74 229.77 296.5 230C285.88 231.63 275.88 230.13 266.5 225.5Z" fill="#ACACAC"/>
<path fill-rule="evenodd" clip-rule="evenodd" d="M234.5 229.5C237.13 233.39 238.8 237.73 239.5 242.5C237.03 238.54 235.36 234.21 234.5 229.5Z" fill="#979797"/>
<path fill-rule="evenodd" clip-rule="evenodd" d="M344.5 230.5C342.99 238.76 341.99 247.09 341.5 255.5C341.74 256.79 341.4 257.79 340.5 258.5C340.43 249.42 341.26 240.42 343 231.5C343.38 230.94 343.88 230.61 344.5 230.5Z" fill="#464646"/>
<path fill-rule="evenodd" clip-rule="evenodd" d="M2.49983 199.5C2.49983 212.83 2.49983 226.17 2.49983 239.5C2.49983 240.5 2.49983 241.5 2.49983 242.5C0.98983 235.4 0.31983 228.06 0.49983 220.5C0.29983 213.26 0.96983 206.26 2.49983 199.5Z" fill="#AFAFAF"/>
<path fill-rule="evenodd" clip-rule="evenodd" d="M248.5 241.5C255.12 245.31 262.12 248.31 269.5 250.5C271.15 251.93 273.15 252.76 275.5 253C279.5 253.17 283.5 253.33 287.5 253.5C293.1 253.72 298.43 253.06 303.5 251.5C304.17 251.5 304.83 251.5 305.5 251.5C310.52 251.04 315.19 249.7 319.5 247.5C320.18 245.82 321.52 245.16 323.5 245.5C325.5 245.17 327.5 244.83 329.5 244.5C329.5 245.83 329.5 247.17 329.5 248.5C329.5 248.83 329.5 249.17 329.5 249.5C327.82 253.54 327.16 257.88 327.5 262.5C327.5 264.5 327.5 266.5 327.5 268.5C325.84 270.44 325.17 272.77 325.5 275.5C325.5 276.5 325.5 277.5 325.5 278.5C323.74 281.85 322.74 285.52 322.5 289.5C322.5 290.17 322.5 290.83 322.5 291.5C317.38 304.18 312.05 316.85 306.5 329.5C305.85 331.14 304.85 332.47 303.5 333.5C300.55 335.37 298.55 338.04 297.5 341.5C296.83 341.83 296.17 342.17 295.5 342.5C288.86 347.12 282.2 351.79 275.5 356.5C274.51 356.33 273.84 356.66 273.5 357.5C268.65 359.19 263.98 361.19 259.5 363.5C256.85 363.41 254.51 364.08 252.5 365.5C249.77 365.17 247.44 365.84 245.5 367.5C242.61 367.19 239.95 367.53 237.5 368.5C227.79 369.83 218.12 369.5 208.5 367.5C205.3 367.59 202.3 366.93 199.5 365.5C197.49 364.08 195.15 363.41 192.5 363.5C190.9 361.93 188.9 361.26 186.5 361.5C181.6 359.71 176.93 357.38 172.5 354.5C171.42 352.41 169.75 351.08 167.5 350.5C162.92 348.26 159.25 344.92 156.5 340.5C155.27 337.03 152.94 334.69 149.5 333.5C147.6 328.7 144.93 324.37 141.5 320.5C138.76 317.35 136.76 313.68 135.5 309.5C135.02 306.56 134.02 303.89 132.5 301.5C132.55 298.01 131.55 295.01 129.5 292.5C127.21 283.62 125.54 274.62 124.5 265.5C123.83 258.52 123.5 251.52 123.5 244.5C124.83 244.5 126.17 244.5 127.5 244.5C129.55 244.4 131.22 245.07 132.5 246.5C132.47 247.5 132.97 248.16 134 248.5C138.35 250.21 142.85 251.21 147.5 251.5C148.95 252.3 150.62 252.8 152.5 253C161.53 253.66 170.53 253.33 179.5 252C183.11 251.3 186.44 250.13 189.5 248.5C193.92 246.36 198.26 244.02 202.5 241.5C203.5 241.5 204.5 241.5 205.5 241.5C204.96 247.37 202.96 252.71 199.5 257.5C198.67 260.48 198 263.48 197.5 266.5C195.82 266.29 194.82 266.95 194.5 268.5C194.34 270.86 194.5 273.19 195 275.5C196.11 277.04 197.61 277.7 199.5 277.5C200.78 278.93 202.45 279.6 204.5 279.5C210.8 280.94 217.13 282.27 223.5 283.5C226.18 283.16 228.84 282.83 231.5 282.5C238.63 281.6 245.63 280.1 252.5 278C254.92 276.49 255.92 274.32 255.5 271.5C253.71 266.13 251.71 260.8 249.5 255.5C248.38 250.8 247.05 246.14 245.5 241.5C246.23 240.91 247.23 240.91 248.5 241.5Z" fill="#FBFBFB"/>
<path fill-rule="evenodd" clip-rule="evenodd" d="M71.5 242.5C73.53 245.22 75.19 248.22 76.5 251.5C73.54 249.35 71.87 246.35 71.5 242.5Z" fill="#949494"/>
<path fill-rule="evenodd" clip-rule="evenodd" d="M329.5 248.5C329.5 247.17 329.5 245.83 329.5 244.5C327.5 244.83 325.5 245.17 323.5 245.5C325.44 243.84 327.77 243.17 330.5 243.5C330.78 245.41 330.45 247.08 329.5 248.5Z" fill="#A4A4A4"/>
<path fill-rule="evenodd" clip-rule="evenodd" d="M2.5 239.5C4.23 246.6 5.23 253.93 5.5 261.5C4.05 255.37 3.05 249.04 2.5 242.5C2.5 241.5 2.5 240.5 2.5 239.5Z" fill="#828282"/>
<path fill-rule="evenodd" clip-rule="evenodd" d="M107.5 229.5C109.36 243.14 111.69 256.81 114.5 270.5C114.17 270.5 113.83 270.5 113.5 270.5C112.78 266.86 111.78 263.19 110.5 259.5C110.21 254.74 109.37 250.07 108 245.5C107.5 240.18 107.33 234.84 107.5 229.5Z" fill="#888888"/>
<path fill-rule="evenodd" clip-rule="evenodd" d="M319.5 247.5C315.19 249.7 310.52 251.04 305.5 251.5C309.87 249.55 314.54 248.22 319.5 247.5Z" fill="#9A9A9A"/>
<path fill-rule="evenodd" clip-rule="evenodd" d="M248.5 241.5C247.23 240.91 246.23 240.91 245.5 241.5C247.05 246.14 248.38 250.8 249.5 255.5C246.38 250.25 244.05 244.58 242.5 238.5C242.83 237.83 243.17 237.17 243.5 236.5C245.19 238.19 246.85 239.85 248.5 241.5Z" fill="#969696"/>
<path fill-rule="evenodd" clip-rule="evenodd" d="M132.5 246.5C137.51 248.3 142.51 249.96 147.5 251.5C142.85 251.21 138.35 250.21 134 248.5C132.97 248.16 132.47 247.5 132.5 246.5Z" fill="#A5A5A5"/>
<path fill-rule="evenodd" clip-rule="evenodd" d="M120.5 244.5C121.91 247.22 122.58 250.22 122.5 253.5C121.09 250.78 120.42 247.78 120.5 244.5Z" fill="#666666"/>
<path fill-rule="evenodd" clip-rule="evenodd" d="M127.5 244.5C126.17 244.5 124.83 244.5 123.5 244.5C123.5 251.52 123.83 258.52 124.5 265.5C123.21 261.73 122.54 257.73 122.5 253.5C122.58 250.22 121.91 247.22 120.5 244.5C122.66 242.04 124.99 242.04 127.5 244.5Z" fill="#CDCDCD"/>
<path fill-rule="evenodd" clip-rule="evenodd" d="M214.5 228.5C213.68 230.14 212.85 231.81 212 233.5C212.41 239.56 210.75 244.89 207 249.5C205.18 256.14 202.68 262.48 199.5 268.5C197.83 268.5 196.17 268.5 194.5 268.5C194.82 266.95 195.82 266.29 197.5 266.5C198 263.48 198.67 260.48 199.5 257.5C202.96 252.71 204.96 247.37 205.5 241.5C204.5 241.5 203.5 241.5 202.5 241.5C207.28 237.72 211.28 233.39 214.5 228.5Z" fill="#CACACA"/>
<path fill-rule="evenodd" clip-rule="evenodd" d="M189.5 248.5C186.44 250.13 183.11 251.3 179.5 252C170.53 253.33 161.53 253.66 152.5 253C150.62 252.8 148.95 252.3 147.5 251.5C161.68 252.93 175.68 251.93 189.5 248.5Z" fill="#6B6B6B"/>
<path fill-rule="evenodd" clip-rule="evenodd" d="M269.5 250.5C280.75 252.8 292.08 253.13 303.5 251.5C298.43 253.06 293.1 253.72 287.5 253.5C283.5 253.33 279.5 253.17 275.5 253C273.15 252.76 271.15 251.93 269.5 250.5Z" fill="#797979"/>
<path fill-rule="evenodd" clip-rule="evenodd" d="M379.5 247.5C378.5 251.51 376.5 254.84 373.5 257.5C374.53 253.42 376.53 250.09 379.5 247.5Z" fill="#8F8F8F"/>
<path fill-rule="evenodd" clip-rule="evenodd" d="M329.5 249.5C329.38 254.05 328.71 258.38 327.5 262.5C327.16 257.88 327.82 253.54 329.5 249.5Z" fill="#B8B8B8"/>
<path fill-rule="evenodd" clip-rule="evenodd" d="M247.5 262.5C249.3 263.89 249.63 265.56 248.5 267.5C246.2 268.32 243.87 268.99 241.5 269.5C243.19 268.08 245.02 266.75 247 265.5C247.48 264.55 247.65 263.55 247.5 262.5Z" fill="#9A9A9A"/>
<path fill-rule="evenodd" clip-rule="evenodd" d="M340.5 258.5C340.66 261.52 340.5 264.52 340 267.5C339.08 271.31 337.91 274.98 336.5 278.5C337.01 271.54 338.34 264.87 340.5 258.5Z" fill="#ACACAC"/>
<path fill-rule="evenodd" clip-rule="evenodd" d="M202.5 269.5C205.15 269.41 207.49 270.08 209.5 271.5C206.85 271.59 204.51 270.92 202.5 269.5Z" fill="#999999"/>
<path fill-rule="evenodd" clip-rule="evenodd" d="M240.5 269.5C234.64 272.68 228.3 274.68 221.5 275.5C220.83 274.83 220.17 274.17 219.5 273.5C226.58 272.65 233.58 271.31 240.5 269.5Z" fill="#979797"/>
<path fill-rule="evenodd" clip-rule="evenodd" d="M210.5 272.5C213.52 272.7 216.52 273.04 219.5 273.5C220.17 274.17 220.83 274.83 221.5 275.5C217.6 274.94 213.94 273.94 210.5 272.5Z" fill="#545454"/>
<path fill-rule="evenodd" clip-rule="evenodd" d="M327.5 268.5C327.59 271.15 326.92 273.49 325.5 275.5C325.17 272.77 325.84 270.44 327.5 268.5Z" fill="#9A9A9A"/>
<path fill-rule="evenodd" clip-rule="evenodd" d="M368.5 263.5C363.75 268.72 358.08 272.72 351.5 275.5C349.14 275.67 346.81 276.01 344.5 276.5C352.9 273.15 360.9 268.82 368.5 263.5Z" fill="#989898"/>
<path fill-rule="evenodd" clip-rule="evenodd" d="M444.5 266.5C444.66 269.19 444.5 271.85 444 274.5C443.8 276.32 442.97 277.65 441.5 278.5C441.75 274.2 442.75 270.2 444.5 266.5Z" fill="#AFAFAF"/>
<path fill-rule="evenodd" clip-rule="evenodd" d="M94.5 270.5C99.53 272.71 104.86 274.04 110.5 274.5C111.83 282.16 113.17 289.83 114.5 297.5C114.17 297.5 113.83 297.5 113.5 297.5C111.25 290.81 109.92 283.81 109.5 276.5C103.65 276.4 98.65 274.4 94.5 270.5Z" fill="#B5B5B5"/>
<path fill-rule="evenodd" clip-rule="evenodd" d="M351.5 275.5C348.83 277.12 345.83 277.78 342.5 277.5C342.68 281.12 342.01 284.46 340.5 287.5C340.94 283.85 341.28 280.18 341.5 276.5C342.5 276.5 343.5 276.5 344.5 276.5C346.81 276.01 349.14 275.67 351.5 275.5Z" fill="#434343"/>
<path fill-rule="evenodd" clip-rule="evenodd" d="M199.5 277.5C201.55 277.4 203.22 278.07 204.5 279.5C202.45 279.6 200.78 278.93 199.5 277.5Z" fill="#727272"/>
<path fill-rule="evenodd" clip-rule="evenodd" d="M8.50018 275.5C9.92018 277.51 10.5902 279.85 10.5002 282.5C9.08018 280.49 8.41018 278.15 8.50018 275.5Z" fill="#828282"/>
<path fill-rule="evenodd" clip-rule="evenodd" d="M255.5 271.5C255.92 274.32 254.92 276.49 252.5 278C245.63 280.1 238.63 281.6 231.5 282.5C238.23 279.91 245.23 277.74 252.5 276C253.4 274.35 254.4 272.85 255.5 271.5Z" fill="#A5A5A5"/>
<path fill-rule="evenodd" clip-rule="evenodd" d="M325.5 278.5C325.48 282.53 324.48 286.2 322.5 289.5C322.74 285.52 323.74 281.85 325.5 278.5Z" fill="#888888"/>
<path fill-rule="evenodd" clip-rule="evenodd" d="M441.5 279.5C441.74 281.9 441.07 283.9 439.5 285.5C439.26 283.1 439.93 281.1 441.5 279.5Z" fill="#868686"/>
<path fill-rule="evenodd" clip-rule="evenodd" d="M336.5 280.5C336.59 283.15 335.92 285.49 334.5 287.5C334.17 284.77 334.84 282.44 336.5 280.5Z" fill="#696969"/>
<path fill-rule="evenodd" clip-rule="evenodd" d="M11.5 287.5C13.66 291.51 14.99 295.84 15.5 300.5C13.39 296.5 12.06 292.16 11.5 287.5Z" fill="#A0A0A0"/>
<path fill-rule="evenodd" clip-rule="evenodd" d="M113.5 270.5C113.83 270.5 114.17 270.5 114.5 270.5C116.54 281.98 119.2 293.31 122.5 304.5C121.5 304.5 120.5 304.5 119.5 304.5C116.23 293.42 114.23 282.08 113.5 270.5Z" fill="#A9A9A9"/>
<path fill-rule="evenodd" clip-rule="evenodd" d="M290.5 291.5C288.37 291.15 287.03 291.98 286.5 294C287.69 296.72 288.35 299.56 288.5 302.5C286.53 300.05 285.19 297.21 284.5 294C285.62 290.73 287.62 289.9 290.5 291.5Z" fill="#ADADAD"/>
<path fill-rule="evenodd" clip-rule="evenodd" d="M438.5 289.5C438.74 291.9 438.07 293.9 436.5 295.5C436.26 293.1 436.93 291.1 438.5 289.5Z" fill="#8D8D8D"/>
<path fill-rule="evenodd" clip-rule="evenodd" d="M167.5 292.5C167.5 293.5 167.5 294.5 167.5 295.5C166.21 296.06 165.38 297.06 165 298.5C162.38 305.31 160.55 312.31 159.5 319.5C157.78 319.37 156.12 319.04 154.5 318.5C154.39 312.17 155.72 306.17 158.5 300.5C158.56 299.39 158.89 298.39 159.5 297.5C160.96 297.42 162.29 296.92 163.5 296C162.66 294.99 162.33 293.82 162.5 292.5C164.17 292.5 165.83 292.5 167.5 292.5Z" fill="#0D0D0D"/>
<path fill-rule="evenodd" clip-rule="evenodd" d="M129.5 292.5C131.55 295.01 132.55 298.01 132.5 301.5C130.93 298.78 129.93 295.78 129.5 292.5Z" fill="#9E9E9E"/>
<path fill-rule="evenodd" clip-rule="evenodd" d="M167.5 292.5C165.83 292.5 164.17 292.5 162.5 292.5C162.33 293.82 162.66 294.99 163.5 296C162.29 296.92 160.96 297.42 159.5 297.5C160.19 292.3 162.85 290.63 167.5 292.5Z" fill="#404040"/>
<path fill-rule="evenodd" clip-rule="evenodd" d="M218.5 296.5C223.98 295.35 229.65 295.18 235.5 296C239.76 296.76 243.76 297.92 247.5 299.5C242.78 298.99 238.12 298.16 233.5 297C228.51 296.5 223.51 296.33 218.5 296.5Z" fill="#C2C2C2"/>
<path fill-rule="evenodd" clip-rule="evenodd" d="M212.5 297.5C214.26 296.54 216.26 296.21 218.5 296.5C223.51 296.33 228.51 296.5 233.5 297C238.12 298.16 242.78 298.99 247.5 299.5C248.17 299.5 248.83 299.5 249.5 299.5C250.5 300.17 251.5 300.83 252.5 301.5C239.29 298.95 225.96 297.61 212.5 297.5Z" fill="#6E6E6E"/>
<path fill-rule="evenodd" clip-rule="evenodd" d="M211.5 297.5C211.83 297.5 212.17 297.5 212.5 297.5C225.96 297.61 239.29 298.95 252.5 301.5C257.8 303.57 263.47 304.91 269.5 305.5C272 306.37 274.67 307.04 277.5 307.5C278.97 308.78 279.63 310.45 279.5 312.5C274.42 312.35 269.42 311.68 264.5 310.5C244.98 303.81 224.98 302.14 204.5 305.5C197.47 307.14 190.47 308.97 183.5 311C182.29 312.04 181.29 313.21 180.5 314.5C179.17 314.5 177.83 314.5 176.5 314.5C176.33 312.38 176.66 310.38 177.5 308.5C188.55 303.62 199.88 299.96 211.5 297.5Z" fill="#171717"/>
<path fill-rule="evenodd" clip-rule="evenodd" d="M292.5 293.5C294.9 296.31 296.23 299.64 296.5 303.5C294.6 300.48 293.27 297.15 292.5 293.5Z" fill="#9B9B9B"/>
<path fill-rule="evenodd" clip-rule="evenodd" d="M436.5 295.5C436.23 299.36 434.9 302.69 432.5 305.5C433.27 301.85 434.6 298.52 436.5 295.5Z" fill="#797979"/>
<path fill-rule="evenodd" clip-rule="evenodd" d="M249.5 299.5C256.53 300.59 263.2 302.59 269.5 305.5C263.47 304.91 257.8 303.57 252.5 301.5C251.5 300.83 250.5 300.17 249.5 299.5Z" fill="#9F9F9F"/>
<path fill-rule="evenodd" clip-rule="evenodd" d="M290.5 291.5C290.83 292.5 291.5 293.17 292.5 293.5C293.27 297.15 294.6 300.48 296.5 303.5C296.59 307.86 296.92 312.19 297.5 316.5C297.5 317.17 297.17 317.5 296.5 317.5C295.18 317.67 294.01 317.34 293 316.5C292.24 311.48 290.74 306.81 288.5 302.5C288.35 299.56 287.69 296.72 286.5 294C287.03 291.98 288.37 291.15 290.5 291.5Z" fill="#111111"/>
<path fill-rule="evenodd" clip-rule="evenodd" d="M167.5 295.5C164.63 303.29 162.46 311.29 161 319.5C158.45 321.02 156.28 320.69 154.5 318.5C156.12 319.04 157.78 319.37 159.5 319.5C160.55 312.31 162.38 305.31 165 298.5C165.38 297.06 166.21 296.06 167.5 295.5Z" fill="#878787"/>
<path fill-rule="evenodd" clip-rule="evenodd" d="M211.5 297.5C199.88 299.96 188.55 303.62 177.5 308.5C177.95 307.54 178.62 306.71 179.5 306C189.71 301.28 200.37 298.45 211.5 297.5Z" fill="#ADADAD"/>
<path fill-rule="evenodd" clip-rule="evenodd" d="M334.5 289.5C332.18 303.51 327.52 316.84 320.5 329.5C319.64 330.43 318.64 331.09 317.5 331.5C324.87 318.11 330.54 304.11 334.5 289.5Z" fill="#A2A2A2"/>
<path fill-rule="evenodd" clip-rule="evenodd" d="M16.5 303.5C18.1 304.29 18.77 305.62 18.5 307.5C17.33 306.49 16.66 305.15 16.5 303.5Z" fill="#808080"/>
<path fill-rule="evenodd" clip-rule="evenodd" d="M132.5 301.5C134.02 303.89 135.02 306.56 135.5 309.5C133.02 307.5 132.02 304.83 132.5 301.5Z" fill="#696969"/>
<path fill-rule="evenodd" clip-rule="evenodd" d="M158.5 300.5C155.72 306.17 154.39 312.17 154.5 318.5C153.35 314.35 153.19 310.02 154 305.5C154.7 303.08 156.2 301.41 158.5 300.5Z" fill="#ADADAD"/>
<path fill-rule="evenodd" clip-rule="evenodd" d="M338.5 299.5C338.16 304.25 336.83 308.58 334.5 312.5C335.06 307.82 336.39 303.49 338.5 299.5Z" fill="#787878"/>
<path fill-rule="evenodd" clip-rule="evenodd" d="M113.5 297.5C113.83 297.5 114.17 297.5 114.5 297.5C115.26 301.78 116.59 305.78 118.5 309.5C119.95 312.98 120.95 316.64 121.5 320.5C116.88 313.65 114.21 305.98 113.5 297.5Z" fill="#898989"/>
<path fill-rule="evenodd" clip-rule="evenodd" d="M204.5 305.5C200.27 308.26 195.77 310.59 191 312.5C190.44 311.98 189.77 311.64 189 311.5C186.11 312.41 183.27 313.41 180.5 314.5C181.29 313.21 182.29 312.04 183.5 311C190.47 308.97 197.47 307.14 204.5 305.5Z" fill="#C4C4C4"/>
<path fill-rule="evenodd" clip-rule="evenodd" d="M18.4999 307.5C20.0699 309.51 21.0699 311.84 21.4999 314.5C19.1699 312.82 18.1699 310.49 18.4999 307.5Z" fill="#999999"/>
<path fill-rule="evenodd" clip-rule="evenodd" d="M322.5 291.5C319.84 305.47 314.5 318.14 306.5 329.5C312.05 316.85 317.38 304.18 322.5 291.5Z" fill="#B1B1B1"/>
<path fill-rule="evenodd" clip-rule="evenodd" d="M277.5 307.5C278.83 307.5 280.17 307.5 281.5 307.5C281.5 309.5 281.5 311.5 281.5 313.5C277.15 313.67 272.82 313.5 268.5 313C266.93 312.39 265.6 311.56 264.5 310.5C269.42 311.68 274.42 312.35 279.5 312.5C279.63 310.45 278.97 308.78 277.5 307.5Z" fill="#C2C2C2"/>
<path fill-rule="evenodd" clip-rule="evenodd" d="M296.5 303.5C298.41 307.75 298.74 312.09 297.5 316.5C296.92 312.19 296.59 307.86 296.5 303.5Z" fill="#7A7A7A"/>
<path fill-rule="evenodd" clip-rule="evenodd" d="M288.5 302.5C290.74 306.81 292.24 311.48 293 316.5C294.01 317.34 295.18 317.67 296.5 317.5C295.12 318.8 293.62 318.8 292 317.5C290.64 312.53 289.47 307.53 288.5 302.5Z" fill="#929292"/>
<path fill-rule="evenodd" clip-rule="evenodd" d="M21.4997 314.5C23.7197 317.8 25.3897 321.47 26.4997 325.5C24.5497 323.52 23.0497 321.19 21.9997 318.5C21.5097 317.21 21.3397 315.87 21.4997 314.5Z" fill="#A1A1A1"/>
<path fill-rule="evenodd" clip-rule="evenodd" d="M229.5 321.5C223.64 321.18 217.98 321.51 212.5 322.5C210.83 322.5 209.17 322.5 207.5 322.5C211.56 320.98 215.89 320.32 220.5 320.5C223.69 320.5 226.69 320.84 229.5 321.5Z" fill="#8B8B8B"/>
<path fill-rule="evenodd" clip-rule="evenodd" d="M212.5 322.5C217.98 321.51 223.64 321.18 229.5 321.5C232.19 321.34 234.85 321.5 237.5 322C238.42 322.28 239.08 322.78 239.5 323.5C230.53 322.62 221.53 322.28 212.5 322.5Z" fill="#424242"/>
<path fill-rule="evenodd" clip-rule="evenodd" d="M212.5 322.5C221.53 322.28 230.53 322.62 239.5 323.5C239.83 323.5 240.17 323.5 240.5 323.5C245.65 324.11 250.65 325.44 255.5 327.5C255.5 329.17 255.5 330.83 255.5 332.5C251.5 331.83 247.5 331.17 243.5 330.5C243.38 329.41 242.71 328.75 241.5 328.5C238.22 327.67 234.88 327.34 231.5 327.5C230.83 327.5 230.17 327.5 229.5 327.5C227.53 326.84 225.36 326.5 223 326.5C218.91 326.43 215.07 327.1 211.5 328.5C206.81 329.04 202.15 329.7 197.5 330.5C196.28 328.72 196.28 327.05 197.5 325.5C202.81 325.49 207.81 324.49 212.5 322.5Z" fill="#0D0D0D"/>
<path fill-rule="evenodd" clip-rule="evenodd" d="M207.5 322.5C209.17 322.5 210.83 322.5 212.5 322.5C207.81 324.49 202.81 325.49 197.5 325.5C200.73 324.51 204.06 323.51 207.5 322.5Z" fill="#494949"/>
<path fill-rule="evenodd" clip-rule="evenodd" d="M240.5 323.5C246.23 322.67 251.23 324 255.5 327.5C250.65 325.44 245.65 324.11 240.5 323.5Z" fill="#A3A3A3"/>
<path fill-rule="evenodd" clip-rule="evenodd" d="M26.5001 325.5C27.9101 325.97 28.5701 326.97 28.5001 328.5C27.0901 328.03 26.4301 327.03 26.5001 325.5Z" fill="#848484"/>
<path fill-rule="evenodd" clip-rule="evenodd" d="M229.5 327.5C223.49 327.7 217.49 328.03 211.5 328.5C215.07 327.1 218.91 326.43 223 326.5C225.36 326.5 227.53 326.84 229.5 327.5Z" fill="#8A8A8A"/>
<path fill-rule="evenodd" clip-rule="evenodd" d="M231.5 327.5C234.88 327.34 238.22 327.67 241.5 328.5C242.71 328.75 243.38 329.41 243.5 330.5C239.24 330.1 235.24 329.1 231.5 327.5Z" fill="#454545"/>
<path fill-rule="evenodd" clip-rule="evenodd" d="M141.5 320.5C144.93 324.37 147.6 328.7 149.5 333.5C145.57 329.97 142.9 325.63 141.5 320.5Z" fill="#9B9B9B"/>
<path fill-rule="evenodd" clip-rule="evenodd" d="M229.5 327.5C230.17 327.5 230.83 327.5 231.5 327.5C235.24 329.1 239.24 330.1 243.5 330.5C247.5 331.17 251.5 331.83 255.5 332.5C253.05 333.47 250.39 333.81 247.5 333.5C247.5 334.5 247.5 335.5 247.5 336.5C249.38 336.23 250.71 336.9 251.5 338.5C248.12 337.92 244.79 337.26 241.5 336.5C239 335.63 236.33 334.96 233.5 334.5C228.36 333.51 223.03 333.18 217.5 333.5C223.1 332.73 228.77 331.57 234.5 330C222.93 329.09 211.43 329.59 200 331.5C198.93 331.47 198.1 331.14 197.5 330.5C202.15 329.7 206.81 329.04 211.5 328.5C217.49 328.03 223.49 327.7 229.5 327.5Z" fill="#D5D5D5"/>
<path fill-rule="evenodd" clip-rule="evenodd" d="M122.5 305.5C126.61 315.95 131.61 325.95 137.5 335.5C136.5 335.41 135.67 335.75 135 336.5C129.19 326.88 125.03 316.54 122.5 305.5Z" fill="#C4C4C4"/>
<path fill-rule="evenodd" clip-rule="evenodd" d="M422.5 327.5C421.92 330.33 420.59 332.66 418.5 334.5C419.08 331.67 420.41 329.34 422.5 327.5Z" fill="#878787"/>
<path fill-rule="evenodd" clip-rule="evenodd" d="M121.5 320.5C126.61 326.62 130.95 333.29 134.5 340.5C128.66 334.83 124.33 328.16 121.5 320.5Z" fill="#989898"/>
<path fill-rule="evenodd" clip-rule="evenodd" d="M217.5 333.5C223.03 333.18 228.36 333.51 233.5 334.5C226.83 334.33 220.16 334.5 213.5 335C212.26 335.23 211.26 335.73 210.5 336.5C206.8 337.01 203.14 337.67 199.5 338.5C200.6 337.44 201.93 336.61 203.5 336C208.08 334.64 212.75 333.8 217.5 333.5Z" fill="#A8A8A8"/>
<path fill-rule="evenodd" clip-rule="evenodd" d="M149.5 333.5C152.94 334.69 155.27 337.03 156.5 340.5C153.17 339.17 150.83 336.83 149.5 333.5Z" fill="#B6B6B6"/>
<path fill-rule="evenodd" clip-rule="evenodd" d="M233.5 334.5C236.33 334.96 239 335.63 241.5 336.5C231.16 335.27 220.82 335.27 210.5 336.5C211.26 335.73 212.26 335.23 213.5 335C220.16 334.5 226.83 334.33 233.5 334.5Z" fill="#393939"/>
<path fill-rule="evenodd" clip-rule="evenodd" d="M241.5 336.5C244.79 337.26 248.12 337.92 251.5 338.5C252.57 342.94 250.91 344.94 246.5 344.5C243.75 343.05 240.75 342.05 237.5 341.5C237.17 341.5 236.83 341.5 236.5 341.5C231.57 339.62 226.57 339.28 221.5 340.5C215.76 340.6 210.42 341.94 205.5 344.5C199.97 346.12 197.97 344.12 199.5 338.5C203.14 337.67 206.8 337.01 210.5 336.5C220.82 335.27 231.16 335.27 241.5 336.5Z" fill="#0F0F0F"/>
<path fill-rule="evenodd" clip-rule="evenodd" d="M303.5 333.5C301.98 336.53 299.98 339.2 297.5 341.5C298.55 338.04 300.55 335.37 303.5 333.5Z" fill="#929292"/>
<path fill-rule="evenodd" clip-rule="evenodd" d="M417.5 336.5C416.66 338.85 415.33 340.85 413.5 342.5C413.84 339.8 415.18 337.8 417.5 336.5Z" fill="#898989"/>
<path fill-rule="evenodd" clip-rule="evenodd" d="M221.5 340.5C226.57 339.28 231.57 339.62 236.5 341.5C231.51 341.08 226.51 340.75 221.5 340.5Z" fill="#727272"/>
<path fill-rule="evenodd" clip-rule="evenodd" d="M221.5 340.5C226.51 340.75 231.51 341.08 236.5 341.5C236.83 341.5 237.17 341.5 237.5 341.5C237.5 341.83 237.5 342.17 237.5 342.5C226.72 342.02 216.05 342.69 205.5 344.5C210.42 341.94 215.76 340.6 221.5 340.5Z" fill="#CCCCCC"/>
<path fill-rule="evenodd" clip-rule="evenodd" d="M320.5 338.5C319.58 341.09 317.91 343.09 315.5 344.5C316.42 341.91 318.09 339.91 320.5 338.5Z" fill="#5F5F5F"/>
<path fill-rule="evenodd" clip-rule="evenodd" d="M237.5 342.5C237.5 342.17 237.5 341.83 237.5 341.5C240.75 342.05 243.75 343.05 246.5 344.5C243.37 344.3 240.37 343.63 237.5 342.5Z" fill="#717171"/>
<path fill-rule="evenodd" clip-rule="evenodd" d="M36.5001 341.5C37.9101 341.97 38.5701 342.97 38.5001 344.5C37.0901 344.03 36.4301 343.03 36.5001 341.5Z" fill="#818181"/>
<path fill-rule="evenodd" clip-rule="evenodd" d="M295.5 342.5C290.24 349.13 283.57 353.8 275.5 356.5C282.2 351.79 288.86 347.12 295.5 342.5Z" fill="#AFAFAF"/>
<path fill-rule="evenodd" clip-rule="evenodd" d="M167.5 350.5C169.75 351.08 171.42 352.41 172.5 354.5C170.25 353.92 168.58 352.59 167.5 350.5Z" fill="#8D8D8D"/>
<path fill-rule="evenodd" clip-rule="evenodd" d="M406.5 352.5C405.59 354.6 404.42 356.6 403 358.5C402.33 359.25 401.5 359.59 400.5 359.5C401.8 356.57 403.8 354.23 406.5 352.5Z" fill="#A7A7A7"/>
<path fill-rule="evenodd" clip-rule="evenodd" d="M186.5 361.5C188.9 361.26 190.9 361.93 192.5 363.5C190.1 363.74 188.1 363.07 186.5 361.5Z" fill="#A0A0A0"/>
<path fill-rule="evenodd" clip-rule="evenodd" d="M273.5 357.5C269.51 360.84 264.84 362.84 259.5 363.5C263.98 361.19 268.65 359.19 273.5 357.5Z" fill="#8D8D8D"/>
<path fill-rule="evenodd" clip-rule="evenodd" d="M192.5 363.5C195.15 363.41 197.49 364.08 199.5 365.5C196.77 365.83 194.44 365.16 192.5 363.5Z" fill="#898989"/>
<path fill-rule="evenodd" clip-rule="evenodd" d="M259.5 363.5C257.56 365.16 255.23 365.83 252.5 365.5C254.51 364.08 256.85 363.41 259.5 363.5Z" fill="#7C7C7C"/>
<path fill-rule="evenodd" clip-rule="evenodd" d="M400.5 359.5C399.83 363.86 397.5 366.86 393.5 368.5C395.46 365.21 397.79 362.21 400.5 359.5Z" fill="#BABABA"/>
<path fill-rule="evenodd" clip-rule="evenodd" d="M119.5 304.5C120.5 304.5 121.5 304.5 122.5 304.5C122.5 304.83 122.5 305.17 122.5 305.5C125.03 316.54 129.19 326.88 135 336.5C135.67 335.75 136.5 335.41 137.5 335.5C139.89 337.91 142.05 340.58 144 343.5C144.5 370.83 144.67 398.16 144.5 425.5C146.38 425.23 147.71 425.9 148.5 427.5C142.98 427.49 140.65 424.99 141.5 420C140.67 402.91 140.17 385.74 140 368.5C139.5 386.83 139.33 405.16 139.5 423.5C136.92 423.97 134.92 423.31 133.5 421.5C133.83 421.5 134.17 421.5 134.5 421.5C135.21 422.4 136.21 422.74 137.5 422.5C137.67 396.16 137.5 369.83 137 343.5C136.15 342.43 135.31 341.43 134.5 340.5C130.95 333.29 126.61 326.62 121.5 320.5C120.95 316.64 119.95 312.98 118.5 309.5C119.24 309.63 119.91 309.46 120.5 309C118.93 307.49 118.6 305.99 119.5 304.5Z" fill="#D7D7D7"/>
<path fill-rule="evenodd" clip-rule="evenodd" d="M252.5 365.5C250.49 366.92 248.15 367.59 245.5 367.5C247.44 365.84 249.77 365.17 252.5 365.5Z" fill="#6A6A6A"/>
<path fill-rule="evenodd" clip-rule="evenodd" d="M208.5 367.5C218.12 369.5 227.79 369.83 237.5 368.5C234.4 369.82 230.9 370.49 227 370.5C220.46 370.91 214.3 369.91 208.5 367.5Z" fill="#545454"/>
<path fill-rule="evenodd" clip-rule="evenodd" d="M391.5 369.5C390.17 374.17 387.17 377.17 382.5 378.5C385.83 375.83 388.83 372.83 391.5 369.5Z" fill="#B6B6B6"/>
<path fill-rule="evenodd" clip-rule="evenodd" d="M382.5 378.5C379.74 382.44 376.74 386.27 373.5 390C372.21 390.49 370.87 390.66 369.5 390.5C373.81 386.53 378.14 382.53 382.5 378.5Z" fill="#C8C8C8"/>
<path fill-rule="evenodd" clip-rule="evenodd" d="M315.5 344.5C315.5 344.83 315.5 345.17 315.5 345.5C314.83 358.16 314.5 371 314.5 384C314.5 397.18 315.17 410.02 316.5 422.5C315.79 423.4 314.79 423.74 313.5 423.5C312.84 396.81 313.51 370.48 315.5 344.5Z" fill="#939393"/>
<path fill-rule="evenodd" clip-rule="evenodd" d="M315.5 345.5C315.17 371.01 315.5 396.34 316.5 421.5C316.5 421.83 316.5 422.17 316.5 422.5C315.17 410.02 314.5 397.18 314.5 384C314.5 371 314.83 358.16 315.5 345.5Z" fill="#262626"/>
<path fill-rule="evenodd" clip-rule="evenodd" d="M364.5 394.5C361.13 399.82 356.46 403.15 350.5 404.5C354.81 400.68 359.47 397.35 364.5 394.5Z" fill="#B6B6B6"/>
<path fill-rule="evenodd" clip-rule="evenodd" d="M308.5 343.5C308.5 362.5 308.5 381.5 308.5 400.5C309.14 409.56 308.47 418.23 306.5 426.5C307.16 398.74 307.83 371.07 308.5 343.5Z" fill="#A5A5A5"/>
<path fill-rule="evenodd" clip-rule="evenodd" d="M350.5 404.5C348.85 406.33 346.85 407.66 344.5 408.5C345.8 406.18 347.8 404.84 350.5 404.5Z" fill="#8E8E8E"/>
<path fill-rule="evenodd" clip-rule="evenodd" d="M340.5 410.5C339.09 412.54 337.09 413.54 334.5 413.5C336.18 411.99 338.18 410.99 340.5 410.5Z" fill="#939393"/>
<path fill-rule="evenodd" clip-rule="evenodd" d="M334.5 413.5C333.51 415.41 331.85 416.41 329.5 416.5C330.66 414.75 332.33 413.75 334.5 413.5Z" fill="#9E9E9E"/>
<path fill-rule="evenodd" clip-rule="evenodd" d="M134.5 340.5C135.31 341.43 136.15 342.43 137 343.5C137.5 369.83 137.67 396.16 137.5 422.5C136.21 422.74 135.21 422.4 134.5 421.5C135.83 409.02 136.5 396.18 136.5 383C136.43 368.74 135.76 354.57 134.5 340.5Z" fill="#383838"/>
<path fill-rule="evenodd" clip-rule="evenodd" d="M329.5 416.5C325.87 419.81 321.54 421.81 316.5 422.5C316.5 422.17 316.5 421.83 316.5 421.5C320.95 420.02 325.28 418.35 329.5 416.5Z" fill="#B8B8B8"/>
<path fill-rule="evenodd" clip-rule="evenodd" d="M305.5 426.5C299.3 429.92 292.64 432.25 285.5 433.5C285.61 432.88 285.94 432.38 286.5 432C292.82 430.06 299.16 428.23 305.5 426.5Z" fill="#838383"/>
<path fill-rule="evenodd" clip-rule="evenodd" d="M155.5 429.5C158.15 429.41 160.49 430.08 162.5 431.5C159.85 431.59 157.51 430.92 155.5 429.5Z" fill="#656565"/>
<path fill-rule="evenodd" clip-rule="evenodd" d="M282.5 433.5C281.19 434.23 279.86 435.07 278.5 436C270.25 437.82 261.91 438.99 253.5 439.5C263.05 437.52 272.72 435.52 282.5 433.5Z" fill="#A2A2A2"/>
<path fill-rule="evenodd" clip-rule="evenodd" d="M195.5 438.5C201.07 438.38 206.4 439.04 211.5 440.5C206.82 440.33 202.15 440 197.5 439.5C196.51 439.67 195.84 439.34 195.5 438.5Z" fill="#424242"/>
<path fill-rule="evenodd" clip-rule="evenodd" d="M253.5 439.5C252.74 440.27 251.74 440.77 250.5 441C246.85 441.5 243.18 441.67 239.5 441.5C231.32 441.83 223.32 441.49 215.5 440.5C228.18 440.65 240.85 440.32 253.5 439.5Z" fill="#9E9E9E"/>
<path fill-rule="evenodd" clip-rule="evenodd" d="M197.5 439.5C202.15 440 206.82 440.33 211.5 440.5C212.83 440.5 214.17 440.5 215.5 440.5C223.32 441.49 231.32 441.83 239.5 441.5C231.34 442.66 223.01 442.82 214.5 442C208.59 441.88 202.92 441.04 197.5 439.5Z" fill="#D1D1D1"/>
</svg>
