<svg width="448" height="441" viewBox="0 0 448 441" fill="none" xmlns="http://www.w3.org/2000/svg">
<path fill-rule="evenodd" clip-rule="evenodd" d="M248.5 1.49999C232.5 1.33339 216.5 1.50009 200.5 1.99999C191.98 3.91929 183.31 4.75259 174.5 4.49999C182.5 2.20249 190.83 1.03579 199.5 0.999991C216.01 0.171791 232.34 0.338491 248.5 1.49999Z" fill="#6C6C6C"/>
<path fill-rule="evenodd" clip-rule="evenodd" d="M248.5 1.5C254.51 1.801 260.51 2.301 266.5 3C267.74 3.2321 268.74 3.7321 269.5 4.5C262.29 3.9999 255.29 2.9999 248.5 1.5Z" fill="#7C7C7C"/>
<path fill-rule="evenodd" clip-rule="evenodd" d="M248.5 1.50002C255.29 2.99992 262.29 3.99992 269.5 4.50002C278.72 6.60292 288.06 8.93622 297.5 11.5C298.64 13.2132 300.3 13.8799 302.5 13.5C302.83 13.5 303.17 13.5 303.5 13.5C306.35 15.0927 309.35 16.4261 312.5 17.5C314.51 19.0652 316.84 20.0652 319.5 20.5C321.17 21.1667 322.83 21.8333 324.5 22.5C326.03 24.2451 328.03 25.2451 330.5 25.5C387.08 54.465 423.08 99.798 438.5 161.5C438.41 164.152 439.08 166.485 440.5 168.5C442.53 177.317 444.2 186.317 445.5 195.5C446.32 207.815 446.65 220.148 446.5 232.5C446.81 236.371 446.48 240.038 445.5 243.5C443.85 251.318 442.52 259.318 441.5 267.5C440.85 269.435 440.52 271.435 440.5 273.5C438.38 278.949 436.72 284.616 435.5 290.5C434.16 294.51 432.83 298.51 431.5 302.5C428.77 305.968 427.11 309.968 426.5 314.5C425.09 314.973 424.43 315.973 424.5 317.5C422.01 321.151 420.01 325.151 418.5 329.5C416.41 331.336 415.08 333.669 414.5 336.5C412.67 338.147 411.34 340.147 410.5 342.5C408.18 345.796 405.85 349.129 403.5 352.5C384.5 376.502 361.84 396.168 335.5 411.5C331.57 412.132 328.24 413.799 325.5 416.5C323.94 416.733 322.6 417.4 321.5 418.5C316.35 419.545 311.68 421.545 307.5 424.5C304.99 424.054 302.99 424.72 301.5 426.5C299.69 427.024 298.03 427.691 296.5 428.5C291.96 428.625 287.96 429.958 284.5 432.5C282.71 432.366 281.04 432.699 279.5 433.5C274.95 434.057 270.62 435.057 266.5 436.5C260.9 436.779 255.56 437.779 250.5 439.5C232.5 440.776 214.5 440.776 196.5 439.5C189.06 437.606 181.4 436.273 173.5 435.5C164.94 433.693 156.6 431.359 148.5 428.5C145.5 426.723 142.16 425.723 138.5 425.5C136.9 423.926 134.9 423.259 132.5 423.5C130.57 421.707 128.24 420.707 125.5 420.5C125.03 419.094 124.03 418.427 122.5 418.5C102.51 409.503 84.5102 397.503 68.5002 382.5C63.1702 376.5 57.5001 370.833 51.5001 365.5C49.3101 361.793 46.6401 358.46 43.5001 355.5C41.2201 351.223 38.5501 347.223 35.5001 343.5C35.5701 341.973 34.9101 340.973 33.5001 340.5C32.8301 337.151 31.1601 334.484 28.5001 332.5C27.6701 329.515 26.3401 326.849 24.5001 324.5C23.2001 320.912 21.5401 317.579 19.5001 314.5C18.8901 313.609 18.5601 312.609 18.5001 311.5C17.4001 307.648 16.0601 303.982 14.5001 300.5C14.1701 300.5 13.8301 300.5 13.5001 300.5C13.5901 297.848 12.9201 295.515 11.5001 293.5C11.3101 290.145 10.3101 287.145 8.50015 284.5C8.50015 284.167 8.50015 283.833 8.50015 283.5C8.59015 280.848 7.92015 278.515 6.50015 276.5C6.26015 272.394 5.59015 268.394 4.50015 264.5C4.74015 262.102 4.07015 260.102 2.50015 258.5C0.800149 240.216 0.13015 221.882 0.50015 203.5C1.09015 193.541 2.42015 183.541 4.50015 173.5C4.50015 171.5 4.50015 169.5 4.50015 167.5C5.12015 167.389 5.62015 167.056 6.00015 166.5C6.96015 161.988 8.13015 157.655 9.50015 153.5C10.7701 151.095 11.4301 148.428 11.5001 145.5C13.2501 142.854 14.2501 139.854 14.5001 136.5C15.6201 133.169 16.9501 129.836 18.5001 126.5C22.0001 120.047 25.3301 113.38 28.5001 106.5C29.1701 105.833 29.8301 105.167 30.5001 104.5C33.8301 99.175 37.1601 93.841 40.5001 88.5C45.5101 82.157 50.8501 76.157 56.5001 70.5C58.1801 69.147 59.5201 67.48 60.5001 65.5C61.5001 65.167 62.1701 64.5 62.5001 63.5C65.5301 60.805 68.5302 58.138 71.5002 55.5C73.7502 54.876 75.4202 53.543 76.5002 51.5C76.5002 50.833 76.8302 50.5 77.5002 50.5C80.1102 49.557 82.1102 47.89 83.5002 45.5C84.7102 45.0679 85.7102 44.4013 86.5002 43.5C90.4602 41.5274 94.1202 39.1941 97.5002 36.5C97.8402 35.6618 98.5102 35.3284 99.5002 35.5C101.39 34.396 103.06 33.0627 104.5 31.5C109.84 28.8276 115.17 26.161 120.5 23.5C123.95 22.917 126.95 21.5837 129.5 19.5C132.23 17.88 135.23 16.88 138.5 16.5C143.01 15.5672 147.01 13.9006 150.5 11.5C155.91 9.06252 161.58 7.39582 167.5 6.50002C170.23 6.82942 172.56 6.16282 174.5 4.50002C183.31 4.75262 191.98 3.91932 200.5 2.00002C216.5 1.50012 232.5 1.33342 248.5 1.50002Z" fill="#0C0C0C"/>
<path fill-rule="evenodd" clip-rule="evenodd" d="M174.5 4.49999C172.56 6.16279 170.23 6.82939 167.5 6.49999C169.51 5.07619 171.85 4.40949 174.5 4.49999Z" fill="#868686"/>
<path fill-rule="evenodd" clip-rule="evenodd" d="M297.5 11.5C299.7 11.1201 301.36 11.7868 302.5 13.5C300.3 13.8799 298.64 13.2132 297.5 11.5Z" fill="#A0A0A0"/>
<path fill-rule="evenodd" clip-rule="evenodd" d="M150.5 11.5C147.01 13.9006 143.01 15.5672 138.5 16.5C141.95 13.7816 145.95 12.1149 150.5 11.5Z" fill="#515151"/>
<path fill-rule="evenodd" clip-rule="evenodd" d="M303.5 13.5C307.26 13.3028 310.26 14.6361 312.5 17.5C309.35 16.4261 306.35 15.0927 303.5 13.5Z" fill="#A4A4A4"/>
<path fill-rule="evenodd" clip-rule="evenodd" d="M312.5 17.5C315.49 17.1663 317.82 18.1663 319.5 20.5C316.84 20.0652 314.51 19.0652 312.5 17.5Z" fill="#959595"/>
<path fill-rule="evenodd" clip-rule="evenodd" d="M129.5 19.5C126.95 21.5837 123.95 22.917 120.5 23.5C123.05 21.4163 126.05 20.083 129.5 19.5Z" fill="#737373"/>
<path fill-rule="evenodd" clip-rule="evenodd" d="M324.5 22.5C326.97 22.7549 328.97 23.7549 330.5 25.5C328.03 25.2451 326.03 24.2451 324.5 22.5Z" fill="#8B8B8B"/>
<path fill-rule="evenodd" clip-rule="evenodd" d="M104.5 31.5C103.06 33.0627 101.39 34.396 99.5 35.5C100.13 33.0029 101.8 31.6696 104.5 31.5Z" fill="#9E9E9E"/>
<path fill-rule="evenodd" clip-rule="evenodd" d="M97.5 36.5C94.12 39.1941 90.46 41.5274 86.5 43.5C89.32 40.0516 92.98 37.7183 97.5 36.5Z" fill="#818181"/>
<path fill-rule="evenodd" clip-rule="evenodd" d="M139.5 47.5C138.19 46.855 137.19 45.8549 136.5 44.5C135.28 43.3861 133.94 43.2195 132.5 44C134.46 45.7456 135.46 47.912 135.5 50.5C134.79 49.261 133.79 48.761 132.5 49C128.61 52.404 124.61 55.571 120.5 58.5C123.75 54.24 127.42 50.24 131.5 46.5C131 46.167 130.5 45.8333 130 45.5C128.63 46.581 127.13 47.415 125.5 48C123.96 50.746 121.96 53.079 119.5 55C118.21 55.49 116.87 55.657 115.5 55.5C120.31 50.866 125.31 46.366 130.5 42C135.67 40.3422 138.67 42.1755 139.5 47.5Z" fill="#BEBEBE"/>
<path fill-rule="evenodd" clip-rule="evenodd" d="M139.5 47.5C139.95 49.977 139.28 51.977 137.5 53.5C136.82 52.757 136.15 52.091 135.5 51.5C135.5 51.167 135.5 50.833 135.5 50.5C135.46 47.912 134.46 45.7456 132.5 44C133.94 43.2195 135.28 43.3861 136.5 44.5C137.19 45.8549 138.19 46.855 139.5 47.5Z" fill="#EDEDED"/>
<path fill-rule="evenodd" clip-rule="evenodd" d="M83.5 45.5C82.11 47.89 80.11 49.557 77.5 50.5C78.17 48.976 79.17 47.642 80.5 46.5C81.32 45.6143 82.32 45.281 83.5 45.5Z" fill="#9F9F9F"/>
<path fill-rule="evenodd" clip-rule="evenodd" d="M76.5 51.5C75.42 53.543 73.75 54.876 71.5 55.5C72.54 53.469 74.21 52.136 76.5 51.5Z" fill="#818181"/>
<path fill-rule="evenodd" clip-rule="evenodd" d="M139.5 47.5C142.41 52.311 145.07 57.311 147.5 62.5C149.53 61.441 151.53 60.441 153.5 59.5C152.24 61.935 150.4 63.935 148 65.5C146.99 64.663 145.82 64.33 144.5 64.5C143.68 61.129 142.51 57.796 141 54.5C139.73 55.905 139.23 57.571 139.5 59.5C137.6 57.163 136.27 54.496 135.5 51.5C136.15 52.091 136.82 52.757 137.5 53.5C139.28 51.977 139.95 49.977 139.5 47.5Z" fill="#BCBCBC"/>
<path fill-rule="evenodd" clip-rule="evenodd" d="M135.5 50.5C135.5 50.833 135.5 51.167 135.5 51.5C136.27 54.496 137.6 57.163 139.5 59.5C139.69 63.102 141.03 66.102 143.5 68.5C143.78 69.289 144.28 69.956 145 70.5C148.75 67.895 152.91 66.562 157.5 66.5C157.5 67.833 157.5 69.167 157.5 70.5C157.93 76.274 158.93 81.941 160.5 87.5C161.42 88.127 162.42 88.461 163.5 88.5C168.68 86.745 173.68 84.745 178.5 82.5C180.1 82.768 181.43 82.434 182.5 81.5C202.24 77.979 222.24 76.646 242.5 77.5C251.23 78.508 259.9 79.841 268.5 81.5C270.51 82.924 272.85 83.59 275.5 83.5C278.22 85.072 281.22 86.072 284.5 86.5C285.85 87.601 287.35 88.601 289 89.5C289.72 88.956 290.22 88.289 290.5 87.5C291.18 83.078 292.18 78.744 293.5 74.5C294.92 72.485 295.59 70.152 295.5 67.5C295.8 65.204 296.8 64.871 298.5 66.5C301.23 69.367 304.57 70.867 308.5 71C310.76 64.323 313.42 57.823 316.5 51.5C316.56 50.957 316.89 50.624 317.5 50.5C318.52 51.193 319.52 51.859 320.5 52.5C331.36 62.023 340.36 73.023 347.5 85.5C349.2 90.991 351.2 96.324 353.5 101.5C356.12 109.97 357.78 118.637 358.5 127.5C359.34 134.465 359.67 141.465 359.5 148.5C359.5 152.167 359.5 155.833 359.5 159.5C359.5 160.167 359.5 160.833 359.5 161.5C357.5 167.209 356.5 173.209 356.5 179.5C356.78 181.415 356.45 183.081 355.5 184.5C354.62 188.336 353.96 192.336 353.5 196.5C352.6 210.914 351.1 225.247 349 239.5C347.82 242.521 346.65 245.521 345.5 248.5C342.13 251.51 338.79 254.51 335.5 257.5C331.66 259.587 327.99 261.92 324.5 264.5C320.57 265.132 317.24 266.799 314.5 269.5C305.73 271.2 296.9 272.534 288 273.5C280.43 272.987 272.93 271.987 265.5 270.5C262.6 268.352 259.26 266.852 255.5 266C251.46 263.984 247.79 261.484 244.5 258.5C243.3 254.537 241.3 251.037 238.5 248C238.96 247.586 239.29 247.086 239.5 246.5C238.45 243.202 237.95 239.868 238 236.5C239.37 242.645 241.37 248.645 244 254.5C245.99 256.905 248.32 257.572 251 256.5C252 257.833 253 259.167 254 260.5C254.41 260.043 254.91 259.709 255.5 259.5C257.94 263.08 261.27 264.246 265.5 263C265.17 262.667 264.83 262.333 264.5 262C266.58 261.808 268.58 261.308 270.5 260.5C268.03 258.902 268.03 257.402 270.5 256C271.79 255.51 273.13 255.343 274.5 255.5C278.79 257.816 283.46 259.15 288.5 259.5C292.85 259.666 297.18 259.499 301.5 259C304.1 258.61 306.44 257.776 308.5 256.5C311.52 256.159 314.18 254.993 316.5 253C317.82 252.184 318.49 251.017 318.5 249.5C320.58 247.424 322.25 245.09 323.5 242.5C325.87 238.599 326.87 234.266 326.5 229.5C326.69 225.859 326.02 222.526 324.5 219.5C322.69 214.986 320.36 210.653 317.5 206.5C317.23 204.688 316.56 203.022 315.5 201.5C312.18 199.248 308.51 197.748 304.5 197C305.13 196.25 305.63 195.416 306 194.5C307 195.833 308 195.833 309 194.5C310.34 196.004 312 197.004 314 197.5C314.33 197.167 314.67 196.833 315 196.5C315.37 197.91 316.2 198.91 317.5 199.5C318.28 198.263 319.28 197.263 320.5 196.5C322.32 196.646 324.32 196.812 326.5 197C326.96 196.586 327.29 196.086 327.5 195.5C326.22 194.355 324.89 194.355 323.5 195.5C322.87 193.433 321.87 191.6 320.5 190C320.73 189.601 321.06 189.435 321.5 189.5C323.44 190.15 325.44 190.483 327.5 190.5C327.56 191.043 327.89 191.376 328.5 191.5C331.35 173.238 332.02 154.905 330.5 136.5C330.84 131.878 330.18 127.545 328.5 123.5C327.41 112.296 324.08 101.963 318.5 92.5C318.31 90.088 316.97 89.088 314.5 89.5C313.52 91.821 312.52 94.154 311.5 96.5C309.3 99.021 306.97 101.521 304.5 104C301.47 105.183 298.47 106.349 295.5 107.5C290.49 108.169 285.49 109.003 280.5 110C279.58 110.278 278.92 110.778 278.5 111.5C276.9 111.232 275.57 111.566 274.5 112.5C267.97 112.697 261.64 113.364 255.5 114.5C237.85 115.345 220.18 115.678 202.5 115.5C196.7 114.318 190.7 113.652 184.5 113.5C183.17 113.5 181.83 113.5 180.5 113.5C178.49 112.076 176.15 111.41 173.5 111.5C172.5 111.5 171.5 111.5 170.5 111.5C167.55 109.59 164.21 108.59 160.5 108.5C158.14 108.326 155.81 107.993 153.5 107.5C151.97 105.755 149.97 104.755 147.5 104.5C146.39 103.71 145.06 103.21 143.5 103C139.88 99.551 136.88 95.717 134.5 91.5C134.21 89.577 133.37 87.91 132 86.5C129.7 88.78 128.2 91.446 127.5 94.5C125.1 97.309 123.77 100.642 123.5 104.5C122.08 106.515 121.41 108.848 121.5 111.5C119.12 116.888 118.12 122.555 118.5 128.5C116.45 136.395 115.45 144.562 115.5 153C115.87 161.508 116.37 170.008 117 178.5C117.58 182.095 118.42 185.595 119.5 189C122.22 189.045 124.89 188.545 127.5 187.5C128.83 187.5 130.17 187.5 131.5 187.5C131.17 189.661 130.17 191.494 128.5 193C130.04 194.187 131.71 194.52 133.5 194C132.33 193.581 131.33 192.915 130.5 192C132.7 191.846 134.7 192.512 136.5 194C133.39 194.917 130.39 196.417 127.5 198.5C129.42 199.308 131.42 199.808 133.5 200C130.71 202.289 128.04 204.789 125.5 207.5C120.41 213.675 118.07 220.842 118.5 229C119.05 232.596 119.05 236.096 118.5 239.5C119.06 241.405 120.06 243.071 121.5 244.5C121.29 245.086 120.96 245.586 120.5 246C122.84 248.202 125.51 249.702 128.5 250.5C127.94 255.533 129.94 257.199 134.5 255.5C136.22 255.629 137.88 255.962 139.5 256.5C139.5 256.833 139.5 257.167 139.5 257.5C136.4 257.413 136.07 257.913 138.5 259C151.54 262.663 164.37 262.163 177 257.5C178.11 258.76 178.28 259.927 177.5 261C174.17 262 170.83 263 167.5 264C168.17 264.333 168.83 264.667 169.5 265C165.46 267.262 161.13 268.762 156.5 269.5C156.78 267.654 156.11 266.32 154.5 265.5C152.19 266.991 149.69 267.991 147 268.5C146.33 265.833 145.67 265.833 145 268.5C144.52 267.552 144.35 266.552 144.5 265.5C142.53 265.261 140.7 265.594 139 266.5C138.69 265.692 138.19 265.025 137.5 264.5C137.32 267.078 136.16 267.078 134 264.5C131.42 265.861 129.42 265.195 128 262.5C127.67 262.833 127.33 263.167 127 263.5C123.25 260.518 119.08 258.185 114.5 256.5C112.19 253.515 109.19 251.848 105.5 251.5C103.5 248.833 101.5 246.167 99.5 243.5C98.06 236.737 96.73 230.07 95.5 223.5C95.33 209.685 93.99 196.019 91.5 182.5C91.04 176.28 90.04 170.28 88.5 164.5C88.5 164.167 88.5 163.833 88.5 163.5C86.79 146.719 87.46 130.052 90.5 113.5C92.07 111.898 92.74 109.898 92.5 107.5C94.61 103.509 95.94 99.176 96.5 94.5C100.5 87.51 104.5 80.51 108.5 73.5C110.54 72.421 111.88 70.754 112.5 68.5C114.76 64.897 117.43 61.564 120.5 58.5C124.61 55.571 128.61 52.404 132.5 49C133.79 48.761 134.79 49.261 135.5 50.5Z" fill="#0B0B0B"/>
<path fill-rule="evenodd" clip-rule="evenodd" d="M71.5 55.5C68.53 58.138 65.53 60.805 62.5 63.5C64.23 59.435 67.23 56.768 71.5 55.5Z" fill="#B7B7B7"/>
<path fill-rule="evenodd" clip-rule="evenodd" d="M153.5 59.5C153.83 59.5 154.17 59.5 154.5 59.5C156.65 59.372 158.65 59.872 160.5 61C159.83 62.333 158.83 63.333 157.5 64C158.25 65.487 159.09 65.654 160 64.5C160.84 70.247 162.01 75.914 163.5 81.5C164.73 82.281 166.06 82.781 167.5 83C165.75 84.292 163.92 85.458 162 86.5C160.6 81.023 159.1 75.689 157.5 70.5C157.5 69.167 157.5 67.833 157.5 66.5C152.91 66.562 148.75 67.895 145 70.5C144.28 69.956 143.78 69.289 143.5 68.5C142.93 65.088 141.59 62.088 139.5 59.5C139.23 57.571 139.73 55.905 141 54.5C142.51 57.796 143.68 61.129 144.5 64.5C145.82 64.33 146.99 64.663 148 65.5C150.4 63.935 152.24 61.935 153.5 59.5Z" fill="#E2E2E2"/>
<path fill-rule="evenodd" clip-rule="evenodd" d="M112.5 58.5C111.31 62.363 108.97 65.363 105.5 67.5C107.46 64.208 109.79 61.208 112.5 58.5Z" fill="#9D9D9D"/>
<path fill-rule="evenodd" clip-rule="evenodd" d="M139.5 59.5C141.59 62.088 142.93 65.088 143.5 68.5C141.03 66.102 139.69 63.102 139.5 59.5Z" fill="#8B8B8B"/>
<path fill-rule="evenodd" clip-rule="evenodd" d="M60.5 65.5C59.52 67.48 58.18 69.147 56.5 70.5C56.74 67.931 58.07 66.265 60.5 65.5Z" fill="#959595"/>
<path fill-rule="evenodd" clip-rule="evenodd" d="M366.5 207.5C363.28 206.931 360.95 205.264 359.5 202.5C359.01 195.673 359.68 189.007 361.5 182.5C361.03 180.693 360.69 178.86 360.5 177C361.38 172.48 362.72 168.147 364.5 164C363.07 151.209 362.24 138.375 362 125.5C361.89 137.041 361.05 148.374 359.5 159.5C359.5 155.833 359.5 152.167 359.5 148.5C360.65 142.347 360.82 136.014 360 129.5C359.72 128.584 359.22 127.918 358.5 127.5C357.78 118.637 356.12 109.97 353.5 101.5C352.7 95.604 350.7 90.271 347.5 85.5C342.53 73.771 335.2 63.605 325.5 55C323.92 53.906 322.26 53.072 320.5 52.5C319.52 51.859 318.52 51.193 317.5 50.5C316.89 50.624 316.56 50.957 316.5 51.5C315.32 51.281 314.32 51.614 313.5 52.5C311.62 57.888 309.62 63.221 307.5 68.5C306.5 69.833 305.5 69.833 304.5 68.5C305.17 68.167 305.83 67.833 306.5 67.5C305.76 66.713 304.92 66.047 304 65.5C302.3 66.406 300.47 66.739 298.5 66.5C296.8 64.871 295.8 65.204 295.5 67.5C294.08 69.515 293.41 71.848 293.5 74.5C292.18 78.744 291.18 83.078 290.5 87.5C288.62 86.659 286.62 86.325 284.5 86.5C281.92 84.528 278.92 83.528 275.5 83.5C274.5 82.833 273.5 82.167 272.5 81.5C271.19 80.768 269.86 79.934 268.5 79C271.01 77.748 273.68 77.248 276.5 77.5C279.69 77.895 282.69 78.895 285.5 80.5C287.64 73.403 289.98 66.403 292.5 59.5C293.33 59.167 294.17 58.833 295 58.5C298.57 59.893 302.07 61.06 305.5 62C307.79 57.785 309.29 53.285 310 48.5C310.88 45.4476 312.72 43.1142 315.5 41.5C333.91 53.748 347.41 70.082 356 90.5C364.26 111.346 367.6 133.013 366 155.5C364.33 169.495 362.5 183.495 360.5 197.5C360.83 199.5 361.17 201.5 361.5 203.5C363.79 204.133 365.45 205.466 366.5 207.5Z" fill="#E0E0E0"/>
<path fill-rule="evenodd" clip-rule="evenodd" d="M316.5 51.5C313.42 57.823 310.76 64.323 308.5 71C304.57 70.867 301.23 69.367 298.5 66.5C300.47 66.739 302.3 66.406 304 65.5C304.92 66.047 305.76 66.713 306.5 67.5C305.83 67.833 305.17 68.167 304.5 68.5C305.5 69.833 306.5 69.833 307.5 68.5C309.62 63.221 311.62 57.888 313.5 52.5C314.32 51.614 315.32 51.281 316.5 51.5Z" fill="#B5B5B5"/>
<path fill-rule="evenodd" clip-rule="evenodd" d="M320.5 52.5C322.26 53.072 323.92 53.906 325.5 55C335.2 63.605 342.53 73.771 347.5 85.5C340.36 73.023 331.36 62.023 320.5 52.5Z" fill="#A9A9A9"/>
<path fill-rule="evenodd" clip-rule="evenodd" d="M244.5 71.5C229.82 71.315 215.15 71.649 200.5 72.5C202.29 71.691 204.29 71.191 206.5 71C219.34 70.173 232.01 70.34 244.5 71.5Z" fill="#9A9A9A"/>
<path fill-rule="evenodd" clip-rule="evenodd" d="M112.5 68.5C111.88 70.754 110.54 72.421 108.5 73.5C109.14 71.205 110.47 69.539 112.5 68.5Z" fill="#545454"/>
<path fill-rule="evenodd" clip-rule="evenodd" d="M244.5 71.5C248.18 71.724 251.85 72.058 255.5 72.5C259.68 73.66 264.01 74.66 268.5 75.5C269.95 76.825 269.62 77.658 267.5 78C265.67 78.167 263.83 78.333 262 78.5C255.54 77.375 249.04 76.709 242.5 76.5C225.1 76.057 207.77 76.724 190.5 78.5C186.49 79.035 182.49 79.702 178.5 80.5C177.5 80.167 176.5 79.833 175.5 79.5C176.6 78.824 177.6 78.158 178.5 77.5C185.72 76.288 192.72 74.622 199.5 72.5C199.83 72.5 200.17 72.5 200.5 72.5C215.15 71.649 229.82 71.315 244.5 71.5Z" fill="#E7E7E7"/>
<path fill-rule="evenodd" clip-rule="evenodd" d="M295.5 67.5C295.59 70.152 294.92 72.485 293.5 74.5C293.41 71.848 294.08 69.515 295.5 67.5Z" fill="#5E5E5E"/>
<path fill-rule="evenodd" clip-rule="evenodd" d="M255.5 72.5C262.25 72.453 268.58 73.786 274.5 76.5C272.44 76.483 270.44 76.15 268.5 75.5C264.01 74.66 259.68 73.66 255.5 72.5Z" fill="#6E6E6E"/>
<path fill-rule="evenodd" clip-rule="evenodd" d="M102.5 71.5C101.55 73.777 100.22 75.777 98.5 77.5C98.62 74.708 99.96 72.708 102.5 71.5Z" fill="#676767"/>
<path fill-rule="evenodd" clip-rule="evenodd" d="M199.5 72.5C192.72 74.622 185.72 76.288 178.5 77.5C177.5 77.5 176.5 77.5 175.5 77.5C175.61 76.883 175.94 76.383 176.5 76C184.02 73.855 191.68 72.688 199.5 72.5Z" fill="#ADADAD"/>
<path fill-rule="evenodd" clip-rule="evenodd" d="M268.5 75.5C270.44 76.15 272.44 76.483 274.5 76.5C275.49 76.328 276.16 76.662 276.5 77.5C273.68 77.248 271.01 77.748 268.5 79C269.86 79.934 271.19 80.768 272.5 81.5C271.17 81.5 269.83 81.5 268.5 81.5C259.9 79.841 251.23 78.508 242.5 77.5C242.5 77.167 242.5 76.833 242.5 76.5C249.04 76.709 255.54 77.375 262 78.5C263.83 78.333 265.67 78.167 267.5 78C269.62 77.658 269.95 76.825 268.5 75.5Z" fill="#B0B0B0"/>
<path fill-rule="evenodd" clip-rule="evenodd" d="M242.5 76.5C242.5 76.833 242.5 77.167 242.5 77.5C222.24 76.646 202.24 77.979 182.5 81.5C184.63 80.686 186.96 80.186 189.5 80C190.06 79.617 190.39 79.117 190.5 78.5C207.77 76.724 225.1 76.057 242.5 76.5Z" fill="#454545"/>
<path fill-rule="evenodd" clip-rule="evenodd" d="M120.5 58.5C117.43 61.564 114.76 64.897 112.5 68.5C110.47 69.539 109.14 71.205 108.5 73.5C104.5 80.51 100.5 87.51 96.5003 94.5C94.1703 98.42 92.8403 102.754 92.5003 107.5C90.9303 109.102 90.2603 111.102 90.5003 113.5C87.4603 130.052 86.7903 146.719 88.5003 163.5C86.4803 160.942 85.3103 157.942 85.0003 154.5C84.5003 160.491 84.3303 166.491 84.5003 172.5C83.8303 172.5 83.5003 172.167 83.5003 171.5C83.8403 166.878 83.1803 162.545 81.5003 158.5C79.5703 135.999 82.5703 114.333 90.5003 93.5C93.5303 90.098 95.5303 86.098 96.5003 81.5C96.6603 79.847 97.3303 78.514 98.5003 77.5C100.22 75.777 101.55 73.777 102.5 71.5C103.03 69.77 104.03 68.436 105.5 67.5C108.97 65.363 111.31 62.363 112.5 58.5C113.27 57.306 114.27 56.306 115.5 55.5C116.87 55.657 118.21 55.49 119.5 55C121.96 53.079 123.96 50.746 125.5 48C127.13 47.415 128.63 46.581 130 45.5C130.5 45.8333 131 46.167 131.5 46.5C127.42 50.24 123.75 54.24 120.5 58.5Z" fill="#DADADA"/>
<path fill-rule="evenodd" clip-rule="evenodd" d="M175.5 77.5C176.5 77.5 177.5 77.5 178.5 77.5C177.6 78.158 176.6 78.824 175.5 79.5C176.5 79.833 177.5 80.167 178.5 80.5C182.49 79.702 186.49 79.035 190.5 78.5C190.39 79.117 190.06 79.617 189.5 80C186.96 80.186 184.63 80.686 182.5 81.5C181.43 82.434 180.1 82.768 178.5 82.5C174.68 82.605 171.01 83.438 167.5 85C165.68 85.66 164.34 86.827 163.5 88.5C162.42 88.461 161.42 88.127 160.5 87.5C158.93 81.941 157.93 76.274 157.5 70.5C159.1 75.689 160.6 81.023 162 86.5C163.92 85.458 165.75 84.292 167.5 83C166.06 82.781 164.73 82.281 163.5 81.5C162.01 75.914 160.84 70.247 160 64.5C159.09 65.654 158.25 65.487 157.5 64C158.83 63.333 159.83 62.333 160.5 61C158.65 59.872 156.65 59.372 154.5 59.5C157.32 56.546 159.82 56.879 162 60.5C162.76 64.819 163.43 69.152 164 73.5C164.23 75.78 165.07 77.78 166.5 79.5C169.33 78.067 172.33 77.4 175.5 77.5Z" fill="#CACACA"/>
<path fill-rule="evenodd" clip-rule="evenodd" d="M268.5 81.5C269.83 81.5 271.17 81.5 272.5 81.5C273.5 82.167 274.5 82.833 275.5 83.5C272.85 83.59 270.51 82.924 268.5 81.5Z" fill="#616161"/>
<path fill-rule="evenodd" clip-rule="evenodd" d="M275.5 83.5C278.92 83.528 281.92 84.528 284.5 86.5C281.22 86.072 278.22 85.072 275.5 83.5Z" fill="#676767"/>
<path fill-rule="evenodd" clip-rule="evenodd" d="M178.5 82.5C173.68 84.745 168.68 86.745 163.5 88.5C164.34 86.827 165.68 85.66 167.5 85C171.01 83.438 174.68 82.605 178.5 82.5Z" fill="#696969"/>
<path fill-rule="evenodd" clip-rule="evenodd" d="M284.5 86.5C286.62 86.325 288.62 86.659 290.5 87.5C290.22 88.289 289.72 88.956 289 89.5C287.35 88.601 285.85 87.601 284.5 86.5Z" fill="#7C7C7C"/>
<path fill-rule="evenodd" clip-rule="evenodd" d="M96.5 81.5C95.53 86.098 93.53 90.098 90.5 93.5C91.55 88.995 93.55 84.995 96.5 81.5Z" fill="#8D8D8D"/>
<path fill-rule="evenodd" clip-rule="evenodd" d="M134.5 91.5C133.06 92.363 131.73 92.363 130.5 91.5C129.71 92.77 128.71 93.77 127.5 94.5C128.2 91.446 129.7 88.78 132 86.5C133.37 87.91 134.21 89.577 134.5 91.5Z" fill="#B6B6B6"/>
<path fill-rule="evenodd" clip-rule="evenodd" d="M318.5 92.5C317.85 92.196 317.18 91.863 316.5 91.5C315.1 93.57 313.43 95.237 311.5 96.5C312.52 94.154 313.52 91.821 314.5 89.5C316.97 89.088 318.31 90.088 318.5 92.5Z" fill="#B2B2B2"/>
<path fill-rule="evenodd" clip-rule="evenodd" d="M347.5 85.5C350.7 90.271 352.7 95.604 353.5 101.5C351.2 96.324 349.2 90.991 347.5 85.5Z" fill="#ABABAB"/>
<path fill-rule="evenodd" clip-rule="evenodd" d="M134.5 91.5C136.88 95.717 139.88 99.551 143.5 103C145.06 103.21 146.39 103.71 147.5 104.5C149.03 106.245 151.03 107.245 153.5 107.5C155.81 107.993 158.14 108.326 160.5 108.5C163.55 110.101 166.88 111.101 170.5 111.5C171.5 111.5 172.5 111.5 173.5 111.5C175.51 112.924 177.85 113.59 180.5 113.5C181.83 113.5 183.17 113.5 184.5 113.5C190.25 115.15 196.25 115.816 202.5 115.5C220.18 115.678 237.85 115.345 255.5 114.5C262.08 114.844 268.42 114.177 274.5 112.5C275.57 111.566 276.9 111.232 278.5 111.5C284.46 110.912 290.13 109.579 295.5 107.5C298.47 106.349 301.47 105.183 304.5 104C306.97 101.521 309.3 99.021 311.5 96.5C313.43 95.237 315.1 93.57 316.5 91.5C317.18 91.863 317.85 92.196 318.5 92.5C318.34 94.199 318.51 95.866 319 97.5C320.96 100.655 322.63 103.988 324 107.5C324.69 115.794 326.19 123.794 328.5 131.5C329.45 132.919 329.78 134.585 329.5 136.5C329.67 149.837 329.5 163.171 329 176.5C328.01 179.424 327.35 182.424 327 185.5C324.27 186.362 324.1 187.195 326.5 188C326.27 188.399 325.94 188.565 325.5 188.5C319.41 187.414 313.74 185.247 308.5 182C309.71 180.961 310.71 179.794 311.5 178.5C314.22 176.115 317.22 174.115 320.5 172.5C322.56 171.407 323.56 169.574 323.5 167C323.59 164.179 322.93 161.679 321.5 159.5C319.9 157.152 318.9 154.486 318.5 151.5C316.37 150.371 314.04 150.204 311.5 151C305.97 152.214 300.63 153.714 295.5 155.5C287.29 157.154 278.95 158.154 270.5 158.5C263.17 159.022 255.84 159.522 248.5 160C247.58 160.278 246.92 160.778 246.5 161.5C244.5 161.5 242.5 161.5 240.5 161.5C225.83 161.667 211.16 161.5 196.5 161C184.19 159.281 171.85 157.781 159.5 156.5C152.23 155.896 145.23 154.562 138.5 152.5C136.49 151.076 134.15 150.41 131.5 150.5C130.08 149.549 128.41 149.216 126.5 149.5C126.5 151.167 126.5 152.833 126.5 154.5C124.97 157.695 124.3 161.195 124.5 165C124.5 167.69 124.84 170.19 125.5 172.5C130.31 176.24 135.65 178.906 141.5 180.5C135.31 183.029 128.81 185.362 122 187.5C121.05 187.095 120.39 186.428 120 185.5C117.26 166.57 116.76 147.57 118.5 128.5C118.12 122.555 119.12 116.888 121.5 111.5C122.92 109.485 123.59 107.152 123.5 104.5C125.45 101.62 126.78 98.286 127.5 94.5C128.71 93.77 129.71 92.77 130.5 91.5C131.73 92.363 133.06 92.363 134.5 91.5Z" fill="#FCFCFC"/>
<path fill-rule="evenodd" clip-rule="evenodd" d="M40.5 88.5C37.16 93.841 33.83 99.175 30.5 104.5C31.8 97.908 35.13 92.575 40.5 88.5Z" fill="#A9A9A9"/>
<path fill-rule="evenodd" clip-rule="evenodd" d="M96.5 94.5C95.94 99.176 94.61 103.509 92.5 107.5C92.84 102.754 94.17 98.42 96.5 94.5Z" fill="#7F7F7F"/>
<path fill-rule="evenodd" clip-rule="evenodd" d="M127.5 94.5C126.78 98.286 125.45 101.62 123.5 104.5C123.77 100.642 125.1 97.309 127.5 94.5Z" fill="#9A9A9A"/>
<path fill-rule="evenodd" clip-rule="evenodd" d="M147.5 104.5C149.97 104.755 151.97 105.755 153.5 107.5C151.03 107.245 149.03 106.245 147.5 104.5Z" fill="#9B9B9B"/>
<path fill-rule="evenodd" clip-rule="evenodd" d="M123.5 104.5C123.59 107.152 122.92 109.485 121.5 111.5C121.41 108.848 122.08 106.515 123.5 104.5Z" fill="#929292"/>
<path fill-rule="evenodd" clip-rule="evenodd" d="M160.5 108.5C164.21 108.59 167.55 109.59 170.5 111.5C166.88 111.101 163.55 110.101 160.5 108.5Z" fill="#626262"/>
<path fill-rule="evenodd" clip-rule="evenodd" d="M295.5 107.5C290.13 109.579 284.46 110.912 278.5 111.5C278.92 110.778 279.58 110.278 280.5 110C285.49 109.003 290.49 108.169 295.5 107.5Z" fill="#606060"/>
<path fill-rule="evenodd" clip-rule="evenodd" d="M92.5001 107.5C92.7401 109.898 92.0701 111.898 90.5001 113.5C90.2601 111.102 90.9301 109.102 92.5001 107.5Z" fill="#787878"/>
<path fill-rule="evenodd" clip-rule="evenodd" d="M173.5 111.5C176.15 111.41 178.49 112.076 180.5 113.5C177.85 113.59 175.51 112.924 173.5 111.5Z" fill="#929292"/>
<path fill-rule="evenodd" clip-rule="evenodd" d="M28.5 106.5C25.33 113.38 22 120.047 18.5 126.5C19 124.518 19.5 122.518 20 120.5C22.09 115.303 24.93 110.636 28.5 106.5Z" fill="#ADADAD"/>
<path fill-rule="evenodd" clip-rule="evenodd" d="M184.5 113.5C190.7 113.652 196.7 114.318 202.5 115.5C196.25 115.816 190.25 115.15 184.5 113.5Z" fill="#727272"/>
<path fill-rule="evenodd" clip-rule="evenodd" d="M274.5 112.5C268.42 114.177 262.08 114.844 255.5 114.5C261.64 113.364 267.97 112.697 274.5 112.5Z" fill="#9D9D9D"/>
<path fill-rule="evenodd" clip-rule="evenodd" d="M318.5 92.5C324.08 101.963 327.41 112.296 328.5 123.5C328.5 126.167 328.5 128.833 328.5 131.5C326.19 123.794 324.69 115.794 324 107.5C322.63 103.988 320.96 100.655 319 97.5C318.51 95.866 318.34 94.199 318.5 92.5Z" fill="#BEBEBE"/>
<path fill-rule="evenodd" clip-rule="evenodd" d="M328.5 123.5C330.18 127.545 330.84 131.878 330.5 136.5C330.17 136.5 329.83 136.5 329.5 136.5C329.78 134.585 329.45 132.919 328.5 131.5C328.5 128.833 328.5 126.167 328.5 123.5Z" fill="#646464"/>
<path fill-rule="evenodd" clip-rule="evenodd" d="M14.5 136.5C14.25 139.854 13.25 142.854 11.5 145.5C11.53 142.084 12.53 139.084 14.5 136.5Z" fill="#868686"/>
<path fill-rule="evenodd" clip-rule="evenodd" d="M358.5 127.5C359.22 127.918 359.72 128.584 360 129.5C360.82 136.014 360.65 142.347 359.5 148.5C359.67 141.465 359.34 134.465 358.5 127.5Z" fill="#525252"/>
<path fill-rule="evenodd" clip-rule="evenodd" d="M11.5 145.5C11.43 148.428 10.77 151.095 9.5 153.5C9.5 152.833 9.5 152.167 9.5 151.5C9.59 149.214 10.26 147.214 11.5 145.5Z" fill="#575757"/>
<path fill-rule="evenodd" clip-rule="evenodd" d="M131.5 150.5C134.15 150.41 136.49 151.076 138.5 152.5C135.85 152.59 133.51 151.924 131.5 150.5Z" fill="#A3A3A3"/>
<path fill-rule="evenodd" clip-rule="evenodd" d="M318.5 151.5C310.97 153.677 303.31 155.011 295.5 155.5C300.63 153.714 305.97 152.214 311.5 151C314.04 150.204 316.37 150.371 318.5 151.5Z" fill="#545454"/>
<path fill-rule="evenodd" clip-rule="evenodd" d="M131.5 150.5C133.51 151.924 135.85 152.59 138.5 152.5C145.23 154.562 152.23 155.896 159.5 156.5C173.54 159.67 187.87 161.67 202.5 162.5C215.66 163.66 228.99 163.827 242.5 163C248.08 162.85 253.41 162.017 258.5 160.5C262.79 160.802 266.79 160.136 270.5 158.5C278.95 158.154 287.29 157.154 295.5 155.5C303.31 155.011 310.97 153.677 318.5 151.5C318.9 154.486 319.9 157.152 321.5 159.5C321.75 162.002 322.08 164.502 322.5 167C322.08 168.989 321.41 170.823 320.5 172.5C317.22 174.115 314.22 176.115 311.5 178.5C308.92 179.728 306.59 181.395 304.5 183.5C310.4 185.133 316.07 187.133 321.5 189.5C321.06 189.435 320.73 189.601 320.5 190C321.87 191.6 322.87 193.433 323.5 195.5C324.89 194.355 326.22 194.355 327.5 195.5C327.29 196.086 326.96 196.586 326.5 197C324.32 196.812 322.32 196.646 320.5 196.5C319.28 197.263 318.28 198.263 317.5 199.5C316.2 198.91 315.37 197.91 315 196.5C314.67 196.833 314.33 197.167 314 197.5C312 197.004 310.34 196.004 309 194.5C308 195.833 307 195.833 306 194.5C305.63 195.416 305.13 196.25 304.5 197C308.51 197.748 312.18 199.248 315.5 201.5C316.56 203.022 317.23 204.688 317.5 206.5C309.32 201.202 300.32 198.202 290.5 197.5C285.78 198.006 281.12 198.672 276.5 199.5C272.79 200.028 269.12 200.862 265.5 202C264.29 203.039 263.29 204.206 262.5 205.5C260.17 206.5 258.5 208.167 257.5 210.5C255.46 211.911 254.46 213.911 254.5 216.5C254.33 222.842 254.5 229.175 255 235.5C255.28 236.416 255.78 237.082 256.5 237.5C256.58 240.682 257.92 243.015 260.5 244.5C264.02 249.69 268.68 253.356 274.5 255.5C273.13 255.343 271.79 255.51 270.5 256C268.03 257.402 268.03 258.902 270.5 260.5C268.58 261.308 266.58 261.808 264.5 262C264.83 262.333 265.17 262.667 265.5 263C261.27 264.246 257.94 263.08 255.5 259.5C254.91 259.709 254.41 260.043 254 260.5C253 259.167 252 257.833 251 256.5C248.32 257.572 245.99 256.905 244 254.5C241.37 248.645 239.37 242.645 238 236.5C237.95 239.868 238.45 243.202 239.5 246.5C239.29 247.086 238.96 247.586 238.5 248C241.3 251.037 243.3 254.537 244.5 258.5C243.96 258.56 243.62 258.893 243.5 259.5C244.33 262.016 245.33 264.35 246.5 266.5C249.01 272.343 250.67 278.343 251.5 284.5C244.62 287.461 237.62 289.794 230.5 291.5C218.28 292.299 206.28 290.799 194.5 287C193.06 286.623 192.06 285.79 191.5 284.5C191.7 281.482 192.04 278.482 192.5 275.5C192.5 275.167 192.5 274.833 192.5 274.5C193.22 274.082 193.72 273.416 194 272.5C194.46 273.094 194.63 273.761 194.5 274.5C194.5 275.833 194.5 277.167 194.5 278.5C200.19 279.844 205.86 281.178 211.5 282.5C214.98 285.277 218.98 286.11 223.5 285C229.69 282.729 235.69 280.229 241.5 277.5C242.61 277.443 243.61 277.11 244.5 276.5C245.6 275.399 245.76 274.066 245 272.5C243.97 270.006 242.8 267.672 241.5 265.5C241.07 262.843 240.07 260.509 238.5 258.5C238.07 255.843 237.07 253.509 235.5 251.5C235.02 247.916 234.02 244.583 232.5 241.5C232.61 238.784 231.61 236.784 229.5 235.5C220.64 233.161 212.47 234.495 205 239.5C202.96 245.4 201.12 251.4 199.5 257.5C197.31 259.507 194.64 260.507 191.5 260.5C191.5 261.5 191.5 262.5 191.5 263.5C189.97 263.427 188.97 264.094 188.5 265.5C176.01 270.409 163.01 272.409 149.5 271.5C135.2 269.846 122.2 264.846 110.5 256.5C109.14 254.473 107.47 252.806 105.5 251.5C109.19 251.848 112.19 253.515 114.5 256.5C119.08 258.185 123.25 260.518 127 263.5C127.33 263.167 127.67 262.833 128 262.5C129.42 265.195 131.42 265.861 134 264.5C136.16 267.078 137.32 267.078 137.5 264.5C138.19 265.025 138.69 265.692 139 266.5C140.7 265.594 142.53 265.261 144.5 265.5C144.35 266.552 144.52 267.552 145 268.5C145.67 265.833 146.33 265.833 147 268.5C149.69 267.991 152.19 266.991 154.5 265.5C156.11 266.32 156.78 267.654 156.5 269.5C161.13 268.762 165.46 267.262 169.5 265C168.83 264.667 168.17 264.333 167.5 264C170.83 263 174.17 262 177.5 261C178.28 259.927 178.11 258.76 177 257.5C164.37 262.163 151.54 262.663 138.5 259C136.07 257.913 136.4 257.413 139.5 257.5C144.83 258.162 150.16 258.829 155.5 259.5C158.87 259.355 162.2 259.022 165.5 258.5C168.15 258.59 170.49 257.924 172.5 256.5C177.83 254.841 182.49 252.174 186.5 248.5C190.81 243.214 193.48 237.214 194.5 230.5C195.65 226.354 195.81 222.02 195 217.5C194.72 216.584 194.22 215.918 193.5 215.5C192.32 212.139 190.48 209.139 188 206.5C186.19 205.023 184.35 203.69 182.5 202.5C178.82 200.77 174.82 199.77 170.5 199.5C169.17 199.5 167.83 199.5 166.5 199.5C159.68 198.345 152.68 198.179 145.5 199C142.14 199.505 139.14 200.672 136.5 202.5C133.8 202.845 131.8 204.178 130.5 206.5C128.09 207.911 126.42 209.911 125.5 212.5C125.27 214.062 124.6 215.395 123.5 216.5C121.31 220.092 120.31 224.092 120.5 228.5C120.77 232.86 121.27 237.193 122 241.5C122.85 242.571 123.69 243.571 124.5 244.5C126.8 246.978 128.97 249.645 131 252.5C131.67 253.252 132.5 253.586 133.5 253.5C133.83 254.167 134.17 254.833 134.5 255.5C129.94 257.199 127.94 255.533 128.5 250.5C125.51 249.702 122.84 248.202 120.5 246C120.96 245.586 121.29 245.086 121.5 244.5C120.06 243.071 119.06 241.405 118.5 239.5C119.05 236.096 119.05 232.596 118.5 229C118.07 220.842 120.41 213.675 125.5 207.5C128.04 204.789 130.71 202.289 133.5 200C131.42 199.808 129.42 199.308 127.5 198.5C130.39 196.417 133.39 194.917 136.5 194C134.7 192.512 132.7 191.846 130.5 192C131.33 192.915 132.33 193.581 133.5 194C131.71 194.52 130.04 194.187 128.5 193C130.17 191.494 131.17 189.661 131.5 187.5C130.17 187.5 128.83 187.5 127.5 187.5C133.05 184.656 139.05 182.989 145.5 182.5C144.23 181.638 142.9 180.971 141.5 180.5C135.65 178.906 130.31 176.24 125.5 172.5C125.36 166.464 125.69 160.464 126.5 154.5C126.5 152.833 126.5 151.167 126.5 149.5C128.41 149.216 130.08 149.549 131.5 150.5Z" fill="#0D0D0D"/>
<path fill-rule="evenodd" clip-rule="evenodd" d="M159.5 156.5C171.85 157.781 184.19 159.281 196.5 161C211.16 161.5 225.83 161.667 240.5 161.5C228.01 162.495 215.34 162.829 202.5 162.5C187.87 161.67 173.54 159.67 159.5 156.5Z" fill="#B6B6B6"/>
<path fill-rule="evenodd" clip-rule="evenodd" d="M270.5 158.5C266.79 160.136 262.79 160.802 258.5 160.5C254.47 160.505 250.47 160.838 246.5 161.5C246.92 160.778 247.58 160.278 248.5 160C255.84 159.522 263.17 159.022 270.5 158.5Z" fill="#C6C6C6"/>
<path fill-rule="evenodd" clip-rule="evenodd" d="M258.5 160.5C253.41 162.017 248.08 162.85 242.5 163C228.99 163.827 215.66 163.66 202.5 162.5C215.34 162.829 228.01 162.495 240.5 161.5C242.5 161.5 244.5 161.5 246.5 161.5C250.47 160.838 254.47 160.505 258.5 160.5Z" fill="#5F5F5F"/>
<path fill-rule="evenodd" clip-rule="evenodd" d="M126.5 154.5C125.69 160.464 125.36 166.464 125.5 172.5C124.84 170.19 124.5 167.69 124.5 165C124.3 161.195 124.97 157.695 126.5 154.5Z" fill="#555555"/>
<path fill-rule="evenodd" clip-rule="evenodd" d="M321.5 159.5C322.93 161.679 323.59 164.179 323.5 167C323.56 169.574 322.56 171.407 320.5 172.5C321.41 170.823 322.08 168.989 322.5 167C322.08 164.502 321.75 162.002 321.5 159.5Z" fill="#A2A2A2"/>
<path fill-rule="evenodd" clip-rule="evenodd" d="M9.5 151.5C9.5 152.167 9.5 152.833 9.5 153.5C8.13 157.655 6.96 161.988 6 166.5C5.62 167.056 5.12 167.389 4.5 167.5C5.83 163.695 6.67 159.695 7 155.5C7.2 153.68 8.03 152.347 9.5 151.5Z" fill="#A8A8A8"/>
<path fill-rule="evenodd" clip-rule="evenodd" d="M81.5 158.5C83.18 162.545 83.84 166.878 83.5 171.5C82.44 167.361 81.77 163.028 81.5 158.5Z" fill="#6B6B6B"/>
<path fill-rule="evenodd" clip-rule="evenodd" d="M438.5 161.5C439.92 163.515 440.59 165.848 440.5 168.5C439.08 166.485 438.41 164.152 438.5 161.5Z" fill="#565656"/>
<path fill-rule="evenodd" clip-rule="evenodd" d="M88.5002 164.5C90.0402 170.28 91.0402 176.28 91.5002 182.5C89.2402 176.835 88.2402 170.835 88.5002 164.5Z" fill="#959595"/>
<path fill-rule="evenodd" clip-rule="evenodd" d="M359.5 161.5C359.56 167.804 358.56 173.804 356.5 179.5C356.5 173.209 357.5 167.209 359.5 161.5Z" fill="#999999"/>
<path fill-rule="evenodd" clip-rule="evenodd" d="M4.49994 173.5C2.41994 183.541 1.08994 193.541 0.499942 203.5C0.329942 197.491 0.499942 191.491 0.999942 185.5C1.63994 181.207 2.80994 177.207 4.49994 173.5Z" fill="#7D7D7D"/>
<path fill-rule="evenodd" clip-rule="evenodd" d="M329.5 136.5C329.83 136.5 330.17 136.5 330.5 136.5C332.02 154.905 331.35 173.238 328.5 191.5C327.89 191.376 327.56 191.043 327.5 190.5C326.83 189.833 326.17 189.167 325.5 188.5C325.94 188.565 326.27 188.399 326.5 188C324.1 187.195 324.27 186.362 327 185.5C327.35 182.424 328.01 179.424 329 176.5C329.5 163.171 329.67 149.837 329.5 136.5Z" fill="#B7B7B7"/>
<path fill-rule="evenodd" clip-rule="evenodd" d="M311.5 178.5C310.71 179.794 309.71 180.961 308.5 182C313.74 185.247 319.41 187.414 325.5 188.5C326.17 189.167 326.83 189.833 327.5 190.5C325.44 190.483 323.44 190.15 321.5 189.5C316.07 187.133 310.4 185.133 304.5 183.5C306.59 181.395 308.92 179.728 311.5 178.5Z" fill="#8E8E8E"/>
<path fill-rule="evenodd" clip-rule="evenodd" d="M118.5 128.5C116.76 147.57 117.26 166.57 120 185.5C120.39 186.428 121.05 187.095 122 187.5C128.81 185.362 135.31 183.029 141.5 180.5C142.9 180.971 144.23 181.638 145.5 182.5C139.05 182.989 133.05 184.656 127.5 187.5C124.89 188.545 122.22 189.045 119.5 189C118.42 185.595 117.58 182.095 117 178.5C116.37 170.008 115.87 161.508 115.5 153C115.45 144.562 116.45 136.395 118.5 128.5Z" fill="#999999"/>
<path fill-rule="evenodd" clip-rule="evenodd" d="M86.5001 188.5C88.5601 193.072 88.8901 197.738 87.5001 202.5C86.7701 197.87 86.4401 193.203 86.5001 188.5Z" fill="#9C9C9C"/>
<path fill-rule="evenodd" clip-rule="evenodd" d="M355.5 184.5C356.09 188.971 355.42 192.971 353.5 196.5C353.96 192.336 354.62 188.336 355.5 184.5Z" fill="#9D9D9D"/>
<path fill-rule="evenodd" clip-rule="evenodd" d="M166.5 199.5C156.34 199.093 146.34 200.093 136.5 202.5C139.14 200.672 142.14 199.505 145.5 199C152.68 198.179 159.68 198.345 166.5 199.5Z" fill="#A2A2A2"/>
<path fill-rule="evenodd" clip-rule="evenodd" d="M166.5 199.5C167.83 199.5 169.17 199.5 170.5 199.5C174.18 201.23 178.18 202.23 182.5 202.5C184.35 203.69 186.19 205.023 188 206.5C190.48 209.139 192.32 212.139 193.5 215.5C194.25 220.463 194.59 225.463 194.5 230.5C193.48 237.214 190.81 243.214 186.5 248.5C171.74 256.05 156.07 258.716 139.5 256.5C138.32 254.087 136.32 253.087 133.5 253.5C132.5 253.586 131.67 253.252 131 252.5C128.97 249.645 126.8 246.978 124.5 244.5C122.21 235.287 121.88 225.954 123.5 216.5C124.6 215.395 125.27 214.062 125.5 212.5C127.91 211.089 129.58 209.089 130.5 206.5C132.85 205.66 134.85 204.326 136.5 202.5C146.34 200.093 156.34 199.093 166.5 199.5Z" fill="#FBFBFB"/>
<path fill-rule="evenodd" clip-rule="evenodd" d="M317.5 206.5C320.36 210.653 322.69 214.986 324.5 219.5C324.9 222.483 325.23 225.483 325.5 228.5C324.62 233.14 323.95 237.806 323.5 242.5C322.25 245.09 320.58 247.424 318.5 249.5C315.14 251.866 311.81 254.199 308.5 256.5C300.53 257.365 292.53 257.698 284.5 257.5C281.24 256.518 277.9 255.851 274.5 255.5C268.68 253.356 264.02 249.69 260.5 244.5C259.4 241.968 258.07 239.635 256.5 237.5C255.78 237.082 255.28 236.416 255 235.5C254.5 229.175 254.33 222.842 254.5 216.5C256.25 214.967 257.25 212.967 257.5 210.5C258.5 208.167 260.17 206.5 262.5 205.5C267.34 203.673 272 201.673 276.5 199.5C281.12 198.672 285.78 198.006 290.5 197.5C300.32 198.202 309.32 201.202 317.5 206.5Z" fill="#F9F9F9"/>
<path fill-rule="evenodd" clip-rule="evenodd" d="M359.5 202.5C360.95 205.264 363.28 206.931 366.5 207.5C370.02 213.417 373.36 219.417 376.5 225.5C378.04 230.065 378.71 234.898 378.5 240C378.67 245.325 378 250.492 376.5 255.5C373.2 260.752 369.87 266.085 366.5 271.5C364.45 272.882 362.78 274.548 361.5 276.5C355.65 279.326 349.98 282.326 344.5 285.5C344.17 285.5 343.83 285.5 343.5 285.5C341.4 285.201 339.4 285.534 337.5 286.5C335.89 291.02 335.22 295.687 335.5 300.5C335.5 302.167 335.5 303.833 335.5 305.5C334.13 307.936 333.13 310.603 332.5 313.5C330.2 319.452 327.53 325.119 324.5 330.5C322.18 331.802 320.84 333.802 320.5 336.5C316.19 341.141 311.86 345.807 307.5 350.5C295.02 360.669 281.36 368.669 266.5 374.5C260.76 375.582 255.09 376.915 249.5 378.5C246.27 378.676 243.27 379.343 240.5 380.5C219.04 382.74 198.04 380.74 177.5 374.5C174.74 372.796 171.74 371.463 168.5 370.5C143.79 360.125 126.46 342.459 116.5 317.5C116.02 314.557 115.02 311.89 113.5 309.5C113.74 307.102 113.07 305.102 111.5 303.5C111.5 301.833 111.5 300.167 111.5 298.5C110.24 284.261 108.58 270.094 106.5 256C107.82 255.805 109.15 255.972 110.5 256.5C122.2 264.846 135.2 269.846 149.5 271.5C159.78 273.018 170.11 272.518 180.5 270C183.41 268.768 186.08 267.268 188.5 265.5C188.97 264.094 189.97 263.427 191.5 263.5C192.72 262.972 193.89 262.305 195 261.5C195.17 262.167 195.33 262.833 195.5 263.5C194.19 267.112 193.19 270.779 192.5 274.5C192.5 274.833 192.5 275.167 192.5 275.5C190.52 278.373 190.19 281.373 191.5 284.5C192.06 285.79 193.06 286.623 194.5 287C206.28 290.799 218.28 292.299 230.5 291.5C236.92 290.966 243.25 289.799 249.5 288C250.82 287.184 251.49 286.017 251.5 284.5C250.67 278.343 249.01 272.343 246.5 266.5C246.28 265.325 246.61 264.325 247.5 263.5C253.18 266.615 259.18 268.948 265.5 270.5C272.93 271.987 280.43 272.987 288 273.5C296.9 272.534 305.73 271.2 314.5 269.5C318.43 268.868 321.76 267.201 324.5 264.5C328.98 263.429 332.64 261.096 335.5 257.5C336.17 257.5 336.83 257.5 337.5 257.5C338.49 264.313 338.82 271.313 338.5 278.5C368.36 267.405 376.02 247.405 361.5 218.5C360.31 217.571 358.98 217.238 357.5 217.5C357.66 220.518 357.5 223.518 357 226.5C355.25 228.49 354.25 230.823 354 233.5C353.56 222.485 353.89 211.485 355 200.5C355.41 200.043 355.91 199.709 356.5 199.5C357.29 200.77 358.29 201.77 359.5 202.5Z" fill="#FBFBFB"/>
<path fill-rule="evenodd" clip-rule="evenodd" d="M170.5 199.5C174.82 199.77 178.82 200.77 182.5 202.5C178.18 202.23 174.18 201.23 170.5 199.5Z" fill="#A3A3A3"/>
<path fill-rule="evenodd" clip-rule="evenodd" d="M276.5 199.5C272 201.673 267.34 203.673 262.5 205.5C263.29 204.206 264.29 203.039 265.5 202C269.12 200.862 272.79 200.028 276.5 199.5Z" fill="#B0B0B0"/>
<path fill-rule="evenodd" clip-rule="evenodd" d="M136.5 202.5C134.85 204.326 132.85 205.66 130.5 206.5C131.8 204.178 133.8 202.845 136.5 202.5Z" fill="#929292"/>
<path fill-rule="evenodd" clip-rule="evenodd" d="M86.5 202.5C85.09 204.914 83.09 206.581 80.5 207.5C81.91 205.086 83.91 203.419 86.5 202.5Z" fill="#8C8C8C"/>
<path fill-rule="evenodd" clip-rule="evenodd" d="M366.5 207.5C371.91 212.326 375.25 218.326 376.5 225.5C373.36 219.417 370.02 213.417 366.5 207.5Z" fill="#9D9D9D"/>
<path fill-rule="evenodd" clip-rule="evenodd" d="M130.5 206.5C129.58 209.089 127.91 211.089 125.5 212.5C126.42 209.911 128.09 207.911 130.5 206.5Z" fill="#8B8B8B"/>
<path fill-rule="evenodd" clip-rule="evenodd" d="M286.5 208.5C298.31 206.813 303.81 211.813 303 223.5C300.73 230.049 296.23 232.549 289.5 231C283.25 227.277 281.08 221.777 283 214.5C283.99 212.359 285.15 210.359 286.5 208.5Z" fill="#1A1A1A"/>
<path fill-rule="evenodd" clip-rule="evenodd" d="M151.5 210.5C149.44 212.492 148.1 214.825 147.5 217.5C146.68 213.778 148.01 211.445 151.5 210.5Z" fill="#9D9D9D"/>
<path fill-rule="evenodd" clip-rule="evenodd" d="M147.5 217.5C148.1 214.825 149.44 212.492 151.5 210.5C159.07 206.363 164.57 208.363 168 216.5C169.31 226.853 164.81 231.686 154.5 231C149.43 227.99 147.1 223.49 147.5 217.5Z" fill="#1D1D1D"/>
<path fill-rule="evenodd" clip-rule="evenodd" d="M155.5 212.5C161.86 213.518 164.86 217.185 164.5 223.5C164.5 223.833 164.5 224.167 164.5 224.5C162.11 224.855 159.78 225.522 157.5 226.5C155.79 226.272 154.13 225.938 152.5 225.5C151.36 222.024 151.19 218.358 152 214.5C152.82 213.177 153.98 212.511 155.5 212.5Z" fill="#F5F5F5"/>
<path fill-rule="evenodd" clip-rule="evenodd" d="M155.5 212.5C162.17 209.971 165.51 212.471 165.5 220C165.49 221.385 165.15 222.551 164.5 223.5C164.86 217.185 161.86 213.518 155.5 212.5Z" fill="#CACACA"/>
<path fill-rule="evenodd" clip-rule="evenodd" d="M80.5 207.5C79.47 210.891 77.47 213.557 74.5 215.5C76.02 212.467 78.02 209.8 80.5 207.5Z" fill="#8E8E8E"/>
<path fill-rule="evenodd" clip-rule="evenodd" d="M288.5 211.5C297.66 210.491 301.49 214.491 300 223.5C295.83 229.759 291.17 230.092 286 224.5C284.84 219.693 285.68 215.36 288.5 211.5Z" fill="#EAEAEA"/>
<path fill-rule="evenodd" clip-rule="evenodd" d="M257.5 210.5C257.25 212.967 256.25 214.967 254.5 216.5C254.46 213.911 255.46 211.911 257.5 210.5Z" fill="#898989"/>
<path fill-rule="evenodd" clip-rule="evenodd" d="M74.5001 215.5C74.7401 217.898 74.0701 219.898 72.5001 221.5C72.2601 219.102 72.9301 217.102 74.5001 215.5Z" fill="#A2A2A2"/>
<path fill-rule="evenodd" clip-rule="evenodd" d="M88.5002 163.5C88.5002 163.833 88.5002 164.167 88.5002 164.5C88.2402 170.835 89.2402 176.835 91.5002 182.5C93.9902 196.019 95.3302 209.685 95.5002 223.5C94.9402 230.679 96.2702 237.346 99.5002 243.5C101.5 246.167 103.5 248.833 105.5 251.5C107.47 252.806 109.14 254.473 110.5 256.5C109.15 255.972 107.82 255.805 106.5 256C108.58 270.094 110.24 284.261 111.5 298.5C110.22 294.898 109.22 291.231 108.5 287.5C106.9 285.926 104.9 285.259 102.5 285.5C96.9602 283.808 91.9602 281.141 87.5002 277.5C86.4202 275.413 84.7502 274.08 82.5002 273.5C70.2602 262.265 65.6002 248.265 68.5002 231.5C69.1202 231.389 69.6202 231.056 70.0002 230.5C70.5002 228.527 70.6602 226.527 70.5002 224.5C71.1702 223.5 71.8302 222.5 72.5002 221.5C74.0702 219.898 74.7402 217.898 74.5002 215.5C77.4702 213.557 79.4702 210.891 80.5002 207.5C83.0902 206.581 85.0902 204.914 86.5002 202.5C86.8302 202.5 87.1702 202.5 87.5002 202.5C88.8902 197.738 88.5602 193.072 86.5002 188.5C85.3402 183.367 84.6702 178.034 84.5002 172.5C84.3302 166.491 84.5002 160.491 85.0002 154.5C85.3102 157.942 86.4802 160.942 88.5002 163.5Z" fill="#F2F2F2"/>
<path fill-rule="evenodd" clip-rule="evenodd" d="M359.5 202.5C358.29 201.77 357.29 200.77 356.5 199.5C355.91 199.709 355.41 200.043 355 200.5C353.89 211.485 353.56 222.485 354 233.5C354.25 230.823 355.25 228.49 357 226.5C357.5 223.518 357.66 220.518 357.5 217.5C358.98 217.238 360.31 217.571 361.5 218.5C376.02 247.405 368.36 267.405 338.5 278.5C338.82 271.313 338.49 264.313 337.5 257.5C339.58 255.281 341.91 253.281 344.5 251.5C345.39 250.675 345.72 249.675 345.5 248.5C346.65 245.521 347.82 242.521 349 239.5C351.1 225.247 352.6 210.914 353.5 196.5C355.42 192.971 356.09 188.971 355.5 184.5C356.45 183.081 356.78 181.415 356.5 179.5C358.56 173.804 359.56 167.804 359.5 161.5C359.5 160.833 359.5 160.167 359.5 159.5C361.05 148.374 361.89 137.041 362 125.5C362.24 138.375 363.07 151.209 364.5 164C362.72 168.147 361.38 172.48 360.5 177C360.69 178.86 361.03 180.693 361.5 182.5C359.68 189.007 359.01 195.673 359.5 202.5Z" fill="#EDEDED"/>
<path fill-rule="evenodd" clip-rule="evenodd" d="M445.5 195.5C447.04 202.432 447.71 209.598 447.5 217C447.5 222.344 447.17 227.511 446.5 232.5C446.65 220.148 446.32 207.815 445.5 195.5Z" fill="#979797"/>
<path fill-rule="evenodd" clip-rule="evenodd" d="M193.5 215.5C194.22 215.918 194.72 216.584 195 217.5C195.81 222.02 195.65 226.354 194.5 230.5C194.59 225.463 194.25 220.463 193.5 215.5Z" fill="#828282"/>
<path fill-rule="evenodd" clip-rule="evenodd" d="M164.5 224.5C160.89 229.435 156.89 229.769 152.5 225.5C154.13 225.938 155.79 226.272 157.5 226.5C159.78 225.522 162.11 224.855 164.5 224.5Z" fill="#B4B4B4"/>
<path fill-rule="evenodd" clip-rule="evenodd" d="M324.5 219.5C326.02 222.526 326.69 225.859 326.5 229.5C326.87 234.266 325.87 238.599 323.5 242.5C323.95 237.806 324.62 233.14 325.5 228.5C325.23 225.483 324.9 222.483 324.5 219.5Z" fill="#A2A2A2"/>
<path fill-rule="evenodd" clip-rule="evenodd" d="M70.5002 224.5C70.6602 226.527 70.5002 228.527 70.0002 230.5C69.6202 231.056 69.1202 231.389 68.5002 231.5C68.4102 228.848 69.0802 226.515 70.5002 224.5Z" fill="#858585"/>
<path fill-rule="evenodd" clip-rule="evenodd" d="M123.5 216.5C121.88 225.954 122.21 235.287 124.5 244.5C123.69 243.571 122.85 242.571 122 241.5C121.27 237.193 120.77 232.86 120.5 228.5C120.31 224.092 121.31 220.092 123.5 216.5Z" fill="#B9B9B9"/>
<path fill-rule="evenodd" clip-rule="evenodd" d="M229.5 235.5C229.99 237.819 230.99 239.819 232.5 241.5C231.98 245.428 232.98 248.761 235.5 251.5C235.17 254.491 236.17 256.824 238.5 258.5C238.17 261.491 239.17 263.824 241.5 265.5C242.21 269.248 243.21 272.914 244.5 276.5C243.61 277.11 242.61 277.443 241.5 277.5C234.12 279.138 226.95 281.471 220 284.5C217.27 283.383 214.44 282.717 211.5 282.5C205.86 281.178 200.19 279.844 194.5 278.5C194.5 277.167 194.5 275.833 194.5 274.5C196.3 268.978 197.97 263.311 199.5 257.5C201.12 251.4 202.96 245.4 205 239.5C212.47 234.495 220.64 233.161 229.5 235.5Z" fill="#F9F9F9"/>
<path fill-rule="evenodd" clip-rule="evenodd" d="M95.4999 223.5C96.7299 230.07 98.0599 236.737 99.4999 243.5C96.2699 237.346 94.9399 230.679 95.4999 223.5Z" fill="#969696"/>
<path fill-rule="evenodd" clip-rule="evenodd" d="M256.5 237.5C258.07 239.635 259.4 241.968 260.5 244.5C257.92 243.015 256.58 240.682 256.5 237.5Z" fill="#909090"/>
<path fill-rule="evenodd" clip-rule="evenodd" d="M229.5 235.5C231.61 236.784 232.61 238.784 232.5 241.5C230.99 239.819 229.99 237.819 229.5 235.5Z" fill="#878787"/>
<path fill-rule="evenodd" clip-rule="evenodd" d="M232.5 241.5C234.02 244.583 235.02 247.916 235.5 251.5C232.98 248.761 231.98 245.428 232.5 241.5Z" fill="#AEAEAE"/>
<path fill-rule="evenodd" clip-rule="evenodd" d="M318.5 249.5C318.49 251.017 317.82 252.184 316.5 253C314.18 254.993 311.52 256.159 308.5 256.5C311.81 254.199 315.14 251.866 318.5 249.5Z" fill="#959595"/>
<path fill-rule="evenodd" clip-rule="evenodd" d="M133.5 253.5C136.32 253.087 138.32 254.087 139.5 256.5C137.88 255.962 136.22 255.629 134.5 255.5C134.17 254.833 133.83 254.167 133.5 253.5Z" fill="#A2A2A2"/>
<path fill-rule="evenodd" clip-rule="evenodd" d="M235.5 251.5C237.07 253.509 238.07 255.843 238.5 258.5C236.17 256.824 235.17 254.491 235.5 251.5Z" fill="#9F9F9F"/>
<path fill-rule="evenodd" clip-rule="evenodd" d="M345.5 248.5C345.72 249.675 345.39 250.675 344.5 251.5C341.91 253.281 339.58 255.281 337.5 257.5C336.83 257.5 336.17 257.5 335.5 257.5C338.79 254.51 342.13 251.51 345.5 248.5Z" fill="#AEAEAE"/>
<path fill-rule="evenodd" clip-rule="evenodd" d="M186.5 248.5C182.49 252.174 177.83 254.841 172.5 256.5C169.85 256.41 167.51 257.076 165.5 258.5C162.2 259.022 158.87 259.355 155.5 259.5C150.16 258.829 144.83 258.162 139.5 257.5C139.5 257.167 139.5 256.833 139.5 256.5C156.07 258.716 171.74 256.05 186.5 248.5Z" fill="#BDBDBD"/>
<path fill-rule="evenodd" clip-rule="evenodd" d="M172.5 256.5C170.49 257.924 168.15 258.59 165.5 258.5C167.51 257.076 169.85 256.41 172.5 256.5Z" fill="#606060"/>
<path fill-rule="evenodd" clip-rule="evenodd" d="M308.5 256.5C306.44 257.776 304.1 258.61 301.5 259C297.18 259.499 292.85 259.666 288.5 259.5C287.17 258.833 285.83 258.167 284.5 257.5C292.53 257.698 300.53 257.365 308.5 256.5Z" fill="#B8B8B8"/>
<path fill-rule="evenodd" clip-rule="evenodd" d="M274.5 255.5C277.9 255.851 281.24 256.518 284.5 257.5C285.83 258.167 287.17 258.833 288.5 259.5C283.46 259.15 278.79 257.816 274.5 255.5Z" fill="#606060"/>
<path fill-rule="evenodd" clip-rule="evenodd" d="M376.5 255.5C374.68 261.806 371.35 267.14 366.5 271.5C369.87 266.085 373.2 260.752 376.5 255.5Z" fill="#A8A8A8"/>
<path fill-rule="evenodd" clip-rule="evenodd" d="M335.5 257.5C332.64 261.096 328.98 263.429 324.5 264.5C327.99 261.92 331.66 259.587 335.5 257.5Z" fill="#929292"/>
<path fill-rule="evenodd" clip-rule="evenodd" d="M238.5 258.5C240.07 260.509 241.07 262.843 241.5 265.5C239.17 263.824 238.17 261.491 238.5 258.5Z" fill="#9E9E9E"/>
<path fill-rule="evenodd" clip-rule="evenodd" d="M2.50013 258.5C4.07013 260.102 4.74013 262.102 4.50013 264.5C2.93013 262.898 2.26013 260.898 2.50013 258.5Z" fill="#888888"/>
<path fill-rule="evenodd" clip-rule="evenodd" d="M244.5 258.5C247.79 261.484 251.46 263.984 255.5 266C259.26 266.852 262.6 268.352 265.5 270.5C259.18 268.948 253.18 266.615 247.5 263.5C246.61 264.325 246.28 265.325 246.5 266.5C245.33 264.35 244.33 262.016 243.5 259.5C243.62 258.893 243.96 258.56 244.5 258.5Z" fill="#9D9D9D"/>
<path fill-rule="evenodd" clip-rule="evenodd" d="M445.5 243.5C445.2 249.511 444.7 255.511 444 261.5C443.76 263.852 442.93 265.852 441.5 267.5C442.52 259.318 443.85 251.318 445.5 243.5Z" fill="#9B9B9B"/>
<path fill-rule="evenodd" clip-rule="evenodd" d="M199.5 257.5C197.97 263.311 196.3 268.978 194.5 274.5C194.63 273.761 194.46 273.094 194 272.5C193.72 273.416 193.22 274.082 192.5 274.5C193.19 270.779 194.19 267.112 195.5 263.5C195.33 262.833 195.17 262.167 195 261.5C193.89 262.305 192.72 262.972 191.5 263.5C191.5 262.5 191.5 261.5 191.5 260.5C194.64 260.507 197.31 259.507 199.5 257.5Z" fill="#404040"/>
<path fill-rule="evenodd" clip-rule="evenodd" d="M324.5 264.5C321.76 267.201 318.43 268.868 314.5 269.5C317.24 266.799 320.57 265.132 324.5 264.5Z" fill="#A6A6A6"/>
<path fill-rule="evenodd" clip-rule="evenodd" d="M241.5 265.5C242.8 267.672 243.97 270.006 245 272.5C245.76 274.066 245.6 275.399 244.5 276.5C243.21 272.914 242.21 269.248 241.5 265.5Z" fill="#979797"/>
<path fill-rule="evenodd" clip-rule="evenodd" d="M188.5 265.5C186.08 267.268 183.41 268.768 180.5 270C170.11 272.518 159.78 273.018 149.5 271.5C163.01 272.409 176.01 270.409 188.5 265.5Z" fill="#B6B6B6"/>
<path fill-rule="evenodd" clip-rule="evenodd" d="M82.5 273.5C84.75 274.08 86.42 275.413 87.5 277.5C85.25 276.92 83.58 275.587 82.5 273.5Z" fill="#9B9B9B"/>
<path fill-rule="evenodd" clip-rule="evenodd" d="M366.5 271.5C365.86 274.144 364.19 275.811 361.5 276.5C362.78 274.548 364.45 272.882 366.5 271.5Z" fill="#5B5B5B"/>
<path fill-rule="evenodd" clip-rule="evenodd" d="M361.5 276.5C356.82 281.186 351.15 284.186 344.5 285.5C349.98 282.326 355.65 279.326 361.5 276.5Z" fill="#858585"/>
<path fill-rule="evenodd" clip-rule="evenodd" d="M6.50018 276.5C7.92018 278.515 8.59018 280.848 8.50018 283.5C7.08018 281.485 6.41018 279.152 6.50018 276.5Z" fill="#999999"/>
<path fill-rule="evenodd" clip-rule="evenodd" d="M241.5 277.5C235.69 280.229 229.69 282.729 223.5 285C218.98 286.11 214.98 285.277 211.5 282.5C214.44 282.717 217.27 283.383 220 284.5C226.95 281.471 234.12 279.138 241.5 277.5Z" fill="#A4A4A4"/>
<path fill-rule="evenodd" clip-rule="evenodd" d="M192.5 275.5C192.04 278.482 191.7 281.482 191.5 284.5C190.19 281.373 190.52 278.373 192.5 275.5Z" fill="#656565"/>
<path fill-rule="evenodd" clip-rule="evenodd" d="M102.5 285.5C104.9 285.259 106.9 285.926 108.5 287.5C105.99 287.946 103.99 287.28 102.5 285.5Z" fill="#949494"/>
<path fill-rule="evenodd" clip-rule="evenodd" d="M8.5 284.5C10.31 287.145 11.31 290.145 11.5 293.5C9.53 290.916 8.53 287.916 8.5 284.5Z" fill="#A5A5A5"/>
<path fill-rule="evenodd" clip-rule="evenodd" d="M251.5 284.5C251.49 286.017 250.82 287.184 249.5 288C243.25 289.799 236.92 290.966 230.5 291.5C237.62 289.794 244.62 287.461 251.5 284.5Z" fill="#ACACAC"/>
<path fill-rule="evenodd" clip-rule="evenodd" d="M440.5 273.5C440.66 276.187 440.5 278.854 440 281.5C438.94 284.766 437.44 287.766 435.5 290.5C436.72 284.616 438.38 278.949 440.5 273.5Z" fill="#9F9F9F"/>
<path fill-rule="evenodd" clip-rule="evenodd" d="M343.5 285.5C342.08 286.451 340.41 286.784 338.5 286.5C337.87 290.804 337.37 295.137 337 299.5C336.62 300.056 336.12 300.389 335.5 300.5C335.22 295.687 335.89 291.02 337.5 286.5C339.4 285.534 341.4 285.201 343.5 285.5Z" fill="#C2C2C2"/>
<path fill-rule="evenodd" clip-rule="evenodd" d="M11.5002 293.5C12.9202 295.515 13.5902 297.848 13.5002 300.5C12.0802 298.485 11.4102 296.152 11.5002 293.5Z" fill="#A0A0A0"/>
<path fill-rule="evenodd" clip-rule="evenodd" d="M205.5 297.5C225.07 295.872 244.74 296.372 264.5 299C266.32 299.2 267.65 300.034 268.5 301.5C247.72 297.812 226.72 296.479 205.5 297.5Z" fill="#A4A4A4"/>
<path fill-rule="evenodd" clip-rule="evenodd" d="M205.5 297.5C226.72 296.479 247.72 297.812 268.5 301.5C268.83 301.5 269.17 301.5 269.5 301.5C273.5 303.651 277.83 304.984 282.5 305.5C284.91 307.502 287.24 309.502 289.5 311.5C290.04 315.498 291.71 318.832 294.5 321.5C294.77 323.451 294.11 324.951 292.5 326C289.18 326.932 286.18 326.432 283.5 324.5C283.32 322.409 283.65 320.409 284.5 318.5C284.14 317.478 283.48 316.811 282.5 316.5C281.57 315.685 280.57 314.852 279.5 314C275.6 312.618 271.6 311.452 267.5 310.5C264.66 309.331 261.66 308.331 258.5 307.5C253.38 307.569 248.38 306.902 243.5 305.5C242.74 304.732 241.74 304.232 240.5 304C220.28 302.419 200.28 303.753 180.5 308C178.68 308.2 177.35 309.034 176.5 310.5C173.35 310.737 170.35 311.57 167.5 313C166.06 313.377 165.06 314.21 164.5 315.5C163.15 319.027 161.15 322.193 158.5 325C155.83 327.125 153.49 326.958 151.5 324.5C154.5 318.5 157.5 312.5 160.5 306.5C162.22 306.371 163.88 306.038 165.5 305.5C168.16 305.065 170.49 304.065 172.5 302.5C179.15 300.513 185.81 299.179 192.5 298.5C196.63 297.515 200.97 297.182 205.5 297.5Z" fill="#111111"/>
<path fill-rule="evenodd" clip-rule="evenodd" d="M192.5 298.5C185.81 299.179 179.15 300.513 172.5 302.5C178.5 299.081 185.17 297.747 192.5 298.5Z" fill="#A6A6A6"/>
<path fill-rule="evenodd" clip-rule="evenodd" d="M269.5 301.5C274.29 301.654 278.62 302.987 282.5 305.5C277.83 304.984 273.5 303.651 269.5 301.5Z" fill="#ACACAC"/>
<path fill-rule="evenodd" clip-rule="evenodd" d="M14.5 300.5C16.06 303.982 17.4 307.648 18.5 311.5C15.61 308.509 14.28 304.842 14.5 300.5Z" fill="#838383"/>
<path fill-rule="evenodd" clip-rule="evenodd" d="M172.5 302.5C170.49 304.065 168.16 305.065 165.5 305.5C167.32 303.552 169.65 302.552 172.5 302.5Z" fill="#717171"/>
<path fill-rule="evenodd" clip-rule="evenodd" d="M111.5 303.5C113.07 305.102 113.74 307.102 113.5 309.5C111.93 307.898 111.26 305.898 111.5 303.5Z" fill="#767676"/>
<path fill-rule="evenodd" clip-rule="evenodd" d="M243.5 305.5C230.53 304.41 217.53 304.244 204.5 305C195.1 306.647 185.76 308.48 176.5 310.5C177.35 309.034 178.68 308.2 180.5 308C200.28 303.753 220.28 302.419 240.5 304C241.74 304.232 242.74 304.732 243.5 305.5Z" fill="#AAAAAA"/>
<path fill-rule="evenodd" clip-rule="evenodd" d="M258.5 307.5C261.66 308.331 264.66 309.331 267.5 310.5C263.92 310.862 260.92 309.862 258.5 307.5Z" fill="#9C9C9C"/>
<path fill-rule="evenodd" clip-rule="evenodd" d="M335.5 305.5C335.65 308.716 334.65 311.383 332.5 313.5C333.13 310.603 334.13 307.936 335.5 305.5Z" fill="#515151"/>
<path fill-rule="evenodd" clip-rule="evenodd" d="M431.5 302.5C431.37 307.232 429.71 311.232 426.5 314.5C427.11 309.968 428.77 305.968 431.5 302.5Z" fill="#989898"/>
<path fill-rule="evenodd" clip-rule="evenodd" d="M113.5 309.5C115.02 311.89 116.02 314.557 116.5 317.5C114.35 315.383 113.35 312.716 113.5 309.5Z" fill="#9A9A9A"/>
<path fill-rule="evenodd" clip-rule="evenodd" d="M160.5 306.5C157.5 312.5 154.5 318.5 151.5 324.5C150.9 324.265 150.57 323.765 150.5 323C152.21 316.402 155.54 310.902 160.5 306.5Z" fill="#ABABAB"/>
<path fill-rule="evenodd" clip-rule="evenodd" d="M176.5 310.5C172.8 312.679 168.8 314.345 164.5 315.5C165.06 314.21 166.06 313.377 167.5 313C170.35 311.57 173.35 310.737 176.5 310.5Z" fill="#AAAAAA"/>
<path fill-rule="evenodd" clip-rule="evenodd" d="M289.5 311.5C291.67 314.515 293.34 317.849 294.5 321.5C291.71 318.832 290.04 315.498 289.5 311.5Z" fill="#A8A8A8"/>
<path fill-rule="evenodd" clip-rule="evenodd" d="M19.5 314.5C21.54 317.579 23.2 320.912 24.5 324.5C23.54 324.047 22.71 323.381 22 322.5C20.41 320.073 19.58 317.407 19.5 314.5Z" fill="#A3A3A3"/>
<path fill-rule="evenodd" clip-rule="evenodd" d="M282.5 316.5C283.48 316.811 284.14 317.478 284.5 318.5C283.65 320.409 283.32 322.409 283.5 324.5C282.53 322.052 282.19 319.385 282.5 316.5Z" fill="#9F9F9F"/>
<path fill-rule="evenodd" clip-rule="evenodd" d="M424.5 317.5C423.59 321.234 422.25 324.9 420.5 328.5C420.04 329.298 419.38 329.631 418.5 329.5C420.01 325.151 422.01 321.151 424.5 317.5Z" fill="#B0B0B0"/>
<path fill-rule="evenodd" clip-rule="evenodd" d="M234.5 334.5C240.04 333.376 244.37 335.042 247.5 339.5C243.28 337.212 238.95 335.545 234.5 334.5Z" fill="#929292"/>
<path fill-rule="evenodd" clip-rule="evenodd" d="M28.5 332.5C31.16 334.484 32.83 337.151 33.5 340.5C31.34 338.178 29.67 335.511 28.5 332.5Z" fill="#646464"/>
<path fill-rule="evenodd" clip-rule="evenodd" d="M234.5 334.5C238.95 335.545 243.28 337.212 247.5 339.5C248.96 341.31 248.79 342.977 247 344.5C242.13 342.042 236.96 340.708 231.5 340.5C229.02 339.836 226.36 339.503 223.5 339.5C219.53 339.294 215.86 339.961 212.5 341.5C210.44 341.517 208.44 341.85 206.5 342.5C205.5 342.5 204.5 342.5 203.5 342.5C203.5 341.167 203.5 339.833 203.5 338.5C205.48 336.895 207.81 335.728 210.5 335C218.49 334.5 226.49 334.334 234.5 334.5Z" fill="#141414"/>
<path fill-rule="evenodd" clip-rule="evenodd" d="M324.5 330.5C323.66 332.853 322.33 334.853 320.5 336.5C320.84 333.802 322.18 331.802 324.5 330.5Z" fill="#787878"/>
<path fill-rule="evenodd" clip-rule="evenodd" d="M418.5 329.5C417.89 332.406 416.56 334.74 414.5 336.5C415.08 333.669 416.41 331.336 418.5 329.5Z" fill="#A4A4A4"/>
<path fill-rule="evenodd" clip-rule="evenodd" d="M231.5 340.5C225.13 340.347 218.8 340.68 212.5 341.5C215.86 339.961 219.53 339.294 223.5 339.5C226.36 339.503 229.02 339.836 231.5 340.5Z" fill="#939393"/>
<path fill-rule="evenodd" clip-rule="evenodd" d="M33.5001 340.5C34.9101 340.973 35.5701 341.973 35.5001 343.5C34.0901 343.027 33.4301 342.027 33.5001 340.5Z" fill="#6F6F6F"/>
<path fill-rule="evenodd" clip-rule="evenodd" d="M203.5 338.5C203.5 339.833 203.5 341.167 203.5 342.5C204.5 342.5 205.5 342.5 206.5 342.5C205.12 343.801 203.62 343.801 202 342.5C201.23 340.648 201.73 339.314 203.5 338.5Z" fill="#717171"/>
<path fill-rule="evenodd" clip-rule="evenodd" d="M320.5 336.5C317.55 342.448 313.22 347.115 307.5 350.5C311.86 345.807 316.19 341.141 320.5 336.5Z" fill="#6D6D6D"/>
<path fill-rule="evenodd" clip-rule="evenodd" d="M410.5 342.5C409.6 347 407.27 350.334 403.5 352.5C405.85 349.129 408.18 345.796 410.5 342.5Z" fill="#BBBBBB"/>
<path fill-rule="evenodd" clip-rule="evenodd" d="M43.5 355.5C46.64 358.46 49.31 361.793 51.5 365.5C47.87 362.905 45.21 359.572 43.5 355.5Z" fill="#9E9E9E"/>
<path fill-rule="evenodd" clip-rule="evenodd" d="M51.5 365.5C57.5 370.833 63.17 376.5 68.5 382.5C61.83 377.833 56.17 372.167 51.5 365.5Z" fill="#9C9C9C"/>
<path fill-rule="evenodd" clip-rule="evenodd" d="M168.5 370.5C171.74 371.463 174.74 372.796 177.5 374.5C173.62 374.802 170.62 373.469 168.5 370.5Z" fill="#5A5A5A"/>
<path fill-rule="evenodd" clip-rule="evenodd" d="M266.5 374.5C265.4 375.558 264.07 376.392 262.5 377C257.16 378.234 251.83 379.401 246.5 380.5C247.5 379.833 248.5 379.167 249.5 378.5C255.09 376.915 260.76 375.582 266.5 374.5Z" fill="#474747"/>
<path fill-rule="evenodd" clip-rule="evenodd" d="M249.5 378.5C248.5 379.167 247.5 379.833 246.5 380.5C244.5 380.5 242.5 380.5 240.5 380.5C243.27 379.343 246.27 378.676 249.5 378.5Z" fill="#828282"/>
<path fill-rule="evenodd" clip-rule="evenodd" d="M335.5 411.5C332.7 414.231 329.37 415.898 325.5 416.5C328.24 413.799 331.57 412.132 335.5 411.5Z" fill="#B4B4B4"/>
<path fill-rule="evenodd" clip-rule="evenodd" d="M122.5 418.5C124.03 418.427 125.03 419.094 125.5 420.5C123.97 420.573 122.97 419.906 122.5 418.5Z" fill="#838383"/>
<path fill-rule="evenodd" clip-rule="evenodd" d="M132.5 423.5C134.9 423.259 136.9 423.926 138.5 425.5C136.21 425.405 134.21 424.738 132.5 423.5Z" fill="#757575"/>
<path fill-rule="evenodd" clip-rule="evenodd" d="M321.5 418.5C318.32 420.412 314.99 422.245 311.5 424C310.21 424.49 308.87 424.657 307.5 424.5C311.68 421.545 316.35 419.545 321.5 418.5Z" fill="#AAAAAA"/>
<path fill-rule="evenodd" clip-rule="evenodd" d="M138.5 425.5C142.16 425.723 145.5 426.723 148.5 428.5C144.84 428.277 141.5 427.277 138.5 425.5Z" fill="#686868"/>
<path fill-rule="evenodd" clip-rule="evenodd" d="M307.5 424.5C305.9 426.074 303.9 426.741 301.5 426.5C302.99 424.72 304.99 424.054 307.5 424.5Z" fill="#595959"/>
<path fill-rule="evenodd" clip-rule="evenodd" d="M296.5 428.5C292.67 430.205 288.67 431.538 284.5 432.5C287.96 429.958 291.96 428.625 296.5 428.5Z" fill="#6D6D6D"/>
<path fill-rule="evenodd" clip-rule="evenodd" d="M279.5 433.5C279.21 434.649 278.38 435.316 277 435.5C273.54 436.286 270.04 436.62 266.5 436.5C270.62 435.057 274.95 434.057 279.5 433.5Z" fill="#A8A8A8"/>
<path fill-rule="evenodd" clip-rule="evenodd" d="M266.5 436.5C266.39 437.117 266.06 437.617 265.5 438C260.48 438.411 255.48 438.911 250.5 439.5C255.56 437.779 260.9 436.779 266.5 436.5Z" fill="#B4B4B4"/>
<path fill-rule="evenodd" clip-rule="evenodd" d="M173.5 435.5C181.4 436.273 189.06 437.606 196.5 439.5C189.43 439.322 182.43 438.489 175.5 437C174.58 436.722 173.92 436.222 173.5 435.5Z" fill="#B3B3B3"/>
</svg>
