<svg width="449" height="439" viewBox="0 0 449 439" fill="none" xmlns="http://www.w3.org/2000/svg">
<path fill-rule="evenodd" clip-rule="evenodd" d="M230.5 0.499983C238.079 0.0899833 245.412 0.759983 252.5 2.49998C244.937 2.76998 237.603 2.10998 230.5 0.499983Z" fill="#8F8F8F"/>
<path fill-rule="evenodd" clip-rule="evenodd" d="M252.5 2.49998C258.82 2.39998 264.82 3.39998 270.5 5.49998C264.274 5.06998 258.274 4.06998 252.5 2.49998Z" fill="#808080"/>
<path fill-rule="evenodd" clip-rule="evenodd" d="M212.5 0.5C198.619 2.48 184.619 4.48 170.5 6.5C184.107 2.75 198.107 0.75 212.5 0.5Z" fill="#A6A6A6"/>
<path fill-rule="evenodd" clip-rule="evenodd" d="M270.5 5.5C275.215 5.51 279.882 6.01 284.5 7C286.066 7.61 287.4 8.44 288.5 9.5C282.249 8.74 276.249 7.4 270.5 5.5Z" fill="#989898"/>
<path fill-rule="evenodd" clip-rule="evenodd" d="M288.5 9.50001C290.898 9.26001 292.898 9.93001 294.5 11.5C292.102 11.74 290.102 11.07 288.5 9.50001Z" fill="#898989"/>
<path fill-rule="evenodd" clip-rule="evenodd" d="M156.5 11.5C153.061 13.2 149.395 14.54 145.5 15.5C148.626 13.01 152.292 11.68 156.5 11.5Z" fill="#606060"/>
<path fill-rule="evenodd" clip-rule="evenodd" d="M300.5 13.5C304.102 13.69 307.102 15.03 309.5 17.5C306.18 16.61 303.18 15.27 300.5 13.5Z" fill="#515151"/>
<path fill-rule="evenodd" clip-rule="evenodd" d="M142.5 16.5C139.482 18.4 136.149 19.73 132.5 20.5C135.309 18.1 138.642 16.77 142.5 16.5Z" fill="#595959"/>
<path fill-rule="evenodd" clip-rule="evenodd" d="M130.5 20.5C128.434 22.2 126.1 23.53 123.5 24.5C125.046 22.07 127.379 20.74 130.5 20.5Z" fill="#979797"/>
<path fill-rule="evenodd" clip-rule="evenodd" d="M212.5 0.5C218.5 0.5 224.5 0.5 230.5 0.5C237.603 2.11 244.937 2.77 252.5 2.5C258.274 4.07 264.274 5.07 270.5 5.5C276.249 7.4 282.249 8.74 288.5 9.5C290.102 11.07 292.102 11.74 294.5 11.5C296.214 12.74 298.214 13.41 300.5 13.5C303.18 15.27 306.18 16.61 309.5 17.5C315.253 18.02 320.253 20.18 324.5 24C328.956 25.54 333.289 27.37 337.5 29.5C373.56 50.89 401.893 79.89 422.5 116.5C423.059 119.94 424.393 122.94 426.5 125.5C428.845 130.03 431.011 134.7 433 139.5C435.731 148.33 438.564 157 441.5 165.5C441.914 171.81 443.248 177.81 445.5 183.5C445.185 187.37 445.518 191.04 446.5 194.5C446.5 197.83 446.5 201.17 446.5 204.5C446.578 220.18 446.245 235.84 445.5 251.5C444.1 256.36 443.433 261.36 443.5 266.5C443.5 266.83 443.5 267.17 443.5 267.5C439.662 279.69 435.995 292.02 432.5 304.5C428.137 312.55 424.137 320.88 420.5 329.5C413.597 340.95 405.93 351.95 397.5 362.5C393.528 366.81 389.528 371.14 385.5 375.5C380.84 379.16 376.507 383.16 372.5 387.5C369.573 388.76 367.239 390.76 365.5 393.5C360.886 396.12 356.553 399.12 352.5 402.5C345.167 406.83 337.833 411.17 330.5 415.5C327.697 415.04 325.363 413.71 323.5 411.5C319.398 407.4 314.732 404.07 309.5 401.5C308.358 399.57 306.692 398.07 304.5 397C297.066 393.01 289.4 389.85 281.5 387.5C279.11 385.98 276.443 384.98 273.5 384.5C272.167 384.5 270.833 384.5 269.5 384.5C269.071 376.29 268.071 368.29 266.5 360.5C266.605 356.45 266.272 352.45 265.5 348.5C263.533 348.26 261.699 348.59 260 349.5C259.503 352.15 259.336 354.81 259.5 357.5C259.546 365.52 260.88 373.18 263.5 380.5C263.194 383.39 263.527 386.05 264.5 388.5C263.817 390.18 262.483 390.84 260.5 390.5C260.658 387.1 260.324 383.76 259.5 380.5C258.644 370.96 257.31 361.63 255.5 352.5C238.866 355.94 222.199 356.28 205.5 353.5C203.162 351.96 200.495 351.29 197.5 351.5C196.459 357.79 195.792 364.12 195.5 370.5C195.806 373.39 195.473 376.05 194.5 378.5C193.615 382.07 192.615 385.74 191.5 389.5C191.311 386.01 191.311 382.35 191.5 378.5C191.833 375.17 192.167 371.83 192.5 368.5C194.231 362.21 194.564 355.87 193.5 349.5C192.833 349.17 192.167 348.83 191.5 348.5C190.791 347.6 189.791 347.26 188.5 347.5C187.751 355.16 187.084 362.83 186.5 370.5C185.676 373.76 185.342 377.1 185.5 380.5C185.833 383.5 184.5 384.83 181.5 384.5C178.848 384.41 176.515 385.08 174.5 386.5C171.284 386.35 168.617 387.35 166.5 389.5C153.852 393.15 143.185 399.82 134.5 409.5C131.167 411.83 127.833 414.17 124.5 416.5C95.833 402.85 71.166 383.85 50.5 359.5C49.92 357.25 48.587 355.58 46.5 354.5C45.189 351.86 43.522 349.53 41.5 347.5C40.92 345.25 39.587 343.58 37.5 342.5C33.082 334.78 28.749 327.12 24.5 319.5C24.3465 317.03 23.3465 315.03 21.5 313.5C20.4625 312.07 19.7959 310.4 19.5 308.5C17.341 302.01 15.0076 295.68 12.5 289.5C11.5655 288.43 11.2322 287.1 11.5 285.5C11.7406 283.1 11.0739 281.1 9.50001 279.5C9.50001 279.17 9.50001 278.83 9.50001 278.5C8.99011 273.61 7.99011 268.94 6.50001 264.5C5.49961 257.83 4.49961 251.16 3.50001 244.5C2.53581 229.82 2.53581 215.16 3.50001 200.5C3.50001 199.17 3.50001 197.83 3.50001 196.5C4.97151 192.08 5.63821 187.41 5.50001 182.5C6.34331 177.46 7.34331 172.46 8.50001 167.5C8.36601 165.71 8.69931 164.04 9.50001 162.5C11.7029 158.2 13.0363 153.53 13.5 148.5C15.4317 144.8 16.765 140.8 17.5 136.5C18.8412 132.16 21.0078 128.16 24 124.5C24.49 123.21 24.6567 121.87 24.5 120.5C27.2583 117.32 29.2583 113.66 30.5 109.5C32.83 105.51 35.163 101.51 37.5 97.5C40.13 94.85 42.463 91.85 44.5 88.5C47.231 86.05 49.231 83.05 50.5 79.5C54.485 75.85 58.152 71.85 61.5 67.5C65.482 65.18 68.815 62.18 71.5 58.5C73.193 55.81 75.527 53.81 78.5 52.5C80.909 51.3 82.909 49.63 84.5 47.5C96.38 38.06 109.38 30.39 123.5 24.5C126.1 23.53 128.434 22.2 130.5 20.5C131.167 20.5 131.833 20.5 132.5 20.5C136.149 19.73 139.482 18.4 142.5 16.5C143.209 15.6 144.209 15.26 145.5 15.5C149.395 14.54 153.061 13.2 156.5 11.5C160.827 10.34 165.16 9.17 169.5 8C170.056 7.62 170.389 7.12 170.5 6.5C184.619 4.48 198.619 2.48 212.5 0.5Z" fill="#0C0C0C"/>
<path fill-rule="evenodd" clip-rule="evenodd" d="M84.5 47.5C82.909 49.63 80.909 51.3 78.5 52.5C79.638 49.91 81.638 48.25 84.5 47.5Z" fill="#8C8C8C"/>
<path fill-rule="evenodd" clip-rule="evenodd" d="M125.5 51.5C128.577 51.18 130.91 52.18 132.5 54.5C129.982 53.74 127.649 52.74 125.5 51.5Z" fill="#5F5F5F"/>
<path fill-rule="evenodd" clip-rule="evenodd" d="M347.5 62.5C345.091 60.02 343.424 57.02 342.5 53.5C339.001 51.44 335.335 51.1 331.5 52.5C334.076 53.88 333.742 54.72 330.5 55C334.211 55.17 337.878 55.67 341.5 56.5C342.348 58.41 342.682 60.41 342.5 62.5C341.694 61 341.028 59.34 340.5 57.5C340.043 56.7 339.376 56.37 338.5 56.5C337.167 56.5 335.833 56.5 334.5 56.5C332.102 56.26 330.102 56.93 328.5 58.5C326.898 60.07 324.898 60.74 322.5 60.5C321.833 60.5 321.167 60.5 320.5 60.5C322.635 58.94 322.802 57.27 321 55.5C319.275 56.46 317.441 57.13 315.5 57.5C323.586 51.98 332.586 49.81 342.5 51C345.414 54.23 347.081 58.06 347.5 62.5Z" fill="#C3C3C3"/>
<path fill-rule="evenodd" clip-rule="evenodd" d="M338.5 56.5001C339.376 56.3701 340.043 56.7001 340.5 57.5001C341.028 59.3401 341.694 61.0001 342.5 62.5001C343.2 66.8001 343.533 71.1301 343.5 75.5001C341.744 69.2601 340.077 62.9301 338.5 56.5001Z" fill="#444444"/>
<path fill-rule="evenodd" clip-rule="evenodd" d="M334.5 56.5C332.898 58.07 330.898 58.74 328.5 58.5C330.102 56.93 332.102 56.26 334.5 56.5Z" fill="#505050"/>
<path fill-rule="evenodd" clip-rule="evenodd" d="M71.5 58.5C68.815 62.18 65.482 65.18 61.5 67.5C61.414 66.5 61.748 65.67 62.5 65C65.094 62.23 68.094 60.07 71.5 58.5Z" fill="#7A7A7A"/>
<path fill-rule="evenodd" clip-rule="evenodd" d="M119.5 56.5C125.683 57.92 131.683 59.92 137.5 62.5C142.002 65.14 146.669 67.64 151.5 70C159.034 75.7 166.701 81.2 174.5 86.5C180.759 85.02 187.092 84.02 193.5 83.5C194.552 83.35 195.552 83.52 196.5 84C189.227 85.8 182.227 87.47 175.5 89C175.167 89.33 174.833 89.67 174.5 90C175.293 91.09 175.96 92.25 176.5 93.5C175.833 93.83 175.167 94.17 174.5 94.5C176.713 96.77 179.379 98.27 182.5 99C183.28 102.46 185.113 104.29 188 104.5C189.894 108.4 191.561 112.4 193 116.5C193.333 116.17 193.667 115.83 194 115.5C196.751 118.72 198.251 122.39 198.5 126.5C181.717 100.45 159.05 81.45 130.5 69.5C127.326 67.84 123.992 66.17 120.5 64.5C119.34 66.87 118.34 69.21 117.5 71.5C117.575 68.79 117.908 66.13 118.5 63.5C120.854 63.16 123.187 62.66 125.5 62C122.839 60.82 120.839 58.99 119.5 56.5Z" fill="#161616"/>
<path fill-rule="evenodd" clip-rule="evenodd" d="M320.5 60.5C321.167 60.5 321.833 60.5 322.5 60.5C316.119 64.69 309.453 68.36 302.5 71.5C308.13 67.35 314.13 63.68 320.5 60.5Z" fill="#909090"/>
<path fill-rule="evenodd" clip-rule="evenodd" d="M135.5 56.5001C136.492 56.3301 137.158 56.6601 137.5 57.5001C136.28 59.0501 136.28 60.7201 137.5 62.5001C131.683 59.9201 125.683 57.9201 119.5 56.5001C117.661 55.2501 115.828 55.2501 114 56.5001C112.833 64.1801 111.666 71.8501 110.5 79.5001C109.684 83.5401 108.684 87.5401 107.5 91.5001C108.166 82.5001 108.999 73.5001 110 64.5001C111.764 61.4401 112.598 58.1101 112.5 54.5001C117.899 54.3101 123.233 54.8101 128.5 56.0001C130.309 58.2401 132.642 59.4001 135.5 59.5001C135.5 58.5001 135.5 57.5001 135.5 56.5001Z" fill="#BBBBBB"/>
<path fill-rule="evenodd" clip-rule="evenodd" d="M130.5 69.5C128.236 68.78 125.903 68.45 123.5 68.5C123.649 69.55 123.483 70.55 123 71.5C121.853 70.54 120.853 70.88 120 72.5C118.18 89.14 118.18 105.8 120 122.5C122.075 130.71 123.575 139.04 124.5 147.5C122.558 142.76 121.058 137.76 120 132.5C116.575 112.27 115.742 91.93 117.5 71.5C118.34 69.21 119.34 66.87 120.5 64.5C123.992 66.17 127.326 67.84 130.5 69.5Z" fill="#C1C1C1"/>
<path fill-rule="evenodd" clip-rule="evenodd" d="M337.5 78.5C337.5 81.17 337.5 83.83 337.5 86.5C336.817 81.94 335.983 77.27 335 72.5C334.395 70.52 333.395 70.19 332 71.5C330.887 70.24 330.72 69.07 331.5 68C330.906 67.54 330.239 67.37 329.5 67.5C330.736 65.96 332.402 64.96 334.5 64.5C335.921 69.09 336.921 73.76 337.5 78.5Z" fill="#CBCBCB"/>
<path fill-rule="evenodd" clip-rule="evenodd" d="M329.5 67.5C330.239 67.37 330.906 67.54 331.5 68C330.72 69.07 330.887 70.24 332 71.5C333.395 70.19 334.395 70.52 335 72.5C335.983 77.27 336.817 81.94 337.5 86.5C338.354 92.12 338.687 97.79 338.5 103.5C337.504 110.46 336.837 117.46 336.5 124.5C334.311 132.61 332.645 140.94 331.5 149.5C331.5 149.83 331.5 150.17 331.5 150.5C330.833 150.5 330.5 150.83 330.5 151.5C320.401 152.14 310.401 152.81 300.5 153.5C297.069 154.13 293.736 155.13 290.5 156.5C288.901 156.23 287.568 156.57 286.5 157.5C283.848 157.41 281.515 158.08 279.5 159.5C278.365 161.21 276.698 161.88 274.5 161.5C271.669 162.08 269.336 163.41 267.5 165.5C267.158 166.34 266.492 166.67 265.5 166.5C262.326 167.01 259.992 168.68 258.5 171.5C256.809 172.86 255.142 174.2 253.5 175.5C251.251 176.08 249.585 177.41 248.5 179.5C246.14 181.85 243.473 183.85 240.5 185.5C232.622 187.44 224.622 187.94 216.5 187C211.791 182.1 206.457 178.26 200.5 175.5C196.3 170.97 191.3 167.63 185.5 165.5C184.267 163.2 182.267 161.87 179.5 161.5C168.493 156.93 157.159 154.26 145.5 153.5C139.021 152.51 132.354 152.18 125.5 152.5C125.737 151.21 125.404 150.21 124.5 149.5C124.5 148.83 124.5 148.17 124.5 147.5C123.575 139.04 122.075 130.71 120 122.5C118.18 105.8 118.18 89.14 120 72.5C120.853 70.88 121.853 70.54 123 71.5C123.483 70.55 123.649 69.55 123.5 68.5C125.903 68.45 128.236 68.78 130.5 69.5C159.05 81.45 181.717 100.45 198.5 126.5C202.114 133.39 205.447 140.39 208.5 147.5C209.256 151.77 210.589 155.77 212.5 159.5C213.11 160.39 213.443 161.39 213.5 162.5C213.891 168.25 214.891 173.91 216.5 179.5C216.747 180.71 217.414 181.38 218.5 181.5C218.5 182.5 218.5 183.5 218.5 184.5C223.453 183.67 228.453 183.34 233.5 183.5C235.224 178.09 236.224 172.43 236.5 166.5C236.517 162.47 237.517 158.8 239.5 155.5C241.065 153.49 242.065 151.16 242.5 148.5C242.557 147.39 242.89 146.39 243.5 145.5C245.245 143.97 246.245 141.97 246.5 139.5C246.66 137.85 247.326 136.51 248.5 135.5C250.326 133.85 251.66 131.85 252.5 129.5C253.786 126.88 255.453 124.55 257.5 122.5C260.243 120.76 262.243 118.43 263.5 115.5C265.833 113.83 267.833 111.83 269.5 109.5C270.785 107.55 272.451 105.88 274.5 104.5C278.463 101.87 282.129 98.87 285.5 95.5C290.663 90.56 296.33 86.06 302.5 82C310.917 76.12 319.917 71.29 329.5 67.5Z" fill="#FAFAFA"/>
<path fill-rule="evenodd" clip-rule="evenodd" d="M320.5 60.5C314.13 63.68 308.13 67.35 302.5 71.5C296.5 76.17 290.5 80.83 284.5 85.5C275.165 83.28 265.832 81.28 256.5 79.5C258.821 78.38 261.154 78.21 263.5 79C262.142 78.07 260.808 77.23 259.5 76.5C265.797 77.72 272.131 78.72 278.5 79.5C279.847 80.03 281.181 80.19 282.5 80C284.871 77.29 287.537 74.96 290.5 73C298.889 67.81 307.223 62.64 315.5 57.5C317.441 57.13 319.275 56.46 321 55.5C322.802 57.27 322.635 58.94 320.5 60.5Z" fill="#D6D6D6"/>
<path fill-rule="evenodd" clip-rule="evenodd" d="M208.5 74.5C230.45 72.67 252.45 73.5 274.5 77C276.32 77.2 277.653 78.03 278.5 79.5C272.131 78.72 265.797 77.72 259.5 76.5C259.167 76.5 258.833 76.5 258.5 76.5C256.369 75.69 254.036 75.19 251.5 75C237.171 74.5 222.837 74.33 208.5 74.5Z" fill="#4F4F4F"/>
<path fill-rule="evenodd" clip-rule="evenodd" d="M258.5 76.5C258.833 76.5 259.167 76.5 259.5 76.5C260.808 77.23 262.142 78.07 263.5 79C261.154 78.21 258.821 78.38 256.5 79.5C253.5 79.5 250.5 79.5 247.5 79.5C244.833 79.5 242.167 79.5 239.5 79.5C226.34 78.67 213.006 78.17 199.5 78C200.167 77.67 200.833 77.33 201.5 77C220.48 75.2 239.48 75.03 258.5 76.5Z" fill="#EFEFEF"/>
<path fill-rule="evenodd" clip-rule="evenodd" d="M137.5 57.5C150.375 63.53 162.375 71.03 173.5 80C178.707 78.87 184.04 78.04 189.5 77.5C195.374 76.95 201.041 75.95 206.5 74.5C207.167 74.5 207.833 74.5 208.5 74.5C222.837 74.33 237.171 74.5 251.5 75C254.036 75.19 256.369 75.69 258.5 76.5C239.48 75.03 220.48 75.2 201.5 77C200.833 77.33 200.167 77.67 199.5 78C213.006 78.17 226.34 78.67 239.5 79.5C230.5 79.5 221.5 79.5 212.5 79.5C202.44 80.12 192.44 81.28 182.5 83C179.524 83.7 176.858 84.87 174.5 86.5C166.701 81.2 159.034 75.7 151.5 70C146.669 67.64 142.002 65.14 137.5 62.5C136.28 60.72 136.28 59.05 137.5 57.5Z" fill="#D1D1D1"/>
<path fill-rule="evenodd" clip-rule="evenodd" d="M206.5 74.5C201.041 75.95 195.374 76.95 189.5 77.5C194.83 75.33 200.497 74.33 206.5 74.5Z" fill="#7E7E7E"/>
<path fill-rule="evenodd" clip-rule="evenodd" d="M239.5 79.5C242.167 79.5 244.833 79.5 247.5 79.5C249.5 80.17 251.5 80.83 253.5 81.5C249.818 81.67 246.152 81.5 242.5 81C241.263 80.77 240.263 80.27 239.5 79.5Z" fill="#474747"/>
<path fill-rule="evenodd" clip-rule="evenodd" d="M247.5 79.5C250.5 79.5 253.5 79.5 256.5 79.5C265.832 81.28 275.165 83.28 284.5 85.5C283.551 86.15 282.385 86.49 281 86.5C271.928 84.25 262.761 82.59 253.5 81.5C251.5 80.83 249.5 80.17 247.5 79.5Z" fill="#888888"/>
<path fill-rule="evenodd" clip-rule="evenodd" d="M212.5 79.5C206.203 80.95 199.87 82.29 193.5 83.5C187.092 84.02 180.759 85.02 174.5 86.5C176.858 84.87 179.524 83.7 182.5 83C192.44 81.28 202.44 80.12 212.5 79.5Z" fill="#777777"/>
<path fill-rule="evenodd" clip-rule="evenodd" d="M50.5 79.5C49.231 83.05 47.231 86.05 44.5 88.5C45.383 84.64 47.383 81.64 50.5 79.5Z" fill="#8F8F8F"/>
<path fill-rule="evenodd" clip-rule="evenodd" d="M321.5 85.5C318.105 89.9 314.105 93.56 309.5 96.5C311.59 93.33 313.923 90.33 316.5 87.5C317.85 86.05 319.516 85.38 321.5 85.5Z" fill="#AEAEAE"/>
<path fill-rule="evenodd" clip-rule="evenodd" d="M143.5 94.5C146.243 96.24 148.243 98.57 149.5 101.5C148.418 103.34 147.585 105.34 147 107.5C145.984 106.37 145.317 106.7 145 108.5C143.817 107.27 142.651 107.27 141.5 108.5C142.82 111.06 141.987 112.72 139 113.5C138.667 113.17 138.333 112.83 138 112.5C137.544 113.74 138.044 114.58 139.5 115C138.584 115.37 137.75 115.87 137 116.5C136.014 114.22 135.18 111.89 134.5 109.5C135.544 107.23 135.711 104.9 135 102.5C134.581 103.67 133.915 104.67 133 105.5C132.605 103.82 132.772 102.15 133.5 100.5C133.263 97.94 132.763 97.94 132 100.5C131.675 96.33 131.509 92.33 131.5 88.5C131.833 88.17 132.167 87.83 132.5 87.5C133.786 89.41 135.786 91.24 138.5 93C140.154 93.61 141.821 94.11 143.5 94.5Z" fill="#0A0A0A"/>
<path fill-rule="evenodd" clip-rule="evenodd" d="M44.5 88.5C42.463 91.85 40.13 94.85 37.5 97.5C38.781 93.57 41.114 90.57 44.5 88.5Z" fill="#939393"/>
<path fill-rule="evenodd" clip-rule="evenodd" d="M129.5 84.5C128.266 90.81 128.266 97.15 129.5 103.5C128.778 103.08 128.278 102.42 128 101.5C127.333 96.17 127.333 90.83 128 85.5C128.383 84.94 128.883 84.61 129.5 84.5Z" fill="#B1B1B1"/>
<path fill-rule="evenodd" clip-rule="evenodd" d="M321.5 85.5C324.546 85.18 326.213 86.52 326.5 89.5C326.533 93.87 326.2 98.2 325.5 102.5C322.92 109.67 319.753 116.67 316 123.5C313.386 119.91 310.552 116.58 307.5 113.5C307.262 111.6 306.262 110.26 304.5 109.5C303.038 108.54 301.705 107.38 300.5 106C303.339 102.66 306.339 99.5 309.5 96.5C314.105 93.56 318.105 89.9 321.5 85.5Z" fill="#0F0F0F"/>
<path fill-rule="evenodd" clip-rule="evenodd" d="M337.5 78.5C339.387 86.79 339.72 95.13 338.5 103.5C338.687 97.79 338.354 92.12 337.5 86.5C337.5 83.83 337.5 81.17 337.5 78.5Z" fill="#6D6D6D"/>
<path fill-rule="evenodd" clip-rule="evenodd" d="M348.5 66.5C351.903 78.12 353.237 90.12 352.5 102.5C352.992 116.49 351.658 130.16 348.5 143.5C349.166 131.5 349.833 119.5 350.5 107.5C350.427 95.74 349.427 84.07 347.5 72.5C348.156 70.55 348.489 68.55 348.5 66.5Z" fill="#A9A9A9"/>
<path fill-rule="evenodd" clip-rule="evenodd" d="M326.5 89.5C327.161 91.13 327.494 92.97 327.5 95C327.7 97.87 327.033 100.37 325.5 102.5C326.2 98.2 326.533 93.87 326.5 89.5Z" fill="#848484"/>
<path fill-rule="evenodd" clip-rule="evenodd" d="M110.5 79.5C109.167 97.83 109.167 116.17 110.5 134.5C109.71 133.39 109.21 132.06 109 130.5C108.134 117.51 107.634 104.51 107.5 91.5C108.684 87.54 109.684 83.54 110.5 79.5Z" fill="#7A7A7A"/>
<path fill-rule="evenodd" clip-rule="evenodd" d="M285.5 95.5C282.129 98.87 278.463 101.87 274.5 104.5C277.29 100.37 280.957 97.37 285.5 95.5Z" fill="#B6B6B6"/>
<path fill-rule="evenodd" clip-rule="evenodd" d="M37.5 97.5C35.163 101.51 32.83 105.51 30.5 109.5C31.3206 104.51 33.654 100.51 37.5 97.5Z" fill="#B4B4B4"/>
<path fill-rule="evenodd" clip-rule="evenodd" d="M129.5 84.5C133.838 86 137.838 88.16 141.5 91C142.305 92.11 142.972 93.28 143.5 94.5C141.821 94.11 140.154 93.61 138.5 93C135.786 91.24 133.786 89.41 132.5 87.5C132.167 87.83 131.833 88.17 131.5 88.5C131.509 92.33 131.675 96.33 132 100.5C132.763 97.94 133.263 97.94 133.5 100.5C132.772 102.15 132.605 103.82 133 105.5C133.915 104.67 134.581 103.67 135 102.5C135.711 104.9 135.544 107.23 134.5 109.5C135.18 111.89 136.014 114.22 137 116.5C137.75 115.87 138.584 115.37 139.5 115C138.044 114.58 137.544 113.74 138 112.5C138.333 112.83 138.667 113.17 139 113.5C141.987 112.72 142.82 111.06 141.5 108.5C142.651 107.27 143.817 107.27 145 108.5C145.317 106.7 145.984 106.37 147 107.5C147.585 105.34 148.418 103.34 149.5 101.5C150.962 102.46 152.295 103.62 153.5 105C147.291 110.38 141.958 116.54 137.5 123.5C136.295 122.42 135.628 121.09 135.5 119.5C133.871 114.26 131.871 109.26 129.5 104.5C129.5 104.17 129.5 103.83 129.5 103.5C128.266 97.15 128.266 90.81 129.5 84.5Z" fill="#181818"/>
<path fill-rule="evenodd" clip-rule="evenodd" d="M105.5 68.5C102.58 93.89 102.913 119.22 106.5 144.5C104.373 138.15 103.207 131.48 103 124.5C102.333 109.83 102.333 95.17 103 80.5C103.705 76.33 104.539 72.33 105.5 68.5Z" fill="#9D9D9D"/>
<path fill-rule="evenodd" clip-rule="evenodd" d="M304.5 109.5C306.262 110.26 307.262 111.6 307.5 113.5C305.738 112.74 304.738 111.4 304.5 109.5Z" fill="#7A7A7A"/>
<path fill-rule="evenodd" clip-rule="evenodd" d="M129.5 104.5C131.871 109.26 133.871 114.26 135.5 119.5C131.444 115.39 129.444 110.39 129.5 104.5Z" fill="#929292"/>
<path fill-rule="evenodd" clip-rule="evenodd" d="M269.5 109.5C267.833 111.83 265.833 113.83 263.5 115.5C264.5 112.5 266.5 110.5 269.5 109.5Z" fill="#9E9E9E"/>
<path fill-rule="evenodd" clip-rule="evenodd" d="M30.5 109.5C29.2583 113.66 27.2583 117.32 24.5 120.5C25.7219 116.39 27.7219 112.72 30.5 109.5Z" fill="#969696"/>
<path fill-rule="evenodd" clip-rule="evenodd" d="M422.5 116.5C424.592 119.09 425.925 122.09 426.5 125.5C424.393 122.94 423.059 119.94 422.5 116.5Z" fill="#A4A4A4"/>
<path fill-rule="evenodd" clip-rule="evenodd" d="M263.5 115.5C262.243 118.43 260.243 120.76 257.5 122.5C258.757 119.57 260.757 117.24 263.5 115.5Z" fill="#A0A0A0"/>
<path fill-rule="evenodd" clip-rule="evenodd" d="M252.5 129.5C251.66 131.85 250.326 133.85 248.5 135.5C248.845 132.8 250.178 130.8 252.5 129.5Z" fill="#6D6D6D"/>
<path fill-rule="evenodd" clip-rule="evenodd" d="M347.5 62.4999C348.434 63.5699 348.768 64.8999 348.5 66.4999C348.489 68.5499 348.156 70.5499 347.5 72.4999C349.427 84.0699 350.427 95.7399 350.5 107.5C349.833 119.5 349.166 131.5 348.5 143.5C345.557 147.63 343.557 152.3 342.5 157.5C341.825 151.54 341.825 145.54 342.5 139.5C346.634 119.65 347.467 99.6499 345 79.4999C344.59 78.0999 344.09 76.7699 343.5 75.4999C343.533 71.1299 343.2 66.7999 342.5 62.4999C342.682 60.4099 342.348 58.4099 341.5 56.4999C337.878 55.6699 334.211 55.1699 330.5 54.9999C333.742 54.7199 334.076 53.8799 331.5 52.4999C335.335 51.0999 339.001 51.4399 342.5 53.4999C343.424 57.0199 345.091 60.0199 347.5 62.4999Z" fill="#E3E3E3"/>
<path fill-rule="evenodd" clip-rule="evenodd" d="M336.5 124.5C336.209 133.23 334.542 141.57 331.5 149.5C332.645 140.94 334.311 132.61 336.5 124.5Z" fill="#777777"/>
<path fill-rule="evenodd" clip-rule="evenodd" d="M17.5 136.5C16.765 140.8 15.4317 144.8 13.5 148.5C13.9264 144.1 15.2597 140.1 17.5 136.5Z" fill="#969696"/>
<path fill-rule="evenodd" clip-rule="evenodd" d="M246.5 139.5C246.245 141.97 245.245 143.97 243.5 145.5C243.755 143.03 244.755 141.03 246.5 139.5Z" fill="#808080"/>
<path fill-rule="evenodd" clip-rule="evenodd" d="M208.5 147.5C210.806 151.08 212.139 155.08 212.5 159.5C210.589 155.77 209.256 151.77 208.5 147.5Z" fill="#969696"/>
<path fill-rule="evenodd" clip-rule="evenodd" d="M124.5 149.5C125.404 150.21 125.737 151.21 125.5 152.5C132.354 152.18 139.021 152.51 145.5 153.5C138.5 153.5 131.5 153.5 124.5 153.5C124.5 152.17 124.5 150.83 124.5 149.5Z" fill="#9A9A9A"/>
<path fill-rule="evenodd" clip-rule="evenodd" d="M330.5 151.5C320.889 153.47 310.889 154.14 300.5 153.5C310.401 152.81 320.401 152.14 330.5 151.5Z" fill="#BCBCBC"/>
<path fill-rule="evenodd" clip-rule="evenodd" d="M242.5 148.5C242.065 151.16 241.065 153.49 239.5 155.5C239.166 152.51 240.166 150.18 242.5 148.5Z" fill="#8E8E8E"/>
<path fill-rule="evenodd" clip-rule="evenodd" d="M331.5 150.5C331.5 151.83 331.5 153.17 331.5 154.5C317.766 154.11 304.099 154.78 290.5 156.5C293.736 155.13 297.069 154.13 300.5 153.5C310.889 154.14 320.889 153.47 330.5 151.5C330.5 150.83 330.833 150.5 331.5 150.5Z" fill="#4C4C4C"/>
<path fill-rule="evenodd" clip-rule="evenodd" d="M110.5 134.5C112.147 141.15 113.48 147.99 114.5 155C114.406 159.07 113.74 162.9 112.5 166.5C112.282 161.79 112.615 157.12 113.5 152.5C111.467 146.67 110.467 140.67 110.5 134.5Z" fill="#AFAFAF"/>
<path fill-rule="evenodd" clip-rule="evenodd" d="M342.5 139.5C341.825 145.54 341.825 151.54 342.5 157.5C343.557 152.3 345.557 147.63 348.5 143.5C346.665 148.67 345.665 154.01 345.5 159.5C344.25 159.58 343.417 160.24 343 161.5C342.506 163.13 342.34 164.8 342.5 166.5C341.505 163.22 340.505 159.88 339.5 156.5C340.197 150.64 341.197 144.97 342.5 139.5Z" fill="#C0C0C0"/>
<path fill-rule="evenodd" clip-rule="evenodd" d="M286.5 157.5C284.485 158.92 282.152 159.59 279.5 159.5C281.515 158.08 283.848 157.41 286.5 157.5Z" fill="#737373"/>
<path fill-rule="evenodd" clip-rule="evenodd" d="M13.5 148.5C13.0363 153.53 11.7029 158.2 9.5 162.5C9.7112 157.4 11.0445 152.73 13.5 148.5Z" fill="#767676"/>
<path fill-rule="evenodd" clip-rule="evenodd" d="M179.5 161.5C182.267 161.87 184.267 163.2 185.5 165.5C183.118 164.65 181.118 163.32 179.5 161.5Z" fill="#898989"/>
<path fill-rule="evenodd" clip-rule="evenodd" d="M274.5 161.5C272.66 163.67 270.326 165 267.5 165.5C269.336 163.41 271.669 162.08 274.5 161.5Z" fill="#8E8E8E"/>
<path fill-rule="evenodd" clip-rule="evenodd" d="M213.5 162.5C215.921 168.51 217.587 174.84 218.5 181.5C217.414 181.38 216.747 180.71 216.5 179.5C214.891 173.91 213.891 168.25 213.5 162.5Z" fill="#9E9E9E"/>
<path fill-rule="evenodd" clip-rule="evenodd" d="M441.5 165.5C443.707 171.19 445.041 177.19 445.5 183.5C443.248 177.81 441.914 171.81 441.5 165.5Z" fill="#BABABA"/>
<path fill-rule="evenodd" clip-rule="evenodd" d="M265.5 166.5C263.45 168.55 261.117 170.21 258.5 171.5C259.992 168.68 262.326 167.01 265.5 166.5Z" fill="#797979"/>
<path fill-rule="evenodd" clip-rule="evenodd" d="M346.5 159.5C348.943 168.87 350.276 178.54 350.5 188.5C349.224 186.44 348.39 184.1 348 181.5C347.452 174.16 346.952 166.83 346.5 159.5Z" fill="#B0B0B0"/>
<path fill-rule="evenodd" clip-rule="evenodd" d="M345.5 159.5C345.833 159.5 346.167 159.5 346.5 159.5C346.952 166.83 347.452 174.16 348 181.5C348.39 184.1 349.224 186.44 350.5 188.5C350.082 192.29 350.082 195.45 350.5 198C349.551 198.62 348.718 198.45 348 197.5C347.155 195.39 346.322 193.39 345.5 191.5C343.908 183.25 342.908 174.92 342.5 166.5C342.34 164.8 342.506 163.13 343 161.5C343.417 160.24 344.25 159.58 345.5 159.5Z" fill="#E8E8E8"/>
<path fill-rule="evenodd" clip-rule="evenodd" d="M253.5 175.5C252.415 177.59 250.749 178.92 248.5 179.5C249.585 177.41 251.251 176.08 253.5 175.5Z" fill="#747474"/>
<path fill-rule="evenodd" clip-rule="evenodd" d="M8.49989 167.5C7.34319 172.46 6.34319 177.46 5.49989 182.5C5.16659 182.5 4.83319 182.5 4.49989 182.5C4.23639 176.97 5.56979 171.97 8.49989 167.5Z" fill="#B2B2B2"/>
<path fill-rule="evenodd" clip-rule="evenodd" d="M200.5 175.5C206.457 178.26 211.791 182.1 216.5 187C224.622 187.94 232.622 187.44 240.5 185.5C240.631 186.38 240.298 187.04 239.5 187.5C231.949 189.42 224.282 189.92 216.5 189C211.269 184.26 205.936 179.76 200.5 175.5Z" fill="#A3A3A3"/>
<path fill-rule="evenodd" clip-rule="evenodd" d="M236.5 166.5C236.224 172.43 235.224 178.09 233.5 183.5C232.891 177.4 233.891 171.74 236.5 166.5Z" fill="#9B9B9B"/>
<path fill-rule="evenodd" clip-rule="evenodd" d="M112.5 170.5C112.638 175.41 111.972 180.08 110.5 184.5C110.362 179.59 111.028 174.92 112.5 170.5Z" fill="#3D3D3D"/>
<path fill-rule="evenodd" clip-rule="evenodd" d="M152.5 200.5C153.004 204.86 155.004 208.19 158.5 210.5C166.86 214.35 173.86 212.68 179.5 205.5C180.117 205.39 180.617 205.06 181 204.5C181.495 202.53 181.662 200.53 181.5 198.5C182.5 198.5 183.5 198.5 184.5 198.5C189.078 199.58 193.412 201.25 197.5 203.5C195.81 205.52 194.144 207.52 192.5 209.5C190.413 210.58 189.08 212.25 188.5 214.5C187.508 214.33 186.842 214.66 186.5 215.5C184.611 216.6 182.945 217.94 181.5 219.5C180.833 219.83 180.167 220.17 179.5 220.5C172.675 222.62 165.675 223.62 158.5 223.5C147.609 220.94 140.609 214.28 137.5 203.5C136.628 197.21 136.295 190.88 136.5 184.5C141.4 185.97 146.4 186.97 151.5 187.5C151.182 192.03 151.515 196.37 152.5 200.5Z" fill="#F4F4F4"/>
<path fill-rule="evenodd" clip-rule="evenodd" d="M316.5 198.5C316.261 194.16 315.927 189.82 315.5 185.5C312.833 185.5 310.167 185.5 307.5 185.5C310.473 183.68 313.639 183.34 317 184.5C317.815 189.35 317.648 194.02 316.5 198.5Z" fill="#A0A0A0"/>
<path fill-rule="evenodd" clip-rule="evenodd" d="M107.5 161.5C107.135 171.76 105.802 181.76 103.5 191.5C103.834 184.49 104.334 177.49 105 170.5C105.406 167.26 106.239 164.26 107.5 161.5Z" fill="#808080"/>
<path fill-rule="evenodd" clip-rule="evenodd" d="M307.5 185.5C310.167 185.5 312.833 185.5 315.5 185.5C315.927 189.82 316.261 194.16 316.5 198.5C316.5 199.83 316.5 201.17 316.5 202.5C314.461 203.91 313.461 205.91 313.5 208.5C309.764 209.9 307.431 212.57 306.5 216.5C301.527 218.32 296.86 220.65 292.5 223.5C286.839 223.09 281.172 222.76 275.5 222.5C273.967 220.75 271.967 219.75 269.5 219.5C268.29 219.07 267.29 218.4 266.5 217.5C265.415 215.41 263.749 214.08 261.5 213.5C259.381 210.77 257.381 207.93 255.5 205C256.686 203.59 258.019 202.42 259.5 201.5C262.481 201.82 264.815 200.82 266.5 198.5C267.833 198.5 269.167 198.5 270.5 198.5C270.263 199.79 270.596 200.79 271.5 201.5C272.323 205.32 274.323 208.32 277.5 210.5C279.454 212.52 281.954 213.52 285 213.5C288.94 213.35 292.773 212.68 296.5 211.5C296.5 210.5 296.5 209.5 296.5 208.5C297.512 207.13 298.512 205.8 299.5 204.5C300.117 204.39 300.617 204.06 301 203.5C301.81 199.64 301.643 195.98 300.5 192.5C299.546 187.4 301.879 185.07 307.5 185.5Z" fill="#F5F5F5"/>
<path fill-rule="evenodd" clip-rule="evenodd" d="M4.5 182.5C4.8333 182.5 5.1667 182.5 5.5 182.5C5.6382 187.41 4.9715 192.08 3.5 196.5C3.5 195.17 3.5 193.83 3.5 192.5C4.0508 189.19 4.3841 185.86 4.5 182.5Z" fill="#5A5A5A"/>
<path fill-rule="evenodd" clip-rule="evenodd" d="M153.5 192.5C152.527 194.95 152.194 197.61 152.5 200.5C151.515 196.37 151.182 192.03 151.5 187.5C146.4 186.97 141.4 185.97 136.5 184.5C136.295 190.88 136.628 197.21 137.5 203.5C136.883 203.39 136.383 203.06 136 202.5C135.5 195.84 135.334 189.17 135.5 182.5C141.423 184.38 147.423 186.04 153.5 187.5C154.434 189.09 154.434 190.76 153.5 192.5Z" fill="#B7B7B7"/>
<path fill-rule="evenodd" clip-rule="evenodd" d="M166.5 193.5C167.822 193.33 168.989 193.66 170 194.5C170.932 197.82 170.432 200.82 168.5 203.5C166.712 203.79 165.045 203.45 163.5 202.5C162.593 199.58 162.26 196.58 162.5 193.5C163.833 193.5 165.167 193.5 166.5 193.5Z" fill="#EBEBEB"/>
<path fill-rule="evenodd" clip-rule="evenodd" d="M300.5 192.5C301.643 195.98 301.81 199.64 301 203.5C300.617 204.06 300.117 204.39 299.5 204.5C300.162 200.53 300.495 196.53 300.5 192.5Z" fill="#505050"/>
<path fill-rule="evenodd" clip-rule="evenodd" d="M266.5 198.5C267.919 197.55 269.585 197.22 271.5 197.5C271.5 198.83 271.5 200.17 271.5 201.5C270.596 200.79 270.263 199.79 270.5 198.5C269.167 198.5 267.833 198.5 266.5 198.5Z" fill="#656565"/>
<path fill-rule="evenodd" clip-rule="evenodd" d="M166.5 193.5C165.167 193.5 163.833 193.5 162.5 193.5C162.26 196.58 162.593 199.58 163.5 202.5C165.045 203.45 166.712 203.79 168.5 203.5C164.144 205.69 161.644 204.35 161 199.5C159.164 193.51 160.997 191.51 166.5 193.5Z" fill="#B2B2B2"/>
<path fill-rule="evenodd" clip-rule="evenodd" d="M350.5 188.5C351.924 193.31 353.924 197.97 356.5 202.5C354.855 201.52 353.521 200.19 352.5 198.5C351.692 198.81 351.025 199.31 350.5 200C351.582 201.33 352.249 202.83 352.5 204.5C347.847 201.53 345.514 197.2 345.5 191.5C346.322 193.39 347.155 195.39 348 197.5C348.718 198.45 349.551 198.62 350.5 198C350.082 195.45 350.082 192.29 350.5 188.5Z" fill="#B2B2B2"/>
<path fill-rule="evenodd" clip-rule="evenodd" d="M184.5 198.5C183.5 198.5 182.5 198.5 181.5 198.5C181.662 200.53 181.495 202.53 181 204.5C180.617 205.06 180.117 205.39 179.5 205.5C180.299 202.57 180.632 199.57 180.5 196.5C182.38 196.23 183.713 196.9 184.5 198.5Z" fill="#939393"/>
<path fill-rule="evenodd" clip-rule="evenodd" d="M266.5 198.5C264.815 200.82 262.481 201.82 259.5 201.5C261.604 200.09 263.937 199.09 266.5 198.5Z" fill="#9C9C9C"/>
<path fill-rule="evenodd" clip-rule="evenodd" d="M284.5 195.5C283.402 194.6 283.402 193.77 284.5 193C291.333 191.83 294.167 194.67 293 201.5C287.86 206.11 284.36 205.11 282.5 198.5C282.64 196.97 283.307 195.97 284.5 195.5Z" fill="#ABABAB"/>
<path fill-rule="evenodd" clip-rule="evenodd" d="M284.5 195.5C286.479 193.06 288.646 193.06 291 195.5C291.969 198.93 290.969 201.6 288 203.5C285.412 201.6 284.245 198.94 284.5 195.5Z" fill="#F0F0F0"/>
<path fill-rule="evenodd" clip-rule="evenodd" d="M109.5 193.5C109.649 194.55 109.483 195.55 109 196.5C104.26 201.73 99.76 207.06 95.5 212.5C99.402 205.6 104.069 199.27 109.5 193.5Z" fill="#8D8D8D"/>
<path fill-rule="evenodd" clip-rule="evenodd" d="M153.5 192.5C152.439 199.32 154.106 205.32 158.5 210.5C155.004 208.19 153.004 204.86 152.5 200.5C152.194 197.61 152.527 194.95 153.5 192.5Z" fill="#5B5B5B"/>
<path fill-rule="evenodd" clip-rule="evenodd" d="M316.5 202.5C316.008 204.82 315.008 206.82 313.5 208.5C313.461 205.91 314.461 203.91 316.5 202.5Z" fill="#7B7B7B"/>
<path fill-rule="evenodd" clip-rule="evenodd" d="M356.5 202.5C362.736 211.28 369.236 219.94 376 228.5C378.372 231.91 380.205 235.58 381.5 239.5C379.224 237.67 377.391 235.34 376 232.5C374.561 230.99 373.061 230.65 371.5 231.5C373.038 233.24 374.038 235.24 374.5 237.5C372.674 235.85 371.34 233.85 370.5 231.5C367.908 225.98 364.575 220.98 360.5 216.5C358.831 214.41 357.164 212.41 355.5 210.5C355.008 208.18 354.008 206.18 352.5 204.5C352.249 202.83 351.582 201.33 350.5 200C351.025 199.31 351.692 198.81 352.5 198.5C353.521 200.19 354.855 201.52 356.5 202.5Z" fill="#DADADA"/>
<path fill-rule="evenodd" clip-rule="evenodd" d="M352.5 204.5C354.008 206.18 355.008 208.18 355.5 210.5C353.461 209.09 352.461 207.09 352.5 204.5Z" fill="#555555"/>
<path fill-rule="evenodd" clip-rule="evenodd" d="M94.5 205.5C92.238 210.09 89.238 214.09 85.5 217.5C87.794 212.89 90.794 208.89 94.5 205.5Z" fill="#848484"/>
<path fill-rule="evenodd" clip-rule="evenodd" d="M192.5 209.5C191.92 211.75 190.587 213.42 188.5 214.5C189.08 212.25 190.413 210.58 192.5 209.5Z" fill="#757575"/>
<path fill-rule="evenodd" clip-rule="evenodd" d="M296.5 208.5C296.5 209.5 296.5 210.5 296.5 211.5C292.773 212.68 288.94 213.35 285 213.5C281.954 213.52 279.454 212.52 277.5 210.5C284.229 213.49 290.562 212.83 296.5 208.5Z" fill="#A3A3A3"/>
<path fill-rule="evenodd" clip-rule="evenodd" d="M261.5 213.5C263.749 214.08 265.415 215.41 266.5 217.5C264.251 216.92 262.585 215.59 261.5 213.5Z" fill="#8F8F8F"/>
<path fill-rule="evenodd" clip-rule="evenodd" d="M313.5 208.5C311.883 211.78 309.55 214.45 306.5 216.5C307.431 212.57 309.764 209.9 313.5 208.5Z" fill="#B3B3B3"/>
<path fill-rule="evenodd" clip-rule="evenodd" d="M3.50008 200.5C2.53588 215.16 2.53588 229.82 3.50008 244.5C2.35558 236.02 1.68888 227.36 1.50008 218.5C1.37998 212.27 2.04668 206.27 3.50008 200.5Z" fill="#616161"/>
<path fill-rule="evenodd" clip-rule="evenodd" d="M186.5 215.5C185.871 218 184.204 219.33 181.5 219.5C182.945 217.94 184.611 216.6 186.5 215.5Z" fill="#7A7A7A"/>
<path fill-rule="evenodd" clip-rule="evenodd" d="M446.5 194.5C448.001 202.28 448.668 210.28 448.5 218.5C448.499 224.01 448.166 229.34 447.5 234.5C447.827 224.32 447.494 214.32 446.5 204.5C446.5 201.17 446.5 197.83 446.5 194.5Z" fill="#949494"/>
<path fill-rule="evenodd" clip-rule="evenodd" d="M93.5 215.5C89.99 221.86 85.99 227.86 81.5 233.5C84.507 226.81 88.507 220.81 93.5 215.5Z" fill="#888888"/>
<path fill-rule="evenodd" clip-rule="evenodd" d="M179.5 220.5C172.917 224.47 165.917 225.47 158.5 223.5C165.675 223.62 172.675 222.62 179.5 220.5Z" fill="#A4A4A4"/>
<path fill-rule="evenodd" clip-rule="evenodd" d="M269.5 219.5C271.967 219.75 273.967 220.75 275.5 222.5C273.033 222.25 271.033 221.25 269.5 219.5Z" fill="#828282"/>
<path fill-rule="evenodd" clip-rule="evenodd" d="M306.5 216.5C302.683 220.41 298.016 222.74 292.5 223.5C296.86 220.65 301.527 218.32 306.5 216.5Z" fill="#9D9D9D"/>
<path fill-rule="evenodd" clip-rule="evenodd" d="M275.5 222.5C281.172 222.76 286.839 223.09 292.5 223.5C286.767 224.8 281.1 224.46 275.5 222.5Z" fill="#989898"/>
<path fill-rule="evenodd" clip-rule="evenodd" d="M234.5 225.5C228.71 225.1 223.044 225.6 217.5 227C215.876 229.63 214.709 232.46 214 235.5C212.729 236.88 211.229 237.88 209.5 238.5C211.511 234.97 213.345 231.3 215 227.5C216.41 226.21 217.91 225.05 219.5 224C223.833 223.33 228.167 223.33 232.5 224C233.416 224.28 234.082 224.78 234.5 225.5Z" fill="#B9B9B9"/>
<path fill-rule="evenodd" clip-rule="evenodd" d="M360.5 216.5C364.575 220.98 367.908 225.98 370.5 231.5C366.39 227.05 363.056 222.05 360.5 216.5Z" fill="#7F7F7F"/>
<path fill-rule="evenodd" clip-rule="evenodd" d="M234.5 225.5C235.675 225.28 236.675 225.61 237.5 226.5C239.039 230.45 240.372 234.45 241.5 238.5C241.5 239.17 241.5 239.83 241.5 240.5C239.322 235.52 236.989 230.52 234.5 225.5Z" fill="#8E8E8E"/>
<path fill-rule="evenodd" clip-rule="evenodd" d="M234.5 225.5C236.989 230.52 239.322 235.52 241.5 240.5C242.338 240.84 242.672 241.51 242.5 242.5C243.63 244.31 244.296 246.31 244.5 248.5C242.989 249.5 241.322 250.17 239.5 250.5C232.576 251.89 225.576 252.55 218.5 252.5C213.336 250.41 208.002 249.24 202.5 249C200.469 255.17 202.802 258.67 209.5 259.5C211.515 260.92 213.848 261.59 216.5 261.5C229.299 264.78 240.632 262.12 250.5 253.5C252.547 247.95 251.213 243.28 246.5 239.5C245.766 238.29 245.433 236.96 245.5 235.5C247.434 236.11 249.101 237.11 250.5 238.5C253.34 240.92 256.673 242.25 260.5 242.5C266.354 245.67 272.688 247.67 279.5 248.5C283.135 249.11 286.802 249.45 290.5 249.5C292.978 250.16 295.645 250.5 298.5 250.5C302.469 250.71 306.135 250.04 309.5 248.5C314.483 247.17 319.483 245.84 324.5 244.5C324.5 247.17 324.5 249.83 324.5 252.5C324.5 255.17 324.5 257.83 324.5 260.5C322.024 263.29 321.024 266.62 321.5 270.5C318.368 278.11 315.202 285.77 312 293.5C307.923 298.73 304.09 304.06 300.5 309.5C298.5 310.83 296.833 312.5 295.5 314.5C295.167 315.5 294.5 316.17 293.5 316.5C289.148 318.67 285.148 321.34 281.5 324.5C276.999 326.92 272.666 329.58 268.5 332.5C263.533 333.99 258.866 335.99 254.5 338.5C253.833 338.5 253.167 338.5 252.5 338.5C244.221 340.16 235.887 341.49 227.5 342.5C220.147 341.96 212.814 341.3 205.5 340.5C205.167 340.5 204.833 340.5 204.5 340.5C202.898 338.93 200.898 338.26 198.5 338.5C191.077 334.62 183.41 330.96 175.5 327.5C172.855 324.63 169.855 322.3 166.5 320.5C165.089 318.09 163.089 316.42 160.5 315.5C148.42 304.72 140.42 291.39 136.5 275.5C136.074 271.57 135.074 267.91 133.5 264.5C132.596 263.79 132.263 262.79 132.5 261.5C132.781 256.44 132.448 251.44 131.5 246.5C131.957 245.7 132.624 245.37 133.5 245.5C136.426 246.46 139.426 247.13 142.5 247.5C144.265 248.46 146.265 248.79 148.5 248.5C151.695 250.03 155.195 250.7 159 250.5C161.69 250.5 164.19 250.16 166.5 249.5C170.462 248.62 174.462 247.96 178.5 247.5C184.415 246.7 189.748 244.7 194.5 241.5C196.47 240.84 198.47 240.17 200.5 239.5C201.386 240.32 201.719 241.32 201.5 242.5C204.719 242.22 207.385 240.89 209.5 238.5C211.229 237.88 212.729 236.88 214 235.5C214.709 232.46 215.876 229.63 217.5 227C223.044 225.6 228.71 225.1 234.5 225.5Z" fill="#FBFBFB"/>
<path fill-rule="evenodd" clip-rule="evenodd" d="M250.5 238.5C254.116 239.31 257.449 240.65 260.5 242.5C256.673 242.25 253.34 240.92 250.5 238.5Z" fill="#7D7D7D"/>
<path fill-rule="evenodd" clip-rule="evenodd" d="M130.5 244.5C134.886 243.4 138.886 244.4 142.5 247.5C139.426 247.13 136.426 246.46 133.5 245.5C132.791 244.6 131.791 244.26 130.5 244.5Z" fill="#5E5E5E"/>
<path fill-rule="evenodd" clip-rule="evenodd" d="M74.5 234.5C73.39 238.53 71.723 242.2 69.5 245.5C69.466 240.88 71.133 237.22 74.5 234.5Z" fill="#8B8B8B"/>
<path fill-rule="evenodd" clip-rule="evenodd" d="M260.5 242.5C267.056 244.05 273.389 246.05 279.5 248.5C272.688 247.67 266.354 245.67 260.5 242.5Z" fill="#6F6F6F"/>
<path fill-rule="evenodd" clip-rule="evenodd" d="M324.5 252.5C324.5 249.83 324.5 247.17 324.5 244.5C319.483 245.84 314.483 247.17 309.5 248.5C314.588 245.91 319.922 243.91 325.5 242.5C325.813 246.04 325.479 249.38 324.5 252.5Z" fill="#A5A5A5"/>
<path fill-rule="evenodd" clip-rule="evenodd" d="M446.5 204.5C447.494 214.32 447.827 224.32 447.5 234.5C446.78 240.14 446.447 245.8 446.5 251.5C446.167 251.5 445.833 251.5 445.5 251.5C446.245 235.84 446.578 220.18 446.5 204.5Z" fill="#3E3E3E"/>
<path fill-rule="evenodd" clip-rule="evenodd" d="M194.5 241.5C189.748 244.7 184.415 246.7 178.5 247.5C178.611 246.88 178.944 246.38 179.5 246C184.548 244.59 189.548 243.09 194.5 241.5Z" fill="#707070"/>
<path fill-rule="evenodd" clip-rule="evenodd" d="M3.5 192.5C3.5 193.83 3.5 195.17 3.5 196.5C3.5 197.83 3.5 199.17 3.5 200.5C2.0466 206.27 1.3799 212.27 1.5 218.5C1.6888 227.36 2.3555 236.02 3.5 244.5C4.4996 251.16 5.4996 257.83 6.5 264.5C4.5829 261.2 3.4162 257.53 3 253.5C0.772302 237.56 0.105702 221.56 1 205.5C1.1487 200.9 1.982 196.57 3.5 192.5Z" fill="#B8B8B8"/>
<path fill-rule="evenodd" clip-rule="evenodd" d="M242.5 242.5C245.349 243.92 246.016 245.92 244.5 248.5C244.296 246.31 243.63 244.31 242.5 242.5Z" fill="#7F7F7F"/>
<path fill-rule="evenodd" clip-rule="evenodd" d="M246.5 239.5C251.213 243.28 252.547 247.95 250.5 253.5C250.662 251.47 250.495 249.47 250 247.5C248.546 244.93 247.38 242.26 246.5 239.5Z" fill="#A1A1A1"/>
<path fill-rule="evenodd" clip-rule="evenodd" d="M130.5 244.5C131.791 244.26 132.791 244.6 133.5 245.5C132.624 245.37 131.957 245.7 131.5 246.5C132.448 251.44 132.781 256.44 132.5 261.5C130.883 256.08 130.216 250.42 130.5 244.5Z" fill="#B9B9B9"/>
<path fill-rule="evenodd" clip-rule="evenodd" d="M148.5 248.5C154.464 249.31 160.464 249.64 166.5 249.5C164.19 250.16 161.69 250.5 159 250.5C155.195 250.7 151.695 250.03 148.5 248.5Z" fill="#A2A2A2"/>
<path fill-rule="evenodd" clip-rule="evenodd" d="M309.5 248.5C306.135 250.04 302.469 250.71 298.5 250.5C295.645 250.5 292.978 250.16 290.5 249.5C296.869 249.65 303.203 249.32 309.5 248.5Z" fill="#AEAEAE"/>
<path fill-rule="evenodd" clip-rule="evenodd" d="M125.5 51.5C127.649 52.74 129.982 53.74 132.5 54.5C133.71 54.93 134.71 55.6 135.5 56.5C135.5 57.5 135.5 58.5 135.5 59.5C132.642 59.4 130.309 58.24 128.5 56C123.233 54.81 117.899 54.31 112.5 54.5C112.598 58.11 111.764 61.44 110 64.5C108.999 73.5 108.166 82.5 107.5 91.5C107.634 104.51 108.134 117.51 109 130.5C109.21 132.06 109.71 133.39 110.5 134.5C110.467 140.67 111.467 146.67 113.5 152.5C112.615 157.12 112.282 161.79 112.5 166.5C112.5 167.83 112.5 169.17 112.5 170.5C111.028 174.92 110.362 179.59 110.5 184.5C109.701 187.43 109.368 190.43 109.5 193.5C104.069 199.27 99.402 205.6 95.5 212.5C95.573 214.03 94.906 215.03 93.5 215.5C88.507 220.81 84.507 226.81 81.5 233.5C77.255 240.57 74.589 248.23 73.5 256.5C72.346 262.99 72.179 269.65 73 276.5C73.232 277.74 73.732 278.74 74.5 279.5C75.018 282.98 76.018 286.31 77.5 289.5C77.592 293.68 79.259 297.02 82.5 299.5C87.751 307.09 93.751 314.09 100.5 320.5C99.918 321.93 99.085 323.26 98 324.5C96.871 322.86 95.371 321.86 93.5 321.5C75.993 306.47 66.993 287.14 66.5 263.5C66.551 257.31 67.551 251.31 69.5 245.5C71.723 242.2 73.39 238.53 74.5 234.5C76.962 228.04 80.628 222.37 85.5 217.5C89.238 214.09 92.238 210.09 94.5 205.5C97.508 200.81 100.508 196.15 103.5 191.5C105.802 181.76 107.135 171.76 107.5 161.5C107.914 159.19 108.247 156.86 108.5 154.5C107.826 151.16 107.16 147.82 106.5 144.5C102.913 119.22 102.58 93.89 105.5 68.5C106.442 62.57 107.775 56.73 109.5 51C114.874 49.06 120.207 49.22 125.5 51.5Z" fill="#E1E1E1"/>
<path fill-rule="evenodd" clip-rule="evenodd" d="M245.5 235.5C245.433 236.96 245.766 238.29 246.5 239.5C247.38 242.26 248.546 244.93 250 247.5C250.495 249.47 250.662 251.47 250.5 253.5C240.632 262.12 229.299 264.78 216.5 261.5C214.485 260.08 212.152 259.41 209.5 259.5C202.802 258.67 200.469 255.17 202.5 249C208.002 249.24 213.336 250.41 218.5 252.5C222.311 253.65 226.311 253.81 230.5 253C233.797 252.8 236.797 251.96 239.5 250.5C241.322 250.17 242.989 249.5 244.5 248.5C246.016 245.92 245.349 243.92 242.5 242.5C242.672 241.51 242.338 240.84 241.5 240.5C241.5 239.83 241.5 239.17 241.5 238.5C242.5 238.5 243.5 238.5 244.5 238.5C244.263 237.21 244.596 236.21 245.5 235.5Z" fill="#161616"/>
<path fill-rule="evenodd" clip-rule="evenodd" d="M239.5 250.5C236.797 251.96 233.797 252.8 230.5 253C226.311 253.81 222.311 253.65 218.5 252.5C225.576 252.55 232.576 251.89 239.5 250.5Z" fill="#B7B7B7"/>
<path fill-rule="evenodd" clip-rule="evenodd" d="M209.5 259.5C212.152 259.41 214.485 260.08 216.5 261.5C213.848 261.59 211.515 260.92 209.5 259.5Z" fill="#565656"/>
<path fill-rule="evenodd" clip-rule="evenodd" d="M73.5 256.5C73.354 264.2 73.687 271.86 74.5 279.5C73.732 278.74 73.232 277.74 73 276.5C72.179 269.65 72.346 262.99 73.5 256.5Z" fill="#595959"/>
<path fill-rule="evenodd" clip-rule="evenodd" d="M445.5 251.5C445.833 251.5 446.167 251.5 446.5 251.5C446.492 256.81 445.492 261.81 443.5 266.5C443.433 261.36 444.1 256.36 445.5 251.5Z" fill="#787878"/>
<path fill-rule="evenodd" clip-rule="evenodd" d="M324.5 260.5C324.025 264.08 323.025 267.42 321.5 270.5C321.024 266.62 322.024 263.29 324.5 260.5Z" fill="#757575"/>
<path fill-rule="evenodd" clip-rule="evenodd" d="M6.50007 264.5C7.99017 268.94 8.99017 273.61 9.50007 278.5C7.93287 277.32 7.09957 275.65 7.00007 273.5C6.50207 270.52 6.33547 267.52 6.50007 264.5Z" fill="#9F9F9F"/>
<path fill-rule="evenodd" clip-rule="evenodd" d="M133.5 264.5C135.074 267.91 136.074 271.57 136.5 275.5C135.351 275.21 134.684 274.38 134.5 273C133.784 270.21 133.451 267.37 133.5 264.5Z" fill="#A8A8A8"/>
<path fill-rule="evenodd" clip-rule="evenodd" d="M374.5 237.5C377.703 241.57 379.87 246.24 381 251.5C382.098 263.3 381.431 274.96 379 286.5C378.617 287.06 378.117 287.39 377.5 287.5C382.301 270.45 381.301 253.78 374.5 237.5Z" fill="#838383"/>
<path fill-rule="evenodd" clip-rule="evenodd" d="M381.5 239.5C385.593 247.38 387.593 255.88 387.5 265C387.113 273.6 385.946 282.1 384 290.5C383.617 291.06 383.117 291.39 382.5 291.5C383.173 283.19 383.84 274.69 384.5 266C384.204 257.06 383.204 248.23 381.5 239.5Z" fill="#C3C3C3"/>
<path fill-rule="evenodd" clip-rule="evenodd" d="M222.5 278.5C227.985 277.35 233.651 277.18 239.5 278C240.416 278.28 241.082 278.78 241.5 279.5C235.203 278.68 228.869 278.35 222.5 278.5Z" fill="#909090"/>
<path fill-rule="evenodd" clip-rule="evenodd" d="M216.5 279.5C214.412 280.2 212.412 281.2 210.5 282.5C210.414 281.5 210.748 280.67 211.5 280C213.134 279.51 214.801 279.34 216.5 279.5Z" fill="#999999"/>
<path fill-rule="evenodd" clip-rule="evenodd" d="M443.5 267.5C442.396 276.31 440.563 284.98 438 293.5C436.435 297.4 434.602 301.07 432.5 304.5C435.995 292.02 439.662 279.69 443.5 267.5Z" fill="#9F9F9F"/>
<path fill-rule="evenodd" clip-rule="evenodd" d="M241.5 279.5C244.546 279.72 246.879 281.06 248.5 283.5C245.9 282.53 243.566 281.2 241.5 279.5Z" fill="#7F7F7F"/>
<path fill-rule="evenodd" clip-rule="evenodd" d="M9.5 279.5C11.0739 281.1 11.7406 283.1 11.5 285.5C9.9261 283.9 9.2594 281.9 9.5 279.5Z" fill="#7F7F7F"/>
<path fill-rule="evenodd" clip-rule="evenodd" d="M222.5 278.5C228.869 278.35 235.203 278.68 241.5 279.5C243.566 281.2 245.9 282.53 248.5 283.5C251.669 287.18 254.836 290.84 258 294.5C260.707 297.86 261.54 301.53 260.5 305.5C259.667 305.83 258.833 306.17 258 306.5C254.896 305.7 252.396 304.03 250.5 301.5C248.702 297.82 246.036 294.82 242.5 292.5C242.047 291.54 241.381 290.71 240.5 290C231.71 287.68 223.044 288.02 214.5 291C212.959 292.37 211.625 293.87 210.5 295.5C207.129 298.87 204.129 302.54 201.5 306.5C197.976 308.16 195.976 307 195.5 303C195.987 299.34 197.32 296.18 199.5 293.5C201.727 291.39 203.727 289.06 205.5 286.5C206.585 284.41 208.251 283.08 210.5 282.5C212.412 281.2 214.412 280.2 216.5 279.5C218.379 278.66 220.379 278.33 222.5 278.5Z" fill="#131313"/>
<path fill-rule="evenodd" clip-rule="evenodd" d="M242.5 292.5C242.703 294.04 243.37 295.38 244.5 296.5C244.167 296.83 243.833 297.17 243.5 297.5C236.085 295.62 228.752 295.28 221.5 296.5C218.848 296.41 216.515 297.08 214.5 298.5C213.041 298.43 211.708 298.77 210.5 299.5C209.646 298.37 209.646 297.04 210.5 295.5C211.625 293.87 212.959 292.37 214.5 291C223.044 288.02 231.71 287.68 240.5 290C241.381 290.71 242.047 291.54 242.5 292.5Z" fill="#E9E9E9"/>
<path fill-rule="evenodd" clip-rule="evenodd" d="M77.5 289.5C79.542 292.61 81.209 295.95 82.5 299.5C79.259 297.02 77.592 293.68 77.5 289.5Z" fill="#888888"/>
<path fill-rule="evenodd" clip-rule="evenodd" d="M205.5 286.5C203.727 289.06 201.727 291.39 199.5 293.5C200.348 290.11 202.348 287.78 205.5 286.5Z" fill="#818181"/>
<path fill-rule="evenodd" clip-rule="evenodd" d="M221.5 296.5C225.042 296.19 228.375 296.52 231.5 297.5C225.797 297.37 220.13 297.71 214.5 298.5C216.515 297.08 218.848 296.41 221.5 296.5Z" fill="#717171"/>
<path fill-rule="evenodd" clip-rule="evenodd" d="M242.5 292.5C246.036 294.82 248.702 297.82 250.5 301.5C249 303.23 247.333 304.9 245.5 306.5C242.855 305.89 240.188 305.39 237.5 305C236.944 304.62 236.611 304.12 236.5 303.5C237.5 303.5 238.5 303.5 239.5 303.5C241.343 304.28 243.343 304.95 245.5 305.5C246.415 304.67 247.081 303.67 247.5 302.5C243.029 298.38 237.695 296.71 231.5 297.5C228.375 296.52 225.042 296.19 221.5 296.5C228.752 295.28 236.085 295.62 243.5 297.5C243.833 297.17 244.167 296.83 244.5 296.5C243.37 295.38 242.703 294.04 242.5 292.5Z" fill="#C2C2C2"/>
<path fill-rule="evenodd" clip-rule="evenodd" d="M12.5 289.5C15.0076 295.68 17.341 302.01 19.5 308.5C15.2477 302.97 12.9144 296.64 12.5 289.5Z" fill="#9D9D9D"/>
<path fill-rule="evenodd" clip-rule="evenodd" d="M231.5 297.5C237.695 296.71 243.029 298.38 247.5 302.5C247.081 303.67 246.415 304.67 245.5 305.5C243.343 304.95 241.343 304.28 239.5 303.5C245.562 303.48 245.895 302.31 240.5 300C231.833 299.33 223.167 299.33 214.5 300C211.928 300.43 210.594 301.93 210.5 304.5C209.503 304.53 208.836 304.03 208.5 303C208.978 301.7 209.645 300.53 210.5 299.5C211.708 298.77 213.041 298.43 214.5 298.5C220.13 297.71 225.797 297.37 231.5 297.5Z" fill="#262626"/>
<path fill-rule="evenodd" clip-rule="evenodd" d="M321.5 270.5C319.295 283.24 314.128 294.57 306 304.5C304.296 306.37 302.463 308.04 300.5 309.5C304.09 304.06 307.923 298.73 312 293.5C315.202 285.77 318.368 278.11 321.5 270.5Z" fill="#A0A0A0"/>
<path fill-rule="evenodd" clip-rule="evenodd" d="M210.5 295.5C209.646 297.04 209.646 298.37 210.5 299.5C209.645 300.53 208.978 301.7 208.5 303C208.836 304.03 209.503 304.53 210.5 304.5C212.806 304.01 215.139 303.67 217.5 303.5C215.051 304.79 212.384 305.79 209.5 306.5C207.742 305.87 206.242 304.87 205 303.5C204.28 305.06 203.113 306.06 201.5 306.5C204.129 302.54 207.129 298.87 210.5 295.5Z" fill="#BFBFBF"/>
<path fill-rule="evenodd" clip-rule="evenodd" d="M239.5 303.5C238.5 303.5 237.5 303.5 236.5 303.5C230.153 302.21 223.82 302.21 217.5 303.5C215.139 303.67 212.806 304.01 210.5 304.5C210.594 301.93 211.928 300.43 214.5 300C223.167 299.33 231.833 299.33 240.5 300C245.895 302.31 245.562 303.48 239.5 303.5Z" fill="#0A0A0A"/>
<path fill-rule="evenodd" clip-rule="evenodd" d="M234.5 310.5C229.13 310.39 223.797 310.73 218.5 311.5C221.356 309.99 224.523 309.33 228 309.5C230.361 309.5 232.527 309.84 234.5 310.5Z" fill="#989898"/>
<path fill-rule="evenodd" clip-rule="evenodd" d="M367.5 306.5C366.876 308.75 365.543 310.42 363.5 311.5C364.136 309.21 365.469 307.54 367.5 306.5Z" fill="#868686"/>
<path fill-rule="evenodd" clip-rule="evenodd" d="M234.5 310.5C236.109 311.77 237.942 312.77 240 313.5C240.484 315.19 239.984 316.53 238.5 317.5C230.493 317.67 222.493 317.5 214.5 317C213.182 313.46 214.515 311.63 218.5 311.5C223.797 310.73 229.13 310.39 234.5 310.5Z" fill="#1F1F1F"/>
<path fill-rule="evenodd" clip-rule="evenodd" d="M234.5 310.5C239.811 309.97 242.145 312.31 241.5 317.5C240.5 317.5 239.5 317.5 238.5 317.5C239.984 316.53 240.484 315.19 240 313.5C237.942 312.77 236.109 311.77 234.5 310.5Z" fill="#A2A2A2"/>
<path fill-rule="evenodd" clip-rule="evenodd" d="M300.5 309.5C299.833 312.17 298.167 313.83 295.5 314.5C296.833 312.5 298.5 310.83 300.5 309.5Z" fill="#7D7D7D"/>
<path fill-rule="evenodd" clip-rule="evenodd" d="M160.5 315.5C163.089 316.42 165.089 318.09 166.5 320.5C163.911 319.58 161.911 317.91 160.5 315.5Z" fill="#949494"/>
<path fill-rule="evenodd" clip-rule="evenodd" d="M21.5 313.5C23.3465 315.03 24.3465 317.03 24.5 319.5C22.4551 318.08 21.4551 316.08 21.5 313.5Z" fill="#8D8D8D"/>
<path fill-rule="evenodd" clip-rule="evenodd" d="M357.5 316.5C355.051 319.56 352.051 321.89 348.5 323.5C351.01 320.43 354.01 318.09 357.5 316.5Z" fill="#676767"/>
<path fill-rule="evenodd" clip-rule="evenodd" d="M381.5 239.5C383.204 248.23 384.204 257.06 384.5 266C383.84 274.69 383.173 283.19 382.5 291.5C381.491 294.05 380.658 296.72 380 299.5C375.066 306.38 369.9 313.04 364.5 319.5C361.281 320.07 358.948 321.74 357.5 324.5C352.868 325.81 348.868 328.15 345.5 331.5C341.164 333.33 337.164 335.67 333.5 338.5C332.542 338.95 331.708 339.62 331 340.5C328.57 346.43 326.07 352.26 323.5 358C320.975 358.9 318.808 358.4 317 356.5C315.663 352.97 315.163 349.31 315.5 345.5C316.5 345.5 317.5 345.5 318.5 345.5C318.5 347.83 318.5 350.17 318.5 352.5C319.833 352.5 321.167 352.5 322.5 352.5C322.298 350.05 322.631 347.72 323.5 345.5C324.598 342.23 326.264 339.23 328.5 336.5C335.12 332.17 341.786 327.84 348.5 323.5C352.051 321.89 355.051 319.56 357.5 316.5C359.202 314.46 361.202 312.8 363.5 311.5C365.543 310.42 366.876 308.75 367.5 306.5C371.072 300.36 374.405 294.03 377.5 287.5C378.117 287.39 378.617 287.06 379 286.5C381.431 274.96 382.098 263.3 381 251.5C379.87 246.24 377.703 241.57 374.5 237.5C374.038 235.24 373.038 233.24 371.5 231.5C373.061 230.65 374.561 230.99 376 232.5C377.391 235.34 379.224 237.67 381.5 239.5Z" fill="#E0E0E0"/>
<path fill-rule="evenodd" clip-rule="evenodd" d="M364.5 319.5C362.469 321.52 360.135 323.19 357.5 324.5C358.948 321.74 361.281 320.07 364.5 319.5Z" fill="#7E7E7E"/>
<path fill-rule="evenodd" clip-rule="evenodd" d="M293.5 316.5C290.151 320.17 286.151 322.84 281.5 324.5C285.148 321.34 289.148 318.67 293.5 316.5Z" fill="#7D7D7D"/>
<path fill-rule="evenodd" clip-rule="evenodd" d="M432.5 304.5C429.731 312.71 426.398 320.71 422.5 328.5C422.043 329.3 421.376 329.63 420.5 329.5C424.137 320.88 428.137 312.55 432.5 304.5Z" fill="#A0A0A0"/>
<path fill-rule="evenodd" clip-rule="evenodd" d="M357.5 324.5C354.167 326.83 350.833 329.17 347.5 331.5C346.833 331.5 346.167 331.5 345.5 331.5C348.868 328.15 352.868 325.81 357.5 324.5Z" fill="#969696"/>
<path fill-rule="evenodd" clip-rule="evenodd" d="M345.5 331.5C346.167 331.5 346.833 331.5 347.5 331.5C343.182 334.33 338.516 336.66 333.5 338.5C337.164 335.67 341.164 333.33 345.5 331.5Z" fill="#595959"/>
<path fill-rule="evenodd" clip-rule="evenodd" d="M268.5 332.5C268.53 333.5 268.03 334.16 267 334.5C262.956 336.28 258.789 337.61 254.5 338.5C258.866 335.99 263.533 333.99 268.5 332.5Z" fill="#515151"/>
<path fill-rule="evenodd" clip-rule="evenodd" d="M328.5 336.5C326.264 339.23 324.598 342.23 323.5 345.5C323.523 343.07 324.023 340.74 325 338.5C325.816 337.18 326.983 336.51 328.5 336.5Z" fill="#7F7F7F"/>
<path fill-rule="evenodd" clip-rule="evenodd" d="M198.5 338.5C200.898 338.26 202.898 338.93 204.5 340.5C202.102 340.74 200.102 340.07 198.5 338.5Z" fill="#636363"/>
<path fill-rule="evenodd" clip-rule="evenodd" d="M100.5 320.5C101.882 321.8 103.548 322.63 105.5 323C111.377 328.88 117.21 334.71 123 340.5C125.867 345.1 127.034 350.1 126.5 355.5C125.178 355.67 124.011 355.34 123 354.5C121.639 349.72 119.972 345.06 118 340.5C113.361 335.58 107.861 331.75 101.5 329C98.568 326.72 95.902 324.22 93.5 321.5C95.371 321.86 96.871 322.86 98 324.5C99.085 323.26 99.918 321.93 100.5 320.5Z" fill="#D0D0D0"/>
<path fill-rule="evenodd" clip-rule="evenodd" d="M252.5 338.5C240.725 343.25 228.392 344.75 215.5 343C211.867 342.85 208.534 342.02 205.5 340.5C212.814 341.3 220.147 341.96 227.5 342.5C235.887 341.49 244.221 340.16 252.5 338.5Z" fill="#6E6E6E"/>
<path fill-rule="evenodd" clip-rule="evenodd" d="M37.5 342.5C39.587 343.58 40.92 345.25 41.5 347.5C39.413 346.42 38.08 344.75 37.5 342.5Z" fill="#8C8C8C"/>
<path fill-rule="evenodd" clip-rule="evenodd" d="M205.5 353.5C206.842 354.79 208.509 355.63 210.5 356C225.044 358.46 239.377 357.62 253.5 353.5C254.286 358.68 255.286 363.68 256.5 368.5C257.177 372.57 258.177 376.57 259.5 380.5C260.324 383.76 260.658 387.1 260.5 390.5C262.483 390.84 263.817 390.18 264.5 388.5C264.184 385.02 264.684 381.69 266 378.5C266.27 381.36 267.104 384.03 268.5 386.5C270.071 385.69 271.738 385.36 273.5 385.5C275.905 386.77 278.572 387.43 281.5 387.5C289.4 389.85 297.066 393.01 304.5 397C306.692 398.07 308.358 399.57 309.5 401.5C309.721 402.73 310.388 403.73 311.5 404.5C309.54 405.52 307.54 405.52 305.5 404.5C303.008 401.33 299.674 399.66 295.5 399.5C288.662 395.34 281.329 393.34 273.5 393.5C277.939 401.15 281.606 409.15 284.5 417.5C284.863 420.56 285.53 423.56 286.5 426.5C286.167 427.5 285.833 428.5 285.5 429.5C283.786 428.39 283.119 429.06 283.5 431.5C284.5 431.5 285.5 431.5 286.5 431.5C266.464 436.53 245.964 438.87 225 438.5C205.081 438.43 185.581 436.09 166.5 431.5C167.75 431.42 168.583 430.76 169 429.5C171.461 422.92 173.628 416.25 175.5 409.5C177.529 403.93 179.862 398.43 182.5 393C182.167 392.5 181.833 392 181.5 391.5C176.974 392.59 172.641 393.93 168.5 395.5C165.659 395.56 162.993 396.23 160.5 397.5C158.897 397.69 157.563 397.19 156.5 396C159.491 393.15 162.824 390.99 166.5 389.5C169.397 388.87 172.064 387.87 174.5 386.5C177.228 386.83 179.562 386.16 181.5 384.5C184.5 384.83 185.833 383.5 185.5 380.5C186.151 379.91 186.818 379.24 187.5 378.5C188.487 381.77 188.82 385.1 188.5 388.5C188.999 391.39 190.499 392.06 193 390.5C194.266 386.6 194.766 382.6 194.5 378.5C195.473 376.05 195.806 373.39 195.5 370.5C197.421 364.78 198.421 358.78 198.5 352.5C200.806 352.99 203.139 353.33 205.5 353.5Z" fill="#E8E8E8"/>
<path fill-rule="evenodd" clip-rule="evenodd" d="M420.5 329.5C415.075 342 407.408 353 397.5 362.5C405.93 351.95 413.597 340.95 420.5 329.5Z" fill="#9A9A9A"/>
<path fill-rule="evenodd" clip-rule="evenodd" d="M46.5 354.5C48.587 355.58 49.92 357.25 50.5 359.5C48.413 358.42 47.08 356.75 46.5 354.5Z" fill="#969696"/>
<path fill-rule="evenodd" clip-rule="evenodd" d="M266.5 360.5C264.918 357.12 264.251 353.46 264.5 349.5C263.178 349.33 262.011 349.66 261 350.5C260.503 352.81 260.337 355.14 260.5 357.5C260.167 357.5 259.833 357.5 259.5 357.5C259.336 354.81 259.503 352.15 260 349.5C261.699 348.59 263.533 348.26 265.5 348.5C266.272 352.45 266.605 356.45 266.5 360.5Z" fill="#7D7D7D"/>
<path fill-rule="evenodd" clip-rule="evenodd" d="M255.5 352.5C255.833 357.83 256.167 363.17 256.5 368.5C255.286 363.68 254.286 358.68 253.5 353.5C239.377 357.62 225.044 358.46 210.5 356C208.509 355.63 206.842 354.79 205.5 353.5C222.199 356.28 238.866 355.94 255.5 352.5Z" fill="#B2B2B2"/>
<path fill-rule="evenodd" clip-rule="evenodd" d="M193.5 349.5C194.564 355.87 194.231 362.21 192.5 368.5C192.767 362.16 193.1 355.83 193.5 349.5Z" fill="#585858"/>
<path fill-rule="evenodd" clip-rule="evenodd" d="M255.5 352.5C257.31 361.63 258.644 370.96 259.5 380.5C258.177 376.57 257.177 372.57 256.5 368.5C256.167 363.17 255.833 357.83 255.5 352.5Z" fill="#878787"/>
<path fill-rule="evenodd" clip-rule="evenodd" d="M191.5 348.5C189.828 355.7 188.162 363.03 186.5 370.5C187.084 362.83 187.751 355.16 188.5 347.5C189.791 347.26 190.791 347.6 191.5 348.5Z" fill="#929292"/>
<path fill-rule="evenodd" clip-rule="evenodd" d="M259.5 357.5C259.833 357.5 260.167 357.5 260.5 357.5C261.593 365.15 262.593 372.82 263.5 380.5C260.88 373.18 259.546 365.52 259.5 357.5Z" fill="#474747"/>
<path fill-rule="evenodd" clip-rule="evenodd" d="M205.5 353.5C203.139 353.33 200.806 352.99 198.5 352.5C198.421 358.78 197.421 364.78 195.5 370.5C195.792 364.12 196.459 357.79 197.5 351.5C200.495 351.29 203.162 351.96 205.5 353.5Z" fill="#7C7C7C"/>
<path fill-rule="evenodd" clip-rule="evenodd" d="M397.5 362.5C394.887 368.11 390.887 372.45 385.5 375.5C389.528 371.14 393.528 366.81 397.5 362.5Z" fill="#AEAEAE"/>
<path fill-rule="evenodd" clip-rule="evenodd" d="M191.5 348.5C192.167 348.83 192.833 349.17 193.5 349.5C193.1 355.83 192.767 362.16 192.5 368.5C192.167 371.83 191.833 375.17 191.5 378.5C190.982 381.98 189.982 385.31 188.5 388.5C188.82 385.1 188.487 381.77 187.5 378.5C186.818 379.24 186.151 379.91 185.5 380.5C185.342 377.1 185.676 373.76 186.5 370.5C188.162 363.03 189.828 355.7 191.5 348.5Z" fill="#CBCBCB"/>
<path fill-rule="evenodd" clip-rule="evenodd" d="M266.5 360.5C268.071 368.29 269.071 376.29 269.5 384.5C270.833 384.5 272.167 384.5 273.5 384.5C273.5 384.83 273.5 385.17 273.5 385.5C271.738 385.36 270.071 385.69 268.5 386.5C267.104 384.03 266.27 381.36 266 378.5C264.684 381.69 264.184 385.02 264.5 388.5C263.527 386.05 263.194 383.39 263.5 380.5C262.593 372.82 261.593 365.15 260.5 357.5C260.337 355.14 260.503 352.81 261 350.5C262.011 349.66 263.178 349.33 264.5 349.5C264.251 353.46 264.918 357.12 266.5 360.5Z" fill="#CACACA"/>
<path fill-rule="evenodd" clip-rule="evenodd" d="M181.5 384.5C179.562 386.16 177.228 386.83 174.5 386.5C176.515 385.08 178.848 384.41 181.5 384.5Z" fill="#8D8D8D"/>
<path fill-rule="evenodd" clip-rule="evenodd" d="M273.5 384.5C276.443 384.98 279.11 385.98 281.5 387.5C278.572 387.43 275.905 386.77 273.5 385.5C273.5 385.17 273.5 384.83 273.5 384.5Z" fill="#707070"/>
<path fill-rule="evenodd" clip-rule="evenodd" d="M174.5 386.5C172.064 387.87 169.397 388.87 166.5 389.5C168.617 387.35 171.284 386.35 174.5 386.5Z" fill="#5C5C5C"/>
<path fill-rule="evenodd" clip-rule="evenodd" d="M191.5 378.5C191.311 382.35 191.311 386.01 191.5 389.5C192.615 385.74 193.615 382.07 194.5 378.5C194.766 382.6 194.266 386.6 193 390.5C190.499 392.06 188.999 391.39 188.5 388.5C189.982 385.31 190.982 381.98 191.5 378.5Z" fill="#353535"/>
<path fill-rule="evenodd" clip-rule="evenodd" d="M372.5 387.5C370.761 390.24 368.427 392.24 365.5 393.5C367.239 390.76 369.573 388.76 372.5 387.5Z" fill="#A5A5A5"/>
<path fill-rule="evenodd" clip-rule="evenodd" d="M365.5 393.5C361.999 397.66 357.665 400.66 352.5 402.5C356.553 399.12 360.886 396.12 365.5 393.5Z" fill="#AEAEAE"/>
<path fill-rule="evenodd" clip-rule="evenodd" d="M175.5 409.5C171.989 415.5 169.322 422 167.5 429C167.164 430.03 166.497 430.53 165.5 430.5C157.496 428.17 149.496 425.83 141.5 423.5C139.383 421.35 136.716 420.35 133.5 420.5C133.167 420.5 132.833 420.5 132.5 420.5C135.228 416.26 138.561 412.43 142.5 409C148.396 405.22 154.396 401.72 160.5 398.5C163.397 397.87 166.064 396.87 168.5 395.5C172.641 393.93 176.974 392.59 181.5 391.5C181.833 392 182.167 392.5 182.5 393C179.862 398.43 177.529 403.93 175.5 409.5Z" fill="#0C0C0C"/>
<path fill-rule="evenodd" clip-rule="evenodd" d="M166.5 389.5C162.824 390.99 159.491 393.15 156.5 396C157.563 397.19 158.897 397.69 160.5 397.5C160.5 397.83 160.5 398.17 160.5 398.5C154.396 401.72 148.396 405.22 142.5 409C138.561 412.43 135.228 416.26 132.5 420.5C131.078 419.08 129.411 418.08 127.5 417.5C129.804 414.86 132.138 412.19 134.5 409.5C143.185 399.82 153.852 393.15 166.5 389.5Z" fill="#CBCBCB"/>
<path fill-rule="evenodd" clip-rule="evenodd" d="M168.5 395.5C166.064 396.87 163.397 397.87 160.5 398.5C160.5 398.17 160.5 397.83 160.5 397.5C162.993 396.23 165.659 395.56 168.5 395.5Z" fill="#5A5A5A"/>
<path fill-rule="evenodd" clip-rule="evenodd" d="M295.5 399.5C298.515 401.67 301.849 403.34 305.5 404.5C311.89 408.71 317.89 413.54 323.5 419C321.509 419.37 319.842 420.21 318.5 421.5C313.383 422.98 308.383 424.65 303.5 426.5C299.467 427.02 295.8 428.36 292.5 430.5C291.167 430.5 289.833 430.5 288.5 430.5C288.346 425.71 287.013 421.38 284.5 417.5C281.606 409.15 277.939 401.15 273.5 393.5C281.329 393.34 288.662 395.34 295.5 399.5Z" fill="#0E0E0E"/>
<path fill-rule="evenodd" clip-rule="evenodd" d="M295.5 399.5C299.674 399.66 303.008 401.33 305.5 404.5C301.849 403.34 298.515 401.67 295.5 399.5Z" fill="#797979"/>
<path fill-rule="evenodd" clip-rule="evenodd" d="M309.5 401.5C314.732 404.07 319.398 407.4 323.5 411.5C324.43 415.09 326.763 416.76 330.5 416.5C328.735 417.46 326.735 417.79 324.5 417.5C323.922 421.52 321.922 422.85 318.5 421.5C319.842 420.21 321.509 419.37 323.5 419C317.89 413.54 311.89 408.71 305.5 404.5C307.54 405.52 309.54 405.52 311.5 404.5C310.388 403.73 309.721 402.73 309.5 401.5Z" fill="#C9C9C9"/>
<path fill-rule="evenodd" clip-rule="evenodd" d="M134.5 409.5C132.138 412.19 129.804 414.86 127.5 417.5C126.209 417.74 125.209 417.4 124.5 416.5C127.833 414.17 131.167 411.83 134.5 409.5Z" fill="#7D7D7D"/>
<path fill-rule="evenodd" clip-rule="evenodd" d="M323.5 411.5C325.363 413.71 327.697 415.04 330.5 415.5C330.5 415.83 330.5 416.17 330.5 416.5C326.763 416.76 324.43 415.09 323.5 411.5Z" fill="#747474"/>
<path fill-rule="evenodd" clip-rule="evenodd" d="M133.5 420.5C136.716 420.35 139.383 421.35 141.5 423.5C138.458 423.27 135.792 422.27 133.5 420.5Z" fill="#5E5E5E"/>
<path fill-rule="evenodd" clip-rule="evenodd" d="M175.5 409.5C173.628 416.25 171.461 422.92 169 429.5C168.583 430.76 167.75 431.42 166.5 431.5C165.833 431.5 165.5 431.17 165.5 430.5C166.497 430.53 167.164 430.03 167.5 429C169.322 422 171.989 415.5 175.5 409.5Z" fill="#737373"/>
<path fill-rule="evenodd" clip-rule="evenodd" d="M284.5 417.5C287.013 421.38 288.346 425.71 288.5 430.5C289.833 430.5 291.167 430.5 292.5 430.5C290.735 431.46 288.735 431.79 286.5 431.5C285.5 431.5 284.5 431.5 283.5 431.5C283.119 429.06 283.786 428.39 285.5 429.5C285.833 428.5 286.167 427.5 286.5 426.5C285.53 423.56 284.863 420.56 284.5 417.5Z" fill="#BDBDBD"/>
<path fill-rule="evenodd" clip-rule="evenodd" d="M303.5 426.5C300.34 429 296.673 430.33 292.5 430.5C295.8 428.36 299.467 427.02 303.5 426.5Z" fill="#B1B1B1"/>
</svg>
