<svg width="448" height="438" viewBox="0 0 448 438" fill="none" xmlns="http://www.w3.org/2000/svg">
<path fill-rule="evenodd" clip-rule="evenodd" d="M388.5 372.5C388.83 371.833 389.17 371.167 389.5 370.5C390.79 368.952 391.46 366.952 391.5 364.5C391.5 362.304 391.16 360.304 390.5 358.5C390.06 347.636 389.06 336.969 387.5 326.5C391.49 324.413 395.82 323.08 400.5 322.5C401.19 293.767 393.69 267.434 378 243.5C373.51 231.463 368.18 219.463 362 207.5C360 199.829 358 192.162 356 184.5C355.33 181.5 355.33 178.5 356 175.5C358.54 173.895 361.21 172.562 364 171.5C363.69 159.523 363.53 147.523 363.5 135.5C362.13 135.657 360.79 135.49 359.5 135C359.83 134.667 360.17 134.333 360.5 134C357.4 131.785 354.07 130.119 350.5 129C353.42 113.808 355.42 98.475 356.5 83C356.34 78.08 355.68 73.247 354.5 68.5C355.63 66.471 355.13 66.137 353 67.5C352.06 79.151 351.39 90.817 351 102.5C350.33 104.59 349.16 106.257 347.5 107.5C348.89 100.576 349.55 93.576 349.5 86.5C350.49 80.355 350.82 74.022 350.5 67.5C348.37 66.371 346.04 66.204 343.5 67C340.17 67.833 336.83 68.667 333.5 69.5C332.29 69.747 331.62 70.414 331.5 71.5C327.64 73.563 323.64 73.729 319.5 72C315.13 67.299 310.47 62.966 305.5 59C299.85 55.506 294.18 52.006 288.5 48.5C283.77 44.39 278.11 42.057 271.5 41.5C268.45 39.899 265.12 38.899 261.5 38.5C258.68 36.18 255.35 35.013 251.5 35C235.96 32.619 220.29 31.953 204.5 33C200.33 33.329 196.66 34.496 193.5 36.5C189.92 36.145 186.92 37.145 184.5 39.5C180.49 40.84 176.49 42.174 172.5 43.5C170.03 43.755 168.03 44.755 166.5 46.5C164.15 48.341 161.48 49.674 158.5 50.5C155.6 51.443 153.27 53.11 151.5 55.5C144.7 58.915 139.03 63.748 134.5 70C133.91 70.464 133.24 70.631 132.5 70.5C131.63 72.677 129.97 73.677 127.5 73.5C124.29 72.233 120.96 71.566 117.5 71.5C114.22 71.58 111.22 70.913 108.5 69.5C107.71 68.599 106.71 67.932 105.5 67.5C103.74 66.539 101.74 66.205 99.5 66.5C99.18 73.022 99.51 79.355 100.5 85.5C100.88 92.719 101.88 99.719 103.5 106.5C103.5 107.167 103.5 107.833 103.5 108.5C103.2 112.79 103.86 116.79 105.5 120.5C105.5 121.167 105.5 121.833 105.5 122.5C105.75 125.939 105.41 129.272 104.5 132.5C103.5 132.5 102.5 132.5 101.5 132.5C99.69 132.491 98.02 132.991 96.5 134C94.3 136.54 91.8 138.707 89 140.5C88.5 148.827 88.33 157.16 88.5 165.5C87.67 157.677 87.17 149.677 87 141.5C86.67 140.5 86.33 139.5 86 138.5C85.67 138.833 85.33 139.167 85 139.5C84.76 149.225 83.92 158.892 82.5 168.5C84.45 171.151 87.12 172.818 90.5 173.5C92 176.645 91.66 179.478 89.5 182C90.64 187.468 90.47 192.968 89 198.5C78.82 222.384 67.48 245.717 55 268.5C52.5 276.842 50.17 285.175 48 293.5C46.31 303.429 45.47 313.429 45.5 323.5C63.23 329.393 81.07 335.06 99 340.5C105.51 344.782 112.68 347.282 120.5 348C122.43 348.902 124.1 350.069 125.5 351.5C122.67 351.306 120 350.639 117.5 349.5C116.02 369.982 115.35 390.649 115.5 411.5C104.6 406.471 94.27 400.304 84.5 393C19.58 339.314 -7.58999 270.148 3.00001 185.5C15.02 113.279 53.19 59.779 117.5 25C172.42 -0.377983 229.42 -6.04498 288.5 8.00002C355.53 27.342 403.03 69.176 431 133.5C461.88 216.997 450.22 293.664 396 363.5C393.87 364.863 393.37 364.529 394.5 362.5C393.75 359.223 393.25 355.89 393 352.5C392.6 353.872 392.1 355.205 391.5 356.5C392.78 361.479 392.78 366.479 391.5 371.5C390.58 372.127 389.58 372.461 388.5 372.5Z" fill="#ECECEC"/>
<path fill-rule="evenodd" clip-rule="evenodd" d="M261.5 38.5C251.21 36.845 240.87 35.345 230.5 34C219.73 33.024 209.06 33.524 198.5 35.5C196.71 35.366 195.04 35.699 193.5 36.5C196.66 34.496 200.33 33.329 204.5 33C220.29 31.953 235.96 32.619 251.5 35C255.35 35.013 258.68 36.18 261.5 38.5Z" fill="#9B9B9B"/>
<path fill-rule="evenodd" clip-rule="evenodd" d="M198.5 35.5C193.97 37.107 189.3 38.441 184.5 39.5C186.92 37.145 189.92 36.145 193.5 36.5C195.04 35.699 196.71 35.366 198.5 35.5Z" fill="#5B5B5B"/>
<path fill-rule="evenodd" clip-rule="evenodd" d="M261.5 38.5C265.12 38.899 268.45 39.899 271.5 41.5C268.48 41.196 265.48 40.696 262.5 40C261.94 39.617 261.61 39.117 261.5 38.5Z" fill="#686868"/>
<path fill-rule="evenodd" clip-rule="evenodd" d="M271.5 41.5C278.11 42.057 283.77 44.39 288.5 48.5C282.72 46.354 277.06 44.021 271.5 41.5Z" fill="#B3B3B3"/>
<path fill-rule="evenodd" clip-rule="evenodd" d="M172.5 43.5C170.97 45.245 168.97 46.245 166.5 46.5C168.03 44.755 170.03 43.755 172.5 43.5Z" fill="#757575"/>
<path fill-rule="evenodd" clip-rule="evenodd" d="M158.5 50.5C156.77 52.877 154.44 54.544 151.5 55.5C153.27 53.11 155.6 51.443 158.5 50.5Z" fill="#5D5D5D"/>
<path fill-rule="evenodd" clip-rule="evenodd" d="M350.5 67.5C348.59 67.216 346.92 67.549 345.5 68.5C340.79 69.285 336.12 70.285 331.5 71.5C331.62 70.414 332.29 69.747 333.5 69.5C336.83 68.667 340.17 67.833 343.5 67C346.04 66.204 348.37 66.371 350.5 67.5Z" fill="#ABABAB"/>
<path fill-rule="evenodd" clip-rule="evenodd" d="M345.5 68.5C346.92 67.549 348.59 67.216 350.5 67.5C350.82 74.022 350.49 80.355 349.5 86.5C349.5 80.5 349.5 74.5 349.5 68.5C348.17 68.5 346.83 68.5 345.5 68.5Z" fill="#484848"/>
<path fill-rule="evenodd" clip-rule="evenodd" d="M105.5 67.5C103.83 67.5 102.17 67.5 100.5 67.5C100.5 73.5 100.5 79.5 100.5 85.5C99.5098 79.355 99.1798 73.022 99.4998 66.5C101.74 66.205 103.74 66.539 105.5 67.5Z" fill="#A6A6A6"/>
<path fill-rule="evenodd" clip-rule="evenodd" d="M105.5 67.5C106.71 67.932 107.71 68.599 108.5 69.5C106.19 69.007 103.86 68.674 101.5 68.5C101.32 81.22 101.99 93.887 103.5 106.5C101.88 99.719 100.88 92.719 100.5 85.5C100.5 79.5 100.5 73.5 100.5 67.5C102.17 67.5 103.83 67.5 105.5 67.5Z" fill="#606060"/>
<path fill-rule="evenodd" clip-rule="evenodd" d="M346.5 110.5C346.33 116.383 345.66 122.217 344.5 128C344.61 129.592 344.94 131.092 345.5 132.5C344.21 131.129 343.55 129.295 343.5 127C343.82 121.244 344.82 115.744 346.5 110.5Z" fill="#929292"/>
<path fill-rule="evenodd" clip-rule="evenodd" d="M103.5 108.5C105.14 112.21 105.8 116.21 105.5 120.5C103.86 116.79 103.2 112.79 103.5 108.5Z" fill="#868686"/>
<path fill-rule="evenodd" clip-rule="evenodd" d="M105.5 122.5C107.28 125.183 107.78 128.183 107 131.5C106.33 132.252 105.5 132.586 104.5 132.5C105.41 129.272 105.75 125.939 105.5 122.5Z" fill="#7E7E7E"/>
<path fill-rule="evenodd" clip-rule="evenodd" d="M345.5 132.5C349.42 133.127 352.75 134.793 355.5 137.5C351.85 136.341 348.52 134.674 345.5 132.5Z" fill="#979797"/>
<path fill-rule="evenodd" clip-rule="evenodd" d="M355.5 139.5C356.5 139.5 357.5 139.5 358.5 139.5C358.83 149.015 358.49 158.348 357.5 167.5C358.1 157.903 357.43 148.57 355.5 139.5Z" fill="#656565"/>
<path fill-rule="evenodd" clip-rule="evenodd" d="M101.5 132.5C98.0099 135.842 94.1699 138.842 89.9999 141.5C89.1699 150.186 89.3299 158.853 90.4999 167.5C91.5199 167.855 92.1899 168.522 92.4999 169.5C89.4999 169.833 88.1699 168.5 88.4999 165.5C88.3299 157.16 88.4999 148.827 88.9999 140.5C91.7999 138.707 94.2999 136.54 96.4999 134C98.0199 132.991 99.6899 132.491 101.5 132.5Z" fill="#A8A8A8"/>
<path fill-rule="evenodd" clip-rule="evenodd" d="M261.5 38.5C261.61 39.117 261.94 39.617 262.5 40C265.48 40.696 268.48 41.196 271.5 41.5C277.06 44.021 282.72 46.354 288.5 48.5C294.18 52.006 299.85 55.506 305.5 59C310.47 62.966 315.13 67.299 319.5 72C323.64 73.729 327.64 73.563 331.5 71.5C336.12 70.285 340.79 69.285 345.5 68.5C346.83 68.5 348.17 68.5 349.5 68.5C349.5 74.5 349.5 80.5 349.5 86.5C349.55 93.576 348.89 100.576 347.5 107.5C346.89 108.391 346.56 109.391 346.5 110.5C344.82 115.744 343.82 121.244 343.5 127C343.55 129.295 344.21 131.129 345.5 132.5C348.52 134.674 351.85 136.341 355.5 137.5C355.5 138.167 355.5 138.833 355.5 139.5C357.43 148.57 358.1 157.903 357.5 167.5C356.31 167.678 355.14 168.011 354 168.5C351.57 167.214 349.07 166.214 346.5 165.5C343.09 166.25 343.43 167.25 347.5 168.5C348.54 179.598 350.87 190.264 354.5 200.5C354.62 205.004 355.95 209.004 358.5 212.5C359.45 216.341 360.78 220.008 362.5 223.5C364.33 228.484 366.66 233.151 369.5 237.5C369.33 238.492 369.66 239.158 370.5 239.5C370.46 242.089 371.46 244.089 373.5 245.5C373.89 247.179 374.39 248.846 375 250.5C377.44 253.72 379.6 257.053 381.5 260.5C385.01 269.733 388.01 279.066 390.5 288.5C390.5 289.833 390.5 291.167 390.5 292.5C390.93 297.668 391.6 302.668 392.5 307.5C392.5 310.833 392.5 314.167 392.5 317.5C387.18 318.059 382.18 319.392 377.5 321.5C374.02 322.657 370.68 323.99 367.5 325.5C361.72 326.536 356.38 328.536 351.5 331.5C347.67 332.443 344 333.777 340.5 335.5C337.28 335.345 334.62 336.345 332.5 338.5C332.17 338.5 331.83 338.5 331.5 338.5C328.42 338.62 325.76 339.62 323.5 341.5C321.78 341.629 320.12 341.962 318.5 342.5C314.91 343.816 311.24 344.983 307.5 346C306.06 346.377 305.06 347.21 304.5 348.5C303.61 349.11 302.61 349.443 301.5 349.5C296.95 350.115 292.95 351.782 289.5 354.5C287.9 354.232 286.57 354.566 285.5 355.5C281.22 356.261 277.22 357.595 273.5 359.5C268.24 360.586 263.24 362.253 258.5 364.5C256.53 374.111 255.86 384.111 256.5 394.5C255.35 395.625 254.35 395.625 253.5 394.5C253.83 385.143 253.5 375.81 252.5 366.5C251.89 366.624 251.56 366.957 251.5 367.5C235.97 373.688 219.97 375.021 203.5 371.5C200.78 370.957 198.11 370.291 195.5 369.5C195.03 368.094 194.03 367.427 192.5 367.5C191.79 366.596 190.79 366.263 189.5 366.5C189.17 375.682 189.51 384.682 190.5 393.5C190.5 394.167 190.5 394.833 190.5 395.5C184.44 400.61 180.11 406.943 177.5 414.5C175.01 419.28 173.34 424.446 172.5 430C172.16 431.03 171.5 431.53 170.5 431.5C161.09 429.029 151.76 426.362 142.5 423.5C144.5 418.988 147.5 415.155 151.5 412C157.67 408.637 163.67 405.137 169.5 401.5C170.96 401.567 172.29 401.234 173.5 400.5C177.81 399.765 181.81 398.432 185.5 396.5C186.66 385.674 186.83 374.674 186 363.5C184.99 362.663 183.82 362.33 182.5 362.5C178.5 360.39 174.16 359.057 169.5 358.5C157.76 353.979 145.76 349.979 133.5 346.5C132.94 345.21 131.94 344.377 130.5 344C125.85 342.393 121.18 340.893 116.5 339.5C109.07 337.023 101.73 334.356 94.4999 331.5C82.0799 326.803 69.4099 322.47 56.4999 318.5C56.1699 318.5 55.8299 318.5 55.4999 318.5C53.6999 315.169 53.0399 311.502 53.4999 307.5C53.4999 306.5 53.4999 305.5 53.4999 304.5C55.0299 299.75 55.6999 294.75 55.4999 289.5C55.4999 289.167 55.4999 288.833 55.4999 288.5C57.1499 284.384 58.4799 280.05 59.4999 275.5C60.5899 271.674 61.9199 268.008 63.4999 264.5C64.8799 263.426 66.0499 262.093 66.9999 260.5C69.2199 255.308 71.7199 250.308 74.4999 245.5C77.8499 241.462 80.1899 236.795 81.4999 231.5C83.5399 230.089 84.5399 228.089 84.4999 225.5C87.2399 222.017 88.8999 218.017 89.4999 213.5C92.6799 207.626 94.6799 201.293 95.4999 194.5C97.8799 187.831 99.2199 180.831 99.4999 173.5C100.04 171.883 100.37 170.216 100.5 168.5C103.99 167.806 104.66 166.473 102.5 164.5C99.8199 164.939 97.4899 165.939 95.4999 167.5C94.7799 168.551 93.7799 169.218 92.4999 169.5C92.1899 168.522 91.5199 167.855 90.4999 167.5C89.3299 158.853 89.1699 150.186 89.9999 141.5C94.1699 138.842 98.0099 135.842 101.5 132.5C102.5 132.5 103.5 132.5 104.5 132.5C105.5 132.586 106.33 132.252 107 131.5C107.78 128.183 107.28 125.183 105.5 122.5C105.5 121.833 105.5 121.167 105.5 120.5C105.8 116.21 105.14 112.21 103.5 108.5C103.5 107.833 103.5 107.167 103.5 106.5C101.99 93.887 101.32 81.22 101.5 68.5C103.86 68.674 106.19 69.007 108.5 69.5C111.22 70.913 114.22 71.58 117.5 71.5C121.7 73.61 126.2 74.943 131 75.5C132.01 73.975 132.51 72.308 132.5 70.5C133.24 70.631 133.91 70.464 134.5 70C139.03 63.748 144.7 58.915 151.5 55.5C154.44 54.544 156.77 52.877 158.5 50.5C161.48 49.674 164.15 48.341 166.5 46.5C168.97 46.245 170.97 45.245 172.5 43.5C176.49 42.174 180.49 40.84 184.5 39.5C189.3 38.441 193.97 37.107 198.5 35.5C209.06 33.524 219.73 33.024 230.5 34C240.87 35.345 251.21 36.845 261.5 38.5Z" fill="#0C0C0C"/>
<path fill-rule="evenodd" clip-rule="evenodd" d="M110.5 164.5C113.26 166.596 115.26 169.262 116.5 172.5C113.35 170.687 111.35 168.02 110.5 164.5Z" fill="#969696"/>
<path fill-rule="evenodd" clip-rule="evenodd" d="M100.5 168.5C100.63 167.761 100.46 167.094 100 166.5C98.64 167.38 97.14 167.714 95.5 167.5C97.49 165.939 99.82 164.939 102.5 164.5C104.66 166.473 103.99 167.806 100.5 168.5Z" fill="#A9A9A9"/>
<path fill-rule="evenodd" clip-rule="evenodd" d="M328.5 161.5C332.21 161.423 335.88 161.756 339.5 162.5C339.35 166.141 337.68 168.807 334.5 170.5C334.17 170.5 333.83 170.5 333.5 170.5C334.44 168.534 335.44 166.534 336.5 164.5C333.82 163.247 331.15 162.247 328.5 161.5Z" fill="#B6B6B6"/>
<path fill-rule="evenodd" clip-rule="evenodd" d="M134.5 159.5C128.1 161.421 121.43 162.421 114.5 162.5C120.9 160.585 127.57 159.585 134.5 159.5Z" fill="#8A8A8A"/>
<path fill-rule="evenodd" clip-rule="evenodd" d="M307.5 158.5C313.11 158.073 318.45 158.74 323.5 160.5C317.99 160.125 312.66 159.458 307.5 158.5Z" fill="#636363"/>
<path fill-rule="evenodd" clip-rule="evenodd" d="M149.5 157.5C150.5 157.5 151.5 157.5 152.5 157.5C147.4 158.957 142.07 159.624 136.5 159.5C140.64 158.437 144.97 157.77 149.5 157.5Z" fill="#9A9A9A"/>
<path fill-rule="evenodd" clip-rule="evenodd" d="M277.5 155.5C282.41 155.362 287.08 156.028 291.5 157.5C286.59 157.638 281.92 156.972 277.5 155.5Z" fill="#BFBFBF"/>
<path fill-rule="evenodd" clip-rule="evenodd" d="M174.5 154.5C167.39 156.14 160.06 157.14 152.5 157.5C151.5 157.5 150.5 157.5 149.5 157.5C157.61 155.766 165.94 154.766 174.5 154.5Z" fill="#5C5C5C"/>
<path fill-rule="evenodd" clip-rule="evenodd" d="M259.5 154.5C263.17 154.5 266.83 154.5 270.5 154.5C273.06 154.198 275.39 154.532 277.5 155.5C281.92 156.972 286.59 157.638 291.5 157.5C296.85 157.569 302.19 157.902 307.5 158.5C312.66 159.458 317.99 160.125 323.5 160.5C325.41 160.216 327.08 160.549 328.5 161.5C331.15 162.247 333.82 163.247 336.5 164.5C335.44 166.534 334.44 168.534 333.5 170.5C328.09 175.248 322.43 179.581 316.5 183.5C307.74 187.64 298.74 190.974 289.5 193.5C280.26 195.476 270.93 196.809 261.5 197.5C255.32 197.844 249.32 198.511 243.5 199.5C226.5 200.771 209.5 200.771 192.5 199.5C188.79 199.577 185.12 199.244 181.5 198.5C177.79 196.864 173.79 196.198 169.5 196.5C167.62 195.659 165.62 195.325 163.5 195.5C161.56 193.837 159.23 193.171 156.5 193.5C154.9 191.926 152.9 191.259 150.5 191.5C149.07 190.463 147.4 189.796 145.5 189.5C140.31 188.568 135.64 186.568 131.5 183.5C129.85 181.674 127.85 180.34 125.5 179.5C122.35 177.417 119.35 175.084 116.5 172.5C115.26 169.262 113.26 166.596 110.5 164.5C109.62 164.631 108.96 164.298 108.5 163.5C110.4 162.534 112.4 162.201 114.5 162.5C121.43 162.421 128.1 161.421 134.5 159.5C135.17 159.5 135.83 159.5 136.5 159.5C142.07 159.624 147.4 158.957 152.5 157.5C160.06 157.14 167.39 156.14 174.5 154.5C176.83 154.5 179.17 154.5 181.5 154.5C184.17 154.5 186.83 154.5 189.5 154.5C212.83 153.222 236.17 153.222 259.5 154.5Z" fill="#FCFCFC"/>
<path fill-rule="evenodd" clip-rule="evenodd" d="M199.5 152.5C196.17 153.167 192.83 153.833 189.5 154.5C186.83 154.5 184.17 154.5 181.5 154.5C187.25 152.85 193.25 152.184 199.5 152.5Z" fill="#3E3E3E"/>
<path fill-rule="evenodd" clip-rule="evenodd" d="M199.5 152.5C199.83 152.5 200.17 152.5 200.5 152.5C216.5 152.333 232.5 152.5 248.5 153C252.36 153.177 256.02 153.677 259.5 154.5C236.17 153.222 212.83 153.222 189.5 154.5C192.83 153.833 196.17 153.167 199.5 152.5Z" fill="#A1A1A1"/>
<path fill-rule="evenodd" clip-rule="evenodd" d="M200.5 152.5C216.66 151.338 232.99 151.172 249.5 152C256.9 151.865 263.9 152.698 270.5 154.5C266.83 154.5 263.17 154.5 259.5 154.5C256.02 153.677 252.36 153.177 248.5 153C232.5 152.5 216.5 152.333 200.5 152.5Z" fill="#3D3D3D"/>
<path fill-rule="evenodd" clip-rule="evenodd" d="M333.5 119.5C335.56 121.857 335.89 124.524 334.5 127.5C331.87 126.942 329.54 125.942 327.5 124.5C329.86 124.674 332.19 125.007 334.5 125.5C334.17 123.5 333.83 121.5 333.5 119.5Z" fill="#858585"/>
<path fill-rule="evenodd" clip-rule="evenodd" d="M315.5 121.5C318.19 121.336 320.85 121.503 323.5 122C325.44 122.122 326.77 122.955 327.5 124.5C323.24 124.102 319.24 123.102 315.5 121.5Z" fill="#9D9D9D"/>
<path fill-rule="evenodd" clip-rule="evenodd" d="M117.5 116.5C117.33 118.861 116.99 121.194 116.5 123.5C121.38 122.031 126.38 121.031 131.5 120.5C131.5 120.833 131.5 121.167 131.5 121.5C125.69 122.155 120.19 123.822 115 126.5C114.32 122.72 115.15 119.386 117.5 116.5Z" fill="#B3B3B3"/>
<path fill-rule="evenodd" clip-rule="evenodd" d="M326.5 104.5C327.91 104.973 328.57 105.973 328.5 107.5C327.09 107.027 326.43 106.027 326.5 104.5Z" fill="#7B7B7B"/>
<path fill-rule="evenodd" clip-rule="evenodd" d="M304.5 82.5C307.4 83.443 309.73 85.11 311.5 87.5C308.56 86.544 306.23 84.877 304.5 82.5Z" fill="#9C9C9C"/>
<path fill-rule="evenodd" clip-rule="evenodd" d="M146.5 81.5C144.88 83.316 142.88 84.649 140.5 85.5C141.73 83.204 143.73 81.87 146.5 81.5Z" fill="#777777"/>
<path fill-rule="evenodd" clip-rule="evenodd" d="M132.5 70.5C132.51 72.308 132.01 73.975 131 75.5C126.2 74.943 121.7 73.61 117.5 71.5C120.96 71.566 124.29 72.233 127.5 73.5C129.97 73.677 131.63 72.677 132.5 70.5Z" fill="#989898"/>
<path fill-rule="evenodd" clip-rule="evenodd" d="M187.5 68.5C184.37 69.581 181.04 70.247 177.5 70.5C177.92 69.778 178.58 69.278 179.5 69C182.15 68.503 184.81 68.336 187.5 68.5Z" fill="#A1A1A1"/>
<path fill-rule="evenodd" clip-rule="evenodd" d="M259.5 68.5C275.5 70.419 290.5 75.086 304.5 82.5C306.23 84.877 308.56 86.544 311.5 87.5C317.92 91.923 322.92 97.589 326.5 104.5C326.43 106.027 327.09 107.027 328.5 107.5C330.92 111.064 332.59 115.064 333.5 119.5C333.83 121.5 334.17 123.5 334.5 125.5C332.19 125.007 329.86 124.674 327.5 124.5C326.77 122.955 325.44 122.122 323.5 122C320.85 121.503 318.19 121.336 315.5 121.5C307.8 118.989 299.8 117.323 291.5 116.5C282.5 115.44 273.5 114.44 264.5 113.5C264.08 112.778 263.42 112.278 262.5 112C242.02 110.36 221.68 110.193 201.5 111.5C197.32 111.851 193.32 112.518 189.5 113.5C178.77 113.9 168.1 114.9 157.5 116.5C148.81 117.57 140.15 118.903 131.5 120.5C126.38 121.031 121.38 122.031 116.5 123.5C116.99 121.194 117.33 118.861 117.5 116.5C121.04 103.091 128.7 92.757 140.5 85.5C142.88 84.649 144.88 83.316 146.5 81.5C155.89 75.504 166.23 71.838 177.5 70.5C181.04 70.247 184.37 69.581 187.5 68.5C199.49 67.668 211.49 67.001 223.5 66.5C235.51 67.072 247.51 67.739 259.5 68.5Z" fill="#FCFCFC"/>
<path fill-rule="evenodd" clip-rule="evenodd" d="M157.5 116.5C149.07 118.743 140.41 120.409 131.5 121.5C131.5 121.167 131.5 120.833 131.5 120.5C140.15 118.903 148.81 117.57 157.5 116.5Z" fill="#6C6C6C"/>
<path fill-rule="evenodd" clip-rule="evenodd" d="M291.5 116.5C299.8 117.323 307.8 118.989 315.5 121.5C307.87 120.196 300.2 119.029 292.5 118C291.94 117.617 291.61 117.117 291.5 116.5Z" fill="#636363"/>
<path fill-rule="evenodd" clip-rule="evenodd" d="M201.5 111.5C215.68 111.171 229.68 111.504 243.5 112.5C225.49 112.319 207.49 112.652 189.5 113.5C193.32 112.518 197.32 111.851 201.5 111.5Z" fill="#686868"/>
<path fill-rule="evenodd" clip-rule="evenodd" d="M201.5 111.5C221.68 110.193 242.02 110.36 262.5 112C263.42 112.278 264.08 112.778 264.5 113.5C257.41 113.795 250.41 113.462 243.5 112.5C229.68 111.504 215.68 111.171 201.5 111.5Z" fill="#BDBDBD"/>
<path fill-rule="evenodd" clip-rule="evenodd" d="M239.5 65.5C246.38 65.981 253.04 66.981 259.5 68.5C247.51 67.739 235.51 67.072 223.5 66.5C211.49 67.001 199.49 67.668 187.5 68.5C191.54 66.823 195.88 66.156 200.5 66.5C213.48 65.701 226.48 65.367 239.5 65.5Z" fill="#B2B2B2"/>
<path fill-rule="evenodd" clip-rule="evenodd" d="M239.5 65.5C226.48 65.367 213.48 65.701 200.5 66.5C201.95 65.698 203.62 65.198 205.5 65C217.01 64.174 228.34 64.341 239.5 65.5Z" fill="#4A4A4A"/>
<path fill-rule="evenodd" clip-rule="evenodd" d="M88.4998 165.5C88.1698 168.5 89.4998 169.833 92.4998 169.5C93.7798 169.218 94.7798 168.551 95.4998 167.5C97.1398 167.714 98.6398 167.38 99.9998 166.5C100.46 167.094 100.63 167.761 100.5 168.5C100.37 170.216 100.04 171.883 99.4998 173.5C98.8798 173.611 98.3798 173.944 97.9998 174.5C96.1998 181.048 95.3598 187.714 95.4998 194.5C94.6798 201.293 92.6798 207.626 89.4998 213.5C87.0698 217.111 85.3998 221.111 84.4998 225.5C82.9898 227.181 81.9898 229.181 81.4998 231.5C80.6198 231.369 79.9598 231.702 79.4998 232.5C77.3098 236.67 75.6398 241.004 74.4998 245.5C73.4998 245.414 72.6698 245.748 71.9998 246.5C68.8998 252.37 66.0698 258.37 63.4998 264.5C61.9198 268.008 60.5898 271.674 59.4998 275.5C58.2098 276.058 57.3798 277.058 56.9998 278.5C56.1698 281.793 55.6698 285.126 55.4998 288.5C55.4998 288.833 55.4998 289.167 55.4998 289.5C53.8598 294.234 53.1898 299.234 53.4998 304.5C53.4998 305.5 53.4998 306.5 53.4998 307.5C52.5198 310.962 52.1898 314.629 52.4998 318.5C53.4998 318.5 54.4998 318.5 55.4998 318.5C55.8298 318.5 56.1698 318.5 56.4998 318.5C68.5098 324.394 81.1798 328.728 94.4998 331.5C101.73 334.356 109.07 337.023 116.5 339.5C116.47 340.497 116.97 341.164 118 341.5C123.15 343.274 128.32 344.94 133.5 346.5C145.76 349.979 157.76 353.979 169.5 358.5C173.5 360.61 177.84 361.943 182.5 362.5C182.83 363.5 183.5 364.167 184.5 364.5C184.5 374.833 184.5 385.167 184.5 395.5C180.39 396.393 176.72 398.06 173.5 400.5C172.29 401.234 170.96 401.567 169.5 401.5C159.6 404.787 150.93 410.121 143.5 417.5C142.44 419.022 141.77 420.688 141.5 422.5C138.63 422.198 135.96 421.531 133.5 420.5C134.83 420.5 136.17 420.5 137.5 420.5C137.83 398.157 137.5 375.823 136.5 353.5C134.93 352.691 133.26 352.357 131.5 352.5C129.56 351.85 127.56 351.517 125.5 351.5C124.1 350.069 122.43 348.902 120.5 348C112.68 347.282 105.51 344.782 98.9998 340.5C81.0698 335.06 63.2298 329.393 45.4998 323.5C45.4698 313.429 46.3098 303.429 47.9998 293.5C50.1698 285.175 52.4998 276.842 54.9998 268.5C67.4798 245.717 78.8198 222.384 88.9998 198.5C90.4698 192.968 90.6398 187.468 89.4998 182C91.6598 179.478 91.9998 176.645 90.4998 173.5C87.1198 172.818 84.4498 171.151 82.4998 168.5C83.9198 158.892 84.7598 149.225 84.9998 139.5C85.3298 139.167 85.6698 138.833 85.9998 138.5C86.3298 139.5 86.6698 140.5 86.9998 141.5C87.1698 149.677 87.6698 157.677 88.4998 165.5Z" fill="#F8F8F8"/>
<path fill-rule="evenodd" clip-rule="evenodd" d="M333.5 170.5C333.83 170.5 334.17 170.5 334.5 170.5C329.59 176.415 323.59 180.748 316.5 183.5C322.43 179.581 328.09 175.248 333.5 170.5Z" fill="#868686"/>
<path fill-rule="evenodd" clip-rule="evenodd" d="M99.4999 173.5C99.2199 180.831 97.8799 187.831 95.4999 194.5C95.3599 187.714 96.1999 181.048 97.9999 174.5C98.3799 173.944 98.8799 173.611 99.4999 173.5Z" fill="#CACACA"/>
<path fill-rule="evenodd" clip-rule="evenodd" d="M125.5 179.5C127.85 180.34 129.85 181.674 131.5 183.5C128.8 183.155 126.8 181.822 125.5 179.5Z" fill="#939393"/>
<path fill-rule="evenodd" clip-rule="evenodd" d="M347.5 168.5C349.56 173.279 351.06 178.279 352 183.5C352.84 189.177 353.67 194.844 354.5 200.5C350.87 190.264 348.54 179.598 347.5 168.5Z" fill="#C1C1C1"/>
<path fill-rule="evenodd" clip-rule="evenodd" d="M145.5 189.5C147.4 189.796 149.07 190.463 150.5 191.5C148.3 191.88 146.64 191.213 145.5 189.5Z" fill="#7F7F7F"/>
<path fill-rule="evenodd" clip-rule="evenodd" d="M150.5 191.5C152.9 191.259 154.9 191.926 156.5 193.5C154.1 193.741 152.1 193.074 150.5 191.5Z" fill="#7E7E7E"/>
<path fill-rule="evenodd" clip-rule="evenodd" d="M316.5 183.5C308.51 189.167 299.51 192.5 289.5 193.5C298.74 190.974 307.74 187.64 316.5 183.5Z" fill="#6F6F6F"/>
<path fill-rule="evenodd" clip-rule="evenodd" d="M156.5 193.5C159.23 193.171 161.56 193.837 163.5 195.5C160.85 195.59 158.51 194.924 156.5 193.5Z" fill="#5B5B5B"/>
<path fill-rule="evenodd" clip-rule="evenodd" d="M169.5 196.5C173.79 196.198 177.79 196.864 181.5 198.5C177.29 198.283 173.29 197.617 169.5 196.5Z" fill="#636363"/>
<path fill-rule="evenodd" clip-rule="evenodd" d="M261.5 197.5C257.46 199.177 253.12 199.844 248.5 199.5C246.83 199.5 245.17 199.5 243.5 199.5C249.32 198.511 255.32 197.844 261.5 197.5Z" fill="#B6B6B6"/>
<path fill-rule="evenodd" clip-rule="evenodd" d="M192.5 199.5C209.5 200.771 226.5 200.771 243.5 199.5C245.17 199.5 246.83 199.5 248.5 199.5C247.05 200.302 245.38 200.802 243.5 201C228.83 201.667 214.17 201.667 199.5 201C196.96 200.814 194.63 200.314 192.5 199.5Z" fill="#636363"/>
<path fill-rule="evenodd" clip-rule="evenodd" d="M354.5 200.5C356.95 203.986 358.28 207.986 358.5 212.5C355.95 209.004 354.62 205.004 354.5 200.5Z" fill="#BEBEBE"/>
<path fill-rule="evenodd" clip-rule="evenodd" d="M155.5 211.5C156.48 215.316 157.15 219.316 157.5 223.5C159.03 227.586 161.69 230.586 165.5 232.5C169.06 233.423 172.73 233.756 176.5 233.5C177.5 233.586 178.33 233.252 179 232.5C180.56 230.783 181.39 228.783 181.5 226.5C183.16 224.562 183.83 222.228 183.5 219.5C188.78 220.755 194.11 221.755 199.5 222.5C200.22 224.137 200.38 225.803 200 227.5C198.03 229.55 195.87 231.217 193.5 232.5C187.04 235.197 180.71 237.864 174.5 240.5C165.2 241.646 156.53 239.98 148.5 235.5C142.4 232.198 138.4 227.198 136.5 220.5C136.5 219.5 136.5 218.5 136.5 217.5C136.5 214.5 136.5 211.5 136.5 208.5C142.86 209.34 149.19 210.34 155.5 211.5Z" fill="#F4F4F4"/>
<path fill-rule="evenodd" clip-rule="evenodd" d="M310.5 221.5C311.28 217.854 311.45 214.188 311 210.5C308.96 209.577 306.79 209.244 304.5 209.5C313.2 204.511 316.03 207.178 313 217.5C312.8 219.32 311.97 220.653 310.5 221.5Z" fill="#C5C5C5"/>
<path fill-rule="evenodd" clip-rule="evenodd" d="M155.5 211.5C149.19 210.34 142.86 209.34 136.5 208.5C136.5 211.5 136.5 214.5 136.5 217.5C135.52 214.713 135.19 211.713 135.5 208.5C135.97 207.307 136.97 206.64 138.5 206.5C144.31 208.032 149.98 209.699 155.5 211.5Z" fill="#C8C8C8"/>
<path fill-rule="evenodd" clip-rule="evenodd" d="M135.5 208.5C135.19 211.713 135.52 214.713 136.5 217.5C136.5 218.5 136.5 219.5 136.5 220.5C135.88 220.389 135.38 220.056 135 219.5C134.19 215.642 134.36 211.976 135.5 208.5Z" fill="#636363"/>
<path fill-rule="evenodd" clip-rule="evenodd" d="M89.5 213.5C88.9 218.017 87.24 222.017 84.5 225.5C85.4 221.111 87.07 217.111 89.5 213.5Z" fill="#ACACAC"/>
<path fill-rule="evenodd" clip-rule="evenodd" d="M165.5 215.5C172.72 214.688 174.72 217.355 171.5 223.5C167.11 225.305 164.44 223.805 163.5 219C163.98 217.697 164.64 216.531 165.5 215.5Z" fill="#BCBCBC"/>
<path fill-rule="evenodd" clip-rule="evenodd" d="M264.5 219.5C265.92 218.549 267.59 218.216 269.5 218.5C269.5 220.5 269.5 222.5 269.5 224.5C268.55 223.081 268.22 221.415 268.5 219.5C267.5 219.5 266.5 219.5 265.5 219.5C265.17 219.5 264.83 219.5 264.5 219.5Z" fill="#565656"/>
<path fill-rule="evenodd" clip-rule="evenodd" d="M183.5 219.5C183.83 222.228 183.16 224.562 181.5 226.5C181.72 223.933 182.39 221.599 183.5 219.5Z" fill="#6C6C6C"/>
<path fill-rule="evenodd" clip-rule="evenodd" d="M278.5 215.5C286.04 214.677 288.04 217.51 284.5 224C277.78 224.726 275.78 221.893 278.5 215.5Z" fill="#C8C8C8"/>
<path fill-rule="evenodd" clip-rule="evenodd" d="M264.5 219.5C264.83 219.5 265.17 219.5 265.5 219.5C260.75 221.166 255.75 222.333 250.5 223C249.75 223.671 249.41 224.504 249.5 225.5C248.83 225.167 248.17 224.833 247.5 224.5C247.5 223.5 247.5 222.5 247.5 221.5C253.15 220.672 258.81 220.006 264.5 219.5Z" fill="#C5C5C5"/>
<path fill-rule="evenodd" clip-rule="evenodd" d="M304.5 209.5C306.79 209.244 308.96 209.577 311 210.5C311.45 214.188 311.28 217.854 310.5 221.5C310.5 221.833 310.5 222.167 310.5 222.5C304.47 230.857 296.47 236.524 286.5 239.5C280.46 239.64 274.46 239.307 268.5 238.5C266.29 237.227 263.95 236.227 261.5 235.5C260.31 233.025 258.31 232.025 255.5 232.5C253.47 230.142 251.47 227.808 249.5 225.5C249.41 224.504 249.75 223.671 250.5 223C255.75 222.333 260.75 221.166 265.5 219.5C266.5 219.5 267.5 219.5 268.5 219.5C268.22 221.415 268.55 223.081 269.5 224.5C270.35 227.888 272.35 230.221 275.5 231.5C279.5 232.833 283.5 232.833 287.5 231.5C291.75 230.415 294.59 227.748 296 223.5C296.81 219.642 296.64 215.976 295.5 212.5C297.84 210.149 300.84 209.149 304.5 209.5Z" fill="#F6F6F6"/>
<path fill-rule="evenodd" clip-rule="evenodd" d="M199.5 222.5C200.83 222.5 202.17 222.5 203.5 222.5C203.21 228.79 199.88 232.123 193.5 232.5C195.87 231.217 198.03 229.55 200 227.5C200.38 225.803 200.22 224.137 199.5 222.5Z" fill="#A1A1A1"/>
<path fill-rule="evenodd" clip-rule="evenodd" d="M295.5 212.5C296.64 215.976 296.81 219.642 296 223.5C294.59 227.748 291.75 230.415 287.5 231.5C293.91 227.013 296.57 220.679 295.5 212.5Z" fill="#6F6F6F"/>
<path fill-rule="evenodd" clip-rule="evenodd" d="M230.5 232.5C228.93 230.898 228.26 228.898 228.5 226.5C223.79 226.173 219.12 226.507 214.5 227.5C213.86 229.78 212.86 231.78 211.5 233.5C211.22 229.79 212.56 226.957 215.5 225C220.2 224.352 224.87 224.519 229.5 225.5C229.99 227.806 230.33 230.139 230.5 232.5Z" fill="#A6A6A6"/>
<path fill-rule="evenodd" clip-rule="evenodd" d="M230.5 232.5C230.42 236.897 230.92 241.23 232 245.5C234.46 249.434 236.63 253.434 238.5 257.5C239.39 259.609 240.56 261.609 242 263.5C242.49 264.793 242.66 266.127 242.5 267.5C240.14 267.674 237.81 268.007 235.5 268.5C227.63 270.159 219.63 270.826 211.5 270.5C206.82 269.486 202.15 268.486 197.5 267.5C196.26 271.782 197.6 275.115 201.5 277.5C203.81 279.068 206.48 279.902 209.5 280C221.26 280.935 232.93 280.269 244.5 278C245.06 277.617 245.39 277.117 245.5 276.5C246.16 274.516 246.82 272.516 247.5 270.5C246.78 268.218 246.44 265.884 246.5 263.5C246.5 261.167 246.5 258.833 246.5 256.5C248.17 256.5 249.83 256.5 251.5 256.5C254.34 256.56 257.01 257.226 259.5 258.5C261.51 259.924 263.85 260.59 266.5 260.5C266.83 260.5 267.17 260.5 267.5 260.5C269.96 261.531 272.63 262.198 275.5 262.5C289.05 264.329 302.38 262.996 315.5 258.5C315.5 262.5 315.5 266.5 315.5 270.5C313.47 277.633 311.8 284.967 310.5 292.5C310.5 293.167 310.5 293.833 310.5 294.5C307.99 297.474 306.33 300.974 305.5 305C300.6 312.65 295.6 320.15 290.5 327.5C289.5 327.833 288.83 328.5 288.5 329.5C287.09 329.973 286.43 330.973 286.5 332.5C281.79 336.178 277.13 339.844 272.5 343.5C268.43 344.524 265.1 346.524 262.5 349.5C260.85 349.66 259.51 350.326 258.5 351.5C254.62 352.459 250.95 353.792 247.5 355.5C247.17 355.5 246.83 355.5 246.5 355.5C244.45 355.402 242.78 356.069 241.5 357.5C225.02 361.193 209.02 359.86 193.5 353.5C191.9 351.926 189.9 351.259 187.5 351.5C185.97 349.755 183.97 348.755 181.5 348.5C177.32 345.087 172.65 342.253 167.5 340C162 334.5 156.5 329 151 323.5C147.48 319.801 144.98 315.467 143.5 310.5C143.26 308.596 142.26 307.262 140.5 306.5C140.44 305.391 140.11 304.391 139.5 303.5C139.57 301.973 138.91 300.973 137.5 300.5C137.44 299.391 137.11 298.391 136.5 297.5C136.87 293.956 135.87 290.956 133.5 288.5C132.49 283.717 131.49 279.05 130.5 274.5C130.5 269.167 130.5 263.833 130.5 258.5C131.5 258.5 132.5 258.5 133.5 258.5C134.79 258.263 135.79 258.596 136.5 259.5C139.8 261.417 143.47 262.584 147.5 263C157.17 263.667 166.83 263.667 176.5 263C179.19 262.844 181.52 262.011 183.5 260.5C184.57 259.566 185.9 259.232 187.5 259.5C190.86 259.31 193.86 258.31 196.5 256.5C198.7 254.36 201.37 252.86 204.5 252C206.02 250.084 207.02 247.917 207.5 245.5C209.47 242.916 210.47 239.916 210.5 236.5C210.56 235.391 210.89 234.391 211.5 233.5C212.86 231.78 213.86 229.78 214.5 227.5C219.12 226.507 223.79 226.173 228.5 226.5C228.26 228.898 228.93 230.898 230.5 232.5Z" fill="#FBFBFB"/>
<path fill-rule="evenodd" clip-rule="evenodd" d="M84.5 225.5C84.54 228.089 83.54 230.089 81.5 231.5C81.99 229.181 82.99 227.181 84.5 225.5Z" fill="#959595"/>
<path fill-rule="evenodd" clip-rule="evenodd" d="M157.5 223.5C160.38 226.214 163.04 229.214 165.5 232.5C161.69 230.586 159.03 227.586 157.5 223.5Z" fill="#494949"/>
<path fill-rule="evenodd" clip-rule="evenodd" d="M362.5 223.5C363.38 223.369 364.04 223.702 364.5 224.5C366.46 228.754 368.13 233.088 369.5 237.5C366.66 233.151 364.33 228.484 362.5 223.5Z" fill="#AAAAAA"/>
<path fill-rule="evenodd" clip-rule="evenodd" d="M247.5 224.5C248.17 224.833 248.83 225.167 249.5 225.5C251.47 227.808 253.47 230.142 255.5 232.5C251.5 231.167 248.83 228.5 247.5 224.5Z" fill="#757575"/>
<path fill-rule="evenodd" clip-rule="evenodd" d="M287.5 231.5C283.5 232.833 279.5 232.833 275.5 231.5C279.52 230.375 283.52 230.375 287.5 231.5Z" fill="#505050"/>
<path fill-rule="evenodd" clip-rule="evenodd" d="M181.5 226.5C181.39 228.783 180.56 230.783 179 232.5C178.33 233.252 177.5 233.586 176.5 233.5C177.93 230.953 179.6 228.619 181.5 226.5Z" fill="#8F8F8F"/>
<path fill-rule="evenodd" clip-rule="evenodd" d="M193.5 232.5C189.99 235.756 185.99 238.256 181.5 240C179.19 240.497 176.86 240.663 174.5 240.5C180.71 237.864 187.04 235.197 193.5 232.5Z" fill="#858585"/>
<path fill-rule="evenodd" clip-rule="evenodd" d="M255.5 232.5C258.31 232.025 260.31 233.025 261.5 235.5C259.03 235.245 257.03 234.245 255.5 232.5Z" fill="#969696"/>
<path fill-rule="evenodd" clip-rule="evenodd" d="M310.5 222.5C306.15 233.033 298.15 238.7 286.5 239.5C296.47 236.524 304.47 230.857 310.5 222.5Z" fill="#AAAAAA"/>
<path fill-rule="evenodd" clip-rule="evenodd" d="M261.5 235.5C263.95 236.227 266.29 237.227 268.5 238.5C269.5 239.167 270.5 239.833 271.5 240.5C267.25 240.376 263.92 238.71 261.5 235.5Z" fill="#5C5C5C"/>
<path fill-rule="evenodd" clip-rule="evenodd" d="M81.5 231.5C80.19 236.795 77.85 241.462 74.5 245.5C75.64 241.004 77.31 236.67 79.5 232.5C79.96 231.702 80.62 231.369 81.5 231.5Z" fill="#B6B6B6"/>
<path fill-rule="evenodd" clip-rule="evenodd" d="M210.5 236.5C210.47 239.916 209.47 242.916 207.5 245.5C207.53 242.084 208.53 239.084 210.5 236.5Z" fill="#6F6F6F"/>
<path fill-rule="evenodd" clip-rule="evenodd" d="M268.5 238.5C274.46 239.307 280.46 239.64 286.5 239.5C286.39 240.117 286.06 240.617 285.5 241C280.78 241.717 276.11 241.55 271.5 240.5C270.5 239.833 269.5 239.167 268.5 238.5Z" fill="#9C9C9C"/>
<path fill-rule="evenodd" clip-rule="evenodd" d="M148.5 235.5C156.53 239.98 165.2 241.646 174.5 240.5C172.78 241.8 170.61 242.467 168 242.5C160.42 242.779 153.92 240.446 148.5 235.5Z" fill="#535353"/>
<path fill-rule="evenodd" clip-rule="evenodd" d="M370.5 239.5C372.35 241.03 373.35 243.03 373.5 245.5C371.46 244.089 370.46 242.089 370.5 239.5Z" fill="#A2A2A2"/>
<path fill-rule="evenodd" clip-rule="evenodd" d="M230.5 232.5C233.31 240.705 235.97 249.038 238.5 257.5C236.63 253.434 234.46 249.434 232 245.5C230.92 241.23 230.42 236.897 230.5 232.5Z" fill="#BCBCBC"/>
<path fill-rule="evenodd" clip-rule="evenodd" d="M251.5 256.5C249.83 256.5 248.17 256.5 246.5 256.5C246.5 258.833 246.5 261.167 246.5 263.5C243.96 260.306 243.13 256.639 244 252.5C246.66 253.698 249.16 255.031 251.5 256.5Z" fill="#CACACA"/>
<path fill-rule="evenodd" clip-rule="evenodd" d="M196.5 256.5C193.86 258.31 190.86 259.31 187.5 259.5C190.08 257.528 193.08 256.528 196.5 256.5Z" fill="#8B8B8B"/>
<path fill-rule="evenodd" clip-rule="evenodd" d="M259.5 258.5C262.15 258.41 264.49 259.076 266.5 260.5C263.85 260.59 261.51 259.924 259.5 258.5Z" fill="#676767"/>
<path fill-rule="evenodd" clip-rule="evenodd" d="M136.5 259.5C152.09 263.012 167.76 263.345 183.5 260.5C181.52 262.011 179.19 262.844 176.5 263C166.83 263.667 157.17 263.667 147.5 263C143.47 262.584 139.8 261.417 136.5 259.5Z" fill="#AEAEAE"/>
<path fill-rule="evenodd" clip-rule="evenodd" d="M267.5 260.5C275.48 261.166 283.48 261.499 291.5 261.5C286.36 262.488 281.03 262.821 275.5 262.5C272.63 262.198 269.96 261.531 267.5 260.5Z" fill="#676767"/>
<path fill-rule="evenodd" clip-rule="evenodd" d="M315.5 270.5C315.5 266.5 315.5 262.5 315.5 258.5C302.38 262.996 289.05 264.329 275.5 262.5C281.03 262.821 286.36 262.488 291.5 261.5C300.04 260.725 308.37 259.059 316.5 256.5C316.82 261.363 316.49 266.03 315.5 270.5Z" fill="#ADADAD"/>
<path fill-rule="evenodd" clip-rule="evenodd" d="M74.5 245.5C71.72 250.308 69.22 255.308 67 260.5C66.05 262.093 64.88 263.426 63.5 264.5C66.07 258.37 68.9 252.37 72 246.5C72.67 245.748 73.5 245.414 74.5 245.5Z" fill="#A5A5A5"/>
<path fill-rule="evenodd" clip-rule="evenodd" d="M133.5 258.5C132.5 258.5 131.5 258.5 130.5 258.5C130.5 263.833 130.5 269.167 130.5 274.5C129.51 269.025 129.18 263.358 129.5 257.5C131.1 257.232 132.43 257.566 133.5 258.5Z" fill="#8F8F8F"/>
<path fill-rule="evenodd" clip-rule="evenodd" d="M235.5 268.5C233.72 269.6 231.72 270.434 229.5 271C223.32 271.819 217.32 271.653 211.5 270.5C219.63 270.826 227.63 270.159 235.5 268.5Z" fill="#ACACAC"/>
<path fill-rule="evenodd" clip-rule="evenodd" d="M381.5 260.5C384.91 263.637 387.08 267.637 388 272.5C389.55 277.73 390.38 283.063 390.5 288.5C388.01 279.066 385.01 269.733 381.5 260.5Z" fill="#A1A1A1"/>
<path fill-rule="evenodd" clip-rule="evenodd" d="M315.5 270.5C315.09 278.23 313.42 285.563 310.5 292.5C311.8 284.967 313.47 277.633 315.5 270.5Z" fill="#B6B6B6"/>
<path fill-rule="evenodd" clip-rule="evenodd" d="M245.5 276.5C245.39 277.117 245.06 277.617 244.5 278C232.93 280.269 221.26 280.935 209.5 280C206.48 279.902 203.81 279.068 201.5 277.5C216.24 280.321 230.91 279.987 245.5 276.5Z" fill="#BDBDBD"/>
<path fill-rule="evenodd" clip-rule="evenodd" d="M130.5 274.5C131.49 279.05 132.49 283.717 133.5 288.5C132.88 288.389 132.38 288.056 132 287.5C130.92 283.23 130.42 278.897 130.5 274.5Z" fill="#484848"/>
<path fill-rule="evenodd" clip-rule="evenodd" d="M59.5 275.5C58.48 280.05 57.15 284.384 55.5 288.5C55.67 285.126 56.17 281.793 57 278.5C57.38 277.058 58.21 276.058 59.5 275.5Z" fill="#9D9D9D"/>
<path fill-rule="evenodd" clip-rule="evenodd" d="M133.5 288.5C135.87 290.956 136.87 293.956 136.5 297.5C134.53 294.916 133.53 291.916 133.5 288.5Z" fill="#6D6D6D"/>
<path fill-rule="evenodd" clip-rule="evenodd" d="M228.5 297.5C232.84 297.278 236.51 298.611 239.5 301.5C235.61 300.538 231.94 299.204 228.5 297.5Z" fill="#727272"/>
<path fill-rule="evenodd" clip-rule="evenodd" d="M228.5 297.5C231.94 299.204 235.61 300.538 239.5 301.5C246.75 305.743 251.75 311.743 254.5 319.5C253.07 319.421 251.74 319.754 250.5 320.5C249.29 318.059 247.62 316.059 245.5 314.5C245.19 312.856 244.19 311.856 242.5 311.5C239.34 308.419 235.68 306.086 231.5 304.5C227.02 303.352 222.35 303.185 217.5 304C215.28 304.566 213.28 305.4 211.5 306.5C209.41 307.045 207.41 307.878 205.5 309C202.57 311.09 200.24 313.59 198.5 316.5C196.95 318.385 194.95 319.385 192.5 319.5C190.4 318.121 190.07 316.455 191.5 314.5C194.83 310.5 198.5 306.833 202.5 303.5C207.04 301.143 211.71 298.977 216.5 297C220.69 296.188 224.69 296.355 228.5 297.5Z" fill="#161616"/>
<path fill-rule="evenodd" clip-rule="evenodd" d="M390.5 292.5C391.27 293.263 391.77 294.263 392 295.5C392.5 299.486 392.67 303.486 392.5 307.5C391.6 302.668 390.93 297.668 390.5 292.5Z" fill="#626262"/>
<path fill-rule="evenodd" clip-rule="evenodd" d="M55.4999 289.5C55.6999 294.75 55.0299 299.75 53.4999 304.5C53.1899 299.234 53.8599 294.234 55.4999 289.5Z" fill="#878787"/>
<path fill-rule="evenodd" clip-rule="evenodd" d="M137.5 300.5C138.91 300.973 139.57 301.973 139.5 303.5C138.09 303.027 137.43 302.027 137.5 300.5Z" fill="#757575"/>
<path fill-rule="evenodd" clip-rule="evenodd" d="M231.5 304.5C224.73 304.286 218.06 304.953 211.5 306.5C213.28 305.4 215.28 304.566 217.5 304C222.35 303.185 227.02 303.352 231.5 304.5Z" fill="#B2B2B2"/>
<path fill-rule="evenodd" clip-rule="evenodd" d="M140.5 306.5C142.26 307.262 143.26 308.596 143.5 310.5C141.74 309.738 140.74 308.404 140.5 306.5Z" fill="#797979"/>
<path fill-rule="evenodd" clip-rule="evenodd" d="M202.5 303.5C198.5 306.833 194.83 310.5 191.5 314.5C193.52 309.15 197.18 305.483 202.5 303.5Z" fill="#ADADAD"/>
<path fill-rule="evenodd" clip-rule="evenodd" d="M242.5 311.5C244.19 311.856 245.19 312.856 245.5 314.5C244.99 316.751 243.99 318.751 242.5 320.5C242.59 319.504 242.25 318.671 241.5 318C233.12 314.702 224.46 313.702 215.5 315C212.58 317.431 209.25 318.598 205.5 318.5C216.51 309.424 228.51 308.09 241.5 314.5C242.17 314.333 242.83 314.167 243.5 314C242.75 313.329 242.41 312.496 242.5 311.5Z" fill="#DEDEDE"/>
<path fill-rule="evenodd" clip-rule="evenodd" d="M310.5 294.5C309.23 299.295 307.57 303.962 305.5 308.5C301.75 312.756 298.58 317.423 296 322.5C294.3 324.373 292.46 326.04 290.5 327.5C295.6 320.15 300.6 312.65 305.5 305C306.33 300.974 307.99 297.474 310.5 294.5Z" fill="#999999"/>
<path fill-rule="evenodd" clip-rule="evenodd" d="M53.5002 307.5C53.0402 311.502 53.7002 315.169 55.5002 318.5C54.5002 318.5 53.5002 318.5 52.5002 318.5C52.1902 314.629 52.5202 310.962 53.5002 307.5Z" fill="#959595"/>
<path fill-rule="evenodd" clip-rule="evenodd" d="M242.5 320.5C242.5 321.167 242.17 321.5 241.5 321.5C232.64 319.53 223.64 319.03 214.5 320C212.68 320.2 211.35 321.034 210.5 322.5C207.05 323.244 205.38 321.91 205.5 318.5C209.25 318.598 212.58 317.431 215.5 315C224.46 313.702 233.12 314.702 241.5 318C242.25 318.671 242.59 319.504 242.5 320.5Z" fill="#1F1F1F"/>
<path fill-rule="evenodd" clip-rule="evenodd" d="M198.5 316.5C197.66 320.191 195.66 321.191 192.5 319.5C194.95 319.385 196.95 318.385 198.5 316.5Z" fill="#9E9E9E"/>
<path fill-rule="evenodd" clip-rule="evenodd" d="M241.5 321.5C240.55 322.152 239.38 322.486 238 322.5C228.91 319.928 219.75 319.928 210.5 322.5C211.35 321.034 212.68 320.2 214.5 320C223.64 319.03 232.64 319.53 241.5 321.5Z" fill="#BBBBBB"/>
<path fill-rule="evenodd" clip-rule="evenodd" d="M392.5 317.5C390.05 318.217 387.71 319.384 385.5 321C382.85 321.497 380.19 321.664 377.5 321.5C382.18 319.392 387.18 318.059 392.5 317.5Z" fill="#A9A9A9"/>
<path fill-rule="evenodd" clip-rule="evenodd" d="M56.5 318.5C69.41 322.47 82.08 326.803 94.5 331.5C81.18 328.728 68.51 324.394 56.5 318.5Z" fill="#A7A7A7"/>
<path fill-rule="evenodd" clip-rule="evenodd" d="M367.5 325.5C362.45 328.076 357.11 330.076 351.5 331.5C356.38 328.536 361.72 326.536 367.5 325.5Z" fill="#9B9B9B"/>
<path fill-rule="evenodd" clip-rule="evenodd" d="M229.5 329.5C224.82 329.334 220.15 329.501 215.5 330C213.84 331.444 213.18 333.278 213.5 335.5C212.06 333.183 212.39 331.016 214.5 329C219.68 328.184 224.68 328.35 229.5 329.5Z" fill="#595959"/>
<path fill-rule="evenodd" clip-rule="evenodd" d="M229.5 329.5C234.4 329.364 236.06 331.364 234.5 335.5C230.93 335.685 227.6 335.019 224.5 333.5C221.75 333.714 219.41 334.714 217.5 336.5C216.04 336.567 214.71 336.234 213.5 335.5C213.18 333.278 213.84 331.444 215.5 330C220.15 329.501 224.82 329.334 229.5 329.5Z" fill="#0A0A0A"/>
<path fill-rule="evenodd" clip-rule="evenodd" d="M288.5 329.5C288.57 331.027 287.91 332.027 286.5 332.5C286.43 330.973 287.09 329.973 288.5 329.5Z" fill="#737373"/>
<path fill-rule="evenodd" clip-rule="evenodd" d="M387.5 326.5C389.06 336.969 390.06 347.636 390.5 358.5C390.76 362.6 390.43 366.6 389.5 370.5C389.17 371.167 388.83 371.833 388.5 372.5C382.25 377.411 376.25 382.744 370.5 388.5C366.29 390.435 362.63 393.102 359.5 396.5C346.6 405.12 332.93 412.453 318.5 418.5C316.51 397.192 315.84 375.526 316.5 353.5C318.38 353.771 319.71 353.104 320.5 351.5C328.81 347.522 337.47 344.355 346.5 342C348.76 341.451 350.43 340.284 351.5 338.5C354.38 337.317 357.38 336.317 360.5 335.5C367.1 333.611 373.43 331.278 379.5 328.5C382.33 328.416 384.99 327.75 387.5 326.5Z" fill="#0C0C0C"/>
<path fill-rule="evenodd" clip-rule="evenodd" d="M379.5 328.5C373.43 331.278 367.1 333.611 360.5 335.5C362.12 333.883 364.12 332.716 366.5 332C370.82 330.724 375.16 329.558 379.5 328.5Z" fill="#A5A5A5"/>
<path fill-rule="evenodd" clip-rule="evenodd" d="M234.5 335.5C229.02 336.489 223.36 336.822 217.5 336.5C219.41 334.714 221.75 333.714 224.5 333.5C227.6 335.019 230.93 335.685 234.5 335.5Z" fill="#5B5B5B"/>
<path fill-rule="evenodd" clip-rule="evenodd" d="M340.5 335.5C338.06 336.871 335.4 337.871 332.5 338.5C334.62 336.345 337.28 335.345 340.5 335.5Z" fill="#919191"/>
<path fill-rule="evenodd" clip-rule="evenodd" d="M116.5 339.5C121.18 340.893 125.85 342.393 130.5 344C131.94 344.377 132.94 345.21 133.5 346.5C128.32 344.94 123.15 343.274 118 341.5C116.97 341.164 116.47 340.497 116.5 339.5Z" fill="#979797"/>
<path fill-rule="evenodd" clip-rule="evenodd" d="M331.5 338.5C329.38 340.655 326.72 341.655 323.5 341.5C325.76 339.62 328.42 338.62 331.5 338.5Z" fill="#A3A3A3"/>
<path fill-rule="evenodd" clip-rule="evenodd" d="M272.5 343.5C269.51 346 266.17 348 262.5 349.5C265.1 346.524 268.43 344.524 272.5 343.5Z" fill="#979797"/>
<path fill-rule="evenodd" clip-rule="evenodd" d="M318.5 342.5C317.94 343.79 316.94 344.623 315.5 345C311.71 345.874 308.05 347.041 304.5 348.5C305.06 347.21 306.06 346.377 307.5 346C311.24 344.983 314.91 343.816 318.5 342.5Z" fill="#3D3D3D"/>
<path fill-rule="evenodd" clip-rule="evenodd" d="M181.5 348.5C183.97 348.755 185.97 349.755 187.5 351.5C185.03 351.245 183.03 350.245 181.5 348.5Z" fill="#6D6D6D"/>
<path fill-rule="evenodd" clip-rule="evenodd" d="M187.5 351.5C189.9 351.259 191.9 351.926 193.5 353.5C191.1 353.741 189.1 353.074 187.5 351.5Z" fill="#8C8C8C"/>
<path fill-rule="evenodd" clip-rule="evenodd" d="M301.5 349.5C301.05 350.458 300.38 351.292 299.5 352C296.2 353.026 292.86 353.86 289.5 354.5C292.95 351.782 296.95 350.115 301.5 349.5Z" fill="#AFAFAF"/>
<path fill-rule="evenodd" clip-rule="evenodd" d="M117.5 349.5C120 350.639 122.67 351.306 125.5 351.5C128.31 353.897 131.64 355.23 135.5 355.5C135.5 376.833 135.5 398.167 135.5 419.5C134.17 419.5 132.83 419.5 131.5 419.5C129.81 417.182 127.48 416.182 124.5 416.5C122.97 414.654 120.97 413.654 118.5 413.5C117.51 413.672 116.84 413.338 116.5 412.5C117.21 391.508 117.55 370.508 117.5 349.5Z" fill="#080808"/>
<path fill-rule="evenodd" clip-rule="evenodd" d="M258.5 351.5C255.43 354.19 251.76 355.523 247.5 355.5C250.95 353.792 254.62 352.459 258.5 351.5Z" fill="#616161"/>
<path fill-rule="evenodd" clip-rule="evenodd" d="M246.5 355.5C245.22 356.931 243.55 357.598 241.5 357.5C242.78 356.069 244.45 355.402 246.5 355.5Z" fill="#828282"/>
<path fill-rule="evenodd" clip-rule="evenodd" d="M285.5 355.5C281.92 357.806 277.92 359.139 273.5 359.5C277.22 357.595 281.22 356.261 285.5 355.5Z" fill="#8E8E8E"/>
<path fill-rule="evenodd" clip-rule="evenodd" d="M143.5 358.5C153.56 361.631 163.56 364.964 173.5 368.5C176.11 369.269 178.78 369.603 181.5 369.5C181.5 377.167 181.5 384.833 181.5 392.5C169.02 393.202 157.35 396.535 146.5 402.5C145.83 403.5 145.17 404.5 144.5 405.5C143.5 389.848 143.17 374.181 143.5 358.5Z" fill="#EAEAEA"/>
<path fill-rule="evenodd" clip-rule="evenodd" d="M169.5 358.5C174.16 359.057 178.5 360.39 182.5 362.5C177.84 361.943 173.5 360.61 169.5 358.5Z" fill="#646464"/>
<path fill-rule="evenodd" clip-rule="evenodd" d="M298.5 358.5C301.17 358.5 303.83 358.5 306.5 358.5C306.83 378.178 306.5 397.845 305.5 417.5C294.19 405.707 280.69 397.373 265 392.5C264.33 385.5 264.33 378.5 265 371.5C276.46 367.687 287.63 363.354 298.5 358.5Z" fill="#EAEAEA"/>
<path fill-rule="evenodd" clip-rule="evenodd" d="M351.5 338.5C350.43 340.284 348.76 341.451 346.5 342C337.47 344.355 328.81 347.522 320.5 351.5C318.6 351.796 316.93 352.463 315.5 353.5C314.5 375.66 314.17 397.994 314.5 420.5C313.34 398.004 313.17 375.337 314 352.5C323.86 348.05 334.02 344.217 344.5 341C346.32 338.863 348.65 338.03 351.5 338.5Z" fill="#BBBBBB"/>
<path fill-rule="evenodd" clip-rule="evenodd" d="M390.5 358.5C391.16 360.304 391.5 362.304 391.5 364.5C391.46 366.952 390.79 368.952 389.5 370.5C390.43 366.6 390.76 362.6 390.5 358.5Z" fill="#8B8B8B"/>
<path fill-rule="evenodd" clip-rule="evenodd" d="M182.5 362.5C183.82 362.33 184.99 362.663 186 363.5C186.83 374.674 186.66 385.674 185.5 396.5C185.83 385.654 185.49 374.987 184.5 364.5C183.5 364.167 182.83 363.5 182.5 362.5Z" fill="#7D7D7D"/>
<path fill-rule="evenodd" clip-rule="evenodd" d="M251.5 367.5C252.17 376.5 252.83 385.5 253.5 394.5C254.35 395.625 255.35 395.625 256.5 394.5C256.83 394.5 257.17 394.5 257.5 394.5C256.32 395.688 256.32 396.855 257.5 398C274.64 402.06 288.64 410.894 299.5 424.5C298.97 425.192 298.31 425.692 297.5 426C267.71 436.114 237.05 439.781 205.5 437C193.52 436.215 181.85 434.382 170.5 431.5C171.5 431.53 172.16 431.03 172.5 430C173.34 424.446 175.01 419.28 177.5 414.5C178.5 414.586 179.33 414.252 180 413.5C182.07 407.707 185.4 402.707 190 398.5C190.48 397.552 190.65 396.552 190.5 395.5C191.49 387.016 191.83 378.349 191.5 369.5C192.83 369.5 194.17 369.5 195.5 369.5C198.11 370.291 200.78 370.957 203.5 371.5C204.23 373.045 205.56 373.878 207.5 374C220.78 376.639 233.78 375.639 246.5 371C248.88 370.777 250.55 369.61 251.5 367.5Z" fill="#EAEAEA"/>
<path fill-rule="evenodd" clip-rule="evenodd" d="M251.5 367.5C250.55 369.61 248.88 370.777 246.5 371C233.78 375.639 220.78 376.639 207.5 374C205.56 373.878 204.23 373.045 203.5 371.5C219.97 375.021 235.97 373.688 251.5 367.5Z" fill="#898989"/>
<path fill-rule="evenodd" clip-rule="evenodd" d="M251.5 367.5C251.56 366.957 251.89 366.624 252.5 366.5C253.5 375.81 253.83 385.143 253.5 394.5C252.83 385.5 252.17 376.5 251.5 367.5Z" fill="#676767"/>
<path fill-rule="evenodd" clip-rule="evenodd" d="M258.5 364.5C257.53 374.418 257.19 384.418 257.5 394.5C257.17 394.5 256.83 394.5 256.5 394.5C255.86 384.111 256.53 374.111 258.5 364.5Z" fill="#727272"/>
<path fill-rule="evenodd" clip-rule="evenodd" d="M192.5 367.5C194.03 367.427 195.03 368.094 195.5 369.5C194.17 369.5 192.83 369.5 191.5 369.5C191.83 378.349 191.49 387.016 190.5 395.5C190.5 394.833 190.5 394.167 190.5 393.5C189.86 384.435 190.53 375.769 192.5 367.5Z" fill="#B0B0B0"/>
<path fill-rule="evenodd" clip-rule="evenodd" d="M192.5 367.5C190.53 375.769 189.86 384.435 190.5 393.5C189.51 384.682 189.17 375.682 189.5 366.5C190.79 366.263 191.79 366.596 192.5 367.5Z" fill="#515151"/>
<path fill-rule="evenodd" clip-rule="evenodd" d="M184.5 364.5C185.49 374.987 185.83 385.654 185.5 396.5C181.81 398.432 177.81 399.765 173.5 400.5C176.72 398.06 180.39 396.393 184.5 395.5C184.5 385.167 184.5 374.833 184.5 364.5Z" fill="#CCCCCC"/>
<path fill-rule="evenodd" clip-rule="evenodd" d="M117.5 349.5C117.55 370.508 117.21 391.508 116.5 412.5C115.83 412.5 115.5 412.167 115.5 411.5C115.35 390.649 116.02 369.982 117.5 349.5Z" fill="#676767"/>
<path fill-rule="evenodd" clip-rule="evenodd" d="M370.5 388.5C368.62 391.115 366.29 393.281 363.5 395C362.26 395.791 360.92 396.291 359.5 396.5C362.63 393.102 366.29 390.435 370.5 388.5Z" fill="#B6B6B6"/>
<path fill-rule="evenodd" clip-rule="evenodd" d="M315.5 353.5C315.17 375.673 315.5 397.673 316.5 419.5C316.16 420.338 315.49 420.672 314.5 420.5C314.17 397.994 314.5 375.66 315.5 353.5Z" fill="#848484"/>
<path fill-rule="evenodd" clip-rule="evenodd" d="M125.5 351.5C127.56 351.517 129.56 351.85 131.5 352.5C132.78 353.931 134.45 354.598 136.5 354.5C136.83 376.34 136.5 398.006 135.5 419.5C135.5 398.167 135.5 376.833 135.5 355.5C131.64 355.23 128.31 353.897 125.5 351.5Z" fill="#686868"/>
<path fill-rule="evenodd" clip-rule="evenodd" d="M131.5 352.5C133.26 352.357 134.93 352.691 136.5 353.5C137.5 375.823 137.83 398.157 137.5 420.5C136.17 420.5 134.83 420.5 133.5 420.5C132.51 420.672 131.84 420.338 131.5 419.5C132.83 419.5 134.17 419.5 135.5 419.5C136.5 398.006 136.83 376.34 136.5 354.5C134.45 354.598 132.78 353.931 131.5 352.5Z" fill="#C0C0C0"/>
<path fill-rule="evenodd" clip-rule="evenodd" d="M190.5 395.5C190.65 396.552 190.48 397.552 190 398.5C185.4 402.707 182.07 407.707 180 413.5C179.33 414.252 178.5 414.586 177.5 414.5C180.11 406.943 184.44 400.61 190.5 395.5Z" fill="#909090"/>
<path fill-rule="evenodd" clip-rule="evenodd" d="M169.5 401.5C163.67 405.137 157.67 408.637 151.5 412C147.5 415.155 144.5 418.988 142.5 423.5C141.83 423.5 141.5 423.167 141.5 422.5C141.77 420.688 142.44 419.022 143.5 417.5C150.93 410.121 159.6 404.787 169.5 401.5Z" fill="#8D8D8D"/>
<path fill-rule="evenodd" clip-rule="evenodd" d="M320.5 351.5C319.71 353.104 318.38 353.771 316.5 353.5C315.84 375.526 316.51 397.192 318.5 418.5C318.16 419.338 317.49 419.672 316.5 419.5C315.5 397.673 315.17 375.673 315.5 353.5C316.93 352.463 318.6 351.796 320.5 351.5Z" fill="#2E2E2E"/>
<path fill-rule="evenodd" clip-rule="evenodd" d="M118.5 413.5C120.97 413.654 122.97 414.654 124.5 416.5C122.03 416.346 120.03 415.346 118.5 413.5Z" fill="#A1A1A1"/>
</svg>
